<?xml version="1.0" encoding="UTF-8" standalone="no"?>
<svg
   xmlns:dc="http://purl.org/dc/elements/1.1/"
   xmlns:cc="http://creativecommons.org/ns#"
   xmlns:rdf="http://www.w3.org/1999/02/22-rdf-syntax-ns#"
   xmlns:svg="http://www.w3.org/2000/svg"
   xmlns="http://www.w3.org/2000/svg"
   xmlns:sodipodi="http://sodipodi.sourceforge.net/DTD/sodipodi-0.dtd"
   xmlns:inkscape="http://www.inkscape.org/namespaces/inkscape"
   version="2.0"
   viewbox="0 0 256 256"
   id="svg4"
   sodipodi:docname="imperial.svg"
   inkscape:version="1.0.2-2 (e86c870879, 2021-01-15)">
  <metadata
     id="metadata10">
    <rdf:RDF>
      <cc:Work
         rdf:about="">
        <dc:format>image/svg+xml</dc:format>
        <dc:type
           rdf:resource="http://purl.org/dc/dcmitype/StillImage" />
        <dc:title></dc:title>
      </cc:Work>
    </rdf:RDF>
  </metadata>
  <defs
     id="defs8" />
  <sodipodi:namedview
     pagecolor="#ffffff"
     bordercolor="#666666"
     borderopacity="1"
     objecttolerance="10"
     gridtolerance="10"
     guidetolerance="10"
     inkscape:pageopacity="0"
     inkscape:pageshadow="2"
     inkscape:window-width="2046"
     inkscape:window-height="2054"
     id="namedview6"
     showgrid="false"
     inkscape:pagecheckerboard="true"
     showborder="false"
     inkscape:zoom="4.69"
     inkscape:cx="30.597015"
     inkscape:cy="160.28785"
     inkscape:window-x="-10"
     inkscape:window-y="0"
     inkscape:window-maximized="0"
     inkscape:current-layer="svg4" />
  <path
     d="M 256,128.40025 C 256,94.298938 243.23232,64.360226 217.69697,38.584115 192.16162,12.808005 162.42424,0 128.48485,0 93.737374,0 63.515152,12.647905 38.141414,38.103815 12.767677,63.559725 0,93.658538 0,128.24016 0,162.50156 12.767677,192.44028 38.141414,217.89619 63.515152,243.3521 93.252525,256 127.51515,256 c 34.58586,0 64.64647,-12.6479 90.18182,-37.94371 C 243.23232,192.76048 256,163.14197 256,128.40025 Z m -37.33333,66.44153 c -19.87879,26.73671 -46.06061,41.78612 -78.70707,45.30831 v -8.005 c 7.27272,-0.8005 14.22222,-2.4015 21.17171,-4.64289 l -4.0404,-11.04691 c 3.39394,-1.4409 14.70707,-8.1651 34.26263,-20.01251 l 8.0808,8.3252 c 4.52526,-4.4828 8.72728,-9.28581 12.44445,-14.409 z m 21.65656,-66.76173 c 0,15.52971 -3.39394,31.05941 -10.0202,46.10882 l -6.78788,-4.0025 c 2.90909,-6.72421 5.0101,-13.76861 6.46465,-20.97311 l -11.47475,-2.0813 c 0.9697,-4.4828 1.61616,-8.9656 1.61616,-13.60851 0,-1.2808 -0.64646,-9.9262 -1.93939,-25.93621 l 11.47475,-3.0419 c -1.29293,-6.083801 -3.39394,-12.167603 -6.14142,-17.931206 l 7.11111,-4.322701 c 6.62627,15.049406 9.69697,30.258907 9.69697,45.788617 z M 116.36364,232.14509 v 8.3252 C 83.555556,236.9481 57.373737,221.73858 37.656566,194.84178 l 6.464646,-4.00251 c 4.363636,5.60351 9.050505,10.72671 14.222222,15.68981 l 8.080808,-8.6454 c 8.727273,6.7242 20.202021,13.1282 34.424238,19.05191 l -3.393935,11.6873 c 6.303035,1.76111 12.444445,2.8818 18.909095,3.5222 z m 84.52525,-79.08943 c -2.90909,8.80551 -7.59596,16.9706 -14.22222,24.65541 l -26.9899,-22.414 c -5.9798,7.20449 -13.73738,11.84739 -23.27273,13.92869 l 7.11111,34.74172 c -5.17172,0.96061 -10.18182,1.601 -15.19192,1.601 -4.68687,0 -9.21212,-0.3202 -13.41414,-0.9606 l 6.14142,-35.06191 c -9.37374,-1.9212 -17.29293,-6.404 -23.919197,-13.60851 l -26.343434,23.69481 c -6.464647,-7.3646 -11.313132,-15.5297 -14.545455,-24.3352 l 32.969697,-12.32772 c -1.454545,-4.6429 -2.10101,-9.606 -2.10101,-14.409 0,-4.6429 0.646465,-9.2858 1.939394,-13.60851 l -33.616162,-10.7267 c 3.39394,-9.285802 8.080809,-17.611006 14.222223,-24.975608 L 96.323232,101.98374 C 102.78788,94.459037 110.54545,89.656036 119.91919,87.894935 l -7.11111,-34.421514 c 5.17172,-1.2808 10.34344,-1.9212 15.51515,-1.9212 4.36364,0 8.72728,0.4803 13.41414,1.601001 l -6.46464,34.741713 c 9.53535,1.601 17.61616,6.083803 24.24242,13.608505 L 185.85859,77.808632 C 192,84.853034 196.84848,93.018137 200.08081,102.46404 l -32.9697,12.00751 c 1.45455,4.4828 2.10101,9.1257 2.10101,13.9287 0,4.80301 -0.64646,9.28581 -2.10101,13.60851 z m 17.77778,-90.936835 -6.78788,4.002502 C 207.67677,60.357724 202.9899,55.074422 197.65657,50.43152 l -8.08081,8.645404 C 178.10101,48.35022 166.62626,41.946216 155.15152,39.704816 l 3.39393,-10.726705 c -5.97979,-2.0813 -12.12121,-3.362101 -18.26262,-4.002501 v -8.005003 c 32.48485,3.522202 58.66666,18.571607 78.38384,45.148218 z m -180.686872,87.254535 -11.474747,2.7217 c 1.454545,6.08381 3.393939,12.1676 5.979797,18.09131 l -6.464646,4.0025 C 19.393939,159.45967 16,144.09006 16,128.08005 16,112.55034 19.070707,97.340839 25.373737,82.451533 l 7.111111,4.322702 c -2.90909,6.724202 -5.010101,13.768605 -6.464646,20.973115 l 11.79798,2.0813 c -1.454546,5.92369 -2.10101,12.1676 -2.10101,18.41151 -0.161616,6.08379 0.646464,13.1282 2.262626,21.1332 z M 116.36364,16.650407 v 8.325203 c -7.27273,0.8005 -14.22223,2.2414 -21.171721,4.322702 l 3.717172,11.367104 C 86.141414,44.988118 74.828283,51.71232 64.969697,60.998125 h -0.323232 l -8.080808,-8.965604 c -4.525253,4.322702 -8.727273,8.965604 -12.444445,14.088806 L 37.333333,62.118825 C 56.888889,35.382114 83.232323,20.172608 116.36364,16.650407 Z"
     id="path2"
     style="stroke-width:1.60856" />
</svg>
