<?xml version="1.0" encoding="UTF-8" standalone="no"?>
<svg
   xmlns:dc="http://purl.org/dc/elements/1.1/"
   xmlns:cc="http://creativecommons.org/ns#"
   xmlns:rdf="http://www.w3.org/1999/02/22-rdf-syntax-ns#"
   xmlns:svg="http://www.w3.org/2000/svg"
   xmlns="http://www.w3.org/2000/svg"
   xmlns:sodipodi="http://sodipodi.sourceforge.net/DTD/sodipodi-0.dtd"
   xmlns:inkscape="http://www.inkscape.org/namespaces/inkscape"
   version="2.0"
   viewbox="0 0 256 256"
   id="svg4"
   sodipodi:docname="mercinary.svg"
   inkscape:version="1.0.2-2 (e86c870879, 2021-01-15)">
  <metadata
     id="metadata10">
    <rdf:RDF>
      <cc:Work
         rdf:about="">
        <dc:format>image/svg+xml</dc:format>
        <dc:type
           rdf:resource="http://purl.org/dc/dcmitype/StillImage" />
        <dc:title></dc:title>
      </cc:Work>
    </rdf:RDF>
  </metadata>
  <defs
     id="defs8" />
  <sodipodi:namedview
     pagecolor="#ffffff"
     bordercolor="#666666"
     borderopacity="1"
     objecttolerance="10"
     gridtolerance="10"
     guidetolerance="10"
     inkscape:pageopacity="0"
     inkscape:pageshadow="2"
     inkscape:window-width="2046"
     inkscape:window-height="2054"
     id="namedview6"
     showgrid="false"
     inkscape:pagecheckerboard="true"
     showborder="false"
     inkscape:zoom="4.69"
     inkscape:cx="22.06823"
     inkscape:cy="160.28785"
     inkscape:window-x="-10"
     inkscape:window-y="0"
     inkscape:window-maximized="0"
     inkscape:current-layer="svg4" />
  <path
     d="m 220.8,169.44 c -1.6,-8.48 -2.4,-15.84 -2.4,-22.4 0,-0.16 0.16,-0.64 0.32,-1.28 v -0.96 c 0,-0.64 -0.32,-1.6 -0.8,-2.88 -0.48,-1.28 -0.8,-2.24 -0.8,-2.88 0,-12.48 -3.04,-18.72 -9.28,-18.72 h -8.32 l -0.96,-0.96 c 3.84,-2.72 5.76,-5.76 5.76,-9.6 0,-0.64 -0.16,-1.12 -0.32,-1.6 -4.16,-2.88 -8.32,-5.76 -12.64,-8.64 -5.12,-3.04 -9.92,-4.64 -14.4,-4.64 -2.72,0 -5.12,0.64 -7.36,1.92 -3.68,4.96 -8,9.28 -13.12,13.12 -4.96,3.84 -7.52,7.68 -7.52,11.52 0,2.24 1.44,4.48 4.32,6.72 2.24,1.44 4.64,3.04 7.36,4.64 6.56,5.76 12.96,13.28 19.04,22.72 4.64,8.8 9.6,17.44 14.4,26.08 1.6,2.72 2.4,4.64 2.4,6.08 0,1.44 -0.48,3.52 -1.6,6.24 -0.96,2.72 -1.6,4.8 -1.6,6.24 0,5.6 -5.6,10.08 -16.64,13.76 3.84,2.88 8.96,4.32 15.04,4.32 9.6,0 17.6,-5.44 24,-16.32 5.12,-8.8 7.68,-18.08 7.68,-28 0.48,-1.6 -0.48,-3.2 -2.56,-4.48 z M 169.76,62.24 c -4.32,-7.52 -6.72,-11.52 -7.36,-12 0.48,-2.72 2.08,-4.64 5.28,-6.08 -0.64,-0.48 -1.44,-0.64 -2.4,-0.64 -0.64,0 -1.12,0.16 -1.6,0.32 -2.4,4.96 -4.96,8.8 -7.68,11.68 v 11.04 c 0,2.24 -1.44,4.96 -4.32,8 -2.88,3.04 -5.6,5.12 -8.32,6.08 -8.8,3.04 -14.72,7.04 -17.76,12 -1.28,2.72 -2.72,8.16 -4.64,16.64 h -3.68 c -4.32,-6.56 -6.4,-11.68 -6.4,-15.36 0,-0.64 0.16,-1.6 0.48,-3.04 0.32,-1.44 0.48,-2.4 0.48,-3.04 0,-4.32 -1.44,-8.16 -4.32,-11.36 0.16,-3.52 2.24,-6.72 6.08,-9.6 3.52,-2.24 6.88,-4.64 10.08,-7.04 l -0.96,-0.32 2.4,-1.6 c 2.88,-4.96 7.52,-8.96 14.08,-12 3.84,-1.6 10.08,-3.52 18.72,-5.6 2.08,-2.72 3.04,-7.2 3.04,-13.6 0,-12.16 -3.68,-18.08 -11.04,-18.08 -1.44,0 -3.68,0.32 -6.56,0.8 -2.88,0.48 -5.12,0.8 -6.56,0.8 -2.08,0 -4.8,-0.8 -8.32,-2.24 -3.52,-1.6 -6.4,-2.24 -8.64,-2.24 -1.92,0 -6.08,2.08 -12.64,6.4 -0.48,-2.4 -1.6,-3.68 -3.68,-3.68 -6.4,0 -9.6,2.88 -9.6,8.64 0,2.72 1.6,6.24 4.96,10.72 -1.6,1.28 -3.52,1.92 -5.6,1.92 -3.04,0 -5.6,-2.72 -7.36,-8 L 96,6.4 C 95.84,2.08 93.6,0 89.6,0 84.48,0 78.56,2.4 72.16,7.36 c -6.56,4.96 -9.76,9.76 -9.76,14.4 0,8.96 6.56,19.52 19.68,31.52 13.12,12 19.68,22.56 19.68,31.84 0,0.96 -0.64,2.24 -2.08,3.68 -1.44,1.44 -2.08,2.72 -2.08,3.68 0,2.4 0.48,4.64 1.6,6.4 l 3.36,0.64 v 4.64 l -1.6,0.64 -1.28,-2.72 c -2.08,0.96 -4.16,1.6 -6.4,1.92 0.64,-3.52 0.48,-6.56 -0.64,-9.28 -3.04,-2.24 -5.28,-4 -6.72,-5.28 C 77.76,81.92 73.44,77.92 72.96,77.44 69.44,73.6 66.88,68.48 65.28,62.4 64.8,62.24 64.64,62.08 64.32,62.08 c -3.2,0 -6.72,2.72 -10.08,8 l 2.08,0.96 c 0,5.28 1.6,12.64 4.64,22.08 3.52,1.44 6.4,4.16 8.96,8 1.44,3.52 3.04,6.88 4.8,10.08 1.76,3.2 3.2,5.76 4.16,7.36 -1.44,16.8 1.76,25.28 9.6,25.28 2.24,0 3.84,-1.6 4.64,-4.64 1.28,1.44 2.72,2.56 4.32,3.36 2.08,7.84 3.04,13.28 3.04,16.32 0,0.48 0.32,0.96 0.8,1.92 0.48,0.8 0.8,1.44 0.8,1.92 0,2.08 -0.48,4.64 -1.6,7.68 1.28,0.96 2.72,1.6 4.32,1.6 1.28,0 2.24,-0.64 3.04,-2.08 0.8,-1.44 1.92,-2.08 3.04,-2.08 3.84,0 5.76,-0.64 5.76,-2.08 0,-0.96 -0.64,-2.08 -1.92,-3.36 -1.28,-1.28 -1.92,-2.24 -1.92,-3.04 0,-4.32 2.56,-6.4 7.68,-6.4 0.48,0.16 0.64,0.32 0.96,0.32 v 3.68 l -2.4,2.4 1.92,0.64 c 0,2.4 -0.64,4.48 -2.08,5.76 -5.28,12.96 -8.32,19.68 -8.96,20.32 0.48,0.48 0.64,0.96 0.64,1.6 0,1.44 -0.16,3.2 -0.48,5.6 -0.32,2.24 -0.48,4 -0.48,5.28 0,12.48 2.08,29.76 6.4,51.68 1.44,-3.52 2.24,-9.28 2.4,-17.44 0.16,-7.36 1.28,-12.96 3.04,-16.96 l 4.96,-9.76 c 0,-1.92 -0.32,-4.48 -1.12,-7.68 -0.64,-3.2 -1.12,-5.76 -1.12,-7.36 0,-0.64 0.16,-1.44 0.48,-2.56 0.32,-1.12 0.48,-1.92 0.48,-2.56 0,-2.88 0.16,-5.12 0.32,-6.72 l 2.72,-0.64 c -0.8,-0.64 -1.44,-1.28 -1.92,-2.08 1.44,-2.4 2.4,-4.96 3.04,-7.36 0.64,-0.64 0.96,-1.28 0.96,-2.08 0,-1.92 1.28,-4.16 3.68,-6.72 2.4,-2.72 3.68,-4.8 3.68,-6.4 v -12.96 c -1.6,-1.92 -3.2,-3.52 -4.96,-4.96 0.48,-3.84 0.64,-6.72 0.96,-8.64 7.2,-5.92 12.16,-10.72 15.04,-14.08 -0.8,-4.64 0,-10.08 2.56,-16.16 2.56,-6.08 5.92,-10.56 9.92,-13.6 5.6,-4.32 8.32,-7.2 8.32,-8.96 V 62.24 Z m -38.72,187.2 c 0,-0.96 -0.32,-2.24 -0.8,-3.68 -0.48,-1.44 -0.8,-2.56 -0.8,-3.36 V 228 c 0,-0.64 0.16,-1.44 0.32,-2.56 0.16,-1.12 0.32,-1.92 0.32,-2.56 0,-1.28 -0.32,-2.4 -0.96,-3.36 h -2.72 c -1.6,3.04 -2.4,6.72 -2.4,10.72 0,11.2 2.4,19.84 7.04,25.76 z M 95.36,161.12 c -1.28,-0.48 -2.56,-0.64 -4,-0.64 -1.6,0 -3.36,0.64 -5.28,1.92 -2.72,2.08 -4.16,3.2 -4.64,3.36 0,2.72 -0.32,6.4 -0.8,11.36 -0.48,4.96 -0.8,8.64 -0.8,11.04 0,3.84 2.88,8.64 8.64,14.24 5.76,5.6 8.64,10.4 8.64,14.24 0,1.28 0.32,2.72 1.12,4.48 0.64,1.76 1.12,3.2 1.12,4.16 0,6.72 1.28,15.52 3.68,26.4 0.96,-11.84 1.6,-19.04 1.6,-21.44 0,-0.96 -0.32,-2.56 -1.12,-4.48 -0.64,-1.92 -1.12,-3.36 -1.12,-4.48 0,-4.96 -0.8,-10.08 -2.4,-15.68 2.72,-9.6 4,-16.96 4,-22.08 0,-0.96 -0.16,-1.92 -0.32,-2.72 l 0.96,-0.32 0.96,2.08 1.92,-0.64 c -6.08,-8.8 -10.08,-15.84 -12.16,-20.8 z m -35.84,-56 c -7.2,-5.28 -12.64,-7.84 -16.64,-7.84 -4.16,0 -7.36,1.28 -9.76,4 -2.4,2.72 -4.64,5.28 -6.72,7.68 -2.24,2.4 -4,4.16 -5.28,5.28 -4.48,4.48 -8.64,10.72 -12.48,18.72 -3.84,8 -5.76,14.88 -5.76,20.64 0,2.24 -0.48,5.44 -1.44,9.44 -0.96,4 -1.44,7.04 -1.44,9.44 v 12.32 c 0,5.76 3.2,12.96 9.6,21.44 6.72,9.28 13.12,13.76 19.04,13.76 h 8 c 0.8,0 2.24,-0.16 4.16,-0.32 1.92,-0.16 3.36,-0.32 4.48,-0.32 1.44,0 2.72,0.16 3.68,0.32 l 11.68,-2.08 c -7.2,-0.96 -12.32,-1.76 -15.68,-2.08 -6.08,-1.44 -11.68,-5.28 -16.48,-11.36 -4.8,-6.08 -7.2,-12.16 -7.2,-18.08 0,-8.96 4.32,-18.4 12.96,-28 2.08,-2.72 9.76,-9.92 23.04,-21.76 8.64,-7.52 12.96,-13.44 12.96,-17.44 0,-4.16 -3.68,-8.48 -10.72,-13.76 z m 31.2,107.68 c 0,-2.24 -2.08,-3.36 -6.08,-3.36 h -1.6 c -1.28,0 -1.92,1.44 -1.92,4.32 0,1.28 0.48,3.2 1.44,5.76 0.96,2.72 1.44,4.64 1.44,5.76 0,7.36 1.44,13.12 4.32,17.28 1.6,-7.2 2.4,-11.84 2.4,-13.76 z M 100,34.24 V 33.6 l 2.4,0.32 v 0.32 z m 102.72,97.44 -2.08,-0.64 h -0.32 l 0.64,1.28 -2.08,-0.64 v -2.4 c 0.8,-0.8 1.6,-1.28 2.4,-1.28 1.28,0 1.92,0.64 1.92,1.92 v 0.64 c -0.16,0.48 -0.32,0.96 -0.48,1.12 z m -81.76,19.04 c -1.44,-2.24 -2.08,-3.52 -2.08,-3.68 l 2.72,-2.72 h 2.08 v 6.4 z"
     id="path2"
     style="stroke-width:1.6" />
</svg>
