<?xml version="1.0" encoding="UTF-8" standalone="no"?>
<svg
   xmlns:dc="http://purl.org/dc/elements/1.1/"
   xmlns:cc="http://creativecommons.org/ns#"
   xmlns:rdf="http://www.w3.org/1999/02/22-rdf-syntax-ns#"
   xmlns:svg="http://www.w3.org/2000/svg"
   xmlns="http://www.w3.org/2000/svg"
   xmlns:sodipodi="http://sodipodi.sourceforge.net/DTD/sodipodi-0.dtd"
   xmlns:inkscape="http://www.inkscape.org/namespaces/inkscape"
   version="2.0"
   viewbox="0 0 256 256"
   id="svg4"
   sodipodi:docname="rebel.svg"
   inkscape:version="1.0.2-2 (e86c870879, 2021-01-15)">
  <metadata
     id="metadata10">
    <rdf:RDF>
      <cc:Work
         rdf:about="">
        <dc:format>image/svg+xml</dc:format>
        <dc:type
           rdf:resource="http://purl.org/dc/dcmitype/StillImage" />
        <dc:title></dc:title>
      </cc:Work>
    </rdf:RDF>
  </metadata>
  <defs
     id="defs8" />
  <sodipodi:namedview
     pagecolor="#ffffff"
     bordercolor="#666666"
     borderopacity="1"
     objecttolerance="10"
     gridtolerance="10"
     guidetolerance="10"
     inkscape:pageopacity="0"
     inkscape:pageshadow="2"
     inkscape:window-width="2046"
     inkscape:window-height="2054"
     id="namedview6"
     showgrid="false"
     inkscape:pagecheckerboard="true"
     showborder="false"
     inkscape:zoom="4.69"
     inkscape:cx="115.88486"
     inkscape:cy="143.23028"
     inkscape:window-x="-10"
     inkscape:window-y="0"
     inkscape:window-maximized="0"
     inkscape:current-layer="svg4" />
  <path
     d="m 238.05549,75.934919 c -12.31873,-18.74343 -28.31708,-33.321652 -48.31503,-43.574468 19.35801,17.782227 28.95702,37.807259 28.95702,60.235294 0,15.699625 -3.8396,29.476845 -11.67879,41.491865 -9.27905,14.25782 -21.75776,21.30663 -37.59613,21.30663 -9.59902,0 -16.95826,-5.92741 -21.91775,-17.62202 -3.8396,-8.65082 -5.91939,-18.42303 -5.91939,-28.99625 0,-12.015019 2.87971,-22.908636 8.63911,-32.841051 6.39934,-10.893617 15.19844,-18.423029 26.2373,-22.588236 L 162.2233,37.326658 c -8.47913,4.806008 -15.03845,11.053818 -19.83796,19.22403 0,-11.053817 3.03969,-21.306633 9.27904,-30.598247 L 128.46677,0 104.94919,25.952441 c 6.23936,9.291614 9.27905,19.22403 9.27905,29.637046 v 0.961201 C 109.42873,48.540676 103.02939,42.132666 94.710249,37.326658 L 80.151748,53.346683 c 11.038863,4.165207 19.837957,11.694619 26.237302,22.588236 5.7594,9.932415 8.63911,20.826032 8.63911,32.841051 0,10.73342 -1.91981,20.34543 -5.59943,28.99625 -4.95949,11.69461 -12.318728,17.62202 -22.237707,17.62202 -15.838369,0 -28.317085,-7.04881 -37.436146,-21.30663 -7.999176,-12.01502 -11.998764,-25.79224 -11.998764,-41.491865 0,-22.428035 9.758995,-42.613267 29.276985,-60.235294 C 46.875174,42.933667 30.716837,57.51189 18.398106,76.095119 6.0793741,94.678348 0,114.54318 0,135.68961 0,168.21026 12.478715,196.40551 37.596129,220.27534 62.713543,244.14518 92.790447,256 128.14681,256 c 35.35636,0 65.27328,-11.85482 90.39069,-35.72466 24.95743,-23.86983 37.43615,-52.06508 37.43615,-84.58573 0.47995,-21.14643 -5.59943,-41.011262 -17.91816,-59.754691 z"
     id="path2"
     style="stroke-width:1.60092" />
</svg>
