<?xml version="1.0" encoding="UTF-8" standalone="no"?>
<svg
   xmlns:dc="http://purl.org/dc/elements/1.1/"
   xmlns:cc="http://creativecommons.org/ns#"
   xmlns:rdf="http://www.w3.org/1999/02/22-rdf-syntax-ns#"
   xmlns:svg="http://www.w3.org/2000/svg"
   xmlns="http://www.w3.org/2000/svg"
   xmlns:sodipodi="http://sodipodi.sourceforge.net/DTD/sodipodi-0.dtd"
   xmlns:inkscape="http://www.inkscape.org/namespaces/inkscape"
   version="1.1"
   id="svg20"
   sodipodi:docname="invocation.svg"
   inkscape:version="1.0.2 (e86c8708, 2021-01-15)">
  <metadata
     id="metadata26">
    <rdf:RDF>
      <cc:Work
         rdf:about="">
        <dc:format>image/svg+xml</dc:format>
        <dc:type
           rdf:resource="http://purl.org/dc/dcmitype/StillImage" />
        <dc:title></dc:title>
      </cc:Work>
    </rdf:RDF>
  </metadata>
  <defs
     id="defs24" />
  <sodipodi:namedview
     pagecolor="#ffffff"
     bordercolor="#666666"
     borderopacity="1"
     objecttolerance="10"
     gridtolerance="10"
     guidetolerance="10"
     inkscape:pageopacity="0"
     inkscape:pageshadow="2"
     inkscape:window-width="1680"
     inkscape:window-height="908"
     id="namedview22"
     showgrid="false"
     inkscape:pagecheckerboard="true"
     showborder="false"
     inkscape:zoom="3.5066667"
     inkscape:cx="150"
     inkscape:cy="143.44106"
     inkscape:window-x="0"
     inkscape:window-y="1915"
     inkscape:window-maximized="1"
     inkscape:current-layer="svg20" />
  <path
     d="M 9.5216374,14.56289 Q 7.6845602,13.77571 7.6845602,12.20134 7.159681,8.79021 13.327012,5.51028 19.494343,2.23035 28.679731,0.65599002 q 9.447826,-1.31198 16.533696,0 7.08587,1.31196998 7.873187,4.46069998 0.524881,1.57437 -1.049758,3.14873 l -0.262439,0.2624 q -2.099518,2.62394 -7.47953,4.7231 -5.380013,2.09915 -12.203441,3.14873 -7.085871,1.04958 -12.990762,0.52479 -5.904892,-0.52479 -8.791728,-2.09915 -0.5248787,0 -0.7873186,-0.2624 z M 79.330577,248.61873 q -7.610748,1.31197 -14.302958,1.18078 -6.692211,-0.1312 -11.678566,-1.44317 -0.262439,0.52478 -0.262439,1.83676 0.78732,3.67352 8.922949,5.11669 8.135626,1.44317 18.895651,-0.1312 11.022466,-1.57437 17.845894,-5.37908 6.823432,-3.80472 6.298552,-7.47825 0,-0.52478 -0.78732,-1.31197 -4.461473,2.36155 -10.760023,4.32951 -6.29855,1.96796 -14.17174,3.27993 z m 72.433333,-28.0762 q 0.52488,1.83676 -2.09951,3.41112 0,0.2624 0.13122,0.3936 0.13122,0.13119 0.13122,0.39359 0.26243,0.52479 -0.26244,1.57436 l -0.26244,0.2624 q -1.3122,1.31197 -4.46148,2.62394 -3.14927,1.31197 -6.82343,2.09916 -8.92294,1.31197 -12.5971,-1.04958 -0.26244,0 -0.26244,-0.26239 -1.04976,-0.52479 -1.04976,-1.31198 0,-0.26239 0.13122,-0.39359 0.13122,-0.13119 0.13122,-0.39359 -1.3122,-0.52479 -2.36195,-1.18077 -1.04976,-0.65599 -1.3122,-1.44317 l -12.85954,-61.6627 q -5.77368,1.83676 -11.284907,2.88634 l 12.597097,60.08833 q 0.78732,3.93591 -6.03611,8.65901 -4.461472,2.62395 -10.760022,4.46071 -6.29855,1.83676 -13.909298,3.14873 -7.610751,1.31198 -14.434182,1.18078 -6.823428,-0.1312 -12.072222,-1.44317 -8.135627,-2.09916 -8.922946,-5.77268 l -1.049759,-3.67352 -2.099518,-10.75817 -12.859542,-63.76185 q 0,-0.2624 -0.131218,-0.2624 -0.131221,0 -0.131221,-0.26239 l -2.624396,-12.59493 q 0.787319,3.41112 4.461475,5.77267 4.723913,3.41113 13.646859,5.1167 8.922948,1.70556 20.207851,1.44317 9.447827,0 20.207851,-1.57437 l 5.773672,-1.04958 q 0,0 5.773673,-1.31197 2.886834,-0.52479 5.642451,-1.31197 2.755612,-0.78719 5.642452,-1.57437 0.52488,-0.26239 1.04976,-0.39359 0.52488,-0.1312 1.04976,-0.39359 0.26244,-0.2624 0.78732,-0.2624 1.04975,-0.52479 1.31219,-0.52479 l 1.04976,-0.52479 q 0.26244,0 0.52488,-0.13119 0.26244,-0.1312 0.52488,-0.1312 0.26244,-0.26239 0.52488,-0.26239 0.26244,0 0.52488,-0.2624 0.26244,0 0.39366,-0.1312 0.13122,-0.13119 0.39366,-0.13119 0.52488,-0.2624 0.78732,-0.2624 0.26244,0 0.52488,-0.26239 0.26243,-0.2624 0.39366,-0.2624 0.13121,0 0.39366,-0.26239 0.26243,0 0.52487,-0.1312 0.26244,-0.1312 0.52488,-0.1312 l 0.52488,-0.52478 q 0.78732,0 1.3122,-0.52479 0.26244,0 0.52488,-0.2624 0.52488,-0.52479 1.3122,-0.65598 0.78732,-0.1312 1.3122,-0.65599 0.52487,0 0.78731,-0.26239 0.26245,-0.2624 0.52488,-0.3936 0.26244,-0.13119 0.52488,-0.39359 l 0.52488,-0.26239 q 0.52488,-0.2624 1.04976,-0.78719 0.26244,0 0.26244,-0.13119 0,-0.1312 0.26244,-0.1312 0.52488,-0.26239 1.04976,-0.78718 l 0.26244,-0.2624 q 0.52488,-0.52479 1.04976,-0.78718 l 0.52488,-0.52479 0.52488,-0.52479 q 0.26243,-0.26239 0.78732,-0.52479 0,-0.26239 0.52487,-0.78718 0,-0.2624 0.26244,-0.2624 0.26244,-0.26239 0.39366,-0.52478 0.13122,-0.2624 0.39366,-0.52479 1.83708,-2.62395 1.83708,-4.9855 l 1.3122,6.29747 1.04976,-0.52479 16.27125,78.19354 -1.3122,0.78719 z m -75.057729,6.82225 -3.149276,-14.95648 -0.524878,-3.41113 -7.87319,-38.57198 q -18.108334,0.26239 -28.868358,-4.19831 l 13.38442,60.61311 q 4.986355,1.31198 11.809783,1.57437 6.823431,0.26239 14.696621,-1.04958 z M 58.597848,138.67546 Q 43.11391,139.20025 32.353885,135.78912 21.59386,132.37799 20.281662,126.34292 L 6.1099225,57.33319 0.07381114,28.73219 q -0.78731888,-4.4607 6.82343036,-8.65902 -0.2624399,0.52479 -0.5248794,1.18078 -0.2624396,0.65599 0.2624395,1.18077 0.5248794,2.88634 6.0361114,4.46071 3.674155,1.31197 9.447826,1.44317 5.773672,0.1312 12.072222,-0.91838 6.298553,-1.04958 11.547344,-2.88634 5.248792,-1.83676 8.398068,-3.93592 4.986353,-3.41112 3.936594,-5.77267 0,-1.04958 -1.049759,-2.09916 8.66051,2.09916 9.710268,6.03507 l 16.008816,79.24312 q 2.886835,-0.26239 5.904891,-0.39359 3.018055,-0.1312 5.904893,-0.1312 L 78.018379,15.87486 q -0.524878,-0.78718 2.099518,-3.14873 l -0.262439,-0.26239 q -0.524881,-2.09916 3.018055,-3.93592 3.542934,-1.83676 9.054167,-2.62395 5.248791,-0.78718 9.31661,-0.13119 4.06781,0.65598 4.33025,2.75514 v 0.52479 q 2.62439,0.78718 3.41171,2.36155 l 4.19904,19.94198 16.27125,78.71833 v 1.83676 l 0.78732,2.36155 q -0.26243,-0.52479 -0.52488,-0.65599 -0.26244,-0.13119 -0.52487,-0.65598 -0.78732,3.67352 -4.98636,7.34704 -0.78732,0.52479 -1.57464,1.31197 h -0.26244 q -0.78731,0.52479 -1.57463,1.31197 h -0.26244 q -1.04976,0.52479 -2.09952,1.31198 -1.04976,0.78718 -2.36196,1.31197 -2.09951,1.31197 -4.72391,2.36155 h -0.26244 q -0.26244,0.26239 -0.6561,0.39359 -0.39366,0.1312 -0.91854,0.39359 h -0.26244 q -0.52487,0.52479 -1.31219,0.52479 l -0.52488,0.2624 q -1.04976,0.52478 -1.3122,0.52478 l -0.52488,0.2624 q -0.52488,0.26239 -0.78732,0.26239 -0.26244,0 -0.78732,0.2624 -0.26244,0 -0.52488,0.26239 -0.52488,0.2624 -0.91854,0.2624 -0.39366,0 -0.91853,0.26239 -5.773676,2.09916 -11.28491,3.14873 l -5.773669,1.04958 -5.773672,1.04958 q 0,0 -4.723914,0.78718 h -1.312197 q -1.049759,0.2624 -1.968297,0.3936 -0.918541,0.13119 -2.230739,0.13119 h -0.262439 q -2.624395,0.2624 -4.986352,0.39359 -2.361957,0.1312 -4.723913,0.1312 z M 57.023208,130.01644 43.11391,62.05628 q -0.524881,0 -0.918538,0.1312 -0.39366,0.1312 -0.656099,0.1312 -8.135629,1.31197 -14.95906,1.04958 -6.82343,-0.2624 -11.547343,-1.57437 l 14.171739,64.81143 q 5.248794,1.83676 12.334664,2.75514 7.085867,0.91838 15.483935,0.65598 z"
     id="path30"
     inkscape:label="invocation"
     style="stroke-width:0.262418" />
</svg>
