<?xml version="1.0" encoding="UTF-8" standalone="no"?>
<svg
   xmlns:dc="http://purl.org/dc/elements/1.1/"
   xmlns:cc="http://creativecommons.org/ns#"
   xmlns:rdf="http://www.w3.org/1999/02/22-rdf-syntax-ns#"
   xmlns:svg="http://www.w3.org/2000/svg"
   xmlns="http://www.w3.org/2000/svg"
   xmlns:sodipodi="http://sodipodi.sourceforge.net/DTD/sodipodi-0.dtd"
   xmlns:inkscape="http://www.inkscape.org/namespaces/inkscape"
   version="1.1"
   id="svg29"
   sodipodi:docname="kata.svg"
   inkscape:version="1.0.2 (e86c8708, 2021-01-15)">
  <metadata
     id="metadata35">
    <rdf:RDF>
      <cc:Work
         rdf:about="">
        <dc:format>image/svg+xml</dc:format>
        <dc:type
           rdf:resource="http://purl.org/dc/dcmitype/StillImage" />
      </cc:Work>
    </rdf:RDF>
  </metadata>
  <defs
     id="defs33" />
  <sodipodi:namedview
     pagecolor="#ffffff"
     bordercolor="#666666"
     borderopacity="1"
     objecttolerance="10"
     gridtolerance="10"
     guidetolerance="10"
     inkscape:pageopacity="0"
     inkscape:pageshadow="2"
     inkscape:window-width="1680"
     inkscape:window-height="908"
     id="namedview31"
     showgrid="false"
     inkscape:zoom="2.4854923"
     inkscape:cx="150"
     inkscape:cy="75"
     inkscape:window-x="0"
     inkscape:window-y="1915"
     inkscape:window-maximized="1"
     inkscape:current-layer="svg29" />
  <path
     d="m 39.306082,156.96909 q 3.828514,-4.08375 9.82652,-6.76371 5.998006,-2.67996 12.634098,0.12762 2.807577,1.27617 5.487537,3.57328 2.67996,2.29711 6.763709,6.38086 1.020937,1.02094 2.807577,2.93519 l 3.573281,3.82852 q 0,0 3.57328,3.57328 3.57328,3.57328 2.807577,2.42472 0.255234,-0.25523 2.041874,-1.5314 1.78664,-1.27617 3.828515,-2.9352 2.041874,-1.65902 3.828514,-3.06281 1.78664,-1.40379 2.041875,-1.91426 L 99.030907,161.56331 8.6779661,31.90429 0,0 28.331007,17.1007 127.61715,140.12363 h 2.29711 q 0.25523,-0.25524 2.29711,-1.53141 2.04187,-1.27617 4.33898,-2.80757 2.29711,-1.53141 4.21136,-2.9352 1.91426,-1.40379 2.1695,-1.65902 -0.51047,-1.02094 -1.65903,-3.19043 -1.14855,-2.16949 -2.42472,-4.4666 -1.27617,-2.29711 -2.55235,-4.4666 -1.27617,-2.16949 -2.04187,-3.44566 -2.80758,-5.10469 -4.21137,-8.42274 -1.40378,-3.31804 -1.91425,-6.38085 -0.76571,-6.89133 3.31804,-11.8684 4.08375,-4.97707 9.18844,-7.52941 l 16.84546,-7.40179 -6.63609,23.73679 q -0.51047,1.27617 -0.51047,3.82851 0,2.55234 1.02094,4.08375 l 1.78664,2.55234 q 2.29711,3.31805 5.35992,8.42273 3.06281,5.10469 4.72183,11.1027 1.65903,5.998 0.89332,12.12362 -0.7657,6.12563 -6.38085,11.48555 -1.27618,1.27617 -3.31805,2.80758 l -4.08375,3.06281 q 0,0 -3.95613,2.67996 -3.95613,2.67996 -2.9352,1.91425 2.29711,3.57328 6.50848,9.31606 4.21137,5.74277 9.57129,12.63409 5.35992,6.89133 11.2303,14.42074 5.87039,7.52941 11.74078,14.93121 l 2.04188,2.29711 -2.29711,4.59421 14.54835,12.25125 -1.02093,12.76171 -7.4018,5.61516 -7.40179,5.35992 -12.50648,-2.55234 -7.91227,-17.35594 -4.84945,1.02094 -1.78664,-2.55234 q -5.35992,-7.65703 -11.10269,-15.44168 -5.74277,-7.78464 -10.84746,-14.80359 -5.10468,-7.01894 -9.44367,-12.63409 -4.33898,-5.61516 -6.89132,-8.9332 -2.04188,1.5314 -6.38086,4.84945 -4.33898,3.31804 -7.4018,5.35992 -6.636087,3.82851 -12.634093,2.80758 -5.998006,-1.02094 -11.230309,-4.21137 -5.232303,-3.19043 -9.443669,-7.65703 -4.211366,-4.4666 -6.763709,-7.52941 l -2.041874,-2.55234 q -1.276172,-1.27618 -3.700898,-1.91426 -2.424726,-0.63809 -3.700897,-0.63809 l -24.502493,-0.25523 z"
     id="path24"
     inkscape:label="kata"
     style="stroke-width:0.255234" />
</svg>
