<?xml version="1.0" encoding="UTF-8" standalone="no"?>
<svg
   xmlns:dc="http://purl.org/dc/elements/1.1/"
   xmlns:cc="http://creativecommons.org/ns#"
   xmlns:rdf="http://www.w3.org/1999/02/22-rdf-syntax-ns#"
   xmlns:svg="http://www.w3.org/2000/svg"
   xmlns="http://www.w3.org/2000/svg"
   xmlns:sodipodi="http://sodipodi.sourceforge.net/DTD/sodipodi-0.dtd"
   xmlns:inkscape="http://www.inkscape.org/namespaces/inkscape"
   version="1.1"
   id="svg38"
   sodipodi:docname="kiho.svg"
   inkscape:version="1.0.2 (e86c8708, 2021-01-15)">
  <metadata
     id="metadata44">
    <rdf:RDF>
      <cc:Work
         rdf:about="">
        <dc:format>image/svg+xml</dc:format>
        <dc:type
           rdf:resource="http://purl.org/dc/dcmitype/StillImage" />
        <dc:title></dc:title>
      </cc:Work>
    </rdf:RDF>
  </metadata>
  <defs
     id="defs42" />
  <sodipodi:namedview
     pagecolor="#ffffff"
     bordercolor="#666666"
     borderopacity="1"
     objecttolerance="10"
     gridtolerance="10"
     guidetolerance="10"
     inkscape:pageopacity="0"
     inkscape:pageshadow="2"
     inkscape:window-width="1680"
     inkscape:window-height="908"
     id="namedview40"
     showgrid="false"
     inkscape:pagecheckerboard="true"
     showborder="false"
     inkscape:zoom="3.5066667"
     inkscape:cx="150"
     inkscape:cy="75"
     inkscape:window-x="0"
     inkscape:window-y="1915"
     inkscape:window-maximized="1"
     inkscape:current-layer="svg38" />
  <path
     d="m 256,63.971044 q -0.21857,0.87428 -1.52999,1.74856 -1.74856,1.09284 -4.15283,1.52998 -2.84141,0.43714 -6.01067,0.765 -3.16926,0.32785 -5.57353,1.4207 -1.74856,0.87428 -3.38784,2.40427 -1.63927,1.52999 -3.6064,1.52999 3.27855,0 7.21281,1.09285 0.87428,0 1.31142,0.65571 0.65571,0.65571 0.10928,1.63928 -0.54642,0.98356 -1.4207,1.4207 -2.84141,1.74856 -6.01067,2.1857 -3.16927,0.43714 -6.22925,0.65571 -1.52999,0.21857 -3.05998,0.32785 -1.52999,0.10929 -3.05997,0.54643 h -0.21857 -0.43714 0.21857 -5.02711 q -5.90139,-0.43714 -11.69349,-0.98357 -5.7921,-0.54642 -11.91206,-0.98356 -1.09285,0 -3.82497,-0.10929 -2.73213,-0.10928 -5.68282,-0.32785 -2.9507,-0.21857 -5.35497,-0.98357 -2.40426,-0.76499 -2.40426,-2.07641 0,-0.65571 0.65571,-0.98356 0.65571,-0.32786 1.52998,-0.32786 h 1.74856 1.31142 q 0.21857,-0.21857 -0.98356,-0.65571 -1.20214,-0.43714 -2.84141,-0.76499 -1.63927,-0.32786 -3.05998,-0.65571 -1.4207,-0.32786 -1.63927,-0.32786 -2.1857,-0.43714 -2.40427,-1.31142 -0.43714,-1.09285 0.21857,-1.74856 0.65571,-0.65571 1.52999,-1.09285 l 3.93426,-2.62283 q -5.68282,-1.31142 -9.83565,2.40426 -2.1857,1.96713 -3.05998,4.80854 -0.87428,2.84141 -0.87428,6.11996 0,3.27855 0.43714,6.44781 0.43714,3.16927 0.87428,5.7921 1.09285,8.08709 -1.20213,14.534906 -2.29499,6.44781 -6.88496,11.14706 -4.58996,4.69925 -11.03778,7.75923 -6.44781,3.05998 -13.44204,4.3714 -4.15283,0.87428 -8.96137,2.07641 -4.80854,1.20214 -7.21281,4.69926 -2.62284,3.71569 -2.1857,7.9778 0.43714,4.26211 2.62284,8.41494 2.1857,4.15283 5.35497,7.64995 3.16926,3.49712 5.7921,5.90138 -2.62284,-2.62283 -3.05998,-6.11995 -0.87428,-4.3714 0.10928,-6.11996 0.98357,-1.74856 5.35497,-1.52999 4.37139,0.21857 8.52422,-0.32785 4.15283,-0.54643 8.30566,-0.54643 5.46425,0 10.81921,0.10929 5.35496,0.10928 10.81921,0.32785 5.24568,0 10.1635,0.98357 4.91782,0.98356 9.94493,1.4207 0.43714,0.21857 0.65571,0.21857 0.21857,0 0.43714,0.21857 v 0.65571 3.93426 q -0.21857,1.74856 -0.32785,3.49712 -0.10929,1.74856 -0.765,3.49711 -2.62284,5.90139 -8.85208,8.41495 -6.22924,2.51355 -12.13063,2.95069 h -0.65571 q 0.87428,3.71569 -0.43714,7.10352 -1.31142,3.38783 -3.71569,6.01067 -3.71569,3.49712 -8.74279,5.68282 -5.02711,2.1857 -10.49136,3.38784 -5.46425,1.20213 -10.92849,1.74855 -5.46425,0.54643 -10.27279,0.765 -11.36563,1.09285 -22.621985,0 -11.25635,-1.09285 -21.966275,-4.3714 -2.622839,-0.87428 -5.354963,-1.96713 -2.732124,-1.09285 -5.027108,-2.73212 -2.294984,-1.63928 -3.824973,-3.93426 -1.529989,-2.29498 -1.529989,-5.57353 -0.43714,-2.40427 0.546424,-4.04355 0.983565,-1.63927 2.732124,-3.16926 -2.404269,-0.21857 -4.589968,-0.32785 -2.185699,-0.10929 -4.371398,-0.54643 -3.497118,-0.43714 -7.649947,-1.31142 -4.152828,-0.87428 -6.557097,-3.93426 -2.404269,-3.05998 -2.513554,-7.32209 -0.109285,-4.26211 0.327855,-7.9778 5.245678,-1.09285 10.600641,-1.31142 5.354962,-0.21857 10.60064,-1.09285 17.485592,-3.05998 34.315475,-1.74856 0,-1.74856 0.21857,-2.84141 -0.43714,-6.55709 1.967129,-13.22348 2.404269,-6.66638 6.994239,-11.03778 4.15283,-3.71569 9.61707,-6.44781 5.46425,-2.73212 10.70993,-3.6064 4.80854,-0.87428 8.63351,-1.85785 3.82497,-0.98356 7.54066,-4.48068 2.62284,-2.40427 4.15283,-5.79211 1.52999,-3.387826 0.87428,-6.666376 -0.43714,-1.96713 -1.31142,-3.71569 -0.87428,-1.74856 -1.96713,-3.49711 -1.96713,-3.05998 -4.26211,-6.11996 -2.29499,-3.05998 -5.35496,-5.24568 -1.74856,-1.31142 -3.82498,-2.29498 -2.07641,-0.98357 -3.82497,-2.73213 -2.1857,-1.74856 -3.71569,-3.93426 -1.52999,-2.18569 -4.3714,-2.8414 -0.65571,-0.21857 -2.1857,-0.21857 -2.84141,0 -5.68281,0.65571 -2.84141,0.65571 -5.02711,2.62283 -1.31142,1.31142 -2.732126,2.62284 -1.420704,1.31142 -3.169264,2.84141 -0.655709,0.65571 -2.076414,1.96713 -1.420704,1.31142 -2.404269,2.84141 -0.983564,1.52999 -0.983564,2.62284 0,1.09285 2.404269,1.31142 3.059978,0.43714 6.338527,0.10928 3.278551,-0.32785 6.338531,-0.32785 3.71568,-0.21857 7.2128,0.32785 3.49712,0.54643 6.99424,1.63928 1.09285,0.43714 1.85784,0.87428 0.765,0.43714 1.20214,1.52999 0.21857,1.74856 -1.42071,2.62284 -1.63927,0.87427 -1.4207,1.96712 0,0.21857 0.10928,0.32786 0.10929,0.10928 0.10929,0.32785 1.09285,1.09285 3.05998,1.09285 0.87428,0 1.63927,-0.10928 0.765,-0.10929 1.63928,-0.10929 2.62284,0 5.0271,1.31142 l 0.43714,0.43714 q 0.43714,0.87428 -0.43714,1.31142 -1.09284,1.52999 -2.73212,1.96713 -1.63927,0.43714 -3.38783,0.65571 -2.84141,0.43714 -5.90139,1.09285 -3.05998,0.65571 -6.11996,1.092846 -2.62284,0.21857 -5.35496,0.10929 -2.73212,-0.10929 -5.57353,-0.327856 0.43714,0.437136 0.43714,1.092846 0,0.65571 -0.87428,0.87428 -5.02711,2.62284 -10.491358,3.27855 -5.464247,0.65571 -11.147065,0.21857 -3.278548,0 -6.447812,-0.21857 -3.169264,-0.21857 -6.229242,-0.21857 -2.622839,-0.21857 -5.136393,-0.54642 -2.513554,-0.32786 -5.136393,-1.63928 -0.437139,-0.43714 -0.437139,-0.65571 h -1.74856 -2.622839 q -1.967129,-0.21857 -1.529989,-1.74856 -3.059979,0.43714 -6.010672,1.09285 -2.950694,0.65571 -6.229243,0.21857 -0.874279,-0.21857 -2.294984,-0.54643 -1.420704,-0.32785 -2.513553,-0.98356 -1.09285,-0.655706 -1.52999,-1.748556 -0.43714,-1.09285 0.65571,-2.40427 1.748559,-1.96713 0.983565,-2.40427 -0.764995,-0.43714 -3.169264,-0.65571 -2.622839,-0.43714 -5.354963,-0.76499 -2.732124,-0.32786 -5.354962,-0.765 -1.09285,0 -2.294984,-0.43714 -1.202135,-0.43714 -1.639275,-1.52999 -0.437139,-2.18569 1.74856,-3.49711 1.092849,-0.87428 2.513553,-1.20214 1.420705,-0.32785 2.732124,-0.54642 4.589968,-0.43714 9.179936,0.21857 4.589968,0.65571 9.179936,0.65571 3.934258,-0.21857 7.212807,-1.85785 3.278549,-1.63927 7.649947,-1.20213 l 3.824973,0.54642 q 0,0 4.699253,0.43714 4.699253,0.43714 4.589968,0 -0.109285,-0.43714 3.497118,-0.76499 3.715689,-1.74856 6.229243,-4.91782 2.513554,-3.16927 5.573532,-5.57354 1.748559,-1.31142 3.278549,-1.63927 1.529989,-0.32786 3.278548,-1.20214 1.967129,-0.87428 3.278549,-2.73212 1.311419,-1.85784 2.404269,-3.6064 1.311419,-1.74856 3.49712,-4.26212 2.1857,-2.51355 4.58997,-2.51355 1.52999,0 3.27854,1.31142 1.31142,0.43714 1.85785,0.43714 0.54642,0 1.63927,0.21857 4.80854,0.43714 7.86852,2.84141 -1.52999,-1.96713 -3.27855,-3.27855 -1.74856,-1.31142 -3.49712,-2.84141 -1.74856,-1.52999 -3.05998,-2.29498 -1.31142,-0.765 -2.51355,-0.765 -1.20213,0 -2.62284,0.32786 -1.4207,0.32785 -3.6064,0.54642 -2.404271,0.43714 -4.80854,0.10929 -2.404269,-0.32786 -4.589968,-0.765 -1.748559,-0.21857 -4.480683,-1.31142 -2.732124,-1.09285 -4.043543,-0.65571 2.622839,-0.43714 5.136393,-1.09285 2.513554,-0.65571 5.136392,-1.52999 1.52999,-0.43714 1.96713,-1.09285 0.655709,-0.87428 0.218569,-1.31142 -0.437139,-0.43714 -1.311419,-0.76499 -0.87428,-0.32785 -1.967129,-0.43714 -1.09285,-0.10928 -1.529989,-0.10928 -1.09285,0 -1.857845,0.54642 -0.764994,0.54642 -1.857844,0.98356 -2.404269,1.09285 -5.027108,0.65571 -4.152828,0.65571 -8.524226,1.52999 -4.371398,0.87428 -8.633511,1.20214 -4.262113,0.32785 -8.414941,-0.10929 -4.152829,-0.43714 -8.087087,-2.40427 -1.311419,-0.65571 -2.513554,-1.4207 -1.202134,-0.76499 -2.294984,-1.4207 -2.185699,-1.09285 -4.808538,-1.09285 -2.622838,0 -5.027107,-0.21857 -3.059979,-0.21857 -6.119958,-0.32786 -3.059978,-0.10928 -6.119957,-0.54642 0.21857,-2.40427 2.185699,-3.60641 1.967129,-1.20213 4.371398,-1.63927 2.185699,-0.43714 4.371398,-0.765 2.185699,-0.32785 3.934258,-2.07641 0.43714,-0.43714 0.87428,-1.52999 -2.622839,-1.31142 -6.119957,-1.31142 -3.497119,0 -6.557097,0.21857 H 17.64952 q 0,0 -7.322092,0.21857 -1.3114195,0.21857 -2.7321238,0.21857 -1.4207044,0 -2.7321238,-0.43714 -1.3114195,-0.43714 -2.1856991,-1.63927 -0.8742796,-1.20214 -0.4371398,-2.51356 0.6557097,-2.84141 0.6557097,-3.71569 0,-0.87428 -2.18569901,-3.27854 -0.65570971,-0.21857 -0.65570971,-1.09285 -0.21856991,-0.65571 0.4371398,-1.31142 1.09284952,-1.09285 2.62283882,-1.42071 1.5299894,-0.32785 3.2785486,-0.76499 4.3713983,-0.43714 8.8520813,-0.87428 4.480683,-0.43714 8.852081,-0.65571 h 8.305656 q 0.43714,-0.87428 2.185699,-1.74856 0,-0.8742803 1.09285,-1.3114203 h 0.43714 q 1.967129,-1.74856 4.699253,-2.40427 2.732123,-0.65571 5.136392,-1.09285 2.622839,-0.65571 5.464248,-0.87428 2.841409,-0.21857 5.682817,-0.21857 4.152829,0.21857 7.977802,0.43714 3.824973,0.21857 7.540662,0.21857 3.715688,0 7.540661,-0.54642 3.824974,-0.54643 7.759232,-2.07642 6.338527,-2.62283997 13.660616,-2.95068997 7.32209,-0.32786 13.66062,2.07640997 0.43714,0 0.43714,0.21857 6.33853,-0.43714 12.3492,-0.43714 6.01067,0 11.91206,1.09285 2.40427,0.43714 4.91782,1.31142 2.51356,0.87428 4.04355,2.84141 0.87428,0.87428 0.65571,1.74856 0,0.43714 -0.54643,0.65571 -0.54642,0.21857 -0.98356,0.6557103 -3.93426,1.74856 -7.75923,2.07641 -3.82498,0.32786 -6.88496,1.85785 0,1.52999 -1.09285,1.96713 -0.87428,0.21857 -1.52998,0.43714 -0.65571,0.21857 -1.52999,0.43714 -0.21857,0.21857 -0.43714,0.21857 -0.65571,0.65571 -0.87428,1.09285 l 1.09285,1.09285 q 2.62283,0.43714 4.04354,1.52998 1.4207,1.09285 0.76499,3.49712 -0.43714,1.09285 -1.20213,1.74856 -0.765,0.65571 -1.85784,1.09285 -1.74856,0.87428 -3.38784,1.42071 -1.63927,0.54642 -3.38783,0.98356 -3.49712,1.52999 -8.96137,2.1857 0,0.21857 0.21857,0.43714 0.43714,0.65571 2.40427,0.87428 1.96713,0.21857 2.84141,0.21857 1.31142,0.21857 2.73212,0.32785 1.42071,0.10929 2.73213,0.54643 0.43714,0 0.43714,0.43714 v 0.21857 q -1.52999,1.74856 -4.58997,2.1857 -0.65571,0.21857 -1.85785,0.21857 -1.20213,0 -2.29498,0.21857 -1.09285,0.21857 -1.63927,0.98356 -0.54643,0.765 -0.10929,2.29499 0.21857,1.31142 1.74856,2.1857 1.52999,1.52998 2.95069,2.8414 1.42071,1.31142 2.9507,2.62284 1.74856,1.31142 3.6064,2.1857 1.85785,0.87428 3.60641,2.40427 2.8414,2.1857 4.91782,5.02711 2.07641,2.84141 4.48068,5.46425 2.40427,3.05997 5.02711,6.11995 2.62284,3.05998 4.80854,6.11996 1.52999,2.40427 2.1857,4.91782 0.65571,2.51356 1.31142,5.35497 -0.65571,-5.68282 0,-12.23992 0.6557,-6.5571 3.71568,-11.36563 2.1857,-3.05998 5.68282,-4.58997 3.49712,-1.52999 7.21281,-2.62284 -0.43714,-0.21857 -1.09285,-0.43714 -0.43714,-0.21857 -1.31142,-0.43714 -0.87428,-0.21857 -1.74856,-0.65571 -1.31142,-0.21857 -3.05998,-0.10928 -1.74856,0.10928 -2.1857,0.10928 -0.21857,0 -0.32785,-0.10928 -0.10929,-0.10929 -0.54643,-0.10929 -2.84141,0.43714 -5.57353,0.21857 -2.73212,-0.21857 -5.7921,-0.65571 -2.62284,-0.43714 -6.01068,-1.63927 -3.38783,-1.20214 -4.48068,-4.26212 v -1.31142 q -0.87428,-1.31142 0,-2.8414 0.65571,-1.74856 2.84141,-2.84141 2.40427,-1.52999 5.35496,-2.29499 2.9507,-0.76499 6.11996,-1.20213 3.16926,-0.43714 6.33853,-0.765 3.16926,-0.32785 6.01067,-0.76499 9.39851,-2.1857 19.01558,-4.91782 9.61708,-2.73213 19.23415,-0.98357 2.62284,0.43714 5.24568,0.21857 2.62284,-0.21857 5.24568,-0.32785 2.62284,-0.10929 5.02711,0.10928 2.40427,0.21857 4.58996,1.52999 0.87428,0.43714 1.31142,1.31142 0.43714,1.09285 -0.21857,1.96713 -0.65571,0.87428 -1.74856,1.31142 -1.09284,0.43714 -2.07641,0.21857 -0.98356,-0.21857 -2.07641,-0.43714 -3.27855,-0.43714 -6.88496,0.43714 -3.6064,0.87428 -6.01067,2.84141 -0.87428,0.87428 -0.87428,1.31142 -0.21857,1.09285 0.65571,1.63927 0.87428,0.54643 1.96713,0.54643 1.96713,0.43714 4.15283,0.43714 h 4.15283 q 6.77566,-0.21857 13.87919,-0.765 7.10352,-0.54642 13.66062,0.765 1.52999,0.21857 2.73212,1.09285 1.20213,0.87427 0.98356,2.62283 0,1.52999 -1.31142,1.52999 -1.09284,0 -1.85784,0.10929 -0.76499,0.10928 -1.85784,0.10928 -0.43714,0 -0.65571,0.10929 -0.21857,0.10928 -0.65571,0.10928 -2.62284,0.43714 -5.24568,0.65571 -2.62284,0.21857 -5.68282,0.21857 0.87428,0.43714 1.52999,0.87428 2.84141,-0.43714 5.46425,1.09285 1.09285,0.65571 1.74856,1.85785 0.65571,1.20213 1.09285,2.40426 0.43714,1.20214 0.98356,2.29499 0.54643,1.09285 1.63928,1.52999 1.74856,0.87428 3.16926,0 1.4207,-0.87428 2.95069,-0.65571 1.09285,0.21857 2.29499,0.76499 1.20213,0.54643 2.29498,1.20214 1.09285,1.09285 1.74856,1.52999 Q 256,62.659624 256,63.971044 Z"
     id="path28"
     inkscape:label="kiho"
     style="stroke-width:0.21857" />
</svg>
