<?xml version="1.0" encoding="UTF-8" standalone="no"?>
<svg
   xmlns:dc="http://purl.org/dc/elements/1.1/"
   xmlns:cc="http://creativecommons.org/ns#"
   xmlns:rdf="http://www.w3.org/1999/02/22-rdf-syntax-ns#"
   xmlns:svg="http://www.w3.org/2000/svg"
   xmlns="http://www.w3.org/2000/svg"
   xmlns:sodipodi="http://sodipodi.sourceforge.net/DTD/sodipodi-0.dtd"
   xmlns:inkscape="http://www.inkscape.org/namespaces/inkscape"
   version="1.1"
   id="svg47"
   sodipodi:docname="maho.svg"
   inkscape:version="1.0.2 (e86c8708, 2021-01-15)">
  <metadata
     id="metadata53">
    <rdf:RDF>
      <cc:Work
         rdf:about="">
        <dc:format>image/svg+xml</dc:format>
        <dc:type
           rdf:resource="http://purl.org/dc/dcmitype/StillImage" />
        <dc:title></dc:title>
      </cc:Work>
    </rdf:RDF>
  </metadata>
  <defs
     id="defs51" />
  <sodipodi:namedview
     pagecolor="#ffffff"
     bordercolor="#666666"
     borderopacity="1"
     objecttolerance="10"
     gridtolerance="10"
     guidetolerance="10"
     inkscape:pageopacity="0"
     inkscape:pageshadow="2"
     inkscape:window-width="1680"
     inkscape:window-height="908"
     id="namedview49"
     showgrid="false"
     inkscape:pagecheckerboard="true"
     showborder="false"
     inkscape:zoom="3.5066667"
     inkscape:cx="150"
     inkscape:cy="75"
     inkscape:window-x="0"
     inkscape:window-y="1915"
     inkscape:window-maximized="1"
     inkscape:current-layer="svg47" />
  <path
     d="m 154.34849,172.59674 q 4.19639,-3.40957 3.40957,-5.11435 -0.78682,-1.70479 -4.32753,-1.96706 -3.5407,-0.26228 -8.65505,0.52455 -5.11436,0.78682 -9.96643,2.62274 -4.85208,1.83592 -7.99937,4.45867 -3.14729,2.62274 -2.62275,5.50776 0,0.26227 1.83592,1.44251 1.83593,1.18023 4.06526,2.62274 2.22933,1.44251 4.06525,2.49161 1.83592,1.0491 2.0982,1.0491 1.57364,0 4.19639,-1.18024 2.62274,-1.18023 5.6389,-3.01615 3.01615,-1.83592 5.50776,-3.54071 2.49161,-1.70478 3.80298,-2.49161 -0.26228,-0.52454 -0.65569,-1.70478 -0.39341,-1.18023 -0.39341,-1.70478 z M 69.109307,165.7776 q 2.36047,4.19639 5.114352,7.7371 2.753881,3.5407 5.901174,5.6389 3.147293,2.09819 6.687997,2.09819 3.540705,0 7.99937,-2.88502 0.524549,-0.52454 3.016156,-1.04909 2.491604,-0.52455 3.278434,0 -1.573651,-1.83592 -5.770041,-5.50777 -4.196391,-3.67184 -9.048468,-6.42572 -4.852076,-2.75388 -9.704153,-3.27843 -4.852076,-0.52455 -7.474821,3.67184 z M 153.29939,0.8069982 q -1.04909,3.6718417 -0.52455,8.7861936 0.52455,5.1143512 2.36047,10.0975652 1.83593,4.983213 4.58981,9.048468 2.75388,4.065253 6.16345,5.901174 -1.31138,-3.409567 -3.01616,-6.163449 -1.70478,-2.753882 -2.49161,-6.163449 5.24549,4.196391 9.83529,11.540075 4.58981,7.343683 8.7862,12.851446 5.77003,7.343684 11.01552,15.998737 5.24549,8.655055 5.50776,18.096934 0.26228,8.91733 -1.83592,18.490346 -2.09819,9.573021 -5.24549,19.146031 -3.14729,9.57302 -6.29458,19.0149 -3.14729,9.44187 -4.72094,18.09693 10.75325,-2.36047 20.58854,-8.13051 9.83529,-5.77003 18.22807,-12.58917 1.57365,-1.31137 4.85208,-5.11435 3.27843,-3.80298 6.688,-7.73709 3.40956,-3.93412 6.42572,-7.08141 3.01616,-3.1473 4.06525,-3.1473 -0.52455,2.0982 -2.09819,5.50777 -1.57365,3.40956 -1.83592,5.77003 0,-0.26227 0.39341,-1.44251 0.39341,-1.18023 0.91796,-2.36047 0.52455,-1.18023 1.0491,-2.09819 0.52455,-0.91796 1.04909,-0.65569 2.62275,1.57365 1.70479,5.6389 -0.91796,4.06526 -2.75388,8.65506 -1.83592,4.5898 -3.1473,8.91733 -1.31137,4.32753 0.52455,6.42572 -7.60596,3.93412 -8.78619,8.39278 -1.18024,4.45867 0.26227,9.17961 1.44251,4.72094 3.54071,9.70415 2.09819,4.98321 1.0491,10.2287 -1.0491,-4.98321 -3.93412,-6.81913 -1.31137,-1.0491 -3.14729,-1.31137 l -0.78683,12.06462 q -1.57364,-2.88502 -2.75388,-3.40957 -1.18023,-0.52455 -1.96706,0 -1.04909,0.78682 -1.57364,2.62275 -0.52455,-1.0491 -0.78683,-1.83593 -0.26227,-0.78682 -1.31137,-1.31137 -0.26227,0 -0.26227,0.13114 0,0.13114 -0.26228,0.13114 1.0491,1.31137 1.96706,2.75388 0.91796,1.44251 1.96706,3.01615 -1.0491,-1.04909 -2.62274,-1.83592 1.04909,2.36047 1.31137,4.19639 l -1.83592,-0.52455 q -2.0982,-1.31137 -2.49161,-0.26227 -0.39341,1.0491 0.13114,3.14729 h -0.26228 q -1.57364,-4.19639 -5.24549,-3.40956 1.57365,3.40956 2.75389,5.6389 1.18023,2.22933 1.18023,5.90117 l -1.83592,-2.88502 q 0.26227,-0.52455 -0.39341,-1.83592 -0.65569,-1.31137 -1.70479,-2.88502 -1.04909,-1.57364 -2.22933,-3.01615 -1.18023,-1.44251 -1.44251,-2.22934 h -0.26227 q 1.31137,4.72094 2.22933,9.57302 0.91796,4.85208 2.22933,9.57302 -1.57364,-2.62275 -3.40956,-6.29459 -1.83592,-3.67184 -4.19639,-7.08141 -2.36047,-3.40957 -4.98322,-6.16345 -2.62274,-2.75388 -5.50776,-4.06525 l -0.26228,0.26227 q 1.31138,1.31138 2.62275,2.75388 1.31137,1.44251 2.62274,2.75389 l -0.26227,0.26227 q -1.0491,-0.78682 -1.83592,-1.57365 l -1.57365,-1.57364 q -0.52455,1.83592 1.18024,3.27843 1.70478,1.44251 3.67184,2.88502 1.96706,1.44251 3.5407,3.01615 1.57365,1.57365 1.0491,3.67184 -2.62274,-2.62274 -5.11435,-4.98321 -2.49161,-2.36047 -5.11435,-4.98321 l -0.26228,0.26227 q 1.0491,1.57365 1.57365,2.62274 -2.0982,-1.31137 -3.80298,-2.62274 -1.70478,-1.31137 -3.80298,-2.62274 h -0.26227 q 4.45866,6.03231 7.60596,11.80234 3.14729,5.77004 4.45866,12.85145 h -0.26227 q -0.26228,-0.52455 -2.22934,-4.5898 -1.96705,-4.06525 -4.45866,-8.52392 -2.49161,-4.45866 -4.98322,-7.99937 -2.4916,-3.5407 -3.5407,-3.01615 0,0.78682 -1.18023,1.18023 -1.18024,0.39341 -1.18024,1.18023 1.57365,2.88502 2.88502,5.50777 1.31137,2.09819 2.22933,4.32753 0.91796,2.22933 1.44251,3.5407 l -3.40957,-3.40957 v 2.0982 h -0.52455 q -0.52454,-1.31137 -0.65568,-2.49161 -0.13114,-1.18023 -0.65569,-2.49161 h -0.26227 q 0,0.78683 0.26227,1.31138 -0.52455,-0.78683 -0.91796,-1.31138 -0.39341,-0.52454 -0.91796,-1.04909 0,0.52455 -0.52455,2.09819 -1.31137,-2.09819 -2.88502,-3.67184 -1.57364,-1.57365 -3.14729,-3.67184 v 0.26227 q 1.0491,1.83592 2.0982,3.54071 1.04909,1.70478 2.09819,3.80298 l -0.26227,0.26227 q -0.52455,-0.78682 -3.40957,-2.88502 -2.88502,-2.09819 -3.40957,-2.88502 1.31138,2.36047 2.36047,4.45867 1.0491,1.83592 1.83592,3.5407 0.78683,1.70479 1.31138,2.75388 -2.0982,-2.88501 -4.32753,-6.03231 -2.22933,-3.14729 -4.32753,-6.03231 -0.26227,0.26228 -0.52455,0.26228 -0.52455,2.09819 0.52455,3.14729 l 2.36047,2.36047 q -0.26227,0 -0.52455,0.26227 2.0982,1.83592 1.0491,3.67184 -1.0491,1.83593 -1.0491,3.67185 2.62275,0.52455 2.0982,3.5407 -0.52455,3.01616 -2.49161,6.81914 -1.96706,3.80297 -4.19639,7.21254 -2.22933,3.40957 -2.49161,4.45867 -1.31137,-0.52455 -2.36047,3.40956 -9.1796,6.03232 -20.06399,12.06463 -10.88439,6.03231 -20.06399,12.06462 -8.91733,-4.98321 -20.063995,-10.09756 -11.146663,-5.11436 -19.27717,-11.14667 -1.573646,-1.04909 -5.376625,-4.98321 -3.802979,-3.93412 -7.212546,-8.26165 -3.409568,-4.32752 -4.72094,-7.99936 -1.311372,-3.67185 2.36047,-4.45867 -2.098195,-4.45866 -0.786823,-6.03231 1.311372,-1.57365 3.409567,-2.22933 2.098195,-0.65569 4.196391,-1.18024 2.098195,-0.52455 2.098195,-2.88502 -0.786823,0 -1.049098,0.78683 -0.524549,-1.83592 -0.786823,-2.22934 -0.262274,-0.39341 -1.835921,0.13114 -0.262274,-1.31137 -1.311372,-0.26227 v -1.0491 q -1.835921,0.52455 -2.229332,1.83592 -0.393412,1.31137 -1.180235,2.36047 0.524549,-1.31137 0.786823,-2.49161 0.262274,-1.18023 0.262274,-2.4916 -1.573646,2.09819 -3.409567,4.06525 -1.835921,1.96706 -3.147293,4.32753 h -0.262274 q 0.524549,-2.0982 0.91796,-3.80298 0.393412,-1.70479 0.917961,-3.80298 h -0.262275 q -0.524549,1.31137 -1.180235,2.22933 -0.655686,0.91796 -1.180235,2.22933 0.262275,-0.78682 0.262275,-1.44251 0,-0.65568 0.262274,-1.4425 h -0.262274 q -0.262275,0.52454 -0.393412,1.04909 -0.131137,0.52455 -0.655686,1.0491 l -0.262274,-0.26227 q 0.524549,-1.31138 0.786823,-2.49161 0.262274,-1.18024 0.786823,-2.49161 -0.786823,1.31137 -1.573646,2.49161 -0.786823,1.18023 -1.573647,2.49161 -0.262274,-0.78683 -1.049097,-1.0491 -0.262275,0.26227 -0.262275,0.65568 0,0.39342 -0.524549,0.91797 v -1.57365 q -1.049097,1.83592 -1.83592,3.40957 l -1.573647,3.14729 q 0,-0.26228 -0.262274,-0.26228 1.049097,-4.19639 2.622744,-8.52391 1.573646,-4.32753 2.098195,-8.52392 -0.524549,0.26227 -1.049098,0.78682 0,-0.52455 -0.131137,-0.65569 -0.131137,-0.13113 -0.131137,-0.39341 -1.049098,0.52455 -1.967058,1.31138 -0.91796,0.78682 -1.704784,1.31137 l -0.786823,-0.78683 h 0.262274 q 0,-0.26227 -0.131137,-0.52454 -0.131137,-0.26228 -0.131137,-0.78683 -2.885018,0.78683 -5.245488,3.27843 -2.36047,2.49161 -4.458665,5.6389 -2.098195,3.1473 -4.196391,6.16345 -2.098195,3.01616 -4.458665,4.85208 3.147293,-4.72094 6.294586,-9.57302 3.147293,-4.85208 6.294586,-9.83529 l -0.524549,-0.52455 q -0.524549,0.78683 -1.835921,2.0982 0.524549,-2.62275 1.049098,-3.67184 h -0.262274 q -4.72094,4.45866 -8.786193,8.78619 -4.065254,4.32753 -5.376626,10.88439 -0.262274,-2.88502 0,-5.37663 0.262275,-2.49161 0.524549,-5.37662 l -0.786823,0.39341 -0.786823,0.39341 q 0.524548,-0.52455 0.524548,-0.65569 0,-0.13113 0.262275,-0.39341 -0.262275,0 -0.262275,0.26228 -0.524548,-1.0491 -1.573646,-0.78683 -1.049098,0.26228 -0.524549,0.78683 l -1.835921,0.26227 q 0.524549,-6.03231 4.983214,-9.44188 -1.573646,-2.62274 -3.671842,-4.98321 -1.835921,-2.0982 -4.458665,-3.93412 -2.622744,-1.83592 -6.294586,-2.88502 2.36047,-1.31137 3.016156,-2.36047 0.655686,-1.04909 0.393412,-1.96706 -0.262275,-0.91796 -1.049098,-2.09819 -0.786823,-1.18024 -1.049097,-2.75388 -4.4586654,-3.67184 -6.2945863,-8.13051 0,-1.83592 1.5736464,-2.62274 1.5736465,-0.78683 2.0981953,-2.88502 -2.0981953,-4.45867 -4.9832138,-6.81914 -1.311372,-2.88501 -2.2293325,-5.24548 -0.9179604,-2.36047 -1.5736465,-4.72094 -0.65568598,-2.36047 -0.91796039,-4.85208 -0.26227442,-2.49161 0,-6.16345 6.81913469,8.39278 14.94964179,15.47419 8.130506,7.08141 17.83466,12.3269 2.098195,1.0491 4.589802,2.62274 2.491607,1.57365 5.114351,2.36047 2.622744,0.78683 5.114351,0.26228 2.491607,-0.52455 4.852077,-3.40957 0.786823,-1.0491 0.262274,-3.80298 -0.524549,-2.75388 -1.573647,-5.90117 -1.049097,-3.1473 -2.229332,-6.03231 -1.180235,-2.88502 -1.442509,-4.1964 -1.835921,-5.50776 -4.589802,-12.32689 -2.753882,-6.81914 -5.114352,-13.90055 -2.360469,-7.081406 -3.409567,-14.031678 -1.049098,-6.950272 0.524549,-12.982583 1.311372,-4.983214 4.196391,-9.704153 2.885018,-4.72094 6.425723,-9.048465 3.540704,-4.327528 7.47482,-8.261644 3.934117,-3.934116 7.605958,-7.343683 0.262275,0.262274 0.524549,0.262274 -0.524549,1.049098 -1.049098,1.835921 -0.524548,0.786823 -1.049097,1.835921 5.507762,-1.835921 8.655055,-7.081409 3.147293,-5.245489 4.72094,-11.671212 1.573646,-6.425724 2.36047,-12.851447 0.786823,-6.425723 2.098195,-10.6221144 l 0.524549,0.5245488 Q 78.026637,16.018915 76.584128,25.067382 75.141619,34.11585 70.42068,43.295455 h 0.262274 q -1.835921,2.098195 -3.540705,4.327528 -1.704783,2.229332 -3.540704,4.589802 0.262274,0 0.262274,0.131137 0,0.131137 0.262275,0.131137 1.311372,-1.311372 2.491607,-2.753881 1.180234,-1.442509 3.016155,-2.491607 -3.147293,6.55686 -7.343683,11.540074 -4.196391,4.983211 -7.737095,9.835288 -3.540705,4.852076 -5.376626,10.622113 -1.835921,5.770038 0,13.900544 3.409568,14.94964 9.835291,28.58791 6.425723,13.63827 15.867602,25.44062 1.573646,-2.62274 3.27843,-2.22933 1.704783,0.39341 3.540704,2.22933 1.311372,-1.31137 1.44251,-3.01616 0.131137,-1.70478 -0.393412,-3.5407 -0.524549,-1.83592 -1.180235,-3.80298 -0.655686,-1.96706 -0.655686,-3.80298 1.311372,3.14729 1.967058,6.16345 0.655686,3.01616 2.491607,5.90117 -0.524549,-1.57364 -0.786823,-3.01615 -0.262275,-1.44251 -0.786823,-2.75388 0.262274,0 0.262274,-0.13114 0,-0.13114 0.262274,-0.13114 l 6.294586,12.58917 q 0.524549,-0.52454 0.524549,-0.78682 1.311372,1.0491 2.491607,2.49161 1.180235,1.44251 1.967058,2.4916 0.524549,-1.31137 1.049098,-2.22933 0.524549,-0.91796 1.049097,-1.70478 1.573647,0.26227 2.622742,0.26227 l 2.62275,0.52455 q 0.52455,-1.57364 0.78682,-2.09819 v 1.83592 l 0.78682,-0.78683 q 0.26228,0.26228 0.26228,0.39342 0,0.13113 0.26227,0.39341 h 0.26228 q -0.26228,-1.0491 -0.39342,-1.83592 -0.13113,-0.78683 -0.39341,-1.83592 h 0.26228 l 0.52455,0.52454 -0.26228,-0.26227 q 0.26228,-0.52455 0.52455,-0.65569 0.26228,-0.13113 0.78682,-0.65568 l 0.52455,0.26227 q 0,0.52455 0.13114,0.91796 0.13114,0.39341 0.13114,0.91796 0.26227,-4.98321 -0.52455,-10.2287 -0.78682,-5.24549 -1.83592,-10.49098 -1.0491,-5.24548 -1.83592,-10.49097 -0.78683,-5.24549 -0.52455,-10.75325 0,-1.57365 0.91796,-7.999372 0.91796,-6.425723 2.62274,-13.375995 1.70479,-6.950272 4.45867,-11.933486 2.75388,-4.983214 6.42572,-3.671842 1.0491,0.524549 0.26227,6.425723 -0.78682,5.901175 -2.09819,13.113721 -1.31137,7.212546 -2.62274,13.769411 -1.31138,6.55686 -1.31138,8.1305 0.26228,10.75325 3.40957,21.11309 3.14729,10.35984 7.08141,20.32627 0.26227,-0.52455 0.26227,-1.0491 0,-0.52455 0.26228,-1.0491 h 0.52455 q -0.26228,1.0491 -0.26228,3.1473 h 0.26228 q 0.26227,-0.52455 2.4916,-1.0491 2.22934,-0.52455 2.22934,-1.0491 h 0.52455 v 3.40957 l 0.26227,-0.26228 q 2.36047,1.0491 3.40957,0.39342 1.0491,-0.65569 1.57364,-1.96706 0.52455,-1.31137 0.91796,-2.75388 0.39342,-1.44251 1.70479,-2.22934 -0.52455,2.0982 -0.52455,3.27843 0,1.18024 1.57365,2.49161 0.26227,-0.26227 0.52454,-0.39341 0.26228,-0.13114 0.52455,-0.65569 v 2.36047 h 0.26228 q 0.52455,-1.04909 1.0491,-3.14729 0.26227,0.26228 0.26227,0.39341 0,0.13114 0.52455,0.65569 2.09819,-4.45867 3.27843,-9.31074 1.18023,-4.85208 3.5407,-9.31074 -0.78682,3.40956 -1.70478,6.68799 -0.91796,3.27843 -1.70478,6.688 1.04909,0.52455 1.57364,-1.18023 0.52455,-1.70479 0.91796,-3.80298 0.39341,-2.0982 0.91796,-3.93412 0.52455,-1.83592 1.57365,-1.31137 0.26227,-0.52455 0.39341,-1.0491 0.13114,-0.52455 0.39341,-1.0491 l 0.26228,0.26228 q -0.52455,1.57364 -0.91796,3.27843 -0.39341,1.70478 -0.91796,3.5407 1.31137,0.52455 0,3.40957 1.31137,-0.26228 1.96705,0.13114 0.65569,0.39341 3.01616,2.4916 2.62274,0 5.90117,-5.24548 3.27843,-5.24549 6.29459,-12.19577 3.01616,-6.95027 5.37663,-13.50713 2.36047,-6.55686 3.40956,-8.91733 4.98322,-11.540071 6.95028,-23.080146 1.96705,-11.540074 -4.85208,-23.342422 -2.88502,-4.720937 -5.90118,-8.523916 -3.01615,-3.802979 -6.03231,-7.737095 -3.01615,-3.934116 -5.6389,-8.261644 -2.62274,-4.327528 -4.19639,-9.835291 -1.0491,-3.671842 -1.44251,-8.786193 -0.39341,-5.114351 -0.52455,-9.704154 -0.13113,-4.5898026 -0.13113,-7.7370955 0,-3.14729295 0,-2.88501854 z m 8.39278,195.3944318 -0.26227,0.26228 q 0.78682,0.52455 1.18024,1.44251 0.39341,0.91796 1.96705,0.91796 -0.78682,-0.78682 -1.57364,-1.44251 -0.78683,-0.65569 -1.31138,-1.18024 z m 36.9807,-13.11372 -0.26228,0.26228 q 0.52455,0.78682 0.91796,1.44251 0.39341,0.65568 0.91796,1.44251 l 0.26228,-0.26228 q -0.78683,-1.31137 -1.83592,-2.88502 z"
     id="path18"
     inkscape:label="maho"
     style="stroke-width:0.262274" />
</svg>
