<?xml version="1.0" encoding="UTF-8" standalone="no"?>
<svg
   xmlns:dc="http://purl.org/dc/elements/1.1/"
   xmlns:cc="http://creativecommons.org/ns#"
   xmlns:rdf="http://www.w3.org/1999/02/22-rdf-syntax-ns#"
   xmlns:svg="http://www.w3.org/2000/svg"
   xmlns="http://www.w3.org/2000/svg"
   xmlns:sodipodi="http://sodipodi.sourceforge.net/DTD/sodipodi-0.dtd"
   xmlns:inkscape="http://www.inkscape.org/namespaces/inkscape"
   version="1.1"
   id="svg56"
   sodipodi:docname="mantra.svg"
   inkscape:version="1.0.2 (e86c8708, 2021-01-15)">
  <metadata
     id="metadata62">
    <rdf:RDF>
      <cc:Work
         rdf:about="">
        <dc:format>image/svg+xml</dc:format>
        <dc:type
           rdf:resource="http://purl.org/dc/dcmitype/StillImage" />
        <dc:title />
      </cc:Work>
    </rdf:RDF>
  </metadata>
  <defs
     id="defs60" />
  <sodipodi:namedview
     pagecolor="#ffffff"
     bordercolor="#666666"
     borderopacity="1"
     objecttolerance="10"
     gridtolerance="10"
     guidetolerance="10"
     inkscape:pageopacity="0"
     inkscape:pageshadow="2"
     inkscape:window-width="3360"
     inkscape:window-height="1837"
     id="namedview58"
     showgrid="false"
     inkscape:pagecheckerboard="true"
     showborder="false"
     inkscape:zoom="3.5066667"
     inkscape:cx="150"
     inkscape:cy="143.44106"
     inkscape:window-x="41"
     inkscape:window-y="25"
     inkscape:window-maximized="1"
     inkscape:current-layer="svg56"
     inkscape:document-rotation="0" />
  <path
     d="m 207.11541,66.441421 q 0,1.63538 -0.27256,4.76987 -0.27257,3.13448 -2.18051,5.04243 -1.90795,1.90794 -6.8141,1.63538 -4.90615,-0.27256 -10.62998,-4.08846 L 152.3301,118.5011 q 1.90794,4.63358 3.95217,11.85652 2.04423,7.22294 3.40705,15.8087 1.36282,8.58576 1.77166,18.12549 0.40885,9.53973 -1.22653,18.8069 -2.18051,1.90794 -2.86192,5.31499 -0.68141,3.40705 -2.58936,7.22294 -1.36282,17.9892 -8.58576,30.7997 -7.22294,12.8105 -17.9892,20.03344 -10.76627,7.22294 -23.71305,8.9946 -12.946779,1.77167 -25.893557,-2.31679 -12.946778,-4.08846 -24.394455,-14.03703 -11.447677,-9.94858 -18.806898,-26.02984 -1.907947,-3.81589 -3.270765,-7.49551 -1.362819,-3.67961 -1.362819,-7.4955 -8.449477,-4.63358 -15.26357,-12.40165 Q 8.6890019,177.91999 4.7368276,167.97142 0.78465322,158.02284 0.10324385,146.03004 -0.57816551,134.03723 3.237727,120.95417 q 3.5433287,-10.62999 9.267167,-19.07946 5.723839,-8.449479 12.537933,-14.991009 6.814094,-6.54153 14.309597,-11.44767 7.495503,-4.90615 14.854724,-8.17692 16.898952,-7.90435 35.978415,-10.90255 -18.261771,5.72384 -34.070469,14.71845 -6.814093,3.81589 -13.628187,8.85832 -6.814094,5.04243 -12.946778,11.17511 -6.132685,6.13268 -11.038832,13.628189 -4.906148,7.4955 -7.631785,16.21754 -3.8158926,13.08306 -3.9521745,23.84933 -0.1362818,10.76627 2.7256375,19.35203 2.861919,8.58575 8.313194,15.12728 5.451275,6.54153 12.810497,11.17512 -2.18051,-11.17512 0.545127,-20.44228 2.725638,-9.26717 6.54153,-16.62639 -0.545127,-7.35922 0.68141,-13.90075 1.226537,-6.54153 3.67961,-12.12909 2.453074,-5.58756 5.723839,-10.22114 3.270765,-4.63359 6.54153,-8.44948 7.904348,-8.722039 18.261771,-14.990999 -7.631785,6.814089 -13.900751,14.990999 -5.451275,7.08666 -10.221141,16.49011 -4.769865,9.40345 -5.587557,20.57856 3.815893,-4.63358 7.631785,-8.17691 3.815893,-3.54333 7.086658,-6.26897 3.815892,-2.9982 7.631785,-5.45127 -3.815893,3.27076 -7.631785,7.63178 -3.270765,3.8159 -7.086658,9.40345 -3.815892,5.58756 -7.631785,12.94678 0,1.90795 1.226537,4.90615 1.226537,2.9982 1.226537,4.90615 3.815893,9.53973 7.495503,16.89895 3.679611,7.35922 7.495503,13.08306 9.267168,-1.90795 18.261771,-7.49551 8.994604,-5.58755 16.353825,-14.85472 3.815892,-3.81589 7.22294,-8.72204 3.40705,-4.90615 5.04243,-8.72204 l -2.18051,-2.45307 q -3.81589,-2.72564 -6.541531,-6.40525 -2.725638,-3.67961 -4.088456,-7.08666 -1.362819,-3.40705 -1.362819,-6.54153 0,-3.13448 1.907946,-5.04243 1.907946,-1.90794 6.95038,-1.63538 5.04242,0.27256 10.4937,4.08846 l 2.45307,-4.90615 q 1.90795,-7.35922 2.18051,-15.39985 0.27257,-8.04063 0.27257,-19.488309 0,-1.90795 -0.27257,-2.18051 -0.27256,-0.27257 -2.18051,-0.27257 -6.54153,-17.71664 -5.04243,-33.11649 1.4991,-15.39985 8.3132,-26.98381 6.81409,-11.58396 17.3078,-18.6706205 10.4937,-7.08666 21.66881,-8.17691 7.35923,-1.90794999 16.35383,-1.49909999 8.9946,0.40884 16.35382,4.22473999 1.90795,1.90794 3.67961,3.40704 1.77167,1.4991 3.67961,1.4991 3.8159,2.1805105 7.08666,5.3150005 3.27077,3.13448 5.45128,6.95037 5.45127,7.35922 6.81409,14.3096 1.36282,6.95038 0.13628,12.8105 -1.22653,5.86012 -4.08845,10.4937 -2.86192,4.63358 -5.58756,7.35922 z m -34.6156,-5.17871 q -4.08845,-5.45127 -5.31499,-10.35742 -1.22654,-4.90615 2.58936,-6.8141 0,-2.18051 2.86192,-2.45307 2.86192,-0.27256 4.76986,-0.27256 1.09026,-1.90795 2.04423,-4.90615 0.95397,-2.9982 0.68141,-6.40525 -0.27256,-3.40705 -2.58936,-6.95037 -2.31679,-3.54333 -7.76806,-6.54153 -5.72384,0.81769 -11.58396,3.67961 -5.86012,2.86192 -11.17512,7.4955 -5.31499,4.63358 -9.81229,11.17511 -4.4973,6.54153 -7.22294,14.99101 0,5.45127 1.77166,13.90075 1.77167,8.44948 5.58756,16.08126 2.18051,3.54333 2.72564,6.95038 0.54513,3.40704 2.45307,5.31499 z m -35.16072,42.519939 q -3.81589,-5.723829 -5.86012,-11.720239 -2.04423,-5.9964 -4.22474,-13.35562 0,-1.63538 -1.09025,-2.18051 -0.54513,-0.27256 -1.09026,-0.27256 v 14.71844 q 7.35922,11.447679 7.35922,15.263569 z m 7.35922,19.89716 -2.18051,2.18051 q 3.54333,7.63178 6.95038,17.17151 3.40704,9.53974 5.31499,22.6228 0,-6.54153 -0.54513,-11.85653 -0.54512,-5.31499 -1.63538,-10.22114 -1.09025,-4.90615 -3.13448,-9.67601 -2.04423,-4.76987 -4.76987,-10.22114 z M 40.578961,170.56077 v -7.35922 q -3.815893,7.63179 -4.497302,14.99101 -0.681409,7.35922 -0.681409,14.991 3.815892,1.90795 8.722039,2.18051 4.906148,0.27257 8.72204,0.27257 -3.815892,-5.72384 -7.086657,-11.58396 -3.270765,-5.86012 -5.178711,-13.49191 z m 19.897153,32.43509 q -5.723838,1.90795 -11.311395,0.68141 -5.587557,-1.22654 -11.311396,-3.40705 0,2.18051 1.362819,3.95218 1.362819,1.77166 1.362819,3.67961 11.175113,22.35022 26.302401,31.61739 15.127288,9.26717 30.118294,8.3132 14.991004,-0.95398 27.392654,-10.35743 12.40165,-9.40345 18.12549,-24.39445 -8.44947,8.44947 -19.07946,11.72024 -10.62999,3.27076 -21.94138,1.90794 -11.311397,-1.36281 -21.941384,-7.35922 -10.629986,-5.9964 -19.079462,-16.35382 z M 112.53579,158.2954 q -1.90795,5.45128 -5.17871,10.76627 -3.27077,5.315 -7.08666,9.13089 -7.631784,9.26717 -16.353824,15.12729 -8.722039,5.86012 -16.081261,9.67601 10.084859,9.26717 22.077664,12.67421 11.992801,3.40705 23.167921,1.77167 11.17511,-1.63539 20.306,-7.90435 9.13088,-6.26897 13.76447,-16.35383 1.09025,-11.17511 1.09025,-19.4883 0,-8.3132 -1.22654,-15.12729 -1.22653,-6.8141 -3.67961,-12.67422 -2.45307,-5.86012 -5.9964,-12.40165 l -10.08486,10.08486 q 3.81589,5.45128 5.45128,10.35742 1.63538,4.90615 -0.27257,6.8141 -3.81589,3.81589 -8.9946,2.58935 -5.17871,-1.22653 -10.90255,-5.04243 z m 10.08486,-47.42609 q 1.36282,1.63538 0.81769,3.54333 -0.27256,1.09026 -0.81769,1.63538 l 4.63358,-2.45307 q -1.63538,-2.18051 -2.18051,-4.22474 -0.54513,-2.04423 -2.45307,-5.58756 z m -2.45308,-39.794299 v -4.63359 q 0,-3.81589 0.27257,-7.22294 0.27256,-3.40704 2.18051,-5.31499 0,-7.35922 1.4991,-13.35562 1.4991,-5.99641 3.13448,-11.44768 -5.45127,9.26717 -8.17691,19.07946 -2.72564,9.8123 1.09025,22.89536 z m 69.77632,-52.05968 q 3.8159,7.63178 2.86192,14.71844 -0.95397,7.08666 -2.86192,12.8105 0.81769,-1.90795 2.04423,-5.04243 1.22654,-3.13448 1.63538,-6.81409 0.40885,-3.67962 -0.27256,-7.76807 -0.68141,-4.08846 -3.40705,-7.90435 z m 14.71845,19.89715 q 0,5.72384 -1.4991,9.26717 -1.49911,3.54333 -3.13449,5.72384 v 2.45307 q 1.63538,-3.81589 3.13449,-7.76806 1.4991,-3.95218 1.4991,-9.67602 z"
     id="path32"
     inkscape:label="mantra"
     style="stroke-width:0.272564" />
</svg>
