<?xml version="1.0" encoding="UTF-8" standalone="no"?>
<svg
   xmlns:dc="http://purl.org/dc/elements/1.1/"
   xmlns:cc="http://creativecommons.org/ns#"
   xmlns:rdf="http://www.w3.org/1999/02/22-rdf-syntax-ns#"
   xmlns:svg="http://www.w3.org/2000/svg"
   xmlns="http://www.w3.org/2000/svg"
   xmlns:sodipodi="http://sodipodi.sourceforge.net/DTD/sodipodi-0.dtd"
   xmlns:inkscape="http://www.inkscape.org/namespaces/inkscape"
   version="1.1"
   id="svg65"
   sodipodi:docname="ninjitsu.svg"
   inkscape:version="1.0.2 (e86c8708, 2021-01-15)">
  <metadata
     id="metadata71">
    <rdf:RDF>
      <cc:Work
         rdf:about="">
        <dc:format>image/svg+xml</dc:format>
        <dc:type
           rdf:resource="http://purl.org/dc/dcmitype/StillImage" />
        <dc:title></dc:title>
      </cc:Work>
    </rdf:RDF>
  </metadata>
  <defs
     id="defs69" />
  <sodipodi:namedview
     pagecolor="#ffffff"
     bordercolor="#666666"
     borderopacity="1"
     objecttolerance="10"
     gridtolerance="10"
     guidetolerance="10"
     inkscape:pageopacity="0"
     inkscape:pageshadow="2"
     inkscape:window-width="1680"
     inkscape:window-height="908"
     id="namedview67"
     showgrid="false"
     inkscape:pagecheckerboard="true"
     showborder="false"
     inkscape:zoom="3.5066667"
     inkscape:cx="150"
     inkscape:cy="75"
     inkscape:window-x="0"
     inkscape:window-y="1915"
     inkscape:window-maximized="1"
     inkscape:current-layer="svg65" />
  <path
     d="m 183.00718,175.65538 q 2.10051,3.6759 3.28205,7.87693 1.18154,4.20102 2.2318,8.66461 2.36307,10.76513 3.15076,22.05539 0.7877,11.29025 0.52513,20.48 -0.26256,10.76513 -1.31282,21.26769 -9.18974,-5.25128 -17.85436,-12.07795 -7.61436,-5.77641 -16.14769,-13.25949 -8.53333,-7.48307 -15.36,-16.14769 -3.15077,-3.41333 -5.38256,-6.82667 -2.2318,-3.41333 -4.33231,-7.08923 l -12.34051,-24.94359 q -2.62564,-2.10051 -6.82667,-3.41333 -1.83795,-0.78769 -3.41333,-1.05026 l -3.15077,-0.52512 -25.731285,12.34051 q -3.675897,2.10051 -8.008205,3.41333 -4.332307,1.31282 -8.795897,2.36308 -10.765128,2.36308 -21.924103,3.15077 -11.158974,0.78769 -20.348718,0.52513 Q 10.502564,192.19692 0,191.14667 q 5.2512821,-9.18975 12.077949,-17.85436 5.513846,-7.61436 13.128205,-16.1477 7.614359,-8.53333 16.01641,-15.35999 3.413333,-3.15077 6.957949,-5.51385 3.544615,-2.36308 7.220513,-4.20103 l 24.943589,-12.34051 q 0.787693,-1.57538 1.575385,-3.28205 0.787692,-1.70667 1.575385,-3.54462 0.525128,-2.10051 1.050256,-3.80718 0.525128,-1.70666 0.525128,-3.80717 L 72.992821,80.60718 Q 70.892308,76.93128 69.710769,72.73026 68.529231,68.52923 67.478974,64.06564 64.853333,53.56308 64.196923,42.27282 63.540513,30.98256 63.803077,21.53026 64.065641,10.50256 65.115897,0 q 8.92718,5.51385 17.591795,12.07795 7.614359,5.51384 15.885129,12.86564 8.270769,7.35179 15.097439,15.75385 3.41333,3.67589 5.90769,7.35179 2.49436,3.6759 4.59487,7.3518 l 12.34051,25.46871 q 1.31282,0.7877 3.01949,1.57539 1.70667,0.78769 3.01949,1.31282 2.10051,0.52513 3.80718,1.05026 1.70666,0.52512 3.80718,0.52512 l 25.20615,-12.34051 q 7.87692,-3.6759 16.01641,-5.25128 10.76513,-2.62564 22.18667,-3.41333 11.42154,-0.7877 20.87384,-0.52513 11.0277,0.26256 21.53026,1.31282 -5.51385,8.92718 -12.07795,17.59179 -5.51384,7.61436 -12.99692,16.14769 -7.48308,8.53334 -15.88513,15.36 -3.6759,3.15077 -7.22051,5.51385 -3.54462,2.36308 -7.22052,4.46359 l -25.73128,12.60308 q -1.05025,1.31282 -1.83795,3.01948 -0.78769,1.70667 -1.31282,3.01949 -0.52513,1.83795 -0.78769,3.54462 -0.26256,1.70666 -0.78769,3.01948 z m -62.49026,-25.99384 q 4.46359,1.57538 9.05846,1.31282 4.59488,-0.26257 8.53334,-2.2318 3.93846,-1.96923 6.95795,-5.25128 3.01948,-3.28205 4.59487,-7.74564 1.57538,-4.46359 1.18154,-9.05846 -0.39385,-4.59487 -2.2318,-8.66462 -1.83795,-4.06974 -5.25128,-7.08923 -3.41333,-3.01948 -7.87692,-4.59487 -4.46359,-1.57538 -9.05846,-1.18154 -4.59488,0.39385 -8.53334,2.2318 -3.93846,1.83795 -6.95795,5.25128 -3.01948,3.41333 -4.59487,7.87692 -1.57538,4.46359 -1.31282,9.05846 0.26257,4.59488 2.2318,8.53334 1.96923,3.93846 5.38256,6.95795 3.41333,3.01948 7.87692,4.59487 z"
     id="path22"
     inkscape:label="ninjitsu"
     style="stroke-width:0.262564" />
</svg>
