<?xml version="1.0" encoding="UTF-8" standalone="no"?>
<svg
   xmlns:dc="http://purl.org/dc/elements/1.1/"
   xmlns:cc="http://creativecommons.org/ns#"
   xmlns:rdf="http://www.w3.org/1999/02/22-rdf-syntax-ns#"
   xmlns:svg="http://www.w3.org/2000/svg"
   xmlns="http://www.w3.org/2000/svg"
   xmlns:sodipodi="http://sodipodi.sourceforge.net/DTD/sodipodi-0.dtd"
   xmlns:inkscape="http://www.inkscape.org/namespaces/inkscape"
   version="1.1"
   id="svg79"
   sodipodi:docname="ritual.svg"
   inkscape:version="1.0.2 (e86c8708, 2021-01-15)">
  <metadata
     id="metadata85">
    <rdf:RDF>
      <cc:Work
         rdf:about="">
        <dc:format>image/svg+xml</dc:format>
        <dc:type
           rdf:resource="http://purl.org/dc/dcmitype/StillImage" />
        <dc:title></dc:title>
      </cc:Work>
    </rdf:RDF>
  </metadata>
  <defs
     id="defs83" />
  <sodipodi:namedview
     pagecolor="#ffffff"
     bordercolor="#666666"
     borderopacity="1"
     objecttolerance="10"
     gridtolerance="10"
     guidetolerance="10"
     inkscape:pageopacity="0"
     inkscape:pageshadow="2"
     inkscape:window-width="1680"
     inkscape:window-height="908"
     id="namedview81"
     showgrid="false"
     inkscape:pagecheckerboard="true"
     showborder="false"
     inkscape:zoom="3.5066667"
     inkscape:cx="172.81369"
     inkscape:cy="109.22053"
     inkscape:window-x="0"
     inkscape:window-y="1915"
     inkscape:window-maximized="1"
     inkscape:current-layer="svg79" />
  <path
     d="m 215.91386,161.80779 q 0,1.02087 -0.25521,1.5313 h 0.25521 v 8.67739 1.53131 h -0.25521 q -1.02087,4.33869 -7.2737,8.16695 -6.25282,3.82826 -16.71673,7.14609 0.51043,1.02087 0.51043,2.04174 0,5.61478 -2.935,10.46391 -2.935,4.84913 -7.78413,9.18782 -1.27608,5.35956 -0.25521,11.10195 1.02087,5.74239 8.42217,10.08109 l 20.41739,13.01608 q -2.04174,4.59391 -5.87,7.40131 -3.31783,2.55217 -9.06022,3.57304 -5.74239,1.02087 -14.675,-1.78652 -4.59391,-1.53131 -7.91173,-4.84913 -3.31783,-3.31783 -5.61478,-7.52891 -2.29696,-4.21109 -3.70066,-9.18783 -1.40369,-4.97674 -2.16934,-9.82587 -10.71913,4.3387 -24.24565,6.76326 -13.52652,2.42457 -28.83956,2.42457 -15.313038,0 -28.711948,-2.42457 -13.39891,-2.42456 -24.118038,-6.76326 -0.765652,4.84913 -2.296956,9.82587 -1.531304,4.97674 -3.82826,9.18783 -2.296956,4.21108 -5.487173,7.52891 -3.190216,3.31782 -7.784128,4.84913 -9.187824,2.80739 -14.930214,1.78652 -5.74239,-1.02087 -9.060216,-3.57304 -3.8282597,-2.8074 -5.614781,-7.40131 l 20.417387,-13.01608 q 7.146085,-4.3387 8.294563,-10.08109 1.148478,-5.74239 -0.127609,-11.10195 -5.104346,-4.33869 -8.039346,-9.18782 -2.934999,-4.84913 -2.934999,-10.46391 0,-0.51044 0.255217,-1.02087 0.255218,-0.51044 0.255218,-1.02087 Q 14.036953,185.543 7.7841287,181.71474 1.531304,177.88648 0.51043467,173.54779 H 0 v -1.53131 -8.67739 H 0.51043467 Q 0,162.31822 0,161.80779 q 0,-5.35956 7.9117373,-9.95348 7.9117377,-4.59391 21.6934737,-8.16695 6.890868,-9.69826 20.544995,-16.84435 13.654127,-7.14608 31.519341,-10.71912 L 48.236076,36.496079 q 2.552173,0 5.359564,0.510434 5.104347,0.765652 9.187824,3.82826 2.041739,1.531304 2.934999,2.935 0.893261,1.403695 1.148478,2.679782 0.255218,1.276086 0,2.80739 l 20.927822,65.846075 q 5.104346,-0.76565 9.953476,-1.02087 4.849131,-0.25522 10.208691,-0.25522 h 1.02087 L 106.42563,0 q 2.55217,0.25521733 5.10434,1.2760867 2.04174,0.765652 4.3387,2.0417386 2.29696,1.2760867 4.08348,3.5730435 2.04174,2.296956 2.55217,4.4663032 0.51043,2.169347 0.51043,3.955869 0,2.041738 -0.76565,3.573042 l -7.14608,94.940847 q 3.82826,0.25522 7.65652,0.63804 3.82826,0.38283 7.4013,1.14848 l 20.92782,-66.356505 q -0.51043,-1.531304 -0.25522,-2.80739 0.25522,-1.276087 1.14848,-2.679782 0.89326,-1.403696 3.19022,-2.935 2.04174,-1.531304 4.59391,-2.424564 2.55217,-0.893261 4.84913,-1.403696 2.55217,-0.510434 5.10435,-0.510434 L 136.28606,116.3791 q 17.35477,3.57305 30.37086,10.59152 13.01608,7.01848 19.65173,16.71674 13.78174,3.57304 21.69348,8.16695 7.91173,4.59392 7.91173,9.95348 z m -41.08999,4.59391 q 4.84913,-2.80739 4.84913,-5.87 0,-2.29695 -0.63804,-4.4663 -0.63804,-2.16935 -1.4037,-4.21109 -2.80739,-6.38043 -9.95347,-11.99521 -6.38044,-5.10435 -15.31304,-8.67739 -8.93261,-3.57304 -19.90695,-5.61478 l -4.3387,10.20869 -2.29695,5.61478 -2.8074,-3.06261 1.02087,-2.55217 3.31783,-11.22956 q -3.06261,-0.51044 -6.25283,-0.63804 -3.19021,-0.12761 -6.76325,-0.38283 l -0.76566,11.99521 -0.76565,3.31783 -3.06261,3.31782 -0.25521,-6.89086 -0.25522,-11.99522 h -1.27609 q -4.59391,0 -8.932605,0.25522 -4.338694,0.25522 -8.677389,0.76565 l 3.82826,11.22956 0.765652,2.80739 -2.807391,3.06261 -2.296956,-5.61478 -4.338694,-10.46391 q -23.224778,3.82826 -37.006514,14.54739 -6.890868,5.10435 -9.953476,11.99521 -0.765652,2.04174 -1.403695,4.21109 -0.638043,2.16935 -0.638043,4.4663 0,3.06261 4.849129,5.87 5.359564,3.31783 15.823475,5.35957 10.46391,2.04173 23.479994,3.0626 13.016084,1.02087 27.308253,1.14848 14.29217,0.12761 27.43587,-1.02087 13.14369,-1.14848 23.6076,-3.19021 10.46391,-2.04174 15.82347,-5.35957 z"
     id="path20"
     inkscape:label="ritual"
     style="stroke-width:0.255217" />
</svg>
