<?xml version="1.0" encoding="UTF-8" standalone="no"?>
<svg
   xmlns:dc="http://purl.org/dc/elements/1.1/"
   xmlns:cc="http://creativecommons.org/ns#"
   xmlns:rdf="http://www.w3.org/1999/02/22-rdf-syntax-ns#"
   xmlns:svg="http://www.w3.org/2000/svg"
   xmlns="http://www.w3.org/2000/svg"
   xmlns:sodipodi="http://sodipodi.sourceforge.net/DTD/sodipodi-0.dtd"
   xmlns:inkscape="http://www.inkscape.org/namespaces/inkscape"
   version="1.1"
   id="svg88"
   sodipodi:docname="shuji.svg"
   inkscape:version="1.0.2 (e86c8708, 2021-01-15)">
  <metadata
     id="metadata94">
    <rdf:RDF>
      <cc:Work
         rdf:about="">
        <dc:format>image/svg+xml</dc:format>
        <dc:type
           rdf:resource="http://purl.org/dc/dcmitype/StillImage" />
        <dc:title></dc:title>
      </cc:Work>
    </rdf:RDF>
  </metadata>
  <defs
     id="defs92" />
  <sodipodi:namedview
     pagecolor="#ffffff"
     bordercolor="#666666"
     borderopacity="1"
     objecttolerance="10"
     gridtolerance="10"
     guidetolerance="10"
     inkscape:pageopacity="0"
     inkscape:pageshadow="2"
     inkscape:window-width="1680"
     inkscape:window-height="908"
     id="namedview90"
     showgrid="false"
     inkscape:pagecheckerboard="true"
     showborder="false"
     inkscape:zoom="3.5066667"
     inkscape:cx="150"
     inkscape:cy="109.22053"
     inkscape:window-x="0"
     inkscape:window-y="1915"
     inkscape:window-maximized="1"
     inkscape:current-layer="svg88" />
  <path
     d="m 255.31858,34.18004 q -1.03576,1.2947 -1.68311,2.20099 -0.64735,0.90629 -1.42417,2.20099 0.77682,1.2947 0.77682,2.9778 0,1.68311 -1.2947,3.23675 -0.77681,1.03576 -1.55363,1.94205 -0.77682,0.90629 -1.2947,1.68311 -6.47349,8.28607 -12.42911,17.9963 -5.95561,9.71024 -12.17016,18.77313 -5.95562,8.28607 -10.09865,17.09002 -4.14304,8.80395 -8.1566,17.47843 -4.01357,8.67448 -8.41554,16.96055 -4.40198,8.28607 -10.61653,15.53638 l -33.9211,-25.37609 q 5.1788,-11.65228 13.85328,-21.10358 8.67447,-9.4513 17.47842,-18.77313 10.61653,-10.87547 19.03207,-23.04563 8.41554,-12.17017 17.73737,-24.08139 8.80395,-13.98275 18.64366,-27.18867 1.55364,-2.07152 3.62515,-2.33046 2.07152,-0.25894 3.8841,0.77682 1.81258,1.03576 2.45993,2.84834 0.64735,1.81257 -0.64735,3.88409 1.81258,0.77682 2.45992,2.84834 0.64735,2.07152 -0.64734,4.14303 v 0.25894 q 0.25893,0.51788 0.3884,0.64735 0.12947,0.12947 0.38841,0.64735 2.5894,0.51788 3.75463,3.10728 1.16523,2.5894 -0.12947,4.66091 z M 134.1348,148.37245 q -7.50925,5.17879 -12.17016,12.68804 -4.66092,7.50925 -8.54501,15.79532 -3.8841,8.28607 -7.89766,16.57214 -4.01357,8.28607 -9.969179,15.01851 6.732429,-2.84834 11.522819,-8.41554 4.79038,-5.56721 6.60296,-12.81752 -2.33046,9.58077 -7.50925,18.38472 -5.1788,8.80395 -12.558577,14.75956 -7.379781,5.95561 -16.70161,7.89766 -9.321829,1.94205 -19.938356,-2.45993 1.294698,2.33046 4.013565,3.49569 2.718867,1.16523 5.567203,1.68311 0.51788,0.25894 1.294699,0.25894 0.776819,0 1.294698,0.25894 8.02713,2.07152 16.183731,3.10727 8.1566,1.03576 16.442667,0.51788 9.06289,-0.51788 17.73737,-3.10727 8.67448,-2.5894 15.40691,-8.54501 4.40198,-3.62516 8.28607,-8.41554 3.8841,-4.79039 8.54501,-8.67448 5.1788,-3.62516 8.93342,-8.02713 3.75463,-4.40198 5.82615,-10.61653 0.25894,-0.77682 0.51788,-3.8841 0.25893,-3.10727 0.3884,-6.60296 0.12947,-3.49568 0,-6.21455 -0.12947,-2.71887 -0.64734,-2.45993 1.03575,-0.51788 1.29469,-0.77682 l -24.59927,-22.52775 q -2.33045,0.77682 -4.79038,1.2947 -2.45993,0.51788 -4.53145,1.81258 z m -85.709033,62.6634 q -1.294699,0.77682 -3.625156,-0.51788 -5.178794,-3.62515 -9.580768,-8.1566 -4.401973,-4.53144 -8.027128,-9.71024 Q 16.058307,181.51673 9.7142843,167.14557 3.3702619,152.77442 1.1692745,137.10857 -1.0317128,121.44272 0.91033485,105.6474 2.8523825,89.85208 8.290116,75.86933 15.281488,58.00249 26.545366,43.63134 37.809239,29.26019 54.38138,18.9026 68.364123,10.61653 83.900504,5.95562 99.436886,1.2947 115.75009,2.1111106e-8 112.64281,0.25894002 108.88818,1.94205 q -3.75462,1.68311 -6.8619,2.71887 -2.589394,1.2947 -5.567201,2.33046 -2.977806,1.03575 -5.308263,2.58939 1.553638,0.51788 4.143035,-0.25894 2.589397,-0.77682 4.401975,-1.2947 2.589394,-0.51788 5.049324,-0.90629 2.45993,-0.3884 4.79038,-0.64734 2.33046,-0.25894 4.66092,-0.12947 2.33046,0.12947 4.66091,-0.12947 3.8841,0 7.89766,0.64735 4.01357,0.64734 8.1566,1.16522 4.91986,0.51788 9.83971,2.33046 4.91986,1.81258 9.32183,3.8841 4.40198,2.07151 8.41554,4.53144 4.01357,2.45993 7.89766,5.30826 1.2947,0.51788 2.33046,1.2947 1.03576,0.77682 2.07152,1.2947 1.03575,0.77682 1.94204,1.55364 0.90629,0.77682 2.20099,1.55364 l 3.62516,3.62515 1.42416,1.42417 q 0,0 1.94205,1.16523 -3.62515,-1.2947 -6.99137,-3.10728 -3.36622,-1.81257 -6.99137,-3.10727 -2.84834,-1.2947 -5.30826,-1.55364 -2.45993,-0.25894 -5.56721,-0.77682 -7.50925,-1.2947 -14.88903,-4.14303 -7.37978,-2.84834 -15.66585,-3.8841 -4.14304,-0.51788 -7.76819,-0.25894 -3.62516,0.25894 -7.50925,1.55364 -3.36622,1.03576 -6.60297,1.03576 -3.23674,0 -6.60296,0.51788 -11.652283,2.33045 -22.91616,7.76819 -11.263876,5.43773 -17.996308,15.53638 -5.178794,7.50925 -9.06289,14.75956 -3.884095,7.25031 -5.178793,16.57214 -2.848337,17.34896 2.330457,33.9211 0.517879,1.03576 0.647349,2.07152 0.12947,1.03576 0.647349,2.07152 -0.517879,-11.13441 1.812578,-20.71518 0,11.91123 3.366216,23.43404 3.366216,11.52282 9.839708,21.36253 h 0.25894 q 3.625156,4.14303 8.027131,7.50925 4.401974,3.36621 8.28607,6.99137 l -4.919855,-1.55364 q 1.294699,1.03576 4.401975,2.33046 3.107277,1.81258 5.308264,4.53144 2.200987,2.71887 3.754625,6.34403 3.366216,6.99137 2.330458,14.75956 -1.035759,7.76819 -4.919854,14.50062 -2.848337,8.54501 -10.357588,14.24168 -1.812578,1.2947 -4.143035,2.33046 -2.330457,1.03576 -4.401975,1.03576 l -0.517879,0.25894 q -4.919854,1.55364 -10.098648,1.2947 -5.178794,-0.25894 -10.098648,-2.5894 z M 64.480028,167.0161 q 5.955613,2.33046 8.803949,2.5894 2.589397,0.25894 2.330457,-1.81258 -0.258939,-2.07151 -6.732432,-8.80395 -2.589397,-2.58939 -5.955612,-5.43773 -3.366216,-2.84834 -7.768191,-8.93342 -4.401975,-6.08508 -9.969178,-16.83108 -5.567204,-10.746 -12.040696,-28.87177 3.366216,22.00987 8.41554,35.21579 5.049324,13.20593 9.839708,20.32677 4.790385,7.12084 8.54501,9.58077 3.754626,2.45993 4.531445,2.9778 z"
     id="path26"
     inkscape:label="shuji"
     style="stroke-width:0.25894" />
</svg>
