<?xml version="1.0" encoding="UTF-8" standalone="no"?>
<svg
   xmlns:dc="http://purl.org/dc/elements/1.1/"
   xmlns:cc="http://creativecommons.org/ns#"
   xmlns:rdf="http://www.w3.org/1999/02/22-rdf-syntax-ns#"
   xmlns:svg="http://www.w3.org/2000/svg"
   xmlns="http://www.w3.org/2000/svg"
   xmlns:sodipodi="http://sodipodi.sourceforge.net/DTD/sodipodi-0.dtd"
   xmlns:inkscape="http://www.inkscape.org/namespaces/inkscape"
   width="210mm"
   height="297mm"
   viewBox="0 0 210 297"
   version="1.1"
   id="svg1507"
   inkscape:version="1.0.2-2 (e86c870879, 2021-01-15)"
   sodipodi:docname="gravity-shift.svg">
  <defs
     id="defs1501" />
  <sodipodi:namedview
     id="base"
     pagecolor="#ffffff"
     bordercolor="#666666"
     borderopacity="1.0"
     inkscape:pageopacity="0.0"
     inkscape:pageshadow="2"
     inkscape:zoom="0.35"
     inkscape:cx="400"
     inkscape:cy="560"
     inkscape:document-units="mm"
     inkscape:current-layer="layer1"
     inkscape:document-rotation="0"
     showgrid="false"
     inkscape:pagecheckerboard="true"
     showborder="false"
     inkscape:window-width="1267"
     inkscape:window-height="1198"
     inkscape:window-x="130"
     inkscape:window-y="130"
     inkscape:window-maximized="0" />
  <metadata
     id="metadata1504">
    <rdf:RDF>
      <cc:Work
         rdf:about="">
        <dc:format>image/svg+xml</dc:format>
        <dc:type
           rdf:resource="http://purl.org/dc/dcmitype/StillImage" />
        <dc:title></dc:title>
      </cc:Work>
    </rdf:RDF>
  </metadata>
  <g
     inkscape:label="Layer 1"
     inkscape:groupmode="layer"
     id="layer1">
    <path
       d="m 128.15367,239.09724 q 2.15125,0 2.15125,2.30492 0,2.30493 -2.15125,2.30493 -2.15126,0 -2.15126,-2.30493 0,-2.30492 2.15126,-2.30492 z m -0.30732,-6.76111 q 1.84392,0 2.91955,0.76831 1.07564,0.76831 1.07564,1.84394 0,1.07563 -1.07564,1.69027 -1.07563,0.61465 -2.76589,0.61465 -1.69028,0 -2.76591,-0.61465 -1.07563,-0.61464 -1.07563,-1.84393 0,-0.61465 0.46098,-1.22929 0.46099,-0.61465 1.38296,-0.92197 0.92197,-0.30733 1.84394,-0.30733 z m 9.527,-29.19567 q 3.9952,2.15126 3.9952,5.22449 0,2.45858 -3.07323,4.30252 0.30732,0.61465 0.30732,1.2293 0,1.5366 -2.15126,3.07322 -2.15126,1.53662 -5.22449,2.15126 3.9952,1.2293 3.9952,4.30252 0,1.84394 -1.84394,3.07323 v 0.61465 q 0,1.5366 -1.53661,2.7659 -1.53662,1.22929 -3.84153,1.22929 -2.30493,0 -3.99521,-1.22929 -1.69027,-1.2293 -1.69027,-2.7659 0,-0.92197 0.61464,-1.84394 -0.61464,-0.92197 -0.61464,-1.84394 0,-3.07322 3.68788,-4.30252 -1.84394,-0.30732 -3.38056,-0.76831 -1.53662,-0.46098 -2.61224,-1.07563 -1.07563,-0.61464 -1.69028,-1.53661 -0.61464,-0.92197 -0.61464,-1.84393 0,-0.61465 0.30732,-1.2293 -3.07323,-1.84394 -3.07323,-4.30252 0,-3.07323 3.68788,-5.22449 4.60984,0.61465 9.21969,0.61465 4.91716,0 9.527,-0.61465 z M 156.7347,93.118854 q 27.96638,2.151257 50.55461,8.451376 22.58824,6.30012 35.64947,15.51981 Q 256,126.30973 256,136.7587 q 0,10.44898 -13.06122,19.66867 -13.06123,9.21969 -35.95679,15.51981 -22.89556,6.30012 -51.16926,8.45138 0.61464,1.53662 0.61464,2.7659 0,5.83915 -7.37575,10.44899 v 0.61464 q 0,2.76591 -6.30012,4.7635 -6.30012,1.99761 -15.21248,1.99761 -8.91236,0 -15.36615,-1.99761 -6.45378,-1.99759 -6.45378,-4.7635 0,-0.61464 0.61465,-1.53661 -6.14646,-3.9952 -6.14646,-9.52702 0,-1.22928 0.61464,-2.7659 Q 72.22089,178.2473 49.325332,171.94718 26.429773,165.64706 13.214886,156.42737 0,147.20768 0,136.7587 0,123.23649 22.127252,111.86555 44.254503,100.4946 78.981994,95.270111 q -0.307322,1.229287 -1.843937,3.073225 -1.536615,1.843934 -1.843938,2.765904 0,2.76591 3.073229,9.83434 -21.512605,4.60984 -34.420169,11.98559 -12.907562,7.37575 -12.907562,16.28812 0,8.91236 12.907562,16.44177 12.907564,7.52942 34.727493,11.83193 -12.907564,-6.45378 -12.907564,-14.13685 0,-3.68787 2.765907,-7.22209 2.765906,-3.53421 8.297719,-6.45378 5.531813,-2.91957 12.60024,-4.7635 2.765906,4.91716 4.302521,6.14646 12.907565,3.38054 36.264105,1.84394 9.21969,-3.38056 16.59544,-12.29293 19.66867,2.45859 32.11524,8.60505 12.44658,6.14645 12.44658,14.13685 0,7.37575 -11.98559,13.52222 20.89796,-4.30253 33.34454,-11.67828 12.44657,-7.37575 12.44657,-15.98079 0,-7.06843 -8.7587,-13.36855 -8.7587,-6.30012 -23.66387,-10.90997 -14.90516,-4.60984 -33.95917,-7.06842 1.84393,-3.68787 0.61463,-8.297714 -1.5366,-5.224494 -2.45857,-6.453782 z m -28.58103,93.733486 q -6.45379,0 -10.90997,0.92197 -4.45618,0.92197 -4.45618,2.15127 0,0.92196 2.15126,1.5366 2.15126,0.61465 5.68548,1.07563 3.53421,0.46099 7.52941,0.46099 6.45378,0 10.90995,-0.92197 4.45618,-0.92197 4.45618,-2.15125 0,-1.2293 -4.45618,-2.15127 -4.45617,-0.92197 -10.90995,-0.92197 z m 40.25929,-17.82473 q 3.38056,-2.45859 3.38056,-4.91716 0,-5.22449 -12.60025,-9.06603 -12.60023,-3.84153 -30.42497,-3.84153 -11.67826,0 -21.66626,1.69026 -9.987992,1.69028 -15.673467,4.60985 -5.685474,2.91957 -5.685474,6.60745 0,2.76591 3.995199,5.22448 18.132052,2.76591 38.108052,2.76591 21.5126,0 40.56661,-3.07323 z M 80.825932,100.4946 89.738298,87.89436 94.348142,84.513807 Q 110.94358,76.216088 119.2413,74.37215 q 3.68787,-0.921968 9.83433,-1.075629 6.14646,-0.153662 10.44898,-0.153662 h 4.60984 q 3.38056,1.843938 3.68788,3.380553 0.92197,2.458582 2.45859,9.373349 1.5366,6.914762 2.7659,12.753906 l 1.22929,5.839133 -2.45859,8.60504 q -5.53181,7.06843 -7.68307,12.29292 -1.53661,4.30251 -5.83913,7.99039 -4.30252,3.68787 -7.06843,4.30252 -5.53181,1.22929 -12.29291,1.38295 -6.76111,0.15367 -10.44898,-0.30732 -3.68788,-0.46098 -11.370952,-1.38295 -9.219688,-13.82953 -11.985594,-19.97599 -0.921969,-2.45859 -1.9976,-6.60744 -1.075631,-4.14886 -1.690276,-7.22209 z M 189.61825,84.513807 q -8.29772,3.687876 -19.97599,2.15126 -0.92197,0.307324 -1.69028,-0.460984 -0.76831,-0.768307 -1.53661,-2.458583 -0.76831,-1.690275 -1.53662,-3.687875 -0.7683,-1.997599 -1.38295,-4.763506 4.60984,-15.67347 12.90756,-16.288115 9.83434,-6.453782 16.59544,1.843938 3.9952,3.380551 3.68788,14.136855 z M 149.05162,62.386556 q -4.60985,0.614646 -8.91236,-2.458583 l -1.84394,-5.531813 q 1.84394,-4.302521 3.38055,-5.22449 0.92197,-0.307323 2.30492,-0.307323 1.38295,0 2.30492,0.307323 h 0.92197 l 7.06843,1.843937 q 1.84394,4.609844 0,6.14646 v 2.765906 z m -92.196877,-12.60024 -1.843938,-3.380553 2.765907,-6.761104 5.839136,-4.609844 q 7.068427,1.229291 12.60024,5.22449 l 2.15126,2.151261 -1.843937,5.22449 q -0.614646,4.30252 -6.146458,6.761104 L 64.537817,51.937576 Z M 107.87035,39.951982 Q 100.80192,38.108044 94.348142,31.34694 l -3.687876,-6.761105 -4.917167,-6.453781 0.921968,-5.839136 V 7.6830742 L 97.114048,0 109.09964,1.2292925 q 4.60985,-0.61464624 9.37335,3.5342134 4.76351,4.1488597 6.30012,11.8319331 1.84394,0.921968 2.61225,2.765906 0.76831,1.843938 0.61465,3.226891 -0.15366,1.382953 -0.30733,4.609844 -0.15366,3.226891 -0.46098,5.378151 -9.83434,9.527012 -19.36135,7.375751 z m 85.43577,-3.073229 -1.84394,-1.843938 -1.84393,-2.765906 q 3.9952,-4.917167 8.29771,-4.609845 l 3.07324,0.307323 q 2.45858,0.614646 3.38055,2.458584 -0.61464,3.380553 -3.9952,4.609844 -3.68787,0 -7.06843,1.843938 z"
       id="path128"
       style="display:inline;stroke-width:0.307323"
       inkscape:label="Grav Shift" />
  </g>
</svg>
