<?xml version="1.0" encoding="UTF-8" standalone="no"?>
<svg
   xmlns:dc="http://purl.org/dc/elements/1.1/"
   xmlns:cc="http://creativecommons.org/ns#"
   xmlns:rdf="http://www.w3.org/1999/02/22-rdf-syntax-ns#"
   xmlns:svg="http://www.w3.org/2000/svg"
   xmlns="http://www.w3.org/2000/svg"
   xmlns:sodipodi="http://sodipodi.sourceforge.net/DTD/sodipodi-0.dtd"
   xmlns:inkscape="http://www.inkscape.org/namespaces/inkscape"
   width="210mm"
   height="297mm"
   viewBox="0 0 210 297"
   version="1.1"
   id="svg2096"
   inkscape:version="1.0.2-2 (e86c870879, 2021-01-15)"
   sodipodi:docname="gravity-well.svg">
  <defs
     id="defs2090" />
  <sodipodi:namedview
     id="base"
     pagecolor="#ffffff"
     bordercolor="#666666"
     borderopacity="1.0"
     inkscape:pageopacity="0.0"
     inkscape:pageshadow="2"
     inkscape:zoom="0.35"
     inkscape:cx="400"
     inkscape:cy="560"
     inkscape:document-units="mm"
     inkscape:current-layer="layer1"
     inkscape:document-rotation="0"
     showgrid="false"
     inkscape:pagecheckerboard="true"
     showborder="false"
     inkscape:window-width="1718"
     inkscape:window-height="1368"
     inkscape:window-x="-7"
     inkscape:window-y="0"
     inkscape:window-maximized="0" />
  <metadata
     id="metadata2093">
    <rdf:RDF>
      <cc:Work
         rdf:about="">
        <dc:format>image/svg+xml</dc:format>
        <dc:type
           rdf:resource="http://purl.org/dc/dcmitype/StillImage" />
        <dc:title></dc:title>
      </cc:Work>
    </rdf:RDF>
  </metadata>
  <g
     inkscape:label="Layer 1"
     inkscape:groupmode="layer"
     id="layer1">
    <path
       d="m 128.30843,147.43133 q 0.9253,0 1.54217,0.77108 0.61687,0.77108 0.61687,1.54216 0,0.77109 -0.61687,1.54218 -0.61687,0.77108 -1.54217,0.77108 -0.9253,0 -1.54216,-0.77108 -0.61687,-0.77109 -0.61687,-1.54218 0,-0.77108 0.61687,-1.54216 0.61686,-0.77108 1.54216,-0.77108 z m -0.15422,-6.78555 q 1.69639,0 2.77591,0.77108 1.07951,0.77109 1.07951,1.8506 0,1.07952 -1.07951,1.85061 -1.07952,0.77108 -2.77591,0.77108 -1.69638,0 -2.7759,-0.77108 -1.07951,-0.77109 -1.07951,-1.85061 0,-1.07951 1.07951,-1.8506 1.07952,-0.77108 2.7759,-0.77108 z m 9.40723,-28.99277 q 4.00965,1.8506 4.00965,4.93495 0,2.46746 -3.08435,4.6265 v 0.9253 q 0,1.23373 -0.9253,2.31325 -0.9253,1.07952 -2.62169,1.8506 -1.69637,0.77109 -3.54697,1.07952 3.7012,1.23374 3.7012,4.31807 0,1.85061 -1.54217,3.08434 v 0.61687 q 0,0.9253 -0.77109,2.00482 -0.77109,1.07951 -2.00482,1.54217 -1.23373,0.46264 -2.7759,0.46264 -2.46747,0 -4.00963,-1.23373 -1.54218,-1.23373 -1.54218,-2.7759 0,-0.9253 0.61687,-1.8506 -0.61687,-0.9253 -0.61687,-1.85061 0,-3.08433 3.70121,-4.31807 -3.70121,-0.30843 -6.01447,-1.8506 -2.31324,-1.54216 -2.31324,-3.39277 0,-0.61687 0.30843,-0.9253 -3.08433,-2.15904 -3.08433,-4.6265 0,-2.7759 3.7012,-4.93495 4.6265,0.30844 9.25301,0.30844 4.93494,0 9.56144,-0.30844 z M 100.85783,88.520483 Q 72.173495,86.361447 49.195181,80.192772 26.216868,74.024097 13.108433,64.771085 0,55.518073 0,44.722891 0,35.778314 10.178313,27.450602 20.356626,19.122891 37.474699,13.108433 54.592772,7.0939753 78.342169,3.5469877 102.09157,0 128,0 q 17.58072,0 34.08193,1.5421679 16.5012,1.5421692 30.53494,4.4722889 14.03373,2.930121 25.90844,7.0939762 11.87469,4.163856 20.2024,9.098795 8.32771,4.934941 12.8,10.795182 Q 256,38.862651 256,44.722891 q 0,10.486748 -12.95422,19.893977 -12.95421,9.407229 -35.77832,15.575904 -22.82408,6.168675 -51.19999,8.327711 0.30843,1.542169 0.30843,3.084338 0,5.860241 -7.09397,10.178319 v 0.9253 q 0,2.7759 -6.3229,4.62651 -6.32289,1.8506 -15.42169,1.8506 -9.09878,0 -15.42167,-1.8506 -6.3229,-1.85061 -6.3229,-4.62651 0,-0.9253 0.61687,-1.54217 -6.16867,-4.318076 -6.16867,-9.561449 0,-1.542169 0.61686,-3.084338 z m 27.4506,6.785542 q -4.31806,0 -7.71084,0.308434 -3.39277,0.308434 -5.5518,1.079518 -2.15904,0.771085 -2.15904,1.387951 0,1.233736 4.47228,2.159042 4.47229,0.9253 10.79518,0.9253 6.3229,0 10.9494,-0.9253 4.62651,-0.925306 4.62651,-2.159042 0,-1.233734 -4.62651,-2.004818 -4.6265,-0.771085 -10.79518,-0.771085 z m 40.40482,-17.889157 q 3.39277,-2.467469 3.39277,-5.243373 0,-3.392772 -5.86024,-6.322893 -5.86024,-2.930119 -15.73012,-4.626505 -9.86987,-1.696386 -21.59036,-1.696386 -17.88915,0 -30.534937,3.701205 -12.645784,3.701205 -12.645784,8.944579 0,2.775904 4.009639,5.551807 18.197592,2.46747 38.245782,2.46747 21.28193,0 40.71325,-2.775904 z m 10.79518,-2.159036 q 10.17831,-2.159036 18.66025,-5.089157 8.48192,-2.930121 14.49638,-6.477108 6.01446,-3.546988 9.25301,-7.710844 3.23856,-4.163855 3.23856,-8.481928 0,-8.944578 -12.95422,-16.501205 -12.95422,-7.556626 -35.31566,-12.028916 -22.36146,-4.472289 -48.73254,-4.472289 -26.37108,0 -48.732522,4.472289 -22.361446,4.47229 -35.315663,12.028916 -12.954218,7.556627 -12.954218,16.501205 0,8.944579 12.8,16.346989 12.8,7.40241 34.698797,11.720481 Q 66.00482,69.397591 66.00482,61.378314 q 0,-6.168675 8.327711,-11.720482 8.327711,-5.551807 22.824097,-8.636146 14.496382,-3.084337 31.460242,-3.084337 16.96385,0 31.46023,3.084337 14.49639,3.084339 22.97832,8.636146 8.48192,5.551807 8.48192,11.720482 0,7.710843 -12.02891,13.879518 z"
       id="path126"
       style="display:inline;stroke-width:0.308433"
       inkscape:label="Grav Well" />
  </g>
</svg>
