<svg version="2.0" xmlns="http://www.w3.org/2000/svg" viewbox="0 0 256 256">
<g>
	<path d="M-129.4,456.5c-10.8-5.2-13.8-6.5-20.8-12.4c-4.7,3-15.9,10.3-15.9,10.3s7.8-12.5,10.4-16.5c-7.1-8.9-10.2-12.8-12.7-20.6
		l-20.6-20.6l20.6-20.6c5.4-11.7,5.4-11.7,12.7-20.6l-10.3-15.8c5.3,3.4,10.5,6.9,15.8,10.3c13.5-9.5,13.9-8.8,26.6-15l14.9-18.4
		c0,0,12.9,15.5,17,20c10.9,3.9,10.9,3.9,23.5,13c4.5-2.8,16.2-9.9,16.2-9.9s-7.7,11.8-10.5,16c8.4,11.3,8.8,12.2,13.3,24.6
		c1.3,1.3,13.6,10.8,20.2,16.3c-8.1,6.7-11.3,8.9-18.2,14.6l-15.1,26.6c3.2,5.5,7.1,10.3,10.3,15.8c-5.5-3.4-10.3-6.8-15.8-10.3
		c-7.1,7.2-11,9-20.6,12.7c-5,5.4-20.6,21.4-20.6,21.4L-129.4,456.5z M-127.3,398.1c-7.9-11.1-15.1-22.2-23-33.3
		c-17.4,20.6-15.1,49.9,0,66.5C-143.2,420.3-135.2,409.2-127.3,398.1z M-143.2,357.7c11.1,7.1,22.2,15.1,33.3,22.2
		c11.1-7.9,22.2-15.1,33.3-22.2C-95.6,341.1-124.2,341.1-143.2,357.7z M-143.2,438.5c6.3,4.8,12.7,8.7,20.6,10.3
		c10.3,2.4,19.8,2.4,29.3-0.8c6.3-2.4,11.9-5.5,16.6-9.5c-11.1-7.9-22.2-15.1-33.3-22.2C-121,423.4-132.1,431.4-143.2,438.5z
		 M-91.7,398.1c7.9,11.1,15.1,22.2,23,33.3c15.1-18.2,16.6-47.5,0-66.5C-76.6,375.9-83.8,387-91.7,398.1z"/>
</g>
</svg>
