<?xml version="1.0" encoding="UTF-8" standalone="no"?>
<svg
   xmlns:dc="http://purl.org/dc/elements/1.1/"
   xmlns:cc="http://creativecommons.org/ns#"
   xmlns:rdf="http://www.w3.org/1999/02/22-rdf-syntax-ns#"
   xmlns:svg="http://www.w3.org/2000/svg"
   xmlns="http://www.w3.org/2000/svg"
   xmlns:sodipodi="http://sodipodi.sourceforge.net/DTD/sodipodi-0.dtd"
   xmlns:inkscape="http://www.inkscape.org/namespaces/inkscape"
   version="2.0"
   viewbox="0 0 256 256"
   id="svg3"
   sodipodi:docname="anti-squadron.svg"
   inkscape:version="1.0.2-2 (e86c870879, 2021-01-15)">
  <metadata
     id="metadata9">
    <rdf:RDF>
      <cc:Work
         rdf:about="">
        <dc:format>image/svg+xml</dc:format>
        <dc:type
           rdf:resource="http://purl.org/dc/dcmitype/StillImage" />
        <dc:title />
      </cc:Work>
    </rdf:RDF>
  </metadata>
  <defs
     id="defs7" />
  <sodipodi:namedview
     pagecolor="#ffffff"
     bordercolor="#666666"
     borderopacity="1"
     objecttolerance="10"
     gridtolerance="10"
     guidetolerance="10"
     inkscape:pageopacity="0"
     inkscape:pageshadow="2"
     inkscape:window-width="2046"
     inkscape:window-height="2054"
     id="namedview5"
     showgrid="false"
     inkscape:pagecheckerboard="true"
     showborder="false"
     inkscape:zoom="4.69"
     inkscape:cx="124.41365"
     inkscape:cy="100.58635"
     inkscape:window-x="-10"
     inkscape:window-y="0"
     inkscape:window-maximized="0"
     inkscape:current-layer="svg3"
     inkscape:document-rotation="0" />
  <path
     id="XMLID_19_"
     d="m 255.99948,126.02379 c 0,5.05991 -35.57744,6.32488 -38.73988,18.81652 -3.16244,12.01727 26.40637,29.25256 24.19266,34.47058 -1.73934,3.32056 -34.15435,-5.85051 -45.53913,6.64112 -10.27793,11.38479 -2.21371,37.00055 -5.37615,39.5305 -3.79492,3.00432 -26.09012,-15.8122 -41.42796,-9.80356 -14.86346,5.69239 -18.81651,33.52186 -22.45332,33.52186 -6.16675,0 -5.53427,-30.83379 -22.13707,-34.62872 -13.914737,-3.16244 -33.36374,23.08581 -37.31679,21.34647 -4.585537,-2.05559 2.795999,-25.60369 -4.477612,-37.9372 C 52.604422,180.90419 13.440368,188.48197 12.175392,184.68704 11.068538,180.73399 40.79547,156.85758 36.842421,143.57533 32.731249,130.13496 0,128.39562 0,124.28445 0,118.9083 27.236917,119.59156 36.497492,110.4535 39.270628,107.71705 42.512515,102.17477 40.784433,99.580226 29.337566,82.393918 0.48428744,54.84393 7.1011471,48.304392 13.770954,42.54256 43.763933,83.139153 55.18457,73.052931 64.830011,63.249368 18.658393,25.458216 24.192663,20.24019 29.56881,15.180286 69.889914,52.022708 79.219111,44.590975 88.589063,35.99729 64.633404,21.236849 68.977038,15.007823 74.827551,9.1573089 100.24933,36.526754 108.31355,32.415583 121.12143,26.723191 123.65139,5.7658529e-4 128.23692,5.7658529e-4 130.76688,-0.15754539 139.93795,32.257461 154.48517,34.62929 c 13.59849,2.37183 29.09445,-22.611443 33.67998,-20.555857 5.21803,2.055586 -1.73934,37.158665 11.70103,45.855374 11.70103,7.589854 34.78683,-8.064221 36.84242,-4.585538 2.37183,3.478684 -25.932,26.880736 -21.18834,44.116032 4.58553,16.919049 40.63734,21.188349 40.47922,26.564489 z M 209.03725,74.63415 c -2.84619,-2.846195 -17.07717,-3.953049 -19.60712,-6.957367 -6.2362,-5.321049 -6.04222,-23.718296 -11.57649,-26.564492 -4.33156,-2.379 -7.95175,7.177757 -23.86697,5.577295 -10.01188,0.337757 -18.04743,-15.237078 -27.48909,-14.432125 -5.29443,1.082249 -11.60575,5.148507 -8.30591,12.390517 1.72121,3.777458 7.70662,6.24756 14.01718,12.067831 13.59849,12.333515 32.18291,21.784978 27.50642,29.415589 C 152.13476,95.43917 129.83829,74.176373 121.75392,67.518661 111.71449,59.740683 94.686302,42.055317 88.073941,52.97144 c -3.004317,6.008635 2.37183,12.333514 4.74366,15.179709 7.431729,9.329197 55.864979,48.035501 70.254079,61.317741 11.06854,10.27793 19.82035,20.8268 13.39962,28.70648 -7.9061,6.00863 -23.22959,-7.46531 -27.81512,-10.94399 C 143.59627,143.27833 101.32612,104.09053 81.044866,87.5092 74.166147,81.885374 66.899939,76.620297 63.579377,80.573346 52.633105,91.663397 133.27042,150.15419 119.67193,163.12018 104.63826,179.2822 79.293451,121.9462 53.052374,115.10394 c -4.345904,-0.10303 -10.833806,4.12061 -13.047514,8.54802 -2.529951,5.21803 8.222343,8.22235 9.645441,21.03023 1.106854,9.96168 -13.174321,25.64444 -10.486247,30.07185 2.688073,4.2693 22.263884,3.18395 28.588763,7.76949 12.649758,9.48731 8.069122,23.74471 12.812781,25.64218 5.376147,2.05558 13.16488,-11.26253 27.273592,-7.35023 11.38478,2.8462 15.02159,17.07717 20.23961,17.07717 4.11117,0 10.7523,-14.86346 23.87642,-18.50027 11.5429,-3.16244 23.08581,7.11549 27.51322,4.58554 6.00864,-3.32056 3.95305,-19.76525 12.1754,-28.93632 6.64112,-7.43173 18.20064,-3.30622 21.19778,-8.34461 2.34314,-6.34411 -9.813,-21.38232 -6.49244,-30.39527 3.00432,-7.9061 14.54722,-7.11549 15.65408,-12.17539 1.10685,-4.58554 -17.2353,-12.33351 -19.44901,-25.615761 -1.58122,-10.594172 9.48732,-20.713979 6.483,-23.876419 z"
     sodipodi:nodetypes="ccccccscccccsasccccccccccccccccccsccccccccsccccsccccscccccccc"
     style="stroke-width:1.58122" />
</svg>
