<?xml version="1.0" encoding="UTF-8" standalone="no"?>
<svg
   xmlns:dc="http://purl.org/dc/elements/1.1/"
   xmlns:cc="http://creativecommons.org/ns#"
   xmlns:rdf="http://www.w3.org/1999/02/22-rdf-syntax-ns#"
   xmlns:svg="http://www.w3.org/2000/svg"
   xmlns="http://www.w3.org/2000/svg"
   xmlns:sodipodi="http://sodipodi.sourceforge.net/DTD/sodipodi-0.dtd"
   xmlns:inkscape="http://www.inkscape.org/namespaces/inkscape"
   version="2.0"
   viewbox="0 0 256 256"
   id="svg7"
   sodipodi:docname="anti-ship.svg"
   inkscape:version="1.0.2-2 (e86c870879, 2021-01-15)">
  <metadata
     id="metadata13">
    <rdf:RDF>
      <cc:Work
         rdf:about="">
        <dc:format>image/svg+xml</dc:format>
        <dc:type
           rdf:resource="http://purl.org/dc/dcmitype/StillImage" />
        <dc:title />
      </cc:Work>
    </rdf:RDF>
  </metadata>
  <defs
     id="defs11" />
  <sodipodi:namedview
     pagecolor="#ffffff"
     bordercolor="#666666"
     borderopacity="1"
     objecttolerance="10"
     gridtolerance="10"
     guidetolerance="10"
     inkscape:pageopacity="0"
     inkscape:pageshadow="2"
     inkscape:window-width="2046"
     inkscape:window-height="2054"
     id="namedview9"
     showgrid="false"
     inkscape:pagecheckerboard="true"
     showborder="false"
     inkscape:zoom="4.69"
     inkscape:cx="124.41365"
     inkscape:cy="134.70149"
     inkscape:window-x="-10"
     inkscape:window-y="0"
     inkscape:window-maximized="0"
     inkscape:current-layer="svg7"
     inkscape:document-rotation="0" />
  <g
     id="XMLID_1_"
     transform="matrix(1.7726784,0,0,1.7726784,308.46441,-575.75135)">
    <path
       id="XMLID_3_"
       d="m -144.6,399.7 c -3.1,8.7 -12.1,16.7 -13.8,16.5 -4.7,-0.6 4.6,-16.5 -1.9,-33.6 -5.1,-13.3 -15.3,-17 -13.5,-21.6 2.9,-7.4 28.6,4.6 45.9,-8.2 13.5,-10 11.8,-27.6 19.3,-28 8.4,-0.5 9,21.9 26.2,30.9 16.5,8.6 34.7,-2.3 37.9,3.8 3.2,6.3 -17.2,15.5 -18.4,32.8 -1.3,19.5 23,31.7 18.8,39.9 -4.2,8.1 -27.8,-4.8 -45,7.6 -14.1,10.1 -13.6,29.8 -20.2,29.4 -6.7,-0.3 -7.1,-18.6 -20.8,-29.5 -5.9,-4.7 -16.8,-4.4 -16.9,-6.6 1.43388,-3.4403 13.33605,-8.9178 16.1,-8.2 4.24056,2.43775 5.8,10.1 8.5,10.7 2.2,0.5 7.7,-7 14,-7.6 6.2,-0.5 9.3,5.3 12.8,3.6 3.3,-1.5 -0.162248,-9.90281 5.7,-13.5 5.321686,-4.5 15.108431,3.08815 17.808431,-0.61185 2.9,-3.9 -7.808431,-12.78815 -7.608431,-22.38815 0.2,-12.3 12.2,-18.9 9.7,-22.9 -2.3,-3.7 -13.883935,-0.58815 -22.283935,-5.58815 -8.099995,-4.9 -8.563655,-13.83494 -13.563655,-14.33494 -5,-0.5 -3.29297,10.85944 -12.35241,15.12309 -7.3,2.1 -12.9,-3.3 -15.9,-0.2 -3.1,3.1 1.8,9.8 -1.7,13.9 -2.6,3 -8.30422,1.14056 -10.20281,4.38112 C -148.42169,389.70281 -142.4,393.5 -144.6,399.7 Z"
       sodipodi:nodetypes="cccccccccccccccccccccccsccccc" />
    <path
       id="XMLID_2_"
       d="M -111.58675,382.14618 C -105.02169,376.49859 -93.3,373.8 -89.8,378 c 3.5,4.1 3.066464,14.99859 -9.227307,22.40422 -23.124563,14.2809 -31.122113,16.88076 -58.393583,32.8251 -0.9,0.6 -11.63855,7.97349 -13.17911,5.97068 -1.07972,-2.6245 6.63716,-10.09518 8.31968,-11.2763 22.06071,-20.77879 25.41528,-25.23653 50.69357,-45.77752 z"
       sodipodi:nodetypes="ccccccc" />
  </g>
  <path
     d="M-262.7,683.8"
     id="path5" />
</svg>
