<?xml version="1.0" encoding="UTF-8" standalone="no"?>
<svg
   xmlns:dc="http://purl.org/dc/elements/1.1/"
   xmlns:cc="http://creativecommons.org/ns#"
   xmlns:rdf="http://www.w3.org/1999/02/22-rdf-syntax-ns#"
   xmlns:svg="http://www.w3.org/2000/svg"
   xmlns="http://www.w3.org/2000/svg"
   xmlns:sodipodi="http://sodipodi.sourceforge.net/DTD/sodipodi-0.dtd"
   xmlns:inkscape="http://www.inkscape.org/namespaces/inkscape"
   version="2.0"
   viewbox="0 0 256 256"
   id="svg7"
   sodipodi:docname="anti-ship.svg"
   inkscape:version="1.0.2-2 (e86c870879, 2021-01-15)">
  <metadata
     id="metadata13">
    <rdf:RDF>
      <cc:Work
         rdf:about="">
        <dc:format>image/svg+xml</dc:format>
        <dc:type
           rdf:resource="http://purl.org/dc/dcmitype/StillImage" />
        <dc:title />
      </cc:Work>
    </rdf:RDF>
  </metadata>
  <defs
     id="defs11" />
  <sodipodi:namedview
     pagecolor="#ffffff"
     bordercolor="#666666"
     borderopacity="1"
     objecttolerance="10"
     gridtolerance="10"
     guidetolerance="10"
     inkscape:pageopacity="0"
     inkscape:pageshadow="2"
     inkscape:window-width="1718"
     inkscape:window-height="1368"
     id="namedview9"
     showgrid="false"
     inkscape:pagecheckerboard="true"
     showborder="false"
     inkscape:zoom="0.58625"
     inkscape:cx="348.07307"
     inkscape:cy="612.382"
     inkscape:window-x="-7"
     inkscape:window-y="0"
     inkscape:window-maximized="0"
     inkscape:current-layer="g849"
     inkscape:document-rotation="0" />
  <g
     id="g849">
    <g
       id="g834">
      <path
         id="XMLID_2_"
         d="m 110.65699,101.67093 c 11.63774,-10.011358 32.41653,-14.79509 38.6209,-7.349841 6.20438,7.267981 5.43586,26.587681 -16.35704,39.715481 C 91.928429,159.35201 77.751345,163.96072 29.4078,192.22492 27.81239,193.28852 8.7763943,206.35935 6.0454769,202.80901 4.1314806,198.15662 17.811027,184.91351 20.793594,182.81976 59.900137,145.98564 65.846711,138.0835 110.65699,101.67093 Z"
         sodipodi:nodetypes="ccccccc"
         style="display:inline;stroke-width:1.77268" />
      <path
         id="XMLID_3_"
         d="m 52.135115,132.78821 c -5.495303,15.4223 -21.449409,29.60373 -24.462962,29.24919 -8.331588,-1.0636 8.15432,-29.24919 -3.368089,-59.56199 C 15.263404,78.898788 -2.817915,72.339878 0.37290604,64.185557 5.5136734,51.067737 51.071507,72.339878 81.738843,49.649594 105.67,31.922811 102.65645,0.72367047 115.95154,0.01459912 130.84203,-0.87174007 131.90565,38.836256 162.39571,54.790362 c 29.24921,15.245034 61.51195,-4.077161 67.18452,6.736177 5.67257,11.167874 -30.49007,27.476515 -32.61728,58.143851 -2.30448,34.56723 40.7716,56.1939 33.32635,70.72987 -7.44525,14.3587 -49.28046,-8.50885 -79.77053,13.47236 -24.99477,17.90405 -24.10843,52.82582 -35.80811,52.11674 -11.87694,-0.5318 -12.58602,-32.97181 -36.871709,-52.29401 -10.458802,-8.33159 -29.780997,-7.79978 -29.958265,-11.69967 2.541808,-6.09855 23.640528,-15.8084 28.540122,-14.53597 7.517149,4.32135 10.281535,17.90405 15.067766,18.96766 3.899893,0.88634 13.649626,-12.40875 24.817496,-13.47235 10.99061,-0.88634 16.48592,9.39519 22.69029,6.38164 5.84984,-2.65902 -0.28761,-17.55451 10.10427,-23.93117 9.43363,-7.97705 26.78239,5.4743 31.56862,-1.08461 5.14077,-6.91345 -13.84184,-22.66928 -13.4873,-39.68699 0.35453,-21.80394 21.62668,-33.503622 17.19498,-40.594335 -4.07716,-6.55891 -24.61175,-1.042601 -39.50225,-9.905993 C 130.51599,65.447438 129.69407,49.608663 120.83067,48.722324 111.96728,47.835985 114.9933,67.972618 98.933824,75.530699 85.993272,79.253323 76.066273,69.68086 70.748237,75.176163 c -5.495302,5.495303 3.190822,17.372248 -3.013553,24.640229 -4.608964,5.318038 -14.720711,2.021848 -18.0863,7.766318 -4.287897,7.4837 6.386623,14.21489 2.486731,25.2055 z"
         sodipodi:nodetypes="cccccccccccccccccccccccsccccc"
         style="display:inline;stroke-width:1.77268" />
    </g>
  </g>
</svg>
