<?xml version="1.0" encoding="UTF-8" standalone="no"?>
<svg
   xmlns:dc="http://purl.org/dc/elements/1.1/"
   xmlns:cc="http://creativecommons.org/ns#"
   xmlns:rdf="http://www.w3.org/1999/02/22-rdf-syntax-ns#"
   xmlns:svg="http://www.w3.org/2000/svg"
   xmlns="http://www.w3.org/2000/svg"
   xmlns:sodipodi="http://sodipodi.sourceforge.net/DTD/sodipodi-0.dtd"
   xmlns:inkscape="http://www.inkscape.org/namespaces/inkscape"
   version="2.0"
   viewbox="0 0 256 256"
   id="svg3"
   sodipodi:docname="anti-squadron.svg"
   inkscape:version="1.0.2-2 (e86c870879, 2021-01-15)">
  <metadata
     id="metadata9">
    <rdf:RDF>
      <cc:Work
         rdf:about="">
        <dc:format>image/svg+xml</dc:format>
        <dc:type
           rdf:resource="http://purl.org/dc/dcmitype/StillImage" />
        <dc:title></dc:title>
      </cc:Work>
    </rdf:RDF>
  </metadata>
  <defs
     id="defs7" />
  <sodipodi:namedview
     pagecolor="#ffffff"
     bordercolor="#666666"
     borderopacity="1"
     objecttolerance="10"
     gridtolerance="10"
     guidetolerance="10"
     inkscape:pageopacity="0"
     inkscape:pageshadow="2"
     inkscape:window-width="2604"
     inkscape:window-height="2054"
     id="namedview5"
     showgrid="false"
     inkscape:pagecheckerboard="true"
     showborder="false"
     inkscape:zoom="4.69"
     inkscape:cx="124.41365"
     inkscape:cy="100.58635"
     inkscape:window-x="-10"
     inkscape:window-y="0"
     inkscape:window-maximized="0"
     inkscape:current-layer="svg3" />
  <path
     id="XMLID_19_"
     d="m 161.9,79.700365 c 0,3.2 -22.5,4 -24.5,11.9 -2,7.6 16.7,18.499995 15.3,21.799995 -1.1,2.1 -21.6,-3.7 -28.8,4.2 -6.5,7.2 -1.4,23.4 -3.4,25 -2.4,1.9 -16.5,-10 -26.2,-6.2 -9.4,3.6 -11.9,21.2 -14.2,21.2 -3.9,0 -3.5,-19.5 -14,-21.9 -8.8,-2 -21.1,14.6 -23.6,13.5 -2.9,-1.3 4.6,-13.9 0,-21.7 -6.4,-10.8 -34,-8.3 -34.8,-10.7 -0.7,-2.5 18.1,-17.599995 15.6,-25.999995 -2.6,-8.5 -23.3,-9.6 -23.3,-12.2 0,-3.4 23.7,-1.1 24.7,-10.5 0.9,-9 -22.7,-35.5 -19.4,-38.9 2.6,-2.7 24.4,22.3 29.6,17 6.1,-6.2 -23.1,-30.1 -19.6,-33.4 3.4,-3.2000004 28.9,20.1 34.8,15.4 6.6,-5.3 -13,-14.5 -8.5,-17.9 3.7,-3.7000004 21.8,12.8 26.9,10.2 8.1,-3.6 9.7,-20.5000003541 12.6,-20.5000003541 C 82.7,-0.09963535 88.5,20.400365 97.7,21.900365 c 8.6,1.5 18.4,-14.3000004 21.3,-13.0000004 3.3,1.3000004 -1.1,23.5000004 7.4,29.0000004 7.4,4.8 22,-5.1 23.3,-2.9 1.5,2.2 -16.4,17 -13.4,27.9 2.9,10.7 25.7,13.4 25.6,16.8 z m -29.7,-32.5 c -1.8,-1.8 -10.8,-2.5 -12.4,-4.4 -3,-3.5 -4.9,-15 -8.4,-16.8 -2.2,-1.1 -8.4,4 -18.6,1.1 -3.5,-1 -10.2,-6.4 -12.8,-6.7 -5.3,-0.6 -8.3,5 -3.4,9.4 8.6,7.8 27.5,15.8 26.7,21.3 -0.3,2.5 -1.2,4.7 -4.2,4.4 -3.5,-0.3 -7.3,-0.5 -22.1,-12.8 -6.484016,-3.705368 -16.443965,-16.777834 -21.3,-9.2 -1.9,3.8 1.5,7.8 3,9.6 4.7,5.9 35.6,29.3 44.7,37.7 7,6.5 12.4,18.7 7.8,22.199995 -5,3.8 -15.5,-5.799995 -18.4,-7.999995 -3.2,-2.5 -24.673664,-27.013587 -37.5,-37.5 -4.350261,-3.556638 -13.8,-8.1 -15.9,-5.6 -4.9,5.8 43.4,43.6 34.8,51.799995 -11.8,11.3 -22.3,-25.499995 -39.3,-27.399995 -1.4,-0.2 -8.2,-0.9 -9.6,1.9 -1.6,3.3 5.2,5.2 6.1,13.3 0.7,6.3 -5.5,14.599995 -3.8,17.399995 1.7,2.7 9.9,0.8 13.9,3.7 8,6 7.8,16.5 10.8,17.7 3.4,1.3 9,-5.1 15.9,-3.3 7.2,1.8 9.5,10.8 12.8,10.8 2.6,0 6.8,-9.4 15.1,-11.7 7.3,-2 14.6,4.5 17.4,2.9 3.8,-2.1 2.5,-12.5 7.7,-18.3 4.2,-4.7 7.6,-2.9 9.9,-7.3 3.1,-5.899995 -2.7,-11.499995 -0.6,-17.199995 1.9,-5 9.2,-4.5 9.9,-7.7 0.7,-2.9 -10.9,-7.8 -12.3,-16.2 -1,-6.7 6,-13.1 4.1,-15.1 z"
     sodipodi:nodetypes="ccccccscccccsccccccccccccccccccccccccccccsccccsccccscccccccc" />
</svg>
