<?xml version="1.0" encoding="UTF-8" standalone="no"?>
<svg
   xmlns:dc="http://purl.org/dc/elements/1.1/"
   xmlns:cc="http://creativecommons.org/ns#"
   xmlns:rdf="http://www.w3.org/1999/02/22-rdf-syntax-ns#"
   xmlns:svg="http://www.w3.org/2000/svg"
   xmlns="http://www.w3.org/2000/svg"
   xmlns:sodipodi="http://sodipodi.sourceforge.net/DTD/sodipodi-0.dtd"
   xmlns:inkscape="http://www.inkscape.org/namespaces/inkscape"
   version="2.0"
   viewbox="0 0 256 256"
   id="svg10"
   sodipodi:docname="hull.svg"
   inkscape:version="1.0.2-2 (e86c870879, 2021-01-15)">
  <metadata
     id="metadata16">
    <rdf:RDF>
      <cc:Work
         rdf:about="">
        <dc:format>image/svg+xml</dc:format>
        <dc:type
           rdf:resource="http://purl.org/dc/dcmitype/StillImage" />
        <dc:title />
      </cc:Work>
    </rdf:RDF>
  </metadata>
  <defs
     id="defs14" />
  <sodipodi:namedview
     pagecolor="#ffffff"
     bordercolor="#666666"
     borderopacity="1"
     objecttolerance="10"
     gridtolerance="10"
     guidetolerance="10"
     inkscape:pageopacity="0"
     inkscape:pageshadow="2"
     inkscape:window-width="1718"
     inkscape:window-height="1368"
     id="namedview12"
     showgrid="false"
     inkscape:pagecheckerboard="true"
     showborder="false"
     inkscape:zoom="3.4733333"
     inkscape:cx="90.614301"
     inkscape:cy="114.95673"
     inkscape:window-x="0"
     inkscape:window-y="0"
     inkscape:window-maximized="0"
     inkscape:current-layer="svg10"
     inkscape:document-rotation="0" />
  <g
     id="XMLID_1_"
     transform="matrix(1.6003309,0,0,1.6003309,289.58182,-507.32339)">
    <path
       id="XMLID_96_"
       d="m -47.9,345.8 c 0.4,8.1 3.1,15.6 5.9,23.1 6.7,18.3 6.2,36.5 -0.3,54.5 -3.1,8.6 -5.1,16.9 -4.7,26.2 0.4,8.9 -1.9,16.7 -9.4,22.6 -5.8,4.4 -13.6,6.9 -19.2,2.4 -8.2,-6.4 -17.2,-5.4 -26.2,-5.6 -6.4,-0.3 -13,0.3 -19.5,0.1 -7.3,-0.1 -13.7,0.8 -20.2,5.1 -9.3,6.3 -25.4,-1.7 -28.5,-13.2 -0.574,-18.32315 -6.10014,-36.58273 -9.6,-51.8 -3.1,-13.6 -0.4,-26.5 3.4,-39.6 2.6,-8.9 4.3,-18.3 4.4,-27.4 0.4,-20.7 17.2,-31.3 35.3,-21.5 10.43317,4.64494 42.588369,5.13051 55.7,-0.7 17.3,-8.3 35.7,4.2 33.3,21.6 0.1,1.4 -0.4,2.9 -0.4,4.2 -0.6,0.1 0.4,-0.1 0,0 z m -124.4,48.6 c 0.3,3.8 0.1,7.7 0.8,11.4 0.7,3.9 1.7,7.9 2.8,11.7 10.9,39.1 52.7,55.9 88.5,39.1 27.4,-12.8 37.3,-42.9 34.1,-70 -2.7,-22.6 -14.4,-39.8 -34.3,-49.8 -43.4,-22 -91.9,8.9 -91.9,57.6 z m 20.5,67.5 c 0,-2.4 -3.2,-4.7 -5.4,-4.7 -2.2,0 -5.4,2.7 -5.4,5 0,3.2 3.2,5.6 5.6,5.6 2,0 5.2,-3 5.2,-5.9 z M -152.7,330 c 0,-3.5 -2.4,-5.1 -5.2,-5.1 -1.9,0 -5,3 -5,5.2 0,2.6 2.3,5.2 4.7,5.4 1.9,0 5.5,-2.2 5.5,-5.5 z m 97.8,0.5 c 0.09734,-3.35029 -2.677609,-4.87877 -4.9,-4.9 -1.5,0 -4.3,1.3 -4.3,4.6 0,2.3 2.6,4.6 4.4,4.6 2.1,-0.3 4.8,-2.6 4.8,-4.3 z M -55.2,462 c 0,-2.8 -2.1,-4.6 -4.3,-4.6 -2.4,0 -4,2.4 -4,4.4 0,2.3 2.4,4.8 4,4.8 2.3,0 4.3,-1.5 4.3,-4.6 z"
       sodipodi:nodetypes="cccccccccccccccccccccccccsssssssscsccsccsssss" />
    <path
       id="XMLID_86_"
       d="m -50.7,395 c 2,32.2 -26.7,61.3 -56.3,61.4 -33.3,0.3 -58.6,-24.7 -58.8,-58.3 -0.4,-33.6 24.9,-61.3 56.3,-61.4 32.3,0 58.8,27.4 58.8,58.3 z m -107.5,0.1 c -0.3,30.4 21.2,53.7 49.6,54.1 27.1,0.3 51.3,-23.6 51.3,-52 0,-30.2 -25.4,-52.8 -48.2,-53.3 -30.4,-0.8 -52.5,21.1 -52.7,51.2 z" />
    <path
       id="XMLID_78_"
       d="M -134.84114,423.15886 C -136.67821,421.11432 -134.4,416.3 -132.6,414.4 c 13.84759,-13.85011 35.024249,-35.81451 47.1,-47.4 1.5,-0.4 3.8,-0.4 4.8,0.5 1.1,0.9 1.5,3.2 1.2,4.7 -14.982298,16.63766 -33.01451,36.03721 -46.5,49.9 -2.93645,2.57086 -7.00406,3.1034 -8.84114,1.05886 z"
       sodipodi:nodetypes="zcccccz" />
    <path
       id="XMLID_77_"
       d="m -116.6172,430.09379 c -1.93287,-1.54243 -1.48759,-5.87943 0.51241,-7.97943 11.01095,-11.7598 24.299454,-26.2746 34.20479,-35.81436 2.8,-2.3 6.3,-5.2 9.1,-1.5 1.2,1.6 0,6.6 -1.7,8.5 -12.066595,13.10787 -22.292133,23.85444 -34.15071,35.49569 -1.93823,1.34396 -6.03362,2.84053 -7.96649,1.2981 z"
       sodipodi:nodetypes="zcccccz" />
    <path
       id="XMLID_76_"
       d="m -97.9,368.8 c -11.80366,11.40149 -27.67893,28.22902 -38.6,39.1 -1.14591,0.99967 -4.67734,1.32702 -6.6,-0.4 -1.92266,-1.72702 -1.45409,-4.21803 -0.4,-5.9 13.19545,-13.5567 26.41969,-27.63507 37.6,-39 2.44491,-2.19049 5.49385,-3.168 7.771456,-1.20985 2.277608,1.95815 2.5143,4.9433 0.228544,7.40985 z"
       sodipodi:nodetypes="cczcczc" />
    <path
       id="XMLID_75_"
       d="m -71.511493,406.87367 c 1.784296,1.66754 1.02346,5.00479 -1.488507,8.42633 -5.6,6.3 -11.4,12.6 -17.6,18.3 -1.7,1.5 -5.42557,1.68496 -6.690427,0.41483 C -98.555283,432.74471 -98.9,428.9 -97.4,427.1 c 6.2,-7 11.720569,-12.44066 18.420569,-18.94066 2.091263,-2.05765 5.683642,-2.9532 7.467938,-1.28567 z"
       sodipodi:nodetypes="zcczccz" />
    <path
       id="XMLID_74_"
       d="m -144.92588,385.97312 c -1.79463,-1.60796 -1.54757,-3.90885 0.85243,-6.80885 6.7,-7.9 12.57345,-14.06427 19.87345,-21.66427 0.8,-0.8 3.68639,-1.01361 5.20885,0.25442 1.52245,1.26803 2.04524,4.13607 1.04557,5.32722 -6.49318,7.63235 -12.9322,14.78959 -18.65442,20.61836 -3.01736,2.70852 -6.53125,3.88108 -8.32588,2.27312 z"
       sodipodi:nodetypes="zcczccz" />
  </g>
</svg>
