<?xml version="1.0" encoding="UTF-8" standalone="no"?>
<svg
   xmlns:dc="http://purl.org/dc/elements/1.1/"
   xmlns:cc="http://creativecommons.org/ns#"
   xmlns:rdf="http://www.w3.org/1999/02/22-rdf-syntax-ns#"
   xmlns:svg="http://www.w3.org/2000/svg"
   xmlns="http://www.w3.org/2000/svg"
   xmlns:sodipodi="http://sodipodi.sourceforge.net/DTD/sodipodi-0.dtd"
   xmlns:inkscape="http://www.inkscape.org/namespaces/inkscape"
   version="2.0"
   viewbox="0 0 256 256"
   id="svg10"
   sodipodi:docname="hull.svg"
   inkscape:version="1.0.2-2 (e86c870879, 2021-01-15)">
  <metadata
     id="metadata16">
    <rdf:RDF>
      <cc:Work
         rdf:about="">
        <dc:format>image/svg+xml</dc:format>
        <dc:type
           rdf:resource="http://purl.org/dc/dcmitype/StillImage" />
        <dc:title></dc:title>
      </cc:Work>
    </rdf:RDF>
  </metadata>
  <defs
     id="defs14" />
  <sodipodi:namedview
     pagecolor="#ffffff"
     bordercolor="#666666"
     borderopacity="1"
     objecttolerance="10"
     gridtolerance="10"
     guidetolerance="10"
     inkscape:pageopacity="0"
     inkscape:pageshadow="2"
     inkscape:window-width="1718"
     inkscape:window-height="1368"
     id="namedview12"
     showgrid="false"
     inkscape:pagecheckerboard="true"
     showborder="false"
     inkscape:zoom="3.4733333"
     inkscape:cx="150"
     inkscape:cy="75"
     inkscape:window-x="-7"
     inkscape:window-y="0"
     inkscape:window-maximized="0"
     inkscape:current-layer="svg10" />
  <g
     id="XMLID_1_"
     transform="translate(180.95122,-317.01156)">
    <path
       id="XMLID_96_"
       d="m -47.9,345.8 c 0.4,8.1 3.1,15.6 5.9,23.1 6.7,18.3 6.2,36.5 -0.3,54.5 -3.1,8.6 -5.1,16.9 -4.7,26.2 0.4,8.9 -1.9,16.7 -9.4,22.6 -5.8,4.4 -13.6,6.9 -19.2,2.4 -8.2,-6.4 -17.2,-5.4 -26.2,-5.6 -6.4,-0.3 -13,0.3 -19.5,0.1 -7.3,-0.1 -13.7,0.8 -20.2,5.1 -9.3,6.3 -25.4,-1.7 -28.5,-13.2 -0.1,-0.4 -0.3,-0.9 -0.3,-1.3 0.1,-17.5 -5.5,-33.7 -9.3,-50.5 -3.1,-13.6 -0.4,-26.5 3.4,-39.6 2.6,-8.9 4.3,-18.3 4.4,-27.4 0.4,-20.7 17.2,-31.3 35.3,-21.5 0.5,0.3 1.2,0.8 1.7,0.9 18.1,2.7 37.5,6.2 54,-1.6 17.3,-8.3 35.7,4.2 33.3,21.6 0.1,1.4 -0.4,2.9 -0.4,4.2 -0.6,0.1 0.4,-0.1 0,0 z m -124.4,48.6 c 0.3,3.8 0.1,7.7 0.8,11.4 0.7,3.9 1.7,7.9 2.8,11.7 10.9,39.1 52.7,55.9 88.5,39.1 27.4,-12.8 37.3,-42.9 34.1,-70 -2.7,-22.6 -14.4,-39.8 -34.3,-49.8 -43.4,-22 -91.9,8.9 -91.9,57.6 z m 20.5,67.5 c 0,-2.4 -3.2,-4.7 -5.4,-4.7 -2.2,0 -5.4,2.7 -5.4,5 0,3.2 3.2,5.6 5.6,5.6 2,0 5.2,-3 5.2,-5.9 z M -152.7,330 c 0,-3.5 -2.4,-5.1 -5.2,-5.1 -1.9,0 -5,3 -5,5.2 0,2.6 2.3,5.2 4.7,5.4 1.9,0 5.5,-2.2 5.5,-5.5 z m 97.8,0.5 c 0,-0.8 -0.1,-2.1 -0.5,-2.8 -1.1,-1.5 -1.9,-2.1 -4.4,-2.1 -1.5,0 -4.3,1.3 -4.3,4.6 0,2.3 2.6,4.6 4.4,4.6 2.1,-0.3 4.8,-2.6 4.8,-4.3 z M -55.2,462 c 0,-2.8 -2.1,-4.6 -4.3,-4.6 -2.4,0 -4,2.4 -4,4.4 0,2.3 2.4,4.8 4,4.8 2.3,0 4.3,-1.5 4.3,-4.6 z" />
    <path
       id="XMLID_86_"
       d="m -50.7,395 c 2,32.2 -26.7,61.3 -56.3,61.4 -33.3,0.3 -58.6,-24.7 -58.8,-58.3 -0.4,-33.6 24.9,-61.3 56.3,-61.4 32.3,0 58.8,27.4 58.8,58.3 z m -107.5,0.1 c -0.3,30.4 21.2,53.7 49.6,54.1 27.1,0.3 51.3,-23.6 51.3,-52 0,-30.2 -25.4,-52.8 -48.2,-53.3 -30.4,-0.8 -52.5,21.1 -52.7,51.2 z" />
    <path
       id="XMLID_78_"
       d="m -133.6,425.3 c -1.7,-0.5 -3.8,-2.4 -3.4,-4.3 0.4,-2.4 2.6,-4.7 4.4,-6.6 14.5,-14.9 29,-29.8 43.5,-44.6 1.1,-1.1 2.3,-2.4 3.6,-2.8 1.5,-0.4 3.8,-0.4 4.8,0.5 1.1,0.9 1.5,3.2 1.2,4.7 -0.3,1.6 -1.6,3.2 -2.8,4.4 -14.5,15.2 -29,30.4 -43.7,45.5 -1.9,2 -7.1,3.5 -7.6,3.2 z" />
    <path
       id="XMLID_77_"
       d="m -117.6,433 c -2.8,-0.4 -3.8,-3.2 -3.2,-5.2 0.7,-2.6 3.1,-4.8 5.1,-6.9 10.2,-10.6 20.6,-21.2 30.8,-31.8 0.9,-0.9 1.9,-2 3,-2.8 2.8,-2.3 6.3,-5.2 9.1,-1.5 1.2,1.6 0,6.6 -1.7,8.5 -7.7,8.5 -15.9,16.4 -23.9,24.6 -3.9,4 -7.5,8.2 -11.6,12.2 -1.9,1.7 -6.6,3 -7.6,2.9 z" />
    <path
       id="XMLID_76_"
       d="m -95.8,363.4 c 0.1,2.8 -0.9,4.2 -2.1,5.4 -11.8,12.2 -23.6,24.5 -35.5,36.5 -0.9,0.9 -1.9,2.3 -3.1,2.6 -2.1,0.3 -5,0.7 -6.6,-0.4 -1.1,-0.7 -0.5,-3.9 -0.4,-5.9 0.1,-0.9 1.1,-1.9 1.9,-2.7 11.8,-12.1 23.8,-24.2 35.7,-36.3 1.3,-1.3 3.5,-3 5.1,-2.8 2.2,0.1 4.9,1.9 5,3.6 z" />
    <path
       id="XMLID_75_"
       d="m -69.6,409.1 c -0.5,2.3 -1.9,4.6 -3.4,6.2 -5.6,6.3 -11.4,12.6 -17.6,18.3 -1.7,1.5 -6.7,1.3 -7.5,0.1 -1.1,-1.7 -0.8,-4.8 0.7,-6.6 6.2,-7 12.8,-13.7 19.5,-20.2 1.2,-1.1 3.6,-1.5 5.4,-1.3 1.2,0.3 3.1,2 2.9,3.5 z" />
    <path
       id="XMLID_74_"
       d="m -142,386.8 c -4.8,-0.7 -6,-3.4 -3.6,-6.3 6.7,-7.9 14.1,-15.4 21.4,-23 0.8,-0.8 3.9,-0.8 4.7,0 1.1,1.1 1.6,3.5 1.3,5.2 -0.3,1.9 -1.6,3.6 -3,5.1 -5,5.4 -10.2,10.6 -15.4,15.9 -1.3,1.5 -5,3.1 -5.4,3.1 z" />
  </g>
</svg>
