<?xml version="1.0" encoding="UTF-8" standalone="no"?>
<svg
   xmlns:dc="http://purl.org/dc/elements/1.1/"
   xmlns:cc="http://creativecommons.org/ns#"
   xmlns:rdf="http://www.w3.org/1999/02/22-rdf-syntax-ns#"
   xmlns:svg="http://www.w3.org/2000/svg"
   xmlns="http://www.w3.org/2000/svg"
   xmlns:sodipodi="http://sodipodi.sourceforge.net/DTD/sodipodi-0.dtd"
   xmlns:inkscape="http://www.inkscape.org/namespaces/inkscape"
   version="2.0"
   viewbox="0 0 256 256"
   id="svg10"
   sodipodi:docname="hull.svg"
   inkscape:version="1.0.2-2 (e86c870879, 2021-01-15)">
  <metadata
     id="metadata16">
    <rdf:RDF>
      <cc:Work
         rdf:about="">
        <dc:format>image/svg+xml</dc:format>
        <dc:type
           rdf:resource="http://purl.org/dc/dcmitype/StillImage" />
        <dc:title />
      </cc:Work>
    </rdf:RDF>
  </metadata>
  <defs
     id="defs14" />
  <sodipodi:namedview
     pagecolor="#ffffff"
     bordercolor="#666666"
     borderopacity="1"
     objecttolerance="10"
     gridtolerance="10"
     guidetolerance="10"
     inkscape:pageopacity="0"
     inkscape:pageshadow="2"
     inkscape:window-width="1718"
     inkscape:window-height="1368"
     id="namedview12"
     showgrid="false"
     inkscape:pagecheckerboard="true"
     showborder="false"
     inkscape:zoom="3.4733333"
     inkscape:cx="90.614301"
     inkscape:cy="114.95673"
     inkscape:window-x="0"
     inkscape:window-y="0"
     inkscape:window-maximized="0"
     inkscape:current-layer="svg10"
     inkscape:document-rotation="0" />
  <g
     id="g851">
    <path
       id="XMLID_96_"
       d="m 212.92597,46.071035 c 0.64013,12.962681 4.96103,24.965162 9.44195,36.967644 10.72222,29.286051 9.92205,58.412081 -0.4801,87.218031 -4.96102,13.76285 -8.16168,27.0456 -7.52155,41.92867 0.64013,14.24295 -3.04063,26.72553 -15.04311,36.16748 -9.28192,7.04146 -21.7645,11.04228 -30.72636,3.8408 -13.12271,-10.24212 -27.52569,-8.64179 -41.92867,-8.96186 -10.24211,-0.4801 -20.8043,0.4801 -31.206448,0.16004 C 83.779266,243.2318 73.537148,244.6721 63.134998,251.55352 48.25192,261.63561 22.486593,248.83296 17.525567,230.42915 16.606977,201.10605 7.7633245,171.88468 2.1623904,147.53201 -2.7986354,125.76751 1.522258,105.12325 7.6035154,84.158911 11.764376,69.915966 14.484938,54.872855 14.644971,40.309844 15.285104,7.1829944 42.170663,-9.7805132 71.136652,5.9027296 87.833176,13.336171 139.29214,14.113243 160.27508,4.782498 c 27.68573,-13.2827465 57.13182,6.72139 53.29102,34.567147 0.16004,2.240464 -0.64013,4.64096 -0.64013,6.72139 -0.9602,0.160033 0.64013,-0.160033 0,0 z M 13.844806,123.84712 c 0.480099,6.08125 0.160033,12.32254 1.280265,18.24377 1.120231,6.24129 2.720562,12.64261 4.480926,18.72387 17.443607,62.57294 84.337443,89.4585 141.629283,62.57294 43.84907,-20.48424 59.69234,-68.6542 54.57129,-112.02316 C 211.48567,75.197058 192.7618,47.671366 160.91522,31.668057 91.460855,-3.5392227 13.844806,45.911002 13.844806,123.84712 Z m 32.806783,108.02233 c 0,-3.84079 -5.121059,-7.52155 -8.641786,-7.52155 -3.520728,0 -8.641787,4.32089 -8.641787,8.00165 0,5.12106 5.121059,8.96186 8.961853,8.96186 3.200661,0 8.32172,-4.801 8.32172,-9.44196 z M 45.211292,20.785807 c 0,-5.601158 -3.840795,-8.161688 -8.321721,-8.161688 -3.040629,0 -8.001655,4.800993 -8.001655,8.321721 0,4.16086 3.680761,8.321721 7.521556,8.641787 3.040628,0 8.80182,-3.520728 8.80182,-8.80182 z m 156.512358,0.800165 c 0.15578,-5.361572 -4.28506,-7.807646 -7.84162,-7.841621 -2.40049,0 -6.88142,2.08043 -6.88142,7.361522 0,3.680761 4.16086,7.361522 7.04146,7.361522 3.36069,-0.480099 7.68158,-4.16086 7.68158,-6.881423 z m -0.4801,210.443518 c 0,-4.48093 -3.36069,-7.36153 -6.88142,-7.36153 -3.84079,0 -6.40132,3.8408 -6.40132,7.04146 0,3.68076 3.84079,7.68159 6.40132,7.68159 3.68076,0 6.88142,-2.4005 6.88142,-7.36152 z"
       sodipodi:nodetypes="cccccccccccccccccccccccccsssssssscsccsccsssss"
       style="stroke-width:1.60033" />
    <path
       id="XMLID_86_"
       d="m 208.44504,124.80732 c 3.20067,51.53065 -42.72883,98.10028 -90.09863,98.26031 -53.291015,0.4801 -93.779387,-39.52817 -94.099453,-93.29929 -0.640133,-53.771117 39.848239,-98.100283 90.098633,-98.260316 51.69068,0 94.09945,43.849067 94.09945,93.299296 z m -172.035568,0.16003 c -0.4801,48.65006 33.927015,85.93777 79.376408,86.5779 43.36897,0.4801 82.09698,-37.76781 82.09698,-83.21721 0,-48.32999 -40.64841,-84.497468 -77.13595,-85.297633 C 72.096851,41.750142 36.729538,76.797389 36.409472,124.96735 Z"
       style="stroke-width:1.60033" />
    <path
       id="XMLID_78_"
       d="m 73.791377,169.87081 c -2.93992,-3.27194 0.70597,-10.97645 3.586566,-14.01708 22.160726,-22.16475 56.050387,-57.315062 75.375587,-75.85568 2.40049,-0.640132 6.08126,-0.640132 7.68159,0.800166 1.76036,1.440298 2.40049,5.121059 1.92039,7.521555 -23.97663,26.625759 -52.83414,57.671459 -74.415383,79.856509 -4.699292,4.11423 -11.208814,4.96647 -14.14875,1.69453 z"
       sodipodi:nodetypes="zcccccz"
       style="stroke-width:1.60033" />
    <path
       id="XMLID_77_"
       d="m 102.95571,180.96899 c -3.09323,-2.4684 -2.38063,-9.40903 0.82003,-12.76973 17.62116,-18.81957 38.88716,-42.04805 54.73898,-57.31482 4.48093,-3.68076 10.08208,-8.32172 14.56301,-2.4005 1.9204,2.56053 0,10.56218 -2.72056,13.60281 -19.31055,20.97693 -35.67479,38.175 -54.65244,56.80485 -3.10181,2.15078 -9.65579,4.54579 -12.74902,2.07739 z"
       sodipodi:nodetypes="zcccccz"
       style="stroke-width:1.60033" />
    <path
       id="XMLID_76_"
       d="M 132.90942,82.878646 C 114.01966,101.1248 88.613978,128.05442 71.136652,145.45158 c -1.833835,1.59981 -7.485292,2.12368 -10.562184,-0.64013 -3.076892,-2.7638 -2.327025,-6.75024 -0.640132,-9.44195 21.117086,-21.69521 42.280244,-44.225257 60.172444,-62.412906 3.91266,-3.505508 8.79198,-5.069848 12.4369,-1.93616 3.64493,3.133688 4.02371,7.910916 0.36574,11.858212 z"
       sodipodi:nodetypes="cczcczc"
       style="stroke-width:1.60033" />
    <path
       id="XMLID_75_"
       d="m 175.13977,143.80912 c 2.85546,2.66861 1.63787,8.00932 -2.38211,13.48491 -8.96185,10.08209 -18.24377,20.16417 -28.16582,29.28606 -2.72056,2.40049 -8.68271,2.69649 -10.7069,0.66386 -2.02418,-2.03261 -2.57585,-8.18542 -0.17535,-11.06601 9.92205,-11.20232 18.75679,-19.90918 29.47901,-30.31133 3.34671,-3.29292 9.0957,-4.72609 11.95117,-2.05749 z"
       sodipodi:nodetypes="zcczccz"
       style="stroke-width:1.60033" />
    <path
       id="XMLID_74_"
       d="m 57.652456,110.36132 c -2.872002,-2.57327 -2.476624,-6.25545 1.36417,-10.896413 10.722217,-12.642614 20.121681,-22.507485 31.804096,-34.67 1.280265,-1.280265 5.899444,-1.622112 8.335884,0.407156 2.436424,2.029268 3.273064,6.619081 1.673254,8.525315 -10.391233,12.214285 -20.695795,23.668238 -29.853241,32.996202 -4.828774,4.33452 -10.452161,6.21101 -13.324163,3.63774 z"
       sodipodi:nodetypes="zcczccz"
       style="stroke-width:1.60033" />
  </g>
</svg>
