<?xml version="1.0" encoding="UTF-8" standalone="no"?>
<svg
   xmlns:dc="http://purl.org/dc/elements/1.1/"
   xmlns:cc="http://creativecommons.org/ns#"
   xmlns:rdf="http://www.w3.org/1999/02/22-rdf-syntax-ns#"
   xmlns:svg="http://www.w3.org/2000/svg"
   xmlns="http://www.w3.org/2000/svg"
   xmlns:sodipodi="http://sodipodi.sourceforge.net/DTD/sodipodi-0.dtd"
   xmlns:inkscape="http://www.inkscape.org/namespaces/inkscape"
   version="2.0"
   viewbox="0 0 256 256"
   id="svg21"
   sodipodi:docname="speed.svg"
   inkscape:version="1.0.2-2 (e86c870879, 2021-01-15)">
  <metadata
     id="metadata27">
    <rdf:RDF>
      <cc:Work
         rdf:about="">
        <dc:format>image/svg+xml</dc:format>
        <dc:type
           rdf:resource="http://purl.org/dc/dcmitype/StillImage" />
        <dc:title />
      </cc:Work>
    </rdf:RDF>
  </metadata>
  <defs
     id="defs25" />
  <sodipodi:namedview
     pagecolor="#ffffff"
     bordercolor="#666666"
     borderopacity="1"
     objecttolerance="10"
     gridtolerance="10"
     guidetolerance="10"
     inkscape:pageopacity="0"
     inkscape:pageshadow="2"
     inkscape:window-width="2046"
     inkscape:window-height="2054"
     id="namedview23"
     showgrid="false"
     inkscape:pagecheckerboard="true"
     showborder="false"
     inkscape:zoom="3.3163308"
     inkscape:cx="59.969699"
     inkscape:cy="86.341234"
     inkscape:window-x="-10"
     inkscape:window-y="0"
     inkscape:window-maximized="0"
     inkscape:current-layer="svg21"
     inkscape:document-rotation="0"
     showguides="true"
     inkscape:guide-bbox="true">
    <sodipodi:guide
       position="50.432243,80.910089"
       orientation="0.4539905,-0.89100652"
       id="guide841"
       inkscape:label=""
       inkscape:locked="false"
       inkscape:color="rgb(0,0,255)" />
    <sodipodi:guide
       position="-63.926071,-106.6089"
       orientation="0.89100652,0.4539905"
       id="guide843"
       inkscape:label=""
       inkscape:locked="false"
       inkscape:color="rgb(0,0,255)" />
    <sodipodi:guide
       position="264.75043,-49.618204"
       orientation="0.81915204,0.57357644"
       id="guide845"
       inkscape:label=""
       inkscape:locked="false"
       inkscape:color="rgb(0,0,255)" />
  </sodipodi:namedview>
  <style
     type="text/css"
     id="style2">
	.st0{fill:none;stroke:#03AF00;stroke-width:64;stroke-miterlimit:10;}
	.st1{fill:none;stroke:#000000;stroke-miterlimit:10;}
</style>
  <path
     class="st0"
     d="M-212.2,436.3"
     id="path4" />
  <path
     class="st0"
     d="M-84,368.7"
     id="path6" />
  <g
     id="XMLID_1_"
     transform="matrix(1.6128388,0,0,1.6128388,303.85882,-534.73661)">
    <path
       id="XMLID_2_"
       d="m -39.3,345.5 c 10.7,3 10.7,3 8.4,14.3 -4.6,23.2 -6.5,30 -11.8,56.2 -0.8,4 -1.4,4.7 -3.2,5.1 -1.4,0.3 -2.9,-1.8 -4.6,-4.1 -3.937038,-4.6077 -6.853783,-12.08609 -12.5,-13.6 -3.6,-1 -6.225908,0.68324 -9.525908,2.18324 -5.524048,2.81465 -7.767689,3.93647 -12.817625,-3.56147 -7.9,-11.6 -16.799997,-25.6 -27.599997,-42 -3.95052,-6.15191 -1.67597,-7.28949 3.1425,-9.74462 5.83341,-2.97227 5.85807,-2.98484 2.40103,-10.47715 -1.4,-3.3 -3.3,-5.3 -2.3,-6.9 1,-1.6 4.2,-1.5 6.9,-1.1 z"
       sodipodi:nodetypes="cccccccccccscc" />
    <path
       id="XMLID_5_"
       d="m -164.1,385.1 c -2.21273,-6.0287 -2.10282,-6.0847 6.96866,-10.70685 8.20653,-4.18143 10.151,-5.62364 12.751,-0.12364 17.5,36.5 21,43.3 24.2,49.5 2.30437,4.53837 1.35538,5.40427 -7.55545,9.94457 -8.24917,4.20316 -10.91247,5.33198 -14.13546,0.30273 z"
       sodipodi:nodetypes="ccccccc" />
    <path
       id="XMLID_6_"
       d="m -185.8,401.4 c 0.2305,-5.9305 0.40902,-13.13687 1.47119,-13.11862 0.78138,0.0134 3.82541,9.94907 4.52541,12.34907 L -166.4,444.5 c 2.58957,7.59503 2.69641,7.54059 -3.34278,10.61772 -2.4,1.3 -6.48061,3.37394 -8.78061,4.47394 -9.97094,5.08045 -9.99568,5.09305 -9.87661,-5.79166 z"
       sodipodi:nodetypes="cscccccc" />
    <path
       id="XMLID_3_"
       d="m -91.216246,409.18475 c 2.505069,4.64463 1.628021,5.09218 -4.500379,8.21475 -5.692025,2.90024 -7.327165,3.73338 -10.883375,-2.2995 -10.2,-18.7 -16.2,-30.6 -26.4,-49.3 -1.52303,-2.92636 -0.36004,-3.51894 3.37559,-5.42234 3.84857,-1.96095 5.13413,-2.61663 7.60816,1.40709 z"
       sodipodi:nodetypes="ccccccc" />
  </g>
  <path
     class="st1"
     d="M-193.8,393.6"
     id="path13" />
  <path
     class="st1"
     d="M-106,341.4"
     id="path15" />
  <path
     class="st1"
     d="M-161.2,452.4"
     id="path17" />
  <path
     class="st1"
     d="M-73.4,400.2"
     id="path19" />
</svg>
