<?xml version="1.0" encoding="UTF-8" standalone="no"?>
<svg
   xmlns:dc="http://purl.org/dc/elements/1.1/"
   xmlns:cc="http://creativecommons.org/ns#"
   xmlns:rdf="http://www.w3.org/1999/02/22-rdf-syntax-ns#"
   xmlns:svg="http://www.w3.org/2000/svg"
   xmlns="http://www.w3.org/2000/svg"
   xmlns:sodipodi="http://sodipodi.sourceforge.net/DTD/sodipodi-0.dtd"
   xmlns:inkscape="http://www.inkscape.org/namespaces/inkscape"
   version="2.0"
   viewbox="0 0 256 256"
   id="svg21"
   sodipodi:docname="speed.svg"
   inkscape:version="1.0.2-2 (e86c870879, 2021-01-15)">
  <metadata
     id="metadata27">
    <rdf:RDF>
      <cc:Work
         rdf:about="">
        <dc:format>image/svg+xml</dc:format>
        <dc:type
           rdf:resource="http://purl.org/dc/dcmitype/StillImage" />
        <dc:title />
      </cc:Work>
    </rdf:RDF>
  </metadata>
  <defs
     id="defs25" />
  <sodipodi:namedview
     pagecolor="#ffffff"
     bordercolor="#666666"
     borderopacity="1"
     objecttolerance="10"
     gridtolerance="10"
     guidetolerance="10"
     inkscape:pageopacity="0"
     inkscape:pageshadow="2"
     inkscape:window-width="2046"
     inkscape:window-height="1401"
     id="namedview23"
     showgrid="false"
     inkscape:pagecheckerboard="true"
     showborder="false"
     inkscape:zoom="3.3163308"
     inkscape:cx="59.969699"
     inkscape:cy="38.095142"
     inkscape:window-x="0"
     inkscape:window-y="0"
     inkscape:window-maximized="0"
     inkscape:current-layer="svg21"
     inkscape:document-rotation="0"
     showguides="true"
     inkscape:guide-bbox="true">
    <sodipodi:guide
       position="50.432243,80.910089"
       orientation="0.4539905,-0.89100652"
       id="guide841"
       inkscape:label=""
       inkscape:locked="false"
       inkscape:color="rgb(0,0,255)" />
    <sodipodi:guide
       position="-63.926071,-106.6089"
       orientation="0.89100652,0.4539905"
       id="guide843"
       inkscape:label=""
       inkscape:locked="false"
       inkscape:color="rgb(0,0,255)" />
    <sodipodi:guide
       position="264.75043,-49.618204"
       orientation="0.81915204,0.57357644"
       id="guide845"
       inkscape:label=""
       inkscape:locked="false"
       inkscape:color="rgb(0,0,255)" />
  </sodipodi:namedview>
  <style
     type="text/css"
     id="style2">
	.st0{fill:none;stroke:#03AF00;stroke-width:64;stroke-miterlimit:10;}
	.st1{fill:none;stroke:#000000;stroke-miterlimit:10;}
</style>
  <g
     id="g864">
    <path
       id="XMLID_2_"
       d="m 240.47426,22.499195 c 17.25737,4.838517 17.25737,4.838517 13.54784,23.063595 -7.41906,37.41786 -10.48345,48.385164 -19.0315,90.64154 -1.29027,6.45136 -2.25797,7.58034 -5.16108,8.22548 -2.25798,0.48385 -4.67723,-2.90311 -7.41906,-6.61264 -6.34981,-7.43148 -11.05405,-19.49292 -20.16048,-21.93461 -5.80622,-1.61284 -10.04139,1.10196 -15.36376,3.52122 -8.9094,4.53957 -12.52803,6.34889 -20.67276,-5.74408 -12.74143,-18.708931 -27.09569,-41.288674 -44.51435,-67.73923 -6.37155,-9.92204 -2.70307,-11.756773 5.06835,-15.716502 9.40835,-4.793792 9.44812,-4.814065 3.87247,-16.897954 -2.25797,-5.3223678 -5.32237,-8.5480454 -3.70953,-11.1285875 1.61284,-2.58054206 6.77393,-2.41925818 11.12859,-1.77412266 z"
       sodipodi:nodetypes="cccccccccccscc"
       style="stroke-width:1.61284" />
    <path
       id="XMLID_5_"
       d="m 39.191973,86.367612 c -3.568777,-9.723321 -3.39151,-9.81364 11.239325,-17.268423 13.23581,-6.743973 16.371927,-9.070025 20.565308,-0.199412 28.224679,58.868613 33.869614,69.835923 39.030694,79.835523 3.71658,7.31966 2.18601,8.71621 -12.185718,16.03899 -13.304582,6.77902 -17.600055,8.59962 -22.798219,0.48825 z"
       sodipodi:nodetypes="ccccccc"
       style="stroke-width:1.61284" />
    <path
       id="XMLID_6_"
       d="m 4.193371,112.65688 c 0.3717593,-9.56494 0.6596833,-21.187649 2.3727923,-21.158215 1.26024,0.02161 6.1697697,16.046245 7.2987567,19.917055 l 21.617524,70.75452 c 4.176559,12.24956 4.348874,12.16175 -5.391366,17.12467 -3.870813,2.09669 -10.452179,5.44162 -14.161708,7.21574 -16.081519,8.19395 -16.12142064,8.21427 -15.92937992,-9.34101 z"
       sodipodi:nodetypes="cscccccc"
       style="stroke-width:1.61284" />
    <path
       id="XMLID_3_"
       d="m 156.74172,125.21243 c 4.04027,7.49104 2.62573,8.21287 -7.25839,13.24907 -9.18032,4.67762 -11.81753,6.02134 -17.55313,-3.70872 -16.45095,-30.16009 -26.12798,-49.352871 -42.57894,-79.512957 -2.456402,-4.719747 -0.580687,-5.675483 5.444282,-8.74536 6.207128,-3.162697 8.280528,-4.220203 12.270738,2.269409 z"
       sodipodi:nodetypes="ccccccc"
       style="stroke-width:1.61284" />
  </g>
</svg>
