<?xml version="1.0" encoding="UTF-8" standalone="no"?>
<svg
   xmlns:dc="http://purl.org/dc/elements/1.1/"
   xmlns:cc="http://creativecommons.org/ns#"
   xmlns:rdf="http://www.w3.org/1999/02/22-rdf-syntax-ns#"
   xmlns:svg="http://www.w3.org/2000/svg"
   xmlns="http://www.w3.org/2000/svg"
   xmlns:sodipodi="http://sodipodi.sourceforge.net/DTD/sodipodi-0.dtd"
   xmlns:inkscape="http://www.inkscape.org/namespaces/inkscape"
   version="2.0"
   viewbox="0 0 256 256"
   id="svg6"
   sodipodi:docname="brace.svg"
   inkscape:version="1.0.2-2 (e86c870879, 2021-01-15)">
  <metadata
     id="metadata12">
    <rdf:RDF>
      <cc:Work
         rdf:about="">
        <dc:format>image/svg+xml</dc:format>
        <dc:type
           rdf:resource="http://purl.org/dc/dcmitype/StillImage" />
        <dc:title />
      </cc:Work>
    </rdf:RDF>
  </metadata>
  <defs
     id="defs10" />
  <sodipodi:namedview
     pagecolor="#ffffff"
     bordercolor="#666666"
     borderopacity="1"
     objecttolerance="10"
     gridtolerance="10"
     guidetolerance="10"
     inkscape:pageopacity="0"
     inkscape:pageshadow="2"
     inkscape:window-width="2604"
     inkscape:window-height="1401"
     id="namedview8"
     showgrid="false"
     inkscape:pagecheckerboard="true"
     showborder="false"
     inkscape:zoom="3.3163308"
     inkscape:cx="-17.956822"
     inkscape:cy="61.319077"
     inkscape:window-x="0"
     inkscape:window-y="0"
     inkscape:window-maximized="0"
     inkscape:current-layer="svg6"
     inkscape:document-rotation="0"
     showguides="true"
     inkscape:guide-bbox="true">
    <sodipodi:guide
       position="82.92297,27.575543"
       orientation="1,0"
       id="guide832" />
  </sodipodi:namedview>
  <path
     d="m 206.08,104.96 c -5.12,-6.4 -6.4,-15.36 -2.56,-24.32 2.56,-10.24 8.96,-21.76 17.92,-34.56 C 230.4,33.28 241.92,17.92 256,0 c -17.92,12.8 -33.28,24.32 -46.08,33.28 -14.08,8.96 -25.6,14.08 -35.84,16.64 -10.24,2.56 -19.2,1.28 -25.6,-5.12 -6.4,-6.4 -12.8,-15.36 -16.64,-30.72 0,7.68 -1.28,14.08 -2.56,19.2 -1.28,5.12 -2.56,10.24 -3.84,12.8 -6.4,-3.84 -12.51925,-5.982608 -19.2,-7.68 C 99.161536,36.601552 91.778512,35.57392 84.48,35.84 73.190896,36.251552 61.65264,37.955664 51.2,42.24 41.235936,46.32408 31.934528,52.545472 24.32,60.16 16.705472,67.774528 10.48408,77.075936 6.4,87.04 2.115664,97.49264 0,108.8 0,120.32 c 0,11.52 2.56,23.04 6.4,33.28 5.12,10.24 10.24,19.2 17.92,26.88 7.68,7.68 16.64,14.08 26.88,17.92 10.24,3.84 21.76,6.4 33.28,6.4 8.96,0 17.92,-1.28 25.6,-3.84 7.68,-2.56 15.36,-6.4 23.04,-11.52 3.84,6.4 6.4,14.08 8.96,24.32 1.28,-15.36 3.84,-25.6 8.96,-32 3.84,-6.4 10.24,-10.24 16.64,-10.24 19.27019,0.29651 34.90576,11.62662 49.92,19.2 -7.37805,-14.93922 -20.18061,-30.78646 -20.48,-46.08 3.54638,-19.43285 27.63438,-20.07853 40.96,-21.76 -16.64,-6.4 -26.88,-11.52 -32,-17.92 z m -78.54909,79.40197 c -6.44869,3.42697 -12.9131,6.44219 -20.01091,8.91803 -8.503072,2.42042 -16.58464,3.84 -24.32,3.84 V 44.8 c 10.81968,0.353536 22.06405,2.758272 30.72,6.4 8.96,3.84 17.92,8.96 24.32,16.64 6.4,6.4 12.8,15.36 16.64,24.32 3.84,8.96 6.4,19.2 6.4,29.44 0,11.52 -2.56,23.04 -6.4,32 -7.42442,13.55347 -14.84954,24.14261 -27.34909,30.76197 z"
     id="path2"
     sodipodi:nodetypes="scsccsscscaaaaascsssscccccccsccccccsscc"
     style="stroke-width:1.6" />
</svg>
