<?xml version="1.0" encoding="UTF-8" standalone="no"?>
<svg
   xmlns:dc="http://purl.org/dc/elements/1.1/"
   xmlns:cc="http://creativecommons.org/ns#"
   xmlns:rdf="http://www.w3.org/1999/02/22-rdf-syntax-ns#"
   xmlns:svg="http://www.w3.org/2000/svg"
   xmlns="http://www.w3.org/2000/svg"
   xmlns:sodipodi="http://sodipodi.sourceforge.net/DTD/sodipodi-0.dtd"
   xmlns:inkscape="http://www.inkscape.org/namespaces/inkscape"
   version="2.0"
   viewbox="0 0 256 256"
   id="svg6"
   sodipodi:docname="redirect.svg"
   inkscape:version="1.0.2-2 (e86c870879, 2021-01-15)">
  <metadata
     id="metadata12">
    <rdf:RDF>
      <cc:Work
         rdf:about="">
        <dc:format>image/svg+xml</dc:format>
        <dc:type
           rdf:resource="http://purl.org/dc/dcmitype/StillImage" />
        <dc:title />
      </cc:Work>
    </rdf:RDF>
  </metadata>
  <defs
     id="defs10" />
  <sodipodi:namedview
     pagecolor="#ffffff"
     bordercolor="#666666"
     borderopacity="1"
     objecttolerance="10"
     gridtolerance="10"
     guidetolerance="10"
     inkscape:pageopacity="0"
     inkscape:pageshadow="2"
     inkscape:window-width="2604"
     inkscape:window-height="1401"
     id="namedview8"
     showgrid="false"
     showborder="false"
     inkscape:pagecheckerboard="true"
     inkscape:zoom="2.345"
     inkscape:cx="-107.48589"
     inkscape:cy="98.071205"
     inkscape:window-x="0"
     inkscape:window-y="0"
     inkscape:window-maximized="0"
     inkscape:current-layer="svg6"
     inkscape:document-rotation="0" />
  <path
     d="M 166.61587,92.009577 36.13742,120.86867 c 15.784583,27.40016 33.387325,57.69657 46.530918,80.97521 z m 49.08932,-80.97521 C 203.40213,2.9826644 187.24298,9.6e-6 170.45347,9.6e-6 c -16.78951,0 -34.85821,2.5463903 -52.92692,8.1484488 C 99.457844,13.750517 81.389137,21.898966 63.32043,34.291398 49.089325,43.967681 37.576521,54.83228 27.183017,65.866637 16.789513,78.25907 7.6752095,89.123668 6.5999999e-6,101.5161 6.396009,93.367652 13.100906,85.381595 20.627114,78.25907 28.63104,70.684476 37.203618,63.586634 46.530924,57.718189 61.531165,48.280502 77.551536,39.893457 94.341042,34.461158 c 15.510308,-5.4323 31.020608,-6.790374 46.530918,-6.790374 14.2311,0 28.46221,4.074224 40.13491,9.676283 11.67271,5.602058 22.06621,15.108582 28.46222,26.14294 6.5559,10.864598 10.3935,24.615105 10.3935,38.365613 0,13.75051 -3.9975,27.50101 -9.1143,42.6096 -6.55591,15.10858 -14.23111,28.85909 -25.90381,42.60959 -10.39351,13.75051 -24.62461,25.97318 -40.13492,37.00754 -14.2311,10.8646 -28.46221,17.82473 -43.97252,23.25703 -15.510301,5.4323 -29.741407,8.14845 -43.972512,8.14845 18.228607,1.35808 36.137413,0.16976 56.924422,-5.4323 20.78701,-5.60206 40.13491,-13.75051 59.48282,-27.50101 18.06871,-12.22268 32.29981,-25.97318 45.25172,-41.08177 12.9519,-16.46665 22.06621,-31.57523 28.46221,-48.04189 C 253.4416,116.9642 256,100.49754 256,85.388963 256,70.280381 252.0025,55.171798 244.3273,42.779366 236.4922,29.028858 226.84412,18.324207 215.70519,11.034367 Z"
     id="path2"
     sodipodi:nodetypes="ccccssscccaacsscscccscscccscs"
     style="stroke-width:1.64756" />
</svg>
