<?xml version="1.0" encoding="UTF-8" standalone="no"?>
<svg
   xmlns:dc="http://purl.org/dc/elements/1.1/"
   xmlns:cc="http://creativecommons.org/ns#"
   xmlns:rdf="http://www.w3.org/1999/02/22-rdf-syntax-ns#"
   xmlns:svg="http://www.w3.org/2000/svg"
   xmlns="http://www.w3.org/2000/svg"
   xmlns:sodipodi="http://sodipodi.sourceforge.net/DTD/sodipodi-0.dtd"
   xmlns:inkscape="http://www.inkscape.org/namespaces/inkscape"
   version="2.0"
   viewbox="0 0 256 256"
   id="svg6"
   sodipodi:docname="redirect.svg"
   inkscape:version="1.0.2-2 (e86c870879, 2021-01-15)">
  <metadata
     id="metadata12">
    <rdf:RDF>
      <cc:Work
         rdf:about="">
        <dc:format>image/svg+xml</dc:format>
        <dc:type
           rdf:resource="http://purl.org/dc/dcmitype/StillImage" />
        <dc:title />
      </cc:Work>
    </rdf:RDF>
  </metadata>
  <defs
     id="defs10" />
  <sodipodi:namedview
     pagecolor="#ffffff"
     bordercolor="#666666"
     borderopacity="1"
     objecttolerance="10"
     gridtolerance="10"
     guidetolerance="10"
     inkscape:pageopacity="0"
     inkscape:pageshadow="2"
     inkscape:window-width="2604"
     inkscape:window-height="2054"
     id="namedview8"
     showgrid="false"
     showborder="false"
     inkscape:pagecheckerboard="true"
     inkscape:zoom="4.69"
     inkscape:cx="56.170077"
     inkscape:cy="109.11306"
     inkscape:window-x="0"
     inkscape:window-y="0"
     inkscape:window-maximized="0"
     inkscape:current-layer="svg6"
     inkscape:document-rotation="0" />
  <g
     id="g4"
     transform="matrix(1.5990006,0,0,1.6975935,302.21112,-545.94606)">
    <path
       d="m -84.8,375.8 -81.6,17 c 9.87153,16.14059 20.88012,33.98727 29.1,47.7 z m 30.7,-47.7 c -7.694219,-4.74301 -17.8,-6.5 -28.3,-6.5 -10.5,0 -21.8,1.5 -33.1,4.8 -11.3,3.3 -22.6,8.1 -33.9,15.4 -8.9,5.7 -16.1,12.1 -22.6,18.6 -6.5,7.3 -12.2,13.7 -17,21 4,-4.8 8.19318,-9.50434 12.9,-13.7 5.00558,-4.46196 10.36679,-8.64308 16.2,-12.1 9.38101,-5.55945 19.4,-10.5 29.9,-13.7 9.7,-3.2 19.4,-4 29.1,-4 8.9,0 17.8,2.4 25.1,5.7 7.3,3.3 13.8,8.9 17.8,15.4 4.1,6.4 6.5,14.5 6.5,22.6 0,8.1 -2.5,16.2 -5.7,25.1 -4.1,8.9 -8.9,17 -16.2,25.1 -6.5,8.1 -15.4,15.3 -25.1,21.8 -8.9,6.4 -17.8,10.5 -27.5,13.7 -9.7,3.2 -18.6,4.8 -27.5,4.8 11.4,0.8 22.6,0.1 35.6,-3.2 13,-3.3 25.1,-8.1 37.2,-16.2 11.3,-7.2 20.2,-15.3 28.3,-24.2 8.1,-9.7 13.8,-18.6 17.8,-28.3 4.1,-9.7 5.7,-19.4 5.7,-28.3 0,-8.9 -2.5,-17.8 -7.3,-25.1 -4.9,-8.1 -10.933819,-14.40578 -17.9,-18.7 z"
       id="path2"
       sodipodi:nodetypes="ccccssscccaacsscscccscscccscs" />
  </g>
</svg>
