<?xml version="1.0" encoding="UTF-8" standalone="no"?>
<svg
   xmlns:dc="http://purl.org/dc/elements/1.1/"
   xmlns:cc="http://creativecommons.org/ns#"
   xmlns:rdf="http://www.w3.org/1999/02/22-rdf-syntax-ns#"
   xmlns:svg="http://www.w3.org/2000/svg"
   xmlns="http://www.w3.org/2000/svg"
   xmlns:sodipodi="http://sodipodi.sourceforge.net/DTD/sodipodi-0.dtd"
   xmlns:inkscape="http://www.inkscape.org/namespaces/inkscape"
   version="1.1"
   id="svg11"
   sodipodi:docname="air.svg"
   inkscape:version="1.0.2 (e86c8708, 2021-01-15)">
  <metadata
     id="metadata17">
    <rdf:RDF>
      <cc:Work
         rdf:about="">
        <dc:format>image/svg+xml</dc:format>
        <dc:type
           rdf:resource="http://purl.org/dc/dcmitype/StillImage" />
        <dc:title></dc:title>
      </cc:Work>
    </rdf:RDF>
  </metadata>
  <defs
     id="defs15" />
  <sodipodi:namedview
     pagecolor="#ffffff"
     bordercolor="#666666"
     borderopacity="1"
     objecttolerance="10"
     gridtolerance="10"
     guidetolerance="10"
     inkscape:pageopacity="0"
     inkscape:pageshadow="2"
     inkscape:window-width="3360"
     inkscape:window-height="1837"
     id="namedview13"
     showgrid="false"
     inkscape:pagecheckerboard="true"
     showborder="false"
     inkscape:zoom="1"
     inkscape:cx="-0.5"
     inkscape:cy="-0.96875"
     inkscape:window-x="41"
     inkscape:window-y="25"
     inkscape:window-maximized="1"
     inkscape:current-layer="svg11" />
  <path
     d="M 128,256 Q 101.57916,256 78.236473,245.99599 54.893788,235.99198 37.450902,218.42084 20.008016,200.8497 10.004008,177.63527 0,154.42084 0,128 0,101.57916 10.004008,78.236473 20.008016,54.893788 37.450902,37.450902 54.893788,20.008016 78.236473,10.004008 101.57916,0 128,0 q 26.42084,0 49.63527,10.004008 23.21443,10.004008 40.65732,27.446894 17.44288,17.442886 27.44689,40.785571 10.00401,23.342687 10.00401,49.763527 0,26.42084 -10.00401,49.63527 -10.00401,23.21443 -27.44689,40.78557 -17.44289,17.57114 -40.65732,27.57515 Q 154.42084,256 128,256 Z M 63.871743,34.885772 Q 52.58517,43.350701 43.607214,53.098196 40.272545,70.284569 41.55511,83.751503 q 1.282565,13.466934 5.130261,23.470937 3.847695,10.00401 9.234469,16.28858 5.386773,6.28457 9.490982,8.8497 7.69539,4.87375 16.032064,7.05411 8.336673,2.18036 16.032064,3.20641 7.69539,1.02605 14.23647,1.02605 h 10.13227 q -1.02605,0 -5.38678,-0.25651 -4.36072,-0.25651 -10.38877,-1.79559 -6.02806,-1.53908 -13.082168,-4.48898 -7.054108,-2.9499 -13.723447,-8.33667 -6.669339,-5.38677 -12.312625,-13.97996 -5.643287,-8.59319 -8.721443,-21.162325 -0.513026,-1.795592 -0.769539,-6.28457 -0.256513,-4.488978 -0.38477,-9.619238 -0.128256,-5.130261 0,-9.490982 0.128257,-4.360722 0.641283,-6.156313 2.052104,-7.951904 3.462926,-13.59519 1.410821,-5.643287 2.693386,-13.59519 z M 240.60922,128 q 0,-16.67335 -4.61724,-32.064128 -4.61723,-15.390782 -13.08216,-28.729459 -4.10421,-4.360722 -9.87575,-7.951904 -5.77154,-3.591182 -11.15832,-5.8998 -6.15631,-2.56513 -12.82565,-4.488978 -6.66934,-1.923847 -13.33868,-2.693386 -6.15631,-1.026052 -12.56914,-0.128257 -6.41282,0.897796 -12.56913,1.923848 -7.69539,1.539078 -15.00602,5.258517 -7.31062,3.719439 -14.23647,7.567134 -4.61723,2.821643 -9.49098,7.310621 -4.87375,4.488978 -8.97796,10.260521 -4.104205,5.771544 -6.156309,12.440882 -2.052104,6.669339 -0.769539,13.338679 1.026052,5.38677 3.847695,8.97795 2.821643,3.59119 6.156313,5.8998 3.33467,2.30862 6.41283,3.71944 3.07815,1.41082 4.36072,1.66734 4.61723,1.28256 9.36272,0.12825 4.74549,-1.1543 8.59319,-4.23246 3.84769,-3.07816 5.8998,-7.82365 2.0521,-4.74549 1.02605,-10.38878 -0.76954,-4.61723 -3.97595,-7.310617 -3.20641,-2.693387 -6.92585,-3.334669 -3.71944,-0.641283 -7.18237,0.641282 -3.46292,1.282565 -5.002,4.617235 -2.30862,5.643289 0,7.695389 2.30862,2.05211 5.13026,1.92385 2.82164,-0.12826 4.10421,-2.18036 1.28256,-2.05211 -3.07816,-5.386775 4.36072,-1.026052 7.05411,1.795595 2.69339,2.82164 2.56513,6.54108 -0.12826,3.71944 -3.20641,7.18236 -3.07816,3.46293 -9.7475,3.46293 -4.36072,0 -7.9519,-2.56513 -3.59118,-2.56513 -5.64329,-5.38677 -2.82164,-3.59119 -3.07816,-8.8497 -0.25651,-5.258521 1.92385,-10.645295 2.18036,-5.386773 7.05411,-9.619238 4.87375,-4.232465 13.08216,-6.028056 13.08217,-2.821644 21.67536,4.617234 8.59318,7.438878 10.38877,23.599195 1.02606,-2.0521 2.56513,-4.232461 1.53908,-2.180361 3.46293,-4.232465 1.92385,-2.052105 3.97595,-3.462926 2.05211,-1.410822 3.8477,-1.923848 10.004,-3.334669 18.46893,-1.539078 8.46493,1.795591 14.36473,6.669339 5.8998,4.873747 9.36273,12.312629 3.46293,7.43887 4.48898,15.64729 0.76954,8.20842 -2.05211,17.95591 -2.82164,9.7475 -8.97795,15.90381 -5.8998,5.64329 -15.51904,10.13226 -9.61924,4.48898 -19.62325,3.97596 -5.64328,-0.25652 -10.00401,-3.07816 2.05211,6.66934 0.8978,14.36473 -1.15431,7.69539 -5.77154,12.31262 -8.46493,8.97796 -18.21243,11.7996 -9.74749,2.82165 -19.36673,1.53908 -9.61924,-1.28256 -18.08417,-6.02805 -8.464929,-4.7455 -14.364729,-11.15832 -4.873748,-5.64329 -7.438878,-6.02806 -2.56513,-0.38477 -3.719439,1.15431 -1.154308,1.53908 -2.052104,3.46293 -0.897795,1.92385 -2.436874,1.15431 -7.951903,-2.82165 -12.825651,-5.77155 -4.873747,-2.9499 -10.517034,-7.05411 -6.156313,-4.36072 -11.286573,-9.23446 -5.130261,-4.87375 -9.619239,-9.61924 -4.488978,-4.74549 -7.567134,-8.59319 -3.078156,-3.84769 -4.617234,-5.8998 2.56513,20.52104 12.440881,38.3487 9.875752,17.82765 24.881764,30.90982 15.006012,13.08216 34.116232,20.52104 19.110222,7.43888 40.400802,7.43888 23.08617,0 43.60721,-8.72144 20.52105,-8.72145 35.91183,-24.11223 15.39078,-15.39078 24.24048,-35.91182 8.8497,-20.52104 8.8497,-43.86373 z m -107.99199,53.0982 q -2.56513,1.02605 -5.51503,0.25651 -2.9499,-0.76954 -5.38677,-2.69339 -2.43687,-1.92385 -4.10421,-5.13026 -1.66733,-3.20641 -1.66733,-7.56713 0,-5.64329 2.9499,-9.36273 2.9499,-3.71944 7.31062,-5.64328 4.36072,-1.92385 9.74749,-2.05211 5.38678,-0.12825 10.51704,1.41082 -3.59118,-3.07815 -8.33668,-4.87374 -4.74549,-1.7956 -11.92785,-1.7956 -1.53908,0 -4.61724,1.02606 -3.07815,1.02605 -6.28456,3.07815 -3.20642,2.05211 -6.15632,5.13026 -2.9499,3.07816 -4.48898,6.92586 -2.82164,8.20841 0,14.49298 2.82165,6.28457 7.18237,10.64529 5.8998,5.38678 13.72345,5.77154 7.82364,0.38477 13.72344,-2.56513 5.8998,-2.9499 8.46493,-8.97795 2.56513,-6.02806 -1.53908,-13.97996 -3.07815,-5.13026 -6.79759,-6.02806 -3.71944,-0.89779 -6.7976,0.51303 -3.07815,1.41082 -4.1042,4.48898 -1.02606,3.07815 1.53907,6.15631 1.53908,1.79559 3.07816,1.41082 1.53908,-0.38477 2.18036,-1.66733 0.64128,-1.28257 0.38477,-2.82165 -0.25651,-1.53908 -2.0521,-1.79559 3.07815,-1.02605 4.87374,0.76954 1.7956,1.79559 1.7956,4.61724 0,2.82164 -1.92385,5.89979 -1.92385,3.07816 -5.77155,4.36073 z m 44.37676,-70.54109 q 5.8998,-2.56513 9.36272,0.25652 3.46293,2.82164 3.59119,7.43888 0.12825,4.61723 -3.33467,8.84969 -3.46293,4.23247 -11.41483,4.48898 -6.15632,0.25652 -9.61924,-1.53908 -3.46293,-1.79559 -5.13026,-3.84769 -1.66734,-2.05211 -2.05211,-4.10421 -0.38477,-2.0521 -0.38477,-2.30862 -1.02605,3.8477 -2.0521,6.41283 -1.02605,2.56513 -2.0521,4.36072 -1.02606,2.0521 -2.56513,3.33467 4.87374,6.41283 12.31262,8.59319 7.43888,2.18036 14.62124,0.25651 7.18237,-1.92385 12.6974,-7.18237 5.51503,-5.25851 6.54108,-13.46693 1.02605,-8.46493 -2.69339,-12.69739 -3.71944,-4.23247 -8.72144,-5.38678 -5.002,-1.15431 -9.74749,0.25652 -4.7455,1.41082 -5.25852,5.002 -1.02605,6.41282 1.79559,8.08016 2.82164,1.66733 5.51503,0.8978 2.69339,-0.76954 3.20641,-3.20642 0.51303,-2.43687 -4.61723,-4.48898 z m 25.13827,-1.28256 q 3.8477,6.92585 2.18037,15.90381 -1.66734,8.97795 -6.02806,15.13427 -4.36072,6.66933 -11.03006,10.26052 -3.59118,1.79559 -7.05411,2.9499 -3.46293,1.1543 -6.79759,1.1543 7.43887,2.30862 13.08216,0.38477 5.64329,-1.92384 8.72144,-3.71943 5.13026,-3.07816 7.56714,-5.77155 2.43687,-2.69338 4.74549,-7.82365 2.82164,-7.9519 2.0521,-15.64729 -0.51302,-3.07816 -1.66733,-6.54108 -1.15431,-3.46293 -5.77155,-6.28457 z M 174.17234,25.138277 q -17.69939,-7.951904 -37.70741,-9.490982 -4.61723,1.282565 -11.41483,3.975951 -6.79759,2.693387 -13.72345,7.310622 -8.72144,6.156312 -14.877752,12.569138 -6.156313,6.412826 -10.260521,16.416834 -4.360722,9.234469 -5.51503,16.54509 -1.154309,7.310621 -0.897796,12.184369 0.256513,4.873747 1.026052,6.797595 0.769539,1.923847 0.769539,0.641282 0,-2.308617 0.769539,-8.46493 0.769539,-6.156312 6.669339,-17.442885 1.026052,-2.052104 3.719439,-5.386774 2.693387,-3.334669 6.412826,-6.925852 3.719435,-3.591182 8.080155,-7.182364 4.36073,-3.591183 9.23447,-6.669339 5.64329,-3.334669 12.95391,-5.771543 7.31062,-2.436874 15.26253,-4.360721 7.9519,-1.923848 15.64729,-2.9499 7.69539,-1.026052 13.8517,-1.795591 z M 21.034068,111.07014 q -2.56513,-3.8477 -3.078156,-8.97796 -2.821643,12.82566 -2.821643,25.90782 0,2.30862 0.128256,4.61723 0.128257,2.30862 0.128257,4.61724 2.052104,2.30862 4.488978,4.48898 2.436873,2.18036 4.745491,4.23246 5.13026,3.33467 10.388777,6.41283 5.258517,3.07815 7.567134,4.10421 2.565131,1.28256 7.438878,3.46292 4.873748,2.18036 10.388778,3.71944 5.51503,1.53908 10.773547,2.18036 5.258517,0.64128 9.362725,-0.89779 -4.360721,0.25651 -9.747495,-1.28257 -4.360721,-1.28256 -11.03006,-5.002 -6.669339,-3.71944 -15.390781,-10.64529 -5.130261,-4.10421 -9.234469,-9.36273 -4.104209,-5.25852 -6.925852,-10.26052 -2.821643,-5.002 -4.488978,-9.61924 -1.667335,-4.61723 -2.693387,-7.69539 z"
     id="path10"
     inkscape:label="air"
     style="stroke-width:0.256513" />
</svg>
