<?xml version="1.0" encoding="UTF-8" standalone="no"?>
<svg
   xmlns:dc="http://purl.org/dc/elements/1.1/"
   xmlns:cc="http://creativecommons.org/ns#"
   xmlns:rdf="http://www.w3.org/1999/02/22-rdf-syntax-ns#"
   xmlns:svg="http://www.w3.org/2000/svg"
   xmlns="http://www.w3.org/2000/svg"
   xmlns:sodipodi="http://sodipodi.sourceforge.net/DTD/sodipodi-0.dtd"
   xmlns:inkscape="http://www.inkscape.org/namespaces/inkscape"
   version="1.1"
   id="svg20"
   sodipodi:docname="earth.svg"
   inkscape:version="1.0.2 (e86c8708, 2021-01-15)">
  <metadata
     id="metadata26">
    <rdf:RDF>
      <cc:Work
         rdf:about="">
        <dc:format>image/svg+xml</dc:format>
        <dc:type
           rdf:resource="http://purl.org/dc/dcmitype/StillImage" />
        <dc:title></dc:title>
      </cc:Work>
    </rdf:RDF>
  </metadata>
  <defs
     id="defs24" />
  <sodipodi:namedview
     pagecolor="#ffffff"
     bordercolor="#666666"
     borderopacity="1"
     objecttolerance="10"
     gridtolerance="10"
     guidetolerance="10"
     inkscape:pageopacity="0"
     inkscape:pageshadow="2"
     inkscape:window-width="3360"
     inkscape:window-height="1837"
     id="namedview22"
     showgrid="false"
     inkscape:pagecheckerboard="true"
     showborder="false"
     inkscape:zoom="3.5066667"
     inkscape:cx="150"
     inkscape:cy="75"
     inkscape:window-x="41"
     inkscape:window-y="25"
     inkscape:window-maximized="1"
     inkscape:current-layer="svg20" />
  <path
     d="M 127.74349,256 Q 101.32265,256 78.108216,245.99599 54.893788,235.99198 37.450902,218.42084 20.008016,200.8497 10.004008,177.50701 0,154.16433 0,127.74349 0,101.32265 10.004008,78.108216 20.008016,54.893788 37.450902,37.450902 54.893788,20.008016 78.108216,10.004008 101.32265,0 127.74349,0 q 26.42084,0 49.76352,10.004008 23.34269,10.004008 40.78558,27.446894 17.44288,17.442886 27.44689,40.657314 10.00401,23.214434 10.00401,49.635274 0,26.42084 -10.00401,49.76352 -10.00401,23.34269 -27.44689,40.91383 -17.44289,17.57114 -40.78558,27.57515 Q 154.16433,256 127.74349,256 Z m 0,-240.865731 q -23.08618,0 -43.607217,8.849699 Q 63.61523,32.833667 48.224449,48.224449 32.833667,63.61523 23.983968,84.136273 q -8.849699,20.521037 -8.849699,43.607217 0,4.61723 0.513026,8.97795 0.513026,4.36072 1.026052,8.97796 h 0.256513 q 0.513026,0.25651 1.154308,0.12826 0.641283,-0.12826 1.154309,-0.12826 v -0.25651 l 5.386774,-4.36073 2.052104,-2.0521 10.260521,-11.7996 q 2.56513,0.25651 5.386773,-0.25651 2.565131,-0.25652 5.002004,-1.02605 2.436874,-0.76954 4.232465,-2.05211 0.769539,-0.76954 2.821644,-3.07815 2.052104,-2.30862 4.488977,-5.64329 2.436874,-3.33467 5.515031,-7.43888 3.078156,-4.10421 6.412825,-8.208416 Q 77.97996,90.036072 86.44489,77.97996 l 9.234469,12.312625 42.324651,-47.711423 q 5.13026,4.360722 10.00401,9.747495 4.61723,4.617235 9.49098,10.517034 4.87375,5.8998 9.49098,13.082165 4.61723,6.925851 9.36273,12.056112 4.74549,5.13026 9.10621,8.977956 4.87375,4.104206 9.49098,7.438876 l 12.05611,-6.92585 q 0.76954,3.07816 3.33467,8.46493 2.05211,4.61723 5.8998,12.05611 3.8477,7.43888 10.26052,18.72545 l 3.8477,7.95191 6.41282,9.49098 -0.25651,0.51302 0.76954,0.76954 q 3.33467,-12.56913 3.33467,-27.7034 0,-23.08618 -8.8497,-43.607217 Q 222.90982,63.61523 207.51904,48.224449 192.12826,32.833667 171.60721,23.983968 151.08617,15.134269 127.74349,15.134269 Z M 95.422846,101.83567 86.44489,90.549098 74.132265,113.12224 Z m 116.713424,41.55511 q 0.51303,-3.59118 1.02605,-5.38677 0.51303,-1.79559 1.02606,-2.82165 0.51302,-1.02605 0.76954,-1.02605 l -11.28658,-21.03407 h -1.28256 l 3.84769,42.06814 q 1.02606,-1.02605 2.05211,-2.56513 0.76954,-1.28256 1.92384,-3.59118 1.15431,-2.30862 1.92385,-5.64329 z m -34.62926,-2.56513 q 1.7956,-1.79559 4.23247,-5.51503 2.43687,-3.71944 4.48898,-7.56713 2.56513,-4.36072 5.38677,-9.23447 L 146.46894,68.745491 126.97395,199.05411 160.83367,114.1483 Z m 51.55912,36.68136 -0.89779,1.7956 -0.8978,1.79559 0.51303,-1.02606 0.51302,-1.02605 q 0,-0.25651 0.12826,-0.38477 0.12826,-0.12825 0.12826,-0.38477 0.25651,-0.25651 0.25651,-0.38477 0,-0.12825 0.25651,-0.38477 z"
     id="path18"
     inkscape:label="earth"
     style="stroke-width:0.256513" />
</svg>
