<?xml version="1.0" encoding="UTF-8" standalone="no"?>
<svg
   xmlns:dc="http://purl.org/dc/elements/1.1/"
   xmlns:cc="http://creativecommons.org/ns#"
   xmlns:rdf="http://www.w3.org/1999/02/22-rdf-syntax-ns#"
   xmlns:svg="http://www.w3.org/2000/svg"
   xmlns="http://www.w3.org/2000/svg"
   xmlns:sodipodi="http://sodipodi.sourceforge.net/DTD/sodipodi-0.dtd"
   xmlns:inkscape="http://www.inkscape.org/namespaces/inkscape"
   version="1.1"
   id="svg29"
   sodipodi:docname="fire.svg"
   inkscape:version="1.0.2 (e86c8708, 2021-01-15)">
  <metadata
     id="metadata35">
    <rdf:RDF>
      <cc:Work
         rdf:about="">
        <dc:format>image/svg+xml</dc:format>
        <dc:type
           rdf:resource="http://purl.org/dc/dcmitype/StillImage" />
        <dc:title></dc:title>
      </cc:Work>
    </rdf:RDF>
  </metadata>
  <defs
     id="defs33" />
  <sodipodi:namedview
     pagecolor="#ffffff"
     bordercolor="#666666"
     borderopacity="1"
     objecttolerance="10"
     gridtolerance="10"
     guidetolerance="10"
     inkscape:pageopacity="0"
     inkscape:pageshadow="2"
     inkscape:window-width="1680"
     inkscape:window-height="908"
     id="namedview31"
     showgrid="false"
     inkscape:pagecheckerboard="true"
     showborder="false"
     inkscape:zoom="3.5066667"
     inkscape:cx="150"
     inkscape:cy="154.84791"
     inkscape:window-x="0"
     inkscape:window-y="1915"
     inkscape:window-maximized="1"
     inkscape:current-layer="svg29" />
  <path
     d="m 128,0 q 26.42084,0 49.63527,10.132265 23.21443,10.132264 40.65732,27.57515 17.44288,17.442886 27.44689,40.785571 10.00401,23.342684 10.00401,49.507014 0,26.42084 -10.00401,49.63527 -10.00401,23.21443 -27.44689,40.78557 -17.44289,17.57114 -40.65732,27.57515 Q 154.42084,256 128,256 101.57916,256 78.236473,245.99599 54.893788,235.99198 37.450902,218.42084 20.008016,200.8497 10.004008,177.63527 0,154.42084 0,128 0,101.83567 10.004008,78.492986 20.008016,55.150301 37.450902,37.707415 54.893788,20.264529 78.236473,10.132265 101.57916,0 128,0 Z M 87.983968,163.14228 q 4.617234,7.43888 7.438878,14.62125 2.821643,6.15631 4.360721,13.33867 1.539083,7.18237 0.256513,13.08217 -1.539078,5.8998 -3.334669,8.97795 -1.795591,3.07816 -3.462926,4.36073 -1.667335,1.28256 -3.462926,1.41082 -1.795591,0.12825 -2.821643,0.38477 -2.052104,0.51302 -2.9499,2.18036 -0.897796,1.66733 -0.897796,3.46292 0,1.53908 3.591183,4.36073 3.591182,2.82164 9.234469,4.61723 l 4.873748,-1.79559 q -1.282566,-1.53908 -2.308618,-3.07816 -0.769539,-1.53908 -1.667335,-3.07815 -0.897795,-1.53908 -0.641282,-2.82165 l 3.334669,2.56513 q 1.282566,1.02606 2.308616,2.05211 1.02605,1.02605 1.53908,1.28256 l 2.30862,-1.28256 1.53907,-1.02605 q 0,0 1.02606,-1.53908 0.51302,-1.79559 0.89779,-6.92585 0.38477,-5.13027 -0.89779,-9.23447 -1.02606,-4.10421 -2.82165,-7.69539 -1.79559,-3.59119 -1.02605,-5.64329 1.79559,3.07816 3.59118,5.64329 1.53908,2.30861 3.20642,3.97595 1.66733,1.66733 2.9499,1.15431 2.0521,-0.51303 2.82164,-2.05211 0.76954,-1.53908 1.02605,-4.61723 0,-1.28257 0.12826,-3.46293 0.12826,-2.18036 -1.02605,-5.25852 -1.15431,-3.07815 -3.97596,-7.31062 -2.82164,-4.23246 -7.9519,-9.87575 2.82164,0.76954 6.15631,2.82164 2.82165,1.53908 6.02806,4.36073 3.20641,2.82164 7.05411,7.43887 1.53908,0.51303 2.56513,0.51303 0.76954,0 1.28256,-0.8978 0.51303,-0.89779 -0.25651,-2.9499 -0.76954,-2.30861 -1.79559,-6.79759 -1.02605,-4.48898 -1.02605,-10.26052 0,-5.77154 1.92384,-12.18437 1.92385,-6.41283 7.56714,-12.82565 -0.51303,8.72144 0.51302,15.64729 0.25652,3.07816 0.8978,5.77155 0.64128,2.69338 1.66733,4.87374 1.02606,2.18036 2.30862,3.33467 1.28257,1.15431 3.07816,0.8978 3.59118,-0.51303 6.02805,-1.79559 2.43688,-1.28257 3.71944,-2.82165 1.53908,-2.0521 2.56513,-4.1042 -0.51302,1.53907 -1.02605,3.84769 -0.51302,1.79559 -0.89779,4.10421 -0.38477,2.30862 -0.64129,4.61723 -0.25651,2.30862 -0.51302,7.43888 -0.25652,5.13026 -1.15431,11.03006 -0.8978,5.8998 -2.56513,12.05611 -1.66734,6.15632 -5.00201,11.03006 -0.76953,1.53908 -1.28256,3.07816 -0.51303,1.28257 -0.38477,2.69339 0.12826,1.41082 1.41082,2.69338 1.53908,1.7956 2.9499,1.7956 1.41082,0 2.69339,-0.51303 1.53908,-1.02605 3.33467,-2.0521 -0.76954,1.79559 -1.79559,3.33466 -0.51303,1.28257 -0.8978,2.69339 -0.38477,1.41082 0.12826,2.69339 0.51302,1.02605 2.56513,0.64128 2.0521,-0.38477 4.10421,-1.41082 2.82164,-1.02605 5.8998,-2.56513 -4.10421,-5.38677 -6.15632,-10.77355 -1.53908,-4.36072 -1.28256,-9.49098 0.25651,-5.13026 5.13026,-8.72144 9.49098,-7.69539 13.08216,-13.72345 3.59118,-6.02806 3.07816,-12.95391 -1.02605,1.28257 -2.05211,2.30862 -1.02605,0.76954 -2.69338,1.41082 -1.66734,0.64128 -3.71944,0.12826 -2.05211,-0.25652 -3.97595,-0.38477 -1.92385,-0.12826 -2.82165,-0.51303 -0.89779,-0.38477 -1.02605,-1.53908 -0.12825,-1.15431 1.15431,-3.71944 1.02605,-2.30861 3.71944,-6.79759 2.69339,-4.48898 4.74549,-9.87575 2.0521,-5.38678 2.56513,-11.03006 0.51303,-5.64329 -2.82164,-10.00401 -1.28257,4.36072 -3.59119,7.9519 -2.30861,2.82165 -5.13026,5.25852 -2.82164,2.43687 -6.92585,1.92385 -2.56513,-0.25651 -3.71944,-1.02605 -1.1543,-0.76954 -1.66733,-2.56513 -0.51303,-1.7956 -1.41082,-4.87375 -0.8978,-3.07816 -3.59118,-7.82365 -2.69339,-4.74549 -7.82365,-11.41483 -5.13026,-6.66934 -13.85171,-16.16032 2.82165,9.7475 3.8477,18.72545 0.76954,7.69539 -0.51303,16.28858 -1.28256,8.59319 -6.15631,14.7495 -5.38677,6.15631 -10.77355,7.69539 -5.38677,1.53908 -9.747491,1.02605 -5.130261,-0.51303 -10.260521,-3.07816 z M 233.93988,151.5992 q 0.76954,-0.51303 2.30862,-1.79559 1.53908,-1.28257 2.82164,-2.82165 1.53908,-8.97795 1.53908,-18.98196 0,-23.08617 -8.8497,-43.607214 Q 222.90982,63.871743 207.64729,48.480962 192.38477,33.09018 171.86373,24.240481 151.34269,15.390782 128,15.390782 q -23.08617,0 -43.735471,8.849699 Q 63.61523,33.09018 48.352705,48.480962 33.09018,63.871743 24.112224,84.392786 15.134269,104.91383 15.134269,128 q 0,19.23848 5.899799,36.16834 5.8998,16.92986 16.673347,31.29459 2.308617,-0.25652 3.847695,-1.02606 1.026052,-0.25651 1.539078,-0.51302 v -2.30862 q 2.308618,-2.56513 4.617235,-4.87375 2.052104,-1.79559 4.745491,-3.07815 2.693387,-1.28257 5.771543,-1.02606 -3.078156,3.33467 -4.617235,6.66934 -1.282565,2.82165 -1.667334,5.77155 -0.38477,2.9499 1.667334,5.002 l 5.643287,6.15631 q 0,-1.02605 0.256513,-2.56513 0.256513,-1.28256 0.641283,-3.07815 0.384769,-1.79559 1.154308,-3.8477 1.282565,-4.61723 2.821644,-8.33667 1.539078,-3.71944 1.539078,-5.00201 0,2.05211 0.513026,3.8477 0.513026,3.84769 1.795591,6.92585 1.026052,3.07816 1.154309,4.61724 0.128256,1.53907 0.641282,3.59118 l 0.256513,2.0521 q 2.821643,-0.25651 4.873748,-1.53908 1.795591,-1.53907 3.206412,-3.71944 1.410822,-2.18036 0.897796,-6.79759 -0.513026,-5.64329 -3.847695,-10.26052 -3.33467,-4.61724 -7.054109,-10.38878 -3.719438,-5.77154 -7.310621,-13.33868 -3.591182,-7.56713 -4.360721,-18.8537 0,-6.41283 2.308617,-12.31263 1.795591,-4.61723 5.643287,-9.61924 3.847695,-5.002 11.03006,-7.05411 -4.360722,4.87375 -6.412826,9.49099 -1.539078,4.61723 -0.897796,10.004 0.641283,5.38678 6.797596,10.51704 0.769539,-2.56513 1.795591,-4.87375 1.282565,-2.30862 2.56513,-4.36072 1.282565,-2.0521 2.821643,-3.59118 1.539078,-1.28257 2.436874,-4.48898 0.897796,-3.20641 1.282565,-6.7976 0.38477,-3.59118 0.256513,-6.66933 -0.128256,-3.07816 -0.384769,-3.8477 1.539078,1.28256 2.56513,3.07816 1.026052,1.28256 2.180361,3.20641 1.154308,1.92385 1.667334,4.48898 0.513026,2.82164 1.026052,4.87374 0.513027,2.05211 1.154309,3.59119 0.641283,1.53907 1.410822,3.07815 0.769539,1.53908 2.308617,3.33467 2.308614,-1.53908 2.821644,-6.15631 0.51303,-3.59118 -1.539079,-10.9018 -2.052104,-7.31063 -8.208417,-19.879763 -6.412825,-11.7996 -7.310621,-20.905812 -0.897796,-9.106212 1.795591,-16.160321 2.693387,-7.054108 8.080161,-12.440881 5.386773,-5.386774 11.543085,-9.490982 1.28257,-0.513026 2.30862,-1.282566 1.02605,-0.513026 1.66733,-0.897795 0.64129,-0.38477 1.15431,-0.641283 4.61724,-2.052104 9.10621,-2.821643 4.48898,-0.769539 8.08016,-0.513026 4.10421,0.256513 7.69539,1.026052 5.8998,1.282565 10.00401,5.130261 4.10421,3.591182 5.77155,7.69539 1.66733,4.104209 2.18036,7.438878 0.51302,3.847696 -0.51303,7.438878 -0.25651,-4.873748 -1.53908,-8.721443 -1.53908,-3.591182 -4.10421,-6.541082 -2.56513,-2.9499 -7.43887,-3.975952 -5.13026,-0.769539 -8.33668,1.282565 -3.20641,2.052104 -5.002,5.51503 -1.79559,3.462926 -2.69339,7.567134 -0.89779,4.104209 -0.89779,7.438878 0,6.925852 2.9499,13.723447 2.9499,6.797595 11.15831,14.492986 3.8477,-0.513026 6.15632,-3.334669 2.30861,-2.052105 3.20641,-6.669339 0.89779,-4.617234 -1.15431,-12.569138 0.51303,0.769539 1.53908,2.052104 0.76954,1.026052 1.53908,2.821643 0.76954,1.795591 2.0521,4.873748 1.28257,2.821643 3.07816,5.002004 1.79559,2.18036 3.71944,5.002004 1.92384,2.821643 3.07815,6.925851 1.15431,4.104209 1.15431,10.773552 l 4.10421,3.59118 6.66934,6.66934 q 2.30861,-1.28257 3.59118,-3.33467 1.28256,-1.79559 1.28256,-4.48898 0,-2.69339 -2.30861,-7.054109 -2.82165,-5.13026 -4.74549,-9.362725 -1.92385,-4.232465 -1.92385,-8.080161 0,-2.308617 0.76954,-5.13026 0.76954,-2.821643 2.69338,-4.873748 1.92385,-2.052104 5.13027,-3.334669 3.20641,-1.282565 8.08016,-0.513026 -2.82165,1.539078 -4.61724,3.334669 -1.79559,1.539078 -3.20641,4.104209 -1.41082,2.56513 -1.41082,6.412825 0,3.591183 2.56513,7.054109 2.56513,3.462925 6.02805,7.69539 3.46293,4.232466 6.92585,9.362726 3.46293,5.13026 5.51503,12.05611 2.30862,6.92585 1.66734,12.31263 -0.64128,5.38677 -1.92385,8.97795 -1.28256,3.59119 -2.69338,5.51503 -1.41083,1.92385 -1.41083,2.18036 0,0.25652 1.02606,1.41083 1.02605,1.1543 2.0521,3.71943 1.02605,2.56513 2.0521,7.18237 1.02606,4.61723 1.02606,11.54309 0,6.92585 -1.92385,11.41483 -1.92385,4.48897 -4.23247,7.69539 -2.30861,3.20641 -3.97595,5.77154 -1.66733,2.56513 -1.66733,5.13026 0.25651,5.38677 2.0521,7.18236 1.79559,1.7956 4.36072,-4.36072 1.02605,-3.33467 2.30862,-5.51503 1.28256,-2.18036 2.56513,-4.23246 1.28257,-2.05211 1.92385,-4.23247 0.64128,-2.18036 0.64128,-5.002 0.76954,1.28256 1.53908,3.07816 0.51302,1.79559 0.89779,3.97595 0.38477,2.18036 0.12826,5.51503 -0.25651,3.07815 0.25651,4.10421 0.51303,1.02605 1.41083,0.51302 0.89779,-0.51302 1.79559,-1.79559 0.89779,-1.28256 1.41082,-2.56513 0.51302,-1.28257 1.53908,-3.59118 1.02605,-2.30862 1.53907,-6.02806 0.51303,-3.71944 -0.38477,-9.23447 -0.89779,-5.51503 -4.23246,-13.46693 -3.59118,-7.69539 -3.97595,-13.59519 -0.38477,-5.8998 1.53908,-9.87575 1.92384,-3.97596 5.64328,-6.02806 3.71944,-2.0521 8.59319,-2.56513 -2.82164,1.53908 -4.61724,3.59118 -1.53907,1.53908 -2.9499,4.10421 -1.41082,2.56513 -1.41082,5.64329 0,3.33467 1.79559,6.28457 1.7956,2.9499 4.10421,5.25851 2.30862,2.30862 4.87375,3.97596 2.56513,1.66733 4.36072,2.18036 l 2.30862,-3.07816 q 1.28256,-1.02605 2.30862,-2.56513 1.02605,-1.28257 2.43687,-3.07816 1.41082,-1.79559 2.9499,-3.84769 z"
     id="path12"
     inkscape:label="fire"
     style="stroke-width:0.256513" />
</svg>
