<?xml version="1.0" encoding="UTF-8" standalone="no"?>
<svg
   xmlns:dc="http://purl.org/dc/elements/1.1/"
   xmlns:cc="http://creativecommons.org/ns#"
   xmlns:rdf="http://www.w3.org/1999/02/22-rdf-syntax-ns#"
   xmlns:svg="http://www.w3.org/2000/svg"
   xmlns="http://www.w3.org/2000/svg"
   xmlns:sodipodi="http://sodipodi.sourceforge.net/DTD/sodipodi-0.dtd"
   xmlns:inkscape="http://www.inkscape.org/namespaces/inkscape"
   version="1.1"
   id="svg38"
   sodipodi:docname="void.svg"
   inkscape:version="1.0.2 (e86c8708, 2021-01-15)">
  <metadata
     id="metadata44">
    <rdf:RDF>
      <cc:Work
         rdf:about="">
        <dc:format>image/svg+xml</dc:format>
        <dc:type
           rdf:resource="http://purl.org/dc/dcmitype/StillImage" />
        <dc:title></dc:title>
      </cc:Work>
    </rdf:RDF>
  </metadata>
  <defs
     id="defs42" />
  <sodipodi:namedview
     pagecolor="#ffffff"
     bordercolor="#666666"
     borderopacity="1"
     objecttolerance="10"
     gridtolerance="10"
     guidetolerance="10"
     inkscape:pageopacity="0"
     inkscape:pageshadow="2"
     inkscape:window-width="1680"
     inkscape:window-height="908"
     id="namedview40"
     showgrid="false"
     inkscape:pagecheckerboard="true"
     showborder="false"
     inkscape:zoom="3.5066667"
     inkscape:cx="150"
     inkscape:cy="75"
     inkscape:window-x="0"
     inkscape:window-y="1915"
     inkscape:window-maximized="1"
     inkscape:current-layer="svg38" />
  <path
     d="m 127.74141,0 q 26.63435,0 49.90707,10.084848 23.27273,10.084849 40.72728,27.539394 17.45454,17.454546 27.53939,40.727273 Q 256,101.62424 256,128 q 0,26.37576 -10.08485,49.77778 -10.08485,23.40202 -27.53939,40.85656 -17.45455,17.45455 -40.72728,27.4101 Q 154.37576,256 127.74141,256 101.36566,256 78.222222,246.04444 55.078788,236.08889 37.624242,218.63434 20.169697,201.1798 10.084848,177.77778 0,154.37576 0,128 0,101.62424 10.084848,78.351515 20.169697,55.078788 37.624242,37.624242 55.078788,20.169697 78.222222,10.084848 101.36566,0 127.74141,0 Z m 0,165.75354 q -4.91313,0 -9.43838,-1.9394 -4.52525,-1.93939 -7.88687,-5.30101 -3.36161,-3.36161 -5.30101,-7.88687 -1.93939,-4.52525 -1.93939,-9.69697 0,-7.75757 4.13737,-13.70505 4.13738,-5.94747 10.34344,-8.79192 -10.34344,1.8101 -19.135358,6.98182 -8.791919,5.17172 -15.256566,12.8 -6.464646,7.62828 -10.214141,17.32525 -3.749495,9.69697 -3.749495,20.55758 0,9.82626 3.10303,18.74747 3.103031,8.92122 8.79192,16.42021 5.688888,7.49899 13.187878,12.8 7.498992,5.30101 16.549492,7.88687 -8.27474,-4.39596 -13.187875,-12.54142 -4.913132,-8.14545 -4.913132,-17.97172 0,-7.2404 2.844445,-13.70505 2.844444,-6.46464 7.498992,-11.24848 4.65454,-4.78384 11.11919,-7.49899 6.46465,-2.71515 13.44646,-2.71515 7.24041,0 13.70505,2.71515 6.46465,2.71515 11.24849,7.49899 4.78384,4.78384 7.62828,11.24848 2.84445,6.46465 2.84445,13.70505 0,9.82627 -4.91313,17.97172 -4.91314,8.14546 -13.18788,12.54142 9.0505,-2.58586 16.54949,-7.88687 7.49899,-5.30101 13.18788,-12.8 5.68889,-7.49899 8.79192,-16.42021 3.10303,-8.92121 3.10303,-18.74747 0,-10.86061 -3.7495,-20.55758 -3.74949,-9.69697 -10.21414,-17.32525 -6.46464,-7.62828 -15.25656,-12.8 -8.79192,-5.17172 -19.13536,-6.98182 6.46465,2.84445 10.47273,8.79192 4.00808,5.94748 4.00808,13.70505 0,5.17172 -1.93939,9.69697 -1.9394,4.52526 -5.30101,7.88687 -3.36162,3.36162 -8.01616,5.30101 -4.65455,1.9394 -9.82627,1.9394 z m 0,58.95757 q 11.37778,0 19.00606,-7.49899 7.62829,-7.49899 7.62829,-18.87677 0,-5.17171 -2.06869,-10.08484 -2.06869,-4.91314 -5.68889,-8.40405 -3.6202,-3.4909 -8.40404,-5.68888 -4.78384,-2.19798 -10.47273,-2.19798 -5.17171,0 -9.95555,2.19798 -4.78384,2.19798 -8.40404,5.68888 -3.6202,3.49091 -5.68889,8.40405 -2.06869,4.91313 -2.06869,10.08484 0,11.37778 7.62829,18.87677 7.62828,7.49899 18.48888,7.49899 z m 95.41819,-77.31717 q 0,13.96364 -3.7495,26.63434 -3.74949,12.67071 -10.60202,23.53132 -6.85252,10.8606 -16.29091,19.78181 -9.43838,8.92122 -20.81616,14.61011 15.25657,-6.20607 27.92727,-16.80809 12.67071,-10.60202 21.85051,-24.04848 9.1798,-13.44647 14.22222,-29.47879 5.04242,-16.03232 5.04242,-33.61616 0,-23.27273 -8.79191,-43.830303 Q 223.1596,63.612121 207.77374,48.226263 192.38788,32.840404 171.8303,24.048485 q -20.55757,-8.791919 -44.08889,-8.791919 -23.01414,0 -43.571713,8.791919 Q 63.612121,32.840404 48.226263,48.226263 32.840404,63.612121 24.048485,84.169697 15.256566,104.72727 15.256566,128 q 0,17.58384 5.042424,33.61616 5.042424,16.03232 14.222222,29.47879 9.179798,13.44646 21.850505,24.04848 12.670707,10.60202 27.927273,16.80809 -11.377778,-5.68889 -21.204041,-14.99798 v -0.25859 q -14.222222,-12.92929 -22.238383,-30.64242 -8.016162,-17.71314 -8.016162,-38.65859 0,-19.65253 7.49899,-36.97778 7.49899,-17.325251 20.29899,-30.254544 12.8,-12.929293 30.125252,-20.428283 17.325254,-7.49899 36.977774,-7.49899 19.91112,0 37.23637,7.49899 17.32525,7.49899 30.25454,20.428283 12.9293,12.929293 20.42829,30.254544 7.49899,17.32525 7.49899,36.97778 z m -160.064651,69.5596 v -0.25859 h -0.258585 z"
     id="path14"
     inkscape:label="void"
     style="stroke-width:0.258586" />
</svg>
