<?xml version="1.0" encoding="UTF-8" standalone="no"?>
<svg
   xmlns:dc="http://purl.org/dc/elements/1.1/"
   xmlns:cc="http://creativecommons.org/ns#"
   xmlns:rdf="http://www.w3.org/1999/02/22-rdf-syntax-ns#"
   xmlns:svg="http://www.w3.org/2000/svg"
   xmlns="http://www.w3.org/2000/svg"
   xmlns:sodipodi="http://sodipodi.sourceforge.net/DTD/sodipodi-0.dtd"
   xmlns:inkscape="http://www.inkscape.org/namespaces/inkscape"
   version="1.1"
   id="svg11"
   sodipodi:docname="water.svg"
   inkscape:version="1.0.2 (e86c8708, 2021-01-15)">
  <metadata
     id="metadata17">
    <rdf:RDF>
      <cc:Work
         rdf:about="">
        <dc:format>image/svg+xml</dc:format>
        <dc:type
           rdf:resource="http://purl.org/dc/dcmitype/StillImage" />
        <dc:title></dc:title>
      </cc:Work>
    </rdf:RDF>
  </metadata>
  <defs
     id="defs15" />
  <sodipodi:namedview
     pagecolor="#ffffff"
     bordercolor="#666666"
     borderopacity="1"
     objecttolerance="10"
     gridtolerance="10"
     guidetolerance="10"
     inkscape:pageopacity="0"
     inkscape:pageshadow="2"
     inkscape:window-width="1680"
     inkscape:window-height="908"
     id="namedview13"
     showgrid="false"
     inkscape:pagecheckerboard="true"
     showborder="false"
     inkscape:zoom="1"
     inkscape:cx="-0.5"
     inkscape:cy="-1.125"
     inkscape:window-x="0"
     inkscape:window-y="1915"
     inkscape:window-maximized="1"
     inkscape:current-layer="svg11" />
  <path
     d="M 127.87161,256 Q 101.68104,256 78.44333,245.98596 55.205617,235.97192 37.616851,218.51153 20.028084,201.05115 10.014042,177.81344 0,154.57573 0,128.12839 0,101.68104 10.014042,78.314945 20.028084,54.948847 37.616851,37.488465 55.205617,20.028084 78.44333,10.014042 101.68104,0 127.87161,0 q 26.44735,0 49.81345,10.014042 23.36609,10.014042 40.95486,27.474423 17.58877,17.460382 27.60281,40.82648 10.01404,23.366095 10.01404,49.813445 0,26.44734 -10.01404,49.68505 -10.01404,23.23771 -27.60281,40.69809 -17.58877,17.46039 -40.95486,27.47443 Q 154.31896,256 127.87161,256 Z m 0,-240.850552 q -23.10932,0 -43.650948,8.986961 Q 63.679037,33.12337 48.272818,48.529589 32.8666,63.935807 24.136409,84.477432 q -8.73019,20.541628 -8.73019,43.650958 0,7.95987 1.027081,15.79137 1.027081,7.83149 3.081244,15.02106 v -0.51354 q 0,-4.10832 1.155466,-9.62888 1.155466,-5.52057 2.439318,-10.14243 1.283852,-5.64895 3.338014,-11.55467 2.054163,-5.1354 5.905717,-13.48044 3.851555,-8.34503 9.885657,-17.845534 6.034102,-9.500502 14.250752,-19.386158 8.21665,-9.885657 19.257774,-18.102307 8.47342,-6.676029 19.129388,-12.068205 10.65597,-5.392177 22.85256,-8.345035 12.19659,-2.952859 25.42026,-2.824474 13.22367,0.128386 27.08927,4.236711 l 8.21665,7.446339 q -5.64895,0.25677 -10.52759,1.027081 -3.85155,0.770311 -7.70311,2.182547 -3.85155,1.412237 -5.1354,3.72317 -1.54062,2.310933 -0.64193,2.567703 0.8987,0.25677 3.72317,0.128385 2.82447,-0.128385 7.70311,-0.128385 4.87864,0 11.29789,1.797392 13.09529,3.081244 17.58877,10.784353 4.49348,7.70311 1.41224,17.460381 -1.79739,-5.392176 -5.13541,-8.73019 -3.08124,-3.081244 -8.47342,-4.621866 -5.39218,-1.540622 -14.12237,1.027082 -2.31093,2.054162 -2.31093,4.878635 0,2.310933 1.92578,5.520562 1.92578,3.209629 7.57472,7.574724 5.39218,4.108325 8.21665,8.858579 2.82448,4.75025 3.20963,9.37211 0.38516,4.62187 -1.15546,8.73019 -1.54063,4.10833 -4.62187,7.44634 0.77031,-3.85155 0,-7.18957 -0.51354,-3.08124 -1.54062,-5.77733 -1.02708,-2.69609 -3.85156,-4.23671 -2.82447,-1.02708 -6.54764,-2.05416 -3.72317,-1.02708 -6.80441,-0.8987 -3.08125,0.12839 -4.3651,1.66901 -1.28385,1.54062 0.77031,5.39218 1.79739,3.85155 3.59479,7.83149 1.79739,3.97994 2.05416,8.08827 0.25677,4.10832 -1.79739,8.21665 -2.05417,4.10832 -7.18957,8.21665 1.54062,-6.67603 0.51354,-12.06821 -0.77031,-4.62186 -4.10833,-8.34503 -3.33801,-3.72317 -11.55466,-3.4664 -7.95988,0.25677 -13.60883,2.69609 -5.64894,2.43931 -9.24373,5.90571 -3.59478,3.4664 -5.1354,7.57473 -1.54063,4.10832 -1.54063,7.70311 0,3.59478 2.18255,9.24373 2.18255,5.64894 7.70311,10.91274 5.52056,5.26379 15.14945,8.98696 9.62889,3.72317 24.52156,3.72317 15.14945,0 26.31896,-4.23671 11.16951,-4.23671 19.25777,-12.06821 8.08827,-7.83149 13.99399,-19.001 5.90571,-11.16951 10.27081,-25.29188 l 2.5677,-10.01404 1.79739,-10.527582 Q 233.91775,90.89669 231.86359,83.963892 225.44433,68.557673 215.04514,56.104313 204.64594,43.650953 191.1655,34.535607 177.68506,25.420261 161.63691,20.284855 145.58877,15.149448 127.87161,15.149448 Z m 26.70412,55.462388 q -9.24373,0 -14.12237,-2.567704 -2.05416,-1.027081 -3.08124,-2.439318 -1.02708,-1.412236 -0.64193,-3.851554 0.38516,-2.439318 2.82447,-5.777332 2.43932,-3.338014 7.57473,-7.95988 -15.40622,-2.054162 -31.32598,2.567703 -6.9328,2.054163 -14.63591,5.648947 -7.703107,3.594784 -15.534601,9.500502 -7.831495,5.905717 -15.791374,14.507522 -7.95988,8.601806 -15.406219,20.670008 16.69007,-7.446337 32.8666,-9.500499 6.932798,-0.770311 14.507524,-0.641926 7.57472,0.128385 15.14945,2.054162 7.57472,1.925778 14.89267,6.419258 7.31796,4.493485 13.73722,11.683045 h 1.79739 q -1.79739,-4.36509 -1.02708,-7.95988 0.51354,-2.82447 3.85155,-5.392172 3.33802,-2.567703 12.06821,-3.081244 -5.90572,-2.824473 -9.24373,-6.676028 -2.82448,-3.081243 -3.20963,-7.574724 -0.38516,-4.49348 4.75025,-9.628886 z M 59.057172,149.18355 q -4.878636,-1.54062 -8.730191,1.15547 -3.851555,2.69609 -4.108325,7.83149 0,2.31093 0.128385,6.16249 0.128385,3.85155 0.770311,7.95988 0.641926,4.10832 2.054163,8.21665 1.412236,4.10832 3.723169,6.9328 2.310933,3.08124 7.574724,8.21665 5.263792,5.1354 10.655968,10.27081 6.419258,6.16249 13.608827,12.58174 l 3.594784,-3.33801 q -1.797392,-2.82447 -2.054163,-5.39218 -0.25677,-2.05416 1.283852,-3.4664 1.540622,-1.41223 5.905717,-1.15546 4.621866,0.25677 13.737207,1.15546 9.11535,0.8987 19.51455,1.66901 10.3992,0.77031 20.67001,1.28385 10.27081,0.51354 17.20361,-0.25677 6.9328,-0.77031 13.99398,-3.85155 7.06118,-3.08125 13.48044,-7.70311 6.41926,-4.62187 11.81144,-10.3992 5.39217,-5.77733 8.98696,-12.19659 -6.41926,6.9328 -16.17653,11.81144 -8.73019,4.36509 -22.08225,6.93279 -13.35205,2.56771 -32.35306,0.25677 -19.25777,-2.05416 -31.32598,-3.46639 -12.0682,-1.41224 -18.872614,-1.28386 -6.804413,0.12839 -9.243731,2.18255 -2.439318,2.05416 -2.439318,6.41926 -4.365095,-2.82447 -8.73019,-6.67603 -3.851555,-3.59478 -7.574724,-8.73019 -3.72317,-5.13541 -6.547643,-12.58174 -3.081244,-7.18957 -1.027082,-8.60181 2.054163,-1.41224 5.905718,-0.12839 4.108325,1.28386 10.270812,5.64895 l 3.081244,-3.85155 -5.905717,-5.64895 q -2.567704,-2.5677 -5.392177,-4.62187 -2.824473,-2.05416 -5.392176,-3.33801 z m 181.023068,-7.44634 q -0.25677,1.02708 -0.38515,2.18255 -0.12839,1.15547 -0.38516,2.43932 0,1.28385 -0.25677,1.79739 0.51354,-1.54062 0.64193,-3.20963 0.12838,-1.66901 0.38515,-3.20963 z"
     id="path16"
     inkscape:label="water"
     style="stroke-width:0.25677" />
</svg>
