<?xml version="1.0" encoding="UTF-8" standalone="no"?>
<svg
   xmlns:dc="http://purl.org/dc/elements/1.1/"
   xmlns:cc="http://creativecommons.org/ns#"
   xmlns:rdf="http://www.w3.org/1999/02/22-rdf-syntax-ns#"
   xmlns:svg="http://www.w3.org/2000/svg"
   xmlns="http://www.w3.org/2000/svg"
   xmlns:sodipodi="http://sodipodi.sourceforge.net/DTD/sodipodi-0.dtd"
   xmlns:inkscape="http://www.inkscape.org/namespaces/inkscape"
   width="210mm"
   height="297mm"
   viewBox="0 0 210 297"
   version="1.1"
   id="svg3285"
   inkscape:version="1.0.2-2 (e86c870879, 2021-01-15)"
   sodipodi:docname="concentrate-fire.svg">
  <defs
     id="defs3279" />
  <sodipodi:namedview
     id="base"
     pagecolor="#ffffff"
     bordercolor="#666666"
     borderopacity="1.0"
     inkscape:pageopacity="0.0"
     inkscape:pageshadow="2"
     inkscape:zoom="0.35"
     inkscape:cx="400"
     inkscape:cy="560"
     inkscape:document-units="mm"
     inkscape:current-layer="svg3285"
     inkscape:document-rotation="0"
     showgrid="false"
     inkscape:pagecheckerboard="true"
     showborder="false"
     inkscape:window-width="1267"
     inkscape:window-height="1198"
     inkscape:window-x="26"
     inkscape:window-y="26"
     inkscape:window-maximized="0" />
  <metadata
     id="metadata3282">
    <rdf:RDF>
      <cc:Work
         rdf:about="">
        <dc:format>image/svg+xml</dc:format>
        <dc:type
           rdf:resource="http://purl.org/dc/dcmitype/StillImage" />
        <dc:title></dc:title>
      </cc:Work>
    </rdf:RDF>
  </metadata>
  <path
     glyph-name="parenleft"
     unicode="("
     d="m 127.99999,0 q 12.86125,0.30621971 25.41628,2.44976 12.2488,3.0622016 24.19138,7.655503 11.33015,5.205741 21.74163,11.636363 10.10526,7.043062 18.98565,15.617224 8.26794,8.880383 15.311,18.985646 6.73685,10.411483 12.24881,21.741631 4.5933,11.636355 7.6555,23.885163 2.14353,12.86125 2.44976,25.72249 -0.30623,12.86124 -2.44976,25.72249 -3.0622,12.2488 -7.6555,23.88515 -5.51196,11.33015 -12.24881,22.04785 -7.04306,10.10526 -15.311,18.98565 -8.88039,8.57416 -18.98565,15.61722 -10.41148,6.73684 -21.74163,11.94259 -11.94258,4.5933 -24.19138,7.34928 -12.55503,2.14353 -25.41628,2.44976 -12.86124,-0.30623 -25.41626,-2.44976 Q 90.334926,250.48803 78.392343,245.89473 67.0622,240.68898 56.650716,233.95214 46.545454,226.60286 37.665071,218.33492 29.090909,209.45453 22.047847,199.34927 15.311005,188.63157 10.105263,177.30142 5.5119615,165.66507 2.4497607,153.41627 0.30622005,140.55502 0,127.69378 0.30622005,114.83254 2.4497607,101.97129 5.5119615,89.722482 10.105263,78.086127 15.311005,66.755979 22.047847,56.344496 29.397129,46.239233 37.665071,37.35885 46.545454,28.784688 56.650716,21.741626 67.0622,15.311004 78.392343,10.105263 90.334926,5.5119616 102.58373,2.44976 115.13875,0.30621971 127.99999,0 Z M 37.665071,64.918659 q -4.593301,6.736841 -8.267942,14.086128 -3.674641,7.655498 -6.430622,15.310997 -2.449761,7.961726 -3.980861,16.229666 -1.22488,8.57416 -1.22488,17.14833 0.30622,8.88037 1.5311,17.45454 1.531101,8.26795 3.980861,16.53589 2.75598,7.96171 6.430621,15.61721 13.167465,21.43542 31.84689,38.27752 l 6.736842,4.89951 q 23.885167,12.86125 50.83254,17.14833 4.28707,0.30622 8.88037,0.30622 11.02393,-0.30622 22.04785,-2.14354 10.41149,-2.44976 20.51675,-6.43062 9.79904,-4.5933 18.98564,-10.10526 5.20575,-3.67464 10.10527,-7.6555 L 43.789473,57.263157 q -3.368421,3.67464 -6.124402,7.655502 z M 219.25359,189.244 q 5.51196,-8.88037 10.10526,-18.67942 3.98086,-10.10526 6.73684,-20.82296 1.83732,-11.02392 2.14354,-22.04784 -0.30622,-7.04307 -0.91866,-13.7799 -0.91866,-6.43062 -2.44976,-12.55503 -5.81819,-18.679422 -15.92345,-35.521531 -16.53588,-20.516746 -38.58373,-34.909091 -12.2488,-5.818181 -25.11004,-9.799042 -13.47369,-3.062201 -27.2536,-3.368421 -4.28707,0 -8.42105,0.30622 -4.13397,0.30622 -8.11483,0.61244 Q 94.928228,21.741626 79.617223,29.090908 67.98086,35.827749 56.956937,43.789472 L 213.4354,196.89951 q 3.06221,-3.67464 5.81819,-7.65551 z M 97.377988,129.5311 q 3.980862,-5.81819 3.980862,-7.65551 0,-2.75598 -0.91866,-5.51196 l 27.5598,27.86603 q -18.67942,15.92344 -37.971284,30.62201 -18.985645,14.69856 -38.277511,28.17224 -3.062201,-2.75598 -5.511962,-6.1244 -2.44976,-3.0622 -4.593301,-6.73685 2.755981,-1.83732 7.808612,-5.35884 5.052632,-3.52153 7.502393,-5.05263 l 3.674641,-2.44977 q 0.612439,-0.30622 2.14354,-1.22488 1.22488,-0.91866 1.837321,-1.22487 0.91866,-0.61245 2.449761,-1.53111 1.5311,-0.91866 1.83732,-1.22487 0.918661,-0.61245 2.44976,-1.53111 1.837321,-1.22487 2.143542,-1.22487 3.0622,-1.22489 4.593301,-3.0622 0.30622,0 1.837321,-0.91866 1.837319,-0.91866 2.755979,-1.53111 1.224882,-0.61244 5.205742,-3.67464 l 5.511962,-3.67464 q 1.531101,-0.91866 5.511962,-3.67464 2.755981,-1.83732 5.205741,-3.36842 -4.287081,0.30622 -8.574163,1.22488 -3.980861,0.91867 -8.880382,2.14354 -4.899522,1.22488 -8.880383,2.14354 -1.531099,0.61244 -4.593301,1.5311 -2.755981,0.91866 -3.36842,1.22488 -3.980862,1.83732 -7.043063,2.44976 -0.306219,0 -5.511961,2.44977 l -5.205742,1.83732 0.306221,-0.61245 q 3.36842,-1.83732 6.430621,-3.67464 4.593302,-2.44976 8.267943,-4.89951 4.899521,-3.06221 8.574162,-6.12441 4.593301,-3.0622 8.267943,-6.12441 3.0622,-2.44975 7.349282,-6.73683 4.28708,-3.98086 6.124401,-6.73684 z m 72.574162,20.82296 -12.86124,-13.16746 1.83732,-1.22488 q 5.20574,-2.75598 10.7177,-4.28708 4.89952,-0.91866 10.10527,-1.53111 l -0.61245,-3.67464 v -3.67464 -3.98086 q 0,-2.14354 0.30622,-3.98085 0.30623,-2.44977 0.61244,-4.5933 0.61245,-3.06221 1.53111,-5.81819 1.53109,-3.98086 3.36841,-7.655502 2.75598,-4.899517 6.12441,-9.186602 h -1.22488 q -6.43062,0 -12.55503,-0.918661 -4.89951,-1.224876 -9.49282,-3.062197 l -2.44976,-1.224888 -2.44977,-1.83732 q 0,0 -2.14353,-2.143537 -1.22488,-1.224877 -2.14354,-2.755981 -0.61244,0.306216 -1.22489,0.91866 -0.30621,0.612444 -0.91866,0.918661 l -1.22487,0.612444 -1.22488,0.612432 q -1.22489,0.612444 -2.44976,1.531104 -1.22488,0.612445 -2.44977,0.918661 -3.0622,0.91866 -6.43062,0.91866 -4.28707,-0.306216 -8.26794,-1.531104 -4.59331,-1.837321 -8.88038,-4.593302 -0.30623,2.143549 -0.30623,4.287085 0,1.837321 -0.61243,3.368425 l -1.22489,2.449753 q -0.61243,0.918661 -0.91866,1.837321 -1.22487,2.449764 -2.75598,4.593301 -1.83732,2.143549 -3.98086,3.674641 l -12.55502,-11.942583 2.44976,-2.449753 q 1.22488,-2.143549 1.83732,-4.287085 0.30622,-2.143537 0.30622,-4.593302 -0.91866,-5.818182 -3.0622,-11.636364 -3.67464,-9.492822 -7.655502,-18.679425 -3.368421,-7.655503 -7.043062,-15.004784 l 8.267942,-2.449761 q 10.717702,15.004784 24.803832,27.253587 3.06219,2.449762 6.1244,5.205742 l 4.89952,3.674641 q 1.83732,1.22488 3.98086,2.143541 1.22489,0.61244 2.75598,0.91866 0.91866,0.30622 1.83732,0.30622 h 1.22489 l 1.22487,-0.61244 q 1.22488,-0.91866 2.14354,-1.83732 l 2.44976,-1.837321 q 0,0 2.44977,-2.14354 0.61243,-1.224881 1.53109,-2.755981 1.53111,-3.062202 3.21532,-6.124402 1.68421,-3.062201 3.2153,-6.124402 1.22489,-2.755981 2.14355,-5.511962 0.91866,-2.14354 1.53109,-4.593301 l 1.22489,-4.287081 0.61244,0.91866 v 3.980861 5.205742 q 0.30622,3.062201 0.61244,5.818182 0.30622,3.0622 0.61244,5.818181 0.61244,3.062202 1.22488,5.818182 0.91866,2.755981 1.83732,5.205741 0.91866,1.837321 2.14354,3.674641 1.22489,1.531101 3.06221,2.449761 3.06219,1.22488 6.43062,1.5311 3.98086,0.306221 8.26794,0.612441 3.0622,0 5.81818,-0.30622 3.67464,-0.306221 7.04306,-0.612441 7.04306,-0.91866 13.77991,-2.449761 l 7.6555,12.861245 q -11.63637,8.267943 -19.90431,20.210526 -1.83732,2.755981 -3.36842,5.818181 -1.5311,2.75598 -2.75598,5.81819 -0.91866,2.44975 -1.22489,5.20573 -0.30621,4.28708 0,8.88038 0.61245,3.98086 1.83733,7.96173 1.5311,3.36841 3.36842,6.73684 1.83732,3.06219 3.98086,6.1244 1.83732,2.44976 3.98087,4.89952 1.83732,1.83732 3.98085,3.67464 l 3.98086,3.36843 -1.22488,0.61243 -6.43062,-2.75598 q -4.28708,-1.83732 -8.88038,-3.36841 -3.67465,-1.53111 -7.34929,-2.75599 -3.36841,-0.91866 -6.73683,-1.5311 -3.0622,-0.61244 -6.43063,-0.61244 -5.81817,0.30622 -11.02392,2.75598 z m -73.492822,79.61722 -9.492823,-3.36842 -9.492822,-4.5933 9.799042,-12.55503 11.636364,-15.00478 10.717701,-13.7799 23.27273,-30.92823 20.82296,20.21052 -2.14353,4.28708 -3.0622,7.96173 -2.44977,8.26794 -2.44976,7.96172 -1.83732,7.04306 -1.53109,6.43063 -1.22489,5.20574 -0.61243,3.67464 -0.30623,1.22488 -0.91866,-1.83732 -0.30622,-4.89952 v -5.20575 l -0.61244,-6.43062 -0.30622,-7.34928 -0.91866,-8.57416 -0.91866,-8.26794 -1.22488,-7.65551 -0.61244,0.61244 -0.61244,0.61245 -0.61244,0.91866 -0.30622,0.61243 -3.67465,7.04307 -3.67464,6.1244 -3.36841,5.81818 -3.67464,5.51196 -3.36843,5.81818 -3.98086,6.12441 -3.98086,6.1244 z"
     id="path10"
     style="display:inline;stroke-width:0.30622"
     inkscape:label="raid-concentrate" />
</svg>
