<?xml version="1.0" encoding="UTF-8" standalone="no"?>
<svg
   xmlns:dc="http://purl.org/dc/elements/1.1/"
   xmlns:cc="http://creativecommons.org/ns#"
   xmlns:rdf="http://www.w3.org/1999/02/22-rdf-syntax-ns#"
   xmlns:svg="http://www.w3.org/2000/svg"
   xmlns="http://www.w3.org/2000/svg"
   xmlns:sodipodi="http://sodipodi.sourceforge.net/DTD/sodipodi-0.dtd"
   xmlns:inkscape="http://www.inkscape.org/namespaces/inkscape"
   width="210mm"
   height="297mm"
   viewBox="0 0 210 297"
   version="1.1"
   id="svg3875"
   inkscape:version="1.0.2-2 (e86c870879, 2021-01-15)"
   sodipodi:docname="navigate.svg">
  <defs
     id="defs3869" />
  <sodipodi:namedview
     id="base"
     pagecolor="#ffffff"
     bordercolor="#666666"
     borderopacity="1.0"
     inkscape:pageopacity="0.0"
     inkscape:pageshadow="2"
     inkscape:zoom="0.35"
     inkscape:cx="400"
     inkscape:cy="560"
     inkscape:document-units="mm"
     inkscape:current-layer="svg3875"
     inkscape:document-rotation="0"
     showgrid="false"
     inkscape:pagecheckerboard="true"
     showborder="false"
     showguides="false"
     inkscape:window-width="1267"
     inkscape:window-height="1198"
     inkscape:window-x="78"
     inkscape:window-y="78"
     inkscape:window-maximized="0" />
  <metadata
     id="metadata3872">
    <rdf:RDF>
      <cc:Work
         rdf:about="">
        <dc:format>image/svg+xml</dc:format>
        <dc:type
           rdf:resource="http://purl.org/dc/dcmitype/StillImage" />
        <dc:title></dc:title>
      </cc:Work>
    </rdf:RDF>
  </metadata>
  <path
     glyph-name="ampersand"
     unicode="&amp;"
     d="m 193.62123,210.29673 q -7.10253,7.72016 -15.74909,13.89627 -15.13148,7.72015 -31.807,9.88178 -16.67551,-8.33775 -31.807,-18.83714 -6.48492,-5.24971 -12.35223,-10.80821 -4.940891,-5.2497 -9.572978,-10.80821 -3.70567,-4.94089 -7.102534,-10.49939 -2.779252,-5.2497 -4.632087,-10.49939 -1.544028,-5.24971 -2.470445,-10.49941 -0.308807,-28.41012 12.352231,-53.7322 z M 75.966224,93.56816 89.55368,107.46441 62.069964,99.435467 Z M 139.58022,66.08444 176.3281,132.47767 147.30036,127.53679 100.97949,83.068756 Z M 127.8456,0 q 12.96984,0.30880541 25.63088,2.4704467 12.35223,2.7792522 24.39566,7.4113391 11.42581,5.2496982 21.92521,11.7346192 10.19059,7.102534 19.14595,15.749096 8.33776,8.955368 15.4403,18.837153 6.48492,10.499397 11.73462,21.925213 4.63209,11.734624 7.41134,24.086853 2.16164,12.66103 2.47044,25.63087 -0.3088,12.96984 -2.47044,25.63088 -2.77925,12.35223 -7.41134,24.39566 -5.2497,11.42582 -11.73462,21.92521 -7.10254,9.88179 -15.4403,18.83715 -8.95536,8.33776 -19.14595,15.44029 -10.4994,6.79373 -21.92521,12.04343 -12.04343,4.63209 -24.39566,7.41134 Q 140.81544,255.69119 127.8456,256 114.87575,255.69119 102.21472,253.52955 89.862485,250.7503 78.127866,246.11821 66.702051,240.86851 56.202654,234.07478 46.320869,226.97225 37.365501,218.63449 29.027744,209.67913 21.925212,199.79734 15.44029,189.29795 10.190591,177.87213 5.5585042,165.8287 2.4704463,153.47647 0.30880576,140.81543 0,127.84559 0.30880576,114.87575 2.4704463,102.21472 5.5585042,89.862491 10.190591,78.127867 15.44029,66.702051 21.925212,56.202654 29.027744,46.320869 37.365501,37.365501 46.320869,29.027744 56.202654,21.616405 66.702051,15.131484 78.127866,9.8817858 89.862485,5.2496989 102.21472,2.4704467 114.87575,0.30880541 127.8456,0 Z M 26.557298,84.92159 q -4.014475,10.190592 -6.484921,20.68998 -1.852835,11.11701 -2.161641,22.23402 0.308806,11.11701 2.161641,22.23401 2.470446,10.49941 6.484921,20.69 4.323281,9.88178 10.190591,18.83715 6.176116,8.33776 13.587455,16.0579 7.720145,7.10253 16.057901,13.27865 8.955369,5.86731 18.837153,10.4994 10.190591,4.01447 20.689992,6.48492 10.8082,1.54403 21.92521,2.16164 h 5.5585 q 0,0 5.55851,-0.30881 32.73341,-6.79372 58.98191,-27.48372 L 43.23281,57.129071 Q 33.659831,70.40772 26.557298,84.92159 Z m 171.387222,68.24608 q 6.17611,-0.92642 12.04342,-1.85283 5.55851,-0.92642 10.8082,-2.16165 6.79373,-1.54402 13.27866,-3.39686 -3.39687,13.58745 -9.26418,26.24849 -5.86732,9.88179 -12.96984,18.83715 l -36.43909,-35.20386 q 11.42582,-0.92642 22.54283,-2.47044 z m 40.14475,-16.67551 q 0.3088,-1.85284 0.3088,-4.01449 v -4.63208 q -0.6176,-11.11701 -2.16164,-22.23402 Q 233.76598,95.112182 229.44271,84.92159 224.81062,75.348615 219.25212,66.08444 213.076,57.437878 205.97346,49.717732 198.25332,42.6152 189.91556,36.439083 180.65139,30.880579 170.7696,26.248492 160.57901,22.234017 150.07962,19.76357 138.96261,17.910736 127.8456,17.60193 116.72859,17.910736 105.61158,19.76357 95.112184,22.234017 84.921593,26.248492 70.098915,33.659831 56.820266,43.541617 L 211.53197,195.47406 q 8.95537,-13.58745 16.36671,-28.10133 6.79372,-14.82268 10.19059,-30.88057 z"
     id="path8"
     style="display:inline;stroke-width:0.308805"
     inkscape:label="Raid-navigate" />
</svg>
