<?xml version="1.0" encoding="UTF-8" standalone="no"?>
<svg
   xmlns:dc="http://purl.org/dc/elements/1.1/"
   xmlns:cc="http://creativecommons.org/ns#"
   xmlns:rdf="http://www.w3.org/1999/02/22-rdf-syntax-ns#"
   xmlns:svg="http://www.w3.org/2000/svg"
   xmlns="http://www.w3.org/2000/svg"
   xmlns:sodipodi="http://sodipodi.sourceforge.net/DTD/sodipodi-0.dtd"
   xmlns:inkscape="http://www.inkscape.org/namespaces/inkscape"
   width="210mm"
   height="297mm"
   viewBox="0 0 210 297"
   version="1.1"
   id="svg2680"
   inkscape:version="1.0.2-2 (e86c870879, 2021-01-15)"
   sodipodi:docname="concentrate-fire.svg">
  <defs
     id="defs2674" />
  <sodipodi:namedview
     id="base"
     pagecolor="#ffffff"
     bordercolor="#666666"
     borderopacity="1.0"
     inkscape:pageopacity="0.0"
     inkscape:pageshadow="2"
     inkscape:zoom="0.35"
     inkscape:cx="400"
     inkscape:cy="560"
     inkscape:document-units="mm"
     inkscape:current-layer="svg2680"
     inkscape:document-rotation="0"
     showgrid="false"
     inkscape:pagecheckerboard="true"
     showborder="false"
     inkscape:window-width="1267"
     inkscape:window-height="921"
     inkscape:window-x="104"
     inkscape:window-y="0"
     inkscape:window-maximized="0" />
  <metadata
     id="metadata2677">
    <rdf:RDF>
      <cc:Work
         rdf:about="">
        <dc:format>image/svg+xml</dc:format>
        <dc:type
           rdf:resource="http://purl.org/dc/dcmitype/StillImage" />
        <dc:title></dc:title>
      </cc:Work>
    </rdf:RDF>
  </metadata>
  <path
     d="m 111.47849,162.2112 q -7.67667,10.01304 -17.18905,22.52935 -9.512392,12.51629 -19.859194,25.53324 -6.341587,-3.33768 -11.848764,-7.67666 -5.507165,-4.33899 -10.513684,-9.34551 18.023469,-12.68317 34.878739,-25.36636 16.855283,-12.68318 32.876143,-26.70143 1.66885,-0.66753 7.3429,-7.67666 2.33638,-2.67015 4.50587,-5.1734 2.16948,-2.50327 3.50456,-5.17341 l -3.67145,2.67014 q -1.66884,1.66885 -3.67145,2.67015 -2.00261,1.00131 -3.67144,2.00261 -1.0013,0.66753 -2.67014,1.33507 l -3.33768,1.33506 v 0.33378 q -2.33638,-1.0013 -4.50587,-1.33508 -2.16949,-0.33376 -4.83964,-0.66753 4.00521,-8.3442 2.00261,-15.01955 -1.00131,-6.3416 -6.00783,-12.34943 3.67146,-2.33637 5.84095,-4.83962 2.16948,-2.50327 3.50456,-5.17341 1.00131,-1.33507 1.83572,-3.50456 0.83442,-2.16949 0.83442,-6.50848 8.01043,5.00652 14.68579,5.00652 6.00783,0 9.67928,-3.00391 1.66883,-0.66753 3.67144,-2.33638 3.00391,4.67276 8.01043,6.67537 6.67536,3.33767 18.69101,3.33767 h 1.0013 q -6.3416,8.3442 -8.01043,14.18514 -1.66884,5.84094 -1.66884,9.17861 -0.66754,3.33769 -0.66754,6.50848 0,3.1708 0.66754,6.17471 -8.67796,0.66754 -17.6897,5.00652 -6.3416,4.00521 -12.68318,13.01695 0,-0.66754 -1.33507,-2.67015 -1.33508,-2.00261 -3.00391,-4.33898 h -0.66754 z m -46.059978,5.67406 q -3.671452,2.33638 -6.675363,4.1721 -3.003912,1.83573 -6.007823,4.1721 l -9.679262,6.3416 q -8.344207,-12.01565 -13.01695,-25.70014 -4.672755,-13.68449 -4.672755,-29.03781 0,-14.68579 4.505861,-28.37027 4.505873,-13.68449 12.516304,-25.03259 8.01043,-11.34811 19.191654,-20.02608 11.181224,-8.67797 24.198174,-13.68449 19.358548,37.71578 15.687098,46.39374 -2.002609,3.67145 -7.342891,6.00782 -5.340296,2.33639 -10.680579,3.67145 -5.340283,1.33507 -9.679274,1.83573 l -4.338979,0.50064 -0.333764,0.33378 q 2.002608,0.33377 6.174705,1.66883 4.172097,1.33508 8.344194,3.83834 4.172097,2.50326 7.843549,6.3416 3.671451,3.83832 5.006519,8.84484 1.001304,4.00521 -3.50457,9.51239 -4.505861,5.50716 -11.348105,11.01434 -6.842245,5.50716 -14.352018,10.3468 -7.509785,4.83964 -12.516304,7.50979 v 0.66752 q 7.342903,-3.00391 15.019558,-5.67404 6.675363,-2.33639 14.185135,-4.33899 7.509785,-2.00261 14.852675,-2.67014 -4.672742,3.00391 -9.178616,5.84094 -4.505861,2.83702 -9.178616,6.17471 -3.671452,2.33637 -7.509785,4.67274 -3.838321,2.33638 -7.509772,4.67275 z M 119.15515,34.37809 q 24.0313,0 44.22425,11.18123 20.19296,11.18122 32.87613,29.87223 -7.34289,1.66883 -13.68447,2.50325 -6.3416,0.83442 -11.01434,0.83442 -8.34421,0 -12.68319,-2.0026 -2.67015,-1.00131 -4.33898,-5.1734 -1.66884,-4.1721 -2.50326,-9.17862 -0.83441,-5.00652 -1.00131,-9.84616 -0.16688,-4.83963 0.1669,-7.84354 l -0.66754,-1.00131 q -2.00261,6.67536 -4.33898,12.68319 -2.00261,5.00652 -5.17342,10.01304 -3.17079,5.00651 -7.17601,7.34289 -0.66752,0 -1.16818,0.16688 -0.50065,0.16688 -1.16819,0.16688 -1.33506,0 -4.00521,-1.0013 -2.67015,-1.00131 -7.50979,-4.83963 -4.83962,-3.83833 -11.68187,-10.84746 -6.84224,-7.00913 -16.521515,-19.02477 13.016945,-4.00522 27.368975,-4.00522 z m 61.74706,74.43025 q 2.67015,-4.67276 7.34289,-10.51368 4.67276,-5.84095 14.35203,-13.18385 4.67275,9.67928 7.34289,20.35985 2.67015,10.68057 2.67015,22.36245 0,19.35854 -7.3429,36.3807 -7.34289,17.02217 -20.02608,29.87223 -12.68317,12.85007 -29.70534,20.19296 -17.02216,7.34291 -36.3807,7.34291 -7.67666,0 -14.68579,-1.00131 -7.009126,-1.0013 -13.684489,-3.67145 l 5.340295,-8.34419 q 7.009124,-10.01304 13.016954,-20.02608 3.00391,-4.67276 5.84092,-9.67927 2.83703,-5.00652 6.50849,-11.34811 0.66754,-1.33508 1.66884,-2.33638 1.0013,6.67536 1.83571,13.85137 0.83442,7.17601 1.1682,13.18383 0.33376,6.00782 0.50065,10.17993 l 0.16688,4.1721 0.66754,1.33507 0.83442,-4.00522 q 0,0 2.33637,-9.84616 2.33637,-9.84615 3.67145,-13.01694 1.33507,-3.1708 4.83964,-13.68448 3.50456,-10.5137 6.00782,-11.68188 2.50326,-1.16819 7.34289,-7.50979 5.67405,-3.33767 11.68187,-3.33767 5.3403,0 11.18124,1.83572 5.84093,1.83573 13.85136,5.1734 l 5.34029,2.33637 1.00131,-0.66752 -3.33769,-2.67015 q 0,0 -7.00913,-7.34289 -7.00912,-7.3429 -6.1747,-11.18122 0.83442,-3.83834 -1.50195,-14.18515 0.66753,-4.67275 3.33767,-9.3455 z M 157.53846,0 q 16.68839,0 31.37418,6.34159 14.6858,6.34158 25.53326,17.18904 10.84745,10.84746 17.18904,25.53326 6.34159,14.68578 6.34159,31.37418 v 95.12386 q 0,16.68839 -6.34159,31.37418 -6.34159,14.6858 -17.18904,25.53326 -10.84746,10.84744 -25.53326,17.18904 Q 174.22685,256 157.53846,256 H 80.438069 Q 63.749668,256 49.063887,249.65841 34.378093,243.31681 23.530633,232.46937 12.683173,221.62191 6.3415866,206.93611 0,192.25032 0,175.56193 V 80.43807 Q 0,63.74967 6.3415866,49.06389 12.683173,34.37809 23.530633,23.53063 34.378093,12.68317 49.063887,6.34159 63.749668,0 80.438069,0 Z m 68.75619,127.83311 q 0,-22.02868 -8.51108,-41.5541 Q 209.27248,66.75358 194.75359,52.23468 180.23467,37.71577 160.70926,29.20469 141.18384,20.6936 118.82138,20.6936 q -22.028686,0 -41.554104,8.51109 -19.525431,8.51108 -34.04433,23.02999 -14.518912,14.5189 -23.029988,34.04433 -8.511089,19.52542 -8.511089,41.5541 0,22.36245 8.511089,41.88788 8.511076,19.52542 23.029988,34.04433 14.518899,14.5189 34.04433,23.02999 19.525418,8.51107 41.554104,8.51107 22.36246,0 41.88788,-8.51107 19.52541,-8.51109 34.04433,-23.02999 14.51889,-14.51891 23.02998,-34.04433 8.51108,-19.52543 8.51108,-41.88788 z"
     id="path100"
     style="display:inline;stroke-width:0.333768"
     inkscape:label="dial concentrate fire" />
</svg>
