<?xml version="1.0" encoding="UTF-8" standalone="no"?>
<svg
   xmlns:dc="http://purl.org/dc/elements/1.1/"
   xmlns:cc="http://creativecommons.org/ns#"
   xmlns:rdf="http://www.w3.org/1999/02/22-rdf-syntax-ns#"
   xmlns:svg="http://www.w3.org/2000/svg"
   xmlns="http://www.w3.org/2000/svg"
   xmlns:sodipodi="http://sodipodi.sourceforge.net/DTD/sodipodi-0.dtd"
   xmlns:inkscape="http://www.inkscape.org/namespaces/inkscape"
   version="2.0"
   viewbox="0 0 256 256"
   id="svg4"
   sodipodi:docname="energy.svg"
   inkscape:version="1.0.2-2 (e86c870879, 2021-01-15)">
  <metadata
     id="metadata10">
    <rdf:RDF>
      <cc:Work
         rdf:about="">
        <dc:format>image/svg+xml</dc:format>
        <dc:type
           rdf:resource="http://purl.org/dc/dcmitype/StillImage" />
        <dc:title></dc:title>
      </cc:Work>
    </rdf:RDF>
  </metadata>
  <defs
     id="defs8" />
  <sodipodi:namedview
     pagecolor="#ffffff"
     bordercolor="#666666"
     borderopacity="1"
     objecttolerance="10"
     gridtolerance="10"
     guidetolerance="10"
     inkscape:pageopacity="0"
     inkscape:pageshadow="2"
     inkscape:window-width="2046"
     inkscape:window-height="2054"
     id="namedview6"
     showgrid="false"
     inkscape:pagecheckerboard="true"
     showborder="false"
     inkscape:zoom="4.69"
     inkscape:cx="115.88486"
     inkscape:cy="126.17271"
     inkscape:window-x="-10"
     inkscape:window-y="0"
     inkscape:window-maximized="0"
     inkscape:current-layer="svg4" />
  <path
     d="m 10.24,187.52 c 4.96,11.68 11.2,22.4 18.88,32.16 8.48,8.48 18.4,15.36 29.6,20.48 11.04,5.12 22.72,8 35.36,8.96 C 81.6,241.6 71.04,232.16 62.08,220.8 53.12,209.28 46.72,196.32 42.72,181.76 32.8,171.84 24.96,160.32 19.2,147.2 13.6,134.08 10.72,120 10.24,104.8 6.88,111.68 4.32,118.56 2.72,125.76 1.12,132.96 0,140.48 0,148.48 v 1.12 c 1.76,13.28 5.12,26.08 10.24,37.92 z M 29.6,124.64 c 1.92,7.52 4.64,14.72 8.16,21.76 0.16,-10.24 1.6,-20.32 4.48,-30.08 2.72,-9.6 6.56,-18.56 11.52,-27.04 4.96,-8.48 10.72,-16 17.6,-23.04 6.88,-6.88 14.4,-12.8 22.72,-18.08 -12.48,0.64 -24,3.52 -34.88,8.64 -11.04,5.12 -20.8,11.84 -29.6,20.16 -0.8,4 -1.6,8 -2.08,12 -0.48,4 -0.8,8 -0.8,12 0,8.32 0.96,16.16 2.88,23.68 z M 70.56,34.72 c 9.6,-2.56 19.68,-4 30.08,-4 4.64,0 9.28,0.32 13.92,0.8 4.64,0.64 9.12,1.44 13.44,2.4 4.48,-0.8 9.12,-1.6 13.6,-2.4 4.48,-0.48 9.28,-0.8 14.08,-0.8 10.08,0 19.84,1.28 29.28,3.68 9.44,2.4 18.4,5.92 27.04,10.56 C 207.36,38.08 201.92,32 196,26.4 189.92,20.96 183.2,16.32 175.84,12.32 168.8,8.48 161.28,5.44 153.12,3.2 144.96,1.12 136.48,0 127.68,0 109.92,0 93.6,4.16 78.88,12.64 64.16,20.8 52.32,32 43.2,45.92 51.84,41.12 60.8,37.6 70.56,34.72 Z M 57.92,173.6 c 9.12,8.8 19.52,15.68 31.52,20.64 11.68,5.12 24.48,7.52 38.24,7.52 13.92,0 27.04,-2.56 39.36,-7.84 12,-5.12 22.72,-12.16 32,-21.28 0.8,-4.16 1.6,-8.32 2.08,-12.32 0.48,-3.84 0.8,-7.84 0.8,-12 0,-11.36 -1.92,-22.24 -5.76,-32.8 -3.68,-10.56 -8.8,-19.84 -15.52,-28.32 -6.4,-8.48 -14.24,-16 -23.36,-22.24 C 148.32,58.88 138.56,54.24 128,51.36 117.44,54.4 107.84,58.88 98.88,64.96 89.76,71.2 81.92,78.72 75.36,87.2 c -6.4,8.32 -11.52,17.76 -15.2,28.32 -3.68,10.56 -5.44,21.44 -5.44,32.8 -0.16,9.28 0.96,17.6 3.2,25.28 z m 37.92,56.32 c 9.6,7.2 20.32,12.48 32,15.68 12,-3.36 23.04,-8.64 32.8,-16 9.76,-7.2 17.92,-15.84 24.64,-26.24 -8.48,4.96 -17.6,8.64 -27.2,11.2 -9.6,2.56 -19.68,4 -30.4,4 -10.08,0 -19.84,-1.28 -29.28,-4 -9.6,-2.4 -18.56,-6.08 -27.04,-10.72 6.72,10.4 14.88,19.04 24.48,26.08 z m 98.56,11.52 c 10.08,-4.16 19.36,-9.92 27.52,-17.28 9.6,-10.72 17.28,-22.72 23.04,-36.48 5.76,-13.44 9.44,-28 11.04,-43.68 -0.32,-7.36 -1.44,-14.4 -3.36,-21.28 -1.76,-6.88 -4.16,-13.44 -7.04,-19.68 -0.32,15.04 -3.36,29.12 -8.96,42.4 -5.44,13.12 -12.96,24.8 -22.56,35.04 -4.16,14.56 -10.72,27.68 -19.68,39.36 -9.12,11.68 -19.84,21.44 -32.48,29.12 11.52,-0.8 22.4,-3.36 32.48,-7.52 z M 184.48,65.92 c 6.88,7.04 12.64,14.56 17.6,22.72 4.96,8.16 8.8,16.96 11.52,26.4 2.72,9.6 4.32,19.52 4.64,29.6 3.36,-6.88 5.92,-13.76 7.52,-20.96 1.76,-7.36 2.56,-14.88 2.56,-22.72 0,-8.8 -1.12,-16.96 -3.2,-24.96 -8.32,-8 -17.92,-14.56 -28.8,-19.36 -10.72,-5.12 -22.24,-8 -34.56,-8.64 8.32,5.12 15.84,11.04 22.72,17.92 z"
     id="path2"
     style="stroke-width:1.6" />
</svg>
