<?xml version="1.0" encoding="UTF-8" standalone="no"?>
<svg
   xmlns:dc="http://purl.org/dc/elements/1.1/"
   xmlns:cc="http://creativecommons.org/ns#"
   xmlns:rdf="http://www.w3.org/1999/02/22-rdf-syntax-ns#"
   xmlns:svg="http://www.w3.org/2000/svg"
   xmlns="http://www.w3.org/2000/svg"
   xmlns:sodipodi="http://sodipodi.sourceforge.net/DTD/sodipodi-0.dtd"
   xmlns:inkscape="http://www.inkscape.org/namespaces/inkscape"
   version="2.0"
   viewbox="0 0 256 256"
   id="svg4"
   sodipodi:docname="focus.svg"
   inkscape:version="1.0.2-2 (e86c870879, 2021-01-15)">
  <metadata
     id="metadata10">
    <rdf:RDF>
      <cc:Work
         rdf:about="">
        <dc:format>image/svg+xml</dc:format>
        <dc:type
           rdf:resource="http://purl.org/dc/dcmitype/StillImage" />
        <dc:title></dc:title>
      </cc:Work>
    </rdf:RDF>
  </metadata>
  <defs
     id="defs8" />
  <sodipodi:namedview
     pagecolor="#ffffff"
     bordercolor="#666666"
     borderopacity="1"
     objecttolerance="10"
     gridtolerance="10"
     guidetolerance="10"
     inkscape:pageopacity="0"
     inkscape:pageshadow="2"
     inkscape:window-width="2604"
     inkscape:window-height="2054"
     id="namedview6"
     showgrid="false"
     inkscape:zoom="4.69"
     inkscape:cx="73.240938"
     inkscape:cy="134.70149"
     inkscape:window-x="-10"
     inkscape:window-y="0"
     inkscape:window-maximized="0"
     inkscape:current-layer="svg4"
     inkscape:pagecheckerboard="true"
     showborder="false" />
  <path
     d="m 86.4,124.48 c 12.8,2.56 25.28,3.84 37.44,3.84 15.2,0 30.08,-1.92 44.64,-5.44 41.28,-7.84 70.4,-25.44 87.52,-52.64 -0.96,-1.44 -3.2,-4.16 -6.4,-7.84 -3.2,-3.68 -5.44,-6.24 -6.56,-7.52 -1.12,-1.28 -3.36,-3.68 -6.4,-7.04 -3.04,-3.52 -5.28,-5.92 -6.88,-7.36 -1.76,-1.6 -4.32,-3.84 -7.36,-6.56 -3.04,-2.72 -5.92,-4.96 -8.32,-6.56 -2.24,-1.6 -5.28,-3.68 -8.8,-5.92 -3.68,-2.4 -7.2,-4.32 -10.56,-5.92 -3.2,-1.6 -6.88,-3.36 -11.2,-5.12 C 179.36,8.64 175.04,7.04 170.24,5.44 157.6,1.76 144,0 129.6,0 h -2.88 c -4.8,0 -9.12,0.16 -13.28,0.48 -4,0.48 -7.2,0.96 -9.28,1.28 C 101.92,1.92 98.88,2.4 94.56,3.2 90.24,4 87.36,4.64 85.92,4.96 64.64,11.68 47.36,20 33.76,29.76 20.48,39.36 9.12,53.12 0,70.88 c 15.04,28.48 43.84,46.4 86.4,53.6 z M 43.36,44.16 c 11.36,-8 24.48,-13.92 39.2,-17.6 -8.8,10.72 -13.28,23.04 -13.28,36.96 0,10.4 2.72,20.16 8.16,29.12 5.28,8.96 12.16,16 20.8,21.12 -3.2,-0.32 -8.32,-1.12 -15.36,-2.24 -7.04,-1.92 -13.12,-3.68 -18.4,-5.44 C 59.36,104.32 53.92,101.76 48,98.56 42.4,95.52 37.44,91.68 32.8,86.88 28.16,82.08 24.32,76.64 21.28,70.4 24.8,60.96 32.16,52.16 43.36,44.16 Z M 132,37.92 c 4.16,-4 9.28,-6.08 15.36,-6.08 6.08,0 11.04,1.92 15.2,6.08 4.32,4.16 6.4,9.28 6.4,15.36 0,5.92 -2.08,10.88 -6.4,15.2 -4.16,4.32 -9.28,6.4 -15.2,6.4 -5.92,0 -11.04,-2.08 -15.36,-6.4 -4.32,-4.32 -6.4,-9.28 -6.4,-15.2 0,-6.08 2.24,-11.2 6.4,-15.36 z m 44.96,55.2 c 5.28,-8.96 7.84,-18.88 7.84,-29.44 0,-14.72 -4.8,-27.68 -14.4,-38.72 14.56,2.72 27.36,7.68 38.4,14.88 11.04,7.2 22.24,17.28 33.6,30.56 -3.04,4.96 -6.88,9.6 -11.52,13.92 -4.8,4.16 -9.28,7.52 -13.76,10.08 -4.64,2.72 -10.4,5.44 -17.44,8.16 -7.04,2.4 -12.8,4.32 -17.6,5.6 -4.8,1.28 -11.2,3.04 -19.36,5.12 -0.96,0.16 -2.24,0.32 -3.84,0.48 -1.44,0.16 -2.56,0.32 -3.36,0.48 8.96,-5.12 16.16,-12.32 21.44,-21.12 z"
     id="path2"
     style="stroke-width:1.6" />
</svg>
