<?xml version="1.0" encoding="UTF-8" standalone="no"?>
<svg
   xmlns:dc="http://purl.org/dc/elements/1.1/"
   xmlns:cc="http://creativecommons.org/ns#"
   xmlns:rdf="http://www.w3.org/1999/02/22-rdf-syntax-ns#"
   xmlns:svg="http://www.w3.org/2000/svg"
   xmlns="http://www.w3.org/2000/svg"
   xmlns:sodipodi="http://sodipodi.sourceforge.net/DTD/sodipodi-0.dtd"
   xmlns:inkscape="http://www.inkscape.org/namespaces/inkscape"
   version="2.0"
   viewbox="0 0 256 256"
   id="svg4"
   sodipodi:docname="hull.svg"
   inkscape:version="1.0.2-2 (e86c870879, 2021-01-15)">
  <metadata
     id="metadata10">
    <rdf:RDF>
      <cc:Work
         rdf:about="">
        <dc:format>image/svg+xml</dc:format>
        <dc:type
           rdf:resource="http://purl.org/dc/dcmitype/StillImage" />
        <dc:title></dc:title>
      </cc:Work>
    </rdf:RDF>
  </metadata>
  <defs
     id="defs8" />
  <sodipodi:namedview
     pagecolor="#ffffff"
     bordercolor="#666666"
     borderopacity="1"
     objecttolerance="10"
     gridtolerance="10"
     guidetolerance="10"
     inkscape:pageopacity="0"
     inkscape:pageshadow="2"
     inkscape:window-width="2046"
     inkscape:window-height="2054"
     id="namedview6"
     showgrid="false"
     inkscape:pagecheckerboard="true"
     showborder="false"
     inkscape:zoom="4.69"
     inkscape:cx="124.41365"
     inkscape:cy="134.70149"
     inkscape:window-x="-10"
     inkscape:window-y="0"
     inkscape:window-maximized="0"
     inkscape:current-layer="svg4" />
  <path
     d="M 7.52,201.28 V 222.4 H 0 V 256 h 33.92 v -8.16 H 55.04 V 256 h 105.12 v -8.16 h 21.12 V 256 h 33.92 v -33.6 h -8.32 v -21.12 h 8.32 V 55.2 h -8.32 V 33.6 h 8.32 V 0 H 181.28 V 7.84 H 160.16 V 0 H 55.04 V 7.84 H 33.92 V 0 H 0 V 33.6 H 7.52 V 55.04 H 0 v 45.76 100.48 z m 5.28,25.44 c 2.24,-1.76 4.96,-2.56 8.16,-2.56 2.4,0 4.64,0.96 6.72,2.88 1.92,1.92 2.88,4.64 2.88,8.32 0,2.72 -0.96,5.28 -2.88,7.52 -2.08,2.4 -4.32,3.68 -6.72,3.68 -3.2,0 -5.76,-1.28 -8.16,-3.68 -2.08,-2.24 -3.2,-4.8 -3.2,-7.52 0.16,-3.84 1.12,-6.72 3.2,-8.64 z m 0,-213.92 c 2.24,-2.24 4.96,-3.36 8.16,-3.36 2.4,0 4.64,1.12 6.72,3.36 1.92,2.24 2.88,4.96 2.88,8.16 0,3.52 -0.96,6.24 -2.88,8.32 -2.08,1.92 -4.32,2.88 -6.72,2.88 -3.2,0 -5.76,-1.12 -8.16,-3.2 -2.08,-2.08 -3.2,-4.8 -3.2,-8.16 0.16,-3.04 1.12,-5.76 3.2,-8 z M 27.2,68.64 V 48.8 h 8.32 V 206.88 H 27.2 Z m 27.84,101.28 8.16,8.16 v 14.88 C 52,181.44 44.64,173.76 40.8,169.92 Z m 0,-33.76 c 4,4 6.72,6.56 8.16,7.84 v 14.56 C 52,147.2 44.64,139.84 40.8,136.16 Z m 0,-33.6 c 4,2.88 6.72,4.96 8.16,6.08 V 124 C 52,113.28 44.64,106.08 40.8,102.56 Z m 0,-36.32 c 4,3.52 6.72,5.76 8.16,6.72 V 88.8 C 52,77.44 44.64,69.92 40.8,66.08 h 14.24 z m 84.32,147.52 h 32.16 v 8.64 H 43.68 v -8.64 z M 43.68,33.6 h 127.84 v 8.8 H 43.68 Z M 63.2,194.08 c 4,-3.52 6.56,-5.76 7.84,-7.04 7.52,-0.32 12.48,-0.64 14.88,-0.8 L 63.2,208.96 Z m 0,-33.6 c 4,-4.32 6.56,-7.2 7.84,-8.64 H 85.92 C 74.56,163.52 67.04,171.2 63.2,175.04 Z m 0,-35.68 c 4,-3.36 6.56,-5.44 7.84,-6.56 H 85.92 C 74.56,129.6 67.04,136.96 63.2,140.64 Z m 0,-33.92 c 4,-3.52 6.56,-5.76 7.84,-6.72 7.52,-0.8 12.48,-1.44 14.88,-1.6 -11.36,11.2 -18.88,18.56 -22.72,22.24 z m 0,-34.56 c 4,-3.84 6.56,-6.4 7.84,-7.52 H 85.92 C 74.56,60 67.04,67.36 63.2,71.04 Z m 26.08,113.6 c 4.16,4 6.88,6.72 8.16,8.16 v 14.88 L 74.4,169.92 Z m 0,-33.76 c 4.16,4 6.88,6.56 8.16,7.84 v 14.56 C 85.92,147.2 78.24,139.84 74.4,136.16 Z m 0,-33.6 c 4.16,2.88 6.88,4.96 8.16,6.08 V 124.8 C 85.92,113.6 78.24,106.24 74.4,102.56 Z m 0,-36.32 c 4.16,3.52 6.88,5.76 8.16,6.72 V 88.8 C 85.92,77.44 78.24,69.92 74.4,66.08 h 14.88 z m 9.6,127.84 c 3.68,-3.52 6.08,-5.76 7.36,-7.04 7.84,-0.32 13.12,-0.64 15.68,-0.8 -11.52,11.36 -19.2,18.88 -23.04,22.72 z m 0,-33.6 c 3.68,-4.32 6.08,-7.2 7.36,-8.64 h 15.68 c -11.52,11.68 -19.2,19.36 -23.04,23.2 z m 0,-35.68 c 3.68,-3.36 6.08,-5.44 7.36,-6.56 h 15.68 c -11.52,11.36 -19.2,18.72 -23.04,22.4 z m 0,-33.92 c 3.68,-3.52 6.08,-5.76 7.36,-6.72 7.84,-0.8 13.12,-1.44 15.68,-1.6 -11.52,11.2 -19.2,18.56 -23.04,22.24 z m 0,-34.56 c 3.68,-3.84 6.08,-6.4 7.36,-7.52 h 15.68 C 110.4,60 102.72,67.36 98.88,71.04 Z m 25.92,113.6 c 3.2,4 5.28,6.72 6.56,8.16 v 14.88 C 120,181.44 112.48,173.76 108.64,169.92 Z m 0,-33.76 c 3.2,4 5.28,6.56 6.56,7.84 v 14.56 C 120,147.2 112.48,139.84 108.64,136.16 Z m 0,-33.6 c 3.2,2.88 5.28,4.96 6.56,6.08 V 124.8 C 120,113.6 112.48,106.24 108.64,102.56 Z m 0,-36.32 c 3.2,3.52 5.28,5.76 6.56,6.72 V 88.8 L 108.64,66.08 h 16.16 z m 9.6,127.84 c 4.16,-3.52 6.88,-5.76 8.32,-7.04 7.2,-0.32 11.84,-0.64 14.4,-0.8 l -22.72,22.72 z m 0,-33.6 c 4.16,-4.32 6.88,-7.2 8.32,-8.64 h 14.4 c -11.36,11.68 -18.88,19.36 -22.72,23.2 z m 0,-35.68 c 4.16,-3.36 6.88,-5.44 8.32,-6.56 h 14.4 c -11.36,11.36 -18.88,18.72 -22.72,22.4 z m 0,-33.92 c 4.16,-3.52 6.88,-5.76 8.32,-6.72 7.2,-0.8 11.84,-1.44 14.4,-1.6 -11.36,11.2 -18.88,18.56 -22.72,22.24 z m 0,-34.56 c 4.16,-3.84 6.88,-6.4 8.32,-7.52 h 14.4 C 145.76,60 138.24,67.36 134.4,71.04 Z m 24.32,113.6 8.16,8.16 v 14.88 c -11.52,-11.52 -19.04,-19.2 -22.72,-23.04 z m 0,-33.76 c 4,4 6.72,6.56 8.16,7.84 v 14.56 c -11.52,-11.36 -19.04,-18.72 -22.72,-22.4 z m 0,-33.6 c 4,2.88 6.72,4.96 8.16,6.08 v 16.16 c -11.52,-11.2 -19.04,-18.56 -22.72,-22.24 z m 0,-36.32 c 4,3.52 6.72,5.76 8.16,6.72 V 88.8 C 155.36,77.44 147.84,69.92 144.16,66.08 h 14.56 z M 179.84,48.8 h 7.84 v 158.08 h -7.84 z m 7.52,177.92 c 1.92,-1.76 4.16,-2.56 6.56,-2.56 3.68,0 6.4,0.96 8.32,2.88 1.92,1.92 2.88,4.64 2.88,8.32 0,2.72 -1.12,5.28 -3.2,7.52 -1.92,2.4 -4.64,3.68 -8.16,3.68 -2.4,0 -4.64,-1.28 -6.56,-3.68 -2.08,-2.24 -3.2,-4.8 -3.2,-7.52 0.32,-3.84 1.28,-6.72 3.36,-8.64 z m 0,-213.92 c 1.92,-2.24 4.16,-3.36 6.56,-3.36 3.68,0 6.4,1.12 8.32,3.36 1.92,2.24 2.88,4.96 2.88,8.16 0,3.52 -1.12,6.24 -3.2,8.32 -1.92,1.92 -4.64,2.88 -8.16,2.88 -2.4,0 -4.64,-1.12 -6.56,-3.2 -2.08,-2.08 -3.2,-4.8 -3.2,-8.16 0.32,-3.04 1.28,-5.76 3.36,-8 z"
     id="path2"
     style="stroke-width:1.6" />
</svg>
