<?xml version="1.0" encoding="UTF-8" standalone="no"?>
<svg
   xmlns:dc="http://purl.org/dc/elements/1.1/"
   xmlns:cc="http://creativecommons.org/ns#"
   xmlns:rdf="http://www.w3.org/1999/02/22-rdf-syntax-ns#"
   xmlns:svg="http://www.w3.org/2000/svg"
   xmlns="http://www.w3.org/2000/svg"
   xmlns:sodipodi="http://sodipodi.sourceforge.net/DTD/sodipodi-0.dtd"
   xmlns:inkscape="http://www.inkscape.org/namespaces/inkscape"
   version="2.0"
   viewbox="0 0 256 256"
   id="svg4"
   sodipodi:docname="primary-weapon.svg"
   inkscape:version="1.0.2-2 (e86c870879, 2021-01-15)">
  <metadata
     id="metadata10">
    <rdf:RDF>
      <cc:Work
         rdf:about="">
        <dc:format>image/svg+xml</dc:format>
        <dc:type
           rdf:resource="http://purl.org/dc/dcmitype/StillImage" />
        <dc:title></dc:title>
      </cc:Work>
    </rdf:RDF>
  </metadata>
  <defs
     id="defs8" />
  <sodipodi:namedview
     pagecolor="#ffffff"
     bordercolor="#666666"
     borderopacity="1"
     objecttolerance="10"
     gridtolerance="10"
     guidetolerance="10"
     inkscape:pageopacity="0"
     inkscape:pageshadow="2"
     inkscape:window-width="2046"
     inkscape:window-height="2054"
     id="namedview6"
     showgrid="false"
     inkscape:pagecheckerboard="true"
     showborder="false"
     inkscape:zoom="6.6326616"
     inkscape:cx="123.96825"
     inkscape:cy="159.45562"
     inkscape:window-x="-10"
     inkscape:window-y="0"
     inkscape:window-maximized="0"
     inkscape:current-layer="svg4" />
  <path
     d="m 74.673329,127.76015 c 3.357901,3.9975 5.276702,6.8757 5.756402,8.6346 0.1599,0.7995 0.1599,1.2792 -0.3198,1.7589 -0.4797,0.4797 -1.2792,0.4797 -2.558401,0.3198 -1.2792,-0.1599 -3.357901,-0.7995 -6.076202,-2.0787 -2.718301,-0.9594 -5.916302,-2.5584 -9.913804,-4.6371 -8.474703,-3.6777 -15.510306,-7.0356 -20.787008,-10.0737 -5.596502,-3.0381 -10.073704,-5.7564 -13.271705,-7.83511 -3.997502,-2.2386 -7.195503,-4.4772 -9.594004,-6.396 7.515303,8.15491 15.030606,15.67021 22.386009,22.86571 6.236102,6.2361 12.792005,12.47221 19.667707,18.86821 6.875703,6.5559 13.271706,11.5128 18.868208,15.0306 9.274203,6.55591 15.670206,12.31231 19.188007,17.10931 0.3198,0.3198 0.639601,0.7995 0.639601,1.1193 0,1.9188 -2.398501,2.8782 -7.195503,2.5584 -3.517802,-0.1599 -5.436602,-0.3198 -6.076203,-0.3198 -4.317301,0 -8.474703,-0.1599 -12.472205,-0.3198 -4.317301,-0.1599 -7.995003,-0.4797 -11.352904,-0.7995 -3.997502,-0.3198 -7.675203,-0.7995 -11.033104,-1.1193 21.586508,10.23361 41.094316,19.34791 58.52342,27.50281 l 21.42661,9.91381 c 7.1955,3.3579 13.59151,6.2361 19.18801,8.9544 5.4366,2.7183 9.9138,4.797 13.5915,6.0762 3.67771,1.599 5.75641,2.2386 6.07621,2.2386 12.9519,4.6371 23.50531,7.67521 31.66021,8.95441 3.3579,0.6396 7.5153,1.2792 12.792,2.0787 2.7183,0.1599 4.95691,0.3198 6.71581,0.3198 h 2.2386 3.198 c 3.0381,0 6.5559,-0.6396 10.3935,-2.0787 2.7183,-0.9594 5.1168,-2.7183 7.19551,-5.27671 4.4772,-4.6371 7.6752,-11.0331 9.9138,-19.188 1.7589,-6.39601 2.5584,-13.75141 2.5584,-22.06621 0,-1.9188 -0.1599,-3.8376 -0.3198,-5.7564 -1.2792,-14.55091 -3.198,-26.06371 -5.4366,-34.69832 -3.3579,-12.792 -8.15491,-26.38351 -14.71081,-40.77451 -0.6396,6.396 -1.2792,12.3123 -2.0787,17.7489 -0.9594,4.47721 -2.0787,8.47471 -3.198,12.15241 -1.1193,3.5178 -2.5584,5.2767 -3.9975,5.2767 -0.6396,0 -1.599,-0.9594 -2.8782,-2.8782 -1.2792,-1.9188 -3.198,-4.6371 -5.4366,-8.1549 -1.91881,-3.51781 -4.15741,-7.19551 -6.71581,-11.35291 -2.5584,-4.3173 -4.9569,-8.7945 -7.1955,-13.5915 -5.9163,-10.55341 -12.47221,-22.865713 -19.34791,-36.457218 -0.3198,5.756402 -1.1193,10.713304 -2.0787,14.710806 -0.6396,3.357901 -1.4391,6.076202 -2.5584,8.474702 -1.1193,2.5584 -2.5584,2.8782 -3.9975,1.1193 -1.599,-1.9188 -3.8376,-4.1574 -6.7158,-6.715801 -2.7183,-2.558401 -5.59651,-5.276702 -8.63461,-8.474704 -3.3579,-3.038101 -6.7158,-6.396002 -10.3935,-9.913804 -3.6777,-3.357901 -7.1955,-6.396002 -10.71331,-9.274203 -8.3148,-7.355403 -17.2692,-15.030606 -26.70331,-23.185509 22.22611,28.622111 41.57402,54.525921 58.20363,77.711431 5.9163,8.6346 12.792,18.54841 20.3073,29.58151 6.39601,9.594 12.31231,18.86821 17.74891,27.50281 4.6371,8.1549 8.47471,15.19051 11.35291,21.10681 1.9188,4.4772 2.8782,7.3554 2.5584,8.6346 v 0.6396 c -0.1599,0.9594 -0.3198,1.599 -0.3198,2.0787 -2.5584,3.35791 -5.91631,4.95691 -10.07371,4.95691 -4.797,0 -10.7133,-1.7589 -17.7489,-5.43661 -14.87071,-7.6752 -34.53842,-22.0662 -58.84323,-43.17301 -4.3173,-3.8376 -11.0331,-9.91381 -20.3073,-17.90881 -7.19551,-6.2361 -14.55091,-12.6321 -22.386014,-19.34791 -7.515302,-6.7158 -15.030605,-13.4316 -22.545908,-19.98751 C 63.480325,107.77264 56.284822,101.21674 49.409119,95.140537 33.259213,80.589631 16.789507,65.878826 0.47970019,50.84822 33.259213,84.906933 58.203623,110.49094 74.673329,127.76015 Z M 35.977514,45.091818 c 11.512805,13.751405 25.26421,29.581511 40.774516,47.490318 15.830106,18.228604 33.25921,37.096814 52.44722,56.764524 8.1549,7.995 15.51031,14.7108 22.06621,20.30731 5.4366,4.4772 11.0331,9.1143 16.78951,13.9113 3.3579,2.5584 7.5153,5.2767 12.792,8.1549 4.3173,2.23861 7.3554,3.83761 9.2742,4.31731 1.91881,0.6396 4.15741,0.9594 6.71581,1.1193 1.86541,0.0771 3.95741,-0.31437 5.1168,-1.4391 0.9218,-0.91323 1.01057,-2.8782 0.6396,-6.07621 -0.2211,-1.90602 -1.7589,-5.7564 -5.2767,-11.5128 -4.3173,-6.396 -7.67521,-11.0331 -10.39351,-14.23111 -0.1599,0 -4.9569,-5.4366 -14.5509,-16.4697 -2.5584,-2.8782 -9.59401,-10.39351 -21.10681,-22.38601 C 131.59775,106.49344 112.56964,89.544035 94.181137,74.033729 75.95253,58.523423 59.962523,45.411618 45.731418,34.698314 29.261711,21.746408 14.071205,10.233604 0,0 10.393504,14.071205 22.386009,29.101811 35.977514,45.091818 Z"
     id="path2"
     style="stroke-width:1.599"
     sodipodi:nodetypes="ccsscccccccccscsccccccccccscscccscccccsscccccccccccccccccccscccccccccccccccccscccccccc" />
</svg>
