<?xml version="1.0" encoding="UTF-8" standalone="no"?>
<svg
   xmlns:dc="http://purl.org/dc/elements/1.1/"
   xmlns:cc="http://creativecommons.org/ns#"
   xmlns:rdf="http://www.w3.org/1999/02/22-rdf-syntax-ns#"
   xmlns:svg="http://www.w3.org/2000/svg"
   xmlns="http://www.w3.org/2000/svg"
   xmlns:sodipodi="http://sodipodi.sourceforge.net/DTD/sodipodi-0.dtd"
   xmlns:inkscape="http://www.inkscape.org/namespaces/inkscape"
   version="2.0"
   viewbox="0 0 256 256"
   id="svg4"
   sodipodi:docname="shield.svg"
   inkscape:version="1.0.2-2 (e86c870879, 2021-01-15)">
  <metadata
     id="metadata10">
    <rdf:RDF>
      <cc:Work
         rdf:about="">
        <dc:format>image/svg+xml</dc:format>
        <dc:type
           rdf:resource="http://purl.org/dc/dcmitype/StillImage" />
        <dc:title></dc:title>
      </cc:Work>
    </rdf:RDF>
  </metadata>
  <defs
     id="defs8" />
  <sodipodi:namedview
     pagecolor="#ffffff"
     bordercolor="#666666"
     borderopacity="1"
     objecttolerance="10"
     gridtolerance="10"
     guidetolerance="10"
     inkscape:pageopacity="0"
     inkscape:pageshadow="2"
     inkscape:window-width="2046"
     inkscape:window-height="2054"
     id="namedview6"
     showgrid="false"
     inkscape:pagecheckerboard="true"
     showborder="false"
     inkscape:zoom="4.69"
     inkscape:cx="81.769723"
     inkscape:cy="160.28785"
     inkscape:window-x="-10"
     inkscape:window-y="0"
     inkscape:window-maximized="0"
     inkscape:current-layer="svg4" />
  <path
     d="m 9.92,178.24 c 6.56,15.52 15.68,28.96 27.2,40.32 11.68,11.68 25.28,20.96 40.8,27.52 15.52,6.56 32,9.92 49.6,9.92 17.76,0 34.56,-3.36 50.24,-9.92 15.52,-6.56 29.12,-15.68 40.8,-27.52 11.52,-11.36 20.8,-24.8 27.52,-40.32 6.56,-15.52 9.92,-32 9.92,-49.6 0,-17.6 -3.36,-34.24 -9.92,-49.92 C 239.36,63.04 230.08,49.28 218.56,37.6 206.88,26.08 193.28,16.8 177.76,10.08 162.08,3.36 145.44,0 127.52,0 109.92,0 93.28,3.36 77.92,10.08 62.4,16.8 48.8,26.08 37.12,37.6 25.6,49.28 16.48,63.04 9.92,78.72 3.36,94.4 0,111.04 0,128.64 c 0,17.6 3.36,34.24 9.92,49.6 z m -0.8,-56.8 c 0.16,-2.56 0.32,-4.64 0.48,-6.72 1.12,4.8 1.92,8 2.4,9.6 l 11.68,1.12 c 4.16,-7.36 6.88,-12.16 8.32,-14.4 -3.68,-8.64 -6.24,-14.56 -7.52,-17.28 -5.12,1.6 -9.12,2.72 -11.68,3.52 0.96,-2.24 1.76,-4.64 2.4,-6.88 0.48,-2.08 1.28,-4.48 2.08,-6.88 5.12,-1.12 8.64,-1.76 10.4,-2.08 4.8,-8.32 8,-13.92 9.6,-16.48 -1.6,-4.32 -2.72,-7.52 -3.52,-9.6 2.56,-3.2 5.12,-6.08 7.68,-8.8 2.56,-2.72 5.44,-5.28 8.48,-7.68 l -8.48,12.8 c 1.92,4.64 3.36,7.68 4,9.12 8.96,-1.6 14.72,-2.72 17.6,-3.2 4.16,-7.52 6.72,-12.32 8,-14.72 -2.88,-4.64 -4.8,-7.68 -5.92,-9.28 -6.4,1.6 -11.2,2.72 -14.4,3.52 4.48,-3.2 9.12,-6.24 13.92,-9.28 4.8,-3.04 9.92,-5.76 15.52,-8.32 -3.84,4.8 -6.56,8 -8,9.6 3.04,4.48 5.12,7.36 6.08,8.8 9.12,-0.96 15.2,-1.44 18.08,-1.92 5.28,-6.72 8.96,-11.36 10.72,-13.6 -3.68,-4.48 -6.08,-7.52 -7.2,-9.12 -1.92,0.16 -3.36,0.32 -4.32,0.48 2.56,-0.64 5.12,-1.44 7.68,-2.08 2.72,-0.48 5.44,-0.96 8.48,-1.12 3.2,3.68 5.28,6.08 6.4,7.2 h 19.52 c 3.04,-3.2 5.28,-5.6 6.72,-7.2 2.72,0.16 5.28,0.48 8,1.12 l 7.52,2.08 c -1.92,-0.16 -3.36,-0.32 -4,-0.48 -3.68,4.48 -6.24,7.52 -7.52,9.12 5.28,6.72 8.96,11.36 10.72,13.6 9.12,0.96 15.2,1.44 18.08,1.92 3.04,-4.32 5.12,-7.2 6.08,-8.8 -3.36,-4.32 -5.92,-7.52 -7.52,-9.6 5.44,2.56 10.56,5.28 15.2,8.32 4.64,3.04 9.12,6.08 13.6,9.28 -7.04,-1.76 -12,-2.88 -14.4,-3.52 -2.72,4.64 -4.48,7.68 -5.28,9.28 3.68,7.36 6.24,12.16 7.68,14.72 8.64,1.6 14.56,2.72 17.28,3.2 1.92,-4.48 3.36,-7.52 4,-9.12 -3.84,-5.76 -6.72,-9.92 -8.48,-12.8 3.2,2.56 6.08,5.12 8.8,8 2.56,2.72 4.96,5.6 7.52,8.8 -1.44,4.64 -2.4,7.68 -2.88,9.28 4.8,8.16 8,13.76 9.6,16.48 4.32,1.12 7.52,1.76 9.92,2.08 0.96,2.56 1.76,4.8 2.4,6.88 l 2.08,6.88 c -5.76,-1.6 -9.6,-2.72 -11.52,-3.52 -3.52,8.64 -5.92,14.56 -7.2,17.28 4.16,7.04 6.72,12 8,14.4 l 11.68,-1.12 c 1.12,-4.32 1.76,-7.52 2.08,-9.6 0.48,3.84 0.8,8.48 0.8,13.92 0,5.12 -0.32,10.24 -0.8,15.2 l -2.08,-8.48 c -5.92,-0.32 -9.76,-0.64 -11.68,-0.8 -3.84,6.88 -6.56,11.52 -8,13.92 3.52,8.8 5.92,14.56 7.2,17.6 4.8,-1.44 8.32,-2.56 10.72,-3.2 -0.48,1.6 -1.12,3.36 -1.6,5.12 -0.48,1.76 -1.28,3.36 -2.08,4.8 -4.96,1.28 -8.32,2.08 -9.92,2.4 -4.8,8.32 -8,13.92 -9.6,16.8 1.28,4.32 2.24,7.52 2.88,9.6 -2.56,3.04 -4.96,5.92 -7.52,8.48 -2.72,2.88 -5.6,5.44 -8.8,7.68 l 8.48,-12.8 c -1.92,-4.48 -3.36,-7.52 -4,-9.12 -8.64,1.6 -14.56,2.56 -17.28,2.88 -3.84,7.68 -6.56,12.8 -7.68,15.2 2.72,4.48 4.48,7.52 5.28,9.12 6.4,-1.6 11.2,-2.88 14.4,-3.68 -4.48,3.52 -8.96,6.88 -13.6,9.92 -4.64,2.88 -9.76,5.6 -15.2,8.32 3.68,-4.96 6.24,-8.32 7.52,-9.92 -3.04,-4.32 -5.12,-7.04 -6.08,-8.48 -9.12,0.96 -15.2,1.44 -18.08,1.6 l -10.72,13.92 c 3.68,4.48 6.24,7.36 7.52,8.8 1.76,-0.16 3.04,-0.32 4,-0.48 -2.56,0.96 -4.96,1.6 -7.52,2.08 -2.72,0.48 -5.28,0.96 -8,1.28 -3.36,-3.84 -5.6,-6.56 -6.72,-7.68 h -19.52 l -6.4,8 c -6.08,-1.12 -11.52,-2.24 -16.32,-3.68 2.08,0.32 3.52,0.48 4.32,0.48 3.52,-4.48 5.92,-7.36 7.2,-8.8 L 96.16,220.8 c -9.12,-0.64 -15.2,-1.28 -18.08,-1.6 -3.04,4.32 -5.12,7.04 -6.08,8.48 3.52,4.48 6.24,7.68 8,9.92 -5.44,-2.72 -10.72,-5.44 -15.52,-8.32 -4.8,-3.04 -9.44,-6.24 -13.92,-9.92 7.36,1.76 12.16,3.04 14.4,3.68 3.04,-4.64 4.96,-7.68 5.92,-9.12 -3.84,-7.52 -6.56,-12.48 -8,-15.2 -8.96,-1.44 -14.72,-2.4 -17.6,-2.88 -1.92,4.64 -3.36,7.68 -4,9.12 3.84,5.76 6.72,9.92 8.48,12.8 -3.04,-2.08 -5.92,-4.64 -8.48,-7.52 -2.72,-2.88 -5.28,-5.76 -7.68,-8.8 1.76,-4.8 2.88,-8 3.52,-9.6 -4.8,-8.32 -8,-13.92 -9.6,-16.8 l -10.4,-2.4 c -0.64,-1.44 -1.28,-3.04 -1.92,-4.8 -0.64,-1.76 -1.28,-3.52 -1.6,-5.12 l 10.72,3.2 c 3.68,-8.96 6.24,-14.72 7.52,-17.6 -4.32,-6.88 -7.04,-11.52 -8.32,-13.92 -5.92,0.32 -9.76,0.64 -11.68,0.8 -1.28,4.32 -2.08,7.04 -2.4,8.48 -0.32,-3.52 -0.48,-6.08 -0.48,-7.68 -0.32,-2.56 -0.48,-4.96 -0.48,-7.52 0,-2.24 0.32,-4.64 0.64,-7.04 z M 46.4,189.6 c 8,1.28 13.28,2.08 16,2.72 2.88,-7.84 4.8,-13.12 5.92,-15.68 -5.12,-8.96 -8.64,-14.88 -10.4,-17.92 -8.16,-1.12 -13.6,-1.76 -16.32,-2.08 -3.04,7.68 -4.96,12.8 -5.92,15.2 5.44,8.64 8.96,14.72 10.72,17.76 z m -2.88,-43.84 c 8.16,1.12 13.6,1.76 16.32,2.08 5.12,-8.8 8.64,-14.56 10.4,-17.6 -5.12,-9.12 -8.64,-15.2 -10.4,-18.08 -8.16,0.32 -13.6,0.64 -16.32,0.8 -3.84,8.32 -6.56,13.92 -7.68,16.48 3.68,8.16 6.24,13.6 7.68,16.32 z M 41.6,104.32 c 8.16,-1.44 13.6,-2.4 16.32,-2.88 5.12,-9.12 8.64,-15.2 10.4,-18.08 -2.88,-7.52 -4.8,-12.48 -5.92,-14.88 l -16,2.08 c -5.28,9.28 -8.96,15.36 -10.72,18.4 3.04,7.84 5.12,12.96 5.92,15.36 z m 39.52,64.32 c 9.44,0.48 15.68,0.96 18.88,1.12 4.32,-8.64 7.04,-14.56 8.48,-17.28 -5.12,-8.64 -8.64,-14.56 -10.4,-17.28 -9.44,-0.48 -15.68,-0.96 -18.88,-1.12 -4.64,8.48 -7.68,14.24 -9.12,17.12 5.6,8.64 9.28,14.56 11.04,17.44 z m -1.76,-43.68 c 9.44,-0.32 15.68,-0.64 18.88,-0.8 5.28,-9.12 8.8,-15.2 10.4,-18.08 -4.32,-8.16 -7.04,-13.6 -8.48,-16.32 -9.44,0.16 -15.68,0.32 -18.88,0.32 -5.44,9.12 -9.12,15.04 -10.88,17.92 4.32,8.32 7.36,14.08 8.96,16.96 z m -1.6,-46.72 h 20.48 c 5.28,-8.96 8.8,-14.88 10.4,-17.92 -4.32,-6.56 -7.04,-10.88 -8.48,-13.12 l -18.08,1.12 c -5.12,7.36 -8.64,12.16 -10.4,14.4 2.88,7.68 4.96,12.8 6.08,15.52 z m 5.28,133.12 c 8.48,0.48 14.4,0.96 17.28,1.28 5.12,-6.56 8.48,-11.04 10.08,-13.28 -5.12,-8.64 -8.48,-14.56 -10.08,-17.6 h -20.8 c -3.52,7.36 -5.92,12.16 -7.2,14.4 5.44,7.52 8.96,12.64 10.72,15.2 z m 34.72,19.2 h 21.12 c 4.96,-6.4 8.32,-10.72 9.92,-12.8 -4.96,-6.4 -8.32,-10.72 -9.92,-12.8 h -6.4 -14.72 c -5.12,6.4 -8.64,10.72 -10.4,12.8 5.12,6.4 8.64,10.72 10.4,12.8 z m 0,-40.16 h 21.12 c 4.96,-8.16 8.32,-13.76 9.92,-16.48 -4.96,-7.84 -8.32,-13.12 -9.92,-15.68 h -21.12 c -5.12,7.84 -8.64,13.12 -10.4,15.68 5.12,8 8.64,13.6 10.4,16.48 z m -0.32,-42.56 h 21.28 c 4.96,-8.8 8.32,-14.56 9.92,-17.6 -4.96,-9.12 -8.32,-15.2 -9.92,-18.08 h -21.28 c -4.96,9.12 -8.32,15.2 -10.08,18.08 5.12,8.96 8.48,14.72 10.08,17.6 z m 0.32,-46.88 h 21.12 c 4.96,-8.16 8.32,-13.6 9.92,-16.32 -4.96,-8.16 -8.32,-13.6 -9.92,-16.32 h -21.12 c -5.12,8.16 -8.64,13.6 -10.4,16.32 5.12,8.16 8.64,13.6 10.4,16.32 z m 0,-45.92 h 21.12 c 4.96,-6.4 8.32,-10.56 9.92,-12.48 -4.96,-6.4 -8.32,-10.72 -9.92,-12.8 h -21.12 c -5.12,6.4 -8.64,10.72 -10.4,12.8 5.12,6.08 8.64,10.24 10.4,12.48 z m 38.72,157.76 c 9.12,-0.64 15.2,-1.12 18.08,-1.28 5.28,-7.36 8.96,-12.16 10.72,-14.72 -3.2,-7.68 -5.44,-12.8 -6.72,-15.2 h -20.32 c -5.28,8.64 -8.8,14.56 -10.4,17.28 z m 0,-43.04 c 9.44,-0.48 15.68,-0.96 18.88,-1.12 5.44,-9.12 9.12,-15.2 10.88,-18.08 -4.64,-8.32 -7.68,-13.92 -9.28,-16.48 -9.44,0.48 -15.68,0.96 -18.72,1.12 -5.28,8.64 -8.8,14.56 -10.4,17.28 4.32,8.64 7.2,14.4 8.64,17.28 z m 1.76,-45.6 c 9.44,0.32 15.68,0.64 18.72,0.8 4.64,-8.48 7.68,-14.24 9.28,-17.12 -5.44,-8.96 -9.12,-14.88 -10.88,-17.92 -9.44,-0.16 -15.68,-0.32 -18.88,-0.32 -4.32,8.16 -7.04,13.6 -8.48,16.32 5.12,9.12 8.48,15.2 10.24,18.24 z m 0,-45.92 h 20.32 c 3.84,-7.36 6.56,-12.16 7.68,-14.4 -5.44,-7.52 -9.12,-12.48 -10.88,-14.88 -8.48,-0.64 -14.24,-1.28 -17.12,-1.6 -5.28,6.24 -8.8,10.4 -10.4,12.48 5.28,9.28 8.64,15.36 10.4,18.4 z m 39.84,69.44 c 8,-0.32 13.44,-0.64 16.32,-0.8 3.84,-8.48 6.56,-14.24 7.68,-17.12 -3.68,-8 -6.08,-13.28 -7.2,-16 -8.32,-1.44 -13.92,-2.24 -16.8,-2.72 -4.96,9.28 -8.32,15.36 -9.92,18.4 4.96,9.12 8.32,15.2 9.92,18.24 z m -4.32,44.48 c 8.16,-1.44 13.6,-2.24 16.32,-2.72 5.12,-8.96 8.48,-14.88 10.08,-17.92 -2.72,-7.68 -4.48,-12.8 -5.28,-15.2 -8.16,1.12 -13.6,1.76 -16.32,2.08 -4.96,9.12 -8.32,15.04 -10.08,17.92 2.72,8 4.48,13.28 5.28,15.84 z m 4.8,-90.72 c 8,1.44 13.44,2.4 16.32,2.88 2.72,-7.84 4.48,-12.96 5.28,-15.52 -4.96,-9.28 -8.32,-15.36 -10.08,-18.4 -8.16,-1.12 -13.6,-1.76 -16.32,-2.08 -2.72,7.84 -4.48,12.96 -5.28,15.52 5.12,8.64 8.48,14.56 10.08,17.6 z"
     id="path2"
     style="stroke-width:1.6" />
</svg>
