<?xml version="1.0" encoding="UTF-8" standalone="no"?>
<svg
   xmlns:dc="http://purl.org/dc/elements/1.1/"
   xmlns:cc="http://creativecommons.org/ns#"
   xmlns:rdf="http://www.w3.org/1999/02/22-rdf-syntax-ns#"
   xmlns:svg="http://www.w3.org/2000/svg"
   xmlns="http://www.w3.org/2000/svg"
   xmlns:sodipodi="http://sodipodi.sourceforge.net/DTD/sodipodi-0.dtd"
   xmlns:inkscape="http://www.inkscape.org/namespaces/inkscape"
   version="2.0"
   viewbox="0 0 256 256"
   id="svg8"
   sodipodi:docname="action.svg"
   inkscape:version="1.0.2 (e86c8708, 2021-01-15)">
  <metadata
     id="metadata14">
    <rdf:RDF>
      <cc:Work
         rdf:about="">
        <dc:format>image/svg+xml</dc:format>
        <dc:type
           rdf:resource="http://purl.org/dc/dcmitype/StillImage" />
        <dc:title />
      </cc:Work>
    </rdf:RDF>
  </metadata>
  <defs
     id="defs12" />
  <sodipodi:namedview
     pagecolor="#ffffff"
     bordercolor="#666666"
     borderopacity="1"
     objecttolerance="10"
     gridtolerance="10"
     guidetolerance="10"
     inkscape:pageopacity="0"
     inkscape:pageshadow="2"
     inkscape:window-width="2046"
     inkscape:window-height="1387"
     id="namedview10"
     showgrid="false"
     inkscape:pagecheckerboard="true"
     showborder="false"
     inkscape:zoom="4.69"
     inkscape:cx="73.240938"
     inkscape:cy="109.11514"
     inkscape:window-x="-10"
     inkscape:window-y="25"
     inkscape:window-maximized="0"
     inkscape:current-layer="svg8"
     inkscape:document-rotation="0" />
  <g
     id="g21">
    <path
       d="m 157.44,198.4 c 0,-16.64 0,-33.28 0,-49.92 -11.52,0 -21.76,0 -33.28,0 0,-33.28 0,-66.56 0,-99.84 11.52,0 21.76,0 33.28,0 0,-16.64 0,-32 0,-48.64 33.28,33.28 65.28,65.28 98.56,98.56 -32,33.28 -65.28,66.56 -98.56,99.84 z"
       id="path2"
       style="stroke-width:1.6" />
    <path
       d="M 0,148.48 C 33.28,115.2 65.28,83.2 98.56,49.92 c 0,33.28 0,65.28 0,98.56 -33.28,0 -66.56,0 -98.56,0 z"
       id="path4"
       style="stroke-width:1.6" />
  </g>
</svg>
