<?xml version="1.0" encoding="UTF-8" standalone="no"?>
<svg
   xmlns:dc="http://purl.org/dc/elements/1.1/"
   xmlns:cc="http://creativecommons.org/ns#"
   xmlns:rdf="http://www.w3.org/1999/02/22-rdf-syntax-ns#"
   xmlns:svg="http://www.w3.org/2000/svg"
   xmlns="http://www.w3.org/2000/svg"
   xmlns:sodipodi="http://sodipodi.sourceforge.net/DTD/sodipodi-0.dtd"
   xmlns:inkscape="http://www.inkscape.org/namespaces/inkscape"
   width="210mm"
   height="297mm"
   viewBox="0 0 210 297"
   version="1.1"
   id="svg1487"
   inkscape:version="1.0.2-2 (e86c870879, 2021-01-15)"
   sodipodi:docname="armor.svg">
  <defs
     id="defs1481" />
  <sodipodi:namedview
     id="base"
     pagecolor="#ffffff"
     bordercolor="#666666"
     borderopacity="1.0"
     inkscape:pageopacity="0.0"
     inkscape:pageshadow="2"
     inkscape:zoom="0.35"
     inkscape:cx="400"
     inkscape:cy="560"
     inkscape:document-units="mm"
     inkscape:current-layer="layer1"
     inkscape:document-rotation="0"
     showgrid="false"
     inkscape:pagecheckerboard="true"
     showborder="false"
     inkscape:window-width="1267"
     inkscape:window-height="1198"
     inkscape:window-x="104"
     inkscape:window-y="104"
     inkscape:window-maximized="0" />
  <metadata
     id="metadata1484">
    <rdf:RDF>
      <cc:Work
         rdf:about="">
        <dc:format>image/svg+xml</dc:format>
        <dc:type
           rdf:resource="http://purl.org/dc/dcmitype/StillImage" />
        <dc:title></dc:title>
      </cc:Work>
    </rdf:RDF>
  </metadata>
  <g
     inkscape:label="Layer 1"
     inkscape:groupmode="layer"
     id="layer1">
    <path
       d="m 189.6672,80.938193 q -3.65135,-11.156892 -7.3027,-21.096667 -3.04279,-8.51981 -6.38986,-16.938195 -3.34706,-8.418384 -5.7813,-12.881139 10.95405,19.879551 19.47386,36.107762 3.65134,6.896987 7.09983,13.692548 3.4485,6.795569 6.08558,12.374014 2.63709,5.578446 4.15848,9.432644 1.5214,3.8542 1.5214,4.86846 l -8.92552,-12.982563 q -1.62282,-2.434231 -3.34707,-4.767038 -1.72424,-2.332806 -3.04279,-4.057054 -1.31854,-1.724241 -2.3328,-2.738507 -1.01426,-1.014265 -1.21711,-1.014265 z m 12.57685,52.741677 q -0.60856,8.51981 -0.4057,15.61965 0.20285,6.08558 0.91284,11.5626 0.70998,5.47702 2.53565,7.09984 1.62283,1.21712 2.94137,2.43423 1.31854,1.21712 2.73851,2.23139 -1.41997,2.63708 -3.04279,3.95562 -1.62282,1.31854 -5.27417,1.31854 -1.62282,0.60856 -3.8542,0.10143 -2.23138,-0.50713 -4.46276,-2.73851 -2.43423,-2.63708 -6.69414,-4.76704 -4.2599,-2.12995 -9.12836,-4.36133 -8.31696,-3.24564 -20.48811,-5.7813 -12.17116,-2.53566 -29.81934,-3.54992 -17.64817,1.01426 -29.81933,3.54992 -12.171157,2.53566 -20.488117,5.7813 -4.868462,2.23138 -9.229792,4.36133 -4.36133,2.12996 -6.592711,4.76704 -2.434232,2.23138 -4.56418,2.73851 -2.129957,0.50713 -4.36133,-0.10143 -3.245647,0 -4.767038,-1.31854 -1.521398,-1.31854 -2.738514,-3.95562 1.014266,-1.01427 2.332806,-2.23139 1.318541,-1.21711 2.738514,-2.43423 2.028524,-1.62282 2.738507,-7.09984 0.709983,-5.47702 0.91284,-11.5626 0.20285,-7.09984 -0.202857,-15.61965 -2.434232,-3.24564 -3.854197,-7.91125 -1.419966,-4.66561 -2.028524,-8.92551 -0.811416,-5.07132 -1.014266,-10.34549 l 15.213946,20.69097 q 0,-0.20285 -0.405707,4.2599 -0.405701,4.46276 -0.912833,11.05547 -0.507133,6.59271 -1.115691,13.99683 -0.608558,7.40412 -1.217116,12.88114 3.448497,-1.62282 7.201269,-3.04279 3.752772,-1.41997 7.201269,-2.63708 -2.839939,-3.24564 -5.882728,-11.5626 -3.042789,-8.31696 -4.868463,-24.95087 2.434232,-3.04279 5.781296,-5.27416 3.347072,-2.23139 7.099844,-3.65135 3.752772,-1.41997 7.911252,-2.12996 4.15848,-0.70998 8.012677,-0.91283 9.128364,-0.60856 19.068144,0.81141 l 17.85103,-41.990494 17.85103,41.990494 q 9.93978,-1.41997 19.06814,-0.81141 7.70841,0.4057 15.82251,3.04279 8.11411,2.63708 12.98257,8.92551 -1.82567,16.63391 -4.96989,24.84944 -3.14422,8.21553 -5.7813,11.66403 3.4485,1.21711 7.20127,2.63708 3.75277,1.41997 6.59271,3.04279 -0.40571,-5.47702 -0.91284,-12.88114 -0.50713,-7.40412 -0.91283,-13.99683 -0.40571,-6.59271 -0.81142,-11.05547 -0.4057,-4.46275 -0.4057,-4.2599 l 14.60539,-20.69097 q 0,5.27417 -0.81142,10.34549 -0.60855,4.2599 -1.9271,8.92551 -1.31854,4.66561 -3.54992,7.91125 z M 256,98.992078 216.03803,101.83202 q -3.85419,-23.936617 -6.69413,-42.80191 -1.21712,-7.911252 -2.33281,-15.619646 -1.11569,-7.708402 -1.9271,-13.79398 -0.81141,-6.085578 -1.31854,-9.83835 -0.50713,-3.752772 -0.30428,-3.752772 0.20286,-0.202858 5.27417,1.11569 5.07131,1.318541 11.66402,4.969888 6.59271,3.651347 13.18542,10.142625 6.59272,6.491287 10.24406,16.63392 3.24564,9.331217 5.47702,18.256735 2.23138,8.92551 3.8542,16.025354 1.82567,8.31696 2.83994,15.822504 z m -32.05072,-1.622824 26.77655,-2.028523 q -1.01427,-6.896987 -2.43423,-13.996831 -1.21712,-6.085578 -2.94137,-13.388272 -1.72424,-7.302694 -3.75277,-13.99683 -0.81141,-2.434232 -1.11569,0.20285 -0.30427,2.637089 -0.70998,7.708401 -0.40571,5.071313 -1.21712,10.954042 -0.81141,5.882728 -2.23138,9.736925 -1.62281,4.259905 -3.65135,7.201269 -2.02852,2.941364 -4.05704,4.56418 -2.23138,2.028531 -4.66562,3.042789 z M 66.738512,80.938193 q -0.608558,-0.202851 -3.752772,3.752772 -3.144214,3.955629 -6.592711,8.824092 -4.057055,5.679871 -9.128368,12.982563 0,-1.01426 1.622824,-4.86846 1.622816,-3.854198 4.36133,-9.432644 2.738506,-5.578445 6.187003,-12.374014 3.448497,-6.795561 7.099844,-13.692548 8.316952,-16.228211 19.270993,-36.107762 -2.231373,4.462755 -5.47702,12.881139 -3.24564,8.418385 -6.288429,16.938195 -3.651347,9.939775 -7.302694,21.096667 z M 39.961967,101.83202 0,98.992078 Q 1.2171157,91.486534 3.0427892,83.169574 4.6656127,76.06973 6.8969939,67.14422 9.1283676,58.218702 12.576865,48.887485 16.228212,38.744852 22.820923,32.253565 29.413634,25.762287 36.006338,22.11094 q 6.592711,-3.651347 11.562598,-4.969888 4.969896,-1.318548 5.172746,-1.11569 0.20285,0 -0.304283,3.752772 -0.507125,3.752772 -1.419966,9.83835 -0.912833,6.085578 -2.028523,13.79398 -1.115691,7.708394 -2.332806,15.619646 -2.83994,18.865293 -6.694137,42.80191 z m -7.911252,-4.462766 q -2.434231,-1.014258 -4.665612,-3.042789 -2.028524,-1.622816 -3.955622,-4.56418 -1.927099,-2.941364 -3.549922,-7.201269 -1.419966,-3.854197 -2.129957,-9.736925 -0.709983,-5.882729 -1.115683,-10.954042 -0.405707,-5.071312 -0.811415,-7.708401 -0.4057,-2.637082 -1.217116,-0.20285 -2.231374,6.694136 -3.752772,13.99683 Q 9.3312253,75.258322 8.1141096,81.3439 6.6941362,88.443744 5.6798783,95.340731 Z M 128.20285,5.6798783 q -4.66561,0 -8.62123,0.20285 -3.95563,0.2028501 -7.60698,0.7099829 -3.65134,0.5071328 -7.20127,1.3185407 -3.54992,0.8114156 -7.404116,2.0285312 Q 96.152139,8.7226675 94.02219,7.7084018 91.892234,6.6941362 91.080826,5.6798783 99.600635,3.0427892 108.42472,1.5213984 117.24881,0 128.20285,0 q 10.75119,0 19.57528,1.5213984 8.82408,1.5213908 17.54675,4.1584799 -1.01426,1.0142579 -3.14421,2.0285235 -2.12996,1.0142657 -3.75278,2.2313813 -7.50555,-2.2313813 -14.19968,-3.2456469 -6.69414,-1.0142579 -16.02536,-1.0142579 z m 0,171.8161617 q 7.50555,0 14.09826,-0.30428 6.59271,-0.30428 12.57686,-0.70999 5.98415,-0.4057 11.86688,-1.11569 5.88273,-0.70998 12.17115,-1.72425 2.63709,1.01427 5.98416,1.92711 3.34706,0.91283 4.76704,1.9271 -13.99683,2.63708 -28.70365,4.15848 -14.70682,1.52139 -32.7607,1.52139 -18.05388,0 -32.760694,-1.52139 -14.706814,-1.5214 -28.703644,-4.15848 1.419966,-1.01427 4.868463,-1.9271 3.448497,-0.91284 5.882728,-1.92711 6.288429,1.01427 12.069724,1.72425 5.781304,0.70999 11.765453,1.11569 5.98415,0.40571 12.57686,0.70999 6.59271,0.30428 14.30111,0.30428 z M 192.10143,14.605388 h 0.20285 q 0.4057,0 0.4057,0.405708 v 1.217116 q 0,0.608557 -0.20285,1.419965 -0.20285,0.811416 -0.4057,1.825674 l -7.09985,8.114109 -17.85102,-8.114109 1.41996,-8.72266 -7.50554,11.765449 24.34231,12.171157 6.69414,-14.808238 q 0,2.637081 -0.20286,5.578445 -0.20285,2.941364 0.20286,5.172746 v 7.809819 q 0,0 2.83993,15.112521 -6.89699,-6.491279 -12.27258,-12.779715 -5.3756,-6.288428 -12.47544,-10.751183 l -11.76545,-7.099844 31.23931,58.015845 q -0.40571,0 -1.31855,1.927098 -0.91284,1.927106 -1.9271,4.15848 -1.21712,2.637089 -2.43423,5.882728 L 146.05388,94.732173 128.20285,74.041206 110.35182,94.732173 72.418383,92.906499 Q 70.795567,89.66086 69.781301,87.023771 68.767036,84.792397 67.955628,82.865291 67.14422,80.938193 66.738512,80.938193 L 97.774962,22.922348 85.806655,30.022192 Q 78.706819,34.484947 73.331223,40.773375 67.955628,47.061811 61.464342,53.55309 64.101431,44.62758 64.101431,38.440569 V 30.63075 q 0.4057,-2.231382 0.20285,-5.172746 -0.20285,-2.941364 -0.608558,-5.578445 l 6.896986,14.808238 24.748022,-12.171157 -7.911252,-11.765449 1.825673,8.72266 -17.851027,8.114109 -7.708402,-8.114109 q 0,-1.014258 -0.101425,-1.825674 -0.101425,-0.811408 -0.101425,-1.419965 -0.202858,-0.811408 -0.202858,-1.217116 0.405708,-0.405708 0.811416,-0.405708 v -0.4057 q 2.231373,-1.622823 5.88272,-3.245647 3.651347,-1.6228157 7.099844,-2.6370813 l 6.491287,-0.4057078 q 1.622815,0 3.042781,1.0142656 1.217116,1.6228235 5.679878,3.4484965 4.462755,1.825674 10.446909,3.347065 5.98415,1.521398 12.67829,2.535656 6.69414,1.014266 12.77971,0.811416 6.08558,0.20285 12.67829,-0.811416 6.59271,-1.014258 12.57686,-2.535656 5.98415,-1.521391 10.34548,-3.347065 4.36133,-1.825673 5.78131,-3.4484965 1.62281,-1.0142656 3.24564,-1.0142656 l 6.49128,0.4057078 q 3.44849,1.0142656 6.99841,2.6370813 3.54993,1.622824 5.3756,3.245647 z"
       id="path36"
       style="display:inline;stroke-width:0.202852"
       inkscape:label="Armour" />
  </g>
</svg>
