<?xml version="1.0" encoding="UTF-8" standalone="no"?>
<svg
   xmlns:dc="http://purl.org/dc/elements/1.1/"
   xmlns:cc="http://creativecommons.org/ns#"
   xmlns:rdf="http://www.w3.org/1999/02/22-rdf-syntax-ns#"
   xmlns:svg="http://www.w3.org/2000/svg"
   xmlns="http://www.w3.org/2000/svg"
   xmlns:sodipodi="http://sodipodi.sourceforge.net/DTD/sodipodi-0.dtd"
   xmlns:inkscape="http://www.inkscape.org/namespaces/inkscape"
   version="2.0"
   viewbox="0 0 256 256"
   id="svg6"
   sodipodi:docname="damage.svg"
   inkscape:version="1.0.2-2 (e86c870879, 2021-01-15)">
  <metadata
     id="metadata12">
    <rdf:RDF>
      <cc:Work
         rdf:about="">
        <dc:format>image/svg+xml</dc:format>
        <dc:type
           rdf:resource="http://purl.org/dc/dcmitype/StillImage" />
        <dc:title></dc:title>
      </cc:Work>
    </rdf:RDF>
  </metadata>
  <defs
     id="defs10" />
  <sodipodi:namedview
     pagecolor="#ffffff"
     bordercolor="#666666"
     borderopacity="1"
     objecttolerance="10"
     gridtolerance="10"
     guidetolerance="10"
     inkscape:pageopacity="0"
     inkscape:pageshadow="2"
     inkscape:window-width="2046"
     inkscape:window-height="2054"
     id="namedview8"
     showgrid="false"
     inkscape:zoom="2.345"
     inkscape:cx="70.946017"
     inkscape:cy="26.071051"
     inkscape:window-x="-10"
     inkscape:window-y="0"
     inkscape:window-maximized="0"
     inkscape:current-layer="svg6"
     inkscape:pagecheckerboard="true"
     showborder="false" />
  <g
     id="g4"
     transform="matrix(1.6181448,0,0,1.6118533,304.22072,-512.20868)">
    <path
       d="m -187.8,320.5 1.8,-1.8 c 0.8,-0.8 1.6,-1.6 3.2,0 11.9,7.9 23,15.9 34.9,23.8 0.8,0.8 1.6,0.8 1.6,0.8 23.8,-14.3 47.6,-15.1 71.4,0 2.4,-1.6 5.6,-4 8.7,-5.6 9.5,-6.3 19,-12.7 28.6,-19 1.6,-0.8 2.4,-0.8 3.2,0 1.6,1.6 1.827613,2.01544 3.591707,3.70984 C -29.875409,323.40321 -31.2,325.1 -31.2,325.1 c -7.9,11.9 -15.9,23 -23,34.9 -0.8,1.6 -0.8,2.4 0,3.2 13.5,22.2 12.7,45.2 0,68.2 -0.8,1.6 -0.8,2.4 0,3.2 7.9,11.1 15.9,23 23.8,34.1 0.8,0.8 0.8,1.6 0,3.2 -4,5.6 -4,5.6 -8.7,1.6 -11.1,-7.1 -21.4,-14.3 -32.5,-21.4 -0.8,-0.8 -1.6,-0.8 -2.4,0 -11.1,7.1 -23.8,9.5 -37.3,9.5 -11.1,-0.8 -21.4,-3.2 -30.9,-9.5 -1.08824,-0.68433 -1.43529,-0.61142 -2.4,0 -11.9,7.9 -23.8,15.9 -34.9,23.8 -1.41882,0.97351 -2.35272,0.94212 -3.55742,-0.16359 C -184.91728,474.19484 -185.9,473.5 -187.5,471.9 c -0.41446,-0.45995 -0.63176,-0.95482 0,-1.6 8.57368,-12.13046 17.39951,-25.65858 24.6,-36.5 0.8,-0.8 0,-1.6 0,-2.4 -12.7,-23 -13.5,-45.2 0,-68.2 0.8,-1.6 0.8,-1.6 0,-3.2 -7.41933,-11.41619 -18.1671,-29.78422 -23.8,-36.5 -1.6,-1.9 -1.4,-2.6 -1.1,-3 z m 24,129 c 0.8,0 0.8,0 0,0 4,-1.6 7.1,-4 10.3,-6.3 7.9,-5.6 15.9,-11.1 24.6,-15.9 11.1,-6.3 22.2,-6.3 34.1,-0.8 9.5,4.8 18.2,11.1 26.2,16.7 3.2,2.4 6.3,4.8 9.5,6.3 -1.9788,-4.40032 -8.689091,-15.35449 -11.9,-19.8 -4,-5.6 -7.1,-11.9 -10.3,-17.4 -3.2,-6.3 -4.8,-13.5 -3.2,-20.6 0.8,-5.6 4,-11.1 6.3,-15.9 4,-6.3 8.7,-12.7 12.7,-19 2.4,-4 4.8,-7.9 7.1,-11.9 -8.947005,5.93729 -20.450125,13.20486 -28.6,19 -5.6,3.2 -11.1,6.3 -17.4,7.1 -8.7,1.6 -17.4,0 -24.6,-4.8 -8.7,-4.8 -16.7,-10.3 -24.6,-15.9 -3.2,-2.4 -6.3,-4 -9.5,-6.3 6.18554,10.15891 13.80144,21.83254 19.8,30.9 1.6,3.2 3.2,6.3 4.8,9.5 2.4,4.8 3.2,10.3 2.4,15.9 -0.8,7.1 -4,12.7 -7.1,18.2 -6.5655,11.65814 -13.87562,20.91903 -20.6,31 z"
       id="path2"
       sodipodi:nodetypes="csccccccscccccccccccccccccccccccccccccccccccccccccccsccc" />
  </g>
</svg>
