<?xml version="1.0" encoding="UTF-8" standalone="no"?>
<svg
   xmlns:dc="http://purl.org/dc/elements/1.1/"
   xmlns:cc="http://creativecommons.org/ns#"
   xmlns:rdf="http://www.w3.org/1999/02/22-rdf-syntax-ns#"
   xmlns:svg="http://www.w3.org/2000/svg"
   xmlns="http://www.w3.org/2000/svg"
   xmlns:sodipodi="http://sodipodi.sourceforge.net/DTD/sodipodi-0.dtd"
   xmlns:inkscape="http://www.inkscape.org/namespaces/inkscape"
   version="2.0"
   viewbox="0 0 256 256"
   id="svg6"
   sodipodi:docname="damage.svg"
   inkscape:version="1.0.2 (e86c8708, 2021-01-15)">
  <metadata
     id="metadata12">
    <rdf:RDF>
      <cc:Work
         rdf:about="">
        <dc:format>image/svg+xml</dc:format>
        <dc:type
           rdf:resource="http://purl.org/dc/dcmitype/StillImage" />
        <dc:title />
      </cc:Work>
    </rdf:RDF>
  </metadata>
  <defs
     id="defs10" />
  <sodipodi:namedview
     pagecolor="#ffffff"
     bordercolor="#666666"
     borderopacity="1"
     objecttolerance="10"
     gridtolerance="10"
     guidetolerance="10"
     inkscape:pageopacity="0"
     inkscape:pageshadow="2"
     inkscape:window-width="2046"
     inkscape:window-height="1387"
     id="namedview8"
     showgrid="false"
     inkscape:zoom="2.345"
     inkscape:cx="70.946017"
     inkscape:cy="26.071051"
     inkscape:window-x="-10"
     inkscape:window-y="25"
     inkscape:window-maximized="0"
     inkscape:current-layer="svg6"
     inkscape:pagecheckerboard="true"
     showborder="false"
     inkscape:document-rotation="0" />
  <path
     d="M 0.33312656,4.3903026 3.2457872,1.4889667 c 1.2945158,-1.28948263 2.5890317,-2.5789653 5.1780634,0 C 27.679774,14.222608 45.641181,27.117434 64.897104,39.851075 c 1.294516,1.289483 2.589032,1.289483 2.589032,1.289483 38.511844,-23.049502 77.023694,-24.338985 115.535534,0 3.88355,-2.578965 9.06162,-6.447413 14.07786,-9.026379 15.37238,-10.154675 30.74476,-20.470536 46.27895,-30.6252123 2.58903,-1.28948263 3.88354,-1.28948263 5.17806,0 2.58903,2.5789653 2.95734,3.2485936 5.8119,5.9797179 1.50954,1.6011667 -0.63384,4.3361434 -0.63384,4.3361434 -12.78334,19.181054 -25.7285,37.072626 -37.21733,56.25368 -1.29451,2.578965 -1.29451,3.868448 0,5.157931 21.84496,35.783141 20.55044,72.855771 0,109.928391 -1.29451,2.57897 -1.29451,3.86845 0,5.15793 12.78335,17.89158 25.7285,37.07263 38.51185,54.9642 1.29451,1.28948 1.29451,2.57897 0,5.15793 -6.47258,9.02638 -6.47258,9.02638 -14.07786,2.57897 -17.96141,-11.44416 -34.6283,-23.0495 -52.58971,-34.49366 -1.29451,-1.28949 -2.58903,-1.28949 -3.88355,0 -17.9614,11.44416 -38.51184,15.3126 -60.3568,15.3126 -17.9614,-1.28948 -34.628295,-5.15793 -50.000671,-15.3126 -1.760929,-1.10304 -2.322507,-0.98552 -3.883547,0 -19.255923,12.73364 -38.511846,25.62846 -56.473254,38.36211 -2.295856,1.56915 -3.8070412,1.51855 -5.7564203,-0.26369 -3.0095228,-2.48478 -4.599706,-3.60476 -7.1887377,-6.18373 -0.67065629,-0.74137 -1.02227916,-1.53903 0,-2.57896 13.873456,-19.55252 28.154927,-41.35787 39.806362,-58.83265 1.294516,-1.28948 0,-2.57896 0,-3.86845 -20.550439,-37.07262 -21.844955,-72.85577 0,-109.928391 1.294516,-2.578966 1.294516,-2.578966 0,-5.157931 C 28.619382,49.657284 11.227934,20.050715 2.1130858,9.2258625 -0.47594584,6.1633413 -0.15231688,5.035044 0.33312656,4.3903026 Z M 39.168602,212.31938 c 1.294516,0 1.294516,0 0,0 6.472579,-2.57897 11.488828,-6.44741 16.666891,-10.15468 12.783344,-9.02638 25.728503,-17.89157 39.806362,-25.62846 17.961405,-10.15468 35.922815,-10.15468 55.178735,-1.28949 15.37238,7.7369 29.45024,17.89157 42.3954,26.91795 5.17806,3.86845 10.19431,7.7369 15.37237,10.15468 -3.20198,-7.09267 -14.06021,-24.74919 -19.25592,-31.9147 -6.47258,-9.02638 -11.48883,-19.18105 -16.66689,-28.04624 -5.17807,-10.15468 -7.7671,-21.76002 -5.17807,-33.20418 1.29452,-9.02638 6.47258,-17.89157 10.19432,-25.62847 6.47258,-10.154676 14.07786,-20.470537 20.55044,-30.625213 3.88354,-6.447413 7.76709,-12.733641 11.48882,-19.181054 -14.47755,9.570041 -33.09126,21.284297 -46.27894,30.625213 -9.06161,5.15793 -17.9614,10.154676 -28.15572,11.444158 -14.07786,2.578966 -28.15572,0 -39.806359,-7.736896 C 81.402181,70.315103 68.457023,61.449909 55.673679,52.423531 50.495615,48.555083 45.479366,45.976118 40.301303,42.268855 c 10.0091,16.374673 22.332728,35.190852 32.039267,49.806267 2.589032,5.157931 5.178064,10.154678 7.767095,15.312608 3.883548,7.73689 5.178064,16.60209 3.883548,25.62847 -1.294516,11.44415 -6.472579,20.47053 -11.488828,29.33573 -10.62393,18.79121 -22.452763,33.7184 -33.333783,49.96745 z"
     id="path2"
     sodipodi:nodetypes="csccccccscccccccccccccccccccccccccccccccccccccccccccsccc"
     style="stroke-width:1.615" />
</svg>
