<?xml version="1.0" encoding="UTF-8" standalone="no"?>
<svg
   xmlns:dc="http://purl.org/dc/elements/1.1/"
   xmlns:cc="http://creativecommons.org/ns#"
   xmlns:rdf="http://www.w3.org/1999/02/22-rdf-syntax-ns#"
   xmlns:svg="http://www.w3.org/2000/svg"
   xmlns="http://www.w3.org/2000/svg"
   xmlns:sodipodi="http://sodipodi.sourceforge.net/DTD/sodipodi-0.dtd"
   xmlns:inkscape="http://www.inkscape.org/namespaces/inkscape"
   version="2.0"
   viewbox="0 0 256 256"
   id="svg12"
   sodipodi:docname="dodge.svg"
   inkscape:version="1.0.2-2 (e86c870879, 2021-01-15)">
  <metadata
     id="metadata18">
    <rdf:RDF>
      <cc:Work
         rdf:about="">
        <dc:format>image/svg+xml</dc:format>
        <dc:type
           rdf:resource="http://purl.org/dc/dcmitype/StillImage" />
        <dc:title></dc:title>
      </cc:Work>
    </rdf:RDF>
  </metadata>
  <defs
     id="defs16" />
  <sodipodi:namedview
     pagecolor="#ffffff"
     bordercolor="#666666"
     borderopacity="1"
     objecttolerance="10"
     gridtolerance="10"
     guidetolerance="10"
     inkscape:pageopacity="0"
     inkscape:pageshadow="2"
     inkscape:window-width="2604"
     inkscape:window-height="2044"
     id="namedview14"
     showgrid="false"
     inkscape:pagecheckerboard="true"
     showborder="false"
     inkscape:zoom="6.6326616"
     inkscape:cx="69.76457"
     inkscape:cy="58.576043"
     inkscape:window-x="-10"
     inkscape:window-y="0"
     inkscape:window-maximized="0"
     inkscape:current-layer="svg12" />
  <g
     id="g10"
     transform="translate(188.96531,-316.99817)">
    <path
       d="m -176.9,355.7 c 14.4,13.6 27.9,27.9 42.3,41.5 -14.4,14.4 -27.9,28.7 -42.3,43.1 -16.65454,-21.32981 -16.7714,-63.69181 0,-84.6 z"
       id="path2"
       sodipodi:nodetypes="cccc" />
    <path
       d="m -151.4,329.3 c 25.6,-16 59.1,-16.8 84.6,0 -13.6,14.4 -27.9,27.9 -41.5,42.3 -15.1,-14.4 -28.7,-27.9 -43.1,-42.3 z"
       id="path4" />
    <path
       d="m -109.1,422.7 c 13.6,14.4 27.9,27.9 41.5,42.3 -18.4,16 -64.7,16 -83.8,0 14.4,-13.6 28,-27.9 42.3,-42.3 z"
       id="path6" />
    <path
       d="m -40.4,439.5 c -14.4,-13.6 -27.9,-27.9 -43.1,-41.5 14.4,-14.4 27.9,-27.9 42.3,-42.3 16,23.9 16,58.2 0.8,83.8 z"
       id="path8" />
  </g>
</svg>
