<?xml version="1.0" encoding="UTF-8" standalone="no"?>
<svg
   xmlns:dc="http://purl.org/dc/elements/1.1/"
   xmlns:cc="http://creativecommons.org/ns#"
   xmlns:rdf="http://www.w3.org/1999/02/22-rdf-syntax-ns#"
   xmlns:svg="http://www.w3.org/2000/svg"
   xmlns="http://www.w3.org/2000/svg"
   xmlns:sodipodi="http://sodipodi.sourceforge.net/DTD/sodipodi-0.dtd"
   xmlns:inkscape="http://www.inkscape.org/namespaces/inkscape"
   version="2.0"
   viewbox="0 0 256 256"
   id="svg12"
   sodipodi:docname="dodge.svg"
   inkscape:version="1.0.2 (e86c8708, 2021-01-15)">
  <metadata
     id="metadata18">
    <rdf:RDF>
      <cc:Work
         rdf:about="">
        <dc:format>image/svg+xml</dc:format>
        <dc:type
           rdf:resource="http://purl.org/dc/dcmitype/StillImage" />
        <dc:title />
      </cc:Work>
    </rdf:RDF>
  </metadata>
  <defs
     id="defs16" />
  <sodipodi:namedview
     pagecolor="#ffffff"
     bordercolor="#666666"
     borderopacity="1"
     objecttolerance="10"
     gridtolerance="10"
     guidetolerance="10"
     inkscape:pageopacity="0"
     inkscape:pageshadow="2"
     inkscape:window-width="2604"
     inkscape:window-height="1387"
     id="namedview14"
     showgrid="false"
     inkscape:pagecheckerboard="true"
     showborder="false"
     inkscape:zoom="3.3163308"
     inkscape:cx="60.799289"
     inkscape:cy="165.99219"
     inkscape:window-x="0"
     inkscape:window-y="25"
     inkscape:window-maximized="0"
     inkscape:current-layer="svg12"
     inkscape:document-rotation="0" />
  <g
     id="g27">
    <path
       d="m 20.013509,61.922221 c 22.991619,21.759751 44.546261,44.639489 67.53788,66.399239 -22.991619,23.03974 -44.546262,45.91948 -67.53788,68.95921 -26.5913085,-34.1273 -26.7778918,-101.905728 0,-135.358449 z"
       id="path2"
       sodipodi:nodetypes="cccc"
       style="stroke-width:1.59831" />
    <path
       d="m 60.727834,19.682704 c 40.873986,-25.5997074 94.361436,-26.8796927 135.075756,0 C 174.08929,42.72244 151.25733,64.322193 129.54303,87.36193 105.43376,64.322193 83.719453,42.72244 60.727834,19.682704 Z"
       id="path4"
       style="stroke-width:1.59831" />
    <path
       d="m 128.26571,169.12099 c 21.71431,23.03974 44.54627,44.63949 66.26057,67.67923 -29.37818,25.59971 -103.302618,25.59971 -133.798446,0 22.991619,-21.75975 44.705926,-44.63949 67.537876,-67.67923 z"
       id="path6"
       style="stroke-width:1.59831" />
    <path
       d="m 237.9549,196.00069 c -22.99162,-21.75975 -44.54627,-44.63949 -68.8152,-66.39924 22.99162,-23.03974 44.54626,-44.639493 67.53788,-67.679229 25.54625,38.239559 25.54625,93.118939 1.27732,134.078469 z"
       id="path8"
       style="stroke-width:1.59831" />
  </g>
</svg>
