<?xml version="1.0" encoding="UTF-8" standalone="no"?>
<svg
   xmlns:dc="http://purl.org/dc/elements/1.1/"
   xmlns:cc="http://creativecommons.org/ns#"
   xmlns:rdf="http://www.w3.org/1999/02/22-rdf-syntax-ns#"
   xmlns:svg="http://www.w3.org/2000/svg"
   xmlns="http://www.w3.org/2000/svg"
   xmlns:sodipodi="http://sodipodi.sourceforge.net/DTD/sodipodi-0.dtd"
   xmlns:inkscape="http://www.inkscape.org/namespaces/inkscape"
   width="210mm"
   height="297mm"
   viewBox="0 0 210 297"
   version="1.1"
   id="svg898"
   inkscape:version="1.0.2-2 (e86c870879, 2021-01-15)"
   sodipodi:docname="equipment.svg">
  <defs
     id="defs892" />
  <sodipodi:namedview
     id="base"
     pagecolor="#ffffff"
     bordercolor="#666666"
     borderopacity="1.0"
     inkscape:pageopacity="0.0"
     inkscape:pageshadow="2"
     inkscape:zoom="0.35"
     inkscape:cx="400"
     inkscape:cy="560"
     inkscape:document-units="mm"
     inkscape:current-layer="layer1"
     inkscape:document-rotation="0"
     showgrid="false"
     inkscape:pagecheckerboard="true"
     showborder="false"
     inkscape:window-width="1267"
     inkscape:window-height="1198"
     inkscape:window-x="52"
     inkscape:window-y="52"
     inkscape:window-maximized="0" />
  <metadata
     id="metadata895">
    <rdf:RDF>
      <cc:Work
         rdf:about="">
        <dc:format>image/svg+xml</dc:format>
        <dc:type
           rdf:resource="http://purl.org/dc/dcmitype/StillImage" />
        <dc:title></dc:title>
      </cc:Work>
    </rdf:RDF>
  </metadata>
  <g
     inkscape:label="Layer 1"
     inkscape:groupmode="layer"
     id="layer1">
    <path
       d="m 157.70243,7.1323387 q 4.58508,2.0378108 4.58508,3.0567163 -0.25473,1.273632 -4.58508,0.509452 v 0.76418 L 151.589,38.718408 q 3.31145,1.273631 2.54727,2.037811 0,0.764179 -3.05672,0.764179 l -1.78309,7.641791 q 3.05672,1.018905 2.54727,2.292537 l -5.34925,19.868657 q -0.50946,0.509452 -2.29254,0.509452 l -0.25473,2.292537 q 1.52836,1.018906 1.27363,1.528358 l -1.27363,5.858707 7.64179,1.783084 L 116.69149,256 H 81.539253 46.387015 L 11.744232,83.295521 l 8.40597,-2.03781 -0.764179,-3.820895 q -3.311449,0.509452 -5.476625,0 -2.165166,-0.509453 -2.165166,-1.273633 -0.254733,-2.292537 6.113433,-4.8398 L 16.58403,64.700497 H 12.508411 L 9.9611408,50.435821 q 0,-0.509453 0.8915402,-1.018906 0.891551,-0.509452 2.165176,-1.018905 L 11.489499,40.756219 Q 7.4138805,41.265672 6.9044246,39.992039 6.6497014,39.482587 7.9233365,38.718408 9.1969619,37.954229 10.72532,37.444776 L 8.9422387,29.548259 Q 5.3760664,30.057711 2.8288059,29.675622 0.28154543,29.293532 0.02681264,28.274627 -0.22791052,27.000995 1.9372652,25.727364 4.102441,24.453731 7.6686037,23.434826 L 5.3760664,11.462687 V 0.7641791 L 9.7064177,9.1701495 13.527313,22.161194 q 4.075619,-0.509452 6.750251,-0.127363 2.674622,0.382089 2.929354,1.910447 0.254724,1.018906 -2.165175,2.165175 -2.419899,1.146269 -5.986072,2.4199 l 2.037815,7.387065 q 2.037804,0 3.438801,0.254726 1.400996,0.254727 1.400996,0.764179 0,1.018906 -3.820895,2.80199 l 2.292537,7.387064 q 2.547261,0 3.056717,0.76418 0.509455,1.528358 1.273635,3.566169 0.509446,1.783084 1.146263,3.948259 0.636818,2.165174 1.146274,4.202985 0.764179,2.292537 -2.037814,3.820896 l 1.783081,6.368159 q 3.311449,-0.254726 5.603987,0.127363 2.292537,0.38209 2.54726,1.146268 0,1.273632 -1.783081,2.292537 -1.783091,1.018906 -4.585075,2.292537 l 1.018902,3.311444 7.896515,-1.783085 -5.349254,-23.434826 6.113433,2.801991 1.783091,-4.075623 14.009947,5.603981 -1.783082,4.330348 3.566163,1.528358 2.292537,8.40597 4.585075,-1.273632 -0.509446,-3.056716 2.801983,-0.509453 -3.566162,-13.755224 -2.801994,1.018906 -0.764179,-4.075622 3.056717,-0.509453 -2.292538,-7.64179 9.934329,-2.547265 2.037814,7.641792 2.54726,-0.509454 1.018903,3.56617 -2.801984,0.764179 3.31144,13.755224 2.801993,-1.018905 1.018902,3.311442 3.056716,-0.764179 3.056717,0.764179 0.764179,-3.311442 3.056716,1.018905 3.31144,-13.755224 -2.801984,-0.764179 0.764179,-3.56617 2.801984,0.509454 2.037814,-7.641792 9.934332,2.547265 -2.03782,7.64179 2.802,0.509453 -0.76418,4.075622 -2.802,-1.018906 -3.566159,13.755224 3.056719,0.509453 -1.01891,3.056716 4.83979,1.273632 2.29254,-8.40597 3.31145,-1.528358 -1.52836,-4.330348 14.00995,-5.603981 1.78308,4.075623 6.11343,-2.801991 -5.60397,23.434826 6.62288,1.528358 1.78309,-6.368159 q 0,-1.018905 1.78308,-1.018905 l 0.50945,-2.292538 q -0.25472,-0.254726 -0.38208,-0.509453 -0.12737,-0.254726 -0.3821,-0.509452 l -0.25472,-0.254727 5.34925,-19.868656 q 0.25473,-0.76418 2.29254,-0.76418 l 2.03781,-7.387064 q -1.27363,-0.509453 -2.29254,-1.146268 -1.0189,-0.636816 -0.50945,-1.146269 0,-1.018905 3.8209,-0.509453 L 153.11736,9.1701495 Q 151.589,8.6606968 150.5701,8.0238809 q -1.01891,-0.6368159 -0.76418,-1.400995 0,-0.7641791 4.83979,-0.2547263 l 1.7831,-2.5472641 Q 151.589,2.2925373 151.589,0.7641791 151.84373,0 153.62681,0 q 1.78308,0 4.58508,0.7641791 2.80199,0.7641791 4.45771,1.9104478 1.65572,1.1462686 1.65572,1.6557217 -0.50946,0.509453 -2.29254,0.509453 -1.78308,0 -4.33035,-0.509453 z M 67.78403,245.04676 q 5.09453,0 8.533331,-3.56617 3.438811,-3.56617 3.438811,-8.6607 0,-4.83979 -3.438811,-8.40597 -3.438801,-3.56617 -8.533331,-3.56617 -5.094531,0 -8.533332,3.56617 -3.438811,3.56618 -3.438811,8.40597 0,5.09453 3.438811,8.6607 3.438801,3.56617 8.533332,3.56617 z m 31.07662,0 q 5.09452,0 8.40596,-3.56617 3.31145,-3.56617 3.31145,-8.6607 0,-4.83979 -3.31145,-8.40597 -3.31144,-3.56617 -8.40596,-3.56617 -5.094531,0 -8.660703,3.56617 -3.566163,3.56618 -3.566163,8.40597 0,5.09453 3.566163,8.6607 3.566172,3.56617 8.660703,3.56617 z M 130.95616,96.54129 H 81.539253 70.33129 v 24.45374 H 81.539253 130.95616 Z M 31.867612,242.49951 46.387015,256 11.744232,242.75422 V 83.295521 Z m 99.598008,0 L 151.589,83.295521 V 242.75422 L 116.69149,256 Z"
       id="path38"
       style="display:inline;stroke-width:0.254726"
       inkscape:label="Equipment" />
  </g>
</svg>
