<?xml version="1.0" encoding="UTF-8" standalone="no"?>
<svg
   xmlns:dc="http://purl.org/dc/elements/1.1/"
   xmlns:cc="http://creativecommons.org/ns#"
   xmlns:rdf="http://www.w3.org/1999/02/22-rdf-syntax-ns#"
   xmlns:svg="http://www.w3.org/2000/svg"
   xmlns="http://www.w3.org/2000/svg"
   xmlns:sodipodi="http://sodipodi.sourceforge.net/DTD/sodipodi-0.dtd"
   xmlns:inkscape="http://www.inkscape.org/namespaces/inkscape"
   version="2.0"
   viewbox="0 0 256 256"
   id="svg8"
   sodipodi:docname="evade.svg"
   inkscape:version="1.0.2 (e86c8708, 2021-01-15)">
  <metadata
     id="metadata14">
    <rdf:RDF>
      <cc:Work
         rdf:about="">
        <dc:format>image/svg+xml</dc:format>
        <dc:type
           rdf:resource="http://purl.org/dc/dcmitype/StillImage" />
        <dc:title />
      </cc:Work>
    </rdf:RDF>
  </metadata>
  <defs
     id="defs12" />
  <sodipodi:namedview
     pagecolor="#ffffff"
     bordercolor="#666666"
     borderopacity="1"
     objecttolerance="10"
     gridtolerance="10"
     guidetolerance="10"
     inkscape:pageopacity="0"
     inkscape:pageshadow="2"
     inkscape:window-width="2604"
     inkscape:window-height="1387"
     id="namedview10"
     showgrid="false"
     inkscape:pagecheckerboard="true"
     showborder="false"
     inkscape:zoom="3.3163308"
     inkscape:cx="164.92668"
     inkscape:cy="34.101169"
     inkscape:window-x="-10"
     inkscape:window-y="25"
     inkscape:window-maximized="0"
     inkscape:current-layer="svg8"
     inkscape:document-rotation="0" />
  <g
     id="g21">
    <path
       d="M 0.20413825,117.82122 C 0.50010089,112.64055 1.4841842,107.5842 2.7642302,102.4657 16.844736,36.085059 75.566846,-3.583369 137.00905,0.25551114 158.91603,2.604058 182.94659,6.6695121 195.73116,19.449912 c -10.0667,10.81734 -21.56712,23.231463 -30.7211,33.270295 -1.28005,1.279626 -2.56009,2.559253 -3.84014,1.279626 -29.44106,-12.796267 -57.44206,-7.67776 -83.042982,11.516641 -21.760782,16.635147 -39.681426,52.304746 -25.60092,89.413916 2.560092,5.11851 1.280046,8.95739 -2.560092,12.79627 -8.960321,8.95739 -17.920644,19.1944 -28.161012,28.15179 C 11.343515,179.30846 4.6689067,156.67684 1.3241785,139.73482 -0.06131129,132.55309 -0.21302874,125.12337 0.20413825,117.82122 Z"
       id="path2"
       sodipodi:nodetypes="acccccccscca"
       style="stroke-width:1.5998" />
    <path
       d="m 60.206294,235.38692 c 11.520414,-11.51664 21.760782,-21.75365 33.281197,-33.27029 1.280046,-1.27963 2.560092,0 3.840138,0 20.480731,7.67776 39.681421,8.95738 60.002151,1.27962 40.96148,-15.35552 61.28221,-57.42325 47.36171,-98.3713 -1.28005,-3.83888 -3.84014,-7.677761 -2.5601,-10.237015 1.28005,-2.559253 5.12019,-5.118507 7.68028,-7.67776 8.96032,-8.957387 17.92064,-17.914774 26.88097,-26.872161 11.52041,19.1944 19.20069,40.948056 19.20069,62.541756 1.28004,33.27029 -8.96033,63.82138 -30.72111,89.41392 -49.92179,55.1839 -122.72441,52.62465 -164.965926,23.19323 z"
       id="path4"
       style="stroke-width:1.5998" />
  </g>
</svg>
