<?xml version="1.0" encoding="UTF-8" standalone="no"?>
<svg
   xmlns:dc="http://purl.org/dc/elements/1.1/"
   xmlns:cc="http://creativecommons.org/ns#"
   xmlns:rdf="http://www.w3.org/1999/02/22-rdf-syntax-ns#"
   xmlns:svg="http://www.w3.org/2000/svg"
   xmlns="http://www.w3.org/2000/svg"
   xmlns:sodipodi="http://sodipodi.sourceforge.net/DTD/sodipodi-0.dtd"
   xmlns:inkscape="http://www.inkscape.org/namespaces/inkscape"
   version="2.0"
   viewbox="0 0 256 256"
   id="svg8"
   sodipodi:docname="evade.svg"
   inkscape:version="1.0.2-2 (e86c870879, 2021-01-15)">
  <metadata
     id="metadata14">
    <rdf:RDF>
      <cc:Work
         rdf:about="">
        <dc:format>image/svg+xml</dc:format>
        <dc:type
           rdf:resource="http://purl.org/dc/dcmitype/StillImage" />
        <dc:title></dc:title>
      </cc:Work>
    </rdf:RDF>
  </metadata>
  <defs
     id="defs12" />
  <sodipodi:namedview
     pagecolor="#ffffff"
     bordercolor="#666666"
     borderopacity="1"
     objecttolerance="10"
     gridtolerance="10"
     guidetolerance="10"
     inkscape:pageopacity="0"
     inkscape:pageshadow="2"
     inkscape:window-width="2604"
     inkscape:window-height="2054"
     id="namedview10"
     showgrid="false"
     inkscape:pagecheckerboard="true"
     showborder="false"
     inkscape:zoom="18.76"
     inkscape:cx="112.87522"
     inkscape:cy="73.355265"
     inkscape:window-x="-10"
     inkscape:window-y="0"
     inkscape:window-maximized="0"
     inkscape:current-layer="svg8" />
  <g
     id="g6"
     transform="translate(188.9,-316.94026)">
    <path
       d="m -188.9,390.6 c 0.18497,-3.23886 0.8,-6.4 1.6,-9.6 8.8,-41.5 45.5,-66.3 83.9,-63.9 13.691367,1.46827 28.709925,4.00992 36.7,12 -6.291463,6.76281 -13.478971,14.5239 -19.2,20.8 -0.8,0.8 -1.6,1.6 -2.4,0.8 -18.4,-8 -35.9,-4.8 -51.9,7.2 -13.6,10.4 -24.8,32.7 -16,55.9 1.6,3.2 0.8,5.6 -1.6,8 -5.6,5.6 -11.2,12 -17.6,17.6 -6.53814,-10.35926 -10.70962,-24.50815 -12.8,-35.1 -0.8659,-4.48989 -0.96072,-9.13482 -0.7,-13.7 z"
       id="path2"
       sodipodi:nodetypes="acccccccscca" />
    <path
       d="m -151.4,464.1 c 7.2,-7.2 13.6,-13.6 20.8,-20.8 0.8,-0.8 1.6,0 2.4,0 12.8,4.8 24.8,5.6 37.5,0.8 25.6,-9.6 38.3,-35.9 29.6,-61.5 -0.8,-2.4 -2.4,-4.8 -1.6,-6.4 0.8,-1.6 3.2,-3.2 4.8,-4.8 5.6,-5.6 11.2,-11.2 16.8,-16.8 7.2,12 12,25.6 12,39.1 0.8,20.8 -5.6,39.9 -19.2,55.9 -31.2,34.5 -76.7,32.9 -103.1,14.5 z"
       id="path4" />
  </g>
</svg>
