<?xml version="1.0" encoding="UTF-8" standalone="no"?>
<svg
   xmlns:dc="http://purl.org/dc/elements/1.1/"
   xmlns:cc="http://creativecommons.org/ns#"
   xmlns:rdf="http://www.w3.org/1999/02/22-rdf-syntax-ns#"
   xmlns:svg="http://www.w3.org/2000/svg"
   xmlns="http://www.w3.org/2000/svg"
   xmlns:sodipodi="http://sodipodi.sourceforge.net/DTD/sodipodi-0.dtd"
   xmlns:inkscape="http://www.inkscape.org/namespaces/inkscape"
   version="2.0"
   viewbox="0 0 256 256"
   id="svg8"
   sodipodi:docname="insight.svg"
   inkscape:version="1.0.2-2 (e86c870879, 2021-01-15)">
  <metadata
     id="metadata14">
    <rdf:RDF>
      <cc:Work
         rdf:about="">
        <dc:format>image/svg+xml</dc:format>
        <dc:type
           rdf:resource="http://purl.org/dc/dcmitype/StillImage" />
        <dc:title></dc:title>
      </cc:Work>
    </rdf:RDF>
  </metadata>
  <defs
     id="defs12" />
  <sodipodi:namedview
     pagecolor="#ffffff"
     bordercolor="#666666"
     borderopacity="1"
     objecttolerance="10"
     gridtolerance="10"
     guidetolerance="10"
     inkscape:pageopacity="0"
     inkscape:pageshadow="2"
     inkscape:window-width="2604"
     inkscape:window-height="2054"
     id="namedview10"
     showgrid="false"
     inkscape:pagecheckerboard="true"
     showborder="false"
     inkscape:zoom="13.265323"
     inkscape:cx="85.316235"
     inkscape:cy="57.857808"
     inkscape:window-x="-10"
     inkscape:window-y="0"
     inkscape:window-maximized="0"
     inkscape:current-layer="svg8" />
  <g
     id="g6"
     transform="translate(189,-342.03061)">
    <path
       d="m -189,393.1 c 0.56753,-3.70947 1.9,-7.3 3.5,-10.7 5.1,-11 13.8,-18.6 24,-24.6 13.2,-7.8 27.3,-12.9 42.5,-15.1 11.2,-1.6 22.1,-0.2 32.9,2.8 12.5,3.4 24.3,8.6 35,16 6.8,4.7 12.8,10.4 17,17.7 6.9,11.9 7,24 0,35.9 -5.8,9.8 -14.4,16.8 -24.1,22.3 -12,6.8 -24.9,11.3 -38.5,13.6 -12.2,2.1 -24.1,0.8 -35.8,-2.5 -14.7,-4.1 -28.5,-10.2 -40.2,-20.3 -6.4,-5.6 -11.4,-12.2 -14.4,-20.2 -1.55131,-4.85446 -2.56228,-10.22924 -1.9,-14.9 z m 79.9,-37.4 c -22.5,-0.2 -41.1,18.2 -41.3,40.9 -0.2,22.7 17.9,41.3 40.4,41.5 23.2,0.2 41.9,-17.9 42,-40.7 0.3,-23 -18,-41.5 -41.1,-41.7 z"
       id="path2"
       sodipodi:nodetypes="cccccccccccccccsccc" />
    <path
       d="m -89.6,396.5 c 0.8,7.8 -4.6,15.5 -13,18.8 -7.7,3 -16.9,0.3 -22.3,-6.6 -5.2,-6.7 -5.2,-16.3 -0.2,-23.2 5,-6.9 14,-9.5 17.9,-7.7 -3.2,5.3 -3.2,10.6 0.7,15.5 4.7,5.8 10.5,6.3 16.9,3.2 z"
       id="path4" />
  </g>
</svg>
