<?xml version="1.0" encoding="UTF-8" standalone="no"?>
<svg
   xmlns:dc="http://purl.org/dc/elements/1.1/"
   xmlns:cc="http://creativecommons.org/ns#"
   xmlns:rdf="http://www.w3.org/1999/02/22-rdf-syntax-ns#"
   xmlns:svg="http://www.w3.org/2000/svg"
   xmlns="http://www.w3.org/2000/svg"
   xmlns:sodipodi="http://sodipodi.sourceforge.net/DTD/sodipodi-0.dtd"
   xmlns:inkscape="http://www.inkscape.org/namespaces/inkscape"
   version="2.0"
   viewbox="0 0 256 256"
   id="svg8"
   sodipodi:docname="insight.svg"
   inkscape:version="1.0.2 (e86c8708, 2021-01-15)">
  <metadata
     id="metadata14">
    <rdf:RDF>
      <cc:Work
         rdf:about="">
        <dc:format>image/svg+xml</dc:format>
        <dc:type
           rdf:resource="http://purl.org/dc/dcmitype/StillImage" />
        <dc:title />
      </cc:Work>
    </rdf:RDF>
  </metadata>
  <defs
     id="defs12" />
  <sodipodi:namedview
     pagecolor="#ffffff"
     bordercolor="#666666"
     borderopacity="1"
     objecttolerance="10"
     gridtolerance="10"
     guidetolerance="10"
     inkscape:pageopacity="0"
     inkscape:pageshadow="2"
     inkscape:window-width="2604"
     inkscape:window-height="1387"
     id="namedview10"
     showgrid="false"
     inkscape:pagecheckerboard="true"
     showborder="false"
     inkscape:zoom="6.6326615"
     inkscape:cx="57.634154"
     inkscape:cy="57.057994"
     inkscape:window-x="-10"
     inkscape:window-y="25"
     inkscape:window-maximized="0"
     inkscape:current-layer="svg8"
     inkscape:document-rotation="0" />
  <g
     id="g27">
    <path
       d="M 0.32958976,81.548448 C 1.2358311,75.625105 3.3635413,69.891687 5.9184479,64.462511 14.062213,46.897528 27.954517,34.761722 44.242046,25.180822 65.320025,12.725653 87.835139,4.5818882 112.10675,1.0688917 c 17.88435,-2.5549065 35.28965,-0.3193633 52.53527,4.4710865 19.96021,5.4291768 38.80264,13.7326228 55.88858,25.5490658 10.85835,7.505038 20.43925,16.606892 27.14588,28.263654 11.01804,19.002117 11.17772,38.323598 0,57.325712 -9.26154,15.64881 -22.99416,26.82652 -38.48328,35.60901 -19.1618,10.85836 -39.76073,18.04403 -61.47744,21.71671 -19.48116,3.35331 -38.48328,1.27745 -57.166032,-3.99204 C 67.076524,163.46514 45.040455,153.72456 26.3577,137.59671 16.138074,128.65454 8.1539911,118.11555 3.3635413,105.34102 0.88638374,97.589333 -0.72794994,89.006795 0.32958976,81.548448 Z M 127.91524,21.827508 C 91.986863,21.508144 62.286074,50.88957 61.966711,87.137306 61.647347,123.38504 90.549728,153.08583 126.4781,153.4052 c 37.04615,0.31936 66.90662,-28.58302 67.0663,-64.99044 0.47904,-36.726782 -28.7427,-66.267889 -65.62916,-66.587252 z"
       id="path2"
       sodipodi:nodetypes="cccccccccccccccsccc"
       style="stroke-width:1.59682" />
    <path
       d="m 159.05316,86.977625 c 1.27745,12.455169 -7.34536,24.750655 -20.75862,30.020155 -12.29548,4.79045 -26.9862,0.47904 -35.60901,-10.53899 -8.303442,-10.698674 -8.303442,-26.028113 -0.31936,-37.046148 7.98408,-11.018034 22.35543,-15.169757 28.58302,-12.295488 -5.10982,8.463128 -5.10982,16.926256 1.11777,24.750658 7.50504,9.261536 16.76657,10.059944 26.9862,5.109813 z"
       id="path4"
       style="stroke-width:1.59682" />
  </g>
</svg>
