<?xml version="1.0" encoding="UTF-8" standalone="no"?>
<svg
   xmlns:dc="http://purl.org/dc/elements/1.1/"
   xmlns:cc="http://creativecommons.org/ns#"
   xmlns:rdf="http://www.w3.org/1999/02/22-rdf-syntax-ns#"
   xmlns:svg="http://www.w3.org/2000/svg"
   xmlns="http://www.w3.org/2000/svg"
   xmlns:sodipodi="http://sodipodi.sourceforge.net/DTD/sodipodi-0.dtd"
   xmlns:inkscape="http://www.inkscape.org/namespaces/inkscape"
   version="2.0"
   viewbox="0 0 256 256"
   id="svg8"
   sodipodi:docname="melee.svg"
   inkscape:version="1.0.2 (e86c8708, 2021-01-15)">
  <metadata
     id="metadata14">
    <rdf:RDF>
      <cc:Work
         rdf:about="">
        <dc:format>image/svg+xml</dc:format>
        <dc:type
           rdf:resource="http://purl.org/dc/dcmitype/StillImage" />
        <dc:title />
      </cc:Work>
    </rdf:RDF>
  </metadata>
  <defs
     id="defs12" />
  <sodipodi:namedview
     pagecolor="#ffffff"
     bordercolor="#666666"
     borderopacity="1"
     objecttolerance="10"
     gridtolerance="10"
     guidetolerance="10"
     inkscape:pageopacity="0"
     inkscape:pageshadow="2"
     inkscape:window-width="2046"
     inkscape:window-height="1387"
     id="namedview10"
     showgrid="false"
     inkscape:pagecheckerboard="true"
     showborder="false"
     inkscape:zoom="2.345"
     inkscape:cx="-48.926889"
     inkscape:cy="138.78185"
     inkscape:window-x="-10"
     inkscape:window-y="25"
     inkscape:window-maximized="0"
     inkscape:current-layer="svg8"
     inkscape:document-rotation="0" />
  <g
     id="g21">
    <path
       d="m 68.49071,-1e-5 c 0.6401,8.00125 1.120175,16.0025 1.760275,24.00375 1.760275,22.08345 3.52055,44.006875 5.280825,66.090325 0.160025,2.88045 1.120175,4.320675 4.000625,5.280825 19.363025,6.56103 33.445225,19.203 40.006245,38.72605 13.60213,40.3263 -15.84247,81.61275 -56.648845,82.25285 C 26.724185,216.99389 2.88046,189.78964 0.480085,159.54491 -0.13092245,156.66394 1e-5,153.97432 1e-5,150.90356 c 0.82689718,-7.93131 2.7478693,-15.7128 5.280825,-21.7634 7.36115,-17.60275 20.80325,-28.96452 39.206125,-34.40537 1.2802,-0.32005 2.720425,-0.480075 2.720425,-2.5604 1.120175,-16.6426 2.400375,-33.445225 3.8406,-50.087825 1.120175,-14.0822 2.5604,-28.1644 3.8406,-42.086575 z m -22.4035,101.7759 c -9.490619,3.76078 -19.928617,14.30124 -24.00375,21.60338 -4.960775,9.12142 -6.401,18.72292 -4.16065,28.96452 0.32005,1.60025 0.96015,2.24035 2.720425,2.08033 3.2005,-0.48008 6.401,-0.80013 9.761525,-1.12018 6.72105,-0.80012 13.4421,-1.60025 20.4832,-2.40037 -1.2802,-8.16128 -3.040475,-16.32255 -3.8406,-24.48383 -0.800125,-8.16127 -0.800125,-16.48257 -0.96015,-24.64385 z m 30.0847,-0.16003 c 0.160025,1.28021 0.32005,2.24035 0.32005,3.2005 0,6.56103 0.480075,13.28208 0,19.68308 -1.37996,9.4433 -3.03273,17.63208 -4.16065,26.2441 10.8817,1.2802 21.44335,2.40037 32.005,3.68057 5.7609,-20.00312 -8.481325,-46.72729 -28.1644,-52.80825 z m -30.564775,82.89296 v -24.16378 c -8.64135,-0.80013 -17.122675,-1.76028 -26.2441,-2.72043 5.7609,12.48195 13.4421,21.7634 26.2441,26.88421 z m 32.005,0 c 12.48195,-5.76091 21.1233,-14.24223 25.924045,-27.36428 -8.961395,1.12017 -17.602745,2.24035 -25.924045,3.36052 z"
       id="path2"
       sodipodi:nodetypes="ccccccccccccccccccccsccscccccccccccc"
       style="stroke-width:1.60025" />
    <path
       d="m 45.76716,222.91481 c 10.56165,2.88045 20.80325,2.72043 31.204875,0 0,11.20175 -0.6401,21.92343 -6.401,31.68495 -0.32005,0.6401 -1.2802,1.2802 -2.080325,1.2802 -4.640725,0.16003 -9.441475,0.16003 -14.0822,0 -0.800125,0 -2.080325,-0.96015 -2.5604,-1.76027 -5.903354,-10.62062 -5.509885,-20.74276 -6.08095,-31.20488 z"
       id="path4"
       sodipodi:nodetypes="ccccccc"
       style="stroke-width:1.60025" />
  </g>
</svg>
