<?xml version="1.0" encoding="UTF-8" standalone="no"?>
<svg
   xmlns:dc="http://purl.org/dc/elements/1.1/"
   xmlns:cc="http://creativecommons.org/ns#"
   xmlns:rdf="http://www.w3.org/1999/02/22-rdf-syntax-ns#"
   xmlns:svg="http://www.w3.org/2000/svg"
   xmlns="http://www.w3.org/2000/svg"
   xmlns:sodipodi="http://sodipodi.sourceforge.net/DTD/sodipodi-0.dtd"
   xmlns:inkscape="http://www.inkscape.org/namespaces/inkscape"
   version="2.0"
   viewbox="0 0 256 256"
   id="svg8"
   sodipodi:docname="melee.svg"
   inkscape:version="1.0.2-2 (e86c870879, 2021-01-15)">
  <metadata
     id="metadata14">
    <rdf:RDF>
      <cc:Work
         rdf:about="">
        <dc:format>image/svg+xml</dc:format>
        <dc:type
           rdf:resource="http://purl.org/dc/dcmitype/StillImage" />
        <dc:title></dc:title>
      </cc:Work>
    </rdf:RDF>
  </metadata>
  <defs
     id="defs12" />
  <sodipodi:namedview
     pagecolor="#ffffff"
     bordercolor="#666666"
     borderopacity="1"
     objecttolerance="10"
     gridtolerance="10"
     guidetolerance="10"
     inkscape:pageopacity="0"
     inkscape:pageshadow="2"
     inkscape:window-width="2046"
     inkscape:window-height="2054"
     id="namedview10"
     showgrid="false"
     inkscape:pagecheckerboard="true"
     showborder="false"
     inkscape:zoom="6.6326616"
     inkscape:cx="9.3661293"
     inkscape:cy="131.42969"
     inkscape:window-x="-10"
     inkscape:window-y="0"
     inkscape:window-maximized="0"
     inkscape:current-layer="svg8" />
  <g
     id="g6"
     transform="matrix(1.60025,0,0,1.60025,235.87686,-507.27926)">
    <path
       d="m -104.6,317 c 0.4,5 0.7,10 1.1,15 1.1,13.8 2.2,27.5 3.3,41.3 0.1,1.8 0.7,2.7 2.5,3.3 12.1,4.1 20.9,12 25,24.2 8.5,25.2 -9.9,51 -35.4,51.4 -22.6,0.4 -37.5,-16.6 -39,-35.5 -0.38182,-1.80033 -0.3,-3.48108 -0.3,-5.4 0.51673,-4.9563 1.71715,-9.81897 3.3,-13.6 4.6,-11 13,-18.1 24.5,-21.5 0.8,-0.2 1.7,-0.3 1.7,-1.6 0.7,-10.4 1.5,-20.9 2.4,-31.3 0.7,-8.8 1.6,-17.6 2.4,-26.3 z m -14,63.6 c -5.93071,2.35012 -12.45344,8.93688 -15,13.5 -3.1,5.7 -4,11.7 -2.6,18.1 0.2,1 0.6,1.4 1.7,1.3 2,-0.3 4,-0.5 6.1,-0.7 4.2,-0.5 8.4,-1 12.8,-1.5 -0.8,-5.1 -1.9,-10.2 -2.4,-15.3 -0.5,-5.1 -0.5,-10.3 -0.6,-15.4 z m 18.8,-0.1 c 0.1,0.8 0.2,1.4 0.2,2 0,4.1 0.3,8.3 0,12.3 -0.86234,5.90114 -1.89516,11.01833 -2.6,16.4 6.8,0.8 13.4,1.5 20,2.3 3.6,-12.5 -5.3,-29.2 -17.6,-33 z m -19.1,51.8 v -15.1 c -5.4,-0.5 -10.7,-1.1 -16.4,-1.7 3.6,7.8 8.4,13.6 16.4,16.8 z m 20,0 c 7.8,-3.6 13.2,-8.9 16.2,-17.1 -5.6,0.7 -11,1.4 -16.2,2.1 z"
       id="path2"
       sodipodi:nodetypes="ccccccccccccccccccccsccscccccccccccc" />
    <path
       d="m -118.8,456.3 c 6.6,1.8 13,1.7 19.5,0 0,7 -0.4,13.7 -4,19.8 -0.2,0.4 -0.8,0.8 -1.3,0.8 -2.9,0.1 -5.9,0.1 -8.8,0 -0.5,0 -1.3,-0.6 -1.6,-1.1 -3.68902,-6.63685 -3.44314,-12.9622 -3.8,-19.5 z"
       id="path4"
       sodipodi:nodetypes="ccccccc" />
  </g>
</svg>
