<?xml version="1.0" encoding="UTF-8" standalone="no"?>
<svg
   xmlns:dc="http://purl.org/dc/elements/1.1/"
   xmlns:cc="http://creativecommons.org/ns#"
   xmlns:rdf="http://www.w3.org/1999/02/22-rdf-syntax-ns#"
   xmlns:svg="http://www.w3.org/2000/svg"
   xmlns="http://www.w3.org/2000/svg"
   xmlns:sodipodi="http://sodipodi.sourceforge.net/DTD/sodipodi-0.dtd"
   xmlns:inkscape="http://www.inkscape.org/namespaces/inkscape"
   width="210mm"
   height="297mm"
   viewBox="0 0 210 297"
   version="1.1"
   id="svg2076"
   inkscape:version="1.0.2-2 (e86c870879, 2021-01-15)"
   sodipodi:docname="ranged.svg">
  <defs
     id="defs2070" />
  <sodipodi:namedview
     id="base"
     pagecolor="#ffffff"
     bordercolor="#666666"
     borderopacity="1.0"
     inkscape:pageopacity="0.0"
     inkscape:pageshadow="2"
     inkscape:zoom="0.35"
     inkscape:cx="400"
     inkscape:cy="560"
     inkscape:document-units="mm"
     inkscape:current-layer="layer1"
     inkscape:document-rotation="0"
     showgrid="false"
     inkscape:pagecheckerboard="true"
     showborder="false"
     inkscape:window-width="1267"
     inkscape:window-height="1198"
     inkscape:window-x="156"
     inkscape:window-y="156"
     inkscape:window-maximized="0" />
  <metadata
     id="metadata2073">
    <rdf:RDF>
      <cc:Work
         rdf:about="">
        <dc:format>image/svg+xml</dc:format>
        <dc:type
           rdf:resource="http://purl.org/dc/dcmitype/StillImage" />
        <dc:title></dc:title>
      </cc:Work>
    </rdf:RDF>
  </metadata>
  <g
     inkscape:label="Layer 1"
     inkscape:groupmode="layer"
     id="layer1">
    <path
       d="m 204.48167,0 q 4.88606,6.3518736 9.89428,12.337307 5.0082,5.985423 10.38288,12.092997 -4.88607,3.420246 -8.42846,5.618973 -3.5424,2.198728 -6.84049,4.275306 -3.29809,2.076568 -6.84048,4.397455 -3.5424,2.320878 -8.42846,5.496814 -1.46582,1.710119 -0.73291,3.298096 0.73291,1.587969 -0.97721,3.298087 -4.15315,3.420246 -7.20694,5.985424 -3.05379,2.565187 -5.86327,4.886064 -2.80949,2.320878 -5.86328,4.886065 -3.05378,2.565177 -7.20694,5.985423 -0.73291,0.73291 -1.22152,0.61076 -0.4886,-0.12216 -0.85506,-0.855069 l -0.73291,-1.465818 q 0,0 -0.85506,-0.977209 -3.90884,3.420246 -5.00821,4.153155 -1.09936,0.732909 -1.58797,1.099359 -0.48861,0.366459 -1.71012,1.221518 -1.22152,0.85506 -5.13036,4.519606 l -2.19873,1.465818 q 0,0 -0.2443,2.443028 0.4886,1.465818 1.09936,1.587977 0.61076,0.12215 1.34367,-0.488609 0.73291,-0.610759 1.46582,-1.099368 0.73291,-0.4886 1.22151,-0.2443 7.8177,8.79491 15.26894,17.834121 7.45124,9.03922 14.78033,18.07843 1.71013,0.97721 0.12216,1.83227 -1.58798,0.85507 -2.07658,1.58798 1.22151,1.46581 2.19873,2.80947 0.97721,1.34367 2.19873,2.80949 -7.32909,5.86327 -12.45946,10.13858 -5.13036,4.2753 -9.16137,7.57339 -4.03099,3.2981 -7.69554,6.35188 l -8.062,6.71834 q -6.59618,5.37466 -11.23794,5.86327 -4.64176,0.48861 -8.55061,-0.97721 -3.90884,-1.46582 -7.20694,-3.54239 -3.29809,-2.07658 -6.96263,-2.07658 -4.15316,2.68733 -5.74113,5.13036 -1.58797,2.44303 -1.22152,5.37468 0.36646,2.93162 2.19873,6.22972 1.83228,3.2981 4.03101,7.20694 4.64175,8.55061 8.5506,15.8797 3.90885,7.3291 8.062,15.6354 2.93164,5.13036 5.49682,10.26073 2.56518,5.13036 3.29809,9.89427 0.73291,4.76391 -1.34367,9.28352 -2.07657,4.5196 -8.67275,8.67276 -5.13036,3.42023 -9.64998,2.80948 -4.5196,-0.61076 -10.38288,-2.80948 -6.59618,-6.59619 -8.428448,-12.58161 -1.832278,-5.98542 -4.031005,-13.31452 -2.443028,-8.79491 -4.641759,-16.61261 -2.198728,-7.8177 -4.641755,-17.10121 -1.221519,-3.90885 -1.954428,-9.16137 -0.732909,-5.25251 -2.931637,-7.45124 -1.710118,-1.95443 -4.153155,-2.68734 -2.443028,-0.73291 -4.886055,-1.34367 -2.443037,-0.61075 -4.763915,-1.83226 -2.320877,-1.22152 -3.542396,-4.15316 -3.420237,2.68734 -5.741123,4.27531 -2.320878,1.58796 -4.519606,-0.36645 -1.954418,-1.71013 -1.343668,-3.5424 0.610759,-1.83228 2.320887,-3.5424 1.710118,-1.71012 4.030996,-3.42024 2.320877,-1.71012 4.275305,-3.66455 -2.931637,-5.13036 -7.939851,-10.50503 -5.008215,-5.37466 -9.161361,-10.99364 5.374665,-4.64175 10.749329,-8.91706 5.374674,-4.2753 10.749338,-8.91706 -1.710118,-1.22152 -4.031005,-0.61076 -2.320878,0.61076 -4.886055,2.32088 -2.565187,1.71012 -5.008215,4.15316 l -4.641755,4.64175 q -3.664546,3.66455 -5.985433,8.67276 -2.320877,5.00822 -5.252514,8.42845 -3.420237,2.93164 -5.374665,4.64177 -1.954424,1.71012 -3.786697,3.05378 -1.832273,1.34367 -3.908849,2.80949 -2.076576,1.46582 -5.741122,4.39746 Q 13.925275,154.15523 9.4056678,148.53626 4.8860608,142.9173 0,137.05402 q 3.664546,-3.17594 5.7411218,-4.88606 2.0765758,-1.71012 3.664546,-3.05379 1.5879702,-1.34367 3.4202432,-2.68734 1.832273,-1.34366 5.008213,-3.78669 3.420242,-2.68734 7.695546,-4.27531 4.275304,-1.58797 8.550609,-3.42024 4.275305,-1.83227 8.306301,-4.39746 4.031006,-2.56518 7.451242,-6.96263 1.221519,-0.73291 1.465819,-1.58797 0.244309,-0.85506 0.244309,-1.58797 v -1.465817 q 0,0 0.732909,-1.465819 2.198728,-1.710127 4.519605,-3.786705 2.320878,-2.076568 4.519606,-3.786696 2.198727,-1.710118 4.397455,-2.565177 2.198727,-0.85506 4.397455,-0.36646 4.641755,-4.153146 9.40567,-7.817692 4.763905,-3.664546 9.16136,-7.817701 0.977219,-0.732909 1.221519,-1.465818 0.2443,-0.73291 0.2443,-1.465819 v -1.465818 q 0,0 0.977218,-1.465819 3.175941,-2.198727 5.618968,-4.886064 2.443037,-2.687328 5.374675,-4.153146 2.19873,-1.221519 4.03099,-1.099369 1.83228,0.12215 3.7867,-1.343668 0,-0.977209 -0.97721,-1.587968 -0.97721,-0.61076 -1.83228,-1.343669 -0.85506,-0.732909 -1.46581,-1.587968 -0.61075,-0.855059 0.12215,-2.320878 0.4886,0 0.73291,-0.488609 l 0.2443,-0.2443 q 0.2443,0 0.73291,-0.488609 1.95443,-1.954419 4.39746,-4.030996 2.44303,-2.076578 4.39745,-1.587969 0.97721,-0.732909 1.58797,-0.244309 0.61076,0.488609 0.85506,1.343669 0.24431,0.855059 0.48861,1.832277 0.2443,0.977209 0.73291,1.465819 3.90885,-2.687337 5.74112,-4.031006 1.83227,-1.343668 2.80949,-2.076577 0.97721,-0.73291 1.46582,-1.221509 0.4886,-0.48861 1.46582,-1.343669 0.97721,-0.855059 2.80947,-2.443028 1.83228,-1.587977 5.74113,-4.763914 2.93164,3.420246 5.74112,6.962642 2.80949,3.542387 5.49683,6.962633 -6.35189,5.130364 -8.79491,7.206942 -2.44304,2.076578 -4.27531,3.786696 -1.83228,1.710118 -4.64176,4.031005 -2.80948,2.320878 -9.40566,7.695542 -2.19873,1.710119 -3.42025,2.320878 -1.22152,0.610759 -1.83228,1.343668 -0.61075,0.73291 -0.36645,1.954428 0.2443,1.221509 1.22152,3.664546 5.13036,-3.664546 7.69554,-5.618974 2.56519,-1.954427 3.90885,-3.053786 1.34367,-1.099369 2.07658,-1.710119 0.7329,-0.610759 2.07657,-1.832277 1.34367,-1.221519 3.90885,-3.420247 2.56519,-2.198727 7.69555,-6.351873 0.48861,-0.488609 0,-1.099369 -0.48861,-0.610759 -0.97721,-1.099359 -0.48861,-0.488609 -0.85507,-1.099368 -0.36645,-0.610759 0.36646,-1.099359 3.66455,-3.175946 6.71833,-5.741124 3.05379,-2.565187 5.98543,-5.008214 2.93164,-2.443028 6.10757,-5.008215 3.17595,-2.565178 7.08479,-5.741124 1.95443,-1.465818 3.66455,-0.977209 1.71012,0.488609 3.17594,0.2443 4.39745,-4.153146 7.32909,-7.206933 2.93164,-3.053796 5.74112,-5.985433 2.80949,-2.931636 5.74113,-5.9854232 Q 200.08421,3.908846 204.48167,0 Z M 135.3439,127.7705 q -4.39745,0.73291 -7.8177,2.93164 -2.93163,1.95443 -5.61896,5.37466 -2.68734,3.42025 -3.17595,9.28352 0.48861,2.93164 2.44304,5.37467 1.71012,1.95442 5.0082,3.78669 3.2981,1.83228 8.91707,2.07658 1.95442,0 4.76391,-1.71012 2.80949,-1.71012 5.49682,-3.66454 2.93164,-2.44303 5.86328,-5.61898 z"
       id="path30"
       style="display:inline;stroke-width:0.244303"
       inkscape:label="Ranged" />
  </g>
</svg>
