<?xml version="1.0" encoding="UTF-8" standalone="no"?>
<svg
   xmlns:dc="http://purl.org/dc/elements/1.1/"
   xmlns:cc="http://creativecommons.org/ns#"
   xmlns:rdf="http://www.w3.org/1999/02/22-rdf-syntax-ns#"
   xmlns:svg="http://www.w3.org/2000/svg"
   xmlns="http://www.w3.org/2000/svg"
   xmlns:sodipodi="http://sodipodi.sourceforge.net/DTD/sodipodi-0.dtd"
   xmlns:inkscape="http://www.inkscape.org/namespaces/inkscape"
   version="2.0"
   viewbox="0 0 256 256"
   id="svg8"
   sodipodi:docname="strain.svg"
   inkscape:version="1.0.2 (e86c8708, 2021-01-15)">
  <metadata
     id="metadata14">
    <rdf:RDF>
      <cc:Work
         rdf:about="">
        <dc:format>image/svg+xml</dc:format>
        <dc:type
           rdf:resource="http://purl.org/dc/dcmitype/StillImage" />
        <dc:title />
      </cc:Work>
    </rdf:RDF>
  </metadata>
  <defs
     id="defs12" />
  <sodipodi:namedview
     pagecolor="#ffffff"
     bordercolor="#666666"
     borderopacity="1"
     objecttolerance="10"
     gridtolerance="10"
     guidetolerance="10"
     inkscape:pageopacity="0"
     inkscape:pageshadow="2"
     inkscape:window-width="2604"
     inkscape:window-height="1387"
     id="namedview10"
     showgrid="false"
     inkscape:pagecheckerboard="true"
     showborder="false"
     inkscape:zoom="4.69"
     inkscape:cx="22.06823"
     inkscape:cy="134.70149"
     inkscape:window-x="-10"
     inkscape:window-y="25"
     inkscape:window-maximized="0"
     inkscape:current-layer="svg8"
     inkscape:document-rotation="0" />
  <g
     id="g21">
    <path
       d="M 106.5512,28.357653 C 93.272297,58.755141 79.993394,88.992642 66.714491,119.7101 c -6.879431,-2.55978 -13.438889,-4.7996 -19.83836,-7.67936 -4.319643,-1.91984 -8.159326,-2.23982 -12.478969,0 -4.47963,2.3998 -9.599207,3.67969 -14.238824,5.91951 -6.399471,3.19974 -13.1189155,1.75985 -19.8383603,2.07983 0,-1.2799 -0.15998678,-2.3998 -0.15998678,-3.35972 0,-16.63863 0,-33.277255 0,-49.91588 0,-2.239815 0.63994712,-3.519709 2.71977528,-4.639617 C 38.236845,41.796542 73.433936,21.318234 108.63103,0.8399265 c 1.91984,-1.11990746 3.35972,-1.11990746 5.43955,0 35.35708,20.4783075 70.71416,40.9566155 106.07123,61.2749365 1.43988,0.799934 2.55979,1.599868 2.55979,3.679696 -0.15998,19.038427 0,37.916871 0,56.955291 0,0.63995 -0.15998,1.2799 -0.15998,2.07983 -1.11991,0 -2.07983,0.15999 -3.19974,0.15999 -13.11892,0 -26.23783,0 -39.35675,0 -1.75985,0 -3.51971,-0.31998 -5.11958,-0.95992 -8.63928,-3.51971 -17.27857,-7.03942 -25.91785,-10.71912 -1.11991,-0.47996 -2.07983,-0.79993 -3.51971,-1.27989 -3.83969,9.27923 -7.67937,18.23849 -11.51905,27.19775 -0.15999,0 -0.47996,-0.15999 -0.63995,-0.15999 -8.63928,-36.79695 -17.27857,-73.753901 -25.91786,-110.550861 0,0 -0.31997,-0.159986 -0.79993,-0.159986 z"
       id="path2"
       style="stroke-width:1.59987" />
    <path
       d="m 123.34981,229.62102 c 11.83902,-29.43757 23.67804,-59.03512 35.51707,-88.79266 4.31964,1.75985 8.15932,3.35972 12.15899,4.7996 1.75986,0.63995 3.6797,0.95992 5.43955,1.11991 14.07884,0.15999 28.15768,0 42.07653,0 1.27989,0 2.3998,0 3.83968,0 0.15999,1.27989 0.15999,2.07983 0.15999,3.03975 0,13.2789 0,26.39782 0,39.67672 0,2.23982 -0.79994,3.35972 -2.55979,4.31964 -35.51707,20.47831 -71.03413,40.95662 -106.39121,61.43493 -1.75986,1.1199 -3.03975,0.95992 -4.79961,0 C 73.433936,234.58061 37.916871,214.1023 2.5597926,193.624 1.4398852,192.98405 0.15999092,191.54417 0.15999092,190.42426 4.14e-6,175.3855 4.14e-6,160.50673 4.14e-6,145.46798 c 0,-0.31998 0.15998678,-0.79994 0.31997356,-1.59987 5.5995373,0 11.0390883,-0.15999 16.6386253,0 3.519709,0.15998 6.559458,-0.63995 9.599207,-2.23982 4.319643,-2.23981 8.799273,-5.59953 13.278902,-5.75952 4.47963,-0.15999 8.95926,3.03975 13.43889,4.7996 9.279233,3.6797 18.558466,7.51938 28.477647,11.35906 3.839682,-9.27923 7.679365,-18.55846 11.519048,-27.67771 0.159987,0 0.47996,0 0.639947,0 9.279236,35.03711 18.718456,69.91422 27.997686,104.95133 0.79993,0.15999 1.11991,0.15999 1.43988,0.31997 z"
       id="path4"
       style="stroke-width:1.59987" />
  </g>
</svg>
