<?xml version="1.0" encoding="UTF-8" standalone="no"?>
<svg
   xmlns:dc="http://purl.org/dc/elements/1.1/"
   xmlns:cc="http://creativecommons.org/ns#"
   xmlns:rdf="http://www.w3.org/1999/02/22-rdf-syntax-ns#"
   xmlns:svg="http://www.w3.org/2000/svg"
   xmlns="http://www.w3.org/2000/svg"
   xmlns:sodipodi="http://sodipodi.sourceforge.net/DTD/sodipodi-0.dtd"
   xmlns:inkscape="http://www.inkscape.org/namespaces/inkscape"
   version="2.0"
   viewbox="0 0 256 256"
   id="svg8"
   sodipodi:docname="strain.svg"
   inkscape:version="1.0.2-2 (e86c870879, 2021-01-15)">
  <metadata
     id="metadata14">
    <rdf:RDF>
      <cc:Work
         rdf:about="">
        <dc:format>image/svg+xml</dc:format>
        <dc:type
           rdf:resource="http://purl.org/dc/dcmitype/StillImage" />
        <dc:title></dc:title>
      </cc:Work>
    </rdf:RDF>
  </metadata>
  <defs
     id="defs12" />
  <sodipodi:namedview
     pagecolor="#ffffff"
     bordercolor="#666666"
     borderopacity="1"
     objecttolerance="10"
     gridtolerance="10"
     guidetolerance="10"
     inkscape:pageopacity="0"
     inkscape:pageshadow="2"
     inkscape:window-width="2604"
     inkscape:window-height="2054"
     id="namedview10"
     showgrid="false"
     inkscape:pagecheckerboard="true"
     showborder="false"
     inkscape:zoom="4.69"
     inkscape:cx="22.06823"
     inkscape:cy="134.70149"
     inkscape:window-x="-10"
     inkscape:window-y="0"
     inkscape:window-maximized="0"
     inkscape:current-layer="svg8" />
  <g
     id="g6"
     transform="translate(178.7,-316.975)">
    <path
       d="m -112.1,334.7 c -8.3,19 -16.6,37.9 -24.9,57.1 -4.3,-1.6 -8.4,-3 -12.4,-4.8 -2.7,-1.2 -5.1,-1.4 -7.8,0 -2.8,1.5 -6,2.3 -8.9,3.7 -4,2 -8.2,1.1 -12.4,1.3 0,-0.8 -0.1,-1.5 -0.1,-2.1 0,-10.4 0,-20.8 0,-31.2 0,-1.4 0.4,-2.2 1.7,-2.9 22.1,-12.7 44.1,-25.5 66.1,-38.3 1.2,-0.7 2.1,-0.7 3.4,0 22.1,12.8 44.2,25.6 66.3,38.3 0.9,0.5 1.6,1 1.6,2.3 -0.1,11.9 0,23.7 0,35.6 0,0.4 -0.1,0.8 -0.1,1.3 -0.7,0 -1.3,0.1 -2,0.1 -8.2,0 -16.4,0 -24.6,0 -1.1,0 -2.2,-0.2 -3.2,-0.6 -5.4,-2.2 -10.8,-4.4 -16.2,-6.7 -0.7,-0.3 -1.3,-0.5 -2.2,-0.8 -2.4,5.8 -4.8,11.4 -7.2,17 -0.1,0 -0.3,-0.1 -0.4,-0.1 -5.4,-23 -10.8,-46.1 -16.2,-69.1 0,0 -0.2,-0.1 -0.5,-0.1 z"
       id="path2" />
    <path
       d="m -101.6,460.5 c 7.4,-18.4 14.8,-36.9 22.2,-55.5 2.7,1.1 5.1,2.1 7.6,3 1.1,0.4 2.3,0.6 3.4,0.7 8.8,0.1 17.6,0 26.3,0 0.8,0 1.5,0 2.4,0 0.1,0.8 0.1,1.3 0.1,1.9 0,8.3 0,16.5 0,24.8 0,1.4 -0.5,2.1 -1.6,2.7 -22.2,12.8 -44.4,25.6 -66.5,38.4 -1.1,0.7 -1.9,0.6 -3,0 -22.1,-12.9 -44.3,-25.7 -66.4,-38.5 -0.7,-0.4 -1.5,-1.3 -1.5,-2 -0.1,-9.4 -0.1,-18.7 -0.1,-28.1 0,-0.2 0.1,-0.5 0.2,-1 3.5,0 6.9,-0.1 10.4,0 2.2,0.1 4.1,-0.4 6,-1.4 2.7,-1.4 5.5,-3.5 8.3,-3.6 2.8,-0.1 5.6,1.9 8.4,3 5.8,2.3 11.6,4.7 17.8,7.1 2.4,-5.8 4.8,-11.6 7.2,-17.3 0.1,0 0.3,0 0.4,0 5.8,21.9 11.7,43.7 17.5,65.6 0.5,0.1 0.7,0.1 0.9,0.2 z"
       id="path4" />
  </g>
</svg>
