<?xml version="1.0" encoding="UTF-8" standalone="no"?>
<svg
   xmlns:dc="http://purl.org/dc/elements/1.1/"
   xmlns:cc="http://creativecommons.org/ns#"
   xmlns:rdf="http://www.w3.org/1999/02/22-rdf-syntax-ns#"
   xmlns:svg="http://www.w3.org/2000/svg"
   xmlns="http://www.w3.org/2000/svg"
   xmlns:sodipodi="http://sodipodi.sourceforge.net/DTD/sodipodi-0.dtd"
   xmlns:inkscape="http://www.inkscape.org/namespaces/inkscape"
   version="2.0"
   viewbox="0 0 256 256"
   id="svg24"
   sodipodi:docname="strength.svg"
   inkscape:version="1.0.2 (e86c8708, 2021-01-15)">
  <metadata
     id="metadata30">
    <rdf:RDF>
      <cc:Work
         rdf:about="">
        <dc:format>image/svg+xml</dc:format>
        <dc:type
           rdf:resource="http://purl.org/dc/dcmitype/StillImage" />
        <dc:title></dc:title>
      </cc:Work>
    </rdf:RDF>
  </metadata>
  <defs
     id="defs28" />
  <sodipodi:namedview
     pagecolor="#ffffff"
     bordercolor="#666666"
     borderopacity="1"
     objecttolerance="10"
     gridtolerance="10"
     guidetolerance="10"
     inkscape:pageopacity="0"
     inkscape:pageshadow="2"
     inkscape:window-width="1616"
     inkscape:window-height="1333"
     id="namedview26"
     showgrid="false"
     inkscape:pagecheckerboard="true"
     showborder="false"
     inkscape:zoom="2"
     inkscape:cx="-111.76825"
     inkscape:cy="311.65648"
     inkscape:window-x="0"
     inkscape:window-y="25"
     inkscape:window-maximized="0"
     inkscape:current-layer="svg24" />
  <g
     id="g44">
    <path
       d="M -5e-6,133.62555 C 1.1197745,126.10703 2.239554,118.42854 3.519302,110.91002 5.438924,98.912387 8.1583885,87.234686 13.117412,76.036891 17.756499,65.638939 24.155238,56.680703 32.4736,49.002215 45.27108,37.164546 59.668245,27.406467 75.505127,20.207885 92.301819,12.529397 109.25848,4.8509085 127.17495,0.211822 c 1.91962,-0.4799055 3.19937,-0.1599685 4.63909,1.1197795 15.35697,14.3971655 30.87392,28.6343615 46.2309,43.0315265 0.95981,0.959811 1.91962,2.399528 2.23955,3.839244 4.63909,20.475968 9.11821,41.111905 13.7573,61.587868 0.4799,1.91963 0,3.19937 -1.59969,4.31915 -5.75887,4.15919 -7.99842,4.31915 -13.91726,0.31994 -6.0788,-4.15918 -10.07801,-9.91805 -13.43735,-16.156818 -1.75966,-3.199369 -3.51931,-6.39874 -4.47912,-9.918047 -2.23956,-7.998425 -7.03862,-13.757291 -13.11742,-19.196219 -12.47754,-11.037827 -24.47518,-22.555559 -36.63278,-33.913322 -0.79985,-0.799843 -1.75966,-1.439717 -3.03941,-2.719465 -0.31993,4.479118 -0.4799,8.318362 -0.63987,12.157606 -0.63987,12.79748 -1.11978,25.59496 -1.75965,38.39244 -0.15997,2.239559 -0.79985,4.639086 -1.75966,6.558709 -11.197792,22.235626 -22.395587,44.471246 -33.753351,66.546896 -1.119779,2.07959 -0.959811,3.67928 0.319937,5.5989 4.31915,6.39874 8.318362,12.95745 12.477543,19.35619 0.479906,0.79984 1.11978,1.59968 2.079591,2.87943 5.598898,-11.35776 11.037827,-22.39559 16.47676,-33.43342 0.31993,0 0.4799,0 0.79984,0.15997 2.23956,26.23483 4.47912,52.62964 6.71868,79.18441 -1.43972,0.15997 -2.71947,0.15997 -3.83925,0.15997 -15.197007,0 -30.553983,0.15997 -45.75099,-0.15997 -1.759653,0 -4.159181,-0.95981 -5.438929,-2.23956 C 37.272655,211.21027 20.955869,194.73352 4.6390815,178.09679 3.519302,176.81705 2.7194595,174.73746 2.559491,172.9778 c -0.1599685,-3.35934 0.319937,-6.71867 0.319937,-10.07801 0,-1.91963 0.639874,-2.5595 2.559496,-3.0394 7.198582,-1.59969 14.237196,-3.19937 22.235621,-5.119 -2.399527,-1.59968 -4.159181,-2.71946 -5.758865,-3.67927 C 14.717097,146.583 7.5185145,142.10388 0.319932,137.78473 -5e-6,136.34502 -5e-6,135.06527 -5e-6,133.62555 Z"
       id="path10"
       style="stroke-width:1.59968" />
    <path
       d="m 123.33571,144.34344 c 42.23168,0 83.82349,0 125.89521,0 0.15997,0.95981 0.31994,1.91962 0.31994,3.0394 0,5.43893 -0.31994,11.03783 0.15996,16.47676 0.47991,4.95902 -1.11978,8.47833 -4.79905,11.83767 -2.71947,2.39952 -5.11899,3.5193 -8.79827,3.5193 -35.51301,-0.15997 -71.02601,0 -106.53902,0 -1.43972,0 -2.71946,0 -4.79905,0 -0.63988,-11.83767 -0.95982,-23.19543 -1.43972,-34.87313 z"
       id="path12"
       style="stroke-width:1.59968" />
    <path
       d="m 129.73445,228.80681 c -0.95981,-8.79827 -1.91962,-17.11663 -2.87943,-25.9149 30.71395,0 61.26793,0 92.30182,0 0,6.0788 0.15997,12.15761 0,18.39638 -0.15997,2.5595 -7.35855,7.67849 -10.23798,7.67849 -23.19544,0 -46.39087,0 -69.42633,0 -3.19937,-0.15997 -6.39874,-0.15997 -9.75808,-0.15997 z"
       id="path14"
       style="stroke-width:1.59968" />
    <path
       d="m 218.51697,121.78788 c -2.5595,-11.6777 -5.119,-23.19543 -7.67849,-34.873131 15.03704,0 29.75414,0 44.95115,0 0,6.718677 -0.47991,13.597321 0.15997,20.156031 0.63987,7.19858 -4.95903,9.91805 -8.47834,14.2372 -0.15996,0.31993 -0.79984,0.31993 -1.27974,0.31993 -9.11821,0.15997 -18.39638,0.15997 -27.67455,0.15997 z"
       id="path16"
       style="stroke-width:1.59968" />
    <path
       d="m 198.20097,31.565648 c 13.75729,0 27.83452,0 42.23168,0 0,7.998425 0.63987,15.99685 -0.31994,23.675338 -0.4799,3.679276 -4.15918,6.878646 -6.39874,10.078016 -0.31993,0.479905 -1.43971,0.479905 -2.23956,0.479905 -7.35855,0 -14.87707,0 -22.23562,0 -2.07959,0 -2.71946,-0.799842 -3.19937,-2.719464 -1.59968,-8.158394 -3.35934,-16.316787 -5.27896,-24.475181 -0.63987,-2.239559 -1.75965,-4.479118 -2.55949,-7.038614 z"
       id="path18"
       style="stroke-width:1.59968" />
    <path
       d="m 154.3696,121.62791 c -10.39796,0 -20.316,0 -30.71395,0 0.15996,-11.03782 -1.27975,-22.075649 3.0394,-32.63357 0.15997,-0.319937 0.15997,-0.639874 0.4799,-0.959811 1.75966,-1.759654 10.87786,-0.319937 11.51773,2.07959 2.71947,11.517731 8.79827,21.435781 15.67692,31.513791 z"
       id="path20"
       style="stroke-width:1.59968" />
  </g>
</svg>
