<?xml version="1.0" encoding="UTF-8" standalone="no"?>
<svg
   xmlns:dc="http://purl.org/dc/elements/1.1/"
   xmlns:cc="http://creativecommons.org/ns#"
   xmlns:rdf="http://www.w3.org/1999/02/22-rdf-syntax-ns#"
   xmlns:svg="http://www.w3.org/2000/svg"
   xmlns="http://www.w3.org/2000/svg"
   xmlns:sodipodi="http://sodipodi.sourceforge.net/DTD/sodipodi-0.dtd"
   xmlns:inkscape="http://www.inkscape.org/namespaces/inkscape"
   version="2.0"
   viewbox="0 0 256 256"
   id="svg6"
   sodipodi:docname="surge.svg"
   inkscape:version="1.0.2-2 (e86c870879, 2021-01-15)">
  <metadata
     id="metadata12">
    <rdf:RDF>
      <cc:Work
         rdf:about="">
        <dc:format>image/svg+xml</dc:format>
        <dc:type
           rdf:resource="http://purl.org/dc/dcmitype/StillImage" />
        <dc:title></dc:title>
      </cc:Work>
    </rdf:RDF>
  </metadata>
  <defs
     id="defs10" />
  <sodipodi:namedview
     pagecolor="#ffffff"
     bordercolor="#666666"
     borderopacity="1"
     objecttolerance="10"
     gridtolerance="10"
     guidetolerance="10"
     inkscape:pageopacity="0"
     inkscape:pageshadow="2"
     inkscape:window-width="2046"
     inkscape:window-height="2054"
     id="namedview8"
     showgrid="false"
     inkscape:pagecheckerboard="true"
     showborder="false"
     inkscape:zoom="6.6326616"
     inkscape:cx="84.418653"
     inkscape:cy="100.25633"
     inkscape:window-x="-10"
     inkscape:window-y="0"
     inkscape:window-maximized="0"
     inkscape:current-layer="svg6" />
  <g
     id="g4"
     transform="matrix(1.60396,0,0,1.60396,303.14599,-573.4157)">
    <path
       d="m -186.6,428.4 52.5,-69.3 c 0.52088,-0.71249 0.56665,-0.84584 0.95835,-1.37915 15.9,13.5 31.64165,26.87915 48.44165,39.57915 15.9,-13.5 32.6,-27.1 48.6,-39.8 2.4,2.4 4.8,4 7.2,6.4 -18.3,23.9 -37.4,47.8 -55.7,72.4 -15.9,-13.5 -31.8,-27.1 -48.6,-39.8 -15.9,13.5 -31.8,27.1 -48.6,39.8 -2.1078,-2.00993 -5.03919,-4.16187 -6.70498,-5.74143 0.60521,-0.74507 1.26272,-1.44554 1.90498,-2.15857 z"
       id="path2"
       sodipodi:nodetypes="ccccccccccc" />
  </g>
</svg>
