<?xml version="1.0" encoding="UTF-8" standalone="no"?>
<svg
   xmlns:dc="http://purl.org/dc/elements/1.1/"
   xmlns:cc="http://creativecommons.org/ns#"
   xmlns:rdf="http://www.w3.org/1999/02/22-rdf-syntax-ns#"
   xmlns:svg="http://www.w3.org/2000/svg"
   xmlns="http://www.w3.org/2000/svg"
   xmlns:sodipodi="http://sodipodi.sourceforge.net/DTD/sodipodi-0.dtd"
   xmlns:inkscape="http://www.inkscape.org/namespaces/inkscape"
   version="2.0"
   viewbox="0 0 256 256"
   id="svg10"
   sodipodi:docname="tech.svg"
   inkscape:version="1.0.2 (e86c8708, 2021-01-15)">
  <metadata
     id="metadata16">
    <rdf:RDF>
      <cc:Work
         rdf:about="">
        <dc:format>image/svg+xml</dc:format>
        <dc:type
           rdf:resource="http://purl.org/dc/dcmitype/StillImage" />
        <dc:title />
      </cc:Work>
    </rdf:RDF>
  </metadata>
  <defs
     id="defs14" />
  <sodipodi:namedview
     pagecolor="#ffffff"
     bordercolor="#666666"
     borderopacity="1"
     objecttolerance="10"
     gridtolerance="10"
     guidetolerance="10"
     inkscape:pageopacity="0"
     inkscape:pageshadow="2"
     inkscape:window-width="2604"
     inkscape:window-height="1387"
     id="namedview12"
     showgrid="false"
     inkscape:pagecheckerboard="true"
     showborder="false"
     inkscape:zoom="4.69"
     inkscape:cx="107.35608"
     inkscape:cy="168.81663"
     inkscape:window-x="0"
     inkscape:window-y="25"
     inkscape:window-maximized="0"
     inkscape:current-layer="svg10"
     inkscape:document-rotation="0" />
  <g
     id="g24">
    <path
       d="m 0,61.80411 c 4.8,-4.471615 9.44,-9.102932 14.24,-13.734248 0.8,0.798503 1.6,1.437305 2.4,2.235808 10.88,11.019339 21.76,21.878977 32.48,33.058016 1.12,1.117904 1.44,3.194011 2.08,4.791017 0.16,0.319401 0,0.638802 0,0.958203 0,5.270118 -1.28,11.179044 0.64,15.650654 1.76,4.47162 6.88,7.50593 10.56,11.33874 8.96,8.94323 17.76,18.04616 26.88,26.82969 1.28,1.27761 3.52,2.23581 5.28,2.23581 6.08,0.1597 12.8,1.59701 18.08,-0.6388 5.12,-2.07611 8.8,-7.82533 13.12,-11.97754 5.92,-5.74922 12,-11.49844 17.76,-17.40736 1.12,-1.11791 1.92,-3.19401 2.08,-4.79102 0.16,-6.22832 1.6,-13.095445 -0.48,-18.525264 -2.24,-5.270119 -8.16,-9.102932 -12.48,-13.574548 C 124.32,69.948839 116,61.64441 107.68,53.339981 c -1.28,-1.117904 -3.36,-1.437305 -5.12,-2.235808 -0.16,0 -0.16,0 -0.32,0 -5.76,0 -12.16,1.437305 -17.12,-0.638803 C 80.32,48.389263 76.96,42.959444 72.96,38.80723 64.96,30.5028 56.8,22.358072 48.48,13.734242 52.8,9.262626 56.96,4.9507109 61.28,0.63879576 61.92,-6.48e-6 63.2,-6.48e-6 64.16,-6.48e-6 c 20,0 40.16,0 60.16,0 1.44,0 3.04,0.7985028 4.16,1.91640668 22.08,22.1983778 44,44.3967558 65.92,66.5951338 0.96,0.958203 1.6,2.555209 1.6,3.832813 0.16,19.80287 0.16,39.605743 0,59.408613 0,1.2776 -0.8,2.87461 -1.6,3.83281 -19.36,19.64317 -38.72,39.12664 -58.24,58.6101 -1.12,1.11791 -2.88,1.91641 -4.48,1.91641 -19.68,0.1597 -39.2,0.1597 -58.88,0 -1.76,0 -3.68,-1.1179 -4.96,-2.23581 C 46.24,172.3169 24.8,150.59762 3.2,128.87835 2.24,127.92014 1.12,127.12164 0.16,126.16344 0,105.08296 0,83.523386 0,61.80411 Z"
       id="path2"
       style="stroke-width:1.5985" />
    <path
       d="m 170.4,227.57329 c -8,-7.18652 -16,-14.37305 -24.32,-21.71927 20,-20.28198 39.2,-39.92514 58.88,-59.88771 7.84,8.30442 15.68,16.28945 23.2,24.11478 -19.36,19.32377 -39.04,38.96694 -57.76,57.4922 z"
       id="path4"
       style="stroke-width:1.5985" />
    <path
       d="m 186.88,230.6076 c 14.4,-14.21335 29.12,-28.9058 43.52,-43.27885 8.32,8.30443 17.12,16.92826 25.6,25.23269 -14.4,14.37305 -29.12,29.0655 -43.68,43.43855 -8.16,-8.30443 -16.96,-16.92826 -25.44,-25.39239 z"
       id="path6"
       style="stroke-width:1.5985" />
  </g>
</svg>
