<?xml version="1.0" encoding="UTF-8" standalone="no"?>
<svg
   xmlns:dc="http://purl.org/dc/elements/1.1/"
   xmlns:cc="http://creativecommons.org/ns#"
   xmlns:rdf="http://www.w3.org/1999/02/22-rdf-syntax-ns#"
   xmlns:svg="http://www.w3.org/2000/svg"
   xmlns="http://www.w3.org/2000/svg"
   xmlns:sodipodi="http://sodipodi.sourceforge.net/DTD/sodipodi-0.dtd"
   xmlns:inkscape="http://www.inkscape.org/namespaces/inkscape"
   version="2.0"
   viewbox="0 0 256 256"
   id="svg10"
   sodipodi:docname="tech.svg"
   inkscape:version="1.0.2-2 (e86c870879, 2021-01-15)">
  <metadata
     id="metadata16">
    <rdf:RDF>
      <cc:Work
         rdf:about="">
        <dc:format>image/svg+xml</dc:format>
        <dc:type
           rdf:resource="http://purl.org/dc/dcmitype/StillImage" />
        <dc:title />
      </cc:Work>
    </rdf:RDF>
  </metadata>
  <defs
     id="defs14" />
  <sodipodi:namedview
     pagecolor="#ffffff"
     bordercolor="#666666"
     borderopacity="1"
     objecttolerance="10"
     gridtolerance="10"
     guidetolerance="10"
     inkscape:pageopacity="0"
     inkscape:pageshadow="2"
     inkscape:window-width="2604"
     inkscape:window-height="2054"
     id="namedview12"
     showgrid="false"
     inkscape:pagecheckerboard="true"
     showborder="false"
     inkscape:zoom="4.69"
     inkscape:cx="107.35608"
     inkscape:cy="168.81663"
     inkscape:window-x="0"
     inkscape:window-y="0"
     inkscape:window-maximized="0"
     inkscape:current-layer="svg10"
     inkscape:document-rotation="0" />
  <g
     id="g8"
     transform="matrix(1.6,0,0,1.5970056,302.4,-505.77168)">
    <path
       d="m -189,355.4 c 3,-2.8 5.9,-5.7 8.9,-8.6 0.5,0.5 1,0.9 1.5,1.4 6.8,6.9 13.6,13.7 20.3,20.7 0.7,0.7 0.9,2 1.3,3 0.1,0.2 0,0.4 0,0.6 0,3.3 -0.8,7 0.4,9.8 1.1,2.8 4.3,4.7 6.6,7.1 5.6,5.6 11.1,11.3 16.8,16.8 0.8,0.8 2.2,1.4 3.3,1.4 3.8,0.1 8,1 11.3,-0.4 3.2,-1.3 5.5,-4.9 8.2,-7.5 3.7,-3.6 7.5,-7.2 11.1,-10.9 0.7,-0.7 1.2,-2 1.3,-3 0.1,-3.9 1,-8.2 -0.3,-11.6 -1.4,-3.3 -5.1,-5.7 -7.8,-8.5 -5.2,-5.2 -10.4,-10.4 -15.6,-15.6 -0.8,-0.7 -2.1,-0.9 -3.2,-1.4 -0.1,0 -0.1,0 -0.2,0 -3.6,0 -7.6,0.9 -10.7,-0.4 -3,-1.3 -5.1,-4.7 -7.6,-7.3 -5,-5.2 -10.1,-10.3 -15.3,-15.7 2.7,-2.8 5.3,-5.5 8,-8.2 0.4,-0.4 1.2,-0.4 1.8,-0.4 12.5,0 25.1,0 37.6,0 0.9,0 1.9,0.5 2.6,1.2 13.8,13.9 27.5,27.8 41.2,41.7 0.6,0.6 1,1.6 1,2.4 0.1,12.4 0.1,24.8 0,37.2 0,0.8 -0.5,1.8 -1,2.4 -12.1,12.3 -24.2,24.5 -36.4,36.7 -0.7,0.7 -1.8,1.2 -2.8,1.2 -12.3,0.1 -24.5,0.1 -36.8,0 -1.1,0 -2.3,-0.7 -3.1,-1.4 -13.5,-13.5 -26.9,-27.1 -40.4,-40.7 -0.6,-0.6 -1.3,-1.1 -1.9,-1.7 -0.1,-13.2 -0.1,-26.7 -0.1,-40.3 z"
       id="path2" />
    <path
       d="m -82.5,459.2 c -5,-4.5 -10,-9 -15.2,-13.6 12.5,-12.7 24.5,-25 36.8,-37.5 4.9,5.2 9.8,10.2 14.5,15.1 -12.1,12.1 -24.4,24.4 -36.1,36 z"
       id="path4" />
    <path
       d="m -72.2,461.1 c 9,-8.9 18.2,-18.1 27.2,-27.1 5.2,5.2 10.7,10.6 16,15.8 -9,9 -18.2,18.2 -27.3,27.2 -5.1,-5.2 -10.6,-10.6 -15.9,-15.9 z"
       id="path6" />
  </g>
</svg>
