<?xml version="1.0" encoding="UTF-8" standalone="no"?>
<svg
   xmlns:dc="http://purl.org/dc/elements/1.1/"
   xmlns:cc="http://creativecommons.org/ns#"
   xmlns:rdf="http://www.w3.org/1999/02/22-rdf-syntax-ns#"
   xmlns:svg="http://www.w3.org/2000/svg"
   xmlns="http://www.w3.org/2000/svg"
   xmlns:sodipodi="http://sodipodi.sourceforge.net/DTD/sodipodi-0.dtd"
   xmlns:inkscape="http://www.inkscape.org/namespaces/inkscape"
   version="2.0"
   viewbox="0 0 256 256"
   id="svg4"
   sodipodi:docname="despair.svg"
   inkscape:version="1.0.2-2 (e86c870879, 2021-01-15)">
  <metadata
     id="metadata10">
    <rdf:RDF>
      <cc:Work
         rdf:about="">
        <dc:format>image/svg+xml</dc:format>
        <dc:type
           rdf:resource="http://purl.org/dc/dcmitype/StillImage" />
        <dc:title />
      </cc:Work>
    </rdf:RDF>
  </metadata>
  <defs
     id="defs8" />
  <sodipodi:namedview
     pagecolor="#ffffff"
     bordercolor="#666666"
     borderopacity="1"
     objecttolerance="10"
     gridtolerance="10"
     guidetolerance="10"
     inkscape:pageopacity="0"
     inkscape:pageshadow="2"
     inkscape:window-width="2604"
     inkscape:window-height="2054"
     id="namedview6"
     showgrid="false"
     inkscape:zoom="8"
     inkscape:cx="82.840307"
     inkscape:cy="94.488525"
     inkscape:window-x="-10"
     inkscape:window-y="0"
     inkscape:window-maximized="0"
     inkscape:current-layer="g850"
     inkscape:pagecheckerboard="true"
     inkscape:showpageshadow="false"
     showborder="false"
     inkscape:document-rotation="0"
     showguides="true"
     inkscape:guide-bbox="true"
     inkscape:snap-center="false">
    <sodipodi:guide
       position="124.66411,79.174663"
       orientation="1,0"
       id="guide834" />
  </sodipodi:namedview>
  <g
     inkscape:groupmode="layer"
     id="layer2"
     inkscape:label="Export"
     style="display:inline">
    <g
       id="g850">
      <path
         style="color:#000000;font-style:normal;font-variant:normal;font-weight:normal;font-stretch:normal;font-size:medium;line-height:normal;font-family:sans-serif;font-variant-ligatures:normal;font-variant-position:normal;font-variant-caps:normal;font-variant-numeric:normal;font-variant-alternates:normal;font-variant-east-asian:normal;font-feature-settings:normal;font-variation-settings:normal;text-indent:0;text-align:start;text-decoration:none;text-decoration-line:none;text-decoration-style:solid;text-decoration-color:#000000;letter-spacing:normal;word-spacing:normal;text-transform:none;writing-mode:lr-tb;direction:ltr;text-orientation:mixed;dominant-baseline:auto;baseline-shift:baseline;text-anchor:start;white-space:normal;shape-padding:0;shape-margin:0;inline-size:0;clip-rule:nonzero;display:inline;overflow:visible;visibility:visible;opacity:1;isolation:auto;mix-blend-mode:normal;color-interpolation:sRGB;color-interpolation-filters:linearRGB;solid-color:#000000;solid-opacity:1;vector-effect:none;fill:#000000;fill-opacity:1;fill-rule:nonzero;stroke:none;stroke-linecap:butt;stroke-linejoin:miter;stroke-miterlimit:4;stroke-dasharray:none;stroke-dashoffset:0;stroke-opacity:1;color-rendering:auto;image-rendering:auto;shape-rendering:auto;text-rendering:auto;enable-background:accumulate;stop-color:#000000;stop-opacity:1"
         d="m 124.66406,1.0859375 c -60.066823,0 -108.894529,48.8277065 -108.894529,108.8945325 0,60.06682 48.827706,108.89648 108.894529,108.89648 60.06683,0 108.89453,-48.82966 108.89453,-108.89648 0,-60.066826 -48.8277,-108.8945325 -108.89453,-108.8945325 z m 0,12.5644535 c 53.2762,0 96.33008,43.053882 96.33008,96.330079 0,53.27619 -43.05388,96.33008 -96.33008,96.33008 -53.276193,0 -96.330076,-43.05389 -96.330076,-96.33008 0,-53.276197 43.053883,-96.330079 96.330076,-96.330079 z"
         id="path9" />
      <path
         id="path836"
         style="fill:#000000;fill-opacity:1;stroke:none;stroke-width:1px;stroke-linecap:butt;stroke-linejoin:miter;stroke-opacity:1"
         d="M 0,38.240234 C 85.820193,107.65415 112.54032,181.27635 124.66411,255.9779 136.31352,176.76433 165.29659,103.98226 249.46294,38.218137 157.26094,83.216987 76.472193,71.892631 0,38.240234 Z M 205.11914,66.400391 C 158.4993,105.27871 140.91397,151.70676 124.66411,198.42249 109.35708,147.86628 81.841708,105.10515 46.560547,67.199219 97.034106,80.205621 149.74504,81.046562 205.11914,66.400391 Z"
         sodipodi:nodetypes="cccccccc" />
    </g>
  </g>
  <g
     inkscape:groupmode="layer"
     id="layer1"
     inkscape:label="Original"
     style="display:none">
    <path
       d="M 249.6,38.24 C 239.36,43.52 228,47.36 217.76,51.04 207.52,35.68 194.88,23.04 178.24,14.08 162.88,5.12 143.84,0 126.08,0 108.32,0 90.4,5.12 73.92,14.08 57.44,23.04 44.64,35.68 34.4,51.04 22.88,47.2 11.52,43.36 0,38.24 c 10.24,7.68 19.84,16.32 27.52,23.84 -7.68,15.36 -11.04,30.88 -11.04,47.36 0,29.28 8.96,54.72 29.28,75.2 19.04,21.6 43.36,33.12 72.64,34.4 2.56,11.52 5.12,24.16 6.4,36.96 1.28,-11.52 3.84,-24.16 6.4,-36.96 28,-2.56 52.16,-14.08 72.64,-34.4 19.04,-21.6 29.28,-45.92 29.28,-75.2 0,-17.76 -3.84,-33.12 -11.52,-48.32 8.96,-7.68 17.76,-15.36 28,-22.88 z M 78.88,25.6 c 14.08,-7.68 28,-11.52 44.64,-11.52 16.64,0 31.84,3.84 44.64,12.8 14.08,7.68 25.44,17.76 34.4,30.56 -6.4,2.56 -10.24,2.88 -14.08,3.84 -20,5.28 -42.08,6.4 -64.96,6.4 C 100.64,67.68 78.88,65.12 58.56,60 53.44,58.72 48.32,57.44 44.48,56.16 53.44,43.36 64.8,33.28 78.88,25.6 Z M 92,202.4 C 70.4,195.36 57.6,181.76 52.32,176 35.84,158.24 26.88,136.48 26.88,111.04 c -0.16,-14.08 2.88,-29.12 8,-41.76 0,0 9.12,9.12 11.68,12.16 11.36,13.28 23.68,29.92 36.32,51.2 16.64,27.84 26.24,53.76 31.84,73.92 -5.6,-0.32 -13.6,-1.28 -22.72,-4.16 z m 32.8,-4 C 114.24,157.92 80.32,100.8 46.56,67.2 c 63.36,11.36 103.84,12.64 158.56,-0.8 -43.04,33.44 -64.8,86.72 -80.32,132 z M 195.04,176 c -2.88,3.04 -8,8.32 -15.36,13.28 -17.44,12.16 -35.04,16 -46.56,17.28 8.96,-27.04 16.96,-48.32 28.96,-72.32 8.48,-16.96 24.16,-35.52 40.32,-52.48 3.36,-3.52 6.88,-7.04 10.24,-10.24 5.12,12.8 7.68,25.44 7.68,39.52 0.16,25.44 -8.8,47.2 -25.28,64.96 z"
       id="path2" />
  </g>
</svg>
