<?xml version="1.0" encoding="UTF-8" standalone="no"?>
<svg
   xmlns:dc="http://purl.org/dc/elements/1.1/"
   xmlns:cc="http://creativecommons.org/ns#"
   xmlns:rdf="http://www.w3.org/1999/02/22-rdf-syntax-ns#"
   xmlns:svg="http://www.w3.org/2000/svg"
   xmlns="http://www.w3.org/2000/svg"
   xmlns:sodipodi="http://sodipodi.sourceforge.net/DTD/sodipodi-0.dtd"
   xmlns:inkscape="http://www.inkscape.org/namespaces/inkscape"
   version="2.0"
   viewbox="0 0 256 256"
   id="svg4"
   sodipodi:docname="failure.svg"
   inkscape:version="1.0.2-2 (e86c870879, 2021-01-15)">
  <metadata
     id="metadata10">
    <rdf:RDF>
      <cc:Work
         rdf:about="">
        <dc:format>image/svg+xml</dc:format>
        <dc:type
           rdf:resource="http://purl.org/dc/dcmitype/StillImage" />
        <dc:title></dc:title>
      </cc:Work>
    </rdf:RDF>
  </metadata>
  <defs
     id="defs8" />
  <sodipodi:namedview
     pagecolor="#ffffff"
     bordercolor="#666666"
     borderopacity="1"
     objecttolerance="10"
     gridtolerance="10"
     guidetolerance="10"
     inkscape:pageopacity="0"
     inkscape:pageshadow="2"
     inkscape:window-width="1718"
     inkscape:window-height="1368"
     id="namedview6"
     showgrid="false"
     inkscape:zoom="6.9466666"
     inkscape:cx="110.85499"
     inkscape:cy="68.744901"
     inkscape:window-x="0"
     inkscape:window-y="0"
     inkscape:window-maximized="0"
     inkscape:current-layer="svg4"
     inkscape:document-rotation="0"
     inkscape:pagecheckerboard="true"
     inkscape:showpageshadow="false"
     showborder="false" />
  <path
     d="M 128,28.16 C 105.66613,28.16 83.243756,25.317149 61.44,20.48 40.364591,15.804434 20.48,8.96 0,0 17.92,12.8 34.029963,27.399753 48.64,43.52 63.196557,59.581238 76.157922,77.253345 87.04,96 c 11.026578,18.99559 19.19964,39.039 26.88,60.16 7.68036,21.121 11.52,43.52 14.08,65.28 2.56,-21.76 7.15555,-44.12398 14.08,-65.28 6.83225,-20.87434 15.85342,-41.16441 26.88,-60.16 10.88208,-18.746655 23.84344,-36.418762 38.4,-52.48 C 221.97004,27.399753 238.08,12.8 256,0 236.8,8.96 215.63541,15.804434 194.56,20.48 172.75624,25.317149 150.33387,28.16 128,28.16 Z"
     id="path2"
     sodipodi:nodetypes="aacaazcaaacaa" />
  <g
     inkscape:groupmode="layer"
     id="layer1"
     inkscape:label="Original" />
</svg>
