<?xml version="1.0" encoding="UTF-8" standalone="no"?>
<svg
   xmlns:dc="http://purl.org/dc/elements/1.1/"
   xmlns:cc="http://creativecommons.org/ns#"
   xmlns:rdf="http://www.w3.org/1999/02/22-rdf-syntax-ns#"
   xmlns:svg="http://www.w3.org/2000/svg"
   xmlns="http://www.w3.org/2000/svg"
   xmlns:sodipodi="http://sodipodi.sourceforge.net/DTD/sodipodi-0.dtd"
   xmlns:inkscape="http://www.inkscape.org/namespaces/inkscape"
   version="2.0"
   viewbox="0 0 256 256"
   id="svg4"
   sodipodi:docname="force.svg"
   inkscape:version="1.0.2-2 (e86c870879, 2021-01-15)">
  <metadata
     id="metadata10">
    <rdf:RDF>
      <cc:Work
         rdf:about="">
        <dc:format>image/svg+xml</dc:format>
        <dc:type
           rdf:resource="http://purl.org/dc/dcmitype/StillImage" />
      </cc:Work>
    </rdf:RDF>
  </metadata>
  <defs
     id="defs8" />
  <sodipodi:namedview
     pagecolor="#ffffff"
     bordercolor="#666666"
     borderopacity="1"
     objecttolerance="10"
     gridtolerance="10"
     guidetolerance="10"
     inkscape:pageopacity="0"
     inkscape:pageshadow="2"
     inkscape:window-width="1718"
     inkscape:window-height="1368"
     id="namedview6"
     showgrid="false"
     inkscape:zoom="3.4733333"
     inkscape:cx="150"
     inkscape:cy="75"
     inkscape:window-x="-7"
     inkscape:window-y="0"
     inkscape:window-maximized="0"
     inkscape:current-layer="layer1" />
  <path
     d="M 245.80531,177.50188 C 252.27812,162.28285 256,145.78223 256,128 256,110.21777 252.1163,93.717146 245.80531,78.498123 239.33249,63.279099 230.43236,49.341677 218.94311,37.967459 207.45385,26.593242 193.37547,17.622028 178.00253,10.092616 162.62958,3.6846058 145.96208,0 128,0 110.03792,0 93.370415,3.844806 77.997471,10.092616 62.624525,16.500626 48.546143,26.593242 37.056889,37.967459 25.567636,49.341677 16.505689,63.279099 10.19469,78.498123 3.8836915,93.717146 0,110.21777 0,128 c 0,16.50063 3.8836915,33.00125 10.19469,49.50188 6.472819,15.21902 15.372946,29.15644 26.862199,40.53066 11.489254,11.37422 25.567636,20.34543 40.940582,27.87484 C 93.370415,252.31539 110.03792,256 128,256 c 17.96208,0 34.62958,-3.84481 50.00253,-10.09262 15.37294,-6.40801 29.45132,-16.50062 40.94058,-27.87484 11.48925,-11.37422 20.38938,-25.31164 26.8622,-40.53066 z"
     id="path2" />
  <g
     inkscape:groupmode="layer"
     id="layer1"
     inkscape:label="Original" />
</svg>
