<?xml version="1.0" encoding="UTF-8" standalone="no"?>
<svg
   xmlns:dc="http://purl.org/dc/elements/1.1/"
   xmlns:cc="http://creativecommons.org/ns#"
   xmlns:rdf="http://www.w3.org/1999/02/22-rdf-syntax-ns#"
   xmlns:svg="http://www.w3.org/2000/svg"
   xmlns="http://www.w3.org/2000/svg"
   xmlns:sodipodi="http://sodipodi.sourceforge.net/DTD/sodipodi-0.dtd"
   xmlns:inkscape="http://www.inkscape.org/namespaces/inkscape"
   version="2.0"
   viewbox="0 0 256 256"
   id="svg4"
   sodipodi:docname="threat.svg"
   inkscape:version="1.0.2-2 (e86c870879, 2021-01-15)">
  <metadata
     id="metadata10">
    <rdf:RDF>
      <cc:Work
         rdf:about="">
        <dc:format>image/svg+xml</dc:format>
        <dc:type
           rdf:resource="http://purl.org/dc/dcmitype/StillImage" />
        <dc:title></dc:title>
      </cc:Work>
    </rdf:RDF>
  </metadata>
  <defs
     id="defs8" />
  <sodipodi:namedview
     pagecolor="#ffffff"
     bordercolor="#666666"
     borderopacity="1"
     objecttolerance="10"
     gridtolerance="10"
     guidetolerance="10"
     inkscape:pageopacity="0"
     inkscape:pageshadow="2"
     inkscape:window-width="1718"
     inkscape:window-height="1368"
     id="namedview6"
     showgrid="false"
     inkscape:showpageshadow="false"
     showborder="false"
     inkscape:pagecheckerboard="true"
     inkscape:zoom="3.4733333"
     inkscape:cx="150"
     inkscape:cy="75"
     inkscape:window-x="-7"
     inkscape:window-y="0"
     inkscape:window-maximized="0"
     inkscape:current-layer="layer1" />
  <path
     d="M 160,202.24 H 94.72 L 75.52,236.8 H 179.2 Z M 71.68,188.16 38.4,133.12 H 0 l 51.2,89.6 z M 256,131.84 h -39.68 l -32,55.04 20.48,34.56 z M 96,174.08 h 65.28 l 32,-56.32 -32,-56.32 H 96 l -32,56.32 z m 51.2,-89.6 19.2,33.28 -19.2,33.28 H 108.8 L 89.6,117.76 108.8,84.48 Z M 0,103.68 H 38.4 L 70.4,48.64 51.2,14.08 Z m 184.32,-55.04 32,55.04 H 256 L 204.8,14.08 Z M 96,34.56 h 65.28 L 180.48,0 H 76.8 Z"
     id="path2" />
  <g
     inkscape:groupmode="layer"
     id="layer1"
     inkscape:label="Original" />
</svg>
