<?xml version="1.0" encoding="UTF-8" standalone="no"?>
<svg
   xmlns:dc="http://purl.org/dc/elements/1.1/"
   xmlns:cc="http://creativecommons.org/ns#"
   xmlns:rdf="http://www.w3.org/1999/02/22-rdf-syntax-ns#"
   xmlns:svg="http://www.w3.org/2000/svg"
   xmlns="http://www.w3.org/2000/svg"
   xmlns:sodipodi="http://sodipodi.sourceforge.net/DTD/sodipodi-0.dtd"
   xmlns:inkscape="http://www.inkscape.org/namespaces/inkscape"
   version="2.0"
   viewbox="0 0 256 256"
   id="svg4"
   sodipodi:docname="triumph.svg"
   inkscape:version="1.0.2-2 (e86c870879, 2021-01-15)">
  <metadata
     id="metadata10">
    <rdf:RDF>
      <cc:Work
         rdf:about="">
        <dc:format>image/svg+xml</dc:format>
        <dc:type
           rdf:resource="http://purl.org/dc/dcmitype/StillImage" />
        <dc:title />
      </cc:Work>
    </rdf:RDF>
  </metadata>
  <defs
     id="defs8" />
  <sodipodi:namedview
     pagecolor="#ffffff"
     bordercolor="#666666"
     borderopacity="1"
     objecttolerance="10"
     gridtolerance="10"
     guidetolerance="10"
     inkscape:pageopacity="0"
     inkscape:pageshadow="2"
     inkscape:window-width="3440"
     inkscape:window-height="1377"
     id="namedview6"
     showgrid="false"
     inkscape:zoom="11.313708"
     inkscape:cx="121.93259"
     inkscape:cy="75.434503"
     inkscape:window-x="-8"
     inkscape:window-y="-8"
     inkscape:window-maximized="1"
     inkscape:current-layer="g836"
     inkscape:snap-global="true"
     inkscape:snap-intersection-paths="false"
     inkscape:pagecheckerboard="true"
     inkscape:showpageshadow="false"
     showborder="false"
     inkscape:document-rotation="0" />
  <g
     inkscape:groupmode="layer"
     id="layer1"
     inkscape:label="Original"
     style="display:none">
    <path
       d="m 191.35221,170.68745 c 3.84,-10.24 5.76779,-20.92745 5.76779,-32.44745 0,-12.8 -2.56,-24.32 -7.68,-35.84 C 185.6,90.88 179.2,80.64 170.24,71.68 162.56,62.72 152.32,55.04 140.8,49.92 129.28,44.8 117.76,40.96 104.96,40.96 L 103.68,0 H 93.44 l -1.28,40.96 c -12.8,0 -24.32,3.84 -35.84,8.96 C 44.8,56.32 34.56,62.72 26.88,71.68 19.2,80.64 11.52,90.88 7.68,102.4 2.56,112.64 0,125.44 0,138.24 c 0,12.8 2.56,24.32 6.4,35.84 5.12,10.24 11.52,20.48 19.2,29.44 8.96,8.96 17.92,16.64 28.16,21.76 11.52,5.12 22.695701,9.06797 35.495701,10.34797 l 0.21593,20.1561 L 108.8,249.6 v -14.08 c 7.68,0 14.45354,-1.79271 20.68358,-3.73821 C 135.54169,229.88999 142.08,227.84 147.2,224 l 12.8,8.96 -8.96,-11.52 c 8.96,-5.12 16.64,-12.8 23.04,-20.48 6.4,-7.68 11.35805,-16.10017 15.19805,-26.34017 L 207.36,172.8 Z M 25.6,138.24 l 52.48,35.84 -23.04,33.28 33.28,-16.64 1.28,5.12 v 33.28 c -10.24,-1.28 -20.48,-3.84 -29.44,-8.96 -10.24,-5.12 -17.92,-11.52 -24.32,-19.2 -7.68,-7.68 -12.8,-16.64 -16.64,-26.88 -3.84,-10.24 -6.4,-20.48 -6.4,-32 0,-11.52 2.56,-21.76 6.4,-32 3.84,-10.24 8.96,-19.2 16.64,-26.88 6.4,-8.96 15.36,-15.36 24.32,-19.2 8.96,-5.12 19.2,-7.68 30.72,-8.96 l -3.84,98.56 z m 126.72,-26.88 -44.8,33.28 -3.84,-90.88 c 11.52,1.28 23.04,3.84 32,8.96 10.24,5.12 17.92,11.52 25.6,19.2 6.4,7.68 12.8,16.64 16.64,26.88 3.84,10.24 6.4,20.48 6.4,32 0,10.24 -1.10006,18.91209 -4.94006,27.87209 L 120.32,158.72 Z m 24.32,64 c -3.84,7.68 -7.68,15.36 -14.08,21.76 -5.12,6.4 -11.52,11.52 -19.2,16.64 l -24.32,-33.28 z m -38.4,40.96 c -5.12,3.84 -9.04997,5.06602 -13.84607,6.90384 C 119.29433,224.79416 115.2,225.28 108.8,226.56 v -32 z"
       id="path2"
       sodipodi:nodetypes="csccscccccscscccccccscccscccccccccccsssccccccccccssccccccccccccc"
       style="fill:#ff0000;fill-opacity:1" />
  </g>
  <g
     inkscape:groupmode="layer"
     id="layer2"
     inkscape:label="Export"
     style="display:inline"
     sodipodi:insensitive="true">
    <g
       id="g836"
       transform="translate(0.04505972)">
      <path
         style="color:#000000;font-style:normal;font-variant:normal;font-weight:normal;font-stretch:normal;font-size:medium;line-height:normal;font-family:sans-serif;font-variant-ligatures:normal;font-variant-position:normal;font-variant-caps:normal;font-variant-numeric:normal;font-variant-alternates:normal;font-variant-east-asian:normal;font-feature-settings:normal;font-variation-settings:normal;text-indent:0;text-align:start;text-decoration:none;text-decoration-line:none;text-decoration-style:solid;text-decoration-color:#000000;letter-spacing:normal;word-spacing:normal;text-transform:none;writing-mode:lr-tb;direction:ltr;text-orientation:mixed;dominant-baseline:auto;baseline-shift:baseline;text-anchor:start;white-space:normal;shape-padding:0;shape-margin:0;inline-size:0;clip-rule:nonzero;display:inline;overflow:visible;visibility:visible;opacity:1;isolation:auto;mix-blend-mode:normal;color-interpolation:sRGB;color-interpolation-filters:linearRGB;solid-color:#000000;solid-opacity:1;vector-effect:none;fill:#000000;fill-opacity:1;fill-rule:evenodd;stroke:none;stroke-linecap:butt;stroke-linejoin:miter;stroke-miterlimit:4;stroke-dasharray:none;stroke-dashoffset:0;stroke-opacity:1;color-rendering:auto;image-rendering:auto;shape-rendering:auto;text-rendering:auto;enable-background:accumulate;stop-color:#000000;stop-opacity:1"
         d="m 98.320312,40.519531 c -54.253329,0 -98.36523505,44.111905 -98.36523387,98.365239 2.35e-6,54.25332 44.11190687,98.36523 98.36523387,98.36523 54.253328,0 98.365228,-44.11191 98.365238,-98.36523 0,-54.253335 -44.11191,-98.36524 -98.365238,-98.365239 z m 0,12.240235 c 47.638398,-10e-7 86.124998,38.486602 86.124998,86.125004 0,47.63839 -38.4866,86.125 -86.124998,86.125 -47.638394,0 -86.124997,-38.48661 -86.125,-86.125 -10e-7,-47.638401 38.486604,-86.125004 86.125,-86.125004 z"
         id="path14-2" />
      <path
         style="fill:#00000f;fill-opacity:1;stroke:none;stroke-width:1px;stroke-linecap:butt;stroke-linejoin:miter;stroke-opacity:1"
         d="m 207.36,172.8 -87.04,-14.08 32,-47.36 -44.8,33.28 L 103.68,0 H 93.44 l -6.4,153.6 -61.44,-15.36 52.48,35.84 -23.04,33.28 33.28,-16.64 1.28,5.12 -0.128369,59.94407 L 108.8,249.6 v -55.04 l 51.2,38.4 -40.96,-52.48 z"
         id="path872" />
    </g>
  </g>
</svg>
