<?xml version="1.0" encoding="UTF-8" standalone="no"?>
<svg
   xmlns:dc="http://purl.org/dc/elements/1.1/"
   xmlns:cc="http://creativecommons.org/ns#"
   xmlns:rdf="http://www.w3.org/1999/02/22-rdf-syntax-ns#"
   xmlns:svg="http://www.w3.org/2000/svg"
   xmlns="http://www.w3.org/2000/svg"
   xmlns:sodipodi="http://sodipodi.sourceforge.net/DTD/sodipodi-0.dtd"
   xmlns:inkscape="http://www.inkscape.org/namespaces/inkscape"
   version="1.1"
   id="svg11"
   sodipodi:docname="explosive-success.svg"
   inkscape:version="1.0.2 (e86c8708, 2021-01-15)">
  <metadata
     id="metadata17">
    <rdf:RDF>
      <cc:Work
         rdf:about="">
        <dc:format>image/svg+xml</dc:format>
        <dc:type
           rdf:resource="http://purl.org/dc/dcmitype/StillImage" />
        <dc:title></dc:title>
      </cc:Work>
    </rdf:RDF>
  </metadata>
  <defs
     id="defs15" />
  <sodipodi:namedview
     pagecolor="#ffffff"
     bordercolor="#666666"
     borderopacity="1"
     objecttolerance="10"
     gridtolerance="10"
     guidetolerance="10"
     inkscape:pageopacity="0"
     inkscape:pageshadow="2"
     inkscape:window-width="1731"
     inkscape:window-height="1167"
     id="namedview13"
     showgrid="false"
     inkscape:pagecheckerboard="true"
     showborder="false"
     inkscape:zoom="1"
     inkscape:cx="-0.5"
     inkscape:cy="-0.5"
     inkscape:window-x="0"
     inkscape:window-y="25"
     inkscape:window-maximized="0"
     inkscape:current-layer="svg11" />
  <path
     d="m 253.90075,127.45745 q 0,4.67427 -2.04499,9.64069 -2.045,4.96642 -2.92143,10.80926 -0.87642,4.08999 -0.14607,8.32605 0.73036,4.23606 -0.73035,8.32605 -2.62928,8.76427 -7.88784,18.25889 -5.25856,9.49462 -13.43854,17.96674 2.045,-2.33714 4.08999,-5.5507 3.50571,-5.25856 6.71927,-14.02282 1.75285,-5.25856 2.77535,-11.97783 1.0225,-6.71927 1.60678,-13.43854 0.29214,-2.62928 -1.89892,-5.40463 -2.19107,-2.77535 -2.19107,-5.69677 0,-2.33714 0.73036,-5.40463 0.73035,-3.0675 1.46071,-6.28106 0.73035,-3.21356 1.16857,-6.13498 0.43821,-2.92143 -0.43822,-4.96642 -2.33713,-7.01141 -6.57319,-13.29247 -4.23607,-6.28106 -7.44963,-10.663188 -5.84284,-8.764265 -11.97783,-13.000327 -6.13498,-4.236061 -11.83176,-5.988914 -5.69677,-1.752853 -10.22497,-1.752853 -4.5282,0 -6.5732,-0.292142 1.75285,3.797848 -3.65178,6.71927 -5.40463,2.921421 -14.02282,4.236061 -8.61819,1.31464 -18.40496,0.584284 -9.78676,-0.730355 -16.50603,-4.528203 -6.71927,-3.797848 -11.24747,-10.224973 -4.52821,-6.427127 -7.01141,-13.146397 -2.48321,-6.71927 -2.77535,-13.146397 -0.29215,-6.427128 1.46071,-10.80926 1.16857,-2.921422 2.77535,-6.865341 1.60678,-3.94392 3.79785,-7.887839 2.19106,-3.943919 5.25855,-7.303555 3.0675,-3.359635 7.44963,-5.6967721 4.67427,-2.0449951 10.51712,-3.0674927 5.84284,-1.0224975 11.53961,-1.0224975 5.69677,0 10.80926,1.0224975 5.11249,1.0224976 8.03391,3.0674927 -0.87642,0.5842843 -1.75285,0.7303554 -0.87643,0.1460711 -1.46071,0.4382137 0.29214,0 0.58428,0.146071 0.29214,0.146071 0.58429,0.146071 3.79784,1.752853 11.39354,5.696773 7.5957,3.943919 16.79817,10.80926 9.20248,6.865341 18.6971,16.506033 9.49462,9.640691 17.38246,22.787088 0.87643,1.752853 1.89893,3.505706 1.02249,1.752853 1.89892,3.505706 0.87643,-1.168569 0.87643,-3.213564 0,-1.168569 -0.29215,-2.044995 2.92143,4.674275 5.55071,9.93283 2.33713,4.674275 4.67427,11.101403 2.33714,6.427127 3.79785,14.022825 1.75285,9.34855 0.58428,14.75318 -1.16857,5.40463 -1.46071,9.78676 z M 70.143333,29.881971 q -1.460711,3.505706 -6.134986,6.573199 -4.674274,3.067492 -6.719269,6.573198 -2.337138,4.089991 -3.505706,7.011412 -1.168569,2.921422 -1.898924,5.550701 -0.730356,2.62928 -1.168569,5.40463 -0.438213,2.775351 -1.31464,5.988914 -1.752853,7.303552 -2.337137,15.19139 -0.584284,7.887838 -0.292142,13.438539 0.584284,7.595696 2.044995,12.708186 1.460711,5.11249 2.044995,7.44962 2.044995,-3.5057 7.887838,-1.75285 5.842844,1.75285 11.831758,6.5732 5.988914,4.82034 10.663189,12.1239 4.674274,7.30355 4.674274,14.89925 0,7.88784 -4.674274,14.31496 -4.674275,6.42713 -10.80926,11.39355 -6.134986,4.96642 -12.1239,8.47212 -5.988914,3.50571 -8.618194,5.25856 -2.629279,1.75285 -9.202478,-1.46071 -6.573198,-3.21356 -13.438539,-8.32605 -6.865341,-5.11249 -12.562113,-10.37105 -5.696772,-5.25856 -6.8653406,-7.01141 -1.1685687,-2.045 -2.4832084,-1.31464 -1.3146397,0.73036 -2.3371373,0.14607 -1.0224975,-0.58428 -1.7528529,-4.82034 -0.73035542,-4.23607 -0.73035542,-16.21389 0,-9.34855 -0.29214216,-19.42746 -0.29214216,-10.0789 2.33713728,-19.427452 0.5842843,-1.460711 2.0449951,-5.40463 1.4607108,-3.943919 2.0449951,-5.40463 0.2921422,-0.876426 0.5842844,-1.31464 Q 7.3327682,86.265405 7.6249104,85.681121 7.0406261,82.467557 6.7484839,77.939354 6.4563417,73.411153 7.9170525,67.860452 9.3777633,62.017609 14.636322,56.466908 q 5.258559,-5.550701 11.393544,-9.932834 7.011412,-5.258559 15.775677,-9.932833 -0.876426,0.876426 -1.168569,1.460711 2.337138,-2.62928 5.40463,-5.842844 3.067493,-3.213564 7.157483,-7.303554 3.797848,-2.62928 6.427128,-5.40463 2.629279,-2.775351 5.550701,-5.404631 1.460711,-1.168569 4.382132,-2.921422 Q 72.48047,9.4320182 75.986176,7.9713074 79.491882,6.5105966 82.997588,5.1959569 86.503294,3.8813172 89.132573,3.0048907 94.975416,1.2520378 103.30147,0.52168244 111.62752,-0.20867297 119.22322,0.08346919 108.99824,0.95989568 99.357549,4.1734593 91.177568,7.0948809 82.997588,13.083795 74.817607,19.072711 70.143333,29.881971 Z M 35.670558,209.84154 q 8.17998,5.5507 16.944245,9.20248 8.764265,3.65177 16.944245,4.96641 8.179981,1.31464 15.483535,0.29215 7.303554,-1.0225 13.146397,-4.52821 l 1.460711,1.46071 q 1.460709,1.46071 2.337139,3.21357 0.58428,-0.58429 1.16857,-0.87643 0.87642,0 2.77535,-0.58428 1.89892,-0.58429 2.77535,-0.87643 3.21356,-0.58428 5.84284,-1.0225 2.62928,-0.43821 5.25856,-1.0225 4.96642,-1.16856 8.03391,-3.06749 3.06749,-1.89892 6.28106,-3.35963 2.92142,-1.16857 6.28105,-1.75286 3.35964,-0.58428 5.11249,-2.04499 5.5507,-4.67428 6.42713,-9.05641 -5.25856,-2.62928 -7.74177,-10.0789 -2.48321,-7.44963 -0.87643,-15.77568 1.60679,-8.32605 7.74177,-15.92175 6.13499,-7.59569 17.82067,-11.1014 7.5957,-2.04499 14.46104,-0.29214 6.86534,1.75285 12.56211,5.84284 5.69677,4.08999 9.78676,9.34855 4.09,5.25856 6.13499,9.93283 2.62928,6.13499 2.77535,13.73069 0.14607,7.59569 0.14607,12.26997 0,1.16857 -0.29214,3.94392 -0.29214,2.77535 -0.87643,6.13498 -0.58428,3.35964 -1.75285,6.28106 -1.16857,2.92142 -2.92142,4.67427 -3.21357,3.21357 -7.15748,6.42713 -3.94392,3.21356 -8.91034,6.42713 -4.96642,3.21356 -7.88784,3.21356 -2.92142,0 -5.84284,0.29214 0.87642,0.58429 1.31464,1.75286 0.43821,1.16856 0.14607,2.77535 -0.29214,1.60678 -1.75285,3.65177 -1.46071,2.045 -4.67428,4.38214 -4.96642,3.5057 -13.87675,4.96641 -8.91034,1.46071 -17.96674,2.045 -10.51712,0.58428 -22.20281,0 4.08999,0 12.26997,-2.92142 -2.62928,0.87642 -4.38213,0.87642 -2.62928,0.29214 -9.34855,-0.29214 -6.71927,-0.58428 -14.89925,-1.89892 -8.179979,-1.31464 -16.506031,-3.21357 -8.326052,-1.89892 -13.876753,-4.5282 -3.505706,-1.46071 -4.674274,-2.77535 -1.168569,-1.31464 -2.483209,-2.77535 -1.314639,-1.46071 -3.651777,-3.65178 -2.337137,-2.19106 -7.887838,-5.40463 -11.101402,-6.71927 -18.98924,-14.31496 -7.887839,-7.5957 -13.43854,-15.1914 l -1.46071,-1.46071 q 0.876426,0.29214 1.168568,1.16857 -1.460711,-2.33714 -2.921421,-4.38213 -1.460711,-2.045 -2.62928,-4.08999 2.044995,2.62928 5.258559,5.84284 2.337137,2.62928 5.988914,6.13499 3.651777,3.5057 8.03391,7.01141 z"
     id="path10"
     inkscape:label="explosive-success"
     style="stroke-width:0.292142" />
</svg>
