<?xml version="1.0" encoding="UTF-8" standalone="no"?>
<svg
   xmlns:dc="http://purl.org/dc/elements/1.1/"
   xmlns:cc="http://creativecommons.org/ns#"
   xmlns:rdf="http://www.w3.org/1999/02/22-rdf-syntax-ns#"
   xmlns:svg="http://www.w3.org/2000/svg"
   xmlns="http://www.w3.org/2000/svg"
   xmlns:sodipodi="http://sodipodi.sourceforge.net/DTD/sodipodi-0.dtd"
   xmlns:inkscape="http://www.inkscape.org/namespaces/inkscape"
   version="1.1"
   id="svg20"
   sodipodi:docname="opportunity.svg"
   inkscape:version="1.0.2 (e86c8708, 2021-01-15)">
  <metadata
     id="metadata26">
    <rdf:RDF>
      <cc:Work
         rdf:about="">
        <dc:format>image/svg+xml</dc:format>
        <dc:type
           rdf:resource="http://purl.org/dc/dcmitype/StillImage" />
        <dc:title></dc:title>
      </cc:Work>
    </rdf:RDF>
  </metadata>
  <defs
     id="defs24" />
  <sodipodi:namedview
     pagecolor="#ffffff"
     bordercolor="#666666"
     borderopacity="1"
     objecttolerance="10"
     gridtolerance="10"
     guidetolerance="10"
     inkscape:pageopacity="0"
     inkscape:pageshadow="2"
     inkscape:window-width="3360"
     inkscape:window-height="1837"
     id="namedview22"
     showgrid="false"
     inkscape:pagecheckerboard="true"
     showborder="false"
     inkscape:zoom="3.5066667"
     inkscape:cx="150"
     inkscape:cy="75"
     inkscape:window-x="41"
     inkscape:window-y="25"
     inkscape:window-maximized="1"
     inkscape:current-layer="svg20" />
  <path
     d="m 108.80974,142.61187 q 2.92237,-3.79908 4.52968,-5.11415 1.60731,-1.31507 1.60731,0.58447 0,1.89955 -1.46119,7.15982 -1.46119,5.26027 -4.6758,14.90411 -1.46119,4.96804 -2.77626,8.03653 -1.31506,3.06849 -2.63013,5.11415 -1.31507,2.04567 -3.21461,3.36073 -1.899548,1.31507 -4.529685,3.0685 -3.799086,2.3379 -14.611872,5.55251 -10.812785,3.21461 -22.79452,5.55251 -1.16895,0.29224 -2.3379,0.43836 -1.16895,0.14612 -2.630137,0.73059 -0.876712,0 0.584475,-1.02283 1.461187,-1.02283 3.506849,-2.19178 2.045662,-1.16895 3.50685,-2.04566 1.461187,-0.87672 0.584475,-0.58448 -1.461188,0.87671 -5.260274,2.48402 -3.799087,1.60731 -8.182649,3.21461 -4.383562,1.60731 -8.182648,2.92238 -3.799087,1.31506 -4.968037,1.31506 -9.936072,0 -15.634702,-1.6073 -5.69863,-1.60731 -8.913242,-4.82192 -1.7534248,-1.75342 -3.3607307,-4.09132 -1.6073059,-2.3379 -2.9223744,-4.96804 -1.3150684,-2.63014 -2.0456621,-5.40639 -0.7305936,-2.77626 -0.4383561,-5.11416 0,-0.87671 0.4383561,-2.92237 0.4383562,-2.04566 1.1689497,-4.38356 0.7305936,-2.3379 1.7534247,-4.38357 1.022831,-2.04566 2.1917808,-2.92237 -2.0456621,0 -3.5068493,0.73059 -1.4611871,0.7306 -2.3378995,1.60731 -0.87671229,0.87671 -1.16894972,1.31507 -0.29223745,0.43835 0.29223743,-0.14612 2.63013689,-3.79909 7.59817339,-7.45206 4.9680367,-3.65296 12.8584477,-5.69863 5.260273,-1.16895 10.520547,-0.43835 5.260274,0.73059 9.351598,2.77625 4.091324,2.04567 6.429224,4.82192 2.337899,2.77626 1.753424,5.69863 1.461188,0.58448 4.237443,1.16895 2.776256,0.58448 6.86758,0.87671 0.292238,0 -0.584475,0.43836 -0.876712,0.43836 -1.753424,1.16895 -0.876713,0.73059 -1.607306,1.31507 -0.730594,0.58447 -0.438356,0.58447 2.045662,0.87672 5.260274,0.87672 3.214612,0 6.86758,-0.58448 3.652968,-0.58447 7.452054,-1.46119 3.799087,-0.87671 7.013699,-1.75342 4.383562,-1.46119 8.621005,-2.77626 4.237442,-1.31507 6.283105,-2.77625 2.045662,-1.46119 4.091327,-3.94521 2.04566,-2.48402 7.59817,-9.20548 z M 89.522069,112.80365 q 7.598174,0.87672 12.858451,1.02283 5.26027,0.14612 6.42922,0.87672 1.16895,0.73059 -2.3379,2.63013 -3.50685,1.89955 -13.150684,6.28311 -4.968037,2.3379 -9.497717,3.79909 -4.52968,1.46118 -7.744292,2.63013 -3.799087,1.16895 -7.305936,2.04566 -0.876713,0.29224 -1.16895,0 -0.292238,-0.29223 -0.146119,-0.73059 0.146119,-0.43836 1.315069,-1.89954 -4.383562,0.29223 -9.789955,-2.3379 -5.406392,-2.63014 -11.39726,-6.86758 -5.990868,-4.23745 -12.420091,-9.49772 -6.429224,-5.26027 -13.150684,-10.22831 -6.721462,-4.968036 -8.767124,-7.159817 -2.045662,-2.191781 -2.045662,-3.068493 0,-0.876712 1.022831,-1.16895 1.022831,-0.292237 0.438356,-1.753425 Q 12.079148,85.917808 10.764079,83.287671 9.4490106,80.657534 8.4261795,77.881279 7.4033485,75.105023 7.111111,72.182648 6.8188736,69.260274 7.9878233,67.214612 9.741248,64.292237 13.101979,59.908676 q 3.36073,-4.383562 7.452054,-7.890411 4.091325,-3.506849 8.767123,-4.675799 4.675799,-1.16895 9.059361,2.045662 4.383561,3.214612 8.182648,10.082192 3.799087,6.86758 6.136986,13.735159 2.3379,6.86758 2.630137,11.981736 0.292238,5.114155 -2.630137,5.114155 1.461187,2.922374 6.575343,7.744292 5.114155,4.821918 16.219178,10.082188 4.675799,2.3379 7.744292,3.36073 3.068493,1.02284 6.283105,1.31507 z M 116.99239,90.593607 q 0,6.136987 1.31507,11.251143 1.31507,5.11415 1.6073,7.15982 0.29224,2.04566 -1.46118,0.14611 -1.75343,-1.89954 -7.59818,-9.789949 -3.21461,-4.383562 -5.99087,-9.497717 -2.77625,-5.114156 -4.82191,-9.497717 -2.337903,-5.260274 -4.383565,-10.520548 0.292238,-0.292238 0.876713,0 l 1.461187,0.730593 q 0,0 2.630135,1.022832 -2.922373,-8.474886 0.87671,-19.579909 3.79909,-11.105023 9.93608,-26.885845 2.92237,-7.890411 5.26027,-12.420091 2.3379,-4.5296806 4.09133,-7.0136989 1.75342,-2.4840182 3.21461,-3.3607306 1.46118,-0.8767123 2.92237,-1.46118717 Q 128.97412,0 132.77321,0 q 3.79909,0 8.03653,0.43835616 4.23744,0.43835617 7.89041,1.46118724 3.65297,1.022831 5.69863,2.1917808 2.63014,1.7534247 4.96804,5.6986301 2.3379,3.9452057 3.65297,8.9132417 1.31506,4.968037 1.16895,10.666667 -0.14612,5.69863 -2.19179,10.666667 -2.33789,4.968036 -7.45205,9.351598 -5.11416,4.383561 -10.37443,7.305936 -5.26027,2.922374 -9.64383,3.506849 -4.38357,0.584475 -4.6758,-2.337899 -1.46119,1.461187 -3.50685,4.383561 -2.04567,2.922375 -4.09133,7.159818 -2.04566,4.237443 -3.65297,9.643835 -1.6073,5.406393 -1.6073,11.543379 z m 37.11415,11.397263 q -1.46118,1.46118 -4.52968,4.38356 -3.06849,2.92237 -5.55251,4.52968 -2.48402,1.60731 -3.06849,0.58447 -0.58448,-1.02283 2.92237,-7.45205 2.63014,-4.675799 4.23745,-9.20548 1.6073,-4.52968 3.21461,-8.182648 1.6073,-3.652968 3.50685,-6.429224 1.89954,-2.776256 5.11415,-4.237443 3.21461,-1.461187 7.15982,-2.630137 3.94521,-1.16895 9.05936,-2.191781 5.11416,-1.022831 11.83562,-2.19178 6.72146,-1.16895 15.78082,-2.922375 8.18265,-1.461187 11.25114,-1.607306 3.06849,-0.146119 3.65297,0.292238 0.58447,0.438356 0.29224,1.315068 -0.29224,0.876712 1.16895,1.16895 1.46118,0.584475 5.11415,1.607306 3.65297,1.022831 7.59817,2.484018 3.94521,1.461187 7.0137,3.360731 3.0685,1.899543 3.65297,4.237443 0.87671,3.214611 0.29224,8.621004 -0.58448,5.406393 -2.48402,11.105023 -1.89954,5.698633 -5.40639,10.520543 -3.50685,4.82192 -8.76713,6.57535 -6.13698,2.04566 -13.2968,-0.14612 -7.15982,-2.19178 -12.12785,-6.57534 -4.96804,-4.38357 -6.57535,-9.643839 -1.6073,-5.260274 3.36074,-9.059361 -2.04567,-0.584475 -6.86758,-0.876712 -4.82192,-0.292238 -10.95891,0.584474 -6.13699,0.876713 -13.15068,3.652968 -7.0137,2.776256 -13.44293,8.32877 z m 13.15069,41.49771 q -11.6895,-4.38356 -18.41096,-5.99086 -6.72146,-1.60731 -8.03653,-2.19178 -1.31507,-0.58448 2.92237,-0.87672 4.23745,-0.29223 14.17352,-1.75342 7.0137,-0.87671 12.27397,-0.43836 5.26028,0.43836 8.18265,1.60731 1.46119,0.58447 7.74429,2.77625 6.28311,2.19179 14.46576,5.99087 8.18265,3.79909 16.36529,9.20548 8.18265,5.40639 13.44293,11.83562 5.26027,6.72146 6.42922,8.91324 1.16895,2.19178 0.43836,2.63014 -0.7306,0.43835 -2.04567,0.29223 -1.31506,-0.14611 -1.31506,1.60731 0.29223,1.46119 0.14611,6.72146 -0.14611,5.26028 -0.73059,11.10502 -0.58447,5.84475 -1.89954,10.37443 -1.31507,4.52968 -3.65297,4.82192 -2.3379,0.29224 -7.15982,1.02283 -4.82192,0.7306 -10.37443,0.87671 -5.55251,0.14612 -10.9589,-1.31506 -5.40639,-1.46119 -8.91324,-5.55252 -3.50685,-4.38356 -4.09133,-10.37442 -0.58447,-5.99087 0.43836,-11.39726 1.02283,-5.4064 3.50685,-8.91325 2.48402,-3.50685 5.11415,-2.63013 -0.58447,-2.04567 -2.77625,-5.84475 -2.19178,-3.79909 -5.69863,-7.89041 -3.50685,-4.09133 -8.32877,-8.18265 -4.82192,-4.09133 -11.25114,-6.42923 z m -29.51598,28.34704 q -1.16895,-2.3379 -3.36073,-6.28311 -2.19178,-3.9452 -4.23745,-7.89041 -2.04566,-3.94521 -3.36073,-6.72146 -1.31507,-2.77626 -0.58447,-3.21461 0.73059,-0.43836 4.09132,2.63013 3.36073,3.0685 10.66667,11.25115 6.42922,7.01369 11.39726,12.42009 4.96804,5.40639 4.6758,5.99086 0.87671,2.3379 0.58447,3.79909 -0.29223,1.46119 -1.31507,2.48402 -1.02283,1.02283 -3.36073,1.02283 0.87672,4.38356 -0.43835,10.52055 -1.31507,6.13699 -4.23744,13.15068 -2.92238,7.0137 -6.72147,14.46576 -3.79908,7.45205 -8.18264,14.75799 -4.38357,7.30593 -6.13699,9.78995 -1.75343,2.48402 -2.48402,2.77626 -0.73059,0.29224 -1.02283,-0.43836 -0.29224,-0.73059 -1.75342,0.14612 -1.46119,0.58448 -4.52969,1.46119 -3.06849,0.87671 -7.30593,1.46119 Q 105.88737,256 100.91933,256 q -4.968037,0 -10.228311,-1.16895 -4.383562,-0.87671 -8.03653,-5.55251 -3.652968,-4.6758 -5.844749,-10.81279 -2.191781,-6.13698 -2.337899,-12.71233 -0.146119,-6.57534 2.484018,-11.25114 2.630137,-4.6758 8.621005,-7.45205 5.990867,-2.77626 12.420091,-3.21461 6.429225,-0.43836 11.543375,1.89954 5.11416,2.3379 6.28311,7.89041 1.46119,-0.87671 3.79909,-2.04566 2.3379,-1.16895 4.96803,-3.65297 2.63014,-2.48402 5.26028,-6.72146 2.63013,-4.23744 4.6758,-10.9589 1.75342,-4.96804 3.06849,-10.66667 1.31507,-5.69863 0.14612,-7.74429 z"
     id="path12"
     inkscape:label="opportunity"
     style="stroke-width:0.292237" />
</svg>
