<?xml version="1.0" encoding="UTF-8" standalone="no"?>
<svg
   xmlns:dc="http://purl.org/dc/elements/1.1/"
   xmlns:cc="http://creativecommons.org/ns#"
   xmlns:rdf="http://www.w3.org/1999/02/22-rdf-syntax-ns#"
   xmlns:svg="http://www.w3.org/2000/svg"
   xmlns="http://www.w3.org/2000/svg"
   xmlns:sodipodi="http://sodipodi.sourceforge.net/DTD/sodipodi-0.dtd"
   xmlns:inkscape="http://www.inkscape.org/namespaces/inkscape"
   version="1.1"
   id="svg29"
   sodipodi:docname="strife.svg"
   inkscape:version="1.0.2 (e86c8708, 2021-01-15)">
  <metadata
     id="metadata35">
    <rdf:RDF>
      <cc:Work
         rdf:about="">
        <dc:format>image/svg+xml</dc:format>
        <dc:type
           rdf:resource="http://purl.org/dc/dcmitype/StillImage" />
        <dc:title></dc:title>
      </cc:Work>
    </rdf:RDF>
  </metadata>
  <defs
     id="defs33" />
  <sodipodi:namedview
     pagecolor="#ffffff"
     bordercolor="#666666"
     borderopacity="1"
     objecttolerance="10"
     gridtolerance="10"
     guidetolerance="10"
     inkscape:pageopacity="0"
     inkscape:pageshadow="2"
     inkscape:window-width="3360"
     inkscape:window-height="1837"
     id="namedview31"
     showgrid="false"
     inkscape:pagecheckerboard="true"
     showborder="false"
     inkscape:zoom="3.5066667"
     inkscape:cx="150"
     inkscape:cy="75"
     inkscape:window-x="41"
     inkscape:window-y="25"
     inkscape:window-maximized="1"
     inkscape:current-layer="svg29" />
  <path
     d="m 227.18097,169.44832 q 3.21645,-1.46203 3.50886,-3.50886 -2.63164,12.28099 -8.18733,24.26956 -5.55568,11.98858 -11.54997,21.34552 -5.99429,9.35694 -10.96516,14.76642 -4.97087,5.40948 -6.4329,4.53227 -0.5848,-0.29241 -2.33923,-0.29241 -1.75443,0 -4.09366,0.29241 -0.29241,0.58481 -0.29241,1.31582 0,0.73101 -0.5848,1.31582 -5.84809,6.43289 -11.40377,13.01199 -5.55569,6.5791 -8.77213,8.62593 -1.46203,-0.58481 -3.94746,-2.63164 -2.48544,-2.04683 -5.70189,-4.82467 -3.21644,-2.77784 -6.57909,-5.70189 -3.36265,-2.92404 -6.2867,-4.97087 -6.14049,-4.38607 -14.03541,-10.96516 -7.89491,-6.5791 -14.32781,-12.42719 -2.92404,-2.63164 -4.23986,-7.74871 -1.31582,-5.11708 -1.46202,-11.25757 -0.14621,-6.14049 0.2924,-12.71959 0.43861,-6.5791 1.02342,-12.42718 -3.21645,1.46202 -6.4329,3.65505 -3.21645,2.19303 -5.555682,4.53227 -2.339235,2.33923 -3.508852,6.7253 -1.169618,4.38606 -2.631639,8.47972 -2.339235,5.26328 -3.36265,8.77213 -1.023415,3.50885 -1.608224,8.18732 -0.877213,6.7253 -0.584809,9.35694 0.292405,2.63164 1.169618,4.09366 0.877213,1.46203 1.900628,2.92405 1.023415,1.46202 1.608224,5.55568 0.292404,3.80126 -0.438607,6.4329 -0.731011,2.63163 -1.900628,4.82467 -1.169617,2.19303 -2.193033,4.23986 -1.023415,2.04683 -1.023415,4.38606 l -1.754426,-0.87721 q 0.292405,2.04683 0.438607,3.36265 0.146202,1.31582 2.193032,1.90063 -12.280982,-2.63164 -23.830954,-8.18732 -11.549971,-5.55568 -20.322101,-11.40377 -8.77213,-5.84809 -13.596802,-10.81896 -4.824673,-4.97088 -3.94746,-6.4329 0.292405,-0.58481 0.877213,-2.77784 0.584809,-2.19303 1.169618,-4.53227 -1.462022,-0.5848 -3.070246,-1.60822 -1.608224,-1.02341 -4.532267,-5.70188 -2.924044,-4.67847 -5.701885,-9.21074 -2.777841,-4.53227 -5.263278,-9.94175 -2.4854369,-5.40948 -4.5322673,-12.28098 -2.0468302,-6.8715 -3.5088519,-16.22844 -1.46202171,-8.47973 -0.43860652,-17.54426 1.02341522,-9.06454 3.80125632,-18.12907 2.7778412,-9.06454 6.7252994,-17.69046 3.947459,-8.625932 8.918333,-16.520849 0.877213,-1.462021 1.900628,-2.924043 1.023415,-1.462022 1.900628,-2.924044 0.292405,-0.292404 0.438607,-0.292404 0.146202,0 0.438606,-0.292404 -0.292404,-0.584809 -0.146202,-1.608224 0.146202,-1.023415 0.146202,-1.608224 v -1.754426 q 1.462022,-4.386065 5.555684,-9.795545 4.093661,-5.409481 9.210737,-10.380354 5.117076,-4.970874 9.941747,-8.625929 4.824672,-3.655054 8.04112,-4.532267 -0.877214,0.584809 -0.146203,0.292405 0.731011,-0.292405 2.046831,-0.584809 1.315819,-0.292404 2.631639,-0.438607 1.315819,-0.146202 1.608224,0.438607 0.584808,-0.584809 1.023415,-0.731011 0.438606,-0.146202 1.023415,-0.731011 4.093661,-3.216448 11.696174,-6.286693 7.602513,-3.070246 17.251856,-8.04112 3.508852,-1.754426 7.602517,-3.655054 4.09366,-1.900628 7.89491,-3.655054 2.33924,-1.169617 6.2867,-2.777841 3.94745,-1.608224 6.28669,-2.485437 1.16962,-0.584809 1.75443,-1.754426 0.5848,-1.169618 1.02341,-2.4854371 0.43861,-1.3158195 1.02342,-2.3392347 0.5848,-1.0234152 1.75442,-1.6082239 2.63164,-0.877213 6.5791,-2.0468304 3.94746,-1.1696173 8.04112,-2.0468304 4.09366,-0.87721299 7.60251,-1.16961733 3.50885,-0.29240434 4.97088,0 3.21644,0.58480868 6.28669,4.09366073 3.07024,3.5088521 2.77784,7.6025131 -0.2924,2.631639 0.58481,8.187321 0.87721,5.555683 -2.33924,11.40377 -1.16961,2.339234 -4.38606,4.824671 -3.21645,2.485437 -7.16391,4.67847 -3.94746,2.193032 -7.89491,3.655054 -3.94746,1.462022 -5.99429,1.462022 -1.46203,0 -4.09366,0.146202 -2.63164,0.146202 -5.55569,0.292404 -2.92404,0.146202 -5.55568,0.292404 -2.63164,0.146203 -4.38606,0.146203 h -0.29241 0.29241 q 1.75442,0 -1.46203,0.584808 -3.21644,0.584809 -8.18732,1.608224 -4.97087,1.023415 -10.087947,2.193033 -5.117076,1.169617 -7.163907,1.754426 -6.7253,2.339235 -11.696173,4.970874 -4.970874,2.631639 -7.310109,4.09366 -2.924043,2.339235 -4.970874,3.947459 -2.04683,1.608224 -3.801256,3.36265 -1.754426,1.754426 -3.508852,3.801256 -1.754426,2.046831 -4.093661,5.263278 -0.877213,1.169618 -1.754426,3.655055 -0.877213,2.485437 -1.900628,5.40948 -1.023415,2.924043 -2.193033,5.555682 -1.169617,2.631639 -2.339234,4.093661 -0.292405,0.584809 -1.462022,1.023415 -1.169617,0.438607 -2.485437,0.877213 -1.31582,0.438607 -2.631639,1.023419 -1.31582,0.58481 -1.608224,0.87721 -4.678469,6.4329 -7.602513,11.98858 -2.924044,5.55568 -4.824673,10.96516 -1.900628,5.40948 -2.631639,11.25757 -0.73101,5.84808 -1.023415,12.57338 -0.292404,2.33924 -0.292404,6.7253 0,4.38607 1.169617,8.77213 1.169618,5.26328 2.924044,8.62593 1.754426,3.36265 3.655055,5.55568 1.900628,2.19304 3.655054,3.80126 1.754426,1.60822 3.216448,3.36265 5.263278,7.01771 7.310109,10.08795 2.04683,3.07025 3.508852,4.53227 4.970873,4.38606 7.602512,8.33352 2.63164,3.94746 6.140492,5.99429 0.877213,-6.14049 1.754426,-9.79554 0.877213,-3.65506 2.04683,-6.87151 1.169617,-3.21644 2.924043,-6.8715 1.754426,-3.65505 4.093661,-9.79554 2.339235,-5.26328 5.117076,-11.11137 2.777841,-5.84809 5.994289,-9.64934 3.216448,-3.80126 6.7253,-5.26328 3.508852,-1.46202 6.7253,-2.92404 8.187318,-3.21645 18.421478,-6.7253 10.23415,-3.50886 16.95945,-4.09366 0,0.5848 -0.58481,1.75442 2.63164,-0.58481 5.26328,-1.31582 2.63164,-0.73101 3.50885,-0.4386 0.58481,0.2924 1.02341,0.5848 0.43861,0.29241 1.02342,0.58481 l 0.87721,0.87722 q -3.21645,13.4506 -5.55568,24.85436 -2.04683,9.64935 -3.80126,18.27528 -1.75442,8.62592 -1.75442,10.96516 0,1.75442 2.92404,5.40948 2.92404,3.65505 7.16391,8.04112 4.23986,4.38606 8.77213,8.77213 4.53226,4.38606 8.04112,7.31011 3.21644,-3.21645 7.60251,-8.04112 4.38606,-4.82467 8.62593,-9.64935 4.23986,-4.82467 7.45631,-8.62592 3.21645,-3.80126 4.09366,-5.26328 6.43289,-8.18732 11.11136,-15.64363 4.67847,-7.45631 7.89492,-16.81325 3.21645,-8.18732 2.19303,-15.78984 -1.02341,-7.60251 -3.36265,-14.32781 -1.46202,-4.67847 -4.09366,-9.35694 -2.63164,-4.67847 -5.55568,-8.77213 -3.50885,-4.97087 -7.31011,-8.62593 -3.80125,-3.65505 -7.74871,-6.725297 -3.94746,-3.070246 -8.04112,-5.994289 -4.09366,-2.924044 -7.60252,-6.432896 -2.33923,-2.339234 -4.38606,-4.239863 -2.04683,-1.900628 -3.80126,-3.655054 -4.38606,-4.678469 -5.99429,-8.479726 -1.60822,-3.801256 -1.75442,-6.871502 -0.1462,-3.070245 0.73101,-5.263278 l 1.46202,-3.655054 q -0.87721,3.801256 -0.2924,7.602513 0.5848,3.216447 2.48543,7.310108 1.90063,4.093661 6.8715,7.894917 1.75443,1.462022 4.53227,3.36265 2.77784,1.900628 5.70189,3.947459 2.92404,2.04683 5.55568,3.947458 2.63164,1.900629 4.09366,3.070246 -6.7253,-5.555682 -10.96516,-13.4506 -4.23987,-7.894917 -5.40948,-12.865791 3.21644,4.970874 5.70188,8.625928 2.48544,3.655055 5.11708,5.994289 3.80125,2.631639 7.45631,5.117076 3.65505,2.485437 8.91833,6.579098 4.67847,3.508852 9.06454,5.848087 4.38606,2.339235 8.04111,4.970871 3.65506,2.63164 7.01771,6.2867 3.36265,3.65505 6.5791,9.79554 1.75442,3.80126 4.38606,8.04112 2.63164,4.23986 4.82467,8.91833 2.19304,4.67847 3.65506,9.35694 1.46202,4.67847 1.46202,9.35694 0,4.09366 -3.36265,7.60251 -3.36265,3.50886 -5.11708,8.18733 z"
     id="path16"
     inkscape:label="strife"
     style="stroke-width:0.292404" />
</svg>
