<?xml version="1.0" encoding="UTF-8" standalone="no"?>
<svg
   xmlns:dc="http://purl.org/dc/elements/1.1/"
   xmlns:cc="http://creativecommons.org/ns#"
   xmlns:rdf="http://www.w3.org/1999/02/22-rdf-syntax-ns#"
   xmlns:svg="http://www.w3.org/2000/svg"
   xmlns="http://www.w3.org/2000/svg"
   xmlns:sodipodi="http://sodipodi.sourceforge.net/DTD/sodipodi-0.dtd"
   xmlns:inkscape="http://www.inkscape.org/namespaces/inkscape"
   version="1.1"
   id="svg38"
   sodipodi:docname="success.svg"
   inkscape:version="1.0.2 (e86c8708, 2021-01-15)">
  <metadata
     id="metadata44">
    <rdf:RDF>
      <cc:Work
         rdf:about="">
        <dc:format>image/svg+xml</dc:format>
        <dc:type
           rdf:resource="http://purl.org/dc/dcmitype/StillImage" />
        <dc:title></dc:title>
      </cc:Work>
    </rdf:RDF>
  </metadata>
  <defs
     id="defs42" />
  <sodipodi:namedview
     pagecolor="#ffffff"
     bordercolor="#666666"
     borderopacity="1"
     objecttolerance="10"
     gridtolerance="10"
     guidetolerance="10"
     inkscape:pageopacity="0"
     inkscape:pageshadow="2"
     inkscape:window-width="3360"
     inkscape:window-height="1837"
     id="namedview40"
     showgrid="false"
     inkscape:pagecheckerboard="true"
     showborder="false"
     inkscape:zoom="3.5066667"
     inkscape:cx="150"
     inkscape:cy="75"
     inkscape:window-x="41"
     inkscape:window-y="25"
     inkscape:window-maximized="1"
     inkscape:current-layer="svg38" />
  <path
     d="m 248.74415,142.35022 q -3.21375,18.406 -13.58539,31.9914 -10.37165,13.5854 -22.05801,23.5188 8.76477,-14.0237 12.41676,-22.058 3.65199,-8.0344 5.6971,-13.8776 3.50591,-9.9334 4.67454,-19.4286 1.16864,-9.4951 -0.58431,-19.7207 -0.87648,-5.2588 -2.48336,-11.8324 -1.60687,-6.5736 -3.65198,-13.1472 -2.04512,-6.5736 -4.67455,-12.4167 -2.62943,-5.8432 -5.55102,-10.2256 -3.21374,-4.3824 -4.2363,-7.45 -1.02256,-3.0677 -2.19119,-5.6971 -1.16864,-2.6295 -2.92159,-5.2589 -1.75296,-2.6294 -6.13534,-5.8432 -2.92159,-2.0451 -6.57358,-5.2589 -3.65199,-3.2137 -7.59613,-6.5735 -3.94415,-3.3599 -8.03437,-6.1354 -4.09023,-2.7755 -7.59614,-4.2363 -2.33727,-1.1686 -4.67454,-2.1912 -2.33727,-1.0225 -4.67454,-1.899 -4.67455,-1.1686 -14.90011,-2.0451 -10.22557,-0.8765 -22.93448,0.1461 -12.70892,1.0225 -26.44039,4.9667 -13.73147,3.9441 -25.417829,12.7089 -6.427497,4.6745 -10.079484,9.203 -3.651987,4.5285 -5.989259,9.0569 -2.337272,4.5285 -3.944146,8.7648 -1.606874,4.2363 -3.651987,8.3265 -0.876477,1.1687 -1.168636,0.2922 -0.292159,2.6294 -1.752954,6.7196 -1.460795,3.5059 -3.944146,5.9893 -2.483351,2.4833 -4.820623,4.6745 -2.337272,2.1912 -4.382385,4.6746 -2.045113,2.4833 -2.337271,5.9892 -0.292159,1.753 -0.876477,4.5285 -0.584318,2.7755 -1.314716,5.6971 -0.730397,2.9216 -1.168636,5.6971 -0.438238,2.7755 -0.438238,4.2363 0,4.9667 -0.292159,8.9109 -0.292159,3.9441 0.292159,8.6187 1.168636,6.7196 1.899033,10.2255 0.730398,3.5059 0.730398,2.0451 1.168636,4.6746 3.944146,10.8099 2.77551,6.1353 7.157895,13.0011 4.382384,6.8657 10.663802,13.5854 6.281418,6.7196 15.046187,12.2707 1.460795,0.8764 3.651987,1.4607 2.191193,0.5844 4.382385,1.0226 2.191192,0.4382 4.090225,1.1686 1.899034,0.7304 3.06767,1.8991 1.168636,1.4608 1.606874,1.899 0.438238,0.4382 0.292159,0.5843 -0.14608,0.1461 -0.292159,0.1461 -0.146079,0 0.438238,0.2922 0.292159,0.5843 1.460795,1.4608 1.168636,0.8764 2.337272,2.3372 3.505908,0 3.505908,-1.7529 0,-1.753 1.460795,-1.4608 4.382384,0.8765 7.596137,0.4382 3.21374,-0.4382 6.13533,-1.4608 2.92159,-1.0225 5.6971,-2.1912 2.77551,-1.1686 6.28142,-1.1686 4.38239,-11.6864 14.46187,-17.9678 10.07949,-6.2814 24.97959,-6.2814 11.68636,0.2922 17.67562,7.4501 5.98926,7.1579 11.24812,18.8442 2.92159,6.7197 0.29216,14.608 -2.62943,7.8883 -6.13534,13.4393 -1.46079,2.3372 -3.79806,5.551 -2.33728,3.2137 -6.4275,6.1353 -4.09023,2.9216 -10.6638,4.6746 -6.57358,1.7529 -16.50699,0.8764 -4.09022,-0.2921 -8.91084,-0.7304 -4.82063,-0.4382 -9.49517,-1.1686 -4.67455,-0.7304 -8.61869,-1.4608 -3.94415,-0.7304 -6.57358,-1.6069 -4.67454,-0.8764 -8.18045,-2.6294 -1.46079,-0.2921 -3.944145,-0.7304 -2.483352,-0.4382 -5.404941,-0.8765 -2.92159,-0.4382 -5.404941,-1.0225 -2.483352,-0.5843 -3.944146,-1.1687 -2.92159,-1.4607 -7.157895,-2.4833 -4.236305,-1.0226 -8.764769,-2.3373 -4.528465,-1.3147 -9.203008,-3.2137 -4.674544,-1.8991 -8.47261,-4.5285 -5.258862,-3.7981 -8.326531,-8.3265 -3.067669,-4.5285 -5.112782,-9.4952 -2.045113,-4.9667 -3.944146,-10.2255 -1.899033,-5.2589 -5.404941,-10.5178 -0.292159,-0.2921 -0.292159,-0.5843 -2.337272,-3.5059 -4.090226,-6.7196 -6.719656,-11.9786 -10.371643,-20.4512 -3.6519873,-8.4726 -5.5510206,-14.754 -1.8990334,-6.2814 -2.6294308,-10.956 -0.7303974,-4.6745 -1.3147154,-9.0569 -0.5843179,-4.6745 -1.3147153,-10.956 -0.7303975,-6.2814 -1.3147154,-12.2706 -0.58431797,-5.9893 -1.02255643,-10.5178 -0.43823845,-4.5284 -0.14607948,-5.6971 0.29215897,-3.798 1.89903331,-4.5284 1.6068744,-0.7304 3.6519872,-0.8765 2.0451128,-0.1461 4.2363051,-0.8765 2.1911918,-0.7304 3.6519868,-4.5284 4.090226,-10.5178 10.371644,-21.7659 6.281418,-11.2481 13.585392,-19.4285 4.966703,-5.5511 12.562836,-11.2482 7.596133,-5.6971 15.192266,-9.7873 2.92159,-1.7529 5.404941,-2.1912 2.483352,-0.4382 4.820623,-0.7304 2.337272,-0.2921 4.966703,-0.5843 2.629431,-0.2922 5.843179,-1.4608 6.719657,-2.6294 14.60795,-5.5509999 7.88829,-2.9216 16.21482,-4.8206 8.32653,-1.89910003 16.50698,-2.62950003 8.18046,-0.7304 15.48443,1.02260003 5.25886,1.1686 8.91085,1.899 3.65199,0.7304 6.71965,1.4608 3.06767,0.7304 5.98926,1.753 2.92159,1.0225 7.30398,2.7755 4.38238,1.7528999 9.64124,5.2587999 5.25887,3.5059 10.51773,7.5962 5.25886,4.0902 10.07948,8.1804 4.82062,4.0902 8.32653,7.0118 4.9667,4.0903 8.03437,6.7197 3.06767,2.6294 5.40494,5.1128 2.33728,2.4833 4.23631,5.8432 1.89903,3.3598 4.82062,8.9108 4.38239,8.4726 7.01182,18.406 2.62943,9.9334 3.65199,20.159 1.02255,10.2256 0.73039,20.4511 -0.29216,10.2256 -1.75295,19.5747 z"
     id="path14"
     inkscape:label="success"
     style="stroke-width:0.292159" />
</svg>
