<svg version="2.0" xmlns="http://www.w3.org/2000/svg" viewbox="0 0 256 256">
<g>
	<path d="M-139.9,324.2c-9.5,3.9-18.2,9.5-25.3,16.6c-7.9,7.1-13.4,15.8-17.4,25.3c-3.9,9.5-6.3,19.8-6.3,30.9s2.3,21.4,6.3,30.9
		c4.7,9.5,10.3,18.2,17.4,25.3s15.8,12.6,25.3,16.6c9.5,3.9,19.8,6.3,30.9,6.3s21.4-2.4,30.9-6.3s18.2-9.5,25.3-16.6
		c7.1-7.1,13.4-15.8,17.4-25.3c3.9-9.5,6.3-19.8,6.3-30.9s-2.3-21.4-6.3-30.9c-4.7-9.5-10.3-18.2-17.4-25.3s-15.8-12.6-25.3-16.6
		c-9.5-3.9-19.8-6.3-30.9-6.3S-130.4,320.3-139.9,324.2z M-63.1,361.6c-3.1,0.8-5.5,0.8-7.9,0.8c-3.2,0-6.3-0.8-8.7-1.6
		c-1.6-0.8-2.4-2.4-3.2-4c-0.8-1.5-0.8-3.9-1.6-6.3c-0.8-2.3-0.8-4.7-0.8-7.1c0-2.3,0-3.9,0-5.5v-0.8l-0.8,2.4
		c-0.8,1.5-1.6,3.9-2.4,6.3c-0.8,2.3-2.4,4.7-4,7.1c-1.5,2.3-3.1,4.7-5.5,5.5c-0.8,0-0.8,0-1.6,0s-1.6,0-3.2-0.8
		c-1.5,0-3.1-1.6-5.5-3.2c-2.4-1.6-5.5-3.9-8.7-7.9c-3.2-4-7.1-8.8-11.9-14.3c3.2-1.6,6.3-1.6,9.5-2.4c3.2-0.8,7.1-0.8,10.3-0.8
		c11.9,0,23,2.4,32.5,7.9c9.5,5.6,17.5,13.5,23.8,22.2C-56.7,359.9-59.9,360.7-63.1,361.6z M-125.1,357.2c1.6,5.6,2.4,9.5,1.6,11.1
		c-3.1,2.4-4.7,4-5.5,4.8c-0.8,0.8-3.1,1.6-7.9,2.4c-4.7,0.8-7.1,1.6-7.1,1.6h-3.2l0,0c1.6,0,2.4,0,4.8,0.8c2.3,0.8,3.9,1.6,6.3,3.2
		c1.5,1.6,3.1,3.2,5.5,4.8c2.4,1.5,3.2,3.9,4,6.3c0.8,2.3,0,4.7-2.4,7.1c-1.6,2.4-4.7,4.7-7.9,7.9c-3.2,3.1-6.3,5.5-10.3,7.9
		c-3.2,2.3-6.3,3.9-8.7,5.5l0,0l3.2-0.8c2.4-0.8,4.7-2.4,7.9-3.2c3.2-0.8,6.3-2.4,10.3-3.2c4-1.6,7.9-2.4,11.1-2.4
		c-1.5,1.6-3.9,3.2-6.3,4.8c-1.5,1.6-3.9,3.2-6.3,4.8c-1.5,0.8-3.9,1.6-5.5,3.2c-1.5,0.8-3.9,2.4-5.5,3.2c-1.6,0.8-3.2,2.4-4.8,3.2
		c-1.6,0.8-3.2,2.4-4.8,3.2l-7.1,4.8c-4-6.3-7.1-12.7-9.5-19c-2.4-7.1-3.2-14.3-3.2-21.4s1.6-14.3,3.2-20.6
		c1.6-6.3,4.7-12.7,8.7-18.2c3.2-5.5,8-11,13.5-15c4.7-4.8,11.1-7.9,17.4-10.3C-128.8,342.4-125.6,350.4-125.1,357.2z M-133.5,426.3
		c8-5.5,15.9-12.7,23.8-19c0.7,0,2.3-2.3,5.5-5.5l3.2-4c0.8-1.6,1.6-2.4,2.4-4c-1.6,0.8-2.4,0.8-3.2,1.6c-0.8,0.8-1.6,0.8-2.4,1.6
		c-0.8,0.8-1.6,0.8-2.4,1.6c-0.8,0-1.6,0.8-2.4,0.8s-1.6,0.8-2.4,0.8l0,0c-0.8,0-2.4-0.8-3.2-0.8c-0.8-0.8-1.6-0.8-3.2-0.8
		c2.4-4,2.4-7.9,1.6-11.1c0-3.2-1.6-5.5-4-8.7c3.9-2.3,5.5-4.7,7.1-7.1c0.8,0,0.8-1.6,1.6-2.4s0.8-2.4,0.8-4.8c3.2,2.4,7.1,4,10.3,4
		c3.1,0,5.5-0.8,7.1-2.4c0.8,0,0.8-0.8,1.6-0.8c0.8,0,0.8-0.8,1.6-0.8c0.8,1.6,1.6,2.4,2.4,3.2c0.8,0.8,2.4,0.8,3.2,1.6
		c3.2,1.6,8,2.4,13.5,2.4h1c-3.1,4-4.7,7.9-5.5,10.3c-0.8,2.3-1.6,4.7-1.6,6.3c0,1.6,0,3.2,0,4.8s0.8,3.2,0.8,4.8
		c-4,0.8-7.9,1.6-12.7,4c-1.6,0.8-3.2,2.4-4.8,4c-1.6,1.5-3.2,3.1-4.8,5.5c0,0,0-0.8-0.8-1.6c-0.8-0.8-1.6-2.4-2.4-3.2l0,0
		c-4,4.7-7.9,10.3-11.9,15.8c-4,3.9-7.9,9.5-12.7,15.8s-9.5,12.7-14.3,19c-3.2-1.5-5.5-3.1-8.7-5.5c-3.1-2.3-5.5-4.7-7.9-7.1
		C-149.4,438.3-140.7,432-133.5,426.3z M-122.9,462.7c-3.2,0-6.3-1.6-9.5-2.4l4-5.5c1.6-2.3,3.2-4.7,4.8-7.1
		c1.6-2.3,3.2-4.7,4.8-7.1c1.6-2.3,3.2-4.7,4.8-7.1c1.6-2.4,3.2-4.7,4.8-7.9l0.8-0.8l0.8-0.8c0.8,3.2,1.6,7.1,1.6,10.3
		s0.8,6.3,0.8,9.5c0,3.1,0,5.5,0,7.1v3.2l0.8,0.8c0,0,0.8-1.6,0.8-3.2s0.8-3.9,1.6-7.1s1.6-6.3,2.4-9.5c1.6-4,2.4-7.1,4-10.3
		c1.6-3.2,3.2-6.3,4.8-8.7c1.6-2.3,3.2-4.7,4.8-5.5c3.2-1.6,5.5-2.4,8.7-2.4c2.4,0,4.7,0.8,7.9,1.6c3.2,1.6,6.3,2.4,10.3,4l4,1.6
		h0.8l-2.4-2.4c-1.6-1.5-3.2-3.1-4.8-5.5c-2.4-2.4-4-4.7-4.8-7.9c-0.8-3.2-1.6-6.3-0.8-10.3c0-2.3,0.8-4.7,2.4-7.1
		c1.5-2.4,3.1-4.7,5.5-7.9c2.4-3.2,5.5-6.3,10.3-9.5c2.3,4.7,3.9,10.2,5.5,15c1.6,5.5,2.4,11.1,2.4,16.6c0,8.7-1.5,18.2-5.5,26.1
		c-3.9,8.7-8.7,15.9-15,22.2c-5.6,6.3-13.5,11.8-21.4,15c-7.9,3.9-16.6,5.5-26.1,5.5C-113,465.2-116.1,465.2-122.9,462.7z"/>
</g>
</svg>
