<?xml version="1.0" encoding="UTF-8" standalone="no"?>
<svg
   xmlns:dc="http://purl.org/dc/elements/1.1/"
   xmlns:cc="http://creativecommons.org/ns#"
   xmlns:rdf="http://www.w3.org/1999/02/22-rdf-syntax-ns#"
   xmlns:svg="http://www.w3.org/2000/svg"
   xmlns="http://www.w3.org/2000/svg"
   xmlns:sodipodi="http://sodipodi.sourceforge.net/DTD/sodipodi-0.dtd"
   xmlns:inkscape="http://www.inkscape.org/namespaces/inkscape"
   width="210mm"
   height="297mm"
   viewBox="0 0 210 297"
   version="1.1"
   id="svg2694"
   inkscape:version="1.0.2-2 (e86c870879, 2021-01-15)"
   sodipodi:docname="repair.svg">
  <defs
     id="defs2688" />
  <sodipodi:namedview
     id="base"
     pagecolor="#ffffff"
     bordercolor="#666666"
     borderopacity="1.0"
     inkscape:pageopacity="0.0"
     inkscape:pageshadow="2"
     inkscape:zoom="0.35"
     inkscape:cx="400"
     inkscape:cy="560"
     inkscape:document-units="mm"
     inkscape:current-layer="svg2694"
     inkscape:document-rotation="0"
     showgrid="false"
     inkscape:pagecheckerboard="true"
     showborder="false"
     inkscape:window-width="1267"
     inkscape:window-height="1198"
     inkscape:window-x="312"
     inkscape:window-y="163"
     inkscape:window-maximized="0" />
  <metadata
     id="metadata2691">
    <rdf:RDF>
      <cc:Work
         rdf:about="">
        <dc:format>image/svg+xml</dc:format>
        <dc:type
           rdf:resource="http://purl.org/dc/dcmitype/StillImage" />
        <dc:title></dc:title>
      </cc:Work>
    </rdf:RDF>
  </metadata>
  <path
     glyph-name="parenright"
     unicode=")"
     d="m 57.677107,136.3277 z m -13.26265,62.30361 z M 126.45783,87.286746 Q 122.13976,79.884337 116.58795,73.098799 111.03614,66.621685 104.55903,61.378312 98.081925,56.443373 90.679516,52.433733 77.108432,46.573493 62.920481,43.489156 76.183131,35.161445 90.679516,28.99277 107.9518,23.440963 125.84096,21.281927 l -7.40241,11.103615 q 6.16868,4.626506 11.72049,9.561445 2.7759,2.46747 5.55181,5.243374 2.46746,2.775903 4.93493,5.86024 h 0.61687 l 11.72048,-10.486746 q 2.46747,3.084337 5.24337,6.785541 2.77591,3.701205 5.24338,7.40241 l 4.31807,7.40241 3.08434,5.551807 -37.01205,37.320477 q -2.7759,-10.178312 -7.40241,-19.739754 z m 1.54216,168.404814 q 26.52531,0 49.96627,-9.86988 23.44097,-9.86989 40.71325,-27.29638 Q 235.9518,201.09879 245.9759,177.81204 256,154.52529 256,127.99999 256,101.47469 245.9759,78.033735 235.9518,54.59277 218.67951,37.320481 201.40723,20.048193 177.96626,10.024096 154.5253,0 127.99999,0 101.4747,0 78.187949,10.024096 54.901204,20.048193 37.628915,37.320481 20.356626,54.59277 10.178313,78.033735 0,101.47469 0,127.99999 q 0,26.5253 10.178313,49.81205 10.178313,23.28675 27.450602,40.71326 17.272289,17.42649 40.559034,27.29638 23.286751,9.86988 49.812041,9.86988 z M 189.99517,37.012048 q 5.24338,3.701204 9.86989,7.710842 L 134.4771,109.49398 44.106024,199.24819 Q 36.086746,189.3783 30.226506,177.96626 18.19759,153.90843 18.19759,127.38312 18.506024,115.04578 20.973494,103.3253 23.749398,91.296381 28.684337,80.192767 33.927711,69.397588 41.33012,59.99036 48.732529,50.583131 57.985541,42.872288 72.173493,32.385542 88.52048,25.908433 108.26024,18.19759 127.99999,17.889156 h 1.23375 q 10.48674,0 20.97348,2.159037 10.48676,2.159036 20.81929,6.631324 10.33252,4.472289 18.96866,10.332531 z m 29.30121,29.301203 q 5.86024,8.94458 10.17832,18.814463 4.31807,10.178313 6.78553,20.665056 2.15905,10.79517 2.15905,22.20722 0,11.41205 -2.15905,22.20723 -2.46746,10.48675 -6.78553,20.66506 -4.31808,9.86988 -10.17832,18.81445 -5.86023,8.94458 -13.26264,16.34699 -7.40241,7.40241 -16.03857,13.26265 -9.25301,5.86025 -19.12288,10.17831 -10.17831,4.31808 -20.66507,6.47711 -24.05783,4.93495 -48.88674,-1.23373 -24.828916,-6.16868 -43.643373,-21.8988 L 214.053,59.219275 q 2.77591,3.392771 5.24338,7.093976 z m -37.01205,38.862649 -11.41204,2.15903 -35.46989,34.23614 q -0.9253,4.62651 -1.8506,8.94458 -2.15903,7.40241 -5.24336,14.18795 -3.70121,6.78555 -7.71086,12.64579 -4.6265,5.86023 -9.56144,11.41204 -5.55181,4.93495 -11.412046,9.25301 -18.19759,10.48676 -38.554215,14.80482 14.804819,9.86989 31.151806,16.65542 18.197585,5.24338 36.703615,6.47711 l 2.15904,-1.54216 q 1.54216,-0.9253 2.7759,-1.8506 1.23373,-1.23374 2.77591,-2.46747 l -10.48676,-12.33735 q 2.77591,-2.46747 5.86025,-4.93495 2.46746,-2.7759 5.24337,-5.5518 2.7759,-2.77591 5.24337,-5.55181 2.46748,-3.08434 4.62651,-6.16867 l 12.64579,8.94457 4.93493,-7.40241 q 0,0 4.31808,-7.40241 1.8506,-4.00963 3.7012,-7.71084 1.85061,-3.7012 3.08434,-7.71084 l -14.49639,-5.5518 q 1.23374,-3.70121 2.15904,-7.40241 l 1.8506,-7.40241 q 0.9253,-4.00965 1.54216,-7.71085 0.30845,-3.70121 0.92531,-7.71084 l 16.03856,1.8506 v -0.9253 -2.77591 -2.7759 q 0,-1.54217 0.30843,-3.08433 v -2.77591 q -0.30843,-2.7759 -0.30843,-5.5518 0,-2.77591 -0.30844,-5.86025 -0.30843,-3.08433 -0.61686,-5.86023 z M 160.38554,85.744574 Z M 127.38313,17.889156 Z"
     id="path12"
     style="display:inline;stroke-width:0.308433"
     inkscape:label="raid-repair" />
</svg>
