<?xml version="1.0" encoding="UTF-8" standalone="no"?>
<svg
   xmlns:dc="http://purl.org/dc/elements/1.1/"
   xmlns:cc="http://creativecommons.org/ns#"
   xmlns:rdf="http://www.w3.org/1999/02/22-rdf-syntax-ns#"
   xmlns:svg="http://www.w3.org/2000/svg"
   xmlns="http://www.w3.org/2000/svg"
   xmlns:sodipodi="http://sodipodi.sourceforge.net/DTD/sodipodi-0.dtd"
   xmlns:inkscape="http://www.inkscape.org/namespaces/inkscape"
   width="210mm"
   height="297mm"
   viewBox="0 0 210 297"
   version="1.1"
   id="svg2105"
   inkscape:version="1.0.2-2 (e86c870879, 2021-01-15)"
   sodipodi:docname="squadron.svg">
  <defs
     id="defs2099" />
  <sodipodi:namedview
     id="base"
     pagecolor="#ffffff"
     bordercolor="#666666"
     borderopacity="1.0"
     inkscape:pageopacity="0.0"
     inkscape:pageshadow="2"
     inkscape:zoom="0.35"
     inkscape:cx="400"
     inkscape:cy="560"
     inkscape:document-units="mm"
     inkscape:current-layer="layer1"
     inkscape:document-rotation="0"
     showgrid="false"
     inkscape:pagecheckerboard="true"
     showborder="false"
     inkscape:window-width="1267"
     inkscape:window-height="1198"
     inkscape:window-x="260"
     inkscape:window-y="163"
     inkscape:window-maximized="0" />
  <metadata
     id="metadata2102">
    <rdf:RDF>
      <cc:Work
         rdf:about="">
        <dc:format>image/svg+xml</dc:format>
        <dc:type
           rdf:resource="http://purl.org/dc/dcmitype/StillImage" />
        <dc:title></dc:title>
      </cc:Work>
    </rdf:RDF>
  </metadata>
  <g
     inkscape:label="Layer 1"
     inkscape:groupmode="layer"
     id="layer1">
    <path
       glyph-name="asterisk"
       unicode="*"
       d="m 141.43305,117.34619 -14.51387,-11.73461 11.11701,-15.13149 10.49939,2.779252 4.01447,6.793738 z M 98.817852,76.892643 83.377563,61.143547 105.30277,46.938473 Z m -48.791314,7.102525 8.337756,-5.867306 10.190591,9.572976 z m -0.308806,0 z M 152.85887,87.392036 127.22798,79.05428 186.8275,47.556089 166.44632,111.47889 Z m 37.6743,47.864904 0.30881,30.26296 -16.67551,-14.82268 z m -50.95296,46.32086 11.73463,-12.96985 12.66104,12.04343 z M 128.1544,0 q 26.24849,0 49.56334,10.03619 23.31483,10.036179 40.60795,27.329307 17.29313,17.293129 27.48372,40.453563 Q 256,100.97949 256,127.22798 q 0,26.55731 -10.19059,49.87214 -10.19059,23.31484 -27.48372,40.60795 -17.29312,17.29313 -40.60795,27.32932 -23.31485,10.03619 -49.56334,10.03619 -26.55729,0 -49.717729,-10.03619 Q 55.276236,235.0012 37.828709,217.70807 20.381182,200.41496 10.190591,177.10012 0,153.78529 0,127.22798 0,100.97949 10.190591,77.81906 20.381182,54.658626 37.828709,37.365497 55.276236,20.072369 78.436671,10.03619 101.59711,0 128.1544,0 Z M 28.718939,169.22557 q 8.02895,-20.68999 16.984318,-38.60072 9.881785,-19.45476 19.763571,-35.512673 l 6.484921,1.235231 5.558505,8.646562 Q 67.319662,124.13993 58.673101,147.30036 50.64415,168.60795 44.77684,193.31242 l -8.955369,-12.35223 q -7.411339,-10.8082 -7.102532,-11.73462 z m 135.565741,45.08565 -3.39687,15.13148 q -4.94089,1.54403 -10.19059,2.47045 -4.63209,0.92642 -9.57298,1.23522 2.77926,-10.19059 6.48493,-21.3076 1.85283,-5.2497 4.32328,-12.04343 1.85284,-5.2497 4.32327,-11.11701 l 7.10254,0.3088 6.17612,7.10254 q -1.23523,4.63209 -2.62485,9.10977 -1.38963,4.47769 -2.62485,9.10978 z m 27.1749,3.08805 q 4.32329,-3.39687 8.02896,-7.10254 L 44.468033,56.820262 q -4.32328,4.323285 -8.02895,9.264174 -5.558504,8.955372 -9.881785,18.528348 -3.70567,9.881789 -6.484922,20.689986 -1.852835,10.8082 -2.16164,21.92521 0,6.79373 0.617612,13.27865 0.61761,5.5585 1.544028,11.11701 2.779252,10.8082 7.102534,21.3076 3.088057,5.8673 6.793727,11.42581 4.940893,7.10253 9.881785,13.58746 l 6.176116,6.79372 q 3.088058,3.08807 6.793728,5.86732 8.02895,6.17611 16.675512,11.73461 6.176116,3.70567 12.661038,7.10254 5.867309,2.47045 12.352231,4.32328 7.102533,1.54402 13.896263,2.77925 3.70567,0.61761 7.72015,0.61761 4.01447,0 8.02894,0.30881 22.54282,-1.54403 43.85042,-8.64657 10.1906,-4.94089 19.45476,-11.42581 z m 40.76237,-54.96743 q 3.08807,-8.33775 4.63209,-16.98431 1.23523,-8.95537 1.54403,-18.21955 -0.3088,-11.11701 -2.16164,-22.23401 -2.77925,-10.499397 -6.48492,-20.381186 -4.32328,-9.572976 -10.19059,-18.528348 -6.17612,-8.646558 -13.27866,-16.366711 -7.72014,-7.102525 -16.3667,-13.587447 -8.95537,-5.867318 -18.83716,-10.190591 -10.19059,-3.70567 -20.68998,-6.17612 -11.11701,-1.852835 -22.23402,-2.161637 -11.42581,0.308802 -22.54282,2.161637 -10.499396,2.47045 -20.689987,6.17612 -9.572981,4.323273 -18.837153,10.190591 -4.323282,3.396856 -8.028951,7.102525 L 213.3848,195.47406 q 10.80821,-15.7491 18.83715,-33.04222 z m -111.17007,-6.17612 -6.17613,14.20507 q -3.70567,10.4994 -7.10253,20.68999 -5.2497,18.52835 -10.19059,37.0567 -2.470446,-0.30882 -4.940893,-0.92642 -3.396864,-1.23523 -6.793727,-2.77925 -4.323281,-1.54403 -8.646563,-4.01448 -1.235223,-1.23522 -2.779252,-2.47044 2.161641,-8.64657 4.940893,-17.60193 3.396863,-9.57299 7.102533,-18.83716 4.014476,-9.57298 8.337756,-18.83715 4.632087,-9.26418 10.190593,-18.21954 4.32328,-6.17612 8.64656,-11.73462 l 13.58745,12.96984 z"
       id="path14"
       style="display:inline;stroke-width:0.308805"
       inkscape:label="raid-squadron" />
  </g>
</svg>
