<?xml version="1.0" standalone="no"?>
<!DOCTYPE svg PUBLIC "-//W3C//DTD SVG 1.1//EN" "http://www.w3.org/Graphics/SVG/1.1/DTD/svg11.dtd" >
<svg xmlns="http://www.w3.org/2000/svg">
<metadata>
<json>
<![CDATA[
{
	"fontFamily": "Fantasy-Flight-Icons",
	"majorVersion": 1,
	"minorVersion": 2,
	"version": "Version 1.2",
	"fontId": "Fantasy-Flight-Icons",
	"psName": "Fantasy-Flight-Icons",
	"subFamily": "Regular",
	"fullName": "Fantasy-Flight-Icons",
	"description": "Font generated by IcoMoon."
}
]]>
</json>
</metadata>
<defs>
<font id="Fantasy-Flight-Icons" horiz-adv-x="1024">
<font-face units-per-em="1024" ascent="960" descent="-64" />
<missing-glyph horiz-adv-x="1024" />
<glyph unicode="&#x20;" horiz-adv-x="512" d="" />
<glyph unicode="&#xe900;" glyph-name="d6" data-tags="d6" d="M94.041 30.041h835.918v835.918h-835.918v-835.918z" />
<glyph unicode="&#xe901;" glyph-name="d6-outline" data-tags="d6-outline" d="M929.959 30.041v835.918h-835.918v-835.918h835.918zM875.624 84.376h-727.249v727.249h727.249v-727.249z" />
<glyph unicode="&#xe902;" glyph-name="d8" data-tags="d8" d="M512 865.959l-313.469-417.959 313.469-417.959 313.469 417.959-313.469 417.959z" />
<glyph unicode="&#xe903;" glyph-name="d8-outline" data-tags="d8-outline" d="M825.469 448l-313.469 417.959-313.469-417.959 313.469-417.959 313.469 417.959zM512 794.906l263.314-351.086-263.314-346.906-263.314 346.906 263.314 351.086z" />
<glyph unicode="&#xe904;" glyph-name="d12" data-tags="d12" d="M720.98 809.535l208.98-359.445-208.98-363.624h-417.959l-208.98 363.624 208.98 359.445h417.959z" />
<glyph unicode="&#xe905;" glyph-name="d12-outline" data-tags="d12-outline" d="M929.959 448l-208.98 363.624h-417.959l-208.98-363.624 208.98-363.624h417.959l208.98 363.624zM879.804 448l-183.902-317.649h-367.804l-183.902 317.649 183.902 317.649h367.804l183.902-317.649z" />
<glyph unicode="&#xe906;" glyph-name="grpg-advantage" data-tags="grpg-advantage" d="M94.041 92.735c137.927 238.237 280.033 472.294 417.959 710.531 137.927-238.237 280.033-472.294 417.959-710.531v0 0 0c-137.927 87.771-275.853 171.363-417.959 259.135-137.927-87.771-280.033-175.543-417.959-259.135v0zM294.661 297.535v0c71.053 41.796 146.286 87.771 217.339 133.747 71.053-45.976 142.106-87.771 217.339-133.747v0 0 0c-71.053 121.208-146.286 242.416-217.339 367.804-71.053-121.208-146.286-242.416-217.339-367.804z" />
<glyph unicode="&#xe907;" glyph-name="grpg-despair" data-tags="grpg-despair" d="M296.751 201.927c-28.735-16.718-53.812-37.094-82.547-53.812 4.18 8.359 12.539 20.898 16.718 28.735 4.18 8.359 12.539 16.718 16.718 28.735 4.18 8.359 12.539 16.718 20.898 28.735 0 0 0 0-4.18 4.18-25.078 28.735-41.273 57.992-57.992 95.086 0 4.18-4.18 4.18-4.18 8.359-32.914 32.914-70.531 70.531-103.445 103.445l-4.18 4.18 4.18 4.18c32.914 32.914 70.531 70.531 103.445 103.445 0 0 4.18 4.18 4.18 8.359 12.539 32.914 32.914 66.351 57.992 95.086 0 0 0 0 4.18 4.18v0c-16.718 28.735-37.094 53.812-53.812 82.547v0c28.735-16.718 53.812-37.094 82.547-53.812l4.18 4.18c20.898 16.718 41.273 32.914 66.351 45.453 8.359 4.18 16.718 8.359 28.735 12.539 4.18 0 4.18 4.18 8.359 4.18 32.914 32.914 70.531 70.531 103.445 103.445l4.18 4.18c8.359-8.359 16.718-16.718 25.078-25.078 28.735-28.735 57.992-53.812 82.547-82.547l4.18-4.18c16.718-8.359 37.094-16.718 53.812-25.078s28.735-20.898 45.453-32.914c0 0 0 0 4.18-4.18 28.735 16.718 53.812 37.094 82.547 53.812v0c-16.718-28.735-37.094-53.812-53.812-82.547 0 0 0-4.18 4.18-4.18 12.539-12.539 25.078-28.735 32.914-45.453 8.359-16.718 20.898-32.914 25.078-49.633 0-4.18 4.18-4.18 4.18-8.359 32.914-32.914 66.351-62.171 95.086-95.086 4.18-4.18 8.359-8.359 12.539-12.539l-4.18-4.18c-32.914-32.914-70.531-70.531-103.445-103.445-4.18-4.18-4.18-4.18-4.18-8.359-8.359-20.898-20.898-41.273-32.914-62.171-8.359-12.539-16.718-20.898-25.078-32.914l-4.18-4.18c16.718-28.735 37.094-53.812 53.812-82.547v0 0c-28.735 16.718-53.812 37.094-82.547 53.812 0 0 0 0-4.18-4.18-28.735-25.078-62.171-45.453-95.086-57.992-4.18 0-4.18-4.18-8.359-4.18-32.914-32.914-66.351-66.351-99.265-99.265-4.18-4.18-4.18-8.359-8.359-12.539l-4.18 4.18c-32.914 32.914-70.531 70.531-103.445 103.445-4.18 4.18-4.18 4.18-8.359 4.18-25.078 8.359-49.633 25.078-70.531 37.094-12.539 8.882-20.898 17.241-29.257 25.6 0-4.18 0-4.18 0 0zM416.914 441.731c-41.273 57.992-78.89 115.984-120.163 173.976-90.906-107.624-78.89-260.702 0-347.429 37.094 57.469 78.89 115.461 120.163 173.453zM333.845 652.8c57.992-37.094 115.984-78.89 173.976-115.984 57.992 41.273 115.984 78.89 173.976 115.984-99.265 86.727-248.686 86.727-347.951 0zM333.845 230.661c32.914-25.078 66.351-45.453 107.624-53.812 53.812-12.539 103.445-12.539 153.078 4.18 32.914 12.539 62.171 28.735 86.727 49.633-57.992 41.273-115.984 78.89-173.976 115.984-57.469-37.094-115.461-78.89-173.453-115.984zM602.906 441.731c41.273-57.992 78.89-115.984 120.163-173.976 78.89 95.086 86.727 248.163 0 347.429-41.273-57.469-78.89-115.461-120.163-173.453z" />
<glyph unicode="&#xe908;" glyph-name="grpg-failure" data-tags="grpg-failure" d="M94.041 30.041c8.359 8.359 12.539 20.898 20.898 29.257 37.616 58.514 79.412 112.849 117.029 171.363 50.155 71.053 96.131 142.106 146.286 213.159l4.18 4.18-4.18 4.18c-41.796 58.514-79.412 117.029-121.208 175.543-54.335 79.412-104.49 154.645-158.824 234.057v0c4.18 0 4.18-4.18 8.359-4.18 62.694-41.796 121.208-83.592 183.902-125.388 75.233-50.155 146.286-100.31 221.518-150.465h4.18c58.514 41.796 117.029 79.412 175.543 121.208 79.412 54.335 158.824 108.669 238.237 163.004v0c0 0 0-4.18-4.18-4.18-41.796-62.694-83.592-121.208-125.388-183.902-45.976-66.873-91.951-133.747-137.927-200.62-8.359-8.359-12.539-16.718-20.898-29.257v-4.18c41.796-62.694 87.771-125.388 129.567-188.082 29.257-45.976 62.694-87.771 91.951-133.747 20.898-29.257 41.796-58.514 62.694-87.771 0 0 0 0 0-4.18v0c-54.335 37.616-108.669 75.233-163.004 112.849-50.155 33.437-100.31 66.873-150.465 100.31-33.437 20.898-66.873 45.976-100.31 66.873h-4.18c-66.873-45.976-129.567-87.771-196.441-133.747-45.976-33.437-91.951-62.694-137.927-96.131-25.078-12.539-50.155-29.257-79.412-50.155 4.18 0 0 0 0 0v0z" />
<glyph unicode="&#xe909;" glyph-name="grpg-success" data-tags="grpg-success" d="M513.045 32.131c-0.522 0-0.522 1.045-0.522 1.045-4.18 29.257-10.449 50.678-14.106 75.755-8.359 25.078-13.061 48.065-25.6 72.62-12.539 20.898-25.078 45.976-37.616 66.351 0 0 0 0-4.18 0-33.437-4.18-66.351-16.718-99.788-29.257-37.616-16.718-74.71-37.616-103.967-62.171h-4.18c0 0 0 0 0 4.18 16.718 20.898 33.437 45.976 45.976 70.531 25.078 41.796 37.616 87.249 45.976 133.224 0 4.18 0 4.18-4.18 4.18-37.616 25.078-74.71 41.796-112.327 53.812-25.078 8.359-53.812 16.718-78.89 20.898-8.359 0-12.539 0-20.898 4.18v0c8.359 0 20.898 4.18 29.257 4.18 29.257 4.18 53.812 12.539 83.069 20.898 33.437 12.539 70.531 33.437 99.788 53.812 0 0 0 0 0 4.18-8.359 41.796-20.898 78.89-37.616 116.506-16.718 29.257-33.437 57.992-53.812 83.069 0 4.18 0 4.18 0 4.18 4.18 0 4.18 0 4.18 0 25.078-20.898 50.155-37.616 78.89-50.155 33.437-16.718 66.351-29.257 103.967-37.616 8.359 0 12.539-4.18 20.898-4.18h4.18c12.539 16.718 20.898 33.437 33.437 53.812 12.539 20.898 20.898 41.796 29.257 66.351 8.359 20.898 12.539 37.616 16.718 57.992 0 12.539 4.18 25.078 4.18 37.616 0 0 0 0 0 4.18v0-4.18c0-12.539 4.18-25.078 4.18-33.437 8.359-33.437 16.718-66.351 29.257-99.788 12.539-29.257 25.078-53.812 41.796-78.89l4.18-4.18c53.812 8.359 108.147 29.257 157.78 62.171 16.718 12.539 33.437 20.898 50.155 33.437h4.18c0-4.18 0-4.18 0-4.18-33.437-41.796-62.171-91.429-78.89-141.584-8.359-20.898-12.539-41.796-16.718-62.171 0 0 0 0 0-4.18 41.796-25.078 83.069-50.155 129.045-62.171 20.898-8.359 41.796-12.539 66.351-12.539 8.359 0 12.539 0 20.898-4.18 0 0 0 0 4.18 0v0c0 0 0 0-4.18 0-37.616-4.18-78.89-12.539-116.506-29.257-33.437-12.539-66.351-29.257-99.788-50.155 0 0 0 0 0-4.18 8.359-41.796 20.898-78.89 37.616-116.506 16.718-33.437 33.437-62.171 53.812-87.249 0 0 0 0 0-4.18v0h-4.18c-25.078 20.898-53.812 37.616-83.069 53.812-37.616 16.718-74.71 33.437-116.506 37.616-4.18 0-8.359 0-8.359-4.18-29.257-41.796-50.155-87.249-62.171-137.404-4.18-20.898-12.016-45.453-12.016-66.351 0-3.135 0 0.522 0-3.657 0 0-0.522-4.18-0.522-4.18-2.090 1.567-2.612 1.567-2.612 1.567zM514.090 339.853c53.812 0 108.147 50.155 108.147 108.147s-50.155 108.147-108.147 108.147-108.147-50.155-108.147-103.967c0-62.171 53.812-112.327 108.147-112.327z" />
<glyph unicode="&#xe90a;" glyph-name="grpg-threat" data-tags="grpg-threat" d="M94.041 132.963v0c12.539 8.359 20.898 16.718 29.257 25.078 0 0 0 0 4.18 4.18 12.539 20.898 25.078 37.616 37.616 57.992 12.539 20.898 20.898 41.796 25.078 62.171v4.18c-4.18 16.718-4.18 29.257-8.359 45.976 0 16.718-4.18 33.437 0 50.155 0 45.976 12.539 91.429 29.257 133.224 41.796 87.249 120.686 154.122 212.114 174.498 4.18 0 8.359 4.18 12.539 8.359 20.898 25.078 37.616 50.155 50.155 78.89 4.18 8.359 8.359 16.718 12.539 29.257 4.18 8.359 8.359 20.898 8.359 33.437 0 4.18 0 12.539 4.18 20.898v0c4.18-29.257 16.718-53.812 29.257-83.069s29.257-53.812 50.155-78.89l4.18-4.18c37.616-12.539 74.71-29.257 108.147-50.155 65.306-50.678 106.58-112.849 127.478-191.739 4.18-16.718 8.359-33.437 8.359-50.155s0-37.616 0-53.812c0-20.898-4.18-37.616-8.359-57.992 0-4.18 0-4.18 0-8.359 12.539-29.257 25.078-57.992 45.976-87.249 4.18-8.359 12.539-16.718 16.718-25.078 8.359-12.539 20.898-25.078 37.616-37.616v0c-20.898 8.359-45.976 12.539-66.351 16.718-16.718 0-33.437 4.18-50.155 0-20.898 0-37.616-4.18-57.992-8.359-4.18 0-4.18 0-4.18-4.18-12.539-16.718-29.257-29.257-45.976-41.796-37.616-29.257-83.069-45.976-129.045-53.812-25.078-4.18-50.155-8.359-74.71-4.18-83.069 4.18-157.78 37.616-216.294 99.788-4.18 4.18-4.18 4.18-8.359 4.18-29.257 4.18-53.812 8.359-83.069 4.18-29.257 0-53.812-4.18-78.89-12.539-13.061 4.18-17.241 4.18-21.42 0v0 0zM447.739 340.898c0-4.18 0-4.18 0 0-16.718-12.539-29.257-29.257-41.796-45.976-20.898-29.257-37.616-62.171-53.812-95.608-4.18-8.359-4.18-16.718-8.359-25.078 4.18-4.18 8.359-8.359 12.539-12.539 41.796-29.257 83.069-45.976 133.224-50.155 20.898 0 45.976 0 66.351 4.18 41.796 8.359 78.89 25.078 112.327 50.155 0 0 0 0 4.18 4.18v0c-12.539 37.616-29.257 70.531-50.155 103.967-12.539 20.898-29.257 41.796-50.155 57.992v0h4.18c25.078-8.359 53.812-12.539 83.069-16.718 20.898 0 41.796 0 57.992 4.18 16.718 4.18 29.257 4.18 45.976 8.359 0 4.18 0 8.359 4.18 12.539 4.18 25.078 4.18 50.155 0 74.71-8.359 37.616-20.898 74.71-45.976 108.147-29.257 41.796-70.531 70.531-116.506 91.429v0c-45.976-50.155-78.89-108.147-91.429-174.498 0 8.359-4.18 16.718-4.18 25.078s-4.18 16.718-8.359 25.078c-20.898 45.976-45.976 87.249-78.89 124.865 0 0 0 0 0 4.18-95.608-33.437-191.216-141.584-166.139-286.824 4.18 0 12.539 0 16.718-4.18 33.437-8.359 66.351-8.359 103.967-4.18 20.898 0 45.976 4.18 71.053 16.718z" />
<glyph unicode="&#xe90b;" glyph-name="grpg-triumph" data-tags="grpg-triumph" d="M920.555 415.608c-8.359-54.335-10.449-81.502-31.347-131.657s-45.976-91.951-83.592-129.567c-50.155-54.335-108.669-87.771-179.722-112.849-25.078-8.359-45.976-12.539-71.053-16.718-20.898-4.18-41.796-4.18-62.694-4.18-54.335 0-108.669 12.539-154.645 33.437-41.796 20.898-83.592 45.976-117.029 75.233-37.616 33.437-66.873 71.053-87.771 117.029-16.718 33.437-29.257 62.694-37.616 100.31-4.18 16.718-8.359 37.616-8.359 54.335s0 33.437 0 50.155 4.18 66.873 16.718 100.31c16.718 62.694 50.155 117.029 91.951 163.004 33.437 37.616 71.053 66.873 117.029 87.771 29.257 16.718 62.694 29.257 100.31 37.616 16.718 4.18 37.616 8.359 54.335 8.359s33.437 0 50.155 0c45.976 0 96.131-8.359 137.927-25.078 54.335-20.898 100.31-50.155 142.106-87.771 33.437-33.437 62.694-66.873 83.592-108.669 16.718-33.437 29.257-66.873 37.616-100.31 4.18-20.898 5.224-38.139 5.224-59.037 0-13.061-1.567-39.184-3.135-51.722zM501.029 334.106c58.514 0 108.669 45.976 108.669 108.669 0 58.514-45.976 104.49-108.669 104.49-54.335 0-104.49-41.796-104.49-104.49 0-71.053 50.155-112.849 104.49-108.669zM517.747 780.8v0c16.718-50.155 37.616-96.131 62.694-137.927 4.18-4.18 4.18-4.18 8.359-4.18 50.155 8.359 96.131 25.078 142.106 54.335v0c-62.694 54.335-129.567 83.592-213.159 87.771zM246.073 208.718v0c12.539 20.898 20.898 37.616 29.257 58.514 12.539 29.257 20.898 54.335 25.078 87.771v4.18c-37.616 25.078-79.412 45.976-121.208 58.514-4.18 0-12.539 4.18-16.718 4.18 0.522-83.592 29.257-154.645 83.592-213.159zM158.824 455.314v0c16.718 4.18 33.437 8.359 45.976 16.718 33.437 12.539 62.694 29.257 91.951 50.155 0 0 0 0 0 4.18-4.18 12.539-4.18 25.078-8.359 33.437-8.359 33.437-20.898 62.694-37.616 96.131-4.18 4.18-4.18 8.359-8.359 12.539-50.678-59.037-79.412-129.567-83.592-213.159zM271.151 693.029v0c25.078-16.718 50.155-25.078 71.053-33.437 25.078-8.359 45.976-16.718 71.053-20.898h4.18l4.18 4.18c20.898 37.616 41.796 75.233 54.335 117.029 0 4.18 4.18 12.539 4.18 16.718-37.616 0-71.053-8.359-108.669-20.898-33.437-12.539-71.053-33.437-100.31-62.694zM730.384 183.641v0c-12.539 4.18-20.898 12.539-29.257 16.718-37.616 16.718-75.233 33.437-117.029 37.616-0.522 0-1.567 0-4.18-4.18-25.078-37.616-41.796-75.233-54.335-112.849-4.18-8.359-4.18-16.718-8.359-25.078 84.114 4.18 150.988 33.437 213.159 87.771zM755.461 208.718c50.155 62.694 83.592 133.747 87.771 213.159v0 0c-50.155-12.539-96.131-33.437-137.927-62.694v-4.18c4.18-12.539 4.18-20.898 8.359-33.437 8.359-33.437 16.196-55.902 29.78-85.682 3.657-7.837 7.837-18.808 12.016-27.167zM843.233 455.314c-4.18 79.412-37.616 150.465-87.771 213.159 0 0 0-0.522-1.567-3.657-4.18-8.359-6.792-17.241-10.971-25.6-16.718-37.616-33.437-75.233-41.796-117.029 0-4.18 0-4.18 0-4.18 37.616-25.078 79.412-45.976 121.208-58.514 8.359-1.567 13.061-2.612 20.898-4.18zM480.131 95.869v0c-8.359 25.078-16.718 50.155-25.078 75.233s-20.898 45.976-37.616 66.873c0 0-1.045 2.090-1.567 2.612-4.18-0.522-6.792-1.567-10.971-2.612-45.976-8.359-90.906-26.645-132.702-47.543 0 0-2.090-1.045-5.224-2.612v0c12.539-12.539 29.257-20.898 45.976-33.437 29.257-16.718 58.514-33.437 91.951-41.796 16.718-4.18 37.616-8.359 58.514-12.539 8.359-4.18 12.539-4.18 16.718-4.18z" />
<glyph unicode="&#xe90c;" glyph-name="ia-action" data-tags="ia-action" d="M608.131 124.082c0 54.335 0 108.669 0 163.004-37.616 0-71.053 0-108.669 0 0 108.669 0 217.339 0 326.008 37.616 0 71.053 0 108.669 0 0 54.335 0 104.49 0 158.824 108.669-108.669 213.159-213.159 321.829-321.829-104.49-108.669-213.159-217.339-321.829-326.008zM94.041 287.086c108.669 108.669 213.159 213.159 321.829 321.829 0-108.669 0-213.159 0-321.829-108.669 0-217.339 0-321.829 0z" />
<glyph unicode="&#xe90d;" glyph-name="ia-block" data-tags="ia-block" d="M94.041 809.535c280.033-117.029 555.886-117.029 835.918 0-238.237-183.902-380.343-426.318-417.959-723.069-41.796 296.751-179.722 539.167-417.959 723.069z" />
<glyph unicode="&#xe90e;" glyph-name="ia-damage" data-tags="ia-damage" d="M100.31 847.673c8.359 8.359 1.567 1.567 9.404 9.404 4.18 4.18 8.359 8.359 16.718 0 62.171-41.273 120.163-83.069 182.335-124.343 4.18-4.18 8.359-4.18 8.359-4.18 124.343 74.71 248.686 78.89 373.029 0 12.539 8.359 29.257 20.898 45.453 29.257 49.633 32.914 99.265 66.351 149.42 99.265 8.359 4.18 12.539 4.18 16.718 0 8.359-8.359 12.539-16.718 20.898-25.078-2.090-4.702-4.18-8.359-4.18-8.359-41.273-62.171-83.069-120.163-120.163-182.335-4.18-8.359-4.18-12.539 0-16.718 70.531-115.984 66.351-236.147 0-356.31-4.18-8.359-4.18-12.539 0-16.718 41.273-57.992 83.069-120.163 124.343-178.155 4.18-4.18 4.18-8.359 0-16.718-20.898-29.257-20.898-29.257-45.453-8.359-57.992 37.094-111.804 74.71-169.796 111.804-4.18 4.18-8.359 4.18-12.539 0-57.992-37.094-124.343-49.633-194.873-49.633-57.992 4.18-111.804 16.718-161.437 49.633-4.18 4.18-8.359 0-12.539 0-62.171-41.273-124.343-83.069-182.335-124.343-8.359-4.18-12.539-4.18-20.898 0-4.18 8.359-12.539 12.539-20.898 20.898 0 4.18 0 4.18 0 8.359 0 0 4.18 0 4.18 4.18 41.273 62.171 83.069 124.343 124.343 186.514 4.18 4.18 0 8.359 0 12.539-66.351 120.163-70.531 236.147 0 356.31 4.18 8.359 4.18 8.359 0 16.718-41.273 62.171-78.89 124.343-120.163 186.514l-4.18 4.18c-8.359 9.927-7.314 13.584-5.747 15.673zM225.698 173.714c4.18 0 4.18 0 0 0 20.898 8.359 37.094 20.898 53.812 32.914 41.273 29.257 83.069 57.992 128.522 83.069 57.992 32.914 115.984 32.914 178.155 4.18 49.633-25.078 95.086-57.992 136.882-87.249 16.718-12.539 32.914-25.078 49.633-32.914 0 4.18 0 4.18 0 8.359-20.898 32.914-41.273 66.351-62.171 95.086-20.898 29.257-37.094 62.171-53.812 90.906-16.718 32.914-25.078 70.531-16.718 107.624 4.18 29.257 20.898 57.992 32.914 83.069 20.898 32.914 45.453 66.351 66.351 99.265 12.539 20.898 25.078 41.273 37.094 62.171-4.18 0-8.359 0-8.359-4.18-45.453-32.914-95.086-62.171-141.061-95.086-29.257-16.718-57.992-32.914-90.906-37.094-45.453-8.359-90.906 0-128.522 25.078-45.453 25.078-87.249 53.812-128.522 83.069-16.718 12.539-32.914 20.898-49.633 32.914 0-4.18 0-8.359 4.18-8.359 32.914-49.633 66.351-103.445 99.265-153.078 8.359-16.718 16.718-32.914 25.078-49.633 12.539-25.078 16.718-53.812 12.539-83.069-4.18-37.094-20.898-66.351-37.094-95.086-25.078-41.273-53.812-83.069-78.89-124.343-12.016-12.539-20.376-25.078-28.735-37.616z" />
<glyph unicode="&#xe90f;" glyph-name="ia-dodge" data-tags="ia-dodge" d="M94.563 480.392c0 8.359 4.18 20.898 4.18 29.257 8.359 54.335 29.257 104.49 54.335 149.943 0 0 0 4.18 4.18 4.18 75.233-71.053 145.763-145.763 220.996-216.816-75.233-75.233-145.763-149.943-220.996-225.176-12.539 25.078-25.078 50.155-33.437 75.233-12.539 33.437-17.763 66.351-26.122 99.788-1.045 2.612-1.567 10.449-2.612 16.718-1.567 24.555-0.522 41.796-0.522 66.873zM290.482 801.698c133.747 83.592 308.767 87.771 441.992 0-71.053-75.233-145.763-145.763-216.816-220.996-78.89 75.233-149.943 145.763-225.176 220.996zM511.478 313.731c71.053-75.233 145.763-145.763 216.816-220.996-96.131-83.592-338.024-83.592-437.812 0 75.233 71.053 146.286 145.763 220.996 220.996zM870.4 225.959c-75.233 71.053-145.763 145.763-225.176 216.816 75.233 75.233 145.763 145.763 220.996 220.996 83.592-124.865 83.592-304.065 4.18-437.812z" />
<glyph unicode="&#xe910;" glyph-name="ia-evade" data-tags="ia-evade" d="M94.563 481.437c4.18 16.718 4.18 33.437 8.359 50.155 45.976 216.816 237.714 346.384 438.335 333.845 66.873-4.18 129.567-25.078 187.559-58.514l4.18-4.18c-4.18-4.18-4.18-4.18-4.18-8.359-33.437-33.437-66.873-66.873-96.131-100.31-4.18-4.18-8.359-8.359-12.539-4.18-96.131 41.796-187.559 25.078-271.151-37.616-71.053-54.335-129.567-170.841-83.592-292.049 8.359-16.718 4.18-29.257-8.359-41.796-29.257-29.257-58.514-62.694-91.951-91.951-4.18 4.18-4.18 8.359-8.359 12.539-29.257 54.335-54.335 108.669-58.514 170.841 0 4.18 0 4.18 0 8.359-3.657 17.241-3.657 42.318-3.657 63.216zM290.482 97.437c37.616 37.616 71.053 71.053 108.669 108.669 4.18 4.18 8.359 0 12.539 0 66.873-25.078 129.567-29.257 195.918-4.18 133.747 50.155 200.098 187.559 154.645 321.306-4.18 12.539-12.539 25.078-8.359 33.437s16.718 16.718 25.078 25.078c29.257 29.257 58.514 58.514 87.771 87.771 37.616-62.694 62.694-133.747 62.694-204.278 4.18-108.669-29.257-208.457-100.31-292.049-163.004-180.245-400.718-171.886-538.645-75.755z" />
<glyph unicode="&#xe911;" glyph-name="ia-surge" data-tags="ia-surge" d="M98.22 275.592c4.18 4.18 4.18 4.18 8.359 8.359 91.429 120.686 182.857 241.371 274.286 362.057 0 4.18 4.18 4.18 4.18 8.359 83.069-70.531 166.139-141.584 253.91-207.935 83.069 70.531 170.318 141.584 253.91 207.935 12.539-12.539 25.078-20.898 37.616-33.437-95.608-124.865-195.396-249.731-291.004-378.253-83.069 70.531-166.139 141.584-253.91 207.935-83.069-70.531-166.139-141.584-253.91-207.935-8.359 8.359-20.898 16.718-29.257 25.078-4.18 0-4.18 4.18-8.359 4.18 4.18-0.522 4.18 3.657 4.18 3.657z" />
<glyph unicode="&#xe912;" glyph-name="swa-accuracy" data-tags="swa-accuracy" d="M796.212 337.241c4.18 25.078 8.359 45.976 8.359 66.873 0 33.437-8.359 62.694-16.718 91.951s-20.898 54.335-41.796 79.412c-20.898 25.078-41.796 45.976-66.873 62.694-25.078 20.898-54.335 33.437-83.592 41.796l45.976 117.029h-259.135l45.976-117.029c-29.257-8.359-58.514-20.898-83.592-37.616s-50.155-41.796-66.873-62.694c-16.718-20.898-29.257-50.155-41.796-79.412s-16.718-58.514-16.718-91.951c0-20.898 4.18-41.796 8.359-66.873l-133.747-25.078 137.927-217.339 75.233 100.31c25.078-29.257 58.514-45.976 91.951-62.694 37.616-12.539 75.233-20.898 112.849-20.898 41.796 0 79.412 8.359 112.849 20.898 33.437 16.718 62.694 37.616 91.951 62.694l71.053-100.31 142.106 217.339-133.747 20.898zM591.412 379.037l79.412-117.029c-20.898-20.898-41.796-37.616-71.053-50.155-25.078-12.539-54.335-20.898-87.771-20.898s-62.694 8.359-87.771 20.898c-29.257 12.539-50.155 29.257-71.053 50.155l83.592 117.029-133.747-25.078c-4.18 16.718-4.18 33.437-4.18 54.335 0 25.078 4.18 50.155 12.539 71.053 8.359 25.078 20.898 45.976 33.437 62.694s29.257 33.437 50.155 45.976c16.718 12.539 37.616 25.078 62.694 29.257l54.335-133.747 54.335 133.747c20.898-8.359 41.796-16.718 62.694-29.257s37.616-29.257 50.155-45.976c12.539-16.718 25.078-37.616 33.437-58.514 8.359-25.078 12.539-45.976 12.539-71.053 0-12.539-4.18-20.898-4.18-29.257s-4.18-16.718-4.18-25.078l-125.388 20.898z" />
<glyph unicode="&#xe913;" glyph-name="swa-brace" data-tags="swa-brace" d="M766.955 454.269c-16.718 20.898-20.898 50.155-8.359 79.412 8.359 33.437 29.257 71.053 58.514 112.849s66.873 91.951 112.849 150.465c-58.514-41.796-108.669-79.412-150.465-108.669-45.976-29.257-83.592-45.976-117.029-54.335s-62.694-4.18-83.592 16.718-41.796 50.155-54.335 100.31c0-25.078-4.18-45.976-8.359-62.694s-8.359-33.437-12.539-41.796c-20.898 12.539-41.796 16.718-62.694 25.078s-45.976 8.359-71.053 8.359c-37.616 0-71.053-8.359-108.669-20.898s-62.694-33.437-87.771-58.514c-25.078-25.078-45.976-54.335-58.514-87.771-16.718-33.437-20.898-71.053-20.898-108.669s8.359-75.233 20.898-108.669c16.718-33.437 33.437-62.694 58.514-87.771s54.335-45.976 87.771-58.514c33.437-12.539 71.053-20.898 108.669-20.898 29.257 0 58.514 4.18 83.592 12.539s50.155 20.898 75.233 37.616c12.539-20.898 20.898-45.976 29.257-79.412 4.18 50.155 12.539 83.592 29.257 104.49 12.539 20.898 33.437 33.437 54.335 33.437s45.976-4.18 75.233-16.718c29.257-12.539 54.335-29.257 87.771-45.976-12.539 20.898-20.898 41.796-33.437 58.514s-16.718 37.616-25.078 50.155c-8.359 12.539-8.359 29.257-8.359 41.796s4.18 25.078 12.539 33.437c8.359 8.359 25.078 16.718 41.796 25.078 20.898 4.18 45.976 8.359 79.412 12.539-54.335 20.898-87.771 37.616-104.49 58.514zM524.539 207.673c-4.18-4.18-8.359-4.18-12.539-8.359v0c-20.898-16.718-41.796-25.078-66.873-33.437s-50.155-12.539-75.233-12.539h-4.18v497.371h4.18c33.437 0 66.873-8.359 96.131-20.898s58.514-29.257 79.412-54.335c20.898-20.898 41.796-50.155 54.335-79.412s20.898-62.694 20.898-96.131c0-37.616-8.359-75.233-20.898-104.49-16.718-33.437-37.616-58.514-62.694-83.592-8.359 4.18-12.539 0-12.539-4.18z" />
<glyph unicode="&#xe914;" glyph-name="swa-concentrate" data-tags="swa-concentrate" d="M512 34.22c57.992 0 111.804 12.539 161.437 32.914 49.633 20.898 95.086 49.633 132.18 86.727s66.351 82.547 90.906 132.18c20.898 49.633 32.914 103.445 32.914 161.437s-12.539 111.804-32.914 161.437c-20.898 49.633-53.812 95.086-90.906 132.18s-82.547 66.351-132.18 86.727-103.445 32.914-161.437 32.914-111.804-12.539-161.437-32.914c-49.633-20.898-95.086-49.633-132.18-86.727s-66.351-82.547-90.906-132.18c-20.898-49.633-32.914-103.445-32.914-161.437s12.539-111.804 32.914-161.437c20.898-49.633 49.633-95.086 90.906-132.18 37.094-37.094 82.547-66.351 132.18-86.727s103.445-32.914 161.437-32.914zM805.616 249.469c-32.914-45.453-74.71-86.727-124.343-115.984-49.633-28.735-107.624-41.273-169.796-41.273-16.718 0-37.094 0-53.812 4.18s-32.914 4.18-49.633 12.539c25.078 28.735 45.453 53.812 62.171 74.71s32.914 32.914 45.453 41.273c12.539 8.359 20.898 16.718 28.735 16.718 8.359 4.18 12.539 4.18 16.718 4.18s4.18 0 8.359 0c12.539-4.18 20.898-16.718 28.735-28.735 8.359-12.539 16.718-25.078 20.898-37.094 4.18-12.539 8.359-25.078 12.539-32.914l4.18-12.539v4.18c0 8.359 0 16.718 0 28.735 0 12.539 0 25.078 4.18 37.094 4.18 12.539 4.18 25.078 8.359 32.914 4.18 8.359 8.359 16.718 16.718 20.898 12.539 4.18 28.735 8.359 45.453 8.359 12.539 0 25.078 0 41.273-4.18 16.718-4.702 33.437-8.882 53.812-13.061zM383.478 116.767c-32.914 12.539-66.351 28.735-90.906 53.812-28.735 20.898-53.812 49.633-70.531 78.367-20.898 28.735-37.094 62.171-45.453 95.086s-16.718 70.531-16.718 107.624c0 37.094 4.18 74.71 16.718 111.804 12.539 32.914 28.735 66.351 49.633 99.265l37.094-25.078c8.359-4.18 16.718-12.539 25.078-16.718s16.718-12.539 25.078-16.718c8.359-4.18 20.898-12.539 28.735-16.718 8.359-8.359 20.898-12.539 28.735-16.718 12.539-8.359 25.078-16.718 32.914-25.078 12.539-8.359 25.078-16.718 32.914-25.078-16.718 0-37.094 4.18-57.992 12.539-20.898 4.18-37.094 12.539-53.812 16.718s-28.735 12.539-41.273 16.718l-16.718 4.18c12.539-8.359 28.735-16.718 45.453-28.735 20.898-12.539 37.094-25.078 53.812-41.273 16.718-16.718 32.914-28.735 41.273-41.273 12.539-12.539 16.718-25.078 12.539-37.094-4.18-12.539-8.359-25.078-20.898-32.914-12.539-8.359-20.898-16.718-28.735-25.078-12.539-8.359-20.898-12.539-32.914-16.718-12.539-4.18-16.718-4.18-25.078-4.18v0h16.718c0 0 12.539-4.18 37.094-8.359 25.078-4.18 37.094-8.359 41.273-12.539s12.539-12.539 28.735-25.078c4.18-8.359 0-28.735-8.359-57.992-2.612-35.527-19.331-77.322-44.408-122.776zM259.657 696.163c12.539 12.539 25.078 25.078 41.273 37.094 16.718 12.539 28.735 20.898 45.453 28.735 25.078-32.914 49.633-66.351 74.71-99.265s45.453-62.171 66.351-82.547c20.898-28.735 41.273-57.992 62.171-82.547v0c4.18 4.18 8.359 12.539 12.539 16.718s4.18 8.359 4.18 8.359c8.359-12.539 16.718-20.898 25.078-28.735 8.359-8.359 16.718-16.718 25.078-20.898 25.078-12.539 45.453-16.718 66.351-20.898 0-8.359-4.18-16.718-4.18-25.078s0-16.718 0-25.078c0-8.359 4.18-20.898 8.359-32.914 4.18-12.539 12.539-32.914 28.735-53.812h-5.224c-28.735 0-53.812-4.18-70.531-12.539-4.18-4.18-12.539-4.18-16.718-8.359s-8.359-8.359-12.539-16.718c-4.18 0-4.18 4.18-8.359 4.18s-4.18 4.18-8.359 4.18c-8.359 8.359-20.898 12.539-37.094 12.539-16.718 0-37.094-8.359-53.812-20.898 0 12.539 0 20.898-4.18 25.078s-4.18 12.539-8.359 12.539c-8.359 12.539-16.718 25.078-37.094 37.094 12.539 16.718 20.898 28.735 20.898 45.453 4.18 16.718 4.18 37.094-8.359 57.992 8.359 0 12.539 0 16.718 4.18 4.18 0 12.539 4.18 16.718 4.18v0c4.18 0 8.359-4.18 12.539-4.18s8.359-4.18 12.539-4.18c4.18-4.18 8.359-4.18 12.539-8.359s8.359-4.18 12.539-8.359c4.18-4.18 8.359-4.18 16.718-8.359-4.18 8.359-8.359 12.539-12.539 20.898l-16.718 20.898c-16.718 16.718-25.078 28.735-28.735 28.735-41.273 32.914-82.547 70.531-124.343 99.265-37.616 29.78-83.069 62.694-124.343 95.608zM512 803.788c49.633 0 95.086-8.359 136.359-28.735 41.273-16.718 82.547-45.453 111.804-78.367 32.914-32.914 57.992-70.531 78.367-115.984 20.898-41.273 28.735-90.906 28.735-136.359 0-28.735-4.18-57.992-12.539-86.727-8.359-25.078-16.718-53.812-28.735-78.367-25.078 16.718-41.273 32.914-53.812 49.633s-20.898 28.735-28.735 41.273c-8.359 12.539-12.539 25.078-12.539 37.094-4.18 20.898 0 37.094 4.18 53.812s12.539 28.735 25.078 41.273c8.359 12.539 16.718 20.898 25.078 28.735l12.539 12.539h-4.18l-20.898-8.359c-20.898-8.359-37.094-12.539-53.812-20.898-16.718-4.18-28.735-8.359-41.273-8.359-16.718 0-28.735 4.18-45.453 12.539-8.359 4.18-16.718 16.718-25.078 28.735-8.359 12.539-16.718 28.735-25.078 45.453s-12.539 32.914-20.898 53.812c-4.18 16.718-8.359 32.914-12.539 49.633s-8.359 28.735-8.359 37.094c0 8.359-4.18 16.718-4.18 16.718l-4.18-4.18v-16.718c0-8.359 0-20.898 0-37.094 0-16.718-4.18-32.914-4.18-49.633s-4.18-37.094-8.359-53.812l-8.359 8.359c-8.359 16.718-16.718 28.735-25.078 41.273s-16.718 25.078-25.078 37.094c-8.359 12.539-16.718 25.078-25.078 37.094-8.359 12.539-16.718 25.078-25.078 37.094l-20.898 28.735c16.718 4.18 32.914 12.539 49.633 12.539 35.527 13.061 51.722 13.061 72.62 13.061z" />
<glyph unicode="&#xe915;" glyph-name="swa-contain" data-tags="swa-contain" d="M232.49 525.845l-8.359-37.616-4.18-45.976 4.18-45.976 12.539-41.796 16.718-37.616 20.898-37.616 33.437-37.616 41.796-33.437 41.796-25.078 41.796-16.718 37.616-8.359 16.718-125.91 50.155 121.731 45.976 8.359 41.796 16.718 37.616 16.718 29.257 20.898 25.078 25.078 63.216-25.078-33.437 59.037 16.718 29.257 16.718 33.437 8.359 25.078 4.18 25.078 4.18 16.718 96.653 20.898-92.473 33.437-4.18 33.437-12.539 45.976-25.078 54.857-33.437 41.796-37.616 33.437-37.616 25.078-50.155 20.898-41.796 8.359-25.078 4.18h-20.898l-71.576 138.449 12.539-146.808-50.155-16.718-41.796-20.898-41.796-33.437-33.437-37.616-20.898-33.437-12.539-20.898-125.91 25.078 105.012-55.38zM425.796 676.833l25.078 8.359 4.18-50.155-25.078-12.539-54.857 29.257 16.718 12.539 33.959 12.539zM324.963 601.078l29.257 29.257 25.078-63.216-25.078-33.437-63.216 12.539 12.539 25.078 21.42 29.78zM270.629 470.988l4.18 29.257 59.037-33.437v-33.437l-59.037-29.257-4.18 29.257v37.616zM707.396 365.976l4.18 33.437 41.796 8.359-4.18-29.257-25.078-58.514-16.718 29.257v16.718zM598.204 256.784l25.078 8.359 16.718 12.539 37.616-16.718-25.078-20.898-29.257-20.898-58.514-16.718 12.539 41.796 20.898 12.539zM740.833 445.91l-121.731-29.257 59.037-105.012-121.731 63.216-45.976-146.808-12.539 109.192-67.396-63.216 16.718-8.359 12.539-4.18 4.18-54.857-29.257 8.359-29.257 12.539-29.257 16.718-20.898 16.718 352.653 327.576 16.718-25.078 12.539-20.898 8.359-29.257 4.18-29.257-33.437 12.539-4.18 20.898-8.359 20.898-50.155-59.037 87.249-33.437zM345.861 357.616l37.616 37.616-33.437 12.539 75.755 50.155-84.114 41.796 105.012 4.18-41.796 88.294 84.114-41.796-4.18 113.371 59.037-105.012 71.576 59.037-4.18 4.18-16.718 8.359-29.257 8.359-20.898 4.18-20.898 41.796 41.796-4.18 37.616-12.539 29.257-12.539 25.078-16.718 20.898-20.898-356.833-331.755-16.718 20.898-16.718 29.257-8.359 20.898-4.18 20.898 67.396-12.539 3.135-7.837z" />
<glyph unicode="&#xe916;" glyph-name="swa-crit" data-tags="swa-crit" d="M520.359 758.335l74.71-157.257 128.522 86.727-57.992-128.522 136.359-20.898-86.727-45.453 66.351-45.453c0 8.359 4.18 16.718 4.18 25.078 4.18 8.359 4.18 16.718 4.18 25.078l86.727 49.633-99.265 37.094c-8.359 20.898-16.718 41.273-28.735 57.992l37.094 120.163-120.163-53.812c-8.359 4.18-20.898 8.359-32.914 12.539-12.539 0-25.078 4.18-37.094 4.18l-107.624 140.539-16.718-161.437c-4.18 0-8.359-4.18-16.718-8.359s-12.539-8.359-16.718-12.539l74.71-53.812 7.837 128.522zM479.086 158.563l-28.735 136.359-74.71-53.812 37.094 90.906-115.984-8.359 86.727 62.171-120.163 41.273 66.351 12.539-53.812 37.094c0-4.18 0-8.359 0-8.359v-4.18l-107.624-37.094 103.445-28.735c4.18-4.18 4.18-12.539 4.18-16.718s4.18-12.539 4.18-16.718l-132.18-111.804 169.796 41.273c4.18-8.359 8.359-12.539 12.539-16.718s8.359-8.359 12.539-12.539l-25.078-103.445 90.906 57.992 28.735-8.359 28.735-182.335 74.71 182.335c12.539 4.18 25.078 8.359 37.094 12.539 12.539 4.18 20.898 8.359 32.914 16.718l32.914-8.359-107.624 74.71-56.947-148.376zM114.939 729.6l397.061-301.976 397.061-194.351-347.429 273.241-446.694 223.086z" />
<glyph unicode="&#xe917;" glyph-name="swa-evade" data-tags="swa-evade" d="M564.767 456.359l130.090-54.857c-8.359-20.898-16.718-41.796-25.078-63.216-8.359-20.898-20.898-41.796-33.437-63.216-12.539-20.898-25.078-37.616-37.616-50.155s-25.078-20.898-37.616-20.898c-8.359 0-20.898 4.18-29.257 12.539s-16.718 16.718-25.078 25.078c-12.539 16.718-25.078 29.257-37.616 41.796s-25.078 20.898-37.616 25.078c-12.539 4.18-25.078 8.359-33.437 12.539-12.539 4.18-20.898 4.18-29.257 4.18-33.437 0-67.396-8.359-96.653-20.898s-59.037-33.437-84.114-50.155c-25.078-20.898-45.976-37.616-63.216-54.857-16.718-16.718-25.078-29.257-29.257-33.437l67.396-54.857c8.359 8.359 20.898 20.898 33.437 37.616s33.437 29.257 50.155 41.796c20.898 12.539 37.616 25.078 59.037 37.616 20.898 8.359 41.796 16.718 59.037 12.539 16.718 0 29.257-4.18 37.616-12.539 12.539-8.359 20.898-16.718 33.437-33.437s25.078-33.437 37.616-41.796c12.539-8.359 25.078-16.718 37.616-25.078 12.539-4.18 25.078-8.359 33.437-8.359 12.539 0 20.898 0 29.257 0 16.718 4.18 29.257 8.359 37.616 12.539 20.898 8.359 41.796 25.078 59.037 45.976s33.437 41.796 45.976 67.396 25.078 45.976 33.437 67.396c8.359 20.898 16.718 37.616 20.898 50.155l130.090-54.857 12.539 235.102 16.718 239.282-197.486-176.588-167.706-149.42z" />
<glyph unicode="&#xe918;" glyph-name="swa-hit" data-tags="swa-hit" d="M718.89 226.482c-12.539 28.735-20.898 57.992-20.898 78.89s12.539 41.273 37.094 53.812c20.898 12.539 62.171 20.898 120.163 25.078-53.812 16.718-90.906 37.094-111.804 62.171-16.718 25.078-20.898 57.992-12.539 95.086s28.735 82.547 66.351 132.18c37.094 49.633 82.547 107.624 132.18 173.976-66.351-49.633-124.343-90.906-173.976-124.343-53.812-32.914-99.265-53.812-136.359-62.171-41.273-8.359-74.71-4.18-99.265 16.718-28.735 20.898-49.633 57.992-62.171 115.984-4.18-53.812-12.539-99.265-25.078-124.343s-28.735-41.273-49.633-45.453c-20.898-4.18-45.453 0-74.71 12.539-28.735 12.539-62.171 28.735-95.086 49.633 20.898-32.914 37.094-66.351 49.633-95.086s16.718-53.812 12.539-74.71-20.898-41.273-45.453-53.812c-25.078-16.718-66.351-25.078-120.163-28.735 53.812-16.718 90.906-28.735 111.804-49.633 20.898-16.718 32.914-41.273 25.078-70.531-8.359-28.735-20.898-62.171-49.633-103.445-25.078-37.094-62.171-86.727-103.445-144.718 57.992 41.273 107.624 74.71 148.898 99.265 41.273 25.078 82.547 32.914 111.804 37.094 28.735 4.18 57.992-8.359 78.89-32.914 20.898-25.078 41.273-62.171 53.812-120.163 4.18 53.812 16.718 95.086 32.914 120.163 16.718 25.078 37.094 37.094 62.171 41.273s49.633 0 82.547-16.718c32.914-12.539 66.351-32.914 99.265-53.812-19.853 37.094-36.571 66.351-44.931 86.727z" />
<glyph unicode="&#xe919;" glyph-name="swa-navigate" data-tags="swa-navigate" d="M348.996 832.522c-50.155-20.898-96.131-50.155-133.747-87.771s-66.873-83.592-87.771-133.747-33.437-104.49-33.437-163.004 12.539-112.849 33.437-163.004c20.898-50.155 50.155-96.131 87.771-133.747s83.592-66.873 133.747-87.771 104.49-33.437 163.004-33.437 112.849 12.539 163.004 33.437c50.155 20.898 96.131 50.155 133.747 87.771s66.873 83.592 87.771 133.747 33.437 104.49 33.437 163.004-12.539 112.849-33.437 163.004-50.155 96.131-87.771 133.747c-37.616 37.616-83.592 66.873-133.747 87.771s-104.49 33.437-163.004 33.437-112.849-12.539-163.004-33.437zM181.812 590.106c20.898 41.796 45.976 83.592 75.233 112.849s71.053 58.514 112.849 75.233c41.796 20.898 91.951 29.257 137.927 29.257s96.131-8.359 142.106-29.257 83.592-45.976 112.849-75.233 58.514-71.053 75.233-112.849c20.898-41.796 29.257-91.951 29.257-142.106 0-8.359 0-20.898 0-29.257s0-16.718-4.18-29.257c-12.539-4.18-29.257-8.359-54.335-12.539s-45.976-8.359-75.233-12.539c-25.078-4.18-54.335-4.18-79.412-8.359-25.078 0-45.976 0-66.873 8.359s-29.257 16.718-33.437 29.257c-4.18 12.539 0 33.437 12.539 58.514l91.951-20.898-121.208 217.339-250.776-108.669 91.951-29.257c-29.257-45.976-45.976-91.951-41.796-142.106 0-20.898 4.18-41.796 12.539-66.873s20.898-45.976 37.616-71.053 41.796-45.976 71.053-71.053 66.873-45.976 117.029-66.873c-12.539-4.18-25.078-4.18-33.437-4.18-12.539 0-25.078 0-37.616 0-50.155 0-96.131 8.359-137.927 29.257s-83.592 45.976-112.849 75.233c-33.437 33.437-58.514 71.053-75.233 112.849-20.898 41.796-29.257 91.951-29.257 142.106s12.539 96.131 33.437 142.106z" />
<glyph unicode="&#xe91a;" glyph-name="swa-redirect" data-tags="swa-redirect" d="M364.147 675.265l-50.678-84.637-29.78-46.498-25.078-42.318-46.498-75.755 426.318-88.816-274.286 338.024zM891.82 185.731c25.078 38.139 38.139 84.637 38.139 131.135s-8.359 97.176-29.78 147.853c-20.898 50.678-50.678 97.176-92.996 147.853-42.318 46.498-88.816 88.816-147.853 126.433-63.216 42.318-126.433 67.396-194.351 84.637s-126.433 20.898-185.992 16.718c46.498 0 92.996-8.359 143.673-25.078s97.176-38.139 143.673-71.576c50.678-33.959 97.176-71.576 131.135-113.894 38.139-42.318 63.216-84.637 84.637-131.135 16.718-46.498 29.78-88.816 29.78-131.135s-12.539-84.637-33.959-118.073c-20.898-33.959-54.857-63.216-92.996-80.457s-84.637-29.78-131.135-29.78c-50.678 0-101.355 4.18-152.033 20.898-54.857 16.718-105.535 42.318-156.212 71.576-29.78 20.898-59.037 42.318-84.637 63.216-25.078 20.898-46.498 46.498-67.396 71.576 25.078-38.139 54.857-71.576 88.816-109.714 33.959-33.959 71.576-67.396 118.073-97.176 59.037-38.139 118.073-63.216 177.11-80.457s118.073-25.078 172.931-25.078c54.857 0 105.535 12.539 147.853 33.959 34.482 25.6 68.441 55.38 93.518 97.698z" />
<glyph unicode="&#xe91b;" glyph-name="swa-repair" data-tags="swa-repair" d="M512 30.041c58.514 0 112.849 12.539 163.004 33.437s96.131 50.155 133.747 87.771c37.616 37.616 66.873 83.592 87.771 133.747s33.437 104.49 33.437 163.004-12.539 112.849-33.437 163.004c-20.898 50.155-50.155 96.131-87.771 133.747s-83.592 66.873-133.747 87.771-104.49 33.437-163.004 33.437-112.849-12.539-163.004-33.437c-50.155-20.898-96.131-50.155-133.747-87.771s-66.873-83.592-87.771-133.747-33.437-104.49-33.437-163.004 12.539-112.849 33.437-163.004 50.155-96.131 87.771-133.747c37.616-37.616 83.592-66.873 133.747-87.771s104.49-33.437 163.004-33.437zM420.049 101.094v0 0 0zM152.555 448c0 54.335 12.539 108.669 33.437 154.645s54.335 87.771 96.131 121.208h4.18c37.616-4.18 71.053-12.539 104.49-29.257s58.514-37.616 83.592-66.873 41.796-62.694 54.335-96.131 12.539-71.053 12.539-108.669c-4.18-33.437-12.539-66.873-25.078-96.131s-33.437-54.335-54.335-79.412c-20.898-20.898-50.155-41.796-79.412-54.335s-62.694-20.898-96.131-25.078c-41.796 33.437-71.053 75.233-96.131 121.208-25.078 50.155-37.616 104.49-37.616 158.824zM512 807.445c50.155 0 96.131-8.359 142.106-29.257s83.592-45.976 112.849-75.233c33.437-33.437 58.514-71.053 75.233-112.849s29.257-91.951 29.257-142.106-8.359-96.131-29.257-142.106-45.976-83.592-75.233-112.849c-33.437-33.437-71.053-58.514-112.849-75.233-45.976-20.898-91.951-29.257-142.106-29.257h-8.359c4.18 4.18 12.539 8.359 16.718 12.539s12.539 8.359 16.718 12.539l-33.437 41.796c12.539 8.359 25.078 20.898 37.616 33.437s20.898 25.078 33.437 37.616l41.796-29.257c12.539 16.718 20.898 33.437 29.257 50.155s16.718 33.437 20.898 50.155l-45.976 16.718c4.18 16.718 8.359 33.437 12.539 50.155s4.18 33.437 8.359 50.155l54.335-4.18v4.18c0 4.18 0 12.539 0 16.718 0 8.359 0 12.539 0 16.718 0 12.539 0 25.078 0 37.616s-4.18 25.078-4.18 37.616l-54.335-8.359c0 16.718-4.18 33.437-12.539 50.155-4.18 16.718-12.539 33.437-16.718 45.976l45.976 20.898c-8.359 16.718-16.718 33.437-29.257 50.155-8.359 16.718-20.898 29.257-33.437 45.976l-37.616-33.437c-12.539 12.539-20.898 25.078-33.437 37.616s-25.078 20.898-37.616 29.257l29.257 45.976z" />
<glyph unicode="&#xe91c;" glyph-name="swa-scatter" data-tags="swa-scatter" d="M262.269 388.963l-67.396 117.551-100.833-374.073 369.894-100.833-63.216 117.551 50.155 189.127-188.604 50.678zM577.306 338.808l50.155-189.127-67.396-117.551 369.894 100.833-100.833 374.073-67.396-117.551-184.424-50.678zM240.849 590.629h134.269l138.449-138.449 138.449 138.449h134.269l-273.241 273.241-272.196-273.241z" />
<glyph unicode="&#xe91d;" glyph-name="swa-squadron" data-tags="swa-squadron" d="M342.727 565.029l54.335-71.053 45.976 213.159-179.722-121.208 79.412-20.898zM639.478 502.335l66.873 208.98-196.441-104.49 83.592-29.257 45.976-75.233zM643.657 268.278l58.514-66.873 20.898 217.339-167.184-142.106 87.771-8.359zM351.086 832.522c-50.155-20.898-96.131-50.155-133.747-87.771s-66.873-83.592-91.951-133.747c-20.898-50.155-33.437-104.49-33.437-163.004s12.539-112.849 33.437-163.004c20.898-50.155 50.155-96.131 91.951-133.747 37.616-37.616 83.592-66.873 133.747-87.771s104.49-33.437 163.004-33.437 112.849 12.539 163.004 33.437c50.155 20.898 96.131 50.155 133.747 87.771s66.873 83.592 87.771 133.747 33.437 104.49 33.437 163.004-12.539 112.849-33.437 163.004c-20.898 50.155-50.155 96.131-87.771 133.747s-83.592 66.873-133.747 87.771-104.49 33.437-163.004 33.437-112.849-12.539-163.004-33.437zM631.118 163.788c4.18 20.898 12.539 41.796 16.718 58.514l-20.898 25.078h-25.078c-8.359-25.078-20.898-50.155-29.257-75.233-8.359-29.257-16.718-54.335-25.078-83.592h-37.616c-16.718 0-33.437 0-50.155 4.18-16.718 0-33.437 4.18-50.155 12.539 20.898 96.131 45.976 175.543 79.412 250.776 33.437 71.053 66.873 133.747 104.49 183.902l-12.539 20.898-33.437 8.359c-20.898-25.078-37.616-50.155-58.514-83.592-20.898-29.257-37.616-62.694-58.514-100.31s-37.616-75.233-54.335-117.029-33.437-87.771-41.796-133.747c-37.616 20.898-66.873 50.155-96.131 83.592 12.539 58.514 29.257 112.849 50.155 167.184 20.898 50.155 37.616 96.131 62.694 137.927l-16.718 29.257-20.898 4.18c-20.898-33.437-41.796-75.233-62.694-117.029s-41.796-87.771-58.514-137.927c-8.359 20.898-16.718 45.976-20.898 71.053s-8.359 50.155-8.359 75.233c0 50.155 8.359 96.131 29.257 137.927 16.718 41.796 45.976 79.412 75.233 112.849 33.437 33.437 71.053 58.514 112.849 75.233s91.951 29.257 142.106 29.257c50.155 0 96.131-8.359 142.106-29.257 41.796-16.718 83.592-45.976 112.849-75.233s58.514-71.053 75.233-112.849c20.898-41.796 29.257-87.771 29.257-137.927 0-41.796-8.359-79.412-20.898-117.029s-29.257-71.053-54.335-100.31-50.155-54.335-79.412-79.412c-29.257-20.898-66.873-37.616-100.31-50.155-4.18 25.078 0 41.796 4.18 62.694z" />
<glyph unicode="&#xe91e;" glyph-name="swrpg-advantage" data-tags="swrpg-advantage" d="M201.665 396.278l-12.539 4.18c-8.359 4.18-16.718 8.359-25.078 12.539-12.539 8.359-20.898 16.718-32.914 28.735-12.539 12.539-25.078 28.735-37.094 49.633v-37.616c4.18-20.898 8.359-41.273 20.898-57.992 8.359-16.718 20.898-32.914 32.914-45.453 12.539-12.539 25.078-25.078 37.094-32.914 12.539-8.359 25.078-16.718 37.094-20.898 16.718-8.359 25.078-12.539 28.735-12.539l12.539-4.18 8.359-4.18v-8.359l-8.359-8.359-20.898-8.359c-8.359 0-16.718 0-25.078 0s-20.898 0-28.735 4.18c4.18-4.18 8.359-8.359 20.898-20.898 12.539-8.359 20.898-16.718 32.914-25.078 8.359-8.359 20.898-16.718 41.273-28.735 12.539-8.359 32.914-16.718 49.633-25.078s37.094-16.718 57.992-20.898c16.718-4.18 32.914-8.359 53.812-12.539s32.914-4.18 41.273-4.18c12.539 0 16.718 0 20.898 4.18v0h4.18c0-4.18 8.359-4.18 20.898-4.18 8.359 0 25.078 0 41.273 4.18 20.898 4.18 41.273 8.359 53.812 12.539 20.898 4.18 41.273 12.539 57.992 20.898 20.898 8.359 37.094 16.718 49.633 25.078 20.898 12.539 32.914 20.898 41.273 28.735 12.539 8.359 20.898 16.718 32.914 25.078 12.539 12.539 20.898 16.718 20.898 20.898-12.539-4.18-20.898-4.18-28.735-4.18s-16.718 0-25.078 0l-20.898 8.359-8.359 8.359 4.18 8.359 8.359 4.18 12.539 4.18c4.18 0 12.539 4.18 28.735 12.539 12.539 8.359 25.078 12.539 37.094 20.898 12.539 8.359 28.735 20.898 37.094 32.914 12.539 12.539 25.078 28.735 32.914 45.453 8.359 16.718 16.718 37.094 20.898 62.171v37.616c-12.539-20.898-25.078-32.914-37.094-49.633-12.539-12.539-20.898-20.898-32.914-28.735-8.359-4.18-16.718-8.359-25.078-12.539l-12.539-4.18-12.539 4.18v12.539c4.18 12.539 12.539 20.898 12.539 25.078l8.359 12.539c0 0 4.18 4.18 8.359 12.539 16.718 20.898 25.078 45.453 25.078 74.71 4.18 28.735 0 57.992-8.359 86.727-8.359 20.898-16.718 37.094-28.735 53.812-12.539 12.539-25.078 28.735-45.453 41.273-16.718 12.539-37.094 20.898-53.812 28.735-16.718 8.359-37.094 16.718-57.992 20.898h-4.18c20.898-12.539 37.094-25.078 49.633-41.273 12.539-16.718 20.898-28.735 20.898-45.453 4.18-16.718 4.18-28.735 4.18-45.453-4.18-16.718-8.359-32.914-12.539-41.273-12.539-32.914-32.914-62.171-66.351-95.086 20.898-37.094 32.914-70.531 37.094-99.265 4.18-32.914 0-62.171-8.359-86.727-8.359-25.078-20.898-49.633-37.094-70.531s-37.094-41.273-53.812-53.812c-16.718-16.718-32.914-28.735-49.633-37.094s-28.735-16.718-32.914-16.718h-8.359c-4.18 0-16.718 8.359-32.914 16.718-16.718 8.359-32.914 20.898-49.633 37.094-16.718 12.539-32.914 32.914-53.812 53.812-16.718 20.898-28.735 45.453-37.094 70.531s-12.539 53.812-8.359 86.727c4.18 28.735 16.718 66.351 37.094 103.445-28.735 32.914-53.812 62.171-66.351 95.086-4.18 12.539-8.359 25.078-12.539 41.273-4.18 16.718 0 28.735 4.18 45.453 4.18 12.539 12.539 28.735 20.898 45.453 12.539 16.718 25.078 28.735 49.633 41.273h-8.359c-16.718-8.359-37.094-12.539-57.992-20.898-16.718-8.359-32.914-16.718-53.812-28.735-16.718-12.539-32.914-25.078-45.453-41.273-12.539-16.718-20.898-32.914-28.735-53.812-8.359-28.735-12.539-57.992-8.359-86.727s12.539-53.812 25.078-74.71c0 0 4.18-4.18 8.359-12.539l8.359-12.539c4.18-4.18 8.359-12.539 16.718-25.078v-12.539l-12.539-12.539zM474.906 561.894c8.359-4.18 20.898-4.18 32.914-4.18 12.539 0 25.078 0 32.914 4.18 8.359 4.18 20.898 12.539 25.078 16.718 8.359 8.359 12.539 16.718 16.718 25.078s8.359 20.898 8.359 32.914-4.18 20.898-8.359 32.914c-4.18 8.359-8.359 16.718-16.718 25.078s-16.718 12.539-25.078 16.718c-12.539 4.18-20.898 4.18-32.914 4.18-12.539 0-20.898 0-32.914-4.18-8.359-4.18-20.898-12.539-25.078-16.718-8.359-8.359-12.539-16.718-16.718-25.078s-8.359-20.898-8.359-32.914 4.18-20.898 8.359-32.914c4.18-8.359 8.359-20.898 16.718-25.078s16.718-12.539 25.078-16.718z" />
<glyph unicode="&#xe91f;" glyph-name="swrpg-despair" data-tags="swrpg-despair" d="M815.543 699.82c-33.437 50.155-74.71 91.429-129.045 120.686-50.155 29.257-112.327 45.976-170.318 45.976s-116.506-16.718-170.318-45.976c-53.812-29.257-95.608-70.531-129.045-120.686-37.616 12.539-74.71 25.078-112.327 41.796 33.437-25.078 66.351-50.155 91.429-74.71-25.078-50.155-37.616-103.967-37.616-157.78 0-95.608 29.257-178.678 95.608-245.551 62.171-70.531 141.584-108.147 237.192-112.327 8.359-37.616 16.718-78.89 20.898-120.686 4.18 37.616 12.539 78.89 20.898 120.686 91.429 8.359 170.318 45.976 237.192 112.327 62.171 70.531 95.608 149.943 95.608 245.551 0 57.992-12.539 108.147-37.616 157.78 29.257 25.078 57.992 50.155 91.429 74.71-33.437-17.241-70.531-29.78-103.967-41.796zM653.584 778.71c45.976-25.078 83.069-57.992 112.327-99.788-20.898-8.359-33.437-8.359-45.976-12.539-66.351-12.539-137.404-20.898-212.114-20.898s-145.763 8.359-212.114 25.078c-16.718 4.18-33.437 8.359-45.976 12.539 29.257 41.796 66.351 74.71 112.327 99.788s91.429 37.616 145.763 37.616 103.967-12.539 145.763-41.796zM216.816 632.947l33.437-33.437c50.155-50.155 87.249-108.147 124.865-166.139s62.171-124.865 87.249-191.216c0-8.359 4.18-16.718 8.359-29.257s8.359-16.718 8.359-20.898c-83.069 4.18-149.943 41.796-203.755 99.788s-83.069 129.045-83.069 212.114c-0.522 45.976 7.837 87.771 24.555 129.045zM545.437 212.898c4.18 12.539 4.18 25.078 8.359 29.257 25.078 70.531 53.812 133.224 87.249 191.216 37.616 57.992 78.89 112.327 124.865 166.139 8.359 8.359 16.718 16.718 33.437 33.437 16.718-41.796 25.078-83.069 25.078-129.045 0-83.069-29.257-154.122-83.069-212.114s-124.865-91.429-203.755-99.788c-0.522 0 3.657 8.359 7.837 20.898z" />
<glyph unicode="&#xe920;" glyph-name="swrpg-failure" data-tags="swrpg-failure" d="M512 717.584c-75.233 0-146.286 8.359-217.339 25.078-66.873 16.718-133.747 37.616-200.62 66.873 58.514-41.796 108.669-87.771 158.824-142.106 45.976-50.155 87.771-108.669 125.388-171.363 33.437-62.694 62.694-125.388 87.771-196.441 25.078-66.873 37.616-142.106 45.976-213.159 8.359 71.053 20.898 142.106 45.976 213.159 20.898 71.053 54.335 137.927 87.771 196.441 37.616 62.694 79.412 117.029 125.388 171.363 50.155 54.335 100.31 100.31 158.824 142.106-62.694-29.257-129.567-50.155-200.62-66.873-71.053-12.539-142.106-20.898-217.339-25.078z" />
<glyph unicode="&#xe921;" glyph-name="swrpg-force" data-tags="swrpg-force" d="M892.865 286.563c20.898 49.633 32.914 103.445 32.914 161.437s-12.539 111.804-32.914 161.437c-20.898 49.633-49.633 95.086-86.727 132.18s-82.547 66.351-132.18 90.906c-49.633 20.898-103.445 32.914-161.437 32.914s-111.804-12.539-161.437-32.914c-49.633-20.898-95.086-53.812-132.18-90.906s-66.351-82.547-86.727-132.18-32.914-103.445-32.914-161.437c0-53.812 12.539-107.624 32.914-161.437 20.898-49.633 49.633-95.086 86.727-132.18s82.547-66.351 132.18-90.906c49.633-20.898 103.445-32.914 161.437-32.914s111.804 12.539 161.437 32.914c49.633 20.898 95.086 53.812 132.18 90.906s65.829 82.547 86.727 132.18z" />
<glyph unicode="&#xe922;" glyph-name="swrpg-force-outline" data-tags="swrpg-force-outline" d="M896.522 284.996c20.898 54.335 33.437 108.669 33.437 163.004s-12.539 108.669-33.437 163.004c-20.898 50.155-50.155 96.131-87.771 133.747s-83.592 66.873-133.747 87.771-104.49 33.437-163.004 33.437-112.849-12.539-163.004-33.437c-50.155-20.898-96.131-50.155-133.747-87.771s-66.873-83.592-87.771-133.747c-20.898-54.335-33.437-108.669-33.437-163.004 0-58.514 12.539-112.849 33.437-163.004s50.155-96.131 87.771-133.747c37.616-37.616 83.592-66.873 133.747-87.771s104.49-33.437 163.004-33.437 112.849 12.539 163.004 33.437c50.155 20.898 96.131 50.155 133.747 87.771s66.873 83.592 87.771 133.747zM850.547 590.106c20.898-45.976 29.257-91.951 29.257-142.106s-8.359-96.131-29.257-142.106-45.976-83.592-79.412-117.029-71.053-58.514-117.029-79.412c-45.976-20.898-91.951-29.257-142.106-29.257s-96.131 8.359-142.106 29.257-83.592 45.976-117.029 79.412-58.514 71.053-79.412 117.029c-20.898 45.976-29.257 91.951-29.257 142.106s8.359 96.131 29.257 142.106 45.976 83.592 79.412 117.029 71.053 58.514 117.029 79.412c45.976 20.898 91.951 29.257 142.106 29.257s96.131-8.359 142.106-29.257 83.592-45.976 117.029-79.412c29.257-33.437 58.514-71.053 79.412-117.029z" />
<glyph unicode="&#xe923;" glyph-name="swrpg-success" data-tags="swrpg-success" d="M458.188 570.776l-345.339 166.139 245.551-270.106-224.653-116.506 228.833-37.616-45.976-282.645 212.114 216.294 199.576-199.576-41.796 270.106 224.653 37.616-199.576 120.686 141.584 199.576-237.192-62.171-91.429 253.91-66.351-295.706zM412.212 229.616l25.078 141.584-116.506 16.718 129.045 70.531-99.788 108.147 145.763-70.531 37.616 154.122 41.796-112.327 124.865 33.437-79.935-112.849 112.327-66.351-120.686-20.898 20.898-137.404-108.147 103.967-112.327-108.147z" />
<glyph unicode="&#xe924;" glyph-name="swrpg-threat" data-tags="swrpg-threat" d="M616.49 174.237h-213.159l-62.694-112.849h338.547l-62.694 112.849zM328.098 220.212l-108.669 179.722h-125.388l167.184-292.571 66.873 112.849zM929.959 404.114h-129.567l-104.49-179.722 66.873-112.849 167.184 292.571zM407.51 266.188h213.159l104.49 183.902-104.49 183.902h-213.159l-104.49-183.902 104.49-183.902zM574.694 558.759l62.694-108.669-62.694-108.669h-125.388l-62.694 108.669 62.694 108.669h125.388zM94.041 496.065h125.388l104.49 179.722-62.694 112.849-167.184-292.571zM695.902 675.788l104.49-179.722h129.567l-167.184 292.571-66.873-112.849zM407.51 721.763h213.159l62.694 112.849h-338.547l62.694-112.849z" />
<glyph unicode="&#xe925;" glyph-name="swrpg-triumph" data-tags="swrpg-triumph" d="M800.392 314.253c12.539 33.437 16.718 62.694 16.718 100.31 0 41.796-8.359 79.412-25.078 117.029-12.539 37.616-33.437 71.053-62.694 100.31-25.078 29.257-58.514 54.335-96.131 71.053s-75.233 29.257-117.029 29.257l-4.18 133.747h-33.437l-4.18-133.747c-41.796 0-79.412-12.539-117.029-29.257-37.616-20.898-71.053-41.796-96.131-71.053s-50.155-62.694-62.694-100.31c-16.718-33.437-25.078-75.233-25.078-117.029s8.359-79.412 20.898-117.029c16.718-33.437 37.616-66.873 62.694-96.131 29.257-29.257 58.514-54.335 91.951-71.053 37.616-16.718 71.053-29.257 112.849-33.437v-66.873l66.873 20.898v45.976c25.078 0 45.976 8.359 66.873 12.539s41.796 12.539 58.514 25.078l41.796-29.257-29.257 37.616c29.257 16.718 54.335 41.796 75.233 66.873s37.616 54.335 50.155 87.771l58.514 4.18-50.155 12.539zM257.045 414.563l171.363-117.029-75.233-108.669 108.669 54.335 4.18-16.718v-108.669c-33.437 4.18-66.873 12.539-96.131 29.257-33.437 16.718-58.514 37.616-79.412 62.694-25.078 25.078-41.796 54.335-54.335 87.771s-20.898 66.873-20.898 104.49 8.359 71.053 20.898 104.49 29.257 62.694 54.335 87.771c20.898 29.257 50.155 50.155 79.412 62.694 29.257 16.718 62.694 25.078 100.31 29.257l-12.539-321.829-200.62 50.155zM670.824 502.335l-146.286-108.669-12.539 296.751c37.616-4.18 75.233-12.539 104.49-29.257 33.437-16.718 58.514-37.616 83.592-62.694 20.898-25.078 41.796-54.335 54.335-87.771s20.898-66.873 20.898-104.49c0-33.437-4.18-62.694-16.718-91.951l-192.261 33.437 104.49 154.645zM750.237 293.355c-12.539-25.078-25.078-50.155-45.976-71.053-16.718-20.898-37.616-37.616-62.694-54.335l-79.412 108.669 188.082 16.718zM624.849 159.608c-16.718-12.539-29.257-16.718-45.976-20.898-12.539-8.359-29.257-8.359-50.155-12.539v104.49l96.131-71.053z" />
</font>
</defs>
</svg>
