<?xml version="1.0" encoding="UTF-8" standalone="no"?>
<svg
   xmlns:dc="http://purl.org/dc/elements/1.1/"
   xmlns:cc="http://creativecommons.org/ns#"
   xmlns:rdf="http://www.w3.org/1999/02/22-rdf-syntax-ns#"
   xmlns:svg="http://www.w3.org/2000/svg"
   xmlns="http://www.w3.org/2000/svg"
   xmlns:sodipodi="http://sodipodi.sourceforge.net/DTD/sodipodi-0.dtd"
   xmlns:inkscape="http://www.inkscape.org/namespaces/inkscape"
   version="2.0"
   viewbox="0 0 256 256"
   id="svg7"
   sodipodi:docname="anti-ship.svg"
   inkscape:version="1.0.2-2 (e86c870879, 2021-01-15)">
  <metadata
     id="metadata13">
    <rdf:RDF>
      <cc:Work
         rdf:about="">
        <dc:format>image/svg+xml</dc:format>
        <dc:type
           rdf:resource="http://purl.org/dc/dcmitype/StillImage" />
        <dc:title></dc:title>
      </cc:Work>
    </rdf:RDF>
  </metadata>
  <defs
     id="defs11" />
  <sodipodi:namedview
     pagecolor="#ffffff"
     bordercolor="#666666"
     borderopacity="1"
     objecttolerance="10"
     gridtolerance="10"
     guidetolerance="10"
     inkscape:pageopacity="0"
     inkscape:pageshadow="2"
     inkscape:window-width="2604"
     inkscape:window-height="2054"
     id="namedview9"
     showgrid="false"
     inkscape:pagecheckerboard="true"
     showborder="false"
     inkscape:zoom="4.69"
     inkscape:cx="39.1258"
     inkscape:cy="134.70149"
     inkscape:window-x="-10"
     inkscape:window-y="0"
     inkscape:window-maximized="0"
     inkscape:current-layer="svg7" />
  <g
     id="XMLID_1_"
     transform="translate(174.01036,-324.79176)">
    <path
       id="XMLID_3_"
       d="m -144.6,399.7 c -3.1,8.7 -12.1,16.7 -13.8,16.5 -4.7,-0.6 4.6,-16.5 -1.9,-33.6 -5.1,-13.3 -15.3,-17 -13.5,-21.6 2.9,-7.4 28.6,4.6 45.9,-8.2 13.5,-10 11.8,-27.6 19.3,-28 8.4,-0.5 9,21.9 26.2,30.9 16.5,8.6 34.7,-2.3 37.9,3.8 3.2,6.3 -17.2,15.5 -18.4,32.8 -1.3,19.5 23,31.7 18.8,39.9 -4.2,8.1 -27.8,-4.8 -45,7.6 -14.1,10.1 -13.6,29.8 -20.2,29.4 -6.7,-0.3 -7.1,-18.6 -20.8,-29.5 -5.9,-4.7 -16.8,-4.4 -16.9,-6.6 -0.1,-1.7 3,-3 6.8,-5.1 2.9,-1.6 6.9,-5.1 9.3,-3.1 4,3.4 5.8,10.1 8.5,10.7 2.2,0.5 7.7,-7 14,-7.6 6.2,-0.5 9.3,5.3 12.8,3.6 3.3,-1.5 0.8,-8.7 5.7,-13.5 4.6,-4.5 11.5,-0.4 14.2,-4.1 2.9,-3.9 -4.2,-9.3 -4,-18.9 0.2,-12.3 12.2,-18.9 9.7,-22.9 -2.3,-3.7 -12.2,2.9 -20.6,-2.1 -8.1,-4.9 -7,-16 -12,-16.5 -5,-0.5 -6.3,11.1 -15.6,13.8 -7.3,2.1 -12.9,-3.3 -15.9,-0.2 -3.1,3.1 1.8,9.8 -1.7,13.9 -2.6,3 -6.5,0.9 -9,3.9 -2.9,3.5 2.4,8.5 0.2,14.7 z" />
    <path
       id="XMLID_2_"
       d="m -108.7,379.5 c 4.4,-2.4 15.4,-5.7 18.9,-1.5 3.5,4.1 0.3,15.6 -6.1,20.6 -4.5,3.5 -10.3,6.4 -27.5,15.5 -5,2.7 -32.3,17.6 -42.2,23.7 -0.9,0.6 -3.7,2.2 -5,1.4 -1.2,-0.7 -0.7,-3.6 -0.1,-4.3 7,-7.7 19.2,-12.8 34.9,-30.9 0,0 0,0 0,0 10.1,-11.6 21.4,-21.2 27.1,-24.5 z" />
  </g>
  <path
     d="M-262.7,683.8"
     id="path5" />
</svg>
