<?xml version="1.0" encoding="UTF-8" standalone="no"?>
<svg
   xmlns:dc="http://purl.org/dc/elements/1.1/"
   xmlns:cc="http://creativecommons.org/ns#"
   xmlns:rdf="http://www.w3.org/1999/02/22-rdf-syntax-ns#"
   xmlns:svg="http://www.w3.org/2000/svg"
   xmlns="http://www.w3.org/2000/svg"
   xmlns:sodipodi="http://sodipodi.sourceforge.net/DTD/sodipodi-0.dtd"
   xmlns:inkscape="http://www.inkscape.org/namespaces/inkscape"
   version="2.0"
   viewbox="0 0 256 256"
   id="svg4"
   sodipodi:docname="bomber.svg"
   inkscape:version="1.0.2-2 (e86c870879, 2021-01-15)">
  <metadata
     id="metadata10">
    <rdf:RDF>
      <cc:Work
         rdf:about="">
        <dc:format>image/svg+xml</dc:format>
        <dc:type
           rdf:resource="http://purl.org/dc/dcmitype/StillImage" />
        <dc:title></dc:title>
      </cc:Work>
    </rdf:RDF>
  </metadata>
  <defs
     id="defs8" />
  <sodipodi:namedview
     pagecolor="#ffffff"
     bordercolor="#666666"
     borderopacity="1"
     objecttolerance="10"
     gridtolerance="10"
     guidetolerance="10"
     inkscape:pageopacity="0"
     inkscape:pageshadow="2"
     inkscape:window-width="2604"
     inkscape:window-height="2054"
     id="namedview6"
     showgrid="false"
     inkscape:pagecheckerboard="true"
     showborder="false"
     inkscape:zoom="9.38"
     inkscape:cx="70.551847"
     inkscape:cy="94.904866"
     inkscape:window-x="-10"
     inkscape:window-y="0"
     inkscape:window-maximized="0"
     inkscape:current-layer="svg4" />
  <path
     d="m 144.1,84.7 c -6.36175,-5.353356 -13.19426,-12.061043 -13.8,-20.2 0,-6.1 4.6,-12.9 13.8,-20.5 l 15.6,-13 -19.9,3.7 c -7.2223,0.543042 -15.31429,2.357799 -21.8,0.7 -1.8,-0.5 -3.4,-1.5 -4.9,-3.2 -4.6594,-5.710757 -7.23785,-13.046197 -9.3,-19.2 L 99.3,0 94,12.8 C 90.923214,18.984013 88.124875,25.8634 83,30.2 79.369027,33.179176 74.764814,34.080288 70.6,34.1 64.509788,33.983648 58.272643,32.701159 53,31.7 l -19.5,-3.6 15,13 c 6.4,5.9 9.7,12.5 9.7,19.7 L 0,64.9 V 83.1 L 57.2,68.5 C 56,72.8 53.7,77.4 50.3,82.3 L 0,100.5 v 16.6 l 12.4,8.3 30,-22.3 3.9,-1 c 4.9,-1.1 9.4,-1.9 13.5,-2.7 4.1,-0.8 7.9,-1.1 11.3,-1.1 l -39.5,41.6 h 29.8 l 21.5,-38.7 c 2,1.2 3.9,2.9 5.7,5 5.016875,6.73818 7.237799,13.67997 10.6,21.8 3.06752,-8.32118 5.57555,-17.43193 9.5,-25.1 1.5,-3 3,-5.2 4.4,-6.7 1.4,-1.5 3.1,-2.5 4.8,-2.9 1.8,-0.4 3.8,-0.6 6.2,-0.6 5.37861,-0.02862 10.91555,0.498298 15.6,1.4 l 19.9,3.4 z m -36.6,2 c -3.9,3.2 -7.1,7.9 -9.6,13.9 -2.678931,-3.632143 -5.92456,-6.93058 -9.6,-9 L 103.7,63.8 80.4,88.7 C 75.628861,87.735032 71.375352,87.216011 66.9,87.8 65.3,88 63.7,88.2 62,88.3 L 87.8,69 65.9,76.9 c 1.4,-3.6 2.5,-7.3 3.2,-11.2 l 27.2,-7.3 -27.2,2.2 c 0,-2.9 -0.4,-5.7 -1.2,-8.3 -0.8,-2.6 -1.8,-5.1 -3.2,-7.5 7.477271,0.739341 16.809428,-0.352809 22.4,-3.8 4.2,-2.8 7.9,-6.9 11,-12.1 2.39059,5.461449 5.65512,10.474533 10.1,13.9 5.36224,3.969189 12.12742,4.624837 17.9,4.5 -4.3,6.1 -6.5,11.9 -6.5,17.6 0.58963,6.461984 2.97981,12.610673 6.3,17.4 -6.28837,0.174376 -13.69615,0.866401 -18.4,4.4 z"
     id="path2"
     sodipodi:nodetypes="cccccccccccccccccccccccccscccccccscccccccccccccccccscccccccc" />
</svg>
