<?xml version="1.0" encoding="UTF-8" standalone="no"?>
<svg
   xmlns:dc="http://purl.org/dc/elements/1.1/"
   xmlns:cc="http://creativecommons.org/ns#"
   xmlns:rdf="http://www.w3.org/1999/02/22-rdf-syntax-ns#"
   xmlns:svg="http://www.w3.org/2000/svg"
   xmlns="http://www.w3.org/2000/svg"
   xmlns:sodipodi="http://sodipodi.sourceforge.net/DTD/sodipodi-0.dtd"
   xmlns:inkscape="http://www.inkscape.org/namespaces/inkscape"
   version="2.0"
   viewbox="0 0 256 256"
   id="svg6"
   sodipodi:docname="brace.svg"
   inkscape:version="1.0.2-2 (e86c870879, 2021-01-15)">
  <metadata
     id="metadata12">
    <rdf:RDF>
      <cc:Work
         rdf:about="">
        <dc:format>image/svg+xml</dc:format>
        <dc:type
           rdf:resource="http://purl.org/dc/dcmitype/StillImage" />
        <dc:title></dc:title>
      </cc:Work>
    </rdf:RDF>
  </metadata>
  <defs
     id="defs10" />
  <sodipodi:namedview
     pagecolor="#ffffff"
     bordercolor="#666666"
     borderopacity="1"
     objecttolerance="10"
     gridtolerance="10"
     guidetolerance="10"
     inkscape:pageopacity="0"
     inkscape:pageshadow="2"
     inkscape:window-width="2604"
     inkscape:window-height="2054"
     id="namedview8"
     showgrid="false"
     inkscape:pagecheckerboard="true"
     showborder="false"
     inkscape:zoom="18.76"
     inkscape:cx="66.489051"
     inkscape:cy="97.656391"
     inkscape:window-x="-10"
     inkscape:window-y="0"
     inkscape:window-maximized="0"
     inkscape:current-layer="svg6" />
  <g
     id="g4"
     transform="translate(189,-330.2)">
    <path
       d="m -60.2,395.8 c -3.2,-4 -4,-9.6 -1.6,-15.2 1.6,-6.4 5.6,-13.6 11.2,-21.6 5.6,-8 12.8,-17.6 21.6,-28.8 -11.2,8 -20.8,15.2 -28.8,20.8 -8.8,5.6 -16,8.8 -22.4,10.4 -6.4,1.6 -12,0.8 -16,-3.2 -4,-4 -8,-9.6 -10.4,-19.2 0,4.8 -0.8,8.8 -1.6,12 -0.8,3.2 -1.6,6.4 -2.4,8 -4,-2.4 -7.82453,-3.73913 -12,-4.8 -4.42404,-1.12403 -9.03843,-1.7663 -13.6,-1.6 -7.05569,0.25722 -14.2671,1.32229 -20.8,4 -6.22754,2.55255 -12.04092,6.44092 -16.8,11.2 -4.75908,4.75908 -8.64745,10.57246 -11.2,16.8 -2.67771,6.5329 -4,13.6 -4,20.8 0,7.2 1.6,14.4 4,20.8 3.2,6.4 6.4,12 11.2,16.8 4.8,4.8 10.4,8.8 16.8,11.2 6.4,2.4 13.6,4 20.8,4 5.6,0 11.2,-0.8 16,-2.4 4.8,-1.6 9.6,-4 14.4,-7.2 2.4,4 4,8.8 5.6,15.2 0.8,-9.6 2.4,-16 5.6,-20 2.4,-4 6.4,-6.4 10.4,-6.4 12.043867,0.18532 21.816102,7.26664 31.2,12 -4.611279,-9.33701 -12.612884,-19.24154 -12.8,-28.8 2.216488,-12.14553 17.271493,-12.54908 25.6,-13.6 -10.4,-4 -16.8,-7.2 -20,-11.2 z m -49.09318,49.62623 c -4.03043,2.14186 -8.07069,4.02637 -12.50682,5.57377 -5.31442,1.51276 -10.3654,2.4 -15.2,2.4 v -95.2 c 6.7623,0.22096 13.79003,1.72392 19.2,4 5.6,2.4 11.2,5.6 15.2,10.4 4,4 8,9.6 10.4,15.2 2.4,5.6 4,12 4,18.4 0,7.2 -1.6,14.4 -4,20 -4.640264,8.47092 -9.28096,15.08913 -17.09318,19.22623 z"
       id="path2"
       sodipodi:nodetypes="scsccsscscaaaaascsssscccccccsccccccsscc" />
  </g>
</svg>
