<?xml version="1.0" encoding="UTF-8" standalone="no"?>
<svg
   xmlns:dc="http://purl.org/dc/elements/1.1/"
   xmlns:cc="http://creativecommons.org/ns#"
   xmlns:rdf="http://www.w3.org/1999/02/22-rdf-syntax-ns#"
   xmlns:svg="http://www.w3.org/2000/svg"
   xmlns="http://www.w3.org/2000/svg"
   xmlns:sodipodi="http://sodipodi.sourceforge.net/DTD/sodipodi-0.dtd"
   xmlns:inkscape="http://www.inkscape.org/namespaces/inkscape"
   version="2.0"
   viewbox="0 0 256 256"
   id="svg6"
   sodipodi:docname="concentrate.svg"
   inkscape:version="1.0.2-2 (e86c870879, 2021-01-15)">
  <metadata
     id="metadata12">
    <rdf:RDF>
      <cc:Work
         rdf:about="">
        <dc:format>image/svg+xml</dc:format>
        <dc:type
           rdf:resource="http://purl.org/dc/dcmitype/StillImage" />
        <dc:title></dc:title>
      </cc:Work>
    </rdf:RDF>
  </metadata>
  <defs
     id="defs10" />
  <sodipodi:namedview
     pagecolor="#ffffff"
     bordercolor="#666666"
     borderopacity="1"
     objecttolerance="10"
     gridtolerance="10"
     guidetolerance="10"
     inkscape:pageopacity="0"
     inkscape:pageshadow="2"
     inkscape:window-width="2604"
     inkscape:window-height="2054"
     id="namedview8"
     showgrid="false"
     inkscape:pagecheckerboard="true"
     inkscape:showpageshadow="false"
     showborder="false"
     inkscape:zoom="6.6326616"
     inkscape:cx="123.8749"
     inkscape:cy="113.26814"
     inkscape:window-x="-10"
     inkscape:window-y="0"
     inkscape:window-maximized="0"
     inkscape:current-layer="svg6" />
  <g
     id="g4"
     transform="matrix(1.6020025,0,0,1.6182048,302.61827,-514.42731)">
    <path
       d="m -139.9,324.2 c -9.5,3.9 -18.2,9.5 -25.3,16.6 -7.9,7.1 -13.4,15.8 -17.4,25.3 -3.9,9.5 -6.3,19.8 -6.3,30.9 0,11.1 2.3,21.4 6.3,30.9 4.7,9.5 10.3,18.2 17.4,25.3 7.1,7.1 15.8,12.6 25.3,16.6 9.5,3.9 19.8,6.3 30.9,6.3 11.1,0 21.4,-2.4 30.9,-6.3 9.5,-3.9 18.2,-9.5 25.3,-16.6 7.1,-7.1 13.4,-15.8 17.4,-25.3 3.9,-9.5 6.3,-19.8 6.3,-30.9 0,-11.1 -2.3,-21.4 -6.3,-30.9 -4.7,-9.5 -10.3,-18.2 -17.4,-25.3 -7.1,-7.1 -15.8,-12.6 -25.3,-16.6 -9.5,-3.9 -19.8,-6.3 -30.9,-6.3 -11.1,0 -21.4,2.4 -30.9,6.3 z m 60.2,36.6 c -5.882092,-5.59423 -5.6,-16.18486 -5.6,-23.7 -2.737358,6.76505 -7.132561,21.10205 -14.3,21.3 -13.51461,-3.94954 -21.62298,-17.38372 -29.3,-26.2 3.2,-1.6 6.3,-1.6 9.5,-2.4 3.2,-0.8 7.1,-0.8 10.3,-0.8 11.9,0 23,2.4 32.5,7.9 9.5,5.6 17.5,13.5 23.8,22.2 -7.092126,1.10735 -21.744942,6.288 -26.9,1.7 z m -43.8,7.5 c -3.78357,7.52988 -16.11014,8.15358 -23.7,8.8 5.5492,2.27127 21.10562,8.59555 20.6,15.1 -1.5965,13.50765 -23.23975,24.20302 -29.3,28.4 11.57617,-3.97799 23.36066,-8.95973 32.5,-9.6 -11.52659,7.98261 -21.8066,16.3361 -33.2,22.4 l -7.1,4.8 c -4,-6.3 -7.1,-12.7 -9.5,-19 -2.4,-7.1 -3.2,-14.3 -3.2,-21.4 0,-7.1 1.6,-14.3 3.2,-20.6 1.6,-6.3 4.7,-12.7 8.7,-18.2 3.2,-5.5 8,-11 13.5,-15 4.7,-4.8 11.1,-7.9 17.4,-10.3 3.00685,6.25248 15.49436,23.8644 10.1,34.6 z m 12.94712,39.0533 c 4.77155,-4.56282 9.37395,-8.48731 11.95288,-13.5533 -4.69802,2.31492 -8.49897,4.86142 -12.8,6.4 -2.51181,-1.99765 -4.21927,-1.53658 -6.4,-1.6 2.4,-4 2.13606,-7.40039 1.6,-11.1 -0.45771,-3.15884 -1.6,-5.5 -4,-8.7 3.9,-2.3 5.34039,-4.2529 7.1,-7.1 1.33001,-2.152 2.39906,-5.01494 2.4,-7.2 3.2,2.4 6.61686,4 10.3,4 3.683145,0 7.188091,-1.95994 10.3,-4 0.8,1.6 3.867242,4.1652 6.397868,5.27889 4.221345,1.85776 7.830346,1.92111 13.702132,1.92111 -6.791574,7.83154 -6.697682,17.41229 -6.3,26.2 -4,0.8 -7.9,1.6 -12.7,4 -3.78102,2.61376 -7.334602,6.14388 -9.6,9.5 -0.685521,-1.58866 -1.83855,-3.39005 -3.2,-4.8 -4.48489,5.13543 -7.99683,11.15075 -11.9,15.8 -9.87401,11.55802 -18.31423,23.38501 -27,34.8 -6.57811,-3.28007 -11.70193,-7.704 -16.6,-12.6 16.49541,-12.30576 31.83151,-25.29355 46.74712,-37.2467 z M -122.9,463.44627 c -3.25347,-0.73663 -6.14923,-1.81858 -9.5,-3.14627 8.67214,-13.18004 15.89642,-24.00434 24.8,-36.3 3.33179,6.68428 2.61565,21.21524 3.2,30.9 3.18124,-11.8368 8.723457,-38.71334 18.4,-44.3 10.66256,-5.74976 22.160907,0.6428 31.7,4.8 -9.281192,-9.34761 -17.794822,-21.32198 -10.4,-33.2 4.262002,-6.9604 9.786874,-13.34193 15.8,-17.4 2.3,4.7 3.9,10.2 5.5,15 1.6,5.5 2.4,11.1 2.4,16.6 0,8.7 -1.5,18.2 -5.5,26.1 -3.9,8.7 -8.7,15.9 -15,22.2 -5.6,6.3 -13.5,11.8 -21.4,15 -7.9,3.9 -16.6,5.5 -26.1,5.5 -4,0 -9.34522,-0.72246 -13.9,-1.75373 z"
       id="path2"
       sodipodi:nodetypes="sccscscssscscscssccccsscccacccccccsscccaccccacacacacccccccccaccccccccscccsa" />
  </g>
</svg>
