<?xml version="1.0" encoding="UTF-8" standalone="no"?>
<svg
   xmlns:dc="http://purl.org/dc/elements/1.1/"
   xmlns:cc="http://creativecommons.org/ns#"
   xmlns:rdf="http://www.w3.org/1999/02/22-rdf-syntax-ns#"
   xmlns:svg="http://www.w3.org/2000/svg"
   xmlns="http://www.w3.org/2000/svg"
   xmlns:sodipodi="http://sodipodi.sourceforge.net/DTD/sodipodi-0.dtd"
   xmlns:inkscape="http://www.inkscape.org/namespaces/inkscape"
   version="2.0"
   viewbox="0 0 256 256"
   id="svg6"
   sodipodi:docname="crit.svg"
   inkscape:version="1.0.2-2 (e86c870879, 2021-01-15)">
  <metadata
     id="metadata12">
    <rdf:RDF>
      <cc:Work
         rdf:about="">
        <dc:format>image/svg+xml</dc:format>
        <dc:type
           rdf:resource="http://purl.org/dc/dcmitype/StillImage" />
        <dc:title></dc:title>
      </cc:Work>
    </rdf:RDF>
  </metadata>
  <defs
     id="defs10" />
  <sodipodi:namedview
     pagecolor="#ffffff"
     bordercolor="#666666"
     borderopacity="1"
     objecttolerance="10"
     gridtolerance="10"
     guidetolerance="10"
     inkscape:pageopacity="0"
     inkscape:pageshadow="2"
     inkscape:window-width="2604"
     inkscape:window-height="2054"
     id="namedview8"
     showgrid="false"
     inkscape:pagecheckerboard="true"
     showborder="false"
     inkscape:zoom="4.69"
     inkscape:cx="100.42644"
     inkscape:cy="143.23028"
     inkscape:window-x="-10"
     inkscape:window-y="0"
     inkscape:window-maximized="0"
     inkscape:current-layer="svg6" />
  <g
     id="g4"
     transform="matrix(1.5980025,0,0,1.5980025,295.63046,-506.56679)">
    <path
       d="m -107.4,337.6 14.3,30.1 24.6,-16.6 -11.1,24.6 26.1,4 -16.6,8.7 12.7,8.7 c 0,-1.6 0.8,-3.2 0.8,-4.8 0.8,-1.6 0.8,-3.2 0.8,-4.8 l 16.6,-9.5 -19,-7.1 c -1.6,-4 -3.2,-7.9 -5.5,-11.1 l 7.1,-23 -23,10.3 c -1.6,-0.8 -4,-1.6 -6.3,-2.4 -2.4,0 -4.8,-0.8 -7.1,-0.8 l -20.6,-26.9 -3.2,30.9 c -0.8,0 -1.6,0.8 -3.2,1.6 -1.6,0.8 -2.4,1.6 -3.2,2.4 l 14.3,10.3 z m -7.9,114.8 -5.5,-26.1 -14.3,10.3 7.1,-17.4 -22.2,1.6 16.6,-11.9 -23,-7.9 12.7,-2.4 -10.3,-7.1 c 0,0.8 0,1.6 0,1.6 v 0.8 l -20.6,7.1 19.8,5.5 c 0.8,0.8 0.8,2.4 0.8,3.2 0,0.8 0.8,2.4 0.8,3.2 l -25.3,21.4 32.5,-7.9 c 0.8,1.6 1.6,2.4 2.4,3.2 0.8,0.8 1.6,1.6 2.4,2.4 l -4.8,19.8 17.4,-11.1 5.5,1.6 5.5,34.9 14.3,-34.9 c 2.4,-0.8 4.8,-1.6 7.1,-2.4 2.4,-0.8 4,-1.6 6.3,-3.2 l 6.3,1.6 -20.6,-14.3 z m -69.7,-109.3 76,57.8 76,37.2 -66.5,-52.3 z"
       id="path2" />
  </g>
</svg>
