<?xml version="1.0" encoding="UTF-8" standalone="no"?>
<svg
   xmlns:dc="http://purl.org/dc/elements/1.1/"
   xmlns:cc="http://creativecommons.org/ns#"
   xmlns:rdf="http://www.w3.org/1999/02/22-rdf-syntax-ns#"
   xmlns:svg="http://www.w3.org/2000/svg"
   xmlns="http://www.w3.org/2000/svg"
   xmlns:sodipodi="http://sodipodi.sourceforge.net/DTD/sodipodi-0.dtd"
   xmlns:inkscape="http://www.inkscape.org/namespaces/inkscape"
   version="2.0"
   viewbox="0 0 256 256"
   id="svg6"
   sodipodi:docname="evade.svg"
   inkscape:version="1.0.2-2 (e86c870879, 2021-01-15)">
  <metadata
     id="metadata12">
    <rdf:RDF>
      <cc:Work
         rdf:about="">
        <dc:format>image/svg+xml</dc:format>
        <dc:type
           rdf:resource="http://purl.org/dc/dcmitype/StillImage" />
      </cc:Work>
    </rdf:RDF>
  </metadata>
  <defs
     id="defs10" />
  <sodipodi:namedview
     pagecolor="#ffffff"
     bordercolor="#666666"
     borderopacity="1"
     objecttolerance="10"
     gridtolerance="10"
     guidetolerance="10"
     inkscape:pageopacity="0"
     inkscape:pageshadow="2"
     inkscape:window-width="820"
     inkscape:window-height="480"
     id="namedview8"
     showgrid="false"
     inkscape:zoom="3.4733333"
     inkscape:cx="150"
     inkscape:cy="75"
     inkscape:window-x="0"
     inkscape:window-y="0"
     inkscape:window-maximized="0"
     inkscape:current-layer="svg6" />
  <g
     id="g4"
     transform="translate(188.7,-333)">
    <path
       d="m -98.9,395.4 24.9,10.5 c -1.6,4 -3.2,8 -4.8,12.1 -1.6,4 -4,8 -6.4,12.1 -2.4,4 -4.8,7.2 -7.2,9.6 -2.4,2.4 -4.8,4 -7.2,4 -1.6,0 -4,-0.8 -5.6,-2.4 -1.6,-1.6 -3.2,-3.2 -4.8,-4.8 -2.4,-3.2 -4.8,-5.6 -7.2,-8 -2.4,-2.4 -4.8,-4 -7.2,-4.8 -2.4,-0.8 -4.8,-1.6 -6.4,-2.4 -2.4,-0.8 -4,-0.8 -5.6,-0.8 -6.4,0 -12.9,1.6 -18.5,4 -5.6,2.4 -11.3,6.4 -16.1,9.6 -4.8,4 -8.8,7.2 -12.1,10.5 -3.2,3.2 -4.8,5.6 -5.6,6.4 l 12.9,10.5 c 1.6,-1.6 4,-4 6.4,-7.2 2.4,-3.2 6.4,-5.6 9.6,-8 4,-2.4 7.2,-4.8 11.3,-7.2 4,-1.6 8,-3.2 11.3,-2.4 3.2,0 5.6,0.8 7.2,2.4 2.4,1.6 4,3.2 6.4,6.4 2.4,3.2 4.8,6.4 7.2,8 2.4,1.6 4.8,3.2 7.2,4.8 2.4,0.8 4.8,1.6 6.4,1.6 2.4,0 4,0 5.6,0 3.2,-0.8 5.6,-1.6 7.2,-2.4 4,-1.6 8,-4.8 11.3,-8.8 3.3,-4 6.4,-8 8.8,-12.9 2.4,-4.9 4.8,-8.8 6.4,-12.9 1.6,-4 3.2,-7.2 4,-9.6 l 24.9,10.5 2.4,-45 3.2,-45.8 -37.8,33.8 z"
       id="path2" />
  </g>
</svg>
