<?xml version="1.0" encoding="UTF-8" standalone="no"?>
<svg
   xmlns:dc="http://purl.org/dc/elements/1.1/"
   xmlns:cc="http://creativecommons.org/ns#"
   xmlns:rdf="http://www.w3.org/1999/02/22-rdf-syntax-ns#"
   xmlns:svg="http://www.w3.org/2000/svg"
   xmlns="http://www.w3.org/2000/svg"
   xmlns:sodipodi="http://sodipodi.sourceforge.net/DTD/sodipodi-0.dtd"
   xmlns:inkscape="http://www.inkscape.org/namespaces/inkscape"
   version="2.0"
   viewbox="0 0 256 256"
   id="svg6"
   sodipodi:docname="repair.svg"
   inkscape:version="1.0.2-2 (e86c870879, 2021-01-15)">
  <metadata
     id="metadata12">
    <rdf:RDF>
      <cc:Work
         rdf:about="">
        <dc:format>image/svg+xml</dc:format>
        <dc:type
           rdf:resource="http://purl.org/dc/dcmitype/StillImage" />
        <dc:title></dc:title>
      </cc:Work>
    </rdf:RDF>
  </metadata>
  <defs
     id="defs10" />
  <sodipodi:namedview
     pagecolor="#ffffff"
     bordercolor="#666666"
     borderopacity="1"
     objecttolerance="10"
     gridtolerance="10"
     guidetolerance="10"
     inkscape:pageopacity="0"
     inkscape:pageshadow="2"
     inkscape:window-width="1718"
     inkscape:window-height="1368"
     id="namedview8"
     showgrid="false"
     inkscape:pagecheckerboard="true"
     showborder="false"
     inkscape:zoom="3.4733333"
     inkscape:cx="150"
     inkscape:cy="75"
     inkscape:window-x="-7"
     inkscape:window-y="0"
     inkscape:window-maximized="0"
     inkscape:current-layer="svg6" />
  <g
     id="g4"
     transform="translate(189,-317)">
    <path
       d="m -109,477 c 11.2,0 21.6,-2.4 31.2,-6.4 9.6,-4 18.4,-9.6 25.6,-16.8 7.2,-7.2 12.8,-16 16.8,-25.6 4,-9.6 6.4,-20 6.4,-31.2 0,-11.2 -2.4,-21.6 -6.4,-31.2 -4,-9.6 -9.6,-18.4 -16.8,-25.6 -7.2,-7.2 -16,-12.8 -25.6,-16.8 -9.6,-4 -20,-6.4 -31.2,-6.4 -11.2,0 -21.6,2.4 -31.2,6.4 -9.6,4 -18.4,9.6 -25.6,16.8 -7.2,7.2 -12.8,16 -16.8,25.6 -4,9.6 -6.4,20 -6.4,31.2 0,11.2 2.4,21.6 6.4,31.2 4,9.6 9.6,18.4 16.8,25.6 7.2,7.2 16,12.8 25.6,16.8 9.6,4 20,6.4 31.2,6.4 z m -17.6,-13.6 v 0 z M -177.8,397 c 0,-10.4 2.4,-20.8 6.4,-29.6 4,-8.8 10.4,-16.8 18.4,-23.2 h 0.8 c 7.2,0.8 13.6,2.4 20,5.6 6.4,3.2 11.2,7.2 16,12.8 4.8,5.6 8,12 10.4,18.4 2.4,6.4 2.4,13.6 2.4,20.8 -0.8,6.4 -2.4,12.8 -4.8,18.4 -2.4,5.6 -6.4,10.4 -10.4,15.2 -4,4 -9.6,8 -15.2,10.4 -5.6,2.4 -12,4 -18.4,4.8 -8,-6.4 -13.6,-14.4 -18.4,-23.2 -4.8,-9.6 -7.2,-20 -7.2,-30.4 z m 68.8,-68.8 c 9.6,0 18.4,1.6 27.2,5.6 8.8,4 16,8.8 21.6,14.4 6.4,6.4 11.2,13.6 14.4,21.6 3.2,8 5.6,17.6 5.6,27.2 0,9.6 -1.6,18.4 -5.6,27.2 -4,8.8 -8.8,16 -14.4,21.6 -6.4,6.4 -13.6,11.2 -21.6,14.4 -8.8,4 -17.6,5.6 -27.2,5.6 h -1.6 c 0.8,-0.8 2.4,-1.6 3.2,-2.4 0.8,-0.8 2.4,-1.6 3.2,-2.4 l -6.4,-8 c 2.4,-1.6 4.8,-4 7.2,-6.4 2.4,-2.4 4,-4.8 6.4,-7.2 l 8,5.6 c 2.4,-3.2 4,-6.4 5.6,-9.6 1.6,-3.2 3.2,-6.4 4,-9.6 l -8.8,-3.2 c 0.8,-3.2 1.6,-6.4 2.4,-9.6 0.8,-3.2 0.8,-6.4 1.6,-9.6 l 10.4,0.8 v -0.8 c 0,-0.8 0,-2.4 0,-3.2 0,-1.6 0,-2.4 0,-3.2 0,-2.4 0,-4.8 0,-7.2 0,-2.4 -0.8,-4.8 -0.8,-7.2 l -10.4,1.6 c 0,-3.2 -0.8,-6.4 -2.4,-9.6 -0.8,-3.2 -2.4,-6.4 -3.2,-8.8 l 8.8,-4 c -1.6,-3.2 -3.2,-6.4 -5.6,-9.6 -1.6,-3.2 -4,-5.6 -6.4,-8.8 l -7.2,6.4 v 0 c -2.4,-2.4 -4,-4.8 -6.4,-7.2 -2.4,-2.4 -4.8,-4 -7.2,-5.6 l 5.6,-8.8 z"
       id="path2" />
  </g>
</svg>
