<?xml version="1.0" encoding="UTF-8" standalone="no"?>
<svg
   xmlns:dc="http://purl.org/dc/elements/1.1/"
   xmlns:cc="http://creativecommons.org/ns#"
   xmlns:rdf="http://www.w3.org/1999/02/22-rdf-syntax-ns#"
   xmlns:svg="http://www.w3.org/2000/svg"
   xmlns="http://www.w3.org/2000/svg"
   xmlns:sodipodi="http://sodipodi.sourceforge.net/DTD/sodipodi-0.dtd"
   xmlns:inkscape="http://www.inkscape.org/namespaces/inkscape"
   version="2.0"
   viewbox="0 0 256 256"
   id="svg4"
   sodipodi:docname="rogue.svg"
   inkscape:version="1.0.2-2 (e86c870879, 2021-01-15)">
  <metadata
     id="metadata10">
    <rdf:RDF>
      <cc:Work
         rdf:about="">
        <dc:format>image/svg+xml</dc:format>
        <dc:type
           rdf:resource="http://purl.org/dc/dcmitype/StillImage" />
        <dc:title></dc:title>
      </cc:Work>
    </rdf:RDF>
  </metadata>
  <defs
     id="defs8" />
  <sodipodi:namedview
     pagecolor="#ffffff"
     bordercolor="#666666"
     borderopacity="1"
     objecttolerance="10"
     gridtolerance="10"
     guidetolerance="10"
     inkscape:pageopacity="0"
     inkscape:pageshadow="2"
     inkscape:window-width="1718"
     inkscape:window-height="1368"
     id="namedview6"
     showgrid="false"
     inkscape:pagecheckerboard="true"
     showborder="false"
     inkscape:zoom="3.4733333"
     inkscape:cx="150"
     inkscape:cy="75"
     inkscape:window-x="-7"
     inkscape:window-y="0"
     inkscape:window-maximized="0"
     inkscape:current-layer="svg4" />
  <path
     d="m 0.3,151.60357 c 1,-0.5 7.9,-4 20.5,-10.4 21.4,-11.1 34.8,-17.5 40.2,-19.2 5.5,-1.8 11.7,-2.6 18.6,-2.5 2.5,0 4.5,0.1 6.2,0.2 0.1,-0.8 0.3,-4.8 0.6,-12.2 0.3,-6.6 0.5,-9.999999 0.8,-10.299999 0.1,-0.1 0.7,-0.1 1.7,0.2 1.9,0.5 3.7,0.8 5.4,0.8 1,0.1 1.7,0.3 1.9,0.4 0.9,0.5 4.1,3.499999 9.5,8.899999 l 6.8,6.6 6.6,-2.1 c 12.8,-3.7 24.8,-6.5 36.2,-8.3 2.8,-0.5 4.3,-0.8 4.4,-0.8 l -4.8,-2.1 c -12.8,-4.099999 -21.6,-7.399999 -26.5,-9.899999 -4.3,-2.2 -6.8,-3.9 -7.7,-5 -0.5,-0.4 -0.4,-1.2 0.4,-2.5 0.9,-1.8 1.5,-3.6 1.9,-5.4 0.6,-2.5 1,-5.4 1.2,-8.9 0.1,-3.1 0.6,-5.8 1.4,-8.1 1.8,-5.4 6.6,-14.1 14.5,-26.1 3.6,-5.4 5.4,-8.2 5.2,-8.2 -0.1,-0.1 -2.1,0.9 -5.8,3 -14.1,7.9 -24.3,12.3 -30.8,13.3 -2.2,0.3 -4,0.3 -5.4,0 -3.2,-0.8 -6,-1.1 -8.3,-1 -3.4,0.3 -6.3,0.8 -8.9,1.5 -0.9,0.4 -1.4,0.6 -1.5,0.6 -0.4,0 -1,-1 -1.9,-2.9 -1.7,-3.2 -2.9,-6.6 -3.7,-10.3 -2.1,-8.8 -3.6,-18.4 -4.6,-28.9999996 C 74.3,0.70357143 74.1,0.10357143 74,0.00357143 c 0,-0.1 -0.7,1.89999997 -2.1,5.99999997 C 67.6,18.003571 62.2,30.003571 55.6,42.003571 l -1.7,3.3 7,10.3 7,10.1 v 4.3 c 0,2.8 -0.1,4.3 -0.2,4.3 l -10.8,-0.4 c -7.2,-0.1 -10.9,-0.2 -10.9,-0.3 -0.1,-0.1 -0.2,0.9 -0.3,3 0,2.6 -0.3,4.8 -0.8,6.8 -3.6,14.1 -16.8,34.799999 -39.7,62.099999 -3.2,4 -5,6.1 -5.2,6.4 H 0.3 Z M 93.9,90.703571 c -7.7,-0.9 -13.3,-4.9 -16.8,-12 -2.6,-4.9 -2.9,-10.1 -1,-15.5 2.7,-7.5 8.1,-12.1 16.1,-13.7 0.9,-0.1 2.3,-0.2 4.1,-0.2 1.7,0 3,0.1 3.9,0.2 4.1,1 7.7,3 10.8,6 1.7,1.5 3,3.3 3.9,5.2 3.5,7 3,13.9 -1.5,20.9 -3.5,5.2 -8.4,8.1 -14.9,8.9 -1.7,0.3 -3.2,0.3 -4.6,0.2 z"
     id="path2" />
</svg>
