<?xml version="1.0" encoding="UTF-8" standalone="no"?>
<svg
   xmlns:dc="http://purl.org/dc/elements/1.1/"
   xmlns:cc="http://creativecommons.org/ns#"
   xmlns:rdf="http://www.w3.org/1999/02/22-rdf-syntax-ns#"
   xmlns:svg="http://www.w3.org/2000/svg"
   xmlns="http://www.w3.org/2000/svg"
   xmlns:sodipodi="http://sodipodi.sourceforge.net/DTD/sodipodi-0.dtd"
   xmlns:inkscape="http://www.inkscape.org/namespaces/inkscape"
   version="2.0"
   viewbox="0 0 256 256"
   id="svg6"
   sodipodi:docname="squadron.svg"
   inkscape:version="1.0.2-2 (e86c870879, 2021-01-15)">
  <metadata
     id="metadata12">
    <rdf:RDF>
      <cc:Work
         rdf:about="">
        <dc:format>image/svg+xml</dc:format>
        <dc:type
           rdf:resource="http://purl.org/dc/dcmitype/StillImage" />
        <dc:title></dc:title>
      </cc:Work>
    </rdf:RDF>
  </metadata>
  <defs
     id="defs10" />
  <sodipodi:namedview
     pagecolor="#ffffff"
     bordercolor="#666666"
     borderopacity="1"
     objecttolerance="10"
     gridtolerance="10"
     guidetolerance="10"
     inkscape:pageopacity="0"
     inkscape:pageshadow="2"
     inkscape:window-width="2604"
     inkscape:window-height="2054"
     id="namedview8"
     showgrid="false"
     inkscape:pagecheckerboard="true"
     showborder="false"
     inkscape:zoom="4.69"
     inkscape:cx="90.298507"
     inkscape:cy="177.34542"
     inkscape:window-x="-10"
     inkscape:window-y="0"
     inkscape:window-maximized="0"
     inkscape:current-layer="svg6" />
  <g
     id="g4"
     transform="matrix(1.5920398,0,0,1.6,301.53234,-507.2)">
    <path
       d="m -141.4,374.6 10.4,13.6 8.8,-40.8 -34.4,23.2 z m 56.8,12 12.8,-40 -37.6,20 16,5.6 z m 0.8,44.8 11.2,12.8 4,-41.6 -32,27.2 z m -56,-108 c -9.6,4 -18.4,9.6 -25.6,16.8 -7.2,7.2 -12.8,16 -17.6,25.6 -4,9.6 -6.4,20 -6.4,31.2 0,11.2 2.4,21.6 6.4,31.2 4,9.6 9.6,18.4 17.6,25.6 7.2,7.2 16,12.8 25.6,16.8 9.6,4 20,6.4 31.2,6.4 11.2,0 21.6,-2.4 31.2,-6.4 9.6,-4 18.4,-9.6 25.6,-16.8 7.2,-7.2 12.8,-16 16.8,-25.6 4,-9.6 6.4,-20 6.4,-31.2 0,-11.2 -2.4,-21.6 -6.4,-31.2 -4,-9.6 -9.6,-18.4 -16.8,-25.6 -7.2,-7.2 -16,-12.8 -25.6,-16.8 -9.6,-4 -20,-6.4 -31.2,-6.4 -11.2,0 -21.6,2.4 -31.2,6.4 z m 56.8,116.8 -4,-4.8 h -4.8 c -4.275759,10.13412 -7.648819,20.81987 -10.4,30.4 -9.18171,0.96514 -19.80352,-0.10544 -26.4,-3.2 4,-18.4 8.8,-33.6 15.2,-48 6.4,-13.6 12.8,-25.6 20,-35.2 l -2.4,-4 -6.4,-1.6 c -9.0885,11.31771 -15.9811,23.61242 -22.4,35.2 -7.89738,15.71271 -13.19686,31.90251 -18.4,48 -7.2,-4 -12.8,-9.6 -18.4,-16 2.4,-11.2 5.6,-21.6 9.6,-32 4,-9.6 7.2,-18.4 12,-26.4 l -3.2,-5.6 -4,-0.8 c -4,6.4 -8,14.4 -12,22.4 -4,8 -8,16.8 -11.2,26.4 -1.6,-4 -3.2,-8.8 -4,-13.6 -0.8,-4.8 -1.6,-9.6 -1.6,-14.4 0,-9.6 1.6,-18.4 5.6,-26.4 3.2,-8 8.8,-15.2 14.4,-21.6 6.4,-6.4 13.6,-11.2 21.6,-14.4 8,-3.2 17.6,-5.6 27.2,-5.6 9.6,0 18.4,1.6 27.2,5.6 8,3.2 16,8.8 21.6,14.4 5.6,5.6 11.2,13.6 14.4,21.6 4,8 5.6,16.8 5.6,26.4 0,8 -1.6,15.2 -4,22.4 -2.4,7.2 -5.6,13.6 -10.4,19.2 -4.8,5.6 -9.6,10.4 -15.2,15.2 -5.6,4 -12.8,7.2 -19.2,9.6 -0.14985,-8.28329 2.009829,-15.44225 4,-23.2 z"
       id="path2"
       sodipodi:nodetypes="cccccccccccccccsscsscsssssssssssccccccccccccccccscssccsscscsssccc" />
  </g>
</svg>
