<?xml version="1.0" encoding="UTF-8" standalone="no"?>
<svg
   xmlns:dc="http://purl.org/dc/elements/1.1/"
   xmlns:cc="http://creativecommons.org/ns#"
   xmlns:rdf="http://www.w3.org/1999/02/22-rdf-syntax-ns#"
   xmlns:svg="http://www.w3.org/2000/svg"
   xmlns="http://www.w3.org/2000/svg"
   xmlns:sodipodi="http://sodipodi.sourceforge.net/DTD/sodipodi-0.dtd"
   xmlns:inkscape="http://www.inkscape.org/namespaces/inkscape"
   width="210mm"
   height="297mm"
   viewBox="0 0 210 297"
   version="1.1"
   id="svg6810"
   inkscape:version="1.0.2-2 (e86c870879, 2021-01-15)"
   sodipodi:docname="upgrade-support-team.svg">
  <defs
     id="defs6804" />
  <sodipodi:namedview
     id="base"
     pagecolor="#ffffff"
     bordercolor="#666666"
     borderopacity="1.0"
     inkscape:pageopacity="0.0"
     inkscape:pageshadow="2"
     inkscape:zoom="3.959798"
     inkscape:cx="644.88831"
     inkscape:cy="795.1139"
     inkscape:document-units="mm"
     inkscape:current-layer="layer1"
     inkscape:document-rotation="0"
     showgrid="false"
     inkscape:pagecheckerboard="true"
     showborder="false"
     inkscape:window-width="4096"
     inkscape:window-height="2066"
     inkscape:window-x="-11"
     inkscape:window-y="-11"
     inkscape:window-maximized="1" />
  <metadata
     id="metadata6807">
    <rdf:RDF>
      <cc:Work
         rdf:about="">
        <dc:format>image/svg+xml</dc:format>
        <dc:type
           rdf:resource="http://purl.org/dc/dcmitype/StillImage" />
        <dc:title />
      </cc:Work>
    </rdf:RDF>
  </metadata>
  <g
     inkscape:label="Layer 1"
     inkscape:groupmode="layer"
     id="layer1">
    <path
       d="m 127.99999,0 c 17.68354,0 34.28756,3.392771 49.81205,10.178313 15.5245,6.785542 29.04418,15.987148 40.55904,27.604819 11.51486,11.61767 20.66506,25.137348 27.45061,40.559034 C 252.60723,93.763855 256,110.31647 256,128.00001 c 0,17.68353 -3.39277,34.33895 -10.17831,49.96626 -6.78555,15.6273 -15.93575,29.14698 -27.45061,40.55903 -11.51486,11.41205 -25.03454,20.51084 -40.55904,27.29638 -15.52449,6.78554 -32.12851,10.17831 -49.81205,10.17831 -17.68353,0 -34.28754,-3.39277 -49.812039,-10.17831 C 62.663453,239.03614 49.092369,229.93735 37.474698,218.5253 25.857028,207.11325 16.706827,193.59357 10.024096,177.96626 3.3413653,162.33895 0,145.68353 0,128.00001 0,110.31647 3.3413653,93.763855 10.024096,78.342166 16.706827,62.92048 25.857028,49.400802 37.474698,37.783132 49.092369,26.165461 62.663453,16.963855 78.187951,10.178313 93.71245,3.392771 110.31646,0 127.99999,0 Z M 63.537348,150.82408 c -0.205623,2.26185 0.205622,4.5237 1.233735,6.78555 1.028112,2.05623 2.673092,4.31807 4.93494,6.78554 2.261847,2.46748 5.654618,4.83214 10.178313,7.09398 -4.11245,1.23374 -8.122089,2.26185 -12.028916,3.08433 -2.056225,0.41125 -4.009638,0.61687 -5.86024,0.61687 1.233735,1.23374 3.444176,2.10763 6.631324,2.62168 3.187149,0.51406 6.322892,0.8739 9.407229,1.07953 3.701205,0.20562 7.710844,0.30843 12.028916,0.30843 -1.850603,0 -4.369478,0.66827 -7.556627,2.00482 -3.187148,1.33654 -6.22008,2.93011 -9.098795,4.78072 -3.495582,1.8506 -7.093976,3.90683 -10.795181,6.16868 6.991165,-2.26185 14.547792,-3.75261 22.66988,-4.47228 8.122088,-0.71968 15.935744,-0.9253 23.440964,-0.61687 7.50522,0.30843 14.08514,0.9253 19.73976,1.8506 8.0349,1.2235 14.80506,3.945 22.05301,6.01446 1.64498,0.61687 3.67734,1.27032 4.31807,1.23373 -0.0703,-2.01932 -4.5885,-4.41126 -5.39759,-4.93493 -3.18715,-2.05623 -8.32771,-5.08916 -15.42168,-9.0988 -7.09398,-4.00963 -17.3237,-9.2016 -30.68916,-15.57591 -5.75743,-2.26184 -10.589559,-4.62649 -14.496387,-7.09396 -3.495581,-2.26185 -6.425701,-4.72932 -8.79036,-7.40241 -2.364659,-2.6731 -2.82731,-5.449 -1.387952,-8.32771 -2.46747,-0.41125 -4.729318,-0.51407 -6.785543,-0.30845 -1.644979,0.20563 -3.341365,0.87391 -5.089156,2.00483 -1.747791,1.13092 -2.827309,2.93011 -3.238554,5.39757 z M 78.033733,93.763856 c 3.495582,-0.411247 6.991164,-1.028115 10.486747,-1.850602 3.495583,-0.822495 6.682731,-1.644987 9.561445,-2.467474 3.289965,-0.822487 6.477115,-1.644979 9.561445,-2.467474 -1.02811,2.05623 -3.49558,4.31808 -7.40241,6.78555 -3.906827,2.46747 -8.122087,4.832125 -12.645781,7.093964 -5.346185,2.46747 -11.000803,5.24338 -16.963855,8.32771 9.664256,-2.05622 18.506023,-4.11244 26.5253,-6.16866 8.019276,-2.05623 14.702006,-3.906834 20.048196,-5.551809 6.57991,-1.850603 12.44015,-3.701205 17.58072,-5.551807 -5.34619,-2.878718 -9.51004,-6.888357 -12.49157,-12.028916 -2.98153,-5.140567 -5.29478,-10.28113 -6.93976,-15.421689 -1.8506,-5.963052 -3.18714,-12.234538 -4.00963,-18.814457 -1.64498,6.374297 -4.26667,12.44016 -7.86506,18.197589 -3.598397,5.757432 -7.351008,10.795184 -11.257835,15.113256 -4.318073,5.346179 -9.04739,10.281119 -14.187952,14.804819 z m -8.636144,-4.934948 c 2.878715,-1.233735 5.757429,-3.187147 8.636144,-5.860237 2.46747,-2.261849 5.140562,-5.397591 8.019277,-9.407226 2.878715,-4.009639 5.551807,-9.201607 8.019277,-15.575904 -3.289959,1.439357 -6.477108,3.495582 -9.561445,6.168675 -2.673092,2.261847 -5.39759,5.39759 -8.173494,9.407229 -2.775903,4.009635 -5.089156,9.098789 -6.939759,15.267463 z m 61.686751,-8.32771 c 2.05622,-2.87871 4.72931,-5.860234 8.01927,-8.944573 2.67309,-2.261847 5.96305,-4.780723 9.86988,-7.556627 3.90683,-2.775903 8.63614,-5.089156 14.18795,-6.939759 -3.49558,2.261848 -6.68273,4.780724 -9.56144,7.556627 -2.87872,2.775903 -5.34619,5.294777 -7.40241,7.556621 -2.26185,2.673097 -4.42089,5.449001 -6.47711,8.327711 -1.64498,2.878717 -2.36466,4.883538 -2.15903,6.014463 0.20562,1.130925 0.82249,1.799198 1.8506,2.004818 1.02811,0.411247 2.67309,0.205623 4.93494,-0.616872 9.04739,-4.523692 17.01526,-8.224897 23.90361,-11.103614 6.88835,-2.878709 12.69719,-5.243366 17.42651,-7.09397 5.55181,-2.056225 10.17831,-3.804017 13.87952,-5.243374 -0.20563,-1.439357 -1.90202,-2.827309 -5.08917,-4.163856 -3.18715,-1.336545 -6.68273,-2.467469 -10.48674,-3.39277 -3.80401,-0.925301 -7.351,-1.64498 -10.64097,-2.159037 -3.28995,-0.514056 -5.14055,-0.771084 -5.5518,-0.771084 -1.64498,-0.822489 -3.85542,-3.084336 -6.63133,-6.785541 -2.7759,-3.701205 -5.5004,-10.383936 -8.17349,-20.048193 -2.26185,-0.411245 -5.24337,-0.102811 -8.94457,0.925301 -2.87872,0.616867 -6.68274,1.953413 -11.41206,4.009638 -4.72931,2.056225 -10.28112,5.346185 -16.65542,9.86988 0.61687,4.934939 1.54217,9.767068 2.7759,14.496386 1.02811,4.112449 2.57028,8.43052 4.62651,12.954215 2.05623,4.523697 4.62651,8.2249 7.71085,11.10361 z m 32.0771,151.749402 c -0.61687,2.6731 -1.43935,5.14057 -2.46746,7.40241 3.6847,-0.78699 7.01829,-2.26899 10.17831,-3.70121 -2.69055,-1.21625 -5.76067,-2.77641 -7.71085,-3.7012 z m 0.30844,-1.8506 c 2.77347,1.61102 4.91702,2.75439 7.09397,4.31806 -1.43935,-2.46747 -3.49558,-5.86024 -6.16867,-10.17831 -0.20672,2.04939 -0.48859,4.11143 -0.9253,5.86025 z m -25.6,13.26265 c 5.5639,-0.4519 10.8503,-1.29638 16.03855,-2.15904 2.05623,-2.87871 3.49558,-6.57991 4.31807,-11.10361 -6.57179,-1.81417 -13.16503,-4.26501 -18.79083,-5.74212 -1.45076,4.35699 -3.59946,7.96508 -5.57543,11.91079 1.64497,2.67309 2.98152,5.03775 4.00964,7.09398 z m -21.8988,-41.63855 c -0.37098,2.26184 -0.92397,4.85159 -1.54084,7.6275 -0.61687,2.7759 -1.46298,5.43785 -2.16036,8.41105 8.21987,-0.6898 15.88033,-0.51725 23.34074,1.32615 1.23373,-4.72932 1.95083,-10.4764 1.95083,-16.43945 -7.65746,-1.04418 -13.84527,-0.92525 -21.59037,-0.92525 z m 0.60792,-2.79261 c 7.09288,0.22056 14.87179,1.08195 20.95858,2.50922 -6.59956,-2.77653 -13.85493,-4.29615 -20.37512,-5.6771 -0.18574,0.94778 -0.3329,1.9759 -0.58346,3.16788 z m -1.84165,21.29862 c 6.10462,2.88483 11.18466,7.04244 15.42169,11.72048 1.4667,-3.02086 3.20226,-5.91695 4.11594,-8.91962 -6.81529,-0.73817 -13.41525,-2.21863 -19.53763,-2.80086 z m 44.15327,7.4746 c 0.79188,-3.52341 0.56961,-6.52627 0.56961,-10.2505 -3.79005,-4.92868 -8.82325,-10.78658 -13.26264,-13.26266 -1.12058,-0.60127 -2.36499,-0.9253 -3.70121,-0.9253 -0.14224,5.92581 -0.67815,11.46129 -2.15903,16.96386 6.40397,1.95803 12.70826,4.89701 18.55327,7.4746 z m -47.03549,-29.06497 c 0.21289,-1.34575 0.34942,-2.38523 0.65099,-3.7012 -8.2577,-1.25178 -16.562326,-2.21522 -24.294074,-1.8506 -0.584139,2.23984 -1.259637,4.74527 -1.695722,7.02045 8.673427,-1.65772 16.390776,-1.6197 25.338806,-1.46865 z m -0.68906,3.10797 c -8.96024,0.26349 -18.20107,1.63977 -25.611809,3.41639 -0.545442,2.19277 -0.676619,3.9825 -1.043419,5.813 8.360479,0.78608 17.686218,3.6713 23.132528,5.86024 0.82249,-2.46747 1.49077,-5.03775 2.00482,-7.71084 0.51406,-2.6731 1.10664,-5.11695 1.51788,-7.37879 z m -28.197397,-7.73447 c -7.328422,1.46605 -14.763711,2.91063 -21.281928,5.55181 -1.159171,4.66029 -2.649298,9.35543 -3.484048,13.26921 5.945449,-6.63061 15.485769,-10.28983 23.269726,-12.02365 0.529298,-2.32697 1.05932,-4.63338 1.49625,-6.79737 z m -2.775904,12.33736 c -5.840611,1.06177 -14.712838,3.61804 -18.328838,6.83564 6.177908,-1.80636 10.856602,-2.1984 17.095104,-2.20914 0.475391,-1.70124 0.887333,-3.23422 1.233734,-4.6265 z m 50.891571,37.6289 c -1.43936,-2.26184 -4.06105,-5.50039 -7.86507,-9.71565 -3.80401,-4.21527 -8.68755,-7.96788 -14.6506,-11.25783 -5.96305,-3.28997 -13.159837,-5.449 -21.590359,-6.47711 -8.430521,-1.02811 -18.094778,0.30843 -28.99277,4.00963 1.028113,1.02812 2.261847,1.85061 3.701204,2.46748 9.253012,-2.6731 17.529317,-3.5984 24.828915,-2.77591 7.299599,0.82249 13.62249,2.57028 18.96867,5.24337 5.34619,2.6731 9.76707,5.80884 13.26265,9.40723 3.49559,3.59839 6.06587,6.63132 7.71085,9.09879 h 1.54216 z M 52.1253,216.21204 c 0.773457,-4.6707 1.977541,-8.84072 3.084337,-13.26265 -3.495582,1.8506 -6.68273,4.31807 -9.561445,7.40241 2.11376,2.11828 4.382167,4.11222 6.477108,5.86024 z m 124.2988,17.58072 c 9.86988,-4.72931 18.96867,-10.64096 27.29638,-17.73493 8.32771,-7.09398 15.47309,-15.21607 21.43614,-24.36627 5.96305,-9.15019 10.58956,-19.12288 13.87952,-29.91807 3.28996,-10.79517 4.93494,-22.053 4.93494,-33.77348 0,-16.03856 -3.03293,-31.049006 -9.09879,-45.031339 C 228.80642,68.986343 220.47871,56.751806 209.88916,46.26506 199.2996,35.778313 187.01365,27.450602 173.03132,21.281927 c -13.98233,-6.168675 -28.99277,-9.253012 -45.03133,-9.253012 -16.24417,0 -31.408829,3.084337 -45.493968,9.253012 C 68.420882,27.450602 56.134939,35.778313 45.648192,46.26506 35.161445,56.751806 26.833734,68.986343 20.66506,82.968671 c -6.168675,13.982333 -9.253012,28.992779 -9.253012,45.031339 0,15.21605 2.724498,29.45541 8.173494,42.71807 5.448996,13.26265 12.902811,25.13734 22.361445,35.62409 -0.0092,-1.66366 -0.910361,-2.73745 -0.925301,-4.31807 0.205623,-2.87872 0.873896,-5.34619 2.004819,-7.40241 1.130923,-2.05623 2.313253,-3.80402 3.546988,-5.24338 1.439358,-1.64498 2.981527,-3.18715 4.626506,-4.6265 1.028113,-0.41125 1.799197,-0.9253 2.313253,-1.54217 0.514056,-0.61687 0.873895,-1.28515 1.079518,-2.00482 0.205623,-0.71968 0.462651,-1.49076 0.771084,-2.31325 0.308434,-0.82249 0.873896,-1.64498 1.696385,-2.46747 -1.644979,-8.43053 -2.159035,-15.26747 -1.542168,-20.51084 0.616868,-5.24338 1.902008,-9.30442 3.855421,-12.18313 1.953414,-2.87872 4.369479,-4.72932 7.248194,-5.55181 2.878714,-0.82249 5.757429,-1.13093 8.636144,-0.9253 -0.0018,-0.57957 -0.0055,-1.00488 -0.308434,-1.54217 -3.28996,-4.93494 -5.860241,-9.92129 -7.710844,-14.95904 -1.850602,-5.03775 -3.289959,-10.0241 -4.318071,-14.95904 -0.616867,-2.26185 -1.387952,-5.34618 -2.313253,-9.25301 -0.925301,-3.906833 -1.64498,-8.07069 -2.159037,-12.491572 -0.514056,-4.420883 -0.565461,-8.738954 -0.154216,-12.954214 0.411245,-4.215261 1.542168,-7.659438 3.39277,-10.33253 0,-0.205622 2.261848,-1.593574 6.785543,-4.163855 4.523695,-2.570281 10.126907,-5.551807 16.809638,-8.944578 6.68273,-3.392771 14.033735,-6.939758 22.053014,-10.640963 8.01927,-3.701205 15.47309,-6.734137 22.36144,-9.098795 6.88835,-2.364659 12.8514,-3.701206 17.88915,-4.009639 5.03776,-0.308434 7.96788,1.28514 8.79037,4.780723 1.23373,2.878714 2.57028,5.551806 4.00964,8.019276 1.02811,2.261848 2.21044,4.523696 3.54699,6.785543 1.33654,2.261847 2.72449,4.112449 4.16386,5.551807 4.93494,1.028112 9.35582,2.159035 13.26264,3.39277 3.49559,1.028113 6.99117,2.261848 10.48675,3.701205 3.49558,1.439358 6.3743,2.673093 8.63615,3.701205 3.28995,1.850602 4.42087,3.75261 3.39276,5.706024 -1.02811,1.953413 -3.08433,3.804016 -6.16867,5.551807 -3.08433,1.747791 -6.68273,3.444177 -10.79518,5.089159 -4.11245,1.644975 -7.50522,3.187143 -10.17831,4.626506 v 0.61686 c 0.61687,0.411247 1.13092,1.028115 1.54217,1.850602 0.20562,0.411248 0.30843,0.719682 0.30843,0.925302 -0.41125,1.028115 -0.56547,2.159039 -0.46266,3.392774 0.10282,1.233735 0.25704,2.36466 0.46266,3.392775 1.64498,2.67309 3.54699,5.34618 5.70602,8.01927 2.15904,2.673098 4.67792,5.037758 7.55663,7.093978 1.23373,1.23373 1.8506,2.46747 1.8506,3.70121 0,1.02811 -0.56546,2.05622 -1.69639,3.08433 -1.13091,1.02811 -3.54697,1.95341 -7.24818,2.7759 v 0.61687 l -1.54217,0.9253 c -0.82249,1.02812 -1.33655,2.36467 -1.54218,4.00965 -0.20562,1.23373 -0.15421,2.72449 0.15422,4.47228 0.30843,1.7478 1.28514,3.64981 2.93013,5.70602 0,0.20563 -0.10281,0.51406 -0.30844,0.9253 -0.20562,0.41125 -1.33654,1.74779 -3.39277,4.00964 2.05623,0.61687 2.82731,1.7992 2.31325,3.54699 -0.51406,1.74779 -1.59358,3.13574 -3.23855,4.16385 l -0.61687,3.39278 c -0.41125,2.26184 -0.10281,4.00963 0.9253,5.24336 1.23373,3.08434 1.54217,5.86025 0.9253,8.32772 -0.41125,2.05623 -1.7992,3.85542 -4.16386,5.39759 -2.36465,1.54217 -6.63132,2.31326 -12.79999,2.31326 h -2.15904 -2.93012 l -3.85542,-0.30844 c -1.02811,2.26185 -1.74779,4.72931 -2.15903,7.4024 -0.41125,2.6731 -0.82249,5.03776 -1.23374,7.09398 3.08433,4.72932 5.70602,8.84177 7.86506,12.33735 2.15903,3.49559 2.93012,5.65462 2.31325,6.47711 3.28997,2.87871 5.34619,5.5004 6.16868,7.86506 0.82249,2.36466 1.13092,4.36948 0.9253,6.01446 -0.41125,2.05623 -1.23374,3.80402 -2.46748,5.24337 1.85061,1.64499 3.5984,3.64981 5.24338,6.01446 1.64499,2.36465 3.08435,4.67791 4.31808,6.93976 z"
       id="path64"
       style="display:inline;stroke-width:0.308433"
       inkscape:label="Support Team"
       sodipodi:nodetypes="sssssssssssssssssccscccsccsccssccccsccsccsccsccsccsccsccsccccsccscccscsccsccsccssscsccsccsccccccccccccccccscccccccccccccccccccccccccccccccccccccccssccsssccccccccssssssssssssscccccssscsssccccssscsssssccsccscsssccscscscssccccscscscsccsscccscscsccscs" />
  </g>
</svg>
