<?xml version="1.0" encoding="UTF-8" standalone="no"?>
<svg
   xmlns:dc="http://purl.org/dc/elements/1.1/"
   xmlns:cc="http://creativecommons.org/ns#"
   xmlns:rdf="http://www.w3.org/1999/02/22-rdf-syntax-ns#"
   xmlns:svg="http://www.w3.org/2000/svg"
   xmlns="http://www.w3.org/2000/svg"
   xmlns:sodipodi="http://sodipodi.sourceforge.net/DTD/sodipodi-0.dtd"
   xmlns:inkscape="http://www.inkscape.org/namespaces/inkscape"
   width="210mm"
   height="297mm"
   viewBox="0 0 210 297"
   version="1.1"
   id="svg9755"
   inkscape:version="1.0.2-2 (e86c870879, 2021-01-15)"
   sodipodi:docname="upgrade-ion-cannons.svg">
  <defs
     id="defs9749" />
  <sodipodi:namedview
     id="base"
     pagecolor="#ffffff"
     bordercolor="#666666"
     borderopacity="1.0"
     inkscape:pageopacity="0.0"
     inkscape:pageshadow="2"
     inkscape:zoom="0.35"
     inkscape:cx="400"
     inkscape:cy="560"
     inkscape:document-units="mm"
     inkscape:current-layer="layer1"
     inkscape:document-rotation="0"
     showgrid="false"
     inkscape:pagecheckerboard="true"
     showborder="false"
     inkscape:window-width="1267"
     inkscape:window-height="1198"
     inkscape:window-x="26"
     inkscape:window-y="26"
     inkscape:window-maximized="0" />
  <metadata
     id="metadata9752">
    <rdf:RDF>
      <cc:Work
         rdf:about="">
        <dc:format>image/svg+xml</dc:format>
        <dc:type
           rdf:resource="http://purl.org/dc/dcmitype/StillImage" />
        <dc:title></dc:title>
      </cc:Work>
    </rdf:RDF>
  </metadata>
  <g
     inkscape:label="Layer 1"
     inkscape:groupmode="layer"
     id="layer1">
    <path
       d="m 127.8456,0 q 26.5573,0 49.87214,10.190591 23.31483,10.190591 40.60796,27.638118 17.29312,17.447527 27.48371,40.607962 Q 256,101.59711 256,128.1544 q 0,26.5573 -10.19059,50.02654 -10.19059,23.46924 -27.48371,40.60796 -17.29313,17.13872 -40.60796,27.32931 -23.31484,10.19059 -49.87214,10.19059 -26.55731,0 -49.872142,-10.19059 Q 54.658625,235.92762 37.365501,218.7889 20.072376,201.65018 10.036188,178.18094 0,154.7117 0,128.1544 0,101.59711 10.036188,78.436671 20.072376,55.276236 37.365501,37.828709 54.658625,20.381182 77.973458,10.190591 101.28829,0 127.8456,0 Z m -13.27865,112.0965 h 0.3088 l 0.61762,-0.3088 q 0.6176,-1.23523 -0.61762,-2.47045 l -23.778048,-8.64656 q -0.926417,0 -1.235219,0.61761 l 0.926417,0.92642 z m -3.39687,1.85284 q 0,-0.92642 -0.3088,-0.92642 l -20.998797,-9.57298 q -0.926418,0 -0.926418,0.61761 -0.617615,0 -0.308802,0.1544 0.308802,0.15441 0.308802,0.77202 l 20.998795,10.4994 0.30881,0.3088 q 0,-0.3088 0.3088,-0.61761 0.61761,-0.61761 0.61761,-1.23522 z m 0.61762,1.85283 8.95536,4.63209 1.85284,0.92642 2.77925,1.23522 q 0.61761,-0.30881 1.23523,-1.54402 1.23522,-2.16165 2.16164,-5.55851 0.61761,-2.77926 0.3088,-4.01448 -0.3088,-1.23522 -0.92642,-1.54403 l -1.23522,-0.61761 -12.96985,-4.32328 v 2.47045 q 0.92642,0.3088 2.16164,0.92641 2.16165,1.23523 2.47046,3.39687 -0.61762,1.85283 -3.39688,1.85283 -1.23522,0 -2.16163,-0.61761 z m 60.21713,-16.984316 q -4.9409,15.749096 1.54402,30.262966 0,0.61761 -1.08082,3.24247 -1.08081,2.62485 -2.93365,5.7129 -1.54403,3.39687 -3.70567,8.02895 l -0.61761,6.79373 2.47045,-4.32329 q 1.23522,-1.85283 2.62485,-4.01447 1.38962,-2.16163 2.31604,-4.01447 1.54403,-2.77925 2.77925,-5.2497 1.23523,-2.47045 2.16165,-5.55851 5.24969,-14.51387 6.1761,-28.41013 v -0.61761 q -0.92641,0 -1.54402,-0.30881 -2.16165,-0.617609 -4.47768,-1.235221 -2.31605,-0.617612 -5.0953,-1.235223 0,0.617611 -0.30881,0.617611 -0.3088,0 -0.3088,0.308807 z m 22.23402,-25.939687 q 0.3088,0.308805 0.3088,1.235223 0,0.926417 -0.3088,1.544029 -8.95537,4.014475 -15.7491,11.425814 0.61761,0.926417 0.77202,2.161641 0.1544,1.235223 0.772,2.779251 v 1.235224 l 0.30882,2.470446 q 4.63208,1.544029 8.33775,2.470447 3.70567,0.926417 5.55851,1.544029 -0.61762,4.014479 -1.23523,9.418579 -0.61761,5.4041 -0.61761,5.7129 l -0.61761,0.92642 1.54403,0.61761 5.86731,3.08806 0.92642,-2.77925 v -0.92642 q 4.32328,-20.381181 0.92641,-33.351024 -1.23522,-5.558504 -4.94089,-9.572979 h -0.92641 z M 214.31122,175.7105 q 1.54403,-2.16165 2.77925,-4.63209 1.23523,-1.85284 2.31605,-3.70568 1.08082,-1.85283 2.31604,-3.39685 0.61761,-1.85284 1.69843,-3.55127 1.08082,-1.69844 1.69843,-3.86007 1.85284,-3.39687 2.93366,-6.79373 1.08082,-3.39686 2.31605,-6.79373 v -0.6176 q -0.61762,0 -1.54404,-0.92642 -4.32328,-3.08807 -9.57297,-5.86732 -5.2497,-2.77925 -10.80821,-5.86731 -0.61761,2.16164 -2.00723,7.10254 -1.38964,4.94089 -3.55127,9.57298 -1.54404,3.39686 -3.08806,6.48492 -1.54403,3.08805 -2.47045,4.63209 3.70567,2.47043 7.87456,4.78648 4.16887,2.31604 9.41857,3.86007 0,0.30882 -1.08082,2.47045 -1.08083,2.16164 -2.31605,4.94089 -1.23522,3.08806 -3.39686,6.48492 l 0.61761,3.70567 q 1.54403,-2.47045 3.08806,-4.32328 1.23523,-1.54402 2.00724,-2.77925 0.77201,-1.23522 0.77201,-0.92641 z m -23.46924,-22.85163 q 0.3088,0.3088 -0.61761,2.16164 -0.92642,1.85283 -2.47044,4.63208 l -4.01449,6.17612 0.61762,4.01447 3.70567,-4.01447 q 1.85283,-2.16165 3.08805,-4.32328 2.77926,-4.32329 4.9409,-8.64656 0,-0.30882 0.1544,-0.30882 0.15441,0 0.15441,-0.6176 3.39686,-5.86732 5.5585,-12.04342 2.16164,-6.17612 3.70567,-11.73463 v -0.3088 q -0.61762,0 -1.08082,-0.30881 -0.46321,-0.30881 -0.77202,-0.30881 -2.47045,-1.54402 -5.4041,-2.47044 -2.93365,-0.92641 -5.7129,-2.47045 l -5.86731,-1.54403 0.92642,-4.32328 q 0.3088,-2.16164 0.6176,-4.63208 0.30881,-2.16164 0.61762,-4.63209 0.3088,-2.47045 0.61761,-4.63209 -0.61761,0 -1.08082,-0.1544 -0.46321,-0.1544 -0.77201,-0.1544 -0.61762,2.47044 -1.38963,7.56574 -0.77202,5.09529 -2.62486,11.58022 -1.23522,4.32328 -2.93365,8.80096 -1.69843,4.47768 -3.24245,7.56575 5.24969,8.95536 13.27864,15.13148 z m 30.88058,-25.63089 q 4.32328,-17.91073 3.70567,-31.343782 -0.61761,-13.433052 -7.10253,-19.917974 -0.61761,0 -0.92642,-0.154402 -0.30881,-0.154403 -0.92641,-0.154403 -3.39687,-1.235223 -7.56574,-1.852835 -4.16889,-0.617612 -7.87456,-0.926417 -0.61761,0 -0.92641,0.308805 0.92641,1.54403 2.16163,4.168878 1.23523,2.62485 1.85284,6.948131 2.47045,12.661038 0,24.704459 l -2.16164,11.42582 q 1.54403,0.61762 2.47045,1.08082 l 2.16164,1.08082 q 3.70567,1.85283 7.25693,3.86007 3.55127,2.00724 6.94813,4.16888 l 0.92642,-1.85283 z m -88.00965,-10.8082 q 0,1.85284 0.92641,1.85284 l 2.77925,1.54402 5.86732,2.47045 h 0.92642 q 1.54402,0 1.85283,-0.92641 0.61761,-1.54404 -0.92641,-2.77925 l -6.48492,-2.16165 -2.77926,-0.92641 q -1.54403,-0.92642 -2.16164,0.92641 z m 12.66104,-0.92641 q 0.92641,-1.23523 -0.92642,-2.47045 l -4.32329,-1.23522 -6.1761,-2.47045 q -1.85284,-0.61761 -1.85284,0.92642 -0.61761,1.54403 0.92642,2.47044 l 5.5585,1.85284 4.63209,1.85283 h 0.92642 q 1.23522,0 1.23522,-0.92641 z m -4.01447,-13.89626 -5.86732,-2.779256 -1.54402,-0.926418 -2.16165,-0.926417 -5.55851,7.102531 2.47045,0.92642 1.23522,0.30881 8.64657,3.08805 z m 92.95054,69.17249 q 3.70567,-8.95537 5.8673,-19.76357 -1.54402,-1.54403 -3.70567,-3.08805 -2.16163,-1.54403 -4.32327,-3.70567 -0.61762,2.16164 -1.85284,5.55849 -1.23523,3.39687 -3.39686,7.41134 -1.54404,3.08807 -3.08806,6.33052 -1.54403,3.24247 -2.77925,5.0953 5.86731,1.54403 13.27865,2.16164 z m 8.33775,-42.6152 q 0,-12.04342 -2.47045,-23.31483 -2.47044,-11.271415 -7.10252,-22.079617 -2.77926,-1.54403 -5.40411,-2.933656 -2.62485,-1.389626 -6.02172,-2.316043 0.92642,1.544029 2.31605,4.323281 1.38962,2.779252 2.00724,6.484922 1.23522,7.411338 1.38963,12.815443 0.1544,5.4041 -0.77202,11.88902 -0.61761,6.17612 -2.16164,12.19783 -1.54402,6.02171 -2.47044,6.94812 4.63208,2.77925 8.95536,5.55852 4.32328,2.77924 8.33775,6.17611 l 0.61762,-2.47045 q 0,-0.30881 0.1544,-0.61761 0.1544,-0.30881 0.1544,-0.61761 0.61762,-2.16164 1.23523,-4.47769 0.61761,-2.31604 1.23522,-4.78649 z m -48.4825,-57.129068 q 20.99878,0 37.98311,9.572979 Q 226.04584,65.775633 215.39205,53.269 204.73824,40.762365 190.99638,31.652593 q -13.74186,-9.10977 -29.64535,-14.205066 -15.9035,-5.095296 -33.50543,-5.095296 -24.08686,0 -45.240055,9.264174 -21.153193,9.264174 -36.747886,24.858866 -15.594692,15.594693 -24.704462,36.74789 -9.109772,21.153199 -9.109772,44.931239 0,18.21955 5.404102,35.04946 5.404101,16.82991 15.285887,30.88058 9.881785,14.05066 23.160433,24.85886 13.278651,10.80821 29.336549,16.98432 v -45.08564 q 3.396867,-2.47045 8.646558,-5.2497 4.323285,-2.47045 10.345006,-5.55851 6.02171,-3.08805 13.43305,-6.48492 -1.54404,-4.94089 -2.31604,-10.65379 -0.77202,-5.71291 -0.77202,-11.27142 v -4.32328 l -13.89626,-7.10253 -0.926418,-7.41134 6.484918,-3.70567 v -5.55851 q -5.2497,-3.08805 -11.271406,-6.63932 -6.021719,-3.55126 -12.197827,-6.94813 -1.544033,0.61761 -3.088065,0 L 49.408926,93.87696 q -1.544029,-1.235223 -0.926418,-3.705669 v -0.308806 q -7.411339,-4.014475 -8.337756,-5.249698 -0.926418,-0.308806 -1.235223,-1.698432 -0.308805,-1.389626 0.308805,-2.624849 0.617612,-1.235223 1.54403,-2.007238 0.926417,-0.772014 2.16164,-0.463209 0.617612,0 2.779252,1.080821 2.161641,1.08082 6.793728,2.624849 1.235223,-2.161641 2.779252,-1.544029 l 2.470446,0.926418 v -0.308807 l 0.308807,-1.852834 q 1.235222,-2.161641 3.396863,-1.235223 l 21.307605,6.793727 q 2.161637,0.617612 1.544021,2.779252 l -0.926417,1.235224 4.940889,1.852834 q 1.235231,0 1.852835,0.926417 0.617615,0.926417 0.617615,2.161641 v 0.308806 q 0,0.308805 -0.617615,0.308805 5.867318,1.852835 11.271425,3.551267 5.40409,1.698432 9.41857,3.242463 4.63209,1.54403 8.95536,2.77925 l 4.32329,-3.705669 -2.77925,-1.852835 2.16163,-2.779252 3.70567,1.544028 2.77926,-2.779252 6.48492,2.161641 q 11.11701,-11.425814 26.0941,-18.219542 14.97708,-6.793727 32.57901,-6.793727 z M 83.377561,91.71532 q 0.617616,0.617612 1.080818,2.933655 0.463215,2.316044 -0.772004,5.095296 -0.308814,0.617609 -0.617616,1.080819 -0.308802,0.46321 -0.308802,0.77202 l 3.396856,1.54402 q 0.308802,-0.61761 0.617616,-1.08082 0.308802,-0.4632 0.308802,-0.77201 1.544032,-3.396864 1.080818,-5.867311 -0.463203,-2.470446 -1.698434,-4.323281 0,-0.308805 -1.38962,-0.617611 -1.38962,-0.308806 -1.698434,-0.308806 z M 75.65742,88.936068 q 1.852835,1.852835 0,7.720144 -0.617615,0.308807 -0.617615,0.772015 0,0.463209 -0.308802,0.463209 l 3.088054,1.852835 q 0.926417,-1.235224 1.235231,-1.852835 1.235219,-2.779252 0.926417,-5.404102 -0.308813,-2.624849 -1.235231,-3.551266 0,-0.617611 -1.38962,-1.08082 -1.389632,-0.463208 -1.698434,0.154402 -0.617615,0.308807 -0.617615,0.617612 0,0.308806 0.617615,0.308806 z m -7.102537,-2.470446 q 1.235231,2.16164 0,7.411338 -0.308802,0.308807 -0.308802,0.617612 0,0.308805 -0.617615,0.617612 l 3.396867,1.544028 q 0.308802,-0.617611 0.308802,-0.926417 0,-0.308806 0.617616,-0.926418 1.852834,-5.558503 -0.617616,-8.337755 -0.308802,-0.308806 -0.617604,-0.308806 -0.617615,0 -0.926417,-0.308806 -0.617616,-0.308805 -1.235231,-0.308805 -0.617604,0.926417 0,0.926417 z m -6.793725,-1.852835 q 0.617611,0.617611 0.617611,2.316044 0,1.698431 -0.617611,3.860072 -0.308806,0.308805 -0.308806,0.617611 0,0.308806 -0.617611,0.617611 l 3.396863,1.852835 q 0,-0.308805 0.926417,-2.16164 1.544027,-5.558504 -0.617611,-7.411339 -0.926417,0 -1.544029,-0.308806 -0.308805,0 -0.463209,-0.154403 -0.154403,-0.154402 -0.463208,-0.154402 h -0.308806 q -0.926417,0 0,0.926417 z m -5.867311,-2.161641 q 0.308807,0.617612 0.463209,2.161641 0.154403,1.544029 -0.463209,3.396863 -0.926417,0.617612 -0.926417,1.235224 l 2.779252,1.544029 q 0.308807,-0.617612 0.617612,-0.772015 0.308805,-0.154403 0.308805,-0.772014 1.852835,-4.323281 0,-6.793728 -0.926417,0 -1.544028,-0.308805 l -1.235224,-0.617612 q -0.617611,0.308806 -0.617611,0.617612 0,0.308805 0.617611,0.308805 z"
       id="path54"
       style="display:inline;stroke-width:0.308805"
       inkscape:label="Ion Cannons" />
  </g>
</svg>
