<?xml version="1.0" encoding="UTF-8" standalone="no"?>
<svg
   xmlns:dc="http://purl.org/dc/elements/1.1/"
   xmlns:cc="http://creativecommons.org/ns#"
   xmlns:rdf="http://www.w3.org/1999/02/22-rdf-syntax-ns#"
   xmlns:svg="http://www.w3.org/2000/svg"
   xmlns="http://www.w3.org/2000/svg"
   xmlns:sodipodi="http://sodipodi.sourceforge.net/DTD/sodipodi-0.dtd"
   xmlns:inkscape="http://www.inkscape.org/namespaces/inkscape"
   width="210mm"
   height="297mm"
   viewBox="0 0 210 297"
   version="1.1"
   id="svg10344"
   inkscape:version="1.0.2-2 (e86c870879, 2021-01-15)"
   sodipodi:docname="upgrade-turbolasers.svg">
  <defs
     id="defs10338" />
  <sodipodi:namedview
     id="base"
     pagecolor="#ffffff"
     bordercolor="#666666"
     borderopacity="1.0"
     inkscape:pageopacity="0.0"
     inkscape:pageshadow="2"
     inkscape:zoom="0.98994949"
     inkscape:cx="278.29575"
     inkscape:cy="311.91889"
     inkscape:document-units="mm"
     inkscape:current-layer="layer1"
     inkscape:document-rotation="0"
     showgrid="false"
     inkscape:pagecheckerboard="true"
     showborder="false"
     inkscape:window-width="2046"
     inkscape:window-height="2054"
     inkscape:window-x="-10"
     inkscape:window-y="0"
     inkscape:window-maximized="0"
     inkscape:lockguides="true"
     showguides="true"
     inkscape:guide-bbox="true"
     inkscape:snap-center="true" />
  <metadata
     id="metadata10341">
    <rdf:RDF>
      <cc:Work
         rdf:about="">
        <dc:format>image/svg+xml</dc:format>
        <dc:type
           rdf:resource="http://purl.org/dc/dcmitype/StillImage" />
        <dc:title />
      </cc:Work>
    </rdf:RDF>
  </metadata>
  <g
     inkscape:label="Layer 1"
     inkscape:groupmode="layer"
     id="layer1">
    <path
       id="path52"
       style="display:inline;stroke-width:1.16573"
       inkscape:label="Turbolasers"
       d="M 483.7793,0 C 416.94387,0 354.18894,12.629146 295.51367,37.886719 236.8384,63.144289 185.73948,97.727419 142.21875,141.63672 98.698023,185.54603 64.114893,236.643 38.46875,294.92969 12.822604,353.21639 0,415.77789 0,482.61328 c 0,66.83543 12.822604,129.78576 38.46875,188.84961 25.646143,59.06385 60.229273,110.35622 103.75,153.87695 43.52073,43.5207 94.61965,77.91041 153.29492,103.16797 58.67527,25.25756 121.4302,37.88477 188.26563,37.88477 66.83535,0 129.59035,-12.62721 188.26562,-37.88477 58.67532,-25.25756 109.77423,-59.64727 153.29492,-103.16797 43.52077,-43.52073 78.10387,-94.8131 103.75,-153.87695 25.64614,-59.06385 38.46875,-122.01418 38.46875,-188.84961 0,-66.83539 -12.82261,-129.39689 -38.46875,-187.68359 C 903.44367,236.643 868.86057,185.54603 825.33984,141.63672 781.81915,97.727419 730.72024,63.144289 672.04492,37.886719 613.36965,12.629146 550.61465,0 483.7793,0 Z m 0,46.628906 c 60.61814,0 117.35066,11.462568 170.19726,34.388672 52.8466,22.926102 99.0877,54.013402 138.72266,93.259762 39.63496,39.24638 70.91567,85.48748 93.8418,138.72266 22.92604,53.23518 34.38867,109.77229 34.38867,169.61328 0,51.29231 -8.16021,99.86463 -24.48047,145.7168 -16.32027,45.85221 -39.05194,87.23548 -68.19531,124.15039 -29.14334,36.91491 -63.72643,68.77994 -103.75,95.5918 -40.0235,26.81189 -83.35112,46.04577 -129.98047,57.70312 l -34.97071,-243.63867 15.1543,-15.1543 -20.98437,-135.22461 c 14.91642,-1.23779 17.96709,-1.83505 30.31054,-3.49804 v -3.4961 c 8.54299,-2.73827 17.13411,-5.32745 25.64649,-8.16015 l -2.33203,-6.9961 17.48632,-11.65625 v -33.80664 l 43.13086,-12.82226 5.83008,-13.99024 50.125,-12.82226 3.49805,-4.66211 44.29687,-13.99024 2.33204,-4.66211 1.16601,-2.33203 5.82813,3.49805 25.64648,-4.66406 1.16602,-5.82813 6.99414,-1.16602 h 34.97265 3.4961 c 0.77718,-1.55431 2.33258,-3.69206 4.66406,-6.4121 2.33148,-2.72005 4.27383,-5.24471 5.82812,-7.57618 v -9.32617 c 4.37696,-4.22659 7.8613,-9.65881 6.99414,-15.15429 -1.0715,-6.79045 -5.28066,-12.22412 -13.98828,-15.1543 -2.36858,-6.15891 -8.94827,-9.71002 -15.15429,-10.49219 l -9.32618,-5.82812 -22.14843,17.48632 -53.625,13.98829 h -6.99414 l -34.97071,11.65624 -6.99609,-1.16406 -47.79492,11.65625 -2.33008,-3.49609 -8.16016,-1.16602 -4.66406,-3.49804 -27.97656,8.16015 c 2.58448,-2.35528 5.24809,-4.39457 8.16015,-6.99414 l 43.13086,-11.6582 5.83008,-8.16016 47.79492,-13.98828 36.13672,1.16602 c 1.55433,0 4.66326,-2.13776 9.32617,-6.41211 4.66292,-4.27436 7.38301,-10.68566 8.16016,-19.23438 v -4.66211 c 4.66295,-4.66293 6.60527,-9.32534 5.82813,-13.98828 v -6.99609 c -2.33148,-8.54872 -6.99385,-12.82227 -13.98829,-12.82227 h -3.49609 c -5.4401,-6.21724 -11.65791,-10.29734 -18.65234,-12.24023 -6.9944,-1.94289 -11.26993,-2.91406 -12.82422,-2.91406 h -1.16406 l -20.98438,20.98242 -52.45703,17.48633 -8.16016,-3.4961 -93.25976,29.14258 -4.66211,-6.99414 -17.48633,4.66211 -3.49805,-8.16016 -26.81054,11.65821 -15.1543,-6.99415 v -4.66406 l -6.99609,-1.16601 c 0.33216,-2.33817 -0.16263,-3.82191 -1.16407,-5.82813 -6.19335,-3.74454 -16.72376,-9.86941 -23.3164,-11.65625 -5.08706,1.58046 -6.2558,1.04558 -9.32422,0 L 388.18945,235.47852 313.7712,260.22684 313.58203,197.00977 273.94727,171.36328 130.5625,224.98633 C 170.9746,171.36257 221.87812,128.2304 283.27344,95.589844 344.66876,62.949296 411.50381,46.628906 483.7793,46.628906 Z m -220.32422,150.380864 -4.66211,103.75 -190.015626,50.12695 C 79.657526,315.91471 94.42443,283.66278 113.07617,254.13086 Z m 123.56836,50.125 h 1.16601 c 1.00142,11.84966 1.57442,23.11747 2.33203,34.97265 l -16.32031,-1.16601 -1.16601,61.78515 c -6.49119,2.01461 -9.67985,2.92304 -16.32032,4.66211 l 2.33204,-36.13867 -11.65821,-3.49609 -3.49805,2.33203 v 125.89844 h -5.82812 l -4.66211,-22.14844 5.01132,-3.24551 -0.34921,-6.08066 -4.66211,-1.16602 v -24.48047 l 4.66211,-3.49609 v -60.61914 l -15.1543,-17.48633 c -4.42966,3.42443 -4.61979,3.58488 -10.49218,6.99414 l 0.97349,-33.17634 c 25.28407,-8.97936 47.97922,-15.92711 73.63393,-23.94475 z m 350.88672,0 c 0.77718,1.55431 1.16601,2.72089 1.16601,3.49804 -0.77718,0.77716 -1.16601,1.94374 -1.16601,3.49805 v 6.99414 8.16016 c 0,1.55431 0.38883,3.10779 1.16601,4.66211 1.55429,0.77715 1.94121,1.55487 1.16406,2.33203 -0.77714,0.77715 -1.55289,1.16601 -2.33007,1.16601 l -2.33204,-2.33203 c -0.77718,-1.55431 -1.16601,-3.1078 -1.16601,-4.66211 v -9.32617 -8.16016 c 0,-1.55431 0.38883,-2.72089 1.16601,-3.49804 z m -9.32618,3.49804 c -0.77718,2.33147 -1.16601,5.82925 -1.16601,10.49219 -0.77715,5.44009 -0.38832,11.26908 1.16601,17.48633 0.77715,3.10862 1.94177,5.43983 3.4961,6.99414 l -18.65039,3.49609 -59.45313,20.98438 c -6.91116,-5.33136 -7.98842,-24.22978 -1.16601,-29.14453 l 4.66406,1.16601 57.12109,-18.65234 z m -305.42187,17.48633 v 5.82813 l 8.16016,-2.33204 v 27.97852 l -29.14454,-13.98828 v -3.49805 l 4.66407,-3.49609 2.33008,-6.9961 z m 11.65625,6.99414 h 3.49805 v 3.49805 h 5.82812 l 1.16602,2.33008 h 2.33203 v 3.49804 l -3.49805,3.4961 -5.82812,1.16601 v 6.99414 l -3.49805,1.16602 z m 207.5,6.99414 c -0.5235,8.13599 -3.75215,21.41873 0,29.14258 l -38.46875,12.82422 c -6.54369,-12.14384 -1.54942,-21.85536 -1.16602,-30.3086 z m -248.67959,3.91039 1.63952,1.63363 -0.0947,97.03997 -3.49609,1.16601 z m 3.87685,3.08375 3.4961,3.49805 v 89.76172 l -3.43297,1.76187 z m 197.00782,8.16016 c -1.1209,13.46934 -4.44105,16.75495 1.16601,27.97851 l -58.28711,18.65039 c -3.05939,-10.43726 -5.17064,-28.10177 0,-33.80468 l 11.65821,-3.49805 2.33203,3.49805 z m -74.60547,6.99414 1.16406,5.83008 -67.61133,20.98242 -2.33203,-5.82813 z m -6.99414,13.99023 1.16406,5.82813 -65.28125,19.8164 v -3.49609 -2.33203 z M 256.46094,324.07422 243.63867,571.20898 65.28125,603.84961 C 60.618315,589.86082 56.927074,575.67822 54.207031,561.30078 51.486985,546.92342 49.349234,532.35191 47.794922,517.58594 l 103.749998,-23.31446 4.66406,-40.80078 52.45704,-12.82422 10.49218,-106.08007 z m 130.5625,4.66211 c -0.0703,23.03354 -0.14327,44.65314 0,67.61328 -9.30306,3.94606 -18.49112,7.49683 -27.97656,10.49219 l -1.32618,-24.92383 c -0.30965,-7.93518 -0.0838,-8.64126 -0.375,-21.63867 l -0.37832,-8.28576 17.23379,5.88732 5.82813,-1.16602 0.0946,20.71457 -5.92271,1.43387 2.33008,3.49805 6.99609,-1.16602 v -20.98437 l 1.16407,-2.33008 0.44643,-28.89034 z m 127.06445,2.33203 2.33203,4.66211 c -27.20046,7.77156 -43.9097,12.62937 -50.12695,14.57226 -6.21725,1.94289 -9.71309,2.91407 -10.49024,2.91407 v -2.33008 -3.49805 c 19.6761,-5.18914 39.28467,-10.86215 58.28516,-16.32031 z m -305.42187,4.66211 -10.49219,95.5918 -41.96485,12.82226 9.32618,-94.42383 z m 537.40429,8.16015 c -1.43223,5.98319 -2.84547,15.12769 0,20.98438 l -38.4707,9.32617 c -1.07103,-5.41015 -1.80302,-18.83171 0.77484,-21.56473 l 8.11529,-0.11412 z m -224.98828,6.9961 2.33203,3.49609 -60.61718,17.48633 -2.33204,-3.49805 z M 150.37891,353.2168 137.55664,482.61328 47.794922,503.59766 C 43.832819,460.75387 51.8694,410.38147 61.783203,375.36719 Z m 549.81836,0.68554 c -2.28659,6.83741 -1.6707,15.71628 0.77594,22.35771 l -55.38532,16.59682 c -2.28755,-10.59168 -3.11998,-28.88462 8.38867,-31.47992 l 2.33203,3.49805 z m -55.54688,2.8125 c -8.81063,5.73046 -8.57755,30.63427 -6.49776,37.61524 l -14.48466,3.18554 -2.33203,-6.99414 -44.29688,12.82227 -0.63135,-2.14263 -13.35888,3.30865 c -1.55429,0 -2.33008,-0.38884 -2.33008,-1.16602 0,-1.55429 0.77579,-2.71891 2.33008,-3.49609 l 12.03306,-3.30865 -0.37486,-2.52143 52.45703,-15.1543 v -4.66211 l -62.06534,17.51397 c -2.21519,0.18685 -4.36067,0.79844 -4.37997,-1.19366 0,-1.55429 1.40079,-2.21687 2.95508,-3.7712 l 63.49023,-16.04716 v -2.33203 -1.16406 l -60.61718,15.1543 c -1.76727,0.20706 -2.32755,0.004 -3.49805,-1.16602 0,-2.33147 0.38887,-3.49804 1.16601,-3.49804 26.27439,-7.38392 54.92343,-14.38767 80.43555,-20.98243 z m -292.99023,3.84571 c 3.05108,4.6e-4 5.52405,2.47431 5.52343,5.52539 -4.6e-4,3.05032 -2.47311,5.52298 -5.52343,5.52344 -3.05108,6.2e-4 -5.52493,-2.47236 -5.52539,-5.52344 -6.2e-4,-3.05184 2.47355,-5.52601 5.52539,-5.52539 z m 0,13.79492 c 3.05108,4.6e-4 5.52405,2.47431 5.52343,5.52539 -4.6e-4,3.05032 -2.47311,5.52298 -5.52343,5.52344 -3.05108,6.2e-4 -5.52493,-2.47236 -5.52539,-5.52344 -6.2e-4,-3.05184 2.47355,-5.52601 5.52539,-5.52539 z m 355.91181,10.96334 c -0.62967,2.561 -0.57069,4.26254 -1.13646,7.53275 l -52.45899,13.99024 -1.16601,-2.33203 c 0,-2.33148 0.38887,-3.49805 1.16601,-3.49805 17.49041,-7.91555 36.01457,-11.5852 53.59545,-15.69291 z m -179.49385,2.87064 v 33.80664 l -8.16015,3.4961 -3.49805,-8.16016 h -9.32617 v -20.98242 z m -176.41796,1.00391 c 3.05032,4.6e-4 5.52297,2.47312 5.52343,5.52344 6.2e-4,3.05108 -2.47235,5.52493 -5.52343,5.52539 -3.05184,6.2e-4 -5.52601,-2.47355 -5.52539,-5.52539 4.6e-4,-3.05108 2.47431,-5.52406 5.52539,-5.52344 z m 285.99609,22.31055 1.16602,2.33203 c 0,2.33147 -0.38891,3.49609 -1.16602,3.49609 -3.88585,1.55433 -9.71483,3.10977 -17.48633,4.66406 -3.10862,0.77719 -6.60446,1.55294 -10.49023,2.33008 -2.33148,0 -3.49805,-0.77575 -3.49805,-2.33008 0,-0.77714 0.57827,-1.76579 1.35542,-1.76579 10.72879,-2.98354 19.86308,-5.44109 30.11919,-8.72639 z M 343.89062,607.34766 c 0.1616,29.56836 1.49368,60.11352 3.49805,87.42968 l -110.74414,6.99414 V 615.50781 Z M 219.1582,617.83984 v 212.16211 c -9.38167,-7.95523 -19.75497,-13.98737 -27.97851,-22.14843 l 2.33203,-79.26954 -41.9668,-60.61914 -61.783201,4.66407 C 86.653095,665.63447 83.54417,658.44547 80.435547,651.0625 77.326923,643.67953 74.60686,636.49053 72.275391,629.49609 Z m -71.10937,60.61719 36.13672,51.29297 -1.16602,68.77734 C 165.14495,782.20708 148.6311,764.33319 133.47656,744.9043 118.32202,725.47537 105.30401,704.49259 94.423828,681.95508 Z m 199.33984,29.14258 c 3.44703,65.13057 6.15899,136.25704 9.32617,194.67773 C 312.9445,888.02695 272.13367,867.52468 236.64453,843.99219 V 715.75977 Z"
       transform="scale(0.26458333)"
       sodipodi:nodetypes="ssssssssssssssssssssssssscccccccccccccccccccccccsccaccccccccccccccccccsccccscssccccccccccccccccccccsscccccccccccccccccccccccccccccscscsccscsscccsccccccccccccccccccccccccccccccccccccccccccccccccccccccccccccccccsccccccccccccccccccccccccsccccccccccccccccccccccccccccccccccccccscccccccccccccccccccccccccccccccccccccccccccccccscccccccccccccscccccscccccccc" />
  </g>
</svg>
