<?xml version="1.0" encoding="UTF-8" standalone="no"?>
<svg
   xmlns:dc="http://purl.org/dc/elements/1.1/"
   xmlns:cc="http://creativecommons.org/ns#"
   xmlns:rdf="http://www.w3.org/1999/02/22-rdf-syntax-ns#"
   xmlns:svg="http://www.w3.org/2000/svg"
   xmlns="http://www.w3.org/2000/svg"
   xmlns:sodipodi="http://sodipodi.sourceforge.net/DTD/sodipodi-0.dtd"
   xmlns:inkscape="http://www.inkscape.org/namespaces/inkscape"
   width="210mm"
   height="297mm"
   viewBox="0 0 210 297"
   version="1.1"
   id="svg5632"
   inkscape:version="1.0.2-2 (e86c870879, 2021-01-15)"
   sodipodi:docname="upgrade-experimental-retrofit.svg">
  <defs
     id="defs5626" />
  <sodipodi:namedview
     id="base"
     pagecolor="#ffffff"
     bordercolor="#666666"
     borderopacity="1.0"
     inkscape:pageopacity="0.0"
     inkscape:pageshadow="2"
     inkscape:zoom="0.98994949"
     inkscape:cx="747.49223"
     inkscape:cy="636.67466"
     inkscape:document-units="mm"
     inkscape:current-layer="layer1"
     inkscape:document-rotation="0"
     showgrid="false"
     inkscape:pagecheckerboard="true"
     showborder="false"
     inkscape:window-width="1267"
     inkscape:window-height="1198"
     inkscape:window-x="4872"
     inkscape:window-y="240"
     inkscape:window-maximized="0" />
  <metadata
     id="metadata5629">
    <rdf:RDF>
      <cc:Work
         rdf:about="">
        <dc:format>image/svg+xml</dc:format>
        <dc:type
           rdf:resource="http://purl.org/dc/dcmitype/StillImage" />
        <dc:title></dc:title>
      </cc:Work>
    </rdf:RDF>
  </metadata>
  <g
     inkscape:label="Layer 1"
     inkscape:groupmode="layer"
     id="layer1">
    <path
       d="m 221.10495,115.80217 v 0 c 0,1.02936 -0.36027,1.90431 -1.08082,2.62485 -0.72055,0.72055 -1.5955,1.08082 -2.62485,1.08082 -1.02935,0 -1.9043,-0.36027 -2.62485,-1.08082 -0.72055,-0.72054 -1.08082,-1.59549 -1.08082,-2.62485 0,-1.02935 0.36027,-1.85283 1.08082,-2.47044 0.72055,-0.61761 1.5955,-0.92642 2.62485,-0.92642 1.23523,0 2.16165,0.41174 2.77926,1.23522 0.41652,0.45217 0.71453,1.10139 0.92641,2.16164 z M 193.93004,43.541617 c 1.44109,1.029352 1.54403,2.36751 0.30881,4.014475 -1.23523,1.646965 -2.57339,1.904303 -4.01448,0.772014 -1.44109,-1.132287 -1.54403,-2.521913 -0.30881,-4.168878 0.61761,-0.823482 1.4411,-1.235223 2.47045,-1.235223 0.84345,0.182968 0.86359,0.39393 1.54403,0.617612 z M 128,0 c 17.39606,0 33.96864,3.3968637 49.71774,10.190591 15.74909,6.793727 29.33654,15.903498 40.76236,27.329313 11.42581,11.425814 20.53558,25.013269 27.32931,40.762364 C 252.60314,94.031363 256,110.55247 256,127.8456 c 0,17.29313 -3.39686,33.86571 -10.19059,49.71774 -6.79373,15.85202 -15.9035,29.49094 -27.32931,40.91676 -11.42582,11.42581 -25.01327,20.53558 -40.76236,27.32931 C 161.96864,252.60314 145.39606,256 128,256 110.60394,256 94.031365,252.60314 78.282275,245.80941 62.533176,239.01568 48.945721,229.90591 37.51991,218.4801 26.094091,207.05428 16.984318,193.41536 10.190591,177.56334 3.3968637,161.71131 0,145.13873 0,127.8456 0,110.55247 3.3968637,94.031363 10.190591,78.282268 16.984318,62.533173 26.094091,48.945718 37.51991,37.519904 48.945721,26.094089 62.533176,16.984318 78.282275,10.190591 94.031365,3.3968637 110.60394,0 128,0 Z m -13.43305,238.08927 5.86731,0.61761 10.80821,-15.44029 c 11.94049,0.61761 22.02814,-0.20587 30.26296,-2.47045 7.20547,-1.85283 16.77845,-6.07318 28.71894,-12.66103 1.64697,-0.82349 3.6542,-2.16165 6.02171,-4.01448 2.36751,-1.85284 4.37475,-3.4998 6.02171,-4.94089 l 2.47045,-2.16164 1.85284,-0.61761 12.96984,3.39686 c 6.17611,-9.05831 10.39646,-15.85203 12.66104,-20.38118 1.02935,-2.26458 3.29392,-9.26418 6.79373,-20.9988 l 1.54403,-6.48492 -0.92642,-0.92642 -20.07238,4.01448 c -2.67631,10.70526 -5.35263,18.4254 -8.02895,23.16043 -4.11741,7.20547 -9.57297,13.79333 -16.3667,19.76358 -5.55851,4.94089 -12.66104,9.57298 -21.3076,13.89626 -8.23483,3.91154 -15.95497,6.58785 -23.16044,8.02894 -3.91153,0.82349 -7.87454,1.2867 -11.88902,1.38963 -4.01447,0.10293 -7.05107,0.1544 -9.10978,0.1544 l -3.39685,-0.3088 z M 125.99276,18.219542 115.18457,19.14596 c -7.41134,11.94049 -13.38159,20.484117 -17.910745,25.63088 -2.264571,2.470446 -5.507029,5.609972 -9.727376,9.418577 -4.220347,3.808604 -7.977484,7.154 -11.27141,10.036188 l -4.632087,4.014475 -24.395665,-24.086852 -0.926418,0.926417 12.043426,13.896261 -7.102525,11.117009 10.190591,20.689988 -17.60193,-7.720145 -1.544033,5.249699 19.763567,8.337755 -0.617604,2.779252 -4.014483,-0.61761 c -0.411736,0.823484 -0.823476,1.904306 -1.235219,3.242456 -0.411744,1.33816 -1.029356,4.16888 -1.852835,8.49216 -0.82348,4.32328 -1.23522,8.69803 -1.23522,13.12424 0,4.42623 0.566141,9.7274 1.698423,15.90351 1.132289,6.17612 3.036594,12.04343 5.712917,17.60192 2.264571,4.94089 5.043823,9.57298 8.337756,13.89626 3.293926,4.32329 6.381984,7.77163 9.264174,10.34501 2.882182,2.57338 5.661434,4.73502 8.337756,6.48492 2.676315,1.7499 4.593276,3.32007 6.034367,4.14355 2.494534,1.89089 4.219899,2.69073 5.747493,3.60097 -3.555415,8.47723 -8.193139,20.68606 -12.399475,30.39299 l 2.779252,1.23522 13.278643,-29.95416 c 0.61761,0.20587 1.38963,0.41174 2.31605,0.61762 0.92641,0.20587 2.88218,0.66907 5.86731,1.38962 2.98512,0.72055 5.86731,1.23522 8.64656,1.54403 2.77925,0.3088 6.33052,0.56614 10.6538,0.77202 4.32328,0.20587 8.23482,-1e-5 11.73463,-0.61762 5.97024,-0.82348 11.88902,-2.36751 17.75633,-4.63208 5.86731,-2.26458 10.13912,-4.32329 12.81543,-6.17612 l 4.32328,-2.77926 2.77926,1.85284 c 5.35263,-5.55851 9.0583,-9.67592 11.117,-12.35223 l 7.72014,-10.80821 12.04343,7.10254 c 2.05871,-5.35263 3.39687,-9.0583 4.01448,-11.11701 l 1.85284,-9.26417 17.29312,-4.63209 c 0.61761,-4.11741 1.02935,-7.10254 1.23523,-8.95537 v -8.02895 l -34.58626,-0.92641 -0.92642,11.11701 -3.08805,1.54402 -0.61762,2.47045 1.85284,1.23522 c -1.64696,5.76437 -4.52915,12.35223 -8.64656,19.76358 -2.26458,4.11741 -4.68356,7.66867 -7.25694,10.65379 -2.57338,2.98513 -4.58062,5.0953 -6.02171,6.33052 l -2.47045,1.54403 -6.48492,-2.77925 -4.01447,3.08806 v 1.54403 l -9.26417,3.08805 -22.54282,4.01448 -0.5063,-1.78197 c -4.35217,-0.39006 -7.22607,-0.43481 -10.78589,-1.04784 -2.86794,-0.49388 -3.91804,-1.0355 -8.47139,-2.11108 l -0.61761,1.54403 c 0,0 -12.148267,-4.83401 -17.551367,-8.42986 -4.604934,-3.06467 -12.402798,-11.02492 -12.402798,-11.02492 0,0 -10.699751,-12.37178 -13.896261,-19.76356 -2.628212,-6.07761 -3.164418,-12.88801 -4.014471,-19.45477 -0.555818,-4.29376 -0.988348,-8.64982 -0.70068,-12.96984 0.341067,-5.12193 1.2587,-9.58599 2.862317,-15.13148 l 3.088065,-6.17612 -4.323285,-7.411339 c 3.088058,-4.940892 5.45557,-8.440691 7.102537,-10.499397 0.82348,-0.823482 1.955765,-1.904302 3.396856,-3.242461 1.441099,-1.338158 2.676323,-2.418978 3.70567,-3.242461 l 1.852835,-1.544028 0.926417,0.926417 8.337757,-5.86731 -0.926418,-1.544029 17.910746,-7.411339 0.92642,0.926418 7.72014,-1.54403 v -0.926417 l 12.66104,-1.544028 z m 29.33656,195.782878 5.24969,-1.23522 -0.92642,-3.70567 c 6.38199,-2.67633 11.11702,-4.94091 14.20508,-6.79374 l 14.51386,-9.88178 6.17612,1.54403 c 3.29393,-3.70567 5.66144,-6.58786 7.10254,-8.64656 l 6.17611,-9.57298 -8.95536,-5.55851 c -4.94089,7.20547 -8.85244,12.35223 -11.73463,15.44029 -5.14676,4.94089 -10.60233,9.36711 -16.36671,13.27866 -0.82348,0.61761 -2.00723,1.33815 -3.55126,2.16163 -1.54403,0.82348 -3.08806,1.54403 -4.63208,2.16164 -1.54403,0.61761 -2.98513,1.23522 -4.32329,1.85283 -1.33815,0.61761 -2.41897,1.13229 -3.24246,1.54404 l -1.23522,0.61761 z M 80.907126,202.26779 c -0.823487,-0.41173 -1.749905,-0.4632 -2.779252,-0.1544 -1.029355,0.30881 -1.852839,1.08083 -2.47045,2.31605 -1.441091,2.47045 -1.132286,4.32328 0.926417,5.5585 0.823479,0.41174 1.749897,0.41174 2.779252,0 1.029355,-0.41174 1.852839,-1.13229 2.47045,-2.16164 1.441091,-2.47045 1.132286,-4.32328 -0.926417,-5.55851 z M 34.586257,139.88903 c 2.470446,11.52874 4.837954,19.86649 7.102525,25.01326 1.029355,2.47045 2.779256,5.55851 5.249703,9.26418 2.470446,3.70567 4.632086,6.89666 6.484921,9.57297 l 2.779253,3.70567 2.47045,-1.85283 c -5.352637,-6.79373 -9.984724,-14.308 -13.896261,-22.54282 -0.411743,-1.02935 -0.874954,-2.26458 -1.389632,-3.70567 l -1.544033,-4.32328 -1.38962,-4.47769 c -0.926421,-2.98512 -1.286694,-4.42621 -1.080818,-4.32327 0.205868,0.10293 -0.102938,-1.13229 -0.926418,-3.70567 -0.823487,-2.57338 -1.080826,-3.44833 -0.772016,-2.62485 v -0.61762 z m 39.527134,-30.26297 c 4.940893,-10.4994 10.808203,-18.528352 17.60193,-24.086855 3.293934,-2.470447 7.668684,-4.837958 13.124249,-7.102534 5.45557,-2.264576 10.24206,-3.499799 14.35947,-3.705669 9.47004,-0.617612 16.52111,-0.257339 21.1532,1.08082 4.63208,1.338158 9.72737,3.860072 15.28588,7.565741 3.29393,2.264577 6.48492,5.043829 9.57298,8.337757 3.08805,3.293928 5.8673,6.948131 8.33775,10.96261 2.47045,4.01447 4.11741,7.97748 4.9409,11.88902 1.85284,5.55851 2.41899,11.99196 1.69844,19.30036 -0.72055,7.3084 -2.72779,14.05066 -6.02172,20.22678 -2.26458,4.52915 -5.14677,8.54362 -8.64656,12.04342 -3.4998,3.49981 -6.38199,5.86732 -8.64657,7.10254 l -3.39686,1.85284 h -3.08806 c -0.61761,0.41174 -1.5955,0.82348 -2.93365,1.23521 -1.33816,0.41175 -3.75714,1.02936 -7.25693,1.85284 -3.4998,0.82349 -6.6908,1.13229 -9.57299,0.92642 -14.82268,-0.41174 -27.07197,-4.94089 -36.747881,-13.58746 -6.999603,-6.17612 -11.734627,-12.96985 -14.205074,-20.38118 -1.852835,-5.5585 -2.933653,-10.91113 -3.242455,-16.0579 -0.308809,-5.14676 -0.154408,-8.85243 0.463203,-11.11701 l 0.926417,-3.39686 -1.852834,-3.08806 c -0.411736,1.23523 -0.92641,3.03659 -1.544022,5.4041 -0.617611,2.36751 -0.720549,6.9996 -0.308813,13.89626 0.411743,6.89666 2.05871,13.43305 4.9409,19.60917 2.470447,5.5585 6.484922,10.91113 12.043426,16.0579 5.558505,5.14677 11.219943,8.85244 16.984313,11.11702 4.94089,2.0587 9.77885,3.39686 14.51388,4.01447 4.73501,0.61761 8.80096,0.72054 12.19783,0.3088 3.39686,-0.41173 6.48492,-0.97787 9.26417,-1.69842 2.77925,-0.72055 4.78648,-1.38964 6.02171,-2.00725 l 2.16163,-1.23522 7.72016,4.01447 c 7.82307,-6.17611 14.10212,-12.76397 18.83715,-19.76357 1.85283,-2.67632 3.34539,-5.45557 4.47768,-8.33775 1.13229,-2.88219 1.80137,-5.14677 2.00724,-6.79374 l 0.3088,-2.16163 1.85283,-0.92642 0.30882,-2.47045 -1.23523,-0.6176 c 0.41174,-4.94089 0.61761,-8.64656 0.61761,-11.11701 l -0.3088,-10.80821 1.23522,-1.23522 -0.92642,-5.2497 -1.85283,-0.30881 -5.55851,-12.969838 v -2.470447 l -3.70567,-5.558504 -1.54403,-0.308806 c -3.08806,-3.91154 -5.55851,-6.587857 -7.41134,-8.02895 -6.58785,-4.735022 -12.14636,-8.131886 -16.67551,-10.190591 -1.02935,-0.411741 -2.3675,-0.823483 -4.01447,-1.235224 -1.64696,-0.411741 -3.19099,-0.772014 -4.63209,-1.080819 l -4.32327,-0.926418 c -3.07247,-0.793215 -4.87334,-1.194636 -7.72016,-1.487521 l -14.51386,0.4067 V 66.08444 l -6.17612,1.235222 v 1.235223 l -15.131481,7.102534 -2.47045,-0.308805 -4.940889,3.088057 -0.308813,1.544029 c -3.499794,3.293929 -6.073174,5.86731 -7.720141,7.720145 -2.058703,2.470446 -3.860071,5.043827 -5.404104,7.720144 -1.544025,2.676317 -2.624843,4.735021 -3.242455,6.176121 l -0.926417,2.16164 z m 83.686369,-16.366711 -6.79373,6.793731 c 0.82348,0.61761 1.80137,1.59549 2.93366,2.93365 1.13229,1.33816 2.83072,3.86007 5.0953,7.56574 2.26457,3.70567 3.60272,7.20548 4.01447,10.49941 0.41175,2.88218 0.66909,5.50703 0.77202,7.87454 0.10293,2.36751 -0.10294,4.63209 -0.61762,6.79372 -0.51468,2.16165 -0.87495,3.80861 -1.08082,4.9409 -0.20587,1.13229 -0.92641,2.72779 -2.16163,4.78649 -1.23523,2.0587 -1.95578,3.29392 -2.16165,3.70567 -0.20587,0.41174 -1.13228,1.64696 -2.77925,3.70567 -1.23523,2.0587 -3.4998,4.16887 -6.79373,6.33052 -3.29393,2.16163 -6.27905,3.75713 -8.95536,4.78649 l -3.70567,1.85283 0.61761,7.72014 2.16164,-0.3088 0.30881,-3.39687 3.39686,3.39687 c 0.41174,-0.20587 0.92641,-0.36027 1.54402,-0.46321 0.61761,-0.10293 1.90431,-0.56614 3.86008,-1.38962 1.95577,-0.82348 3.8086,-1.85283 5.5585,-3.08806 1.7499,-1.23522 3.80861,-2.93365 6.17612,-5.0953 2.36751,-2.16163 4.47769,-4.58061 6.33052,-7.25694 2.67631,-3.91153 4.83795,-9.10976 6.48492,-15.59469 1.64696,-6.48492 2.16163,-12.30076 1.54402,-17.44752 -0.41173,-2.26458 -0.92641,-4.47769 -1.54402,-6.63933 -0.61761,-2.16164 -1.4411,-4.16888 -2.47045,-6.02171 -1.02935,-1.85283 -2.0587,-3.6542 -3.08805,-5.4041 -1.02936,-1.7499 -2.05872,-3.29393 -3.08807,-4.63209 -1.02935,-1.338159 -1.95576,-2.521915 -2.77925,-3.551268 -0.82348,-1.029352 -1.54403,-1.852834 -2.16164,-2.470445 z m -37.3655,-12.043426 1.23523,13.587454 c -4.73503,0.411741 -8.95537,1.7499 -12.66104,4.014477 -2.30764,1.505326 -4.54893,3.275276 -6.63932,4.786486 -1.48063,1.34393 -2.87052,2.56173 -4.168887,3.86008 l 15.440297,9.88179 c -0.61761,0.41173 -1.23523,1.02934 -1.85284,1.85283 -0.61761,0.82348 -1.33816,2.52191 -2.16164,5.09529 -0.82349,2.57338 -1.02936,5.09529 -0.61761,7.56574 0.20587,1.64697 0.72054,3.191 1.54403,4.63209 0.82348,1.44109 1.69843,2.62484 2.62484,3.55127 0.92642,0.92641 1.90431,1.7499 2.93367,2.47045 1.02935,0.72054 1.85283,1.28668 2.47044,1.69843 l 0.92641,0.3088 -4.32327,6.17611 0.6176,2.77925 -8.43224,14.2236 1.63852,1.2167 8.64656,-13.58746 10.8082,7.72015 c 0.82348,0 1.85283,-0.0515 3.08806,-0.1544 1.23522,-0.10294 3.75713,-1.08083 7.56574,-2.93367 3.80861,-1.85283 7.46282,-4.42621 10.96261,-7.72014 6.79373,-6.38198 9.77885,-15.85202 8.95537,-28.41012 -0.20588,-2.26458 -0.77203,-4.58063 -1.69844,-6.94814 -0.92642,-2.36751 -2.00724,-4.47768 -3.24246,-6.33052 -1.23523,-1.85283 -2.52192,-3.55126 -3.86007,-5.09529 -1.33816,-1.54403 -2.41898,-2.72779 -3.24246,-3.55127 l -1.23522,-1.23522 8.95536,-10.190593 c -6.58785,-4.323281 -12.24928,-7.102533 -16.98431,-8.337756 -2.67631,-0.617612 -5.4041,-1.029353 -8.18336,-1.235223 -2.77925,-0.205871 -4.99235,-0.205871 -6.63932,0 z m -16.3667,84.612787 1.54402,0.92642 8.02896,-13.58746 -0.0692,-2.23421 -1.78366,0.38138 z m -22.234017,-36.13028 0.308802,2.16164 9.264174,-0.92642 19.145961,18.21955 2.16164,-0.92642 0.92642,-3.39687 c -0.61761,-0.20587 -1.28669,-0.51467 -2.00724,-0.92641 -0.72055,-0.41175 -1.80137,-1.69844 -3.24247,-3.86007 -1.44109,-2.16165 -2.57337,-4.88943 -3.39685,-8.18336 -0.20588,-1.02935 -0.30882,-2.11017 -0.30882,-3.24245 0,-1.13229 0.0515,-2.11018 0.15441,-2.93367 0.10294,-0.82348 0.25734,-1.64696 0.46321,-2.47044 0.20587,-0.82349 0.41174,-1.49256 0.61762,-2.00723 0.20587,-0.51468 0.41173,-0.97789 0.6176,-1.38964 0.23817,-0.50707 0.54584,-0.85465 0.92642,-1.23521 L 95.729804,111.7877 c -1.646967,2.26457 -2.88219,4.83795 -3.705669,7.72014 -0.205876,1.02936 -0.360281,2.36752 -0.463215,4.01447 -0.102934,1.64697 -0.05147,2.98513 0.154401,4.01449 v 1.85283 z M 206.89988,50.335344 c 1.23522,1.441093 2.88219,3.448331 4.9409,6.021713 2.0587,2.573382 5.4041,7.720145 10.03619,15.440289 4.63208,7.720145 8.08041,15.285887 10.34499,22.697226 2.47045,7.823078 4.01448,16.212298 4.63209,25.167668 0.61761,8.95537 0.61761,16.00644 0,21.1532 l -1.23523,7.41134 3.08806,-0.61761 c 0.20587,-0.61761 0.41174,-1.54403 0.61761,-2.77926 0.20587,-1.23522 0.41174,-3.86007 0.61761,-7.87454 0.20587,-4.01448 0.20587,-8.02895 0,-12.04342 -0.20587,-4.01448 -0.72054,-8.90391 -1.54403,-14.66828 -0.82348,-5.76437 -2.0587,-11.322878 -3.70567,-16.675515 -2.26457,-7.617209 -5.5585,-15.080016 -9.88178,-22.38842 -4.32328,-7.308404 -8.02895,-12.815441 -11.11701,-16.52111 l -4.63208,-5.558504 z m -47.55609,12.969844 c 5.97025,3.088057 10.08766,5.558504 12.35223,7.411339 1.02935,0.823481 2.26458,1.955769 3.70567,3.396863 l 3.70567,3.705669 1.54403,1.544029 v 1.852835 l 9.26417,14.205066 1.23522,-0.308805 4.9409,12.969846 -1.23523,0.92641 1.54404,6.79373 1.23521,0.92642 1.23524,10.19059 35.51266,0.3088 c -0.41175,-9.67591 -1.13229,-16.77844 -2.16164,-21.30759 -0.41174,-2.26458 -1.23522,-5.19824 -2.47045,-8.800969 -1.23522,-3.602734 -2.36751,-6.742259 -3.39687,-9.418576 l -1.54402,-4.014475 -17.91074,8.337755 c -7.20547,-12.146361 -12.96984,-20.587052 -17.29312,-25.322074 -1.64697,-1.852834 -3.60274,-3.705669 -5.86732,-5.558504 -2.26457,-1.852835 -4.37474,-3.448331 -6.33051,-4.78649 -1.95577,-1.338159 -3.80861,-2.573382 -5.5585,-3.705669 -1.7499,-1.132288 -3.13953,-2.007238 -4.16888,-2.624849 l -1.85284,-0.926418 z m -80.598312,53.423402 6.793735,7.72014 -4.323285,0.92642 v 1.54403 l 7.102537,-0.30881 c 0,-0.41174 -0.05147,-0.92641 -0.154413,-1.54402 -0.102933,-0.61761 -0.05146,-1.85284 0.154413,-3.70567 0.205868,-1.85283 0.617608,-3.75714 1.235219,-5.71291 0.617612,-1.95577 1.801368,-4.27182 3.551269,-6.94813 1.749901,-2.67632 3.860074,-5.35264 6.330521,-8.02895 l 3.705666,-3.08806 3.55126,-2.470446 c 2.2713,-1.578301 5.48742,-2.511735 6.48492,-2.779252 2.50237,-0.599047 3.07614,-0.82363 4.47769,-1.235224 l -1.54402,-8.955367 c -0.41175,0 -0.87496,0.05147 -1.38964,0.154403 -0.51467,0.102935 -1.69843,0.360273 -3.55126,0.772014 -1.85284,0.411741 -3.65421,1.029353 -5.40411,1.852835 -1.74989,0.823482 -3.963,2.110173 -6.63932,3.860073 -2.676314,1.749899 -5.352628,3.757136 -8.028943,6.021711 -1.646967,1.646965 -3.242466,3.551269 -4.786499,5.712913 -1.544025,2.16164 -2.779249,4.11741 -3.70567,5.8673 -0.926413,1.7499 -1.646959,3.44833 -2.161637,5.0953 -0.514677,1.64697 -0.87495,2.88219 -1.080818,3.70567 z M 42.306398,45.703257 46.938485,59.908323 C 42.20346,64.849216 37.983113,71.540008 34.277443,79.9807 c -0.823479,1.646964 -1.646959,3.448331 -2.470438,5.404101 -0.823487,1.955771 -1.49257,3.70567 -2.007248,5.249698 -0.51467,1.544029 -1.029344,3.036591 -1.544021,4.477685 -0.514677,1.441093 -0.977888,2.727784 -1.389632,3.860072 -0.411736,1.132294 -0.720542,2.110174 -0.926417,2.933654 -0.205868,0.82348 -0.411736,1.44109 -0.617604,1.85284 v 0.61761 l -8.955372,4.01447 -0.617615,6.17612 8.955371,-5.2497 c 4.117413,-11.73462 7.411343,-20.278247 9.88179,-25.63088 1.852835,-3.499799 3.757136,-6.845196 5.712905,-10.036189 1.955769,-3.190993 3.705666,-5.764374 5.249691,-7.720145 1.544033,-1.955769 2.985128,-3.654201 4.323285,-5.095295 1.338157,-1.441093 2.418979,-2.470446 3.242466,-3.088058 l 0.926418,-0.926417 z M 192.69482,64.849216 c 3.91153,4.529152 6.69078,8.028951 8.33775,10.499398 l 6.79373,12.352231 15.13149,-7.720145 c -3.08806,-6.176115 -5.55851,-10.705267 -7.41134,-13.587455 L 205.04704,52.805791 Z M 46.938485,41.688782 70.407721,64.54041 C 83.377564,53.835143 92.332932,45.600322 97.273825,39.835948 c 3.499805,-4.117411 6.742265,-8.440693 9.727385,-12.969844 2.98513,-4.529151 5.0953,-8.131886 6.33052,-10.808203 l 1.85284,-3.70567 c -1.4411,0 -3.44834,0.154403 -6.02172,0.463209 -2.57338,0.308806 -7.56574,1.441094 -14.977079,3.396864 -7.411339,1.955771 -14.513872,4.683555 -21.3076,8.183353 -4.735025,2.470447 -9.264177,5.146764 -13.587458,8.028951 -4.323281,2.882187 -7.411339,5.146763 -9.264174,6.793728 z M 130.62485,18.837153 v 17.60193 c 12.35223,0.823482 23.26337,3.396864 32.73341,7.720145 2.26458,1.235223 4.73503,2.624849 7.41134,4.168878 2.67632,1.544029 5.0953,3.088058 7.25694,4.632087 2.16165,1.544029 4.16889,3.03659 6.02172,4.477685 1.85283,1.441093 3.29392,2.573381 4.32327,3.396863 l 1.54403,1.235224 11.42581,-12.969844 c -0.82347,-0.823483 -2.0587,-2.007238 -3.70567,-3.551267 -1.64695,-1.544029 -5.19822,-4.220346 -10.65379,-8.02895 -5.45557,-3.808605 -11.27141,-7.051066 -17.44753,-9.727382 -6.17611,-2.882188 -12.50663,-5.043829 -18.99155,-6.484922 -6.48493,-1.441093 -11.47729,-2.264576 -14.97708,-2.470447 z m -0.3088,20.998795 -0.3088,15.440288 c 6.17611,0.411741 10.70526,0.926418 13.58744,1.54403 1.23523,0.411741 2.83072,0.977885 4.78649,1.698431 1.95577,0.720547 3.55127,1.389627 4.78649,2.007238 l 2.16165,0.926418 6.48492,-14.822678 c -7.61721,-2.264577 -13.17572,-3.808606 -16.67551,-4.632087 z m -12.96984,-25.630882 -0.30881,2.161642 c 1.44109,0 3.55126,-0.102936 6.33051,-0.308807 2.77926,-0.20587 8.08043,0.154404 15.90351,1.080821 7.82307,0.926417 15.28588,2.624849 22.38842,5.095295 7.10253,2.470447 14.20506,5.764375 21.3076,9.881785 7.10253,4.117411 12.30075,7.61721 15.59468,10.499398 l 5.2497,4.632087 0.92642,-2.161642 c -1.23522,-1.235223 -2.93365,-2.83072 -5.09529,-4.786489 -2.16164,-1.95577 -6.69079,-5.095296 -13.58746,-9.418577 -6.89666,-4.323281 -13.74185,-7.61721 -20.53558,-9.881785 -8.23483,-2.882187 -16.31524,-4.889425 -24.24125,-6.021713 -7.92602,-1.132288 -13.94774,-1.492561 -18.06515,-1.08082 z M 62.153962,29.67607 c 1.955769,1.852835 2.11017,3.602734 0.463203,5.249698 -1.646959,1.646964 -3.396856,1.544029 -5.249691,-0.308806 -1.852835,-1.852835 -2.007239,-3.602734 -0.463214,-5.249699 1.544033,-1.646963 3.293933,-1.544028 5.249702,0.308807 z M 106.17141,13.814108 c 0.20587,1.544029 -0.45241,2.584218 -1.17293,3.922376 -0.72054,1.338159 -1.74989,2.161641 -3.08805,2.470447 -1.33816,0.308805 -2.573379,0.05147 -3.705668,-0.772014 -1.132289,-0.823483 -1.801368,-1.955771 -2.007236,-3.396865 -0.205875,-1.029353 -0.154408,-2.007238 0.154401,-2.933655 2.223959,-4.3673808 9.061313,-3.3672603 9.819483,0.709711 z M 74.690556,209.40737 c 0,-1.23522 0.566144,-1.85283 1.698433,-1.85283 1.132289,0 1.698434,0.61761 1.698434,1.85283 0,1.23523 -0.566145,1.85284 -1.698434,1.85284 -1.132289,0 -1.698433,-0.61761 -1.698433,-1.85284 z"
       id="path68"
       style="display:inline;stroke-width:0.308805"
       inkscape:label="Experimental Retrofit"
       sodipodi:nodetypes="cssssssscccsssccssssssssssssssssscccccssccccccccccccsccccccsccccccccccccsssscssscccccsssscscccccccccccccccccsccccccccaccacaaaccccsccccccccccccccccccccccsssscccsccsccccsccccscssscccccscscsscscssccssccsssccsscscsssccccsccccccccccccccccsscccccccccccssccccsscssssscsccccccsssscscsssssccccccccsscsssccccccccssccsssscccsscccccccccccccsscssssccccsccccsscscccsssscssccccsccccccccccccsscccsssccccccccssssccccccsssscssscccccsssssccccccssscccccccccccccsccsscscccccssssccsscscccccscccccccsssscccsscsccssssscssscccsssss" />
  </g>
</svg>
