<?xml version="1.0" encoding="UTF-8" standalone="no"?>
<svg
   xmlns:dc="http://purl.org/dc/elements/1.1/"
   xmlns:cc="http://creativecommons.org/ns#"
   xmlns:rdf="http://www.w3.org/1999/02/22-rdf-syntax-ns#"
   xmlns:svg="http://www.w3.org/2000/svg"
   xmlns="http://www.w3.org/2000/svg"
   xmlns:sodipodi="http://sodipodi.sourceforge.net/DTD/sodipodi-0.dtd"
   xmlns:inkscape="http://www.inkscape.org/namespaces/inkscape"
   width="210mm"
   height="297mm"
   viewBox="0 0 210 297"
   version="1.1"
   id="svg10344"
   inkscape:version="1.0.2-2 (e86c870879, 2021-01-15)"
   sodipodi:docname="upgrade-turbolasers.svg">
  <defs
     id="defs10338" />
  <sodipodi:namedview
     id="base"
     pagecolor="#ffffff"
     bordercolor="#666666"
     borderopacity="1.0"
     inkscape:pageopacity="0.0"
     inkscape:pageshadow="2"
     inkscape:zoom="0.35"
     inkscape:cx="400"
     inkscape:cy="560"
     inkscape:document-units="mm"
     inkscape:current-layer="layer1"
     inkscape:document-rotation="0"
     showgrid="false"
     inkscape:pagecheckerboard="true"
     showborder="false"
     inkscape:window-width="1267"
     inkscape:window-height="1198"
     inkscape:window-x="78"
     inkscape:window-y="78"
     inkscape:window-maximized="0" />
  <metadata
     id="metadata10341">
    <rdf:RDF>
      <cc:Work
         rdf:about="">
        <dc:format>image/svg+xml</dc:format>
        <dc:type
           rdf:resource="http://purl.org/dc/dcmitype/StillImage" />
        <dc:title></dc:title>
      </cc:Work>
    </rdf:RDF>
  </metadata>
  <g
     inkscape:label="Layer 1"
     inkscape:groupmode="layer"
     id="layer1">
    <path
       d="m 128.00001,0 q 26.52528,0 49.81203,10.024099 23.28676,10.024098 40.55904,27.450601 17.27229,17.426506 27.45061,40.559037 Q 256,101.16627 256,127.69157 q 0,26.52531 -10.17831,49.96627 -10.17831,23.44096 -27.45061,40.71325 -17.27228,17.27228 -40.55904,27.29638 -23.28675,10.0241 -49.81203,10.0241 -26.52531,0 -49.812056,-10.0241 Q 54.901206,235.64337 37.628916,218.37109 20.356627,201.0988 10.178314,177.65784 0,154.21688 0,127.69157 0,101.16627 10.178314,78.033737 20.356627,54.901206 37.628916,37.4747 54.901206,20.048197 78.187954,10.024099 101.4747,0 128.00001,0 Z M 29.918073,67.238555 q -7.40241,11.720483 -11.720483,25.6 l 50.2747,-13.26265 1.233736,-27.450603 z M 104.55903,101.78313 V 76.183134 l -0.30843,-0.925301 -0.61687,26.833737 z m 1.54218,-0.61686 V 77.416869 l -0.92531,-0.925301 v 25.291562 z m 5.86023,-28.68434 v -1.54217 l -3.7012,0.925302 -0.61686,1.850602 -1.23374,0.925301 v 0.925302 l 7.71085,3.701205 v -7.40241 z m 3.08435,6.168674 0.9253,-0.308434 v -1.850602 l 1.54215,-0.308434 0.92531,-0.925301 v -0.925301 h -0.61686 l -0.30845,-0.616868 h -1.54215 v -0.925301 h -0.30844 -0.61686 z m 41.94698,6.168675 q -0.30843,-0.616868 -0.30843,-2.775904 0,-1.233734 0.30843,-2.00482 0.30843,-0.771083 0.30843,-1.387951 l -11.41205,3.392771 -0.61687,-0.925301 -3.08432,0.925301 q -0.30843,0.308434 -0.61687,0.925301 -0.30843,0.616868 -0.30843,2.775904 -0.30843,1.233735 0.30843,3.084337 l 0.61687,2.159036 15.42168,-4.93494 z m 12.95422,-2.46747 q -0.30843,-0.616867 -0.30843,-1.542168 v -3.084339 q 0,-1.850602 0.30843,-3.084337 l -10.48675,3.084337 q 0,0.616868 -0.46265,1.387952 -0.46265,0.771085 -0.46265,2.00482 0,2.46747 0.30843,3.392772 0.30843,0.925301 0.9253,1.233734 z m -20.66506,17.580723 q -0.30843,0 -0.30843,0.925298 l 0.30843,0.30844 h 0.61686 l 16.03856,-4.009642 v 0.308434 0.616868 l -16.96385,4.00964 q -0.61686,0.61687 -0.61686,1.23373 0,0.61687 0.30843,0.61687 h 0.30843 0.30843 l 16.65542,-4.934939 v 1.233739 l -13.87952,4.00963 0.61686,0.61687 -3.7012,0.9253 q -0.61686,0.30844 -0.61686,0.9253 0,0.30844 0.61686,0.30844 l 3.7012,-0.9253 v 0.61686 l 11.72049,-3.39277 0.61687,1.85061 4.00963,-0.92531 q -0.30843,-0.30843 -0.30843,-0.9253 v -4.009636 q -0.30844,-2.159036 0.61686,-3.701205 0.61688,-0.925301 1.23375,-1.233734 l -3.39278,0.925301 h -0.30843 z m 36.70361,-0.616868 -0.61686,-1.233734 q 0,0 -0.30843,-2.467471 -0.30843,-2.467469 0.92529,-2.159036 l -12.33735,3.084337 -0.61686,-0.925301 q -1.54217,0 -2.46746,1.542169 -0.61687,1.542169 -0.61687,2.775904 v 2.159038 l 0.61687,1.8506 v 0.30843 z m 11.41205,-2.775904 q -0.30844,-0.616866 -0.30844,-1.542168 v -2.46747 q 0,-0.925301 0.30844,-1.542169 l -8.32771,2.46747 h -0.9253 l -0.77109,0.771084 q 0,0 -0.46265,1.387952 v 2.775904 q 0,0.616868 0.30844,0.616868 z m -10.1783,6.16868 q -0.30844,0 -0.30844,-0.30844 -0.30843,0 -0.30843,-0.15421 0,-0.15422 -0.30843,-0.15422 l -13.26266,4.00964 q -0.30843,0 -0.30843,0.9253 l 0.30843,0.61687 13.87952,-3.70121 q 0.30844,-0.30843 0.30844,-1.23373 z m -18.50602,7.71084 q 0.30841,0 0.30841,-0.9253 l -0.30841,-0.61687 q -1.23375,0.61687 -2.46748,0.77108 -1.23374,0.15422 -2.46747,0.77109 -1.23374,0.61687 -3.08434,0.9253 -0.30843,0 -0.30843,0.30843 0,0.61687 0.92531,0.61687 1.54216,-0.30843 2.7759,-0.61687 3.08432,-0.61686 4.62651,-1.23373 z m -28.99278,-7.71084 -5.55181,2.15903 v 5.55181 h 2.46747 l 0.9253,2.15904 2.15904,-0.92531 z m -1.23375,-8.944583 -0.61687,-0.925302 -16.03855,4.626507 0.61687,0.925301 z m -17.88915,-0.925302 v 0.616868 q 0.30843,0 2.7759,-0.771084 2.46747,-0.771085 13.26265,-3.855422 l -0.61687,-1.233734 q -2.15903,0.616867 -4.78072,1.542169 -2.62169,0.9253 -4.78072,1.542168 -2.15903,0.616868 -3.85542,0.925301 -1.69639,0.308433 -2.00482,0.308433 z m 17.27228,-10.79518 -0.30842,-1.542169 -18.1976,5.551807 0.61687,1.54217 z m -19.12287,7.40241 v 0.616867 0.925301 l 17.27228,-5.243373 -0.30843,-1.542169 z m -24.36628,9.869879 -0.30843,-0.308433 q -1.542173,0 -1.850602,1.233739 v 1.54216 q 0.616871,0 0.616871,0.15422 0,0.15422 0.30843,0.15422 0.616871,0 1.850602,-0.9253 v 6.47711 l 5.860239,-1.85061 1.54217,-0.9253 0.30843,-3.7012 -0.30843,-14.187955 -0.61687,4.626506 v 3.084337 l -0.30843,0.616868 v 5.551804 l -1.850603,0.30844 -0.616871,-0.9253 1.850604,-0.308438 -0.30843,-5.551807 -1.542174,0.308433 -4.626506,-2.159036 v 2.159036 0.925301 l -0.30843,-0.308433 q -1.542173,0 -1.850602,1.233734 0,0.925302 0.616871,1.54217 0,0.308433 0.30843,0.308433 0.925301,0 1.233731,-0.308433 z m -0.30843,3.392776 q -1.542173,0 -1.850602,1.54216 -0.30843,0.61687 -0.154215,0.77109 0.154215,0.15422 0.154215,0.77108 0.616871,0 0.616871,0.15422 0,0.15422 0.30843,0.15422 1.542172,0 1.850602,-1.23374 0,-0.9253 -0.616871,-1.54217 z m 9.25301,-28.067475 v -0.308433 l -0.61687,-8.944579 H 102.4 l -19.739755,6.168675 -0.616871,0.308434 0.616871,8.636144 h 0.925302 q 0.30843,0 1.233731,-0.925301 0.30843,-0.308433 0.616871,-0.925301 l 4.009635,4.626506 v 16.038554 l -1.233731,0.925306 v 6.4771 l 1.233731,0.30844 -0.30843,1.54217 -0.925301,0.9253 1.233731,5.86024 h 1.542173 V 82.043375 l 0.925301,-0.616868 3.084333,0.925302 -0.616871,9.561445 q 0.925301,0 2.775904,-0.616866 0.925301,-0.308435 1.542172,-0.616868 l 0.30843,-16.346988 z M 62.612049,162.85302 v 22.82409 l 29.301209,-1.85061 q -0.616872,-8.32771 -0.771087,-14.49637 -0.154214,-6.16868 -0.154214,-8.63615 z M 43.797591,92.530122 41.330121,117.51326 52.433736,114.12048 55.209639,88.828917 Z M 12.337349,127.69157 v 2.93012 q 0,0 0.308434,2.62169 l 23.749398,-5.55181 3.392772,-34.236147 -23.440965,5.860241 q -4.009639,13.879516 -4.009639,28.375906 z m 0.308434,9.25301 q 0.616868,5.86024 1.696386,11.56626 1.079517,5.70604 2.93012,11.25784 l 47.190363,-8.63615 3.392771,-65.38795 -9.86988,2.775904 -2.775904,28.067476 -13.879518,3.39277 -1.233735,10.79517 z m 12.33735,43.48916 q 4.318072,8.94457 10.33253,16.65542 6.014458,7.71084 13.108434,14.18795 l 0.308434,-18.19759 -9.561446,-13.57108 z m 25.6,33.31084 q 1.542169,1.54217 3.546988,2.93012 2.00482,1.38795 3.855422,2.93012 v -56.13494 l -38.862652,3.08434 q 0.925302,2.77591 2.159037,5.70602 1.233735,2.93012 2.46747,5.70603 l 16.346988,-1.23373 11.103615,16.03855 z m 12.028916,9.56145 q 7.40241,4.93493 15.267475,8.79036 7.865055,3.85542 16.501196,6.63133 l -1.542161,-28.37591 h 0.30843 Q 92.838559,204.8 92.530117,198.78555 92.221688,192.77109 91.913258,187.21928 l -29.301209,2.15903 z m 94.689161,16.34699 q 18.50602,-4.62651 34.39035,-15.26748 15.88435,-10.64096 27.45061,-25.29156 11.56627,-14.6506 18.04338,-32.8482 6.4771,-18.19758 6.4771,-38.55421 0,-23.7494 -9.09878,-44.877111 -9.0988,-21.127711 -24.82892,-36.703615 -15.73012,-15.575903 -36.70362,-24.674701 -20.97349,-9.098797 -45.03132,-9.098797 -28.684342,0 -53.050611,12.954217 -24.366266,12.954221 -40.40482,34.236149 l 37.937349,-14.187952 10.486747,6.785542 0.616872,16.655423 19.122883,-6.477109 15.73013,9.253012 q 1.8506,0.616867 2.15904,0 h 0.30843 q 0.61687,0 1.38796,0.308434 0.77107,0.308433 4.78072,2.775903 l 0.30843,0.616868 v 0.925301 l 1.8506,0.308434 v 1.233734 l 4.00964,1.850603 7.09398,-3.084337 0.9253,2.159036 4.6265,-1.233735 1.23374,1.850603 24.6747,-7.710844 2.15903,0.925302 13.87952,-4.626507 5.55181,-5.551807 h 0.30844 q 0.61686,0 3.39276,0.771084 2.77591,0.771084 4.93495,3.238554 h 0.9253 q 2.77591,0 3.70121,3.392772 v 1.850602 q 0.30843,1.850603 -1.54218,3.701205 v 1.233735 q -0.30843,3.392771 -2.15903,5.089157 -1.8506,1.696385 -2.46747,1.696385 l -9.56144,-0.308434 -12.64579,3.701205 -1.54217,2.159036 -11.41205,3.084337 -0.9253,0.925301 -1.23373,0.925302 7.40241,-2.159036 1.23373,0.925301 2.15903,0.308433 0.61687,0.925302 12.64579,-3.084337 1.8506,0.308433 9.25302,-3.084337 h 1.8506 l 14.18795,-3.701205 5.86023,-4.626506 2.46748,1.542169 q 0.30843,0 1.23373,0.308433 0.9253,0.308435 1.8506,0.925302 0.30844,0.616867 0.61687,0.771085 0.30843,0.154216 0.30843,0.771084 0.9253,0.308433 1.8506,0.771084 0.92531,0.46265 1.23375,2.004819 0,0.308434 0.30843,0.616868 0.30843,0.308434 0.30843,0.616867 0,1.542169 -0.61686,2.46747 -0.61687,0.925302 -1.23375,1.542168 v 2.467471 q -0.61686,0.925301 -1.54216,2.004819 -0.9253,1.079518 -1.23374,1.696386 h -0.9253 -9.25301 l -1.85061,0.308433 -0.30843,1.542169 -6.78553,1.233738 -1.54218,-0.9253 -0.30843,0.61686 -0.61687,1.23374 -11.72048,3.7012 -0.9253,1.23374 -13.26265,3.39277 -1.54217,3.7012 -11.41205,3.39278 v 8.94457 l -4.62651,3.08434 0.61688,1.85061 -0.92531,0.30842 -5.86024,1.85061 v 0.9253 l -0.92531,0.61687 -3.39276,0.9253 h -0.30844 q -2.46746,0 -3.39276,-0.61687 l 5.5518,35.77832 -4.93494,3.7012 0.9253,0.30843 z M 193.6964,75.566267 q -0.61687,-0.616868 -0.9253,-1.850603 -0.61687,-2.46747 -0.30844,-4.626506 0,-1.850603 0.30844,-2.775904 l -3.70121,3.392772 -15.11326,4.934939 -1.23373,-0.308433 q -0.9253,0.616867 -1.23374,3.39277 0,1.850603 0.61686,3.084339 0.30844,0.925301 0.9253,1.233734 l 15.73012,-5.551807 z m 1.8506,-3.084337 q -0.30844,-0.616868 -0.30844,-1.233736 v -2.159036 -1.850603 q 0,-0.616867 0.30844,-0.925301 0,-0.308433 -0.30844,-0.925301 l -0.61686,0.616868 q -0.30844,0.308433 -0.30844,0.925301 v 2.159036 2.46747 q 0,0.616867 0.30844,1.233735 l 0.61686,0.616868 q 0.30844,0 0.61687,-0.308435 0.30843,-0.308433 -0.30843,-0.616866 z"
       id="path52"
       style="display:inline;stroke-width:0.308433"
       inkscape:label="Turbolasers" />
  </g>
</svg>
