<?xml version="1.0" encoding="UTF-8" standalone="no"?>
<svg
   xmlns:dc="http://purl.org/dc/elements/1.1/"
   xmlns:cc="http://creativecommons.org/ns#"
   xmlns:rdf="http://www.w3.org/1999/02/22-rdf-syntax-ns#"
   xmlns:svg="http://www.w3.org/2000/svg"
   xmlns="http://www.w3.org/2000/svg"
   xmlns:sodipodi="http://sodipodi.sourceforge.net/DTD/sodipodi-0.dtd"
   xmlns:inkscape="http://www.inkscape.org/namespaces/inkscape"
   width="210mm"
   height="297mm"
   viewBox="0 0 210 297"
   version="1.1"
   id="svg918"
   inkscape:version="1.0.2-2 (e86c870879, 2021-01-15)"
   sodipodi:docname="upgrade-title.svg">
  <defs
     id="defs912" />
  <sodipodi:namedview
     id="base"
     pagecolor="#ffffff"
     bordercolor="#666666"
     borderopacity="1.0"
     inkscape:pageopacity="0.0"
     inkscape:pageshadow="2"
     inkscape:zoom="0.98994949"
     inkscape:cx="-428.54812"
     inkscape:cy="521.48715"
     inkscape:document-units="mm"
     inkscape:current-layer="layer1"
     inkscape:document-rotation="0"
     showgrid="false"
     inkscape:pagecheckerboard="true"
     showborder="false"
     inkscape:window-width="3440"
     inkscape:window-height="1377"
     inkscape:window-x="-8"
     inkscape:window-y="-8"
     inkscape:window-maximized="1" />
  <metadata
     id="metadata915">
    <rdf:RDF>
      <cc:Work
         rdf:about="">
        <dc:format>image/svg+xml</dc:format>
        <dc:type
           rdf:resource="http://purl.org/dc/dcmitype/StillImage" />
        <dc:title></dc:title>
      </cc:Work>
    </rdf:RDF>
  </metadata>
  <g
     inkscape:label="Layer 1"
     inkscape:groupmode="layer"
     id="layer1">
    <path
       d="m 49.100121,69.172502 -0.926417,-1.235231 c 0.515718,-1.29223 1.102638,-2.580384 1.852835,-3.70567 0.416876,-0.943132 0.863466,-2.113901 1.176159,-2.816384 2.120471,-0.77944 4.358774,-1.240646 6.543981,-1.815702 v 5.558504 l -5.249698,-0.617604 c -0.203578,0.310337 -1.036719,1.25614 -1.243635,1.564252 -0.683928,0.913059 -1.265551,1.736324 -2.153225,3.067835 z M 154.71169,107.15561 h 6.48492 l -12.04342,12.96985 h -13.58745 v -12.35224 h 2.16164 v 6.48492 h 10.49939 z M 54.967426,88.936069 53.114592,86.156817 h 4.632087 c 0.563594,-0.695075 1.056482,-1.435845 1.54233,-2.185261 l 3.089756,-4.608463 105.302765,-6.484922 4.94091,5.558505 0.92641,0.926417 1.23522,1.235219 c 1.21709,0.0293 1.76268,-0.0081 2.71243,-0.0081 l 2.71245,-0.03341 -2.02801,2.511982 z m 4.940894,-23.77805 v -5.867306 c 2.1258,-0.423181 3.941227,-0.612383 5.86731,-0.926418 1.921667,-0.129083 4.367287,-0.926417 6.176115,-0.926417 v 7.720141 h -5.558503 z m 107.77321,67.319671 h 9.88179 l -2.77925,5.8673 h -11.73462 l 8.02895,-31.49819 h 5.2497 0.30881 v 0.30881 0.61761 h 0.61761 v 0.30881 0.61761 l -0.61761,6.48492 h -2.77926 v -2.47044 h -0.3088 z M 31.189377,78.436676 c -0.914418,-1.168951 -1.534341,-2.760859 -1.544021,-4.014483 v -2.470439 c 0.373863,-0.865063 0.620104,-1.231292 0.926418,-1.852835 0.596883,-0.326433 0.943475,-0.920603 1.544021,-0.926417 0.205875,-0.205876 0.617619,-0.308814 1.235231,-0.308814 0.812435,-0.01131 1.133169,0.09603 1.638515,0.330729 0.440123,0.204405 1.140737,0.904502 1.140737,0.904502 0.850234,0.775528 1.076778,1.670923 1.235219,2.62484 0.229092,1.379284 -0.171363,2.996276 -0.463214,4.168884 -0.121884,1.287342 -1.310283,2.229014 -2.316038,2.624851 -0.205868,0.102934 -0.41174,0.154401 -0.617615,0.154401 -1.24595,0.03354 -2.063728,-0.485968 -2.779253,-1.235219 z m 166.137513,27.792524 8.64657,-0.30882 v 6.48493 h -1.85283 l -0.92642,25.93968 h -3.08807 l 0.92642,-25.93968 h -1.85283 l -7.72015,25.93968 h -3.70566 l -7.41134,-31.49819 4.01447,-0.6176 5.5585,24.70445 z m -16.3667,-51.261772 -7.10254,0.926417 v -4.940889 c 2.89975,0.137553 6.19899,-0.258144 8.93176,0.167061 1.03016,2.074141 3.0176,5.23719 4.34689,6.626663 l -1.23522,1.852835 c -1.86345,-1.370901 -3.58396,-3.197481 -4.94089,-4.632087 z m 22.85162,12.969843 c -0.41173,-0.411736 -0.66907,-0.823476 -0.772,-1.235219 -0.10294,-0.411744 -0.36028,-0.823484 -0.77202,-1.23522 -0.20587,-0.205875 -0.30881,-0.926425 -0.30881,-2.161648 0,-0.411736 0.0515,-0.92641 0.15441,-1.544021 0.10293,-0.617612 0.1612,-0.965444 0.34339,-1.449539 0.15595,-0.414367 0.48009,-0.86651 0.58303,-1.175312 0.79277,-0.990245 1.5826,-2.193408 2.62484,-2.624852 0.83115,0.01819 1.38521,-0.505748 2.16165,-0.617615 0.98076,-0.03011 2.06926,0.156251 2.77925,0.617615 1.447,0.20745 1.62834,1.303479 2.47044,2.161637 0.20587,0.205876 0.41174,0.514682 0.61761,0.926418 0.41175,0.617611 0.61762,1.441095 0.61762,2.47045 0,0.411743 -0.10294,0.926421 -0.30882,1.544033 -0.20587,0.617611 -0.3088,1.132285 -0.3088,1.544021 -0.20587,0.411743 -0.41174,0.720549 -0.61761,0.926417 -0.20587,0.205876 -0.41174,0.514682 -0.61761,0.926418 -0.41174,0.411743 -0.82348,0.720549 -1.23523,0.926417 -0.41173,0.205876 -0.92641,0.514682 -1.54402,0.926417 -0.20587,0.205876 -0.92642,0.308814 -2.16165,0.308814 -1.02935,0 -1.85283,-0.102938 -2.47044,-0.308814 -0.20587,0 -0.61762,-0.308806 -1.23523,-0.926417 z m -54.65862,57.746689 11.42582,12.66103 h -6.17612 l -6.17612,-6.48492 h -10.49939 v 6.17612 h -2.77926 v -12.04343 z m 6.48492,-67.010863 v -7.720141 h 7.41134 7.41134 v 5.867306 c -2.42231,0.253562 -5.18929,0.853224 -7.41134,0.926418 -2.76319,0.281155 -4.9922,0.926417 -7.41134,0.926417 z m -50.33534,4.940901 v -9.88179 c 2.70824,-0.386956 5.02641,-0.430647 7.56574,-0.772016 2.18912,-0.258038 3.73584,-0.154401 5.7129,-0.154401 l 0.0501,9.97388 c -2.06527,0.339909 -3.11783,0.391878 -4.68219,0.525513 -3.01087,0.3942 -5.55312,0.308814 -8.64656,0.308814 z m -30.571773,1.544021 -0.617611,-8.337757 c 2.947212,0.06938 5.977396,-0.421245 8.646562,-0.926417 1.637066,-0.116977 2.626816,-0.305974 3.705669,-0.308802 l 0.617612,8.955372 c -2.85654,0.09758 -5.955653,0.619709 -8.337756,0.617604 z M 89.24487,64.540415 v -9.572987 c 2.63781,-0.298234 5.170186,-0.253484 7.720144,-0.617604 1.537723,-0.394448 3.665866,-0.510305 5.249696,-0.617616 v 10.499393 h -1.85283 c -3.566814,0.02443 -6.366182,0.308814 -9.572981,0.308814 z m 32.1158,-2.161648 V 52.188175 l 5.76262,-0.141741 c 3.06777,-0.268248 4.63782,-0.579749 7.82483,-0.784676 v 9.881789 c -2.65556,0.428828 -3.89616,0.609982 -6.79372,0.926418 -2.60209,-0.05936 -4.4878,0.308802 -6.79373,0.308802 z m 16.98432,-1.544022 v -9.572987 h 7.10253 c 2.91083,-0.147313 4.81415,-0.308802 7.10253,-0.308802 v 8.337757 c -4.84939,0.372537 -9.8867,1.091639 -14.20506,1.544032 z M 44.776836,86.156817 v -5.867306 l 10.499397,-0.617616 4.632087,-7.720141 111.17008,-6.793735 6.48492,7.411339 14.20507,-0.926417 v 7.102537 l -10.8082,12.043426 -127.845598,4.940888 z m 2.470451,-3.088054 v 1.235219 l 6.793722,8.646558 125.375151,-5.867306 9.26417,-9.572976 V 75.34861 l -11.11701,0.308814 h -1.23522 l -0.92641,-0.926418 -5.86732,-5.867318 -108.699633,6.484922 -4.014476,6.17612 -0.617611,0.926417 c -2.989197,0.0602 -5.97401,0.388279 -8.955363,0.617616 z m 57.129063,117.963807 -0.0236,8.12515 c -1.81442,-0.26271 -3.32693,-0.51375 -5.534881,-0.71381 -3.002606,-0.46561 -3.917774,-0.64294 -5.86731,-0.92642 v -6.79373 c 4.096504,0.16067 7.758511,0.31992 11.425791,0.30881 z m 15.13148,0.92642 0.30881,8.33776 c -2.53195,-0.19069 -4.11293,-0.46298 -6.17611,-0.61762 -2.05551,-0.15407 -4.04598,-0.3088 -6.17612,-0.3088 l -0.3088,-7.72015 c 4.09657,-0.15465 8.80417,0.1991 12.35222,0.30881 z m 31.49819,2.77925 v 6.79373 h -6.79372 c -2.45646,-0.16113 -4.24403,-0.30881 -6.48492,-0.30881 v -7.41134 c 2.03852,0.21698 4.8519,0.60195 6.48492,0.61761 2.56742,0.13929 4.46613,0.30881 6.79372,0.30881 z m -16.0579,-1.23523 v 7.72015 c -2.50532,-0.16295 -3.05388,-0.3105 -6.17612,-0.61761 -2.53306,-0.11098 -4.73319,-0.29009 -6.48492,-0.3088 v -7.72016 c 2.30435,0.12373 4.25702,0.11075 6.48492,0.30882 2.2279,0.19807 3.95118,0.49948 6.17612,0.6176 z m -72.260548,-3.39685 v 3.70566 c -1.859544,-0.21872 -3.466404,-0.64293 -5.558504,-0.92641 -1.258825,-1.77605 -2.295755,-3.29599 -3.70567,-4.9409 l 0.926418,-0.92642 c 1.120953,0.97152 2.052134,2.15581 3.184251,3.11169 1.716437,-0.0564 3.436058,-0.0236 5.153505,-0.0236 z m 13.278649,0 0.617611,5.5585 c -4.227726,-0.36727 -7.430342,-0.59118 -11.425814,-1.23523 v -4.32327 h 7.720144 z m 14.205066,0.6176 v 6.79373 c -3.913147,-0.46897 -6.999293,-0.88966 -11.117009,-1.23523 l -0.308805,-6.1761 h 3.70567 c 3.297604,0.21182 4.446042,0.35033 7.720144,0.6176 z m 77.510243,6.48492 v 4.32329 h -6.48492 -7.41134 v -6.17612 c 2.21931,0.18618 4.06682,0.343 6.02172,0.61761 1.33811,0.30081 2.45757,0.26225 3.55127,0.61762 2.81344,0.45362 2.84771,0.6176 4.32327,0.6176 z m 11.73463,-54.65861 10.19059,10.49939 -0.92642,33.04221 -13.27864,-0.6176 -6.79374,5.5585 -104.067543,-5.86732 -4.940894,-6.48492 -10.19059,-0.3088 -1.235219,-29.02774 7.102529,-8.64656 z m 6.79372,12.04342 -8.02894,-8.33775 -121.97829,-2.77926 -5.867309,7.41134 0.926416,25.01326 c 2.968516,0.0367 5.939797,-0.076 8.906422,0.0507 1.601407,2.0904 3.315948,4.09288 4.989839,6.12546 l 101.905912,6.17612 5.86731,-5.2497 0.92641,-0.61762 h 1.54404 l 9.88178,0.61762 z M 42.009396,189.1444 c 1.071242,0.52337 0.721663,1.69744 1.223407,2.4696 0.205876,0.3088 0.308814,0.56613 0.308814,0.772 -0.321325,1.25562 -0.384664,2.50374 -1.15084,3.41038 -1.609316,1.47306 -3.336294,1.22142 -5.02528,0.29529 -0.658432,-0.49872 -1.068471,-1.39459 -1.235219,-2.16163 -0.205876,-0.41175 -0.308814,-1.02936 -0.308814,-1.85284 v -1.54403 c 0.205876,-0.82348 0.592908,-1.0417 0.831924,-1.37696 0.678797,-0.85708 1.552507,-1.39249 2.564944,-1.40229 1.703968,0.12947 2.254953,0.73578 2.791064,1.39048 z m 139.877214,15.59384 1.23522,1.54402 c -1.51742,1.71025 -3.25409,3.6714 -4.63209,5.24971 h -7.41134 v -4.01448 l 6.17612,1.23522 c 1.98159,-1.5819 3.15283,-2.58861 4.63209,-4.01447 z m -6.17612,-43.85042 5.2497,5.55851 -0.61761,21.9252 -4.94089,-0.61761 h -1.54404 -1.85283 l -1.54403,1.54403 -0.92642,0.3088 -4.32327,3.70567 -97.891441,-4.94089 c -2.036825,-1.79484 -4.217212,-3.92889 -5.890935,-5.77452 -2.057085,-0.26993 -3.953732,-0.52717 -6.152491,-0.7104 l -0.926417,-19.14595 3.705669,-4.63209 z m -101.597104,-46.32087 -19.76357,0.61761 -0.308807,-5.55851 20.072377,-0.6176 z m 0.617611,18.21954 0.308806,5.2497 -19.76357,-0.61762 -0.308807,-4.63208 z m 7.102534,-23.77804 0.926417,29.02774 h -2.779252 l -0.308806,-23.46924 -2.779252,6.79373 -1.852835,-3.70567 3.70567,-8.64656 z m 125.066349,90.17129 c 0.41173,0.41173 0.6176,0.66907 0.6176,0.77201 0,0.10294 0.10294,0.36028 0.30882,0.77201 0.41173,0.61761 0.6176,1.33816 0.6176,2.16165 0,0.41173 -0.10293,0.72054 -0.3088,0.92641 -0.20587,0.20587 -0.3088,0.51468 -0.3088,0.92642 -0.20588,0.41174 -0.41175,0.66908 -0.61762,0.77202 -0.20587,0.10293 -0.41174,0.36027 -0.61761,0.772 -0.41174,0.20588 -0.72055,0.41175 -0.92642,0.61762 -0.20587,0.20587 -0.51467,0.3088 -0.92642,0.3088 -0.41173,0.20587 -1.23521,0.30881 -2.47044,0.30881 -0.61761,0 -1.23522,-0.3088 -1.85283,-0.92641 -0.61761,0 -1.23523,-0.30881 -1.85284,-0.92642 -0.61761,-0.61761 -0.92642,-1.23523 -0.92642,-1.85284 -0.20587,-0.20587 -0.30881,-0.82348 -0.30881,-1.85283 0,-0.20587 0.0515,-0.46321 0.15441,-0.77202 0.10293,-0.30881 0.1544,-0.66908 0.1544,-1.08081 0.41174,-0.20588 0.66908,-0.41175 0.77202,-0.61762 0.10293,-0.20587 0.36027,-0.41174 0.77201,-0.61762 0.20587,-0.61761 0.82348,-0.92641 1.85283,-0.92641 0.20587,-0.41174 0.82349,-0.61761 1.85284,-0.61761 1.23522,0 1.95577,0.20587 2.16164,0.61761 0.82348,0.41174 1.44109,0.82348 1.85284,1.23523 z m -149.153201,-77.81906 13.278648,-0.3088 0.308807,5.5585 H 58.055485 Z m -5.86731,-11.73463 1.544029,27.79252 h -3.396859 l -10.808207,-27.4837 h 2.779252 l 8.955372,21.6164 -0.926417,-21.6164 z m 46.629674,-0.92641 0.308806,29.33655 H 88.318452 c -0.20587,-0.41175 -0.411741,-0.87496 -0.617612,-1.38963 -0.44925,-2.39345 -1.016799,-4.91748 -1.389626,-7.25693 -0.507141,-2.09628 -0.761321,-3.88292 -0.772014,-5.5585 v -4.32329 c 0.127767,-1.17427 0.233412,-2.11153 0.617612,-4.01447 0.316837,-1.29746 0.588992,-2.47796 0.926417,-3.70567 0.284803,-1.03625 0.308806,-1.85284 0.926418,-3.08806 h 4.014475 v 0.30881 h 0.308805 v 0.6176 0.30882 l 0.617612,0.6176 v 4.01448 l -3.088057,0.61761 v -2.47044 H 89.24487 c -0.505545,2.87144 -0.937573,5.6442 -0.926418,8.33776 v 2.77925 2.16163 c 0.330395,2.53267 0.564842,4.383 0.926418,6.79373 h 6.793727 l -0.308806,-24.08685 z m 26.557297,-0.61761 7.72015,29.95416 h -3.70567 l -5.55851,-22.85163 -4.9409,22.85163 h -4.01447 c -0.41174,-0.41175 -0.92641,-1.54404 -1.54402,-3.39687 -0.50681,-1.72378 -0.82639,-3.64779 -1.08082,-5.24969 -0.10294,-0.61761 -0.15441,-1.23522 -0.15441,-1.85283 v -4.32329 -4.01447 c 4.2e-4,-1.3722 0.30594,-2.81954 0.30881,-4.01448 0.15795,-1.85658 0.78028,-3.73718 1.23522,-5.40411 0.20587,-0.72054 0.41174,-1.28668 0.61761,-1.69842 h 3.39686 c -0.73258,1.92851 -1.51706,3.49332 -2.16163,5.09529 -0.63,3.89703 -1.00268,9.69977 -0.61762,12.81544 -0.0738,2.80423 0.24103,6.09799 1.23523,8.33776 l 5.86731,-26.24849 z m -88.009645,16.98432 9.264174,7.72014 -0.617615,4.63208 -8.955372,-7.41133 z M 127.84559,0 c 17.70487,0 34.32891,3.2939298 49.87214,9.8817893 15.54322,6.5878517 29.07921,15.6976207 40.60796,27.3293067 11.52875,11.631687 20.68999,25.219142 27.48372,40.762365 C 252.60314,93.516687 256,110.14073 256,127.8456 c 0,17.70487 -3.39686,34.38038 -10.19059,50.02654 -6.79373,15.64615 -15.95497,29.23361 -27.48372,40.76236 -11.52875,11.52875 -25.06474,20.63852 -40.60796,27.32931 C 162.1745,252.6546 145.55046,256 127.84559,256 110.14073,256 93.516686,252.6546 77.973458,245.96381 62.430233,239.27302 48.894246,230.16325 37.365497,218.6345 25.836745,207.10575 16.726972,193.51829 10.036179,177.87214 3.345393,162.22598 0,145.55047 0,127.8456 0,110.14073 3.345393,93.516687 10.036179,77.973461 16.726972,62.430238 25.836745,48.842783 37.365497,37.211096 48.894246,25.57941 62.430233,16.469641 77.973458,9.8817893 93.516686,3.2939298 110.14073,0 127.84559,0 Z m 0,11.425811 c -15.85203,0 -30.623236,2.830719 -44.313628,8.492157 -13.69039,5.661446 -25.785282,13.535996 -36.284675,23.623649 h 0.308802 L 187.1363,28.101323 c -8.85243,-5.352628 -18.27101,-9.470037 -28.25572,-12.352227 -9.98472,-2.88219 -20.32972,-4.323285 -31.03499,-4.323285 z M 29.336543,66.084436 c -0.411736,0.617612 -0.823476,1.286691 -1.23522,2.007236 -0.411743,0.720553 -0.823483,1.286698 -1.235219,1.698434 l 0.926418,13.278657 3.396855,4.014471 v 5.558504 l 2.779253,-0.617615 6.793735,-0.926417 c 1.364035,1.698085 3.984319,4.934101 5.449697,6.609987 0.990761,1.359921 1.895378,2.182386 2.888059,3.271797 L 186.20988,96.347408 c 1.53633,-2.147306 3.50563,-3.81442 5.2497,-5.558504 l 6.79373,-6.484922 0.92642,-0.308802 h 8.64657 c 1.69772,0.165185 3.02869,0.308802 4.63208,0.308802 l 0.3088,-5.867306 5.24971,-5.867318 0.3088,-16.984315 c -0.20587,-1.029355 -0.92641,-2.161645 -2.16164,-3.396868 L 200.10614,53.114593 188.68033,40.762365 46.629671,53.114593 39.218332,65.466832 Z m 178.489757,19.763579 -8.33776,0.926417 c -1.2551,1.722735 -5.06586,6.32139 -6.05631,7.531153 -1.22626,1.572594 -3.09389,3.552851 -3.82548,4.512273 -0.73159,0.959422 -0.87539,0.653763 -1.23353,1.329712 -0.51592,0.24413 -0.68355,0.21431 -1.23692,0.21431 l -138.653794,4.63209 h -0.308802 c -0.906083,-1.08452 -1.71067,-2.15937 -2.47045,-3.08806 -0.864838,-1.06064 -1.319093,-1.72409 -2.161637,-2.77925 L 39.835948,93.876958 33.96863,93.568156 h -2.779253 l 3.088066,59.908324 h 2.779252 l 5.558505,-0.30881 3.088054,-4.63209 c 0.638232,-1.07726 3.288227,-4.89661 3.705669,-5.5585 h 0.926418 l 135.565739,1.23523 h 0.92642 c 1.17083,1.29742 4.4226,5.03838 5.5585,6.17611 l 5.2497,6.17612 8.02895,0.61761 c 1.27558,0.1929 1.63416,0.17518 2.77925,0.30881 h 0.92642 l 3.08806,-72.260561 c -1.53685,0.164951 -3.33257,0.39242 -4.63208,0.617616 z M 11.117009,127.8456 c 0,10.29353 1.338157,20.17531 4.014471,29.64536 2.676314,9.47004 6.176112,18.52834 10.499393,27.1749 v -2.77925 l 2.161649,-2.77925 0.926417,-1.23522 -4.940901,-85.848017 -0.926417,-1.235219 -2.161637,-3.088054 -0.617615,-4.323285 v -0.308802 c -5.97024,13.999191 -8.95536,28.924807 -8.95536,44.776837 z M 127.84559,244.26538 c 10.49939,0 20.63852,-1.33816 30.41737,-4.01448 9.77885,-2.67631 18.99156,-6.58785 27.63812,-11.73462 h -2.77925 L 54.041009,217.09047 h -0.617611 c 10.293526,8.64656 21.667873,15.33735 34.12304,20.07238 12.455172,4.73502 25.888222,7.10253 40.299152,7.10253 z m 84.61279,-36.74789 0.3088,-12.04342 -4.94088,-4.9409 1.54402,-32.1158 h -0.92642 -2.77925 l -9.57298,0.61762 -0.61761,-0.61762 -5.55851,-5.2497 c -1.67272,-1.88689 -3.30079,-3.34928 -4.94089,-4.63209 L 50.952956,146.68275 c -1.238033,1.5541 -2.118844,2.57318 -3.396867,4.01448 -1.556695,1.65042 -2.992028,3.20181 -4.632087,4.94089 l -5.867307,-1.23522 -2.779252,-0.30881 1.544021,28.10132 -2.779252,3.39687 0.308814,10.80821 c 0.411736,0.41173 0.823476,0.87494 1.235219,1.38962 0.411744,0.51467 0.823484,0.97788 1.235219,1.38963 l 9.572988,0.6176 8.028946,9.57299 130.316042,10.19059 10.8082,-9.26417 14.20507,0.92641 z m 11.42581,-16.05791 v 1.85284 c 6.38199,-9.26417 11.32288,-19.40329 14.82268,-30.41736 3.4998,-11.01407 5.2497,-22.69723 5.2497,-35.04946 0,-10.08765 -1.18375,-19.81504 -3.55126,-29.182154 -2.36751,-9.367108 -5.91878,-18.271005 -10.65381,-26.711692 l -0.3088,4.940889 -3.39687,3.705669 -1.85283,1.852835 -4.94089,104.993963 1.54403,1.23522 z"
       id="path46"
       style="display:inline;stroke-width:0.308805"
       inkscape:label="Title"
       sodipodi:nodetypes="cccccccccccccccccccccccccccccccccccccccccccccccccccccccccccccacccccccccccccccccccccccccccssssscccccccsscscscscsccccccccccccccccccccccccccccccccccccccccccccccccccccccccccccccccccccccccccccccccccccaccccccccccccccczcccccccccccccccccccccccccccccccccccccccccccccccccccccccccccccscccccccccccccccccccccccccscccscccsccccccscccscscscscscsscsccscsccccccccccccccccscsccccccccccccccssccsccccsscccscccssccccccccssccssccssssssssssssssccscssccsscccccccccccsccccccccccsscccccccccccccccccccccccccsccccccccccsscccccsscccscccccsccccccccscccccccccsssccccccccss" />
  </g>
</svg>
