<?xml version="1.0" encoding="UTF-8" standalone="no"?>
<svg
   xmlns:dc="http://purl.org/dc/elements/1.1/"
   xmlns:cc="http://creativecommons.org/ns#"
   xmlns:rdf="http://www.w3.org/1999/02/22-rdf-syntax-ns#"
   xmlns:svg="http://www.w3.org/2000/svg"
   xmlns="http://www.w3.org/2000/svg"
   xmlns:sodipodi="http://sodipodi.sourceforge.net/DTD/sodipodi-0.dtd"
   xmlns:inkscape="http://www.inkscape.org/namespaces/inkscape"
   width="210mm"
   height="297mm"
   viewBox="0 0 210 297"
   version="1.1"
   id="svg9166"
   inkscape:version="1.0.2-2 (e86c870879, 2021-01-15)"
   sodipodi:docname="upgrade-ordnance.svg">
  <defs
     id="defs9160" />
  <sodipodi:namedview
     id="base"
     pagecolor="#ffffff"
     bordercolor="#666666"
     borderopacity="1.0"
     inkscape:pageopacity="0.0"
     inkscape:pageshadow="2"
     inkscape:zoom="0.35"
     inkscape:cx="400"
     inkscape:cy="560"
     inkscape:document-units="mm"
     inkscape:current-layer="layer1"
     inkscape:document-rotation="0"
     showgrid="false"
     inkscape:pagecheckerboard="true"
     showborder="false"
     inkscape:window-width="1267"
     inkscape:window-height="1198"
     inkscape:window-x="312"
     inkscape:window-y="163"
     inkscape:window-maximized="0" />
  <metadata
     id="metadata9163">
    <rdf:RDF>
      <cc:Work
         rdf:about="">
        <dc:format>image/svg+xml</dc:format>
        <dc:type
           rdf:resource="http://purl.org/dc/dcmitype/StillImage" />
        <dc:title></dc:title>
      </cc:Work>
    </rdf:RDF>
  </metadata>
  <g
     inkscape:label="Layer 1"
     inkscape:groupmode="layer"
     id="layer1">
    <path
       d="m 128,0 q 26.52531,0 49.81205,9.8698837 23.28675,9.8698723 40.55904,27.2963803 17.27228,17.426509 27.4506,40.713254 Q 256,101.16626 256,127.69157 q 0,26.52531 -10.17831,49.96627 -10.17832,23.44096 -27.4506,40.71325 -17.27229,17.27228 -40.55904,27.29638 -23.28674,10.0241 -49.81205,10.0241 -26.52529,0 -49.812052,-10.0241 Q 54.901203,235.64337 37.628921,218.37109 20.356627,201.0988 10.178314,177.65784 0,154.21688 0,127.69157 0,101.16626 10.178314,77.879518 20.356627,54.592773 37.628921,37.166264 54.901203,19.739756 78.187948,9.8698837 101.47471,0 128,0 Z m 0,243.97108 q 24.05783,0 45.03133,-9.09878 20.97349,-9.0988 36.85783,-24.82892 15.88434,-15.73012 24.98314,-37.01205 9.09878,-21.28193 9.09878,-45.33976 0,-24.05783 -9.09878,-45.33976 Q 225.7735,61.069881 209.88916,45.33976 194.00482,29.609639 173.03133,20.510842 152.05783,11.412045 128,11.412045 q -22.82409,0 -42.872287,8.173496 -20.048197,8.173496 -35.469876,22.053014 l 13.262647,12.337346 q 0.616871,0.616872 2.775904,3.238561 2.159032,2.621688 4.318076,6.014452 2.467462,3.392775 5.243366,7.710851 l -7.40241,-5.551807 -5.551808,-4.318077 q 0,0 -3.392763,-2.775903 L 46.881933,44.106029 Q 30.534941,60.14458 20.973498,81.580723 q -9.561453,21.436147 -9.561453,46.110847 0,24.05783 9.253012,45.33976 9.253012,21.28193 24.983133,37.01205 15.730121,15.73012 36.857835,24.82892 21.127715,9.09878 45.493975,9.09878 z m 46.57349,-69.08915 q 7.40241,-7.09398 15.73012,-8.48192 8.32771,-1.38796 13.87952,3.23855 3.39278,8.63614 4.16386,16.19277 0.77109,7.55663 -2.62169,12.80001 -1.23373,2.46746 -3.7012,4.93493 -1.23373,1.23373 -2.62169,2.00482 -1.38795,0.77108 -2.31325,1.69639 -5.24337,3.08433 -12.95421,1.8506 -7.71086,-1.23373 -16.03857,-4.93494 -4.31806,-5.5518 -2.62167,-14.03374 1.69637,-8.48193 9.09878,-15.26747 z m 25.60001,26.5253 q 4.93493,-4.62651 5.70602,-10.79518 0.77108,-6.16867 -2.93012,-10.79518 h -0.61687 q -0.30843,-0.30843 -0.9253,-0.77109 -0.61686,-0.46264 -1.23373,-1.07951 h 0.30843 q -4.31807,-2.15904 -9.40723,-1.38795 -5.08915,0.77108 -9.71566,5.39758 -4.31807,4.00965 -5.55181,9.25303 -1.23374,5.24336 0.92531,9.56144 v -0.30843 q 0.61686,0.61686 0.9253,1.38794 0.30843,0.77109 0.9253,1.38796 4.00963,3.70119 10.33253,3.39276 6.32289,-0.30843 11.25783,-5.24337 z M 101.47471,67.85542 82.66024,48.115664 l 22.8241,-21.8988 3.70121,2.775904 -7.71084,23.132531 2.15903,2.775904 z m -49.349411,9.869884 18.506025,19.431325 -12.645776,1.233732 -2.775904,-2.159033 -23.440972,6.785542 -3.084334,-3.084337 z m 28.99278,-26.525306 q -4.318077,-0.925302 -8.173497,-0.771087 -3.855419,0.154227 -8.173496,2.621689 -0.925301,-1.542161 -2.159032,-2.313247 -1.233743,-0.771086 -1.850602,-1.387958 3.701204,-2.775903 8.173484,-2.775903 4.472291,0 8.173496,1.542172 0.925301,0.925301 0.925301,1.233731 h 0.616872 l 0.30843,0.616872 h 0.308441 l 0.30843,0.308429 q 0.616871,0 1.542173,0.925302 z M 53.0506,73.407227 q -0.61686,-0.616859 -0.61686,-0.925301 -2.159044,-4.318065 -1.850602,-8.790356 0.30843,-4.472291 2.775904,-8.173496 l 0.925301,0.30843 q 0.61686,0.616871 1.387946,1.850602 0.771086,1.233743 2.313259,2.467474 -2.775904,3.701205 -3.084345,7.556625 -0.30843,3.85542 0.308441,8.790367 -0.925301,-0.925301 -0.925301,-1.850602 -0.616871,-0.308442 -0.925301,-0.925301 H 53.0506 Z M 184.13495,185.36868 q 4.00963,-4.00964 8.63614,-4.78072 4.6265,-0.77109 8.32771,2.93011 0.30843,0.92531 0.30843,2.15904 v 2.46747 q -0.30843,0 -0.30843,-0.30843 0,-0.30844 -0.61687,-0.61687 -3.39277,-3.08433 -7.71084,-1.8506 -0.9253,0 -0.9253,0.9253 0,0.30843 0.9253,0.30843 2.46747,0.9253 2.7759,1.54217 3.39278,3.39278 -1.23373,7.71085 -1.8506,1.54216 -3.85542,2.00482 -2.00483,0.46264 -3.54699,-1.07953 -0.9253,-1.23373 -0.9253,-3.08433 0,-0.9253 -1.23374,-0.9253 -0.92531,0 -0.92531,0.30844 -0.9253,5.24336 2.15905,8.3277 l 0.9253,0.92531 q -1.23374,0 -2.62169,-0.30844 -1.38796,-0.30843 -2.31326,-0.61687 -3.08433,-3.08434 -2.46746,-7.71084 0.9253,-5.55181 4.62651,-8.32771 z m -66.62169,-28.99277 q -1.23373,6.78554 0.30843,12.95422 -6.78554,-8.63615 -4.00964,-20.66506 1.8506,-13.26266 13.26265,-23.7494 4.93495,-4.93494 11.10361,-8.01928 6.16868,-3.08434 12.95422,-4.31807 5.55181,-0.61687 10.9494,0.61686 5.39759,1.23374 9.40723,4.93495 -2.77591,-0.61687 -6.01445,-1.07953 -3.23856,-0.46264 -6.93977,0.15423 -14.49638,1.54216 -26.83374,13.26264 -5.5518,5.55181 -9.40722,12.02892 -3.85542,6.47711 -4.78072,13.87952 z m 40.09638,-33.61928 q 12.33735,-2.7759 21.59036,2.15904 4.31807,6.16868 10.64097,16.34699 6.32289,10.17831 11.56626,21.28193 -5.86024,-2.46748 -13.57108,0 -6.16868,-10.48676 -13.87952,-20.51086 -7.71085,-10.02408 -16.34699,-19.2771 z m 25.29156,40.71326 q -3.39276,1.54216 -6.32288,3.39276 -2.93013,1.8506 -5.70603,4.31808 -2.77591,2.46746 -4.78072,5.39759 -2.00482,2.93012 -3.54699,6.32288 -2.77591,-1.8506 -5.24337,-4.31806 -0.61687,-0.61687 -1.38796,-0.9253 -0.77108,-0.30844 -1.38794,-0.9253 -2.46748,-2.15905 -5.08917,-4.16387 -2.62167,-2.00481 -5.39758,-4.16385 -11.10361,-8.63614 -19.73976,-17.27229 3.08434,-9.56144 11.41205,-16.96385 3.70121,-3.39278 8.01927,-6.16868 4.31808,-2.7759 9.25301,-4.31806 8.32771,9.25301 15.57591,19.27709 7.24819,10.0241 14.34216,20.51086 z m -28.06746,19.43131 q 1.54217,1.23375 3.39277,2.46748 1.8506,1.23373 3.39276,2.15903 -0.9253,3.39277 -1.23373,6.93976 -0.30843,3.54699 0.9253,6.93976 -11.10361,-5.55181 -21.12771,-12.49156 -10.02409,-6.93977 -15.57589,-11.8747 -4.93495,-9.25302 -1.23375,-20.97349 4.31808,4.31806 8.79037,8.48192 4.47229,4.16385 9.40723,7.86506 2.46747,2.15903 5.39759,4.16386 2.93012,2.00482 5.70602,4.47228 0.9253,0.61687 2.15904,1.8506 z m -31.46025,-61.68674 q -4.93493,4.62651 -8.79035,10.17832 -3.85542,5.5518 -5.39759,11.72048 l -20.973503,-21.8988 -0.30843,-0.30843 h -0.30843 q -0.616871,-0.9253 -0.925301,-0.9253 -0.616871,-0.61687 -0.925301,-1.23374 -0.308442,-0.61686 -0.925301,-1.23373 0,-0.30843 -0.154227,-0.30843 -0.154215,0 -0.154215,-0.61687 v -0.30843 l -0.61686,-0.61688 q -0.308441,0 -0.308441,-0.30843 v -0.9253 q -2.159033,-5.86025 0,-12.95421 2.159044,-7.093984 8.327711,-12.645792 5.860249,-5.860237 11.720488,-7.40241 l 30.53494,31.151812 q -5.86024,3.70121 -10.79519,8.63614 z M 108.56867,80.192777 q 4.31808,-0.925301 9.86989,1.233731 h 0.30843 l 0.9253,0.616872 h 0.30844 l 0.61686,0.30843 0.30844,0.616871 q 1.54216,0.61686 2.46746,1.850603 l 0.92531,0.925301 0.30844,0.30843 21.59035,21.898795 q -2.15903,0.61686 -4.31807,1.38795 -2.15903,0.77109 -4.00964,1.38796 z M 76.183131,91.913252 q 0.616871,2.159044 1.233743,5.089163 0.616859,2.930118 1.233731,5.397595 -0.616872,0.9253 -0.616872,2.7759 l -1.233731,-4.31808 q 0,0 -0.925301,-3.701201 V 96.539758 L 58.293978,78.342175 q -0.30843,-1.850603 -0.616872,-3.084345 -0.30843,-1.233731 -0.30843,-2.775904 z M 109.18555,75.25783 q -11.720491,0.616871 -20.665061,9.561454 -4.934948,4.934936 -7.710852,10.795173 -0.61686,-1.542161 -0.925301,-3.238549 -0.30843,-1.696387 -0.30843,-2.313259 V 89.137348 L 58.293978,67.23856 q 0.616871,-1.542172 0.925301,-1.850602 0.30843,-0.308442 0.925301,-1.850603 2.159032,1.850603 3.85542,3.084334 1.696388,1.233731 2.313259,1.542172 l 13.879518,9.253013 q 0,0.925301 0.925302,0 0.616859,-0.616872 0,-1.542173 L 72.481926,61.995183 q -0.61686,-0.925302 -1.233731,-2.159033 -0.616871,-0.925301 -1.387958,-1.850602 -0.771074,-0.925301 -1.387946,-2.159044 3.392775,-2.467462 6.631324,-2.621689 3.23856,-0.154215 7.865066,1.387958 L 100.5494,72.790368 h 0.30843 q 2.15904,0.616859 4.16385,1.233731 2.00483,0.616871 4.16387,1.233731 z"
       id="path56"
       style="display:inline;stroke-width:0.308433"
       inkscape:label="Ordnance" />
  </g>
</svg>
