<?xml version="1.0" encoding="UTF-8" standalone="no"?>
<svg
   xmlns:dc="http://purl.org/dc/elements/1.1/"
   xmlns:cc="http://creativecommons.org/ns#"
   xmlns:rdf="http://www.w3.org/1999/02/22-rdf-syntax-ns#"
   xmlns:svg="http://www.w3.org/2000/svg"
   xmlns="http://www.w3.org/2000/svg"
   xmlns:sodipodi="http://sodipodi.sourceforge.net/DTD/sodipodi-0.dtd"
   xmlns:inkscape="http://www.inkscape.org/namespaces/inkscape"
   width="210mm"
   height="297mm"
   viewBox="0 0 210 297"
   version="1.1"
   id="svg10933"
   inkscape:version="1.0.2-2 (e86c870879, 2021-01-15)"
   sodipodi:docname="upgrade-officer.svg">
  <defs
     id="defs10927" />
  <sodipodi:namedview
     id="base"
     pagecolor="#ffffff"
     bordercolor="#666666"
     borderopacity="1.0"
     inkscape:pageopacity="0.0"
     inkscape:pageshadow="2"
     inkscape:zoom="0.98994949"
     inkscape:cx="426.24583"
     inkscape:cy="333.07545"
     inkscape:document-units="mm"
     inkscape:current-layer="layer1"
     inkscape:document-rotation="0"
     showgrid="false"
     inkscape:pagecheckerboard="true"
     showborder="false"
     inkscape:window-width="1267"
     inkscape:window-height="1198"
     inkscape:window-x="130"
     inkscape:window-y="130"
     inkscape:window-maximized="0" />
  <metadata
     id="metadata10930">
    <rdf:RDF>
      <cc:Work
         rdf:about="">
        <dc:format>image/svg+xml</dc:format>
        <dc:type
           rdf:resource="http://purl.org/dc/dcmitype/StillImage" />
        <dc:title></dc:title>
      </cc:Work>
    </rdf:RDF>
  </metadata>
  <g
     inkscape:label="Layer 1"
     inkscape:groupmode="layer"
     id="layer1">
    <path
       d="m 128.00001,0 c 17.47791,0 34.03051,3.341366 49.65782,10.024098 15.62731,6.682732 29.19839,15.83293 40.71325,27.450594 11.51486,11.617675 20.66506,25.137355 27.45061,40.559041 C 252.60723,93.455418 256,110.00803 256,127.69156 c 0,17.47791 -3.39277,34.03052 -10.17831,49.65783 -6.78555,15.62731 -15.93575,29.24981 -27.45061,40.86748 -11.51486,11.61766 -25.08594,20.76786 -40.71325,27.45059 -15.62731,6.68273 -32.17991,10.0241 -49.65782,10.0241 -17.68354,0 -34.287558,-3.34137 -49.812054,-10.0241 C 62.66346,238.98473 49.143781,229.83453 37.628919,218.21687 26.114057,206.5992 16.963855,192.9767 10.178313,177.34939 3.392771,161.72208 0,145.16947 0,127.69156 0,110.00803 3.392771,93.455418 10.178313,78.033733 16.963855,62.612047 26.114057,49.092367 37.628919,37.474692 49.143781,25.857028 62.66346,16.70683 78.187956,10.024098 93.712452,3.341366 110.31647,0 128.00001,0 Z M 23.13253,176.73253 c 0.411247,0.41124 0.668276,0.87389 0.771086,1.38794 0.10281,0.51406 0.359839,0.97671 0.771086,1.38796 2.878717,-2.6731 6.01446,-4.83214 9.407227,-6.47711 3.392775,-1.64498 6.322898,-2.15904 8.790367,-1.54217 2.261843,0.82249 4.472284,1.95341 6.631324,3.39278 2.159032,1.43935 3.855415,3.28995 5.08915,5.5518 0.411248,1.02811 0.822496,2.15903 1.233743,3.39277 0.41124,1.23373 0.822484,2.36466 1.233731,3.39277 l 1.233731,3.70121 4.318076,-16.96386 5.860237,3.08434 c -0.616867,-1.43935 -1.439355,-2.67309 -2.467462,-3.70121 l -3.084345,-4.6265 c -0.41124,-0.41125 -1.028107,-1.74779 -1.850602,-4.00964 -0.41124,-0.82249 -0.719674,-1.8506 -0.925302,-3.08433 l 16.963863,9.86987 -0.925301,-10.48674 c 0.822487,-0.41125 1.542165,-0.92531 2.159032,-1.54218 1.233735,-1.23373 1.850603,-2.36465 1.850603,-3.39276 0,-0.61687 -0.05141,-1.28514 -0.154215,-2.00483 -0.10281,-0.71967 -0.154215,-1.28513 -0.154215,-1.69637 v -1.23375 l 7.710839,-4.6265 6.477109,-12.33735 c -1.028115,-0.61687 -1.644983,-1.23373 -1.850603,-1.8506 l -6.477108,11.41204 -24.983132,11.72049 -23.44096,12.02892 c -1.439363,0.61687 -2.878721,1.43935 -4.318076,2.46746 -1.233735,0.82249 -2.775903,1.74779 -4.626506,2.7759 -1.850603,1.02811 -3.598395,2.36466 -5.243377,4.00965 z M 141.26265,155.4506 c -0.41125,0 -0.61687,-0.10281 -0.61687,-0.30843 l 0.61687,-4.62652 c -0.41125,0.41125 -0.97671,1.02812 -1.69639,1.85062 -0.71967,0.82249 -1.38794,1.43935 -2.00481,1.8506 l 0.9253,10.1783 -4.62651,13.26266 c 0.61687,0.41124 1.33655,0.92529 2.15904,1.54216 1.23373,1.02811 2.36466,2.57028 3.39277,4.62651 0.82249,1.64498 1.43935,3.28996 1.8506,4.93494 0.20562,0.82249 0.30843,1.54217 0.30843,2.15904 l 11.10362,31.76867 c -0.41125,-3.70121 -0.92531,-7.2996 -1.54218,-10.79518 -0.41124,-2.87871 -0.87389,-5.75743 -1.38794,-8.63614 -0.51406,-2.87871 -0.97671,-5.03775 -1.38796,-6.47712 -0.41124,-1.43935 -0.71967,-3.28995 -0.92529,-5.55179 l -0.61687,-6.78555 c -0.20562,-2.46747 -0.41124,-5.24338 -0.61687,-8.32771 l 0.9253,-5.55181 c 1.02811,1.23373 1.95341,2.57028 2.7759,4.00963 1.85061,2.87872 3.18715,5.96306 4.00964,9.25302 0.41125,1.64498 1.02811,3.49558 1.8506,5.55181 l 2.46747,6.16867 c 0.82249,2.26185 1.8506,4.5237 3.08434,6.78554 l 5.86025,24.05783 -0.30845,-18.81445 c 0.20563,-1.85061 0.61688,-3.5984 1.23375,-5.24337 0.41124,-1.02811 0.92529,-1.95342 1.54216,-2.77591 0.61687,-0.82249 1.23373,-1.02811 1.8506,-0.61686 0.41125,0.41124 1.13093,0.9767 2.15904,1.69638 1.02811,0.71968 1.95341,1.28514 2.77591,1.69638 0.82249,0.82249 1.8506,1.43936 3.08433,1.8506 l -2.46747,-3.08433 c -0.61687,-0.82249 -1.23374,-1.69638 -1.85061,-2.62169 l -1.54216,-2.31325 c -0.41125,-0.41125 -1.07952,-1.49077 -2.00481,-3.23856 -0.92531,-1.74779 -1.7478,-3.44418 -2.46748,-5.08915 -0.71967,-1.64498 -1.18232,-2.87871 -1.38795,-3.7012 -0.20562,-0.8225 0.20563,-0.71969 1.23374,0.30843 1.02811,1.02811 2.00481,2.05622 2.93012,3.08433 0.92529,1.02811 1.79919,2.05623 2.62169,3.08435 0.82249,1.02811 1.74779,2.15903 2.7759,3.39277 l 3.08433,5.86024 c -0.20562,-1.85061 -0.56546,-3.80402 -1.07951,-5.86024 -0.51406,-2.05623 -1.49077,-4.21527 -2.93012,-6.47712 -1.64499,-2.87871 -3.64981,-5.29477 -6.01447,-7.24818 -2.36466,-1.95342 -4.47229,-3.64981 -6.32289,-5.08917 -0.41124,-0.41125 -0.9767,-0.87389 -1.69638,-1.38794 -0.71968,-0.51406 -1.28514,-0.97671 -1.69638,-1.38796 -0.8225,-0.61687 -2.00483,-1.59357 -3.54699,-2.93012 -1.54217,-1.33654 -3.08434,-2.51887 -4.62651,-3.54699 -1.54217,-1.02811 -2.87872,-2.00482 -4.00963,-2.93012 -1.13093,-0.92529 -1.7992,-1.38794 -2.00482,-1.38794 -0.20563,-0.41125 -0.61687,-0.82249 -1.23374,-1.23374 l -1.07952,-1.07952 -0.77109,-1.07952 c -0.41124,-0.82249 -0.82248,-1.43935 -1.23373,-1.8506 z m 0.9253,-117.513251 0.9253,-3.084334 12.33735,12.028916 4.31808,8.63614 -0.30845,-2.775903 V 52.1253 l -1.23373,-5.86024 -1.8506,-3.084334 -3.39277,-1.542172 c -1.58307,-0.775045 -2.57991,-2.483144 -3.70121,-3.54699 -1.85059,-1.747793 -3.80401,-3.135743 -5.86024,-4.16385 -1.02811,-0.616867 -3.03292,-1.130925 -6.01445,-1.542172 -2.98153,-0.411248 -6.63133,-0.616872 -10.9494,-0.616872 h -4.93493 c -2.05623,0.205628 -3.95825,0.719686 -5.70604,1.542173 -1.74778,0.822487 -3.23854,1.747788 -4.47228,2.775903 -1.43936,1.233735 -2.67309,2.775904 -3.7012,4.626506 v 0.30843 c 0,0.205628 -0.10281,0.308442 -0.30844,0.308442 l -1.8506,1.233731 -2.15904,2.467474 c -0.41125,0.411239 -1.13092,1.182322 -2.15903,2.313247 -1.02811,1.130925 -1.747795,2.313254 -2.159043,3.546989 l -0.308429,0.308434 c -0.411248,0.205622 -0.822492,0.616867 -1.233731,1.233734 -0.411248,0.616868 -1.233739,1.747792 -2.467474,3.392772 -1.028115,1.233735 -2.107635,2.827309 -3.23856,4.780722 -1.130917,1.953414 -1.902,3.444177 -2.313247,4.47229 v 0.925301 l -2.775904,2.775903 0.616871,0.925302 0.925302,-0.616868 c 0.822487,-1.233735 1.747788,-2.364659 2.775903,-3.392772 1.028107,-1.028111 2.261842,-2.159035 3.701205,-3.39277 1.439355,-1.233735 3.187143,-2.46747 5.243366,-3.701205 2.056231,-1.028113 4.009641,-2.056225 5.860251,-3.084337 1.8506,-1.028113 3.39277,-1.850603 4.6265,-2.46747 l 3.70121,-1.850602 -6.78555,-0.308434 -2.15903,-2.159032 5.86023,-4.318076 3.70121,-6.785538 9.86988,-0.616871 13.26265,2.775903 z M 181.9759,229.78313 c 9.04739,-4.93494 17.3751,-10.9494 24.98314,-18.04337 7.60803,-7.09398 14.08513,-15.01045 19.43132,-23.7494 5.34618,-8.73895 9.56144,-18.14618 12.64578,-28.22168 3.08433,-10.07551 4.6265,-20.76788 4.6265,-32.07712 0,-16.03855 -3.03293,-31.048994 -9.09878,-45.031321 C 228.49799,68.67791 220.22169,56.494778 209.73494,46.110845 199.24819,35.726908 186.96225,27.502007 172.87711,21.436142 c -14.08514,-6.065865 -29.04417,-9.098797 -44.8771,-9.098797 -16.03856,0 -31.100409,3.032932 -45.185548,9.098797 -14.085141,6.065865 -26.31968,14.290766 -36.703617,24.674703 -10.383937,10.383933 -18.608838,22.61847 -24.674703,36.70361 -6.065857,14.085143 -9.098785,29.044175 -9.098785,44.877105 0,16.65543 3.187147,32.07711 9.561442,46.26506 3.289957,-2.87871 6.374295,-5.03775 9.253012,-6.4771 2.878717,-1.43936 4.523696,-2.36466 4.934935,-2.77591 l 23.13253,-12.33734 24.674703,-11.41206 6.168678,-10.48674 c 0.41124,-1.02811 1.028107,-1.54217 1.850602,-1.54217 h 0.30843 0.925301 c -0.616867,-1.85061 -1.028111,-3.49559 -1.233731,-4.93494 -0.205627,-1.43935 -0.359846,-2.98152 -0.462656,-4.62651 -0.10281,-1.64498 -0.154215,-3.39277 -0.154215,-5.24337 -0.20562,-1.8506 -0.30843,-3.59839 -0.30843,-5.24337 l -0.925301,-0.92531 -1.079528,-1.07951 -0.771074,-1.69639 c -0.411248,-1.43936 -0.771091,-4.16386 -1.079528,-8.173493 -0.30843,-4.009639 -0.257021,-7.145381 0.154226,-9.407228 0.616868,-1.850603 1.336546,-2.673093 2.159033,-2.467471 0.411247,0.205623 0.925305,0.514057 1.542172,0.925302 v -0.616867 c 0,-0.205623 -0.205624,-0.71968 -0.616871,-1.542169 l -5.551807,-13.26265 -0.925301,-2.46747 3.701204,-4.009638 c 0.411248,-1.439358 0.925306,-2.775905 1.542173,-4.00964 0.41124,-1.028112 0.976699,-2.004818 1.696376,-2.930119 0.719685,-0.925301 1.490771,-1.799197 2.313258,-2.621687 0.411248,-0.616867 0.873897,-1.28514 1.387946,-2.004819 0.514058,-0.719679 0.976711,-1.285141 1.387958,-1.696386 l 1.233731,-1.850602 c 0.411247,-0.822487 0.925305,-1.644979 1.542173,-2.467474 0.411247,-0.616867 0.925305,-1.233735 1.542172,-1.850602 l 1.54216,-1.542161 3.70121,-3.701205 c 1.23373,-1.644982 2.7759,-3.289964 4.6265,-4.934947 1.43937,-1.233735 3.08435,-2.364656 4.93495,-3.392763 1.8506,-1.028115 4.00964,-1.644983 6.47711,-1.850603 h 4.93493 2.77591 c 0,0 1.8522,-0.05439 2.7759,0 0.89654,0.05279 1.78435,0.206091 2.67567,0.316182 1.57663,0.194736 3.16755,0.304822 4.72674,0.609119 0.99126,0.193457 2.13025,0.510736 2.93012,0.771075 0.67815,0.229717 1.4851,0.730096 2.00482,0.771086 1.02811,0.616868 2.10763,1.336549 3.23856,2.159044 1.13091,0.822487 2.21043,1.747789 3.23854,2.775904 1.02812,0.822487 2.05623,1.747788 3.08434,2.775903 l 4.31807,1.850603 2.46748,4.626506 0.9253,6.16867 1.54216,7.40241 v 1.850602 l 0.30844,8.636144 0.61686,0.616868 1.23374,1.233734 c 1.64498,1.028113 2.46747,2.673093 2.46747,4.93494 0,1.028113 -0.15422,1.953414 -0.46265,2.775903 -0.30844,0.822491 -0.66828,1.439358 -1.07952,1.850603 -0.20563,0.411245 -0.30844,0.82249 -0.30844,1.233735 v 0.308434 l -4.31806,8.636144 c 0.61687,0 0.9253,0.102811 0.9253,0.308433 1.02811,0.411245 1.43935,1.336547 1.23373,2.775904 -0.20562,1.439358 -0.51405,2.981527 -0.9253,4.626506 l -2.15903,6.47711 c -0.61687,1.23373 -1.43936,2.36466 -2.46748,3.39277 -0.61687,1.02811 -1.33654,1.95341 -2.15903,2.7759 l -2.15904,2.15904 c -0.82249,0.61687 -1.49076,1.02811 -2.00482,1.23373 -0.51406,0.20563 -0.97671,0.30844 -1.38795,0.30844 -0.61687,0 -1.02811,-0.20562 -1.23374,-0.61687 l -1.85059,11.72048 -6.78555,14.18795 v 5.55181 h 0.9253 c 1.64499,0 2.46748,0.71968 2.46748,2.15903 l -0.61688,5.24338 3.08435,3.08434 c 0.41124,0.41124 0.77108,0.87389 1.07952,1.38795 0.30843,0.51405 0.56545,0.97671 0.77107,1.38796 0.41125,0.20562 1.23374,0.77108 2.46747,1.69637 1.23374,0.92531 2.57029,1.90201 4.00964,2.93012 1.43936,1.02811 2.93012,2.15904 4.47229,3.39278 1.54217,1.23373 2.62169,2.15903 3.23856,2.7759 0.41124,0.41125 0.87389,0.82249 1.38795,1.23373 0.51405,0.41125 1.18232,0.82249 2.00481,1.23374 1.85061,1.43935 4.06105,3.18714 6.63134,5.24337 2.57028,2.05623 4.78072,4.72932 6.63132,8.01928 2.26184,4.11245 3.64979,8.12209 4.16385,12.02891 0.51406,3.90683 0.66828,7.60803 0.46266,11.10362 0,1.43935 -0.15422,4.16385 -0.46266,8.17349 -0.30843,4.00964 -0.77108,8.07069 -1.38795,12.18314 z"
       id="path50"
       style="display:inline;stroke-width:0.308433"
       inkscape:label="Officer"
       sodipodi:nodetypes="ssssssssssssssssscscscscsccccccccccssssccccccccsccccsccccsscccsssccccsscccccscscccscssssssccscscscsssccccsccccccccccccsscsccscccsccscscccccsscsscccccccccsssssssssssscsccccsccsscccccscccscccccscscccscccscccaaaccsccccccccccsscscccscccscssccccsccsscssssscscscsc" />
  </g>
</svg>
