<?xml version="1.0" encoding="UTF-8" standalone="no"?>
<svg
   xmlns:dc="http://purl.org/dc/elements/1.1/"
   xmlns:cc="http://creativecommons.org/ns#"
   xmlns:rdf="http://www.w3.org/1999/02/22-rdf-syntax-ns#"
   xmlns:svg="http://www.w3.org/2000/svg"
   xmlns="http://www.w3.org/2000/svg"
   xmlns:sodipodi="http://sodipodi.sourceforge.net/DTD/sodipodi-0.dtd"
   xmlns:inkscape="http://www.inkscape.org/namespaces/inkscape"
   width="210mm"
   height="297mm"
   viewBox="0 0 210 297"
   version="1.1"
   id="svg6810"
   inkscape:version="1.0.2-2 (e86c870879, 2021-01-15)"
   sodipodi:docname="upgrade-support-team.svg">
  <defs
     id="defs6804" />
  <sodipodi:namedview
     id="base"
     pagecolor="#ffffff"
     bordercolor="#666666"
     borderopacity="1.0"
     inkscape:pageopacity="0.0"
     inkscape:pageshadow="2"
     inkscape:zoom="0.35"
     inkscape:cx="400"
     inkscape:cy="560"
     inkscape:document-units="mm"
     inkscape:current-layer="layer1"
     inkscape:document-rotation="0"
     showgrid="false"
     inkscape:pagecheckerboard="true"
     showborder="false"
     inkscape:window-width="1267"
     inkscape:window-height="1198"
     inkscape:window-x="104"
     inkscape:window-y="104"
     inkscape:window-maximized="0" />
  <metadata
     id="metadata6807">
    <rdf:RDF>
      <cc:Work
         rdf:about="">
        <dc:format>image/svg+xml</dc:format>
        <dc:type
           rdf:resource="http://purl.org/dc/dcmitype/StillImage" />
        <dc:title></dc:title>
      </cc:Work>
    </rdf:RDF>
  </metadata>
  <g
     inkscape:label="Layer 1"
     inkscape:groupmode="layer"
     id="layer1">
    <path
       d="m 127.99999,0 q 26.52531,0 49.81205,10.178313 23.28675,10.178313 40.55904,27.604819 17.27229,17.426505 27.45061,40.559034 Q 256,101.4747 256,128.00001 q 0,26.52529 -10.17831,49.96626 -10.17832,23.44095 -27.45061,40.55903 -17.27229,17.11807 -40.55904,27.29638 -23.28674,10.17831 -49.81205,10.17831 -26.52529,0 -49.812039,-10.17831 Q 54.901204,235.64337 37.474698,218.5253 20.048193,201.40722 10.024096,177.96626 0,154.52529 0,128.00001 0,101.4747 10.024096,78.342166 20.048193,55.209637 37.474698,37.783132 54.901204,20.356626 78.187951,10.178313 101.4747,0 127.99999,0 Z M 63.537348,150.82408 q -0.308434,3.39278 1.233735,6.78555 1.542168,3.08434 4.93494,6.78554 3.392771,3.70122 10.178313,7.09398 -6.168675,1.85061 -12.028916,3.08433 -3.084337,0.61687 -5.86024,0.61687 1.850602,1.85061 6.631324,2.62168 4.780723,0.77109 9.407229,1.07953 5.551808,0.30843 12.028916,0.30843 -2.775904,0 -7.556627,2.00482 -4.780722,2.00481 -9.098795,4.78072 -5.243373,2.7759 -10.795181,6.16868 10.486748,-3.39277 22.66988,-4.47228 12.183132,-1.07952 23.440964,-0.61687 11.25783,0.46265 19.73976,1.8506 8.48193,1.38796 11.25783,2.62169 3.08433,1.23374 5.86024,2.00481 2.7759,0.77109 4.93494,1.38796 2.46747,0.9253 4.31807,1.23373 0.30844,0.30844 -0.15422,-0.77108 -0.46264,-1.07952 -5.24337,-4.16385 -4.78072,-3.08434 -15.42168,-9.0988 -10.64097,-6.01445 -30.68916,-15.57591 -8.636145,-3.39276 -14.496387,-7.09396 -5.243372,-3.39278 -8.79036,-7.40241 -3.546989,-4.00965 -1.387952,-8.32771 -3.701205,-0.61688 -6.785543,-0.30845 -2.467469,0.30845 -5.089156,2.00483 -2.621686,1.69638 -3.238554,5.39757 z M 78.033733,93.763856 q 5.243373,-0.616871 10.486747,-1.850602 5.243374,-1.233743 9.561445,-2.467474 4.934945,-1.233731 9.561445,-2.467474 -1.54217,3.084345 -7.40241,6.78555 -5.86024,3.701205 -12.645781,7.093964 -8.019277,3.70121 -16.963855,8.32771 14.496384,-3.08433 26.5253,-6.16866 12.028916,-3.084347 20.048196,-5.551809 9.86987,-2.775904 17.58072,-5.551807 -8.01928,-4.318077 -12.49157,-12.028916 -4.47229,-7.710851 -6.93976,-15.421689 -2.7759,-8.944578 -4.00963,-18.814457 -2.46747,9.561445 -7.86506,18.197589 -5.397595,8.636148 -11.257835,15.113256 -6.477109,8.019269 -14.187952,14.804819 z m -8.636144,-4.934948 q 4.318072,-1.850602 8.636144,-5.860237 3.701205,-3.392774 8.019277,-9.407226 4.318072,-6.014459 8.019277,-15.575904 -4.934939,2.159035 -9.561445,6.168675 -4.009638,3.39277 -8.173494,9.407229 -4.163855,6.014452 -6.939759,15.267463 z m 61.686751,-8.32771 q 3.08433,-4.318065 8.01927,-8.944573 4.00964,-3.392771 9.86988,-7.556627 5.86024,-4.163855 14.18795,-6.939759 -5.24337,3.392772 -9.56144,7.556627 -4.31808,4.163855 -7.40241,7.556621 -3.39278,4.009646 -6.47711,8.327711 -2.46747,4.318076 -2.15903,6.014463 0.30843,1.696388 1.8506,2.004818 1.54216,0.616871 4.93494,-0.616872 13.57108,-6.785538 23.90361,-11.103614 10.33253,-4.318064 17.42651,-7.09397 8.32771,-3.084338 13.87952,-5.243374 -0.30844,-2.159036 -5.08917,-4.163856 -4.78072,-2.004818 -10.48674,-3.39277 -5.70602,-1.387952 -10.64097,-2.159037 -4.93493,-0.771084 -5.5518,-0.771084 -2.46747,-1.233734 -6.63133,-6.785541 -4.16385,-5.551807 -8.17349,-20.048193 -3.39277,-0.616867 -8.94457,0.925301 -4.31808,0.925301 -11.41206,4.009638 -7.09397,3.084338 -16.65542,9.86988 0.9253,7.402409 2.7759,14.496386 1.54217,6.168673 4.62651,12.954215 3.08434,6.785545 7.71085,11.10361 z m 32.38554,152.057842 -0.30844,-0.30844 q -0.9253,4.00965 -2.46746,7.40241 2.7759,-0.61686 5.24336,-1.8506 2.46748,-1.23375 4.93495,-1.85061 0,-0.30843 -0.30844,-0.30843 -1.23373,-0.61687 -2.93012,-1.38795 -1.69639,-0.77108 -4.16385,-1.38795 z m 0,-2.15904 q 0.61686,0.61687 0.9253,0.61687 1.8506,0.92529 3.39277,2.0048 1.54217,1.07952 2.7759,1.69639 -2.15903,-3.7012 -6.16867,-10.17831 -0.30844,1.54218 -0.30844,2.93013 0,1.38796 -0.61686,2.93012 z m -25.6,13.26265 q 4.00963,-0.30844 8.17349,-0.9253 4.16385,-0.61687 7.86506,-1.23374 3.08434,-4.31806 4.31807,-11.10361 -1.23373,-0.30843 -2.15903,-0.61686 -0.9253,-0.30844 -2.46747,-0.61687 -1.54217,-0.61688 -2.77591,-1.07952 -1.23373,-0.46266 -2.7759,-0.77109 -1.54217,-0.61687 -2.93012,-0.77108 -1.38796,-0.15422 -2.93012,-0.77109 -0.61687,-0.30843 -1.38795,-0.30843 -0.77109,0 -1.38795,-0.9253 -1.54217,4.31808 -3.08435,7.24819 -1.54216,2.93012 -2.46746,4.78072 2.46746,4.00964 4.00964,7.09398 z m -7.09398,-41.02169 q -3.39277,-0.61686 -6.78554,-0.61686 h -8.01928 q -0.30843,3.39276 -1.23373,7.55663 -0.9253,4.16385 -2.46747,8.48192 0.61686,0 1.69638,-0.15421 1.07952,-0.15423 2.00482,-0.15423 0.61687,0 1.69639,-0.30843 1.07951,-0.30843 2.93011,-0.30843 h 4.93495 q 1.54216,0 2.77591,0.30843 1.23373,0.30843 2.7759,0.61686 1.23373,0 2.31325,0.30843 1.07951,0.30844 2.31326,0.61687 1.8506,-7.09398 1.8506,-16.03855 -1.54217,-0.30844 -3.39278,-0.30844 z m -13.87952,-3.39277 q 4.00965,0 7.55664,0.46265 3.54697,0.46266 6.63132,1.07952 1.54216,0.30844 3.23855,0.30844 1.69639,0 2.62169,0.61685 -3.39278,-1.54216 -8.48193,-2.93012 -5.08916,-1.38795 -10.9494,-2.62169 -0.61687,1.23374 -0.61687,3.08435 z m -2.15903,21.28192 q 5.24337,2.46747 8.94458,5.55181 3.7012,3.08433 6.47711,6.16867 0.61686,-1.54216 1.8506,-3.54699 1.23373,-2.00481 2.15903,-5.08915 -0.9253,0 -2.15903,-0.15422 -1.23374,-0.15421 -1.8506,-0.15421 -2.77591,-0.9253 -5.55181,-0.9253 -0.30844,-0.61688 -2.15904,-0.61688 -0.9253,-0.30843 -2.46747,-0.30843 -0.9253,-0.61687 -2.15904,-0.61687 -1.23373,0 -2.15903,-0.30843 z m 44.10602,7.71084 q 0.61686,-2.46747 0.61686,-5.08916 v -5.39758 q -2.7759,-3.39278 -6.16866,-6.78555 -3.39278,-3.39276 -7.09398,-6.47711 -0.30843,0 -0.9253,-0.30843 -0.30843,-0.30843 -0.77109,-0.30843 -0.46264,0 -1.07952,-0.30844 h -0.9253 q 0,4.31808 -0.61687,8.94458 -0.61686,4.62651 -1.54216,8.01928 0.61686,0.30843 1.38795,0.61686 0.77108,0.30844 1.38795,0.30844 1.54217,0.61686 3.08434,1.07952 1.54217,0.46265 3.08433,1.07952 1.54217,0.61687 2.77591,1.38794 1.23374,0.77109 2.7759,1.38796 1.23374,0.30843 2.15904,0.77109 0.9253,0.46264 1.8506,1.07951 z m -46.88193,-29.30121 q 0,-0.61686 0.15422,-1.8506 0.15422,-1.23373 0.15422,-1.8506 -5.86024,-0.9253 -11.8747,-1.54216 -6.01446,-0.61687 -12.183134,-0.30844 -0.616867,1.54217 -0.771085,3.08434 -0.154216,1.54216 -0.771084,3.39277 h 3.701205 q 2.159036,-0.61686 4.318073,-0.61686 2.159036,0 4.318071,-0.30845 z m -0.9253,3.08435 q -2.7759,0.61686 -5.70602,0.61686 -2.93012,0 -5.706026,0.30844 -2.159036,0.61686 -4.163855,0.77108 -2.00482,0.15422 -4.472289,0.77108 -2.775904,0 -5.551807,0.9253 0,1.54218 -0.308435,2.93012 -0.308433,1.38796 -0.616866,2.93013 h 0.925301 q 12.954217,2.15903 22.207227,5.86024 1.23374,-3.70121 2.00482,-7.71084 0.77109,-4.00965 1.38795,-7.40241 z m -28.067467,-7.71085 q -2.467469,0.61687 -8.481927,1.69639 -6.014458,1.07951 -12.800001,3.85542 -0.616866,2.46747 -1.850602,5.86024 -1.233735,3.39277 -1.850602,8.32771 0,-0.61687 0.925301,-1.54217 l 3.084338,-3.08433 q 1.542168,-0.9253 2.621686,-1.69639 1.079519,-0.77108 2.930121,-2.00482 0.616867,-0.30844 1.542168,-0.61687 0.925301,-0.30843 1.542169,-0.61687 0.616868,-0.61686 1.696385,-0.77108 1.079518,-0.15422 1.696386,-0.77108 1.542168,-0.61687 3.392771,-0.9253 1.850602,-0.30844 3.701204,-0.92529 0.616868,-2.15904 1.079519,-3.70122 0.46265,-1.54217 0.771084,-3.08434 z m -2.775904,12.33736 q -0.925301,0 -2.159036,0.30843 -1.233734,0.30843 -2.159035,0.61687 -1.233736,0.61686 -2.00482,0.61686 -0.771084,0 -1.387952,0.30844 -1.850602,0.9253 -3.084337,0.9253 -1.542169,0.61686 -2.930121,1.23373 -1.387951,0.61687 -2.621686,1.54217 -0.925301,0.30843 -1.696386,0.61686 -0.771084,0.30844 -1.387952,0.61687 5.243374,-1.54217 10.024097,-1.8506 4.780722,-0.30843 8.173494,-0.30843 0.616867,-1.54217 0.771083,-2.46747 0.154218,-0.9253 0.462651,-2.15903 z m 50.891571,37.6289 q -2.15904,-3.39276 -7.86507,-9.71565 -5.70602,-6.3229 -14.6506,-11.25783 -8.944576,-4.93495 -21.590359,-6.47711 -12.645782,-1.54217 -28.99277,4.00963 1.542169,1.54218 3.701204,2.46748 13.879518,-4.00965 24.828915,-2.77591 10.949398,1.23373 18.96867,5.24337 8.01928,4.00965 13.26265,9.40723 5.24338,5.39759 7.71085,9.09879 h 1.54216 z M 52.1253,216.21204 q 0.616868,-3.70121 1.542169,-7.2482 0.925301,-3.54699 1.542168,-6.01445 -5.243373,2.7759 -9.561445,7.40241 1.542169,1.54216 3.084338,2.93012 1.542168,1.38794 3.39277,2.93012 z m 124.2988,17.58072 q 14.80482,-7.09397 27.29638,-17.73493 12.49157,-10.64097 21.43614,-24.36627 8.94458,-13.72529 13.87952,-29.91807 4.93494,-16.19276 4.93494,-33.77348 0,-24.05784 -9.09879,-45.031339 -9.0988,-20.973492 -24.98313,-36.703611 -15.88434,-15.730121 -36.85784,-24.983133 -20.97349,-9.253012 -45.03133,-9.253012 -24.36626,0 -45.493968,9.253012 -21.12771,9.253012 -36.85783,24.983133 -15.730121,15.730119 -24.983132,36.703611 -9.253012,20.973499 -9.253012,45.031339 0,22.82408 8.173494,42.71807 8.173494,19.89397 22.361445,35.62409 0,-0.92531 -0.616867,-2.77591 -0.308434,-0.9253 -0.308434,-1.54216 0.308434,-4.31808 2.004819,-7.40241 1.696385,-3.08434 3.546988,-5.24338 2.159037,-2.46747 4.626506,-4.6265 1.542169,-0.61687 2.313253,-1.54217 0.771084,-0.92531 1.079518,-2.00482 0.308434,-1.07952 0.771084,-2.31325 0.462651,-1.23374 1.696385,-2.46747 -2.467469,-12.64579 -1.542168,-20.51084 0.925302,-7.86507 3.855421,-12.18313 2.930121,-4.31808 7.248194,-5.55181 4.318071,-1.23374 8.636144,-0.9253 0,-0.61687 -0.154217,-0.77109 -0.154217,-0.15421 -0.154217,-0.77108 -4.93494,-7.40241 -7.710844,-14.95904 -2.775903,-7.55663 -4.318071,-14.95904 Q 61.99518,102.4 60.607228,96.53976 59.219276,90.679511 58.448191,84.048188 57.677107,77.416864 58.293975,71.093974 q 0.616867,-6.322892 3.39277,-10.33253 0,-0.308433 6.785543,-4.163855 6.785542,-3.855421 16.809638,-8.944578 10.024095,-5.089156 22.053014,-10.640963 12.02891,-5.551808 22.36144,-9.098795 10.33253,-3.546989 17.88915,-4.009639 7.55664,-0.462651 8.79037,4.780723 1.8506,4.318071 4.00964,8.019276 1.54217,3.392772 3.54699,6.785543 2.00481,3.39277 4.16386,5.551807 7.40241,1.542168 13.26264,3.39277 5.24338,1.542169 10.48675,3.701205 5.24337,2.159037 8.63615,3.701205 4.93493,2.775903 3.39276,5.706024 -1.54216,2.93012 -6.16867,5.551807 -4.6265,2.621686 -10.79518,5.089159 -6.16868,2.467462 -10.17831,4.626506 v 0.61686 q 0.9253,0.616871 1.54217,1.850602 0.30843,0.616872 0.30843,0.925302 -0.61687,1.542172 -0.46266,3.392774 0.15423,1.850603 0.46266,3.392775 2.46747,4.009635 5.70602,8.01927 3.23856,4.009648 7.55663,7.093978 1.8506,1.8506 1.8506,3.70121 0,1.54217 -1.69639,3.08433 -1.69637,1.54217 -7.24818,2.7759 v 0.61687 l -1.54217,0.9253 q -1.23374,1.54218 -1.54218,4.00965 -0.30843,1.8506 0.15422,4.47228 0.46265,2.6217 2.93013,5.70602 0,0.30844 -0.30844,0.9253 -0.30843,0.61687 -3.39277,4.00964 3.08434,0.92531 2.31325,3.54699 -0.77109,2.62168 -3.23855,4.16385 l -0.61687,3.39278 q -0.61687,3.39276 0.9253,5.24336 1.8506,4.62651 0.9253,8.32772 -0.61687,3.08434 -4.16386,5.39759 -3.54698,2.31326 -12.79999,2.31326 h -2.15904 -2.93012 q 0,0 -3.85542,-0.30844 -1.54217,3.39277 -2.15903,7.4024 -0.61687,4.00965 -1.23374,7.09398 4.6265,7.09398 7.86506,12.33735 3.23855,5.24338 2.31325,6.47711 4.93495,4.31807 6.16868,7.86506 1.23373,3.54699 0.9253,6.01446 -0.61687,3.08434 -2.46748,5.24337 2.77591,2.46748 5.24338,6.01446 2.46748,3.54698 4.31808,6.93976 z"
       id="path64"
       style="display:inline;stroke-width:0.308433"
       inkscape:label="Support Team" />
  </g>
</svg>
