<?xml version="1.0" encoding="UTF-8" standalone="no"?>
<svg
   xmlns:dc="http://purl.org/dc/elements/1.1/"
   xmlns:cc="http://creativecommons.org/ns#"
   xmlns:rdf="http://www.w3.org/1999/02/22-rdf-syntax-ns#"
   xmlns:svg="http://www.w3.org/2000/svg"
   xmlns="http://www.w3.org/2000/svg"
   xmlns:sodipodi="http://sodipodi.sourceforge.net/DTD/sodipodi-0.dtd"
   xmlns:inkscape="http://www.inkscape.org/namespaces/inkscape"
   version="2.0"
   viewbox="0 0 256 256"
   id="svg6"
   sodipodi:docname="concentrate-fire.svg"
   inkscape:version="1.0.2-2 (e86c870879, 2021-01-15)">
  <metadata
     id="metadata12">
    <rdf:RDF>
      <cc:Work
         rdf:about="">
        <dc:format>image/svg+xml</dc:format>
        <dc:type
           rdf:resource="http://purl.org/dc/dcmitype/StillImage" />
        <dc:title />
      </cc:Work>
    </rdf:RDF>
  </metadata>
  <defs
     id="defs10" />
  <sodipodi:namedview
     pagecolor="#ffffff"
     bordercolor="#666666"
     borderopacity="1"
     objecttolerance="10"
     gridtolerance="10"
     guidetolerance="10"
     inkscape:pageopacity="0"
     inkscape:pageshadow="2"
     inkscape:window-width="2604"
     inkscape:window-height="1401"
     id="namedview8"
     showgrid="false"
     inkscape:pagecheckerboard="true"
     inkscape:showpageshadow="false"
     showborder="false"
     inkscape:zoom="2.345"
     inkscape:cx="-105.1434"
     inkscape:cy="232.31536"
     inkscape:window-x="0"
     inkscape:window-y="0"
     inkscape:window-maximized="0"
     inkscape:current-layer="svg6"
     inkscape:document-rotation="0" />
  <path
     d="M 78.49812,10.194686 C 63.279096,16.505685 49.341675,25.567632 37.967457,37.056886 25.311637,48.54614 16.500623,62.624522 10.092613,77.997467 3.8448037,93.370413 -2.2500001e-6,110.03792 -2.2500001e-6,128 c 0,17.96207 3.6846057500001,34.62958 10.0926152500001,50.00252 7.529412,15.37295 16.500626,29.45133 27.874844,40.94059 11.374218,11.48925 25.311639,20.38938 40.530663,26.8622 C 93.717144,252.1163 110.21777,256 128,256 c 17.78223,0 34.28285,-3.8837 49.50187,-10.19469 15.21903,-6.311 29.15645,-15.37295 40.53067,-26.8622 11.37422,-11.48926 21.46683,-25.56764 27.87484,-40.94059 C 252.15519,162.62958 256,145.96207 256,128 256,110.03792 252.31539,93.370413 245.90738,77.997467 238.37797,62.624522 229.40676,48.54614 218.03254,37.056886 206.65832,25.567632 192.7209,16.667505 177.50187,10.194686 162.28285,3.8836874 145.78223,-4.0800001e-6 128,-4.0800001e-6 110.21777,-4.0800001e-6 93.717144,3.8836874 78.49812,10.194686 Z m 96.44055,59.226296 c -9.42313,-9.05261 -8.97121,-26.190418 -8.97121,-38.351454 -4.38526,10.947236 -11.42638,34.147439 -22.90864,34.467762 -21.65044,-6.391164 -34.64007,-28.130419 -46.938672,-42.396965 5.126412,-2.589128 10.092612,-2.589128 15.219022,-3.883692 5.12641,-1.294564 11.37422,-1.294564 16.50063,-1.294564 19.06383,0 36.84605,3.883692 52.06508,12.783818 15.21902,9.061947 28.03504,21.845765 38.12766,35.924147 -11.36161,1.791919 -34.83545,10.175271 -43.09387,2.750948 z M 104.77096,81.557518 C 98.709673,93.742406 78.962477,94.75168 66.803502,95.79772 c 8.889832,3.67538 33.811258,13.90936 33.001252,24.43489 -2.557597,21.85815 -37.230138,39.16545 -46.938674,45.95702 18.545054,-6.4372 37.423836,-14.49868 52.06508,-15.53477 -18.465624,12.9175 -34.934226,26.43516 -53.186482,36.24779 l -11.374217,7.76738 c -6.40801,-10.19469 -11.374218,-20.5512 -15.219024,-30.74589 -3.844806,-11.48925 -5.126408,-23.14033 -5.126408,-34.62958 0,-11.48925 2.563204,-23.14033 5.126408,-33.335019 C 27.714641,85.76485 32.680849,75.40834 39.088859,66.508213 44.215267,57.608087 51.904879,48.70796 60.715892,42.235141 68.245304,34.467758 78.49812,29.451323 88.590736,25.567632 93.407717,35.685425 113.41274,64.185118 104.77096,81.557518 Z m 20.74132,63.196242 c 7.64403,-7.38358 15.01709,-13.73421 19.14854,-21.93202 -7.52624,3.74601 -13.61537,7.86677 -20.50563,10.35651 -4.02392,-3.23261 -6.75928,-2.4865 -10.25281,-2.58913 3.8448,-6.47282 3.42197,-11.97534 2.5632,-17.96207 -0.73325,-5.11165 -2.5632,-8.90013 -6.40801,-14.078382 6.24781,-3.721871 8.55532,-6.882063 11.37422,-11.489254 2.13068,-3.482377 3.8433,-8.1152 3.8448,-11.651074 5.12641,3.883691 10.60023,6.472819 16.50063,6.472819 5.90041,0 11.51534,-3.171585 16.50062,-6.472819 1.28161,2.589127 6.19534,6.740146 10.24941,8.542325 6.7626,3.006236 12.54423,3.108749 21.95084,3.108749 -10.88011,12.673036 -10.7297,28.176656 -10.09261,42.396966 -6.40801,1.29456 -12.65582,2.58913 -20.34543,6.47282 -6.05721,4.2296 -11.75005,9.94206 -15.37923,15.37294 -1.0982,-2.57077 -2.94536,-5.48579 -5.1264,-7.76738 -7.18481,8.31018 -12.81095,18.0442 -19.06383,25.56764 C 104.6524,187.80564 91.131144,206.94413 77.216518,225.41592 66.67837,220.1081 58.469997,212.94927 50.623277,205.02654 77.048965,185.1133 101.61744,164.0964 125.51228,144.75376 Z m -19.78012,90.76991 c -5.21206,-1.19202 -9.851079,-2.94284 -15.219021,-5.09131 13.892791,-21.328 25.466101,-38.84394 39.729661,-58.74083 5.33754,10.81653 4.19028,34.3306 5.12641,50.00252 5.09635,-19.15436 13.975,-62.64611 29.47684,-71.68647 17.08145,-9.30429 35.50183,1.04018 50.78348,7.76738 -14.86849,-15.12634 -28.50735,-34.50333 -16.66082,-53.7244 6.82774,-11.263348 15.67859,-21.589971 25.31164,-28.156759 3.6846,7.605563 6.24781,16.505689 8.81101,24.273069 2.56321,8.90013 3.84481,17.96208 3.84481,26.8622 0,14.07838 -2.40301,29.45133 -8.81102,42.23515 -6.24781,14.07838 -13.93742,25.72945 -24.03003,35.92414 -8.97122,10.19469 -21.62704,19.09482 -34.28286,24.27308 -12.65582,6.311 -26.59324,8.90012 -41.81226,8.90012 -6.40801,0 -14.97107,-1.16909 -22.26784,-2.83789 z"
     id="path2"
     sodipodi:nodetypes="sccscscssscscscssccccsscccacccccccsscccaccccacacacacccccccccaccccccccscccsa"
     style="stroke-width:1.61008" />
</svg>
