<?xml version="1.0" encoding="UTF-8" standalone="no"?>
<svg
   xmlns:dc="http://purl.org/dc/elements/1.1/"
   xmlns:cc="http://creativecommons.org/ns#"
   xmlns:rdf="http://www.w3.org/1999/02/22-rdf-syntax-ns#"
   xmlns:svg="http://www.w3.org/2000/svg"
   xmlns="http://www.w3.org/2000/svg"
   xmlns:sodipodi="http://sodipodi.sourceforge.net/DTD/sodipodi-0.dtd"
   xmlns:inkscape="http://www.inkscape.org/namespaces/inkscape"
   version="2.0"
   viewbox="0 0 256 256"
   id="svg6"
   sodipodi:docname="navigate.svg"
   inkscape:version="1.0.2-2 (e86c870879, 2021-01-15)">
  <metadata
     id="metadata12">
    <rdf:RDF>
      <cc:Work
         rdf:about="">
        <dc:format>image/svg+xml</dc:format>
        <dc:type
           rdf:resource="http://purl.org/dc/dcmitype/StillImage" />
        <dc:title />
      </cc:Work>
    </rdf:RDF>
  </metadata>
  <defs
     id="defs10" />
  <sodipodi:namedview
     pagecolor="#ffffff"
     bordercolor="#666666"
     borderopacity="1"
     objecttolerance="10"
     gridtolerance="10"
     guidetolerance="10"
     inkscape:pageopacity="0"
     inkscape:pageshadow="2"
     inkscape:window-width="1718"
     inkscape:window-height="1368"
     id="namedview8"
     showgrid="false"
     inkscape:pagecheckerboard="true"
     showborder="false"
     inkscape:zoom="2.4560175"
     inkscape:cx="120.78244"
     inkscape:cy="142.55815"
     inkscape:window-x="0"
     inkscape:window-y="0"
     inkscape:window-maximized="0"
     inkscape:current-layer="svg6"
     inkscape:document-rotation="0" />
  <path
     d="M 78.08,10.24 C 62.72,16.64 48.64,25.6 37.12,37.12 25.6,48.64 16.64,62.72 10.24,78.08 3.84,93.44 0,110.08 0,128 c 0,17.92 3.84,34.56 10.24,49.92 6.4,15.36 15.36,29.44 26.88,40.96 11.52,11.52 25.6,20.48 40.96,26.88 15.36,6.4 32,10.24 49.92,10.24 17.92,0 34.56,-3.84 49.92,-10.24 15.36,-6.4 29.44,-15.36 40.96,-26.88 11.52,-11.52 20.48,-25.6 26.88,-40.96 C 252.16,162.56 256,145.92 256,128 256,110.08 252.16,93.44 245.76,78.08 239.36,62.72 230.4,48.64 218.88,37.12 207.36,25.6 193.28,16.64 177.92,10.24 162.56,3.84 145.92,0 128,0 110.08,0 93.44,3.84 78.08,10.24 Z M 26.88,84.48 C 33.28,71.68 40.96,58.88 49.92,49.92 58.88,40.96 71.68,32 84.48,26.88 c 12.8,-6.4 28.16,-8.96 42.24,-8.96 14.08,0 29.44,2.56 43.52,8.96 14.08,6.4 25.6,14.08 34.56,23.04 8.96,8.96 17.92,21.76 23.04,34.56 6.4,12.8 8.96,28.16 8.96,43.52 0,2.56 0,6.4 0,8.96 0,2.56 0,5.12 -1.28,8.96 -3.84,1.28 -8.96,2.56 -16.64,3.84 -7.68,1.28 -14.08,2.56 -23.04,3.84 -7.68,1.28 -16.64,1.28 -24.32,2.56 -7.68,0 -14.08,0 -20.48,-2.56 -6.4,-2.56 -8.96,-5.12 -10.24,-8.96 -1.28,-3.84 0,-10.24 3.84,-17.92 l 28.16,6.4 -37.12,-66.56 -76.8,33.28 28.16,8.96 c -8.96,14.08 -14.08,28.16 -12.8,43.52 0,6.4 1.28,12.8 3.84,20.48 2.56,7.68 6.4,14.08 11.52,21.76 5.12,7.68 12.8,14.08 21.76,21.76 8.96,7.68 20.48,14.08 35.84,20.48 -3.84,1.28 -7.68,1.28 -10.24,1.28 -3.84,0 -7.68,0 -11.52,0 -15.36,0 -29.44,-2.56 -42.24,-8.96 C 70.4,222.72 57.6,215.04 48.64,206.08 38.4,195.84 30.72,184.32 25.6,171.52 19.2,158.72 16.64,143.36 16.64,128 c 0,-15.36 3.84,-29.44 10.24,-43.52 z"
     id="path2"
     style="stroke-width:1.6" />
</svg>
