<?xml version="1.0" encoding="UTF-8" standalone="no"?>
<svg
   xmlns:dc="http://purl.org/dc/elements/1.1/"
   xmlns:cc="http://creativecommons.org/ns#"
   xmlns:rdf="http://www.w3.org/1999/02/22-rdf-syntax-ns#"
   xmlns:svg="http://www.w3.org/2000/svg"
   xmlns="http://www.w3.org/2000/svg"
   xmlns:sodipodi="http://sodipodi.sourceforge.net/DTD/sodipodi-0.dtd"
   xmlns:inkscape="http://www.inkscape.org/namespaces/inkscape"
   version="2.0"
   viewbox="0 0 256 256"
   id="svg6"
   sodipodi:docname="repair.svg"
   inkscape:version="1.0.2-2 (e86c870879, 2021-01-15)">
  <metadata
     id="metadata12">
    <rdf:RDF>
      <cc:Work
         rdf:about="">
        <dc:format>image/svg+xml</dc:format>
        <dc:type
           rdf:resource="http://purl.org/dc/dcmitype/StillImage" />
        <dc:title />
      </cc:Work>
    </rdf:RDF>
  </metadata>
  <defs
     id="defs10" />
  <sodipodi:namedview
     pagecolor="#ffffff"
     bordercolor="#666666"
     borderopacity="1"
     objecttolerance="10"
     gridtolerance="10"
     guidetolerance="10"
     inkscape:pageopacity="0"
     inkscape:pageshadow="2"
     inkscape:window-width="1718"
     inkscape:window-height="1368"
     id="namedview8"
     showgrid="false"
     inkscape:pagecheckerboard="true"
     showborder="false"
     inkscape:zoom="2.4560175"
     inkscape:cx="61.604303"
     inkscape:cy="163.03653"
     inkscape:window-x="0"
     inkscape:window-y="0"
     inkscape:window-maximized="0"
     inkscape:current-layer="svg6"
     inkscape:document-rotation="0" />
  <g
     id="g4"
     transform="matrix(1.6,0,0,1.6,302.4,-507.2)">
    <path
       d="m -109,477 c 11.2,0 21.6,-2.4 31.2,-6.4 9.6,-4 18.4,-9.6 25.6,-16.8 7.2,-7.2 12.8,-16 16.8,-25.6 4,-9.6 6.4,-20 6.4,-31.2 0,-11.2 -2.4,-21.6 -6.4,-31.2 -4,-9.6 -9.6,-18.4 -16.8,-25.6 -7.2,-7.2 -16,-12.8 -25.6,-16.8 -9.6,-4 -20,-6.4 -31.2,-6.4 -11.2,0 -21.6,2.4 -31.2,6.4 -9.6,4 -18.4,9.6 -25.6,16.8 -7.2,7.2 -12.8,16 -16.8,25.6 -4,9.6 -6.4,20 -6.4,31.2 0,11.2 2.4,21.6 6.4,31.2 4,9.6 9.6,18.4 16.8,25.6 7.2,7.2 16,12.8 25.6,16.8 9.6,4 20,6.4 31.2,6.4 z m -68.8,-80 c 0,-10.4 2.4,-20.8 6.4,-29.6 4,-8.8 10.4,-16.8 18.4,-23.2 h 0.8 c 7.2,0.8 13.6,2.4 20,5.6 6.4,3.2 11.2,7.2 16,12.8 4.8,5.6 8,12 10.4,18.4 2.4,6.4 2.4,13.6 2.4,20.8 -0.8,6.4 -2.4,12.8 -4.8,18.4 -2.4,5.6 -6.4,10.4 -10.4,15.2 -4,4 -9.6,8 -15.2,10.4 -5.6,2.4 -12,4 -18.4,4.8 -8,-6.4 -13.6,-14.4 -18.4,-23.2 -4.8,-9.6 -7.2,-20 -7.2,-30.4 z m 68.8,-68.8 c 9.6,0 18.4,1.6 27.2,5.6 8.8,4 16,8.8 21.6,14.4 6.4,6.4 11.2,13.6 14.4,21.6 3.2,8 5.6,17.6 5.6,27.2 0,9.6 -1.6,18.4 -5.6,27.2 -4,8.8 -8.8,16 -14.4,21.6 -6.4,6.4 -13.6,11.2 -21.6,14.4 -10.041062,3.89058 -19.58437,5.6 -28.8,5.6 2.187,-1.91867 4.18042,-3.20436 6.4,-4.8 l -6.4,-8 c 4.68127,-4.04422 4.90709,-4.11474 7.2,-6.4 2.40401,-2.39599 4,-4.8 6.4,-7.2 l 8,5.6 c 2.4,-3.2 4,-6.4 5.6,-9.6 1.6,-3.2 3.2,-6.4 4,-9.6 l -8.8,-3.2 2.4,-9.6 c 0.8,-3.2 0.8,-6.4 1.6,-9.6 l 10.4,0.8 c -0.198484,-7.40869 -0.36205,-15.4131 -0.8,-21.6 l -10.4,1.6 c -1.351606,-7.49268 -2.951288,-12.18228 -5.6,-18.4 l 8.8,-4 c -4.09964,-7.2908 -7.812689,-12.86429 -12,-18.4 l -7.2,6.4 c -4.09068,-4.98311 -8.61353,-9.47357 -13.6,-12.8 z"
       id="path2"
       sodipodi:nodetypes="sssssssssssssssssssccssscscsccscssssssccccsccsccscccccccccc" />
  </g>
</svg>
