<?xml version="1.0" encoding="UTF-8" standalone="no"?>
<svg
   xmlns:dc="http://purl.org/dc/elements/1.1/"
   xmlns:cc="http://creativecommons.org/ns#"
   xmlns:rdf="http://www.w3.org/1999/02/22-rdf-syntax-ns#"
   xmlns:svg="http://www.w3.org/2000/svg"
   xmlns="http://www.w3.org/2000/svg"
   xmlns:sodipodi="http://sodipodi.sourceforge.net/DTD/sodipodi-0.dtd"
   xmlns:inkscape="http://www.inkscape.org/namespaces/inkscape"
   version="2.0"
   viewbox="0 0 256 256"
   id="svg6"
   sodipodi:docname="repair.svg"
   inkscape:version="1.0.2-2 (e86c870879, 2021-01-15)">
  <metadata
     id="metadata12">
    <rdf:RDF>
      <cc:Work
         rdf:about="">
        <dc:format>image/svg+xml</dc:format>
        <dc:type
           rdf:resource="http://purl.org/dc/dcmitype/StillImage" />
        <dc:title />
      </cc:Work>
    </rdf:RDF>
  </metadata>
  <defs
     id="defs10" />
  <sodipodi:namedview
     pagecolor="#ffffff"
     bordercolor="#666666"
     borderopacity="1"
     objecttolerance="10"
     gridtolerance="10"
     guidetolerance="10"
     inkscape:pageopacity="0"
     inkscape:pageshadow="2"
     inkscape:window-width="1718"
     inkscape:window-height="1368"
     id="namedview8"
     showgrid="false"
     inkscape:pagecheckerboard="true"
     showborder="false"
     inkscape:zoom="2.4560175"
     inkscape:cx="61.604303"
     inkscape:cy="163.03653"
     inkscape:window-x="0"
     inkscape:window-y="0"
     inkscape:window-maximized="0"
     inkscape:current-layer="svg6"
     inkscape:document-rotation="0" />
  <path
     d="m 128,256 c 17.92,0 34.56,-3.84 49.92,-10.24 15.36,-6.4 29.44,-15.36 40.96,-26.88 11.52,-11.52 20.48,-25.6 26.88,-40.96 C 252.16,162.56 256,145.92 256,128 256,110.08 252.16,93.44 245.76,78.08 239.36,62.72 230.4,48.64 218.88,37.12 207.36,25.6 193.28,16.64 177.92,10.24 162.56,3.84 145.92,0 128,0 110.08,0 93.44,3.84 78.08,10.24 62.72,16.64 48.64,25.6 37.12,37.12 25.6,48.64 16.64,62.72 10.24,78.08 3.84,93.44 0,110.08 0,128 c 0,17.92 3.84,34.56 10.24,49.92 6.4,15.36 15.36,29.44 26.88,40.96 11.52,11.52 25.6,20.48 40.96,26.88 15.36,6.4 32,10.24 49.92,10.24 z M 17.92,128 c 0,-16.64 3.84,-33.28 10.24,-47.36 C 34.56,66.56 44.8,53.76 57.6,43.52 h 1.28 c 11.52,1.28 21.76,3.84 32,8.96 10.24,5.12 17.92,11.52 25.6,20.48 7.68,8.96 12.8,19.2 16.64,29.44 3.84,10.24 3.84,21.76 3.84,33.28 -1.28,10.24 -3.84,20.48 -7.68,29.44 -3.84,8.96 -10.24,16.64 -16.64,24.32 -6.4,6.4 -15.36,12.8 -24.32,16.64 -8.96,3.84 -19.2,6.4 -29.44,7.68 C 46.08,203.52 37.12,190.72 29.44,176.64 21.76,161.28 17.92,144.64 17.92,128 Z M 128,17.92 c 15.36,0 29.44,2.56 43.52,8.96 14.08,6.4 25.6,14.08 34.56,23.04 10.24,10.24 17.92,21.76 23.04,34.56 5.12,12.8 8.96,28.16 8.96,43.52 0,15.36 -2.56,29.44 -8.96,43.52 -6.4,14.08 -14.08,25.6 -23.04,34.56 -10.24,10.24 -21.76,17.92 -34.56,23.04 -16.0657,6.22493 -31.33499,8.96 -46.08,8.96 3.4992,-3.06987 6.68867,-5.12698 10.24,-7.68 l -10.24,-12.8 c 7.49003,-6.47075 7.85134,-6.58358 11.52,-10.24 3.84642,-3.83358 6.4,-7.68 10.24,-11.52 l 12.8,8.96 c 3.84,-5.12 6.4,-10.24 8.96,-15.36 2.56,-5.12 5.12,-10.24 6.4,-15.36 l -14.08,-5.12 3.84,-15.36 c 1.28,-5.12 1.28,-10.24 2.56,-15.36 l 16.64,1.28 c -0.31757,-11.8539 -0.57928,-24.66096 -1.28,-34.56 l -16.64,2.56 c -2.16257,-11.988288 -4.72206,-19.491648 -8.96,-29.44 l 14.08,-6.4 C 164.96058,60.01472 159.0197,51.097136 152.32,42.24 L 140.8,52.48 C 134.25491,44.507024 127.01835,37.322288 119.04,32 Z"
     id="path2"
     sodipodi:nodetypes="sssssssssssssssssssccssscscsccscssssssccccsccsccscccccccccc"
     style="stroke-width:1.6" />
</svg>
