<?xml version="1.0" encoding="UTF-8" standalone="no"?>
<svg
   xmlns:dc="http://purl.org/dc/elements/1.1/"
   xmlns:cc="http://creativecommons.org/ns#"
   xmlns:rdf="http://www.w3.org/1999/02/22-rdf-syntax-ns#"
   xmlns:svg="http://www.w3.org/2000/svg"
   xmlns="http://www.w3.org/2000/svg"
   xmlns:sodipodi="http://sodipodi.sourceforge.net/DTD/sodipodi-0.dtd"
   xmlns:inkscape="http://www.inkscape.org/namespaces/inkscape"
   version="2.0"
   viewbox="0 0 256 256"
   id="svg6"
   sodipodi:docname="squadron.svg"
   inkscape:version="1.0.2-2 (e86c870879, 2021-01-15)">
  <metadata
     id="metadata12">
    <rdf:RDF>
      <cc:Work
         rdf:about="">
        <dc:format>image/svg+xml</dc:format>
        <dc:type
           rdf:resource="http://purl.org/dc/dcmitype/StillImage" />
        <dc:title />
      </cc:Work>
    </rdf:RDF>
  </metadata>
  <defs
     id="defs10" />
  <sodipodi:namedview
     pagecolor="#ffffff"
     bordercolor="#666666"
     borderopacity="1"
     objecttolerance="10"
     gridtolerance="10"
     guidetolerance="10"
     inkscape:pageopacity="0"
     inkscape:pageshadow="2"
     inkscape:window-width="2604"
     inkscape:window-height="1401"
     id="namedview8"
     showgrid="false"
     inkscape:pagecheckerboard="true"
     showborder="false"
     inkscape:zoom="4.69"
     inkscape:cx="90.298507"
     inkscape:cy="134.7015"
     inkscape:window-x="0"
     inkscape:window-y="0"
     inkscape:window-maximized="0"
     inkscape:current-layer="svg6"
     inkscape:document-rotation="0" />
  <path
     d="M 76.417912,92.16 92.975126,113.92 106.98508,48.64 52.218907,85.76 Z m 90.427858,19.2 20.37811,-64 -59.86069,32 25.47263,8.96 z m 1.27363,71.68 17.83085,20.48 6.36816,-66.56 -50.94527,43.52 z M 78.965176,10.24 C 63.681594,16.64 49.671644,25.6 38.208957,37.12 26.746271,48.64 17.830848,62.72 10.189057,78.08 3.8208974,93.44 1.88e-6,110.08 1.88e-6,128 c 0,17.92 3.82089552,34.56 10.18905512,49.92 6.368159,15.36 15.283582,29.44 28.0199,40.96 11.462687,11.52 25.472637,20.48 40.756219,26.88 15.283582,6.4 31.840794,10.24 49.671644,10.24 17.83084,0 34.38806,-3.84 49.67164,-10.24 15.28358,-6.4 29.29353,-15.36 40.75622,-26.88 11.46268,-11.52 20.37811,-25.6 26.74627,-40.96 C 252.17911,162.56 256,145.92 256,128 256,110.08 252.17911,93.44 245.81095,78.08 239.44279,62.72 230.52736,48.64 219.06468,37.12 207.60199,25.6 193.59204,16.64 178.30846,10.24 163.02488,3.84 146.46766,0 128.63682,0 110.80597,0 94.248758,3.84 78.965176,10.24 Z m 90.427864,186.88 -6.36816,-7.68 h -7.64179 c -6.80718,16.21459 -12.17723,33.31179 -16.55722,48.64 -14.61765,1.54422 -31.52799,-0.1687 -42.029848,-5.12 6.368158,-29.44 14.009948,-53.76 24.199008,-76.8 10.18905,-21.76 20.37811,-40.96 31.84079,-56.32 l -3.82089,-6.4 -10.18906,-2.56 c -14.46925,18.10834 -25.44254,37.77987 -35.66169,56.32 -12.572942,25.14034 -21.009925,51.04402 -29.293531,76.8 -11.462687,-6.4 -20.37811,-15.36 -29.293533,-25.6 3.820896,-17.92 8.915423,-34.56 15.283582,-51.2 6.36816,-15.36 11.462687,-29.44 19.104478,-42.24 L 73.870649,96 67.502489,94.72 c -6.368159,10.24 -12.736318,23.04 -19.104477,35.84 -6.368159,12.8 -12.736319,26.88 -17.830846,42.24 -2.547264,-6.4 -5.094527,-14.08 -6.368159,-21.76 -1.273632,-7.68 -2.547264,-15.36 -2.547264,-23.04 0,-15.36 2.547264,-29.44 8.915423,-42.24 C 35.661693,72.96 44.577116,61.44 53.492539,51.2 63.681594,40.96 75.14428,33.28 87.880599,28.16 100.61692,23.04 115.9005,19.2 131.18408,19.2 c 15.28358,0 29.29353,2.56 43.30348,8.96 12.73632,5.12 25.47264,14.08 34.38806,23.04 8.91543,8.96 17.83085,21.76 22.92538,34.56 6.36816,12.8 8.91542,26.88 8.91542,42.24 0,12.8 -2.54726,24.32 -6.36816,35.84 -3.8209,11.52 -8.91542,21.76 -16.55721,30.72 -7.64179,8.96 -15.28359,16.64 -24.19901,24.32 -8.91542,6.4 -20.37811,11.52 -30.56716,15.36 -0.23857,-13.25326 3.19973,-24.7076 6.36816,-37.12 z"
     id="path2"
     sodipodi:nodetypes="cccccccccccccccsscsscsssssssssssccccccccccccccccscssccsscscsssccc"
     style="stroke-width:1.59601" />
</svg>
