<?xml version="1.0" encoding="UTF-8" standalone="no"?>
<svg
   xmlns:dc="http://purl.org/dc/elements/1.1/"
   xmlns:cc="http://creativecommons.org/ns#"
   xmlns:rdf="http://www.w3.org/1999/02/22-rdf-syntax-ns#"
   xmlns:svg="http://www.w3.org/2000/svg"
   xmlns="http://www.w3.org/2000/svg"
   xmlns:sodipodi="http://sodipodi.sourceforge.net/DTD/sodipodi-0.dtd"
   xmlns:inkscape="http://www.inkscape.org/namespaces/inkscape"
   version="2.0"
   viewbox="0 0 256 256"
   id="svg6"
   sodipodi:docname="accuracy.svg"
   inkscape:version="1.0.2-2 (e86c870879, 2021-01-15)">
  <metadata
     id="metadata12">
    <rdf:RDF>
      <cc:Work
         rdf:about="">
        <dc:format>image/svg+xml</dc:format>
        <dc:type
           rdf:resource="http://purl.org/dc/dcmitype/StillImage" />
        <dc:title></dc:title>
      </cc:Work>
    </rdf:RDF>
  </metadata>
  <defs
     id="defs10" />
  <sodipodi:namedview
     pagecolor="#ffffff"
     bordercolor="#666666"
     borderopacity="1"
     objecttolerance="10"
     gridtolerance="10"
     guidetolerance="10"
     inkscape:pageopacity="0"
     inkscape:pageshadow="2"
     inkscape:window-width="2604"
     inkscape:window-height="2054"
     id="namedview8"
     showgrid="false"
     inkscape:pagecheckerboard="true"
     inkscape:showpageshadow="false"
     showborder="false"
     inkscape:zoom="4.69"
     inkscape:cx="64.712154"
     inkscape:cy="126.17271"
     inkscape:window-x="-10"
     inkscape:window-y="0"
     inkscape:window-maximized="0"
     inkscape:current-layer="svg6" />
  <g
     id="g4"
     transform="matrix(1.6,0,0,1.6,302.4,-528.32)">
    <path
       d="m -54.6,418.2 c 0.8,-4.8 1.719303,-8.50178 1.6,-12.8 -0.165443,-5.96055 -1.255568,-11.96309 -3.2,-17.6 -1.86706,-5.41261 -4.530123,-10.64564 -8,-15.2 -3.544347,-4.6521 -8.000968,-8.65729 -12.8,-12 -4.892898,-3.40809 -10.4,-6.4 -16,-8 l 8.8,-22.4 h -49.6 l 8.8,22.4 c -5.6,1.6 -11.13379,3.95586 -16,7.2 -4.86621,3.24414 -9.25565,7.3479 -12.8,12 -3.46988,4.55436 -6.13294,9.78739 -8,15.2 -1.94443,5.63691 -3.03456,11.63945 -3.2,17.6 -0.1193,4.29822 0.8,8 1.6,12.8 l -25.6,4.8 26.4,41.6 14.4,-19.2 c 4.8,5.6 11.03471,9.29543 17.6,12 6.77044,2.78908 14.27758,4 21.6,4 7.32242,0 14.829562,-1.21092 21.6,-4 6.565294,-2.70457 12,-7.2 17.6,-12 l 13.6,19.2 27.2,-41.6 z m -39.2,-8 15.2,22.4 c -4,4 -8,7.2 -13.6,9.6 -4.8,2.4 -10.4,4 -16.8,4 -6.4,0 -12,-1.6 -16.8,-4 -5.6,-2.4 -9.6,-5.6 -13.6,-9.6 l 16,-22.4 -25.6,4.8 c -0.8,-3.2 -0.97013,-6.92726 -0.8,-10.4 0.22525,-4.59787 0.89823,-9.24847 2.4,-13.6 1.47892,-4.28531 3.64216,-8.40202 6.4,-12 2.63976,-3.44392 5.89367,-6.48685 9.5,-8.9 3.68215,-2.46388 7.3,-4.7 12.1,-5.5 l 10.4,25.6 10.4,-25.6 c 4,1.6 8,3.2 12,5.6 4,2.4 7.2,5.6 9.6,8.8 2.4,3.2 4.8,7.2 6.4,11.2 1.6,4.8 2.4,8.8 2.4,13.6 0,2.4 -0.4,3.9 -0.6,5.4 -0.2,1.6 -0.7,3.3 -1,5 z"
       id="path2"
       sodipodi:nodetypes="caaaaccccaaaaccccaaacccccccsccccaaaacccsscsccc" />
  </g>
</svg>
