<?xml version="1.0" encoding="UTF-8" standalone="no"?>
<svg
   xmlns:dc="http://purl.org/dc/elements/1.1/"
   xmlns:cc="http://creativecommons.org/ns#"
   xmlns:rdf="http://www.w3.org/1999/02/22-rdf-syntax-ns#"
   xmlns:svg="http://www.w3.org/2000/svg"
   xmlns="http://www.w3.org/2000/svg"
   xmlns:sodipodi="http://sodipodi.sourceforge.net/DTD/sodipodi-0.dtd"
   xmlns:inkscape="http://www.inkscape.org/namespaces/inkscape"
   version="2.0"
   viewbox="0 0 256 256"
   id="svg6"
   sodipodi:docname="accuracy.svg"
   inkscape:version="1.0.2-2 (e86c870879, 2021-01-15)">
  <metadata
     id="metadata12">
    <rdf:RDF>
      <cc:Work
         rdf:about="">
        <dc:format>image/svg+xml</dc:format>
        <dc:type
           rdf:resource="http://purl.org/dc/dcmitype/StillImage" />
        <dc:title />
      </cc:Work>
    </rdf:RDF>
  </metadata>
  <defs
     id="defs10" />
  <sodipodi:namedview
     pagecolor="#ffffff"
     bordercolor="#666666"
     borderopacity="1"
     objecttolerance="10"
     gridtolerance="10"
     guidetolerance="10"
     inkscape:pageopacity="0"
     inkscape:pageshadow="2"
     inkscape:window-width="2604"
     inkscape:window-height="1401"
     id="namedview8"
     showgrid="false"
     inkscape:pagecheckerboard="true"
     inkscape:showpageshadow="false"
     showborder="false"
     inkscape:zoom="4.69"
     inkscape:cx="64.712154"
     inkscape:cy="126.17271"
     inkscape:window-x="0"
     inkscape:window-y="0"
     inkscape:window-maximized="0"
     inkscape:current-layer="svg6"
     inkscape:document-rotation="0" />
  <path
     d="m 215.04,140.8 c 1.28,-7.68 2.75088,-13.60285 2.56,-20.48 -0.26471,-9.53688 -2.00891,-19.14094 -5.12,-28.16 -2.9873,-8.660176 -7.2482,-17.033024 -12.8,-24.32 C 194.00904,60.39664 186.87845,53.988336 179.2,48.64 171.37136,43.187056 162.56,38.4 153.6,35.84 L 167.68,0 H 88.32 l 14.08,35.84 c -8.96,2.56 -17.814064,6.329376 -25.6,11.52 -7.785936,5.190624 -14.80904,11.75664 -20.48,19.2 -5.551808,7.286976 -9.812704,15.659824 -12.8,24.32 -3.111088,9.019056 -4.855296,18.62312 -5.12,28.16 -0.19088,6.87715 1.28,12.8 2.56,20.48 L 0,147.2 42.24,213.76 65.28,183.04 c 7.68,8.96 17.655536,14.87269 28.16,19.2 10.8327,4.46253 22.84413,6.4 34.56,6.4 11.71587,0 23.7273,-1.93747 34.56,-6.4 10.50447,-4.32731 19.2,-11.52 28.16,-19.2 L 212.48,213.76 256,147.2 Z m -62.72,-12.8 24.32,35.84 c -6.4,6.4 -12.8,11.52 -21.76,15.36 -7.68,3.84 -16.64,6.4 -26.88,6.4 -10.24,0 -19.2,-2.56 -26.88,-6.4 -8.96,-3.84 -15.36,-8.96 -21.76,-15.36 L 104.96,128 64,135.68 c -1.28,-5.12 -1.552208,-11.08362 -1.28,-16.64 0.3604,-7.35659 1.437168,-14.79755 3.84,-21.76 2.366272,-6.856496 5.827456,-13.443232 10.24,-19.2 4.223616,-5.510272 9.429872,-10.37896 15.2,-14.24 5.89144,-3.942208 11.68,-7.52 19.36,-8.8 L 128,96 144.64,55.04 c 6.4,2.56 12.8,5.12 19.2,8.96 6.4,3.84 11.52,8.96 15.36,14.08 3.84,5.12 7.68,11.52 10.24,17.92 2.56,7.68 3.84,14.08 3.84,21.76 0,3.84 -0.64,6.24 -0.96,8.64 -0.32,2.56 -1.12,5.28 -1.6,8 z"
     id="path2"
     sodipodi:nodetypes="caaaaccccaaaaccccaaacccccccsccccaaaacccsscsccc"
     style="stroke-width:1.6" />
</svg>
