<?xml version="1.0" encoding="UTF-8" standalone="no"?>
<svg
   xmlns:dc="http://purl.org/dc/elements/1.1/"
   xmlns:cc="http://creativecommons.org/ns#"
   xmlns:rdf="http://www.w3.org/1999/02/22-rdf-syntax-ns#"
   xmlns:svg="http://www.w3.org/2000/svg"
   xmlns="http://www.w3.org/2000/svg"
   xmlns:sodipodi="http://sodipodi.sourceforge.net/DTD/sodipodi-0.dtd"
   xmlns:inkscape="http://www.inkscape.org/namespaces/inkscape"
   version="2.0"
   viewbox="0 0 256 256"
   id="svg6"
   sodipodi:docname="critical.svg"
   inkscape:version="1.0.2-2 (e86c870879, 2021-01-15)">
  <metadata
     id="metadata12">
    <rdf:RDF>
      <cc:Work
         rdf:about="">
        <dc:format>image/svg+xml</dc:format>
        <dc:type
           rdf:resource="http://purl.org/dc/dcmitype/StillImage" />
        <dc:title />
      </cc:Work>
    </rdf:RDF>
  </metadata>
  <defs
     id="defs10" />
  <sodipodi:namedview
     pagecolor="#ffffff"
     bordercolor="#666666"
     borderopacity="1"
     objecttolerance="10"
     gridtolerance="10"
     guidetolerance="10"
     inkscape:pageopacity="0"
     inkscape:pageshadow="2"
     inkscape:window-width="2604"
     inkscape:window-height="1401"
     id="namedview8"
     showgrid="false"
     inkscape:pagecheckerboard="true"
     showborder="false"
     inkscape:zoom="4.69"
     inkscape:cx="100.42644"
     inkscape:cy="143.23028"
     inkscape:window-x="0"
     inkscape:window-y="0"
     inkscape:window-maximized="0"
     inkscape:current-layer="svg6"
     inkscape:document-rotation="0" />
  <path
     d="m 124.00499,32.918854 22.85144,48.099875 39.31086,-26.526841 -17.73783,39.310861 41.70787,6.392011 -26.52685,13.90262 L 203.90512,128 c 0,-2.5568 1.2784,-5.11361 1.2784,-7.67041 1.2784,-2.5568 1.2784,-5.11361 1.2784,-7.67041 L 232.98876,97.478155 202.62671,86.132337 c -2.5568,-6.39201 -5.1136,-12.62422 -8.78901,-17.737828 l 11.34582,-36.754057 -36.75406,16.459426 c -2.5568,-1.278402 -6.39201,-2.556804 -10.06741,-3.835206 -3.83521,0 -7.67042,-1.278402 -11.34582,-1.278402 L 114.09738,2.5e-6 108.98377,49.37828 c -1.2784,0 -2.55681,1.278402 -5.11361,2.556804 -2.5568,1.278402 -3.83521,2.556804 -5.113608,3.835206 L 121.60799,72.229715 Z M 111.38077,216.36954 102.59176,174.66168 79.740322,191.1211 91.08614,163.31586 55.610485,165.87266 82.137326,146.85643 45.383268,134.23221 65.6779,130.39701 49.218474,119.05119 c 0,1.2784 0,2.5568 0,2.5568 v 1.2784 l -32.918851,11.34582 31.640449,8.78902 c 1.278403,1.2784 1.278403,3.8352 1.278403,5.1136 0,1.27841 1.278402,3.83521 1.278402,5.11361 L 10.067413,187.4457 62.002495,174.82148 c 1.278402,2.5568 2.556803,3.8352 3.835206,5.1136 1.278402,1.27841 2.556804,2.55681 3.835206,3.83521 l -7.670412,31.64045 27.805243,-17.73783 8.789014,2.55681 L 107.38577,256 130.2372,200.22972 c 3.83521,-1.27841 7.67041,-2.55681 11.34582,-3.83521 3.8352,-1.2784 6.39201,-2.5568 10.06741,-5.11361 l 10.06742,2.55681 L 128.799,170.98627 Z M -2.5e-6,41.707868 121.44819,134.07241 242.89638,193.51811 136.62921,109.94257 Z"
     id="path2"
     style="stroke-width:1.598" />
</svg>
