<?xml version="1.0" encoding="UTF-8" standalone="no"?>
<svg
   xmlns:dc="http://purl.org/dc/elements/1.1/"
   xmlns:cc="http://creativecommons.org/ns#"
   xmlns:rdf="http://www.w3.org/1999/02/22-rdf-syntax-ns#"
   xmlns:svg="http://www.w3.org/2000/svg"
   xmlns="http://www.w3.org/2000/svg"
   xmlns:sodipodi="http://sodipodi.sourceforge.net/DTD/sodipodi-0.dtd"
   xmlns:inkscape="http://www.inkscape.org/namespaces/inkscape"
   version="2.0"
   viewbox="0 0 256 256"
   id="svg6"
   sodipodi:docname="hit.svg"
   inkscape:version="1.0.2-2 (e86c870879, 2021-01-15)">
  <metadata
     id="metadata12">
    <rdf:RDF>
      <cc:Work
         rdf:about="">
        <dc:format>image/svg+xml</dc:format>
        <dc:type
           rdf:resource="http://purl.org/dc/dcmitype/StillImage" />
        <dc:title></dc:title>
      </cc:Work>
    </rdf:RDF>
  </metadata>
  <defs
     id="defs10" />
  <sodipodi:namedview
     pagecolor="#ffffff"
     bordercolor="#666666"
     borderopacity="1"
     objecttolerance="10"
     gridtolerance="10"
     guidetolerance="10"
     inkscape:pageopacity="0"
     inkscape:pageshadow="2"
     inkscape:window-width="1718"
     inkscape:window-height="1368"
     id="namedview8"
     showgrid="false"
     inkscape:pagecheckerboard="true"
     showborder="false"
     inkscape:zoom="3.4733333"
     inkscape:cx="150"
     inkscape:cy="75"
     inkscape:window-x="-7"
     inkscape:window-y="0"
     inkscape:window-maximized="0"
     inkscape:current-layer="svg6" />
  <g
     id="g4"
     transform="translate(189.1,-320.5)">
    <path
       d="m -69.4,439.4 c -2.4,-5.5 -4,-11.1 -4,-15.1 0,-4 2.4,-7.9 7.1,-10.3 4,-2.4 11.9,-4 23,-4.8 -10.3,-3.2 -17.4,-7.1 -21.4,-11.9 -3.2,-4.8 -4,-11.1 -2.4,-18.2 1.6,-7.1 5.5,-15.8 12.7,-25.3 7.1,-9.5 15.8,-20.6 25.3,-33.3 -12.7,9.5 -23.8,17.4 -33.3,23.8 -10.3,6.3 -19,10.3 -26.1,11.9 -7.9,1.6 -14.3,0.8 -19,-3.2 -5.5,-4 -9.5,-11.1 -11.9,-22.2 -0.8,10.3 -2.4,19 -4.8,23.8 -2.4,4.8 -5.5,7.9 -9.5,8.7 -4,0.8 -8.7,0 -14.3,-2.4 -5.5,-2.4 -11.9,-5.5 -18.2,-9.5 4,6.3 7.1,12.7 9.5,18.2 2.4,5.5 3.2,10.3 2.4,14.3 -0.8,4 -4,7.9 -8.7,10.3 -4.8,3.2 -12.7,4.8 -23,5.5 10.3,3.2 17.4,5.5 21.4,9.5 4,3.2 6.3,7.9 4.8,13.5 -1.6,5.5 -4,11.9 -9.5,19.8 -4.8,7.1 -11.9,16.6 -19.8,27.7 11.1,-7.9 20.6,-14.3 28.5,-19 7.9,-4.8 15.8,-6.3 21.4,-7.1 5.5,-0.8 11.1,1.6 15.1,6.3 4,4.8 7.9,11.9 10.3,23 0.8,-10.3 3.2,-18.2 6.3,-23 3.2,-4.8 7.1,-7.1 11.9,-7.9 4.8,-0.8 9.5,0 15.8,3.2 6.3,2.4 12.7,6.3 19,10.3 -3.8,-7.1 -7,-12.7 -8.6,-16.6 z"
       id="path2" />
  </g>
</svg>
