<?xml version="1.0" encoding="UTF-8" standalone="no"?>
<svg
   xmlns:dc="http://purl.org/dc/elements/1.1/"
   xmlns:cc="http://creativecommons.org/ns#"
   xmlns:rdf="http://www.w3.org/1999/02/22-rdf-syntax-ns#"
   xmlns:svg="http://www.w3.org/2000/svg"
   xmlns="http://www.w3.org/2000/svg"
   xmlns:sodipodi="http://sodipodi.sourceforge.net/DTD/sodipodi-0.dtd"
   xmlns:inkscape="http://www.inkscape.org/namespaces/inkscape"
   version="2.0"
   viewbox="0 0 256 256"
   id="svg6"
   sodipodi:docname="hit.svg"
   inkscape:version="1.0.2-2 (e86c870879, 2021-01-15)">
  <metadata
     id="metadata12">
    <rdf:RDF>
      <cc:Work
         rdf:about="">
        <dc:format>image/svg+xml</dc:format>
        <dc:type
           rdf:resource="http://purl.org/dc/dcmitype/StillImage" />
        <dc:title />
      </cc:Work>
    </rdf:RDF>
  </metadata>
  <defs
     id="defs10" />
  <sodipodi:namedview
     pagecolor="#ffffff"
     bordercolor="#666666"
     borderopacity="1"
     objecttolerance="10"
     gridtolerance="10"
     guidetolerance="10"
     inkscape:pageopacity="0"
     inkscape:pageshadow="2"
     inkscape:window-width="1718"
     inkscape:window-height="1368"
     id="namedview8"
     showgrid="false"
     inkscape:pagecheckerboard="true"
     showborder="false"
     inkscape:zoom="3.4733333"
     inkscape:cx="150"
     inkscape:cy="75"
     inkscape:window-x="0"
     inkscape:window-y="0"
     inkscape:window-maximized="0"
     inkscape:current-layer="svg6"
     inkscape:document-rotation="0" />
  <path
     d="m 191.52,190.24 c -3.84,-8.8 -6.4,-17.76 -6.4,-24.16 0,-6.4 3.84,-12.64 11.36,-16.48 6.4,-3.84 19.04,-6.4 36.8,-7.68 -16.48,-5.12 -27.84,-11.36 -34.24,-19.04 -5.12,-7.68 -6.4,-17.76 -3.84,-29.12 C 197.76,82.4 204,68.48 215.52,53.28 226.88,38.08 240.8,20.32 256,0 c -20.32,15.2 -38.08,27.84 -53.28,38.08 -16.48,10.08 -30.4,16.48 -41.76,19.04 -12.64,2.56 -22.88,1.28 -30.4,-5.12 -8.8,-6.4 -15.2,-17.76 -19.04,-35.52 -1.28,16.48 -3.84,30.4 -7.68,38.08 -3.84,7.68 -8.8,12.64 -15.2,13.92 -6.4,1.28 -13.92,0 -22.88,-3.84 -8.8,-3.84 -19.04,-8.8 -29.12,-15.2 6.4,10.08 11.36,20.32 15.2,29.12 3.84,8.8 5.12,16.48 3.84,22.88 -1.28,6.4 -6.4,12.64 -13.92,16.48 -7.68,5.12 -20.32,7.68 -36.8,8.8 16.48,5.12 27.84,8.8 34.24,15.2 6.4,5.12 10.08,12.64 7.68,21.6 -2.56,8.8 -6.4,19.04 -15.2,31.68 C 24,206.56 12.64,221.76 0,239.52 c 17.76,-12.64 32.96,-22.88 45.6,-30.4 12.64,-7.68 25.28,-10.08 34.24,-11.36 8.8,-1.28 17.76,2.56 24.16,10.08 6.4,7.68 12.64,19.04 16.48,36.8 1.28,-16.48 5.12,-29.12 10.08,-36.8 5.12,-7.68 11.36,-11.36 19.04,-12.64 7.68,-1.28 15.2,0 25.28,5.12 10.08,3.84 20.32,10.08 30.4,16.48 -6.08,-11.36 -11.2,-20.32 -13.76,-26.56 z"
     id="path2"
     style="stroke-width:1.6" />
</svg>
