<svg version="2.0" xmlns="http://www.w3.org/2000/svg" viewbox="0 0 256 256">
   <path d="M 245.80531,177.50188 C 252.27812,162.28285 256,145.78223 256,128 256,110.21777 252.1163,93.717146 245.80531,78.498123 239.33249,63.279099 230.43236,49.341677 218.94311,37.967459 207.45385,26.593242 193.37547,17.622028 178.00253,10.092616 162.62958,3.6846058 145.96208,0 128,0 110.03792,0 93.370415,3.844806 77.997471,10.092616 62.624525,16.500626 48.546143,26.593242 37.056889,37.967459 25.567636,49.341677 16.505689,63.279099 10.19469,78.498123 3.8836915,93.717146 0,110.21777 0,128 c 0,16.50063 3.8836915,33.00125 10.19469,49.50188 6.472819,15.21902 15.372946,29.15644 26.862199,40.53066 11.489254,11.37422 25.567636,20.34543 40.940582,27.87484 C 93.370415,252.31539 110.03792,256 128,256 c 17.96208,0 34.62958,-3.84481 50.00253,-10.09262 15.37294,-6.40801 29.45132,-16.50062 40.94058,-27.87484 11.48925,-11.37422 20.38938,-25.31164 26.8622,-40.53066 z" />
</svg>
