<svg version="2.0" xmlns="http://www.w3.org/2000/svg" viewbox="0 0 256 256">
   <path d="M 160,202.24 H 94.72 L 75.52,236.8 H 179.2 Z M 71.68,188.16 38.4,133.12 H 0 l 51.2,89.6 z M 256,131.84 h -39.68 l -32,55.04 20.48,34.56 z M 96,174.08 h 65.28 l 32,-56.32 -32,-56.32 H 96 l -32,56.32 z m 51.2,-89.6 19.2,33.28 -19.2,33.28 H 108.8 L 89.6,117.76 108.8,84.48 Z M 0,103.68 H 38.4 L 70.4,48.64 51.2,14.08 Z m 184.32,-55.04 32,55.04 H 256 L 204.8,14.08 Z M 96,34.56 h 65.28 L 180.48,0 H 76.8 Z" />
</svg>
