<svg version="2.0" xmlns="http://www.w3.org/2000/svg" viewbox="0 0 256 256">
	<g>
		<path d="M 153.53122,42.457954 A 25.531353,25.531353 0 0 1 127.99987,67.989307 25.531353,25.531353 0 0 1 102.46852,42.457954 25.531353,25.531353 0 0 1 127.99987,16.926601 25.531353,25.531353 0 0 1 153.53122,42.457954 Z" />
		<path d="M 80.065412,0 C 40.305654,11.301746 21.376648,34.208981 19.944128,54.310735 c -1.43253,20.101754 -0.55055,23.670417 6.288076,39.904719 4.202167,9.975596 12.752192,17.725286 10.701275,21.512146 -2.897164,5.34938 -22.714452,-4.71439 -36.4602713,-26.451798 -3.8897269,24.322538 16.9910483,49.342208 33.6440433,57.974378 16.652994,8.63218 20.866593,7.3828 21.279255,11.48606 0.412673,4.10327 -14.276428,7.66686 -25.663099,4.44451 21.214306,20.29507 37.809119,29.41519 60.637952,37.29008 12.292371,4.24029 32.591551,6.73029 34.556031,6.11781 1.70988,-0.53312 2.16804,-1.36108 3.01194,-1.77116 0.0233,0 0.0383,0.009 0.0606,0.01 0.0223,-8.1e-4 0.0374,-0.01 0.0607,-0.01 0.84389,0.41008 1.30206,1.23804 3.01194,1.77116 1.96448,0.61248 22.26367,-1.87752 34.55604,-6.11781 22.82883,-7.87489 39.42364,-16.99501 60.63794,-37.29008 -11.38667,3.22235 -26.07577,-0.34124 -25.6631,-4.44451 0.41267,-4.10326 4.62627,-2.85388 21.27926,-11.48606 16.653,-8.63217 37.53377,-33.65184 33.64404,-57.974378 -13.74582,21.737408 -33.56311,31.801178 -36.46027,26.451798 -2.05092,-3.78686 6.49911,-11.53655 10.70128,-21.512146 6.83862,-16.234301 7.7206,-19.802965 6.28807,-39.904719 C 234.62335,34.208981 215.69435,11.301746 175.93459,0 c 12.86102,8.2030209 22.24283,18.905458 22.44567,34.532554 0.21147,16.292656 -8.53404,33.27707 -24.7511,48.59021 19.38987,21.022746 15.24398,56.555966 0.3738,75.775916 -12.04783,15.57202 -32.78828,33.86782 -45.42563,36.31544 -0.18543,0.007 -0.38199,-4e-5 -0.57733,-0.006 -0.19535,0.006 -0.3919,0.0129 -0.57734,0.006 C 114.78532,192.7665 94.044878,174.4707 81.997043,158.89868 67.126865,139.67873 62.980968,104.14551 82.370844,83.122764 66.153779,67.809624 57.408275,50.82521 57.619741,34.532554 57.82258,18.905458 67.204388,8.2030209 80.065412,0 Z" />
	</g>
</svg>
