<svg version="2.0" xmlns="http://www.w3.org/2000/svg" viewbox="0 0 256 256">
   <path d="M 128,28.16 C 104.96,28.16 83.2,25.6 61.44,20.48 40.96,15.36 20.48,8.96 0,0 17.92,12.8 33.28,26.88 48.64,43.52 62.72,58.88 75.52,76.8 87.04,96 c 10.24,19.2 19.2,38.4 26.88,60.16 7.68,20.48 11.52,43.52 14.08,65.28 2.56,-21.76 6.4,-43.52 14.08,-65.28 6.4,-21.76 16.64,-42.24 26.88,-60.16 11.52,-19.2 24.32,-35.84 38.4,-52.48 C 222.72,26.88 238.08,12.8 256,0 236.8,8.96 216.32,15.36 194.56,20.48 172.8,24.32 151.04,26.88 128,28.16 Z" />
</svg>
