<svg version="2.0" xmlns="http://www.w3.org/2000/svg" viewbox="0 0 256 256">
    <g>
        <path d="m 98.320312,40.519531 c -54.253329,0 -98.36523505,44.111905 -98.36523387,98.365239 2.35e-6,54.25332 44.11190687,98.36523 98.36523387,98.36523 54.253328,0 98.365228,-44.11191 98.365238,-98.36523 0,-54.253335 -44.11191,-98.36524 -98.365238,-98.365239 z m 0,12.240235 c 47.638398,-10e-7 86.124998,38.486602 86.124998,86.125004 0,47.63839 -38.4866,86.125 -86.124998,86.125 -47.638394,0 -86.124997,-38.48661 -86.125,-86.125 -10e-7,-47.638401 38.486604,-86.125004 86.125,-86.125004 z" />
        <path d="m 207.36,172.8 -87.04,-14.08 32,-47.36 -44.8,33.28 L 103.68,0 H 93.44 l -6.4,153.6 -61.44,-15.36 52.48,35.84 -23.04,33.28 33.28,-16.64 1.28,5.12 -0.128369,59.94407 L 108.8,249.6 v -55.04 l 51.2,38.4 -40.96,-52.48 z" />
    </g>
</svg>
