<svg version="2.0" xmlns="http://www.w3.org/2000/svg" viewbox="0 0 256 256">
<path d="m 192,168.96 c 3.84,-10.24 5.12,-19.2 5.12,-30.72 0,-12.8 -2.56,-24.32 -7.68,-35.84 C 185.6,90.88 179.2,80.64 170.24,71.68 162.56,62.72 152.32,55.04 140.8,49.92 129.28,44.8 117.76,40.96 104.96,40.96 L 103.68,0 H 93.44 l -1.28,40.96 c -12.8,0 -24.32,3.84 -35.84,8.96 C 44.8,56.32 34.56,62.72 26.88,71.68 19.2,80.64 11.52,90.88 7.68,102.4 2.56,112.64 0,125.44 0,138.24 c 0,12.8 2.56,24.32 6.4,35.84 5.12,10.24 11.52,20.48 19.2,29.44 8.96,8.96 17.92,16.64 28.16,21.76 11.52,5.12 21.76,8.96 34.56,10.24 V 256 l 20.48,-6.4 v -14.08 c 7.68,0 14.08,-2.56 20.48,-3.84 6.4,-1.28 12.8,-3.84 17.92,-7.68 l 12.8,8.96 -8.96,-11.52 c 8.96,-5.12 16.64,-12.8 23.04,-20.48 6.4,-7.68 11.52,-16.64 15.36,-26.88 l 17.92,-1.28 z m -166.4,-30.72 52.48,35.84 -23.04,33.28 33.28,-16.64 1.28,5.12 v 33.28 c -10.24,-1.28 -20.48,-3.84 -29.44,-8.96 -10.24,-5.12 -17.92,-11.52 -24.32,-19.2 -7.68,-7.68 -12.8,-16.64 -16.64,-26.88 -3.84,-10.24 -6.4,-20.48 -6.4,-32 0,-11.52 2.56,-21.76 6.4,-32 3.84,-10.24 8.96,-19.2 16.64,-26.88 6.4,-8.96 15.36,-15.36 24.32,-19.2 8.96,-5.12 19.2,-7.68 30.72,-8.96 l -3.84,98.56 z m 126.72,-26.88 -44.8,33.28 -3.84,-90.88 c 11.52,1.28 23.04,3.84 32,8.96 10.24,5.12 17.92,11.52 25.6,19.2 6.4,7.68 12.8,16.64 16.64,26.88 3.84,10.24 6.4,20.48 6.4,32 0,10.24 -1.28,19.2 -5.12,28.16 l -58.88,-10.24 z m 24.32,64 c -3.84,7.68 -7.68,15.36 -14.08,21.76 -5.12,6.4 -11.52,11.52 -19.2,16.64 l -24.32,-33.28 z m -38.4,40.96 c -5.12,3.84 -8.96,5.12 -14.08,6.4 -3.84,2.56 -8.96,2.56 -15.36,3.84 v -32 z" />
</svg>
