<svg version="2.0"  xmlns="http://www.w3.org/2000/svg" viewbox="0 0 256 256">
	<path d="M 249.6,38.24 C 239.36,43.52 228,47.36 217.76,51.04 207.52,35.68 194.88,23.04 178.24,14.08 162.88,5.12 143.84,0 126.08,0 108.32,0 90.4,5.12 73.92,14.08 57.44,23.04 44.64,35.68 34.4,51.04 22.88,47.2 11.52,43.36 0,38.24 c 10.24,7.68 19.84,16.32 27.52,23.84 -7.68,15.36 -11.04,30.88 -11.04,47.36 0,29.28 8.96,54.72 29.28,75.2 19.04,21.6 43.36,33.12 72.64,34.4 2.56,11.52 5.12,24.16 6.4,36.96 1.28,-11.52 3.84,-24.16 6.4,-36.96 28,-2.56 52.16,-14.08 72.64,-34.4 19.04,-21.6 29.28,-45.92 29.28,-75.2 0,-17.76 -3.84,-33.12 -11.52,-48.32 8.96,-7.68 17.76,-15.36 28,-22.88 z M 78.88,25.6 c 14.08,-7.68 28,-11.52 44.64,-11.52 16.64,0 31.84,3.84 44.64,12.8 14.08,7.68 25.44,17.76 34.4,30.56 -6.4,2.56 -10.24,2.88 -14.08,3.84 -20,5.28 -42.08,6.4 -64.96,6.4 C 100.64,67.68 78.88,65.12 58.56,60 53.44,58.72 48.32,57.44 44.48,56.16 53.44,43.36 64.8,33.28 78.88,25.6 Z M 92,202.4 C 70.4,195.36 57.6,181.76 52.32,176 35.84,158.24 26.88,136.48 26.88,111.04 c -0.16,-14.08 2.88,-29.12 8,-41.76 0,0 9.12,9.12 11.68,12.16 11.36,13.28 23.68,29.92 36.32,51.2 16.64,27.84 26.24,53.76 31.84,73.92 -5.6,-0.32 -13.6,-1.28 -22.72,-4.16 z m 32.8,-4 C 114.24,157.92 80.32,100.8 46.56,67.2 c 63.36,11.36 103.84,12.64 158.56,-0.8 -43.04,33.44 -64.8,86.72 -80.32,132 z M 195.04,176 c -2.88,3.04 -8,8.32 -15.36,13.28 -17.44,12.16 -35.04,16 -46.56,17.28 8.96,-27.04 16.96,-48.32 28.96,-72.32 8.48,-16.96 24.16,-35.52 40.32,-52.48 3.36,-3.52 6.88,-7.04 10.24,-10.24 5.12,12.8 7.68,25.44 7.68,39.52 0.16,25.44 -8.8,47.2 -25.28,64.96 z" />
</svg>
