<svg version="2.0" xmlns="http://www.w3.org/2000/svg" viewbox="0 0 256 256">
	<path d="m 33.001252,116.94618 -3.844806,-1.2816 c -2.563204,-1.2816 -5.126408,-2.5632 -7.689612,-3.84481 -3.844806,-2.5632 -6.40801,-5.1264 -10.092616,-8.81101 C 7.5294118,99.163955 3.6846058,94.197747 0,87.789737 v 3.844806 7.689612 c 1.281602,6.408015 2.563204,12.655815 6.40801,17.782225 2.563204,5.12641 6.40801,10.09262 10.092616,13.93742 3.844806,3.84481 7.689612,7.68962 11.374218,10.09262 3.844806,2.5632 7.689612,5.12641 11.374217,6.40801 5.126408,2.5632 7.689612,3.84481 8.811014,3.84481 l 3.844806,1.2816 2.563204,1.2816 v 2.5632 l -2.563204,2.56321 -6.40801,2.5632 c -2.563204,0 -5.126408,0 -7.689612,0 -2.563204,0 -6.40801,0 -8.811014,-1.2816 1.281602,1.2816 2.563204,2.5632 6.40801,6.40801 3.844806,2.5632 6.40801,5.12641 10.092616,7.68961 2.563204,2.56321 6.40801,5.12641 12.65582,8.81102 3.844806,2.5632 10.092616,5.1264 15.219024,7.68961 5.126408,2.5632 11.374217,5.12641 17.782227,6.40801 5.126408,1.2816 10.092618,2.5632 16.500628,3.8448 6.40801,1.28161 10.09261,1.28161 12.65582,1.28161 3.8448,0 5.12641,0 6.40801,-1.28161 v 0 H 128 v 0 c 0,1.28161 2.5632,1.28161 6.40801,1.28161 2.5632,0 7.68961,0 12.65582,-1.28161 6.40801,-1.2816 12.65582,-2.5632 16.50063,-3.8448 6.40801,-1.2816 12.65582,-3.84481 17.78222,-6.40801 6.40801,-2.56321 11.37422,-5.12641 15.21903,-7.68961 6.40801,-3.84481 10.09261,-6.40801 12.65582,-8.81102 3.8448,-2.5632 6.40801,-5.12641 10.09261,-7.68961 3.84481,-3.84481 6.40801,-5.12641 6.40801,-6.40801 -3.8448,1.2816 -6.40801,1.2816 -8.81101,1.2816 -2.403,0 -5.12641,0 -7.68961,0 l -6.40801,-2.5632 -2.56321,-2.56321 1.2816,-2.5632 2.56321,-1.2816 3.8448,-1.2816 c 1.28161,0 3.84481,-1.28161 8.81102,-3.84481 3.8448,-2.5632 7.68961,-3.84481 11.37422,-6.40801 3.8448,-2.5632 8.81101,-6.40801 11.37421,-10.09262 3.84481,-3.8448 7.68962,-8.81101 10.09262,-13.93742 2.5632,-5.12641 5.12641,-11.37421 6.40801,-19.063827 v -7.689612 -3.844806 c -3.84481,6.40801 -7.68961,10.092616 -11.37422,15.219025 -3.8448,3.8448 -6.40801,6.40801 -10.09261,8.81101 -2.56321,1.2816 -5.12641,2.56321 -7.68962,3.84481 l -3.8448,1.2816 -3.84481,-1.2816 v -3.84481 c 1.2816,-3.8448 3.84481,-6.40801 3.84481,-7.68961 l 2.5632,-3.844805 c 0,0 1.2816,-1.281602 2.56321,-3.844806 5.1264,-6.40801 7.68961,-13.937422 7.68961,-22.908636 1.2816,-8.811014 0,-17.782228 -2.56321,-26.593242 -2.5632,-6.40801 -5.1264,-11.374217 -8.81101,-16.500625 -3.84481,-3.844806 -7.68961,-8.811014 -13.93742,-12.65582 -5.12641,-3.844806 -11.37422,-6.40801 -16.50063,-8.811014 -5.1264,-2.563204 -11.37421,-5.126408 -17.78222,-6.40801 h -1.28161 c 6.40801,3.844806 11.37422,7.689612 15.21903,12.65582 3.8448,5.126408 6.40801,8.811014 6.40801,13.937422 1.2816,5.126408 1.2816,8.811013 1.2816,13.937421 -1.2816,5.126408 -2.5632,10.092616 -3.84481,12.65582 -3.8448,10.092616 -10.09261,19.06383 -20.34543,29.156446 6.40801,11.374217 10.09262,21.627029 11.37422,30.438049 1.2816,10.09261 0,19.06383 -2.5632,26.59324 -2.56321,7.68961 -6.40801,15.21902 -11.37422,21.62703 -4.96621,6.40801 -11.37422,12.65582 -16.50063,16.50063 -5.12641,5.12641 -10.09261,8.81101 -15.21902,11.37422 -5.12641,2.5632 -8.81102,5.12641 -10.09262,5.12641 h -2.5632 c -1.2816,0 -5.12641,-2.56321 -10.09262,-5.12641 -5.12641,-2.56321 -10.09261,-6.40801 -15.21902,-11.37422 -5.12641,-3.84481 -10.092617,-10.09262 -16.500627,-16.50063 -5.126408,-6.40801 -8.811014,-13.93742 -11.374218,-21.62703 -2.563204,-7.68961 -3.844806,-16.50063 -2.563204,-26.59324 1.281602,-8.81102 5.126408,-20.345434 11.374218,-31.719651 -8.811014,-10.092616 -16.500626,-19.06383 -20.345432,-29.156446 -1.281602,-3.844806 -2.563204,-7.689612 -3.844806,-12.65582 -1.281602,-5.126408 0,-8.811013 1.281602,-13.937421 1.281602,-3.844806 3.844806,-8.811014 6.40801,-13.937422 C 69.687109,7.5294118 73.531915,3.844806 81.061327,0 h -2.563204 c -5.126408,2.563204 -11.374218,3.844806 -17.782228,6.40801 -5.126408,2.563204 -10.092616,5.126408 -16.500626,8.811014 -5.126408,3.844806 -10.092616,7.689612 -13.937422,12.65582 -3.844806,5.126408 -6.40801,10.092615 -8.811013,16.500625 -2.563204,8.811014 -3.844806,17.782228 -2.563204,26.593242 1.281602,8.811014 3.844806,16.500626 7.689612,22.908636 0,0 1.281602,1.281602 2.563204,3.844806 l 2.563204,3.844807 c 1.281602,1.2816 2.563204,3.8448 5.126408,7.68961 v 3.84481 z M 116.78598,66.162703 c 2.56321,1.281602 6.40801,1.281602 10.09262,1.281602 3.8448,0 7.68961,0 10.09261,-1.281602 2.56321,-1.281602 6.40801,-3.844806 7.68962,-5.126408 2.5632,-2.563204 3.8448,-5.126408 5.1264,-7.689612 1.28161,-2.563204 2.56321,-6.40801 2.56321,-10.092615 0,-3.684606 -1.2816,-6.40801 -2.56321,-10.092616 -1.2816,-2.563204 -2.5632,-5.126408 -5.1264,-7.689612 -2.56321,-2.563204 -5.12641,-3.844806 -7.68962,-5.126408 -3.8448,-1.281602 -6.40801,-1.281602 -10.09261,-1.281602 -3.84481,0 -6.40801,0 -10.09262,1.281602 -2.5632,1.281602 -6.40801,3.844806 -7.68961,5.126408 -2.5632,2.563204 -3.84481,5.126408 -5.12641,7.689612 -1.2816,2.563204 -2.5632,6.40801 -2.5632,10.092616 0,3.684605 1.2816,6.40801 2.5632,10.092615 1.2816,2.563204 2.56321,6.40801 5.12641,7.689612 2.5632,1.281602 5.12641,3.844806 7.68961,5.126408 z" />
</svg>
