<svg version="2.0" xmlns="http://www.w3.org/2000/svg" viewbox="0 0 256 256">
   <path d="M 243.34418,177.50188 C 249.75219,162.28285 253.4368,145.78223 253.4368,128 c 0,-17.78223 -3.84481,-34.282854 -10.09262,-49.501877 C 236.93617,63.279099 228.12516,49.341677 216.75094,37.967459 205.37672,26.593242 191.4393,17.622028 176.22028,10.092616 161.00125,3.6846058 144.50063,0 126.7184,0 108.93617,0 92.435544,3.844806 77.216521,10.092616 61.997497,16.500626 48.060075,26.593242 36.685857,37.967459 25.31164,49.341677 16.340426,63.279099 10.092616,78.498123 3.844806,93.717146 0,110.21777 0,128 c 0,16.50063 3.844806,33.00125 10.092616,49.50188 6.40801,15.21902 15.219024,29.15644 26.593241,40.53066 11.374218,11.37422 25.31164,20.34543 40.530664,27.87484 C 92.435544,252.31539 108.93617,256 126.7184,256 c 17.78223,0 34.28285,-3.84481 49.50188,-10.09262 15.21902,-6.40801 29.15644,-16.50062 40.53066,-27.87484 11.37422,-11.37422 20.18523,-25.31164 26.59324,-40.53066 z" />
</svg>
