<?xml version="1.0" encoding="UTF-8" standalone="no"?>
<svg
   xmlns:dc="http://purl.org/dc/elements/1.1/"
   xmlns:cc="http://creativecommons.org/ns#"
   xmlns:rdf="http://www.w3.org/1999/02/22-rdf-syntax-ns#"
   xmlns:svg="http://www.w3.org/2000/svg"
   xmlns="http://www.w3.org/2000/svg"
   xmlns:sodipodi="http://sodipodi.sourceforge.net/DTD/sodipodi-0.dtd"
   xmlns:inkscape="http://www.inkscape.org/namespaces/inkscape"
   width="210mm"
   height="297mm"
   viewBox="0 0 210 297"
   version="1.1"
   id="svg918"
   inkscape:version="1.0.2-2 (e86c870879, 2021-01-15)"
   sodipodi:docname="defense.svg">
  <defs
     id="defs912" />
  <sodipodi:namedview
     id="base"
     pagecolor="#ffffff"
     bordercolor="#666666"
     borderopacity="1.0"
     inkscape:pageopacity="0.0"
     inkscape:pageshadow="2"
     inkscape:zoom="0.35"
     inkscape:cx="400"
     inkscape:cy="560"
     inkscape:document-units="mm"
     inkscape:current-layer="layer1"
     inkscape:document-rotation="0"
     showgrid="false"
     inkscape:pagecheckerboard="true"
     showborder="false"
     inkscape:window-width="1431"
     inkscape:window-height="1150"
     inkscape:window-x="96"
     inkscape:window-y="0"
     inkscape:window-maximized="0" />
  <metadata
     id="metadata915">
    <rdf:RDF>
      <cc:Work
         rdf:about="">
        <dc:format>image/svg+xml</dc:format>
        <dc:type
           rdf:resource="http://purl.org/dc/dcmitype/StillImage" />
        <dc:title></dc:title>
      </cc:Work>
    </rdf:RDF>
  </metadata>
  <g
     inkscape:label="Layer 1"
     inkscape:groupmode="layer"
     id="layer1">
    <path
       glyph-name="greater"
       unicode="&gt;"
       d="m 0.13229313,103.1875 q -0.52917,7.40833 1.05832997,14.55208 4.49792,9.78958 11.6416699,17.99167 9.26041,9.26041 20.10833,16.66875 12.17083,6.87916 25.4,11.90625 10.05417,3.70416 20.6375,6.08541 8.20208,1.32292 16.40417,1.32292 V 139.7 q 0.26458,-3.70417 2.11666,-7.14375 2.910417,-3.175 6.879167,-5.02709 4.7625,-1.32291 9.525,-1.05833 0.79375,10.05417 1.05833,20.37292 0.26459,10.31875 2.64584,20.10833 2.38125,5.55625 6.08541,10.31875 3.70417,-5.29167 6.08542,-11.64167 1.85208,-8.73125 2.11666,-17.72708 0.26459,-10.31875 1.05834,-20.6375 4.7625,-0.79375 9.525,0.26458 3.175,1.32292 5.82083,3.43959 2.91042,3.70416 3.70417,8.46666 l 0.52916,33.3375 q 10.84792,-0.26458 21.69584,-2.38125 9.78958,-2.38125 19.05,-6.08541 10.58333,-4.7625 20.6375,-10.58334 8.73125,-5.55625 16.40416,-12.17083 5.82084,-5.82083 10.05417,-12.96458 3.175,-7.67292 4.49792,-15.875 0.52916,-5.29167 0.79375,-10.84792 h -93.6625 q -2.11667,3.70417 -5.29167,6.61458 -2.38125,1.85209 -5.29167,2.91042 -3.96875,0.79375 -7.9375,0 0.79375,-11.90625 1.05834,-23.8125 -0.26459,-12.17083 -1.05834,-24.34166 4.7625,0.26458 8.99584,1.85208 2.91041,1.5875 5.29166,3.96875 1.85209,2.11667 3.175,4.49792 l 95.25,-0.26459 q 0.52917,-7.9375 -1.5875,-15.875 -2.11666,-5.55625 -5.29166,-10.84791 -5.02709,-7.14375 -11.1125,-13.22917 -8.20209,-6.87917 -17.4625,-12.43542 Q 202.27395,15.875 193.27812,11.1125 184.0177,6.87917 174.22812,4.49792 168.1427,3.43958 162.05728,3.175 157.0302,2.91042 152.00312,2.91042 v 28.31041 q -0.26459,5.29167 -2.64584,9.78959 -3.175,3.96875 -7.40833,6.35 -4.23333,1.5875 -8.99583,1.85208 0.26458,-10.31875 0,-20.37292 -0.52917,-7.9375 -2.11667,-15.61041 Q 128.19062,6.08542 123.95728,0 q -3.175,4.7625 -5.29166,9.78958 -2.38125,8.73125 -3.175,17.72709 -0.52917,10.84791 -1.05833,21.96041 -4.7625,0.26459 -9.525,-1.05833 -3.70417,-1.85208 -6.349997,-4.7625 -2.38125,-3.96875 -2.91042,-8.73125 L 95.382293,1.5875 q -10.58334,-0.26458 -21.16667,1.32292 -7.14375,1.5875 -13.75833,4.23333 -8.46667,3.96875 -16.66875,8.46667 -10.84792,6.08541 -20.90209,13.75833 -6.61458,6.35 -12.43541,13.75833 -4.4979199,6.35 -7.6729199,13.49375 -2.11666997,8.20209 -1.5875,16.40417 H 95.911453 q 1.32292,-3.43958 3.70417,-6.35 1.852077,-1.5875 4.233327,-2.64583 4.49792,-1.32292 8.99584,-1.05834 -1.32292,12.17084 -1.5875,24.60625 0,11.64167 0.79375,23.01875 -3.70417,0.79375 -7.67292,0.26458 -3.175,-1.05833 -5.556247,-2.91041 -2.11667,-2.38125 -2.91042,-5.29167 z"
       id="path40"
       style="display:inline;stroke-width:0.264583"
       inkscape:label="Defense" />
  </g>
</svg>
