<?xml version="1.0" encoding="UTF-8" standalone="no"?>
<svg
   xmlns:dc="http://purl.org/dc/elements/1.1/"
   xmlns:cc="http://creativecommons.org/ns#"
   xmlns:rdf="http://www.w3.org/1999/02/22-rdf-syntax-ns#"
   xmlns:svg="http://www.w3.org/2000/svg"
   xmlns="http://www.w3.org/2000/svg"
   xmlns:sodipodi="http://sodipodi.sourceforge.net/DTD/sodipodi-0.dtd"
   xmlns:inkscape="http://www.inkscape.org/namespaces/inkscape"
   width="210mm"
   height="297mm"
   viewBox="0 0 210 297"
   version="1.1"
   id="svg918"
   inkscape:version="1.0.2-2 (e86c870879, 2021-01-15)"
   sodipodi:docname="defense.svg">
  <defs
     id="defs912" />
  <sodipodi:namedview
     id="base"
     pagecolor="#ffffff"
     bordercolor="#666666"
     borderopacity="1.0"
     inkscape:pageopacity="0.0"
     inkscape:pageshadow="2"
     inkscape:zoom="0.98994949"
     inkscape:cx="422.15996"
     inkscape:cy="714.80054"
     inkscape:document-units="mm"
     inkscape:current-layer="svg918"
     inkscape:document-rotation="0"
     showgrid="false"
     inkscape:pagecheckerboard="true"
     showborder="false"
     inkscape:window-width="2046"
     inkscape:window-height="2054"
     inkscape:window-x="-10"
     inkscape:window-y="0"
     inkscape:window-maximized="0"
     inkscape:snap-intersection-paths="true"
     showguides="true"
     inkscape:guide-bbox="true">
    <sodipodi:guide
       position="0.19911051,194.34167"
       orientation="0,-1"
       id="guide834" />
    <sodipodi:guide
       position="0.19911051,224.11674"
       orientation="0,-1"
       id="guide836" />
    <sodipodi:guide
       position="95.382293,295.4125"
       orientation="1,0"
       id="guide838" />
    <sodipodi:guide
       position="152.33385,295.41251"
       orientation="1,0"
       id="guide840" />
    <sodipodi:guide
       position="152.00312,265.77918"
       orientation="0,-1"
       id="guide842" />
    <sodipodi:guide
       position="152.00312,157.56459"
       orientation="0,-1"
       id="guide844" />
    <sodipodi:guide
       position="95.382291,124.22717"
       orientation="0,-1"
       id="guide846" />
    <sodipodi:guide
       position="0.1991105,224.11675"
       orientation="1,0"
       id="guide850" />
    <sodipodi:guide
       position="246.2453,224.11675"
       orientation="1,0"
       id="guide854" />
    <sodipodi:guide
       position="133.01994,247.68879"
       orientation="0,-1"
       id="guide856" />
    <sodipodi:guide
       position="132.85289,170.52917"
       orientation="0,-1"
       id="guide858" />
    <sodipodi:guide
       position="112.91161,233.76459"
       orientation="0,-1"
       id="guide860" />
    <sodipodi:guide
       position="133.48228,185.61043"
       orientation="0,-1"
       id="guide862" />
  </sodipodi:namedview>
  <metadata
     id="metadata915">
    <rdf:RDF>
      <cc:Work
         rdf:about="">
        <dc:format>image/svg+xml</dc:format>
        <dc:type
           rdf:resource="http://purl.org/dc/dcmitype/StillImage" />
        <dc:title />
      </cc:Work>
    </rdf:RDF>
  </metadata>
  <path
     glyph-name="greater"
     unicode="&gt;"
     d="m 0.19911051,102.65833 c 0.0147156,4.93889 -0.0668207,10.31875 0.99151259,15.08125 2.9986133,6.52639 6.87917,12.52361 11.6416699,17.99167 6.173607,6.17361 12.876383,11.72986 20.10833,16.66875 8.113887,4.58611 16.580553,8.55486 25.4,11.90625 6.70278,2.46944 13.581947,4.49791 20.6375,6.08541 5.468053,0.88195 11.002927,2.38125 16.470987,2.38125 l -0.06682,-33.3375 c 3e-6,-9.85894 9.35757,-12.96458 18.52083,-12.96458 0.0524,16.66747 -1.31436,36.37979 9.78958,50.8 10.29599,-14.83858 8.97638,-35.77257 9.16019,-50.8 9.83744,0 19.48096,4.7247 19.15023,12.96458 l 0.33073,33.33742 c 7.23195,-0.17639 14.66232,-0.97006 21.89427,-2.38117 6.52639,-1.5875 12.87639,-3.61597 19.05,-6.08541 7.05555,-3.175 13.93472,-6.70278 20.6375,-10.58334 5.82083,-3.70417 11.28889,-7.76111 16.40416,-12.17083 3.88056,-3.88055 7.23195,-8.20208 10.05417,-12.96458 3.1502,-8.55924 5.4266,-17.78357 5.87108,-25.92917 h -93.91118 c 0,6.5539 -10.16508,8.73125 -18.85157,8.73125 1.3989,-16.511136 0.98785,-32.812009 0,-48.15416 8.57563,1e-6 18.85157,2.86287 18.85157,9.647841 l 93.91104,0.14174 c 0.0187,-5.60905 -0.2265,-10.318754 -1.63761,-15.610421 -1.41111,-3.704167 -3.17499,-7.320137 -5.29166,-10.84791 -3.35139,-4.7625 -7.05556,-9.172223 -11.1125,-13.22917 -5.46806,-4.586113 -11.28889,-8.731253 -17.4625,-12.43542 -5.64445,-3.351387 -11.46528,-6.61458 -17.4625,-9.78958 -6.17361,-2.82222 -12.52361,-5.02708 -19.05,-6.61458 -7.36628,-1.3428512 -15.7103,-2.8169209 -21.89427,-2.9104192 L 152.00312,31.22083 c 0.33073,11.722163 -7.8918,18.090391 -18.98318,18.090391 C 132.73525,31.220821 133.80301,14.302536 123.95728,0 c -9.81377,14.663088 -8.76058,33.26553 -9.52499,49.311221 -9.91824,-1e-5 -19.049997,-6.966655 -19.049997,-18.0904 V 1.5875 c -7.05556,-0.1763867 -14.111117,0.2645867 -21.16667,1.32292 -4.7625,1.0583333 -9.34861,2.4694433 -13.75833,4.23333 -5.644447,2.6458333 -11.200697,5.468057 -16.66875,8.46667 -7.231947,4.05694 -14.19931,8.64305 -20.90209,13.75833 -4.40972,4.233333 -8.554857,8.819443 -12.43541,13.75833 C 7.4524297,47.360413 4.8947898,51.85833 2.7781231,56.62083 1.3670098,62.08889 0.19911051,66.800995 0.19911051,72.883259 l 95.18318249,2e-6 c 0,-7.189674 9.009797,-9.64784 17.529317,-9.64784 -1.84733,16.371235 -2.00756,32.851961 -0.9608,48.154159 -6.88107,0 -16.568517,-1.62422 -16.568517,-8.73125 z"
     id="path40"
     style="display:inline;stroke-width:0.264583"
     inkscape:label="Defense"
     sodipodi:nodetypes="ccccccccccccccccccccccccccccccccccccccccccccccccc" />
</svg>
