<?xml version="1.0" encoding="UTF-8" standalone="no"?>
<svg
   xmlns:dc="http://purl.org/dc/elements/1.1/"
   xmlns:cc="http://creativecommons.org/ns#"
   xmlns:rdf="http://www.w3.org/1999/02/22-rdf-syntax-ns#"
   xmlns:svg="http://www.w3.org/2000/svg"
   xmlns="http://www.w3.org/2000/svg"
   xmlns:sodipodi="http://sodipodi.sourceforge.net/DTD/sodipodi-0.dtd"
   xmlns:inkscape="http://www.inkscape.org/namespaces/inkscape"
   width="210mm"
   height="297mm"
   viewBox="0 0 210 297"
   version="1.1"
   id="svg2096"
   inkscape:version="1.0.2-2 (e86c870879, 2021-01-15)"
   sodipodi:docname="navigation.svg">
  <defs
     id="defs2090" />
  <sodipodi:namedview
     id="base"
     pagecolor="#ffffff"
     bordercolor="#666666"
     borderopacity="1.0"
     inkscape:pageopacity="0.0"
     inkscape:pageshadow="2"
     inkscape:zoom="0.35"
     inkscape:cx="400"
     inkscape:cy="560"
     inkscape:document-units="mm"
     inkscape:current-layer="layer1"
     inkscape:document-rotation="0"
     showgrid="false"
     inkscape:pagecheckerboard="true"
     showborder="false"
     inkscape:window-width="1431"
     inkscape:window-height="1150"
     inkscape:window-x="32"
     inkscape:window-y="0"
     inkscape:window-maximized="0" />
  <metadata
     id="metadata2093">
    <rdf:RDF>
      <cc:Work
         rdf:about="">
        <dc:format>image/svg+xml</dc:format>
        <dc:type
           rdf:resource="http://purl.org/dc/dcmitype/StillImage" />
        <dc:title></dc:title>
      </cc:Work>
    </rdf:RDF>
  </metadata>
  <g
     inkscape:label="Layer 1"
     inkscape:groupmode="layer"
     id="layer1">
    <path
       glyph-name="less"
       unicode="&lt;"
       d="M 78.456973,0 181.66017,43.916262 78.456973,85.636701 V 57.640086 q -9.881158,0.274483 -19.762316,1.921343 -11.802494,3.293719 -22.232606,9.606675 -7.136392,6.312965 -12.625924,14.272791 -4.11715,8.508771 -6.038486,17.840975 -0.274476,10.43012 1.921336,20.58575 3.019244,9.05773 7.136393,17.56651 4.117149,7.41087 8.783251,14.27278 l 12.076971,18.11546 Q 36.736528,164.68597 27.404322,155.35377 8.1909597,129.27849 0.23113812,97.713675 -0.866768,82.891938 3.2503802,68.619157 7.6420068,60.110375 14.229446,52.97399 23.56165,45.288638 34.266239,39.524629 45.245303,34.85853 57.047797,31.839288 67.477909,29.917951 77.90802,29.094521 Z M 177.54302,171.82237 74.339824,127.90611 177.54302,86.185657 v 27.996623 q 9.88116,-0.27448 19.76232,-1.92134 11.8025,-3.29372 22.23261,-9.60669 7.13639,-6.312961 12.62593,-14.272776 4.11715,-8.508782 6.03848,-17.840984 0.27447,-10.430115 -1.92133,-20.585746 -3.01925,-9.057729 -7.1364,-17.566503 -4.11715,-7.410869 -8.78325,-14.272784 L 208.28441,0 q 10.97906,7.1363924 20.31126,16.468597 19.21337,26.075278 27.17319,57.640086 1.09791,14.821737 -3.01924,29.094527 -4.39163,8.50878 -10.97907,15.64517 -9.3322,7.68534 -20.03679,13.44935 -10.97906,4.66611 -22.78156,7.68535 -10.43011,1.92134 -20.86022,2.74477 z m 0,0 L 74.339824,127.90611 177.54302,86.185657 v 27.996623 q 9.88116,-0.27448 19.76232,-1.92134 11.8025,-3.29372 22.23261,-9.60669 7.13639,-6.312961 12.62593,-14.272776 4.11715,-8.508782 6.03848,-17.840984 0.27447,-10.430115 -1.92133,-20.585746 -3.01925,-9.057729 -7.1364,-17.566503 -4.11715,-7.410869 -8.78325,-14.272784 L 208.28441,0 q 10.97906,7.1363924 20.31126,16.468597 19.21337,26.075278 27.17319,57.640086 1.09791,14.821737 -3.01924,29.094527 -4.39163,8.50878 -10.97907,15.64517 -9.3322,7.68534 -20.03679,13.44935 -10.97906,4.66611 -22.78156,7.68535 -10.43011,1.92134 -20.86022,2.74477 z"
       id="path36"
       style="display:inline;stroke-width:0.274476"
       inkscape:label="Navigation" />
  </g>
</svg>
