<?xml version="1.0" encoding="UTF-8" standalone="no"?>
<svg
   xmlns:dc="http://purl.org/dc/elements/1.1/"
   xmlns:cc="http://creativecommons.org/ns#"
   xmlns:rdf="http://www.w3.org/1999/02/22-rdf-syntax-ns#"
   xmlns:svg="http://www.w3.org/2000/svg"
   xmlns="http://www.w3.org/2000/svg"
   xmlns:sodipodi="http://sodipodi.sourceforge.net/DTD/sodipodi-0.dtd"
   xmlns:inkscape="http://www.inkscape.org/namespaces/inkscape"
   width="210mm"
   height="297mm"
   viewBox="0 0 210 297"
   version="1.1"
   id="svg1508"
   inkscape:version="1.0.2-2 (e86c870879, 2021-01-15)"
   sodipodi:docname="pilot-defection.svg">
  <defs
     id="defs1502" />
  <sodipodi:namedview
     id="base"
     pagecolor="#ffffff"
     bordercolor="#666666"
     borderopacity="1.0"
     inkscape:pageopacity="0.0"
     inkscape:pageshadow="2"
     inkscape:zoom="0.7"
     inkscape:cx="579.23228"
     inkscape:cy="-26.123239"
     inkscape:document-units="mm"
     inkscape:current-layer="svg1508"
     inkscape:document-rotation="0"
     showgrid="false"
     inkscape:pagecheckerboard="true"
     showborder="false"
     inkscape:window-width="1267"
     inkscape:window-height="1198"
     inkscape:window-x="208"
     inkscape:window-y="163"
     inkscape:window-maximized="0"
     showguides="true"
     inkscape:guide-bbox="true">
    <sodipodi:guide
       position="72.141849,215.37656"
       orientation="1,0"
       id="guide2086" />
  </sodipodi:namedview>
  <metadata
     id="metadata1505">
    <rdf:RDF>
      <cc:Work
         rdf:about="">
        <dc:format>image/svg+xml</dc:format>
        <dc:type
           rdf:resource="http://purl.org/dc/dcmitype/StillImage" />
        <dc:title />
      </cc:Work>
    </rdf:RDF>
  </metadata>
  <g
     id="g834">
    <path
       id="path2082"
       style="display:inline;fill:#000000;stroke-width:3.45175"
       d="M 111.38457,68.821907 A 17.305702,17.305702 0 0 1 94.078873,86.127609 17.305702,17.305702 0 0 1 76.77317,68.821907 17.305702,17.305702 0 0 1 94.078873,51.516205 17.305702,17.305702 0 0 1 111.38457,68.821907 Z" />
    <path
       id="path42"
       style="display:inline;stroke-width:0.779032"
       inkscape:label="Pilot Defection"
       d="M 392.63281,0 C 377.5715,1.5580661 361.60171,2.9867645 344.72266,4.2851562 327.84362,5.5835479 311.87381,6.2324219 296.8125,6.2324219 L 291.35742,37.394531 210.33984,42.847656 197.875,17.917969 c -31.16132,3.116132 -61.28524,7.531244 -90.36914,13.24414 -29.0839,5.712915 -56.868348,10.645932 -83.355469,14.800782 L 0,175.2832 70.892578,220.4668 V 330.31055 L 0,375.49414 24.150391,500.91797 c 26.487121,6.23225 54.271569,11.94511 83.355469,17.13867 29.0839,5.19356 59.20782,9.8686 90.36914,14.02344 l 12.46484,-27.26758 81.01758,8.57031 5.45508,28.04492 c 15.06131,1.55808 31.03112,2.59785 47.91016,3.11719 16.87905,0.51935 32.84884,1.81712 47.91015,3.89453 l 35.05664,-61.54297 h 113.73828 l 35.05665,61.54297 c 15.0613,-2.07741 31.03108,-3.37518 47.91015,-3.89453 16.87903,-0.51934 32.84885,-1.55911 47.91016,-3.11719 l 7.01172,-28.04492 81.01953,-8.57031 8.57031,27.26758 c 31.16134,-4.15484 61.41229,-8.82988 90.75586,-14.02344 29.34357,-5.19356 58.03879,-10.90642 86.08398,-17.13867 L 967.55859,375.49414 900.5625,330.31055 V 220.4668 L 967.55859,175.2832 945.74609,45.962891 C 889.13637,33.498362 830.19019,24.150233 768.90625,17.917969 l -8.57031,24.929687 -81.01953,-5.453125 -7.01172,-31.1621091 c -15.06131,0 -31.03113,-0.648874 -47.91016,-1.9472657 C 607.51546,2.9867645 591.54568,1.5580661 576.48438,0 L 541.42773,61.542969 H 427.68945 Z m 29.60352,85.693359 H 483 545.32227 c 47.26132,2.077418 92.18628,5.972633 134.77343,11.685547 42.58715,5.712894 82.57712,12.205584 119.97071,19.476564 3.63549,11.42581 7.0128,25.18903 10.1289,41.28906 2.5968,13.50323 5.06328,30.12192 7.40039,49.85742 2.33707,19.73551 3.50586,42.06704 3.50586,66.9961 0,24.40969 -1.16879,46.09431 -3.50586,65.05078 -2.33711,18.95646 -4.80359,35.1862 -7.40039,48.68945 -3.1161,15.58065 -6.49341,29.34191 -10.1289,41.28711 -37.39359,8.30967 -77.38356,15.19128 -119.97071,20.64453 -42.58715,5.45322 -87.51211,8.95951 -134.77343,10.51758 H 483 422.23633 c -45.70329,-1.55807 -89.97936,-5.06436 -132.82617,-10.51758 -42.84682,-5.45325 -83.48567,-12.33486 -121.91797,-20.64453 -4.15484,-11.9452 -7.53018,-25.70646 -10.12696,-41.28711 -2.59677,-13.50325 -4.8053,-29.73299 -6.62304,-48.68945 -1.81775,-18.95647 -2.72656,-40.64109 -2.72657,-65.05078 0,-24.92906 0.90882,-47.26059 2.72657,-66.9961 1.81774,-19.7355 4.02627,-36.35419 6.62304,-49.85742 2.59678,-16.10003 5.97212,-29.86325 10.12696,-41.28906 38.4323,-7.27098 79.07115,-13.76367 121.91797,-19.476564 42.84681,-5.712914 87.12288,-9.608129 132.82617,-11.685547 z m 0,25.708981 c -9.86778,1.0387 -19.34681,1.81657 -28.43555,2.33594 -9.0887,0.51935 -18.30591,1.55912 -27.6543,3.11719 l -15.58203,45.96289 c 10.90647,0 20.90543,1.55769 29.99414,4.67383 17.45118,6.63965 30.82482,13.21854 43.23633,25.70898 11.54052,13.17797 23.20444,30.79888 26.0957,46.35156 1.94922,16.15725 2.07981,35.64072 -1.94726,48.68946 -1.73159,5.10363 -5.46231,13.92827 -8.56836,18.69726 -8.78145,12.91087 -19.59658,26.61261 -30.38281,34.27735 -10.64773,8.10415 -28.12529,13.41739 -42.06836,15.1914 -10.90647,1.2984 -21.81229,1.42737 -32.71875,0.38868 l 31.9414,73.22851 c 9.34839,2.07742 18.69653,3.63705 28.04493,4.67578 9.34839,1.03873 19.99429,1.55664 31.93945,1.55664 h 41.28906 l -15.58008,-53.79531 99.71485,53.79531 c 24.92904,-1.03873 49.72904,-2.98534 74.39843,-5.84179 24.66936,-2.85646 48.68958,-6.1028 72.06055,-9.73829 L 529.74218,309.5082 796.95117,308.49805 v -33.5 c 0,-10.90646 -0.13116,-21.03247 -0.39062,-30.38086 -0.25966,-9.3484 -1.16849,-17.39877 -2.72657,-24.15039 l -264.09179,-3.89649 187.74804,-88.02929 c -29.08391,-4.15485 -57.51918,-7.79012 -85.30468,-10.90625 -27.78554,-3.11614 -56.74068,-5.19373 -86.86328,-6.23243 l -93.48243,39.73047 15.58008,-39.73047 z m -248.9537,105.16797 c -0.23131,15.9099 -0.46631,18.04818 -0.72599,27.65625 -0.25969,9.60808 -0.39062,19.86503 -0.39062,30.77149 v 33.5 h 100.49609 c -4.6742,-7.27098 -8.56941,-14.80342 -11.68555,-22.59375 -3.11613,-7.79034 -4.67383,-16.61858 -4.67383,-26.48633 0,-7.27098 1.42675,-14.67247 4.28321,-22.20313 2.85645,-7.53065 6.1964,-15.67495 12.07617,-20.64453 z"
       transform="scale(0.26458333)"
       sodipodi:nodetypes="csccccsccccccsccccsccccsccccsccccccccccscccccccsccsssccscccsccsssccsccscccccccccccsscccscccsccccscccccccssscccc" />
  </g>
</svg>
