<?xml version="1.0" encoding="UTF-8" standalone="no"?>
<svg
   xmlns:dc="http://purl.org/dc/elements/1.1/"
   xmlns:cc="http://creativecommons.org/ns#"
   xmlns:rdf="http://www.w3.org/1999/02/22-rdf-syntax-ns#"
   xmlns:svg="http://www.w3.org/2000/svg"
   xmlns="http://www.w3.org/2000/svg"
   xmlns:sodipodi="http://sodipodi.sourceforge.net/DTD/sodipodi-0.dtd"
   xmlns:inkscape="http://www.inkscape.org/namespaces/inkscape"
   width="210mm"
   height="297mm"
   viewBox="0 0 210 297"
   version="1.1"
   id="svg1508"
   inkscape:version="1.0.2 (e86c8708, 2021-01-15)"
   sodipodi:docname="pilot-defection.svg">
  <defs
     id="defs1502" />
  <sodipodi:namedview
     id="base"
     pagecolor="#ffffff"
     bordercolor="#666666"
     borderopacity="1.0"
     inkscape:pageopacity="0.0"
     inkscape:pageshadow="2"
     inkscape:zoom="0.7"
     inkscape:cx="579.23228"
     inkscape:cy="202.44819"
     inkscape:document-units="mm"
     inkscape:current-layer="svg1508"
     inkscape:document-rotation="0"
     showgrid="false"
     inkscape:pagecheckerboard="true"
     showborder="false"
     inkscape:window-width="1661"
     inkscape:window-height="1198"
     inkscape:window-x="208"
     inkscape:window-y="135"
     inkscape:window-maximized="0"
     showguides="true"
     inkscape:guide-bbox="true">
    <sodipodi:guide
       position="72.141849,215.37656"
       orientation="1,0"
       id="guide2086" />
  </sodipodi:namedview>
  <metadata
     id="metadata1505">
    <rdf:RDF>
      <cc:Work
         rdf:about="">
        <dc:format>image/svg+xml</dc:format>
        <dc:type
           rdf:resource="http://purl.org/dc/dcmitype/StillImage" />
        <dc:title />
      </cc:Work>
    </rdf:RDF>
  </metadata>
  <g
     id="g22">
    <path
       id="path2082"
       style="display:inline;fill:#000000;stroke-width:3.45175"
       d="M 111.38457,68.821907 A 17.305702,17.305702 0 0 1 94.078873,86.127609 17.305702,17.305702 0 0 1 76.77317,68.821907 17.305702,17.305702 0 0 1 94.078873,51.516205 17.305702,17.305702 0 0 1 111.38457,68.821907 Z" />
    <path
       id="path42"
       style="display:inline;stroke-width:0.206119"
       inkscape:label="Pilot Defection"
       d="M 103.8841,0 C 99.899125,0.41223832 95.673785,0.7902481 91.207869,1.1337809 86.741957,1.4773137 82.516611,1.6489949 78.53164,1.6489949 L 77.088316,9.8939695 55.652415,11.336776 52.354426,4.7407959 C 44.109661,5.5652725 36.139374,6.7334375 28.444258,8.2449746 20.749143,9.7565166 13.397842,11.061711 6.3897909,12.161015 L 0,46.377013 18.756994,58.33184 V 87.394665 L 0,99.34949 6.3897909,132.53454 c 7.0080511,1.64895 14.3593521,3.16048 22.0544671,4.53461 7.695116,1.37413 15.665403,2.61107 23.910168,3.71037 l 3.297989,-7.21455 21.435901,2.26756 1.443324,7.42022 c 3.984971,0.41224 8.210317,0.68735 12.676229,0.82476 4.465916,0.13741 8.691256,0.48078 12.676231,1.03043 l 9.2754,-16.28325 h 30.09325 l 9.27541,16.28325 c 3.98497,-0.54965 8.2103,-0.89302 12.67622,-1.03043 4.46591,-0.13741 8.69126,-0.41252 12.67623,-0.82476 l 1.85519,-7.42022 21.43641,-2.26756 2.26757,7.21455 c 8.24477,-1.0993 16.24866,-2.33624 24.01248,-3.71037 7.76382,-1.37413 15.3561,-2.88566 22.77639,-4.53461 L 255.99987,99.34949 238.27383,87.394665 V 58.33184 L 255.99987,46.377013 250.22865,12.161015 C 235.25066,8.8631082 219.65449,6.3897491 203.43978,4.7407959 L 201.17221,11.336776 179.7358,9.8939695 177.88061,1.6489949 c -3.98497,0 -8.21032,-0.1716812 -12.67623,-0.515214 C 160.73846,0.7902481 156.51313,0.41223832 152.52816,0 l -9.27541,16.283244 H 113.1595 Z m 7.83259,22.673034 h 16.07706 16.48943 c 12.50456,0.54965 24.39096,1.580259 35.65881,3.091801 11.26784,1.511537 21.84852,3.229394 31.74224,5.153174 0.9619,3.023079 1.85547,6.664598 2.67994,10.924397 0.68707,3.57273 1.33966,7.969758 1.95802,13.191443 0.61835,5.221687 0.9276,11.130237 0.9276,17.726051 0,6.458397 -0.30925,12.195786 -0.9276,17.211352 -0.61836,5.015563 -1.27095,9.309682 -1.95802,12.882418 -0.82447,4.12238 -1.71804,7.76338 -2.67994,10.92388 -9.89372,2.1986 -20.4744,4.01936 -31.74224,5.4622 -11.26785,1.44283 -23.15425,2.37054 -35.65881,2.78277 h -16.48943 -16.07706 c -12.092324,-0.41223 -23.807034,-1.33994 -35.143586,-2.78277 -11.336554,-1.44284 -22.088917,-3.2636 -32.257463,-5.4622 -1.099301,-3.1605 -1.99236,-6.8015 -2.679424,-10.92388 C 40.949155,99.280934 40.364814,94.986815 39.883871,89.971252 39.402924,84.955686 39.162468,79.218297 39.162466,72.7599 c 0,-6.595814 0.240458,-12.504364 0.721405,-17.726051 0.480943,-5.221685 1.065284,-9.618713 1.752346,-13.191443 0.687064,-4.259799 1.580123,-7.901318 2.679424,-10.924397 10.168546,-1.92378 20.920909,-3.641637 32.257463,-5.153174 11.336552,-1.511542 23.051262,-2.542151 35.143586,-3.091801 z m 0,6.802168 c -2.61085,0.274823 -5.11884,0.480634 -7.52357,0.618051 -2.40472,0.137411 -4.843437,0.412517 -7.316865,0.824756 L 92.75351,43.079024 c 2.88567,0 5.531228,0.412139 7.93595,1.236617 4.61729,1.756741 8.15573,3.497406 11.43961,6.802168 3.05343,3.486671 6.13951,8.14887 6.90449,12.26385 0.51573,4.274939 0.55028,9.42994 -0.51521,12.882419 -0.45815,1.350336 -1.44524,3.685189 -2.26705,4.946984 -2.32342,3.416001 -5.18493,7.041253 -8.03878,9.069215 -2.81722,2.144223 -7.44149,3.550018 -11.130591,4.019391 -2.88567,0.343535 -5.771169,0.377659 -8.656836,0.102839 l 8.451162,19.375043 c 2.473428,0.54965 4.946795,0.9623 7.420225,1.23713 2.47342,0.27483 5.29015,0.41186 8.45064,0.41186 h 10.9244 l -4.12223,-14.23334 26.38289,14.23334 c 6.5958,-0.27483 13.15747,-0.78987 19.68458,-1.54564 6.5271,-0.75577 12.88245,-1.6147 19.06602,-2.57659 l -44.52183,-29.4136 70.69904,-0.267269 V 72.7599 c 0,-2.885668 -0.0347,-5.564841 -0.10335,-8.038269 -0.0687,-2.473431 -0.30916,-4.603425 -0.7214,-6.389791 l -69.87429,-1.030946 49.675,-23.291083 c -7.69511,-1.099304 -15.21861,-2.061136 -22.57019,-2.885612 -7.35159,-0.824479 -15.01264,-1.374174 -22.98258,-1.648997 l -24.73389,10.51202 4.12223,-10.51202 z M 45.847695,57.300894 c -0.0612,4.209494 -0.123378,4.775247 -0.192085,7.317383 -0.06871,2.542137 -0.103351,5.255955 -0.103351,8.141623 v 8.863541 h 26.58959 c -1.236715,-1.92378 -2.267323,-3.916738 -3.091802,-5.977929 -0.824476,-2.061194 -1.236617,-4.396999 -1.236617,-7.007842 0,-1.92378 0.377494,-3.882091 1.133266,-5.874578 0.755769,-1.992484 1.639464,-4.14733 3.195153,-5.462198 z"
       sodipodi:nodetypes="csccccsccccccsccccsccccsccccsccccccccccscccccccsccsssccscccsccsssccsccscccccccccccsscccscccsccccscccccccssscccc" />
  </g>
</svg>
