<?xml version="1.0" encoding="UTF-8" standalone="no"?>
<svg
   xmlns:dc="http://purl.org/dc/elements/1.1/"
   xmlns:cc="http://creativecommons.org/ns#"
   xmlns:rdf="http://www.w3.org/1999/02/22-rdf-syntax-ns#"
   xmlns:svg="http://www.w3.org/2000/svg"
   xmlns="http://www.w3.org/2000/svg"
   xmlns:sodipodi="http://sodipodi.sourceforge.net/DTD/sodipodi-0.dtd"
   xmlns:inkscape="http://www.inkscape.org/namespaces/inkscape"
   width="210mm"
   height="297mm"
   viewBox="0 0 210 297"
   version="1.1"
   id="svg918"
   inkscape:version="1.0.2-2 (e86c870879, 2021-01-15)"
   sodipodi:docname="token.svg">
  <defs
     id="defs912" />
  <sodipodi:namedview
     id="base"
     pagecolor="#ffffff"
     bordercolor="#666666"
     borderopacity="1.0"
     inkscape:pageopacity="0.0"
     inkscape:pageshadow="2"
     inkscape:zoom="0.35"
     inkscape:cx="400"
     inkscape:cy="560"
     inkscape:document-units="mm"
     inkscape:current-layer="svg918"
     inkscape:document-rotation="0"
     showgrid="false"
     inkscape:pagecheckerboard="true"
     showborder="false"
     inkscape:window-width="1718"
     inkscape:window-height="1368"
     inkscape:window-x="-7"
     inkscape:window-y="0"
     inkscape:window-maximized="0" />
  <metadata
     id="metadata915">
    <rdf:RDF>
      <cc:Work
         rdf:about="">
        <dc:format>image/svg+xml</dc:format>
        <dc:type
           rdf:resource="http://purl.org/dc/dcmitype/StillImage" />
        <dc:title></dc:title>
      </cc:Work>
    </rdf:RDF>
  </metadata>
  <path
     d="m 136.34783,180.2512 v -43.90337 h 43.90339 v 12.36714 h 9.89371 V 136.34783 H 256 v -16.69566 h -65.85507 v -12.36715 h -9.89371 v 12.36715 H 136.34783 V 75.748787 h 12.36715 V 65.855072 H 136.34783 V 0 h -16.69566 v 65.855072 h -12.36715 v 9.893715 h 12.36715 V 119.65217 H 75.748791 v -12.36715 h -9.89372 v 12.36715 H 0 v 16.69566 h 65.855071 v 12.36714 h 9.89372 v -12.36714 h 43.903379 v 43.90337 h -12.36715 v 9.89373 h 12.36715 V 256 h 16.69566 v -65.85507 h 12.36715 V 180.2512 Z M 197.56522,17.623188 h -24.73429 v 20.405798 h 25.97101 q 7.42029,0 12.67632,5.256039 5.25604,5.256037 5.25604,12.676327 v 28.444447 h 20.4058 V 57.198068 q 0,-10.821256 -5.25604,-19.942029 -5.25603,-9.120774 -14.37681,-14.376812 -9.12077,-5.256039 -19.94203,-5.256039 z M 84.405796,18.859904 H 57.198067 q -16.386474,0 -27.980677,11.594202 Q 17.623188,42.048309 17.623188,58.434783 V 83.169077 H 38.028984 V 57.198068 q 0,-7.42029 5.256039,-12.676329 Q 48.541062,39.2657 55.961351,39.2657 H 84.405796 Z M 75.748791,75.748787 H 85.951689 V 65.855072 H 75.748791 v -0.309179 h -9.89372 v 0.309179 h -0.309178 v 9.893715 h 0.309178 v 10.202898 h 9.89372 z m 114.396139,0 h 0.30918 v -9.893715 h -0.30918 v -0.309179 h -9.89371 v 0.309179 h -10.2029 v 0 9.893715 h 10.2029 v 10.202898 0 h 9.89371 z M 75.748791,190.14493 h 10.202898 v -9.89373 0 H 75.748791 v -10.20289 h -9.89372 v 10.20289 h -0.309178 v 9.89373 h 0.309178 v 0.30917 h 9.89372 z M 190.45411,180.2512 h -0.30918 v -10.20289 h -9.89371 v 10.20289 h -10.2029 v 0 9.89373 h 10.2029 v 0.30917 h 9.89371 v -0.30917 h 0.30918 z M 39.2657,171.5942 H 18.859903 v 27.20773 q 0,16.38648 11.594203,27.98067 11.594203,11.59421 27.980675,11.59421 H 83.16908 v -20.4058 H 57.198067 q -3.400967,0 -6.801932,-1.39131 -3.400967,-1.39129 -5.719807,-3.86473 -2.318841,-2.47343 -3.864735,-5.7198 -1.545893,-3.24639 -1.545893,-6.95653 z m 199.11111,1.23671 h -20.4058 v 25.97102 q 0,3.40097 -1.54588,6.80193 -1.5459,3.40097 -3.86475,5.7198 -2.31883,2.31885 -5.56521,3.86475 -3.24637,1.54588 -6.95652,1.54588 H 171.5942 v 20.4058 h 27.20774 q 16.38647,0 27.98067,-11.5942 11.5942,-11.59421 11.5942,-27.98067 z"
     id="path130"
     style="display:inline;stroke-width:0.309178"
     inkscape:label="objective-token" />
</svg>
