<?xml version="1.0" encoding="UTF-8" standalone="no"?>
<svg
   xmlns:dc="http://purl.org/dc/elements/1.1/"
   xmlns:cc="http://creativecommons.org/ns#"
   xmlns:rdf="http://www.w3.org/1999/02/22-rdf-syntax-ns#"
   xmlns:svg="http://www.w3.org/2000/svg"
   xmlns="http://www.w3.org/2000/svg"
   xmlns:sodipodi="http://sodipodi.sourceforge.net/DTD/sodipodi-0.dtd"
   xmlns:inkscape="http://www.inkscape.org/namespaces/inkscape"
   width="210mm"
   height="297mm"
   viewBox="0 0 210 297"
   version="1.1"
   id="svg899"
   inkscape:version="1.0.2-2 (e86c870879, 2021-01-15)"
   sodipodi:docname="any.svg">
  <defs
     id="defs893" />
  <sodipodi:namedview
     id="base"
     pagecolor="#ffffff"
     bordercolor="#666666"
     borderopacity="1.0"
     inkscape:pageopacity="0.0"
     inkscape:pageshadow="2"
     inkscape:zoom="0.35"
     inkscape:cx="400"
     inkscape:cy="560"
     inkscape:document-units="mm"
     inkscape:current-layer="svg899"
     inkscape:document-rotation="0"
     showgrid="false"
     inkscape:pagecheckerboard="true"
     showborder="false"
     inkscape:window-width="1267"
     inkscape:window-height="1198"
     inkscape:window-x="182"
     inkscape:window-y="163"
     inkscape:window-maximized="0" />
  <metadata
     id="metadata896">
    <rdf:RDF>
      <cc:Work
         rdf:about="">
        <dc:format>image/svg+xml</dc:format>
        <dc:type
           rdf:resource="http://purl.org/dc/dcmitype/StillImage" />
        <dc:title></dc:title>
      </cc:Work>
    </rdf:RDF>
  </metadata>
  <path
     d="m 187.3987,190.41046 q 11.37777,-12.38169 17.90327,-28.44445 6.52548,-16.06275 6.52548,-34.13332 0,-18.0706 -6.52548,-34.13334 -6.5255,-16.062745 -17.90327,-28.444444 l -35.47189,45.511114 q 4.35032,3.01176 9.03528,5.68888 4.68497,2.67713 9.70458,4.35033 l 19.40914,7.02746 -19.40914,7.02745 q -10.37386,4.01567 -18.73986,10.0392 z m -75.62876,-10.7085 q -3.68105,-10.37385 -10.03921,-18.73987 l -45.511122,35.4719 q 12.716344,11.37777 28.611771,17.73594 15.895431,6.35818 33.966011,6.35818 18.40523,0 34.30066,-6.35818 15.89541,-6.35817 28.61175,-17.73594 l -45.5111,-35.4719 q -6.35817,8.36602 -10.03922,18.73987 l -7.36209,19.40915 z M 67.262745,120.80523 q 5.019608,-1.6732 9.704579,-4.35033 4.684972,-2.67712 8.700658,-5.68888 L 50.530727,65.254906 q -11.377786,12.381699 -17.90327,28.444444 -6.525496,16.06274 -6.525496,34.13334 0,18.07057 6.525496,34.13332 6.525484,16.06276 17.90327,28.44445 l 35.137255,-45.51112 q -7.696736,-5.68888 -18.405237,-10.0392 L 47.853599,127.83269 Z M 126.15948,75.963402 q 3.68105,10.373857 10.03922,18.739869 l 45.5111,-35.137255 q -12.71634,-11.712417 -28.61175,-18.070583 -15.89543,-6.358178 -34.30066,-6.358178 -18.07058,0 -33.966011,6.358178 -15.895427,6.358166 -28.611771,18.070583 l 45.511122,35.137255 q 6.35816,-8.366012 10.03921,-18.739869 l 7.02745,-19.074509 z M 157.28105,256 q 16.73202,0 31.4562,-6.35817 14.72419,-6.35817 25.60001,-17.23398 10.87581,-10.87582 17.23399,-25.60001 6.35816,-14.72418 6.35816,-31.4562 V 80.313729 q 0,-16.732026 -6.35816,-31.28889 Q 225.21307,34.467982 214.33726,23.592163 203.46144,12.716344 188.73725,6.3581784 174.01307,0 157.28105,0 H 80.313725 Q 63.581708,0 49.024839,6.3581784 34.467982,12.716344 23.592163,23.592163 12.716344,34.467982 6.3581784,49.024839 0,63.581703 0,80.313729 v 95.037911 q 0,16.73202 6.3581784,31.4562 6.3581656,14.72419 17.2339846,25.60001 10.875819,10.87581 25.432676,17.23398 Q 63.581708,256 80.313725,256 Z m 68.93594,-128.16731 q 0,22.08626 -8.53333,41.66274 -8.53334,19.57646 -23.09019,34.13333 -14.55687,14.55686 -34.13334,23.0902 -19.57646,8.53332 -41.66274,8.53332 -22.08627,0 -41.662747,-8.53332 -19.576465,-8.53334 -34.133334,-23.0902 -14.556856,-14.55687 -22.922878,-34.13333 -8.366008,-19.57648 -8.366008,-41.66274 0,-22.08628 8.366008,-41.662752 8.366022,-19.576471 22.922878,-34.133335 14.556869,-14.556856 34.133334,-22.922878 19.576477,-8.366008 41.662747,-8.366008 22.08628,0 41.66274,8.366008 19.57647,8.366022 34.13334,22.922878 14.55685,14.556864 23.09019,34.133335 8.53333,19.576472 8.53333,41.662752 z"
     id="path122"
     style="display:inline;stroke-width:0.33464"
     inkscape:label="Any inverted" />
</svg>
