<?xml version="1.0" encoding="UTF-8" standalone="no"?>
<svg
   xmlns:dc="http://purl.org/dc/elements/1.1/"
   xmlns:cc="http://creativecommons.org/ns#"
   xmlns:rdf="http://www.w3.org/1999/02/22-rdf-syntax-ns#"
   xmlns:svg="http://www.w3.org/2000/svg"
   xmlns="http://www.w3.org/2000/svg"
   xmlns:sodipodi="http://sodipodi.sourceforge.net/DTD/sodipodi-0.dtd"
   xmlns:inkscape="http://www.inkscape.org/namespaces/inkscape"
   width="210mm"
   height="297mm"
   viewBox="0 0 210 297"
   version="1.1"
   id="svg1489"
   inkscape:version="1.0.2-2 (e86c870879, 2021-01-15)"
   sodipodi:docname="navigate.svg">
  <defs
     id="defs1483" />
  <sodipodi:namedview
     id="base"
     pagecolor="#ffffff"
     bordercolor="#666666"
     borderopacity="1.0"
     inkscape:pageopacity="0.0"
     inkscape:pageshadow="2"
     inkscape:zoom="0.35"
     inkscape:cx="400"
     inkscape:cy="560"
     inkscape:document-units="mm"
     inkscape:current-layer="svg1489"
     inkscape:document-rotation="0"
     showgrid="false"
     inkscape:pagecheckerboard="true"
     showborder="false"
     inkscape:window-width="1267"
     inkscape:window-height="1198"
     inkscape:window-x="234"
     inkscape:window-y="163"
     inkscape:window-maximized="0" />
  <metadata
     id="metadata1486">
    <rdf:RDF>
      <cc:Work
         rdf:about="">
        <dc:format>image/svg+xml</dc:format>
        <dc:type
           rdf:resource="http://purl.org/dc/dcmitype/StillImage" />
        <dc:title></dc:title>
      </cc:Work>
    </rdf:RDF>
  </metadata>
  <path
     d="m 118.66668,35.333331 q 19.33333,0 36.16666,7.333329 16.83334,7.333342 29.5,19.833337 12.66667,12.500007 20,29.33333 7.33334,16.833333 7.33334,36.166683 0,7.66665 -1.33334,14.33333 -4.66666,1.33333 -13.66666,3.49999 -9,2.16668 -19.16666,3.66667 -10.16668,1.50001 -20.16668,1.83334 -9.99999,0.33333 -16.66666,-1.83334 -6.66667,-2.16666 -8.83334,-7.33333 -2.16666,-5.16666 3.50001,-15.16666 l 23.99999,4.66665 -30.66666,-55.666656 -65.000006,28.000006 23.33333,8 q -11.333329,17.33333 -11.333329,36.66666 0.333329,8 3.166664,16.83333 2.833336,8.83334 9.833336,18 7.000001,9.16667 18.666675,18.16667 11.66666,9 29.66666,17.33334 -4.66666,1 -9.16667,1.33333 -4.49999,0.33333 -9.16666,0.33333 -19.000004,0 -36.000005,-7.33333 Q 65.666674,206 53.166667,193.5 40.666673,181 33.333343,164.00001 q -7.333342,-17 -7.333342,-36 0,-19.33335 7.333342,-36.166683 7.33333,-16.833323 19.833324,-29.33333 Q 65.666674,50.000002 82.666675,42.66666 99.666676,35.333331 118.66668,35.333331 Z M 157.33334,0 q 16.66667,0 31.33334,6.3333294 14.66666,6.3333296 25.5,17.1666656 10.83333,10.833336 17.16666,25.500007 6.33334,14.666659 6.33334,31.333331 v 95.000007 q 0,16.66667 -6.33334,31.33333 -6.33333,14.66667 -17.16666,25.66667 -10.83334,11 -25.5,17.33333 Q 174.00001,256 157.33334,256 H 80.333346 q -16.666672,0 -31.333344,-6.33333 -14.666659,-6.33333 -25.499995,-17.33333 -10.833336,-11 -17.166665,-25.66667 Q 0,192.00001 0,175.33334 V 80.333333 Q 0,63.666661 6.333342,49.000002 12.666671,34.333331 23.500007,23.499995 34.333343,12.666659 49.000002,6.3333294 63.666674,0 80.333346,0 Z m 68.66667,128.00001 q 0,-22.33335 -8.49999,-41.833341 -8.50001,-19.500007 -23,-34.000002 -14.50001,-14.500007 -34.00001,-23.000001 -19.5,-8.500007 -41.83333,-8.500007 -22.000004,0 -41.500012,8.500007 -19.499994,8.499994 -34.000001,23.000001 -14.499995,14.499995 -23.000001,34.000002 -8.499995,19.499991 -8.499995,41.833341 0,22 8.499995,41.49999 8.500006,19.5 23.000001,34 14.500007,14.5 34.000001,23 19.500008,8.5 41.500012,8.5 22.33333,0 41.83333,-8.5 19.5,-8.5 34.00001,-23 14.49999,-14.5 23,-34 8.49999,-19.49999 8.49999,-41.49999 z"
     id="path104"
     style="display:inline;stroke-width:0.333333" />
</svg>
