<?xml version="1.0" encoding="UTF-8" standalone="no"?>
<svg
   xmlns:dc="http://purl.org/dc/elements/1.1/"
   xmlns:cc="http://creativecommons.org/ns#"
   xmlns:rdf="http://www.w3.org/1999/02/22-rdf-syntax-ns#"
   xmlns:svg="http://www.w3.org/2000/svg"
   xmlns="http://www.w3.org/2000/svg"
   xmlns:sodipodi="http://sodipodi.sourceforge.net/DTD/sodipodi-0.dtd"
   xmlns:inkscape="http://www.inkscape.org/namespaces/inkscape"
   width="210mm"
   height="297mm"
   viewBox="0 0 210 297"
   version="1.1"
   id="svg2079"
   inkscape:version="1.0.2-2 (e86c870879, 2021-01-15)"
   sodipodi:docname="repair.svg">
  <defs
     id="defs2073" />
  <sodipodi:namedview
     id="base"
     pagecolor="#ffffff"
     bordercolor="#666666"
     borderopacity="1.0"
     inkscape:pageopacity="0.0"
     inkscape:pageshadow="2"
     inkscape:zoom="0.35"
     inkscape:cx="400"
     inkscape:cy="560"
     inkscape:document-units="mm"
     inkscape:current-layer="svg2079"
     inkscape:document-rotation="0"
     showgrid="false"
     inkscape:pagecheckerboard="true"
     showborder="false"
     inkscape:window-width="1267"
     inkscape:window-height="921"
     inkscape:window-x="26"
     inkscape:window-y="0"
     inkscape:window-maximized="0" />
  <metadata
     id="metadata2076">
    <rdf:RDF>
      <cc:Work
         rdf:about="">
        <dc:format>image/svg+xml</dc:format>
        <dc:type
           rdf:resource="http://purl.org/dc/dcmitype/StillImage" />
        <dc:title></dc:title>
      </cc:Work>
    </rdf:RDF>
  </metadata>
  <path
     d="M 125.49675,134.17471 Q 128.50065,104.80313 109.14211,81.77315 99.796613,70.425032 87.447199,64.083444 75.097785,57.741852 60.411996,56.073014 H 59.74446 q -16.020861,13.01695 -24.865711,31.541065 -8.84485,18.524131 -8.84485,40.219031 0,21.69492 8.84485,40.38593 8.84485,18.691 24.865711,31.70795 13.01695,-1.00131 24.365059,-6.50847 11.348111,-5.50718 20.192961,-14.18514 8.84486,-8.67797 14.5189,-20.19296 5.67406,-11.515 6.67537,-24.86571 z m -29.705353,83.44198 h -0.667536 l 0.667536,0.66754 z m 23.029983,3.33768 q 19.35853,0 36.21382,-7.34289 16.85528,-7.34289 29.53847,-20.02608 12.68317,-12.68319 20.02607,-29.53846 7.34289,-16.85528 7.34289,-36.21383 0,-19.02477 -7.34289,-36.046934 Q 197.25684,74.764024 184.57367,62.24772 171.89048,49.731422 155.0352,42.388528 138.17991,35.045633 118.82138,35.045633 h -0.66752 v 1.335072 l -7.34291,11.014342 q 5.00652,3.671448 9.67928,7.676663 4.67274,4.005215 9.01173,9.679269 h 0.66752 l 9.67928,-8.677965 q 4.67275,5.674054 8.67797,11.848765 4.00521,6.174704 7.34289,12.850067 l -12.34941,5.674047 q 2.67013,6.007823 4.67274,12.015646 2.00261,6.007821 3.00391,12.683181 l 13.35073,-2.33638 q 0.66753,4.67276 1.16818,9.51239 0.50065,4.83964 0.50065,9.51238 0,2.67015 -0.16688,5.00652 -0.16688,2.33638 -0.16688,5.00652 v 0.33378 l -13.35072,-1.33508 q -0.66754,6.67536 -2.0026,12.85006 -1.33508,6.17471 -3.67146,12.51631 l 12.34941,4.67274 q -5.00652,13.68449 -13.68447,25.70014 l -10.68058,-7.67667 q -3.67145,5.34029 -8.17731,10.17993 -4.50587,4.83963 -9.51238,8.84484 l 9.01172,10.34682 q -2.67013,1.66883 -4.83962,3.33767 -2.16949,1.66885 -4.50588,3.33768 z M 157.53846,256 q 16.68839,0 31.37418,-6.34159 14.6858,-6.34158 25.53326,-17.18904 10.84745,-10.84746 17.18904,-25.53326 6.34159,-14.68578 6.34159,-31.37418 V 80.43807 q 0,-16.688395 -6.34159,-31.374183 Q 225.29335,34.378097 214.4459,23.53064 203.59844,12.683182 188.91264,6.3415904 174.22685,0 157.53846,0 H 80.438073 Q 63.749675,0 49.063887,6.3415904 34.378097,12.683182 23.53064,23.53064 12.683182,34.378097 6.3415904,49.063887 0,63.749675 0,80.43807 v 95.12386 q 0,16.6884 6.3415904,31.37418 6.3415916,14.6858 17.1890496,25.53326 10.847457,10.84746 25.533247,17.18904 Q 63.749675,256 80.438073,256 Z m 68.75619,-127.83311 q 0,22.02868 -8.51108,41.5541 -8.51109,19.52543 -23.02998,34.04433 -14.51892,14.51891 -34.04433,23.02999 -19.52543,8.51109 -41.88788,8.51109 -22.028679,0 -41.554103,-8.51109 -19.525425,-8.51108 -34.04433,-23.02999 -14.518904,-14.5189 -23.029986,-34.04433 -8.511083,-19.52542 -8.511083,-41.5541 0,-22.36246 8.511083,-41.887879 8.511082,-19.525424 23.029986,-34.04433 14.518905,-14.518905 34.04433,-23.029986 19.525424,-8.511082 41.554103,-8.511082 22.36245,0 41.88788,8.511082 19.52541,8.511081 34.04433,23.029986 14.51889,14.518906 23.02998,34.04433 8.51108,19.525419 8.51108,41.887879 z"
     id="path102"
     style="display:inline;stroke-width:0.333768"
     inkscape:label="dial repair" />
</svg>
