<?xml version="1.0" encoding="UTF-8" standalone="no"?>
<svg
   xmlns:dc="http://purl.org/dc/elements/1.1/"
   xmlns:cc="http://creativecommons.org/ns#"
   xmlns:rdf="http://www.w3.org/1999/02/22-rdf-syntax-ns#"
   xmlns:svg="http://www.w3.org/2000/svg"
   xmlns="http://www.w3.org/2000/svg"
   xmlns:sodipodi="http://sodipodi.sourceforge.net/DTD/sodipodi-0.dtd"
   xmlns:inkscape="http://www.inkscape.org/namespaces/inkscape"
   width="210mm"
   height="297mm"
   viewBox="0 0 210 297"
   version="1.1"
   id="svg3270"
   inkscape:version="1.0.2-2 (e86c870879, 2021-01-15)"
   sodipodi:docname="squadron.svg">
  <defs
     id="defs3264" />
  <sodipodi:namedview
     id="base"
     pagecolor="#ffffff"
     bordercolor="#666666"
     borderopacity="1.0"
     inkscape:pageopacity="0.0"
     inkscape:pageshadow="2"
     inkscape:zoom="0.35"
     inkscape:cx="400"
     inkscape:cy="560"
     inkscape:document-units="mm"
     inkscape:current-layer="layer1"
     inkscape:document-rotation="0"
     showgrid="false"
     inkscape:pagecheckerboard="true"
     showborder="false"
     inkscape:window-width="1267"
     inkscape:window-height="921"
     inkscape:window-x="26"
     inkscape:window-y="0"
     inkscape:window-maximized="0" />
  <metadata
     id="metadata3267">
    <rdf:RDF>
      <cc:Work
         rdf:about="">
        <dc:format>image/svg+xml</dc:format>
        <dc:type
           rdf:resource="http://purl.org/dc/dcmitype/StillImage" />
        <dc:title></dc:title>
      </cc:Work>
    </rdf:RDF>
  </metadata>
  <g
     inkscape:label="Layer 1"
     inkscape:groupmode="layer"
     id="layer1">
    <path
       d="m 119,35.666667 q 19.33333,0 36.16666,7.166665 Q 172,49.999996 184.49999,62.500003 197,74.999996 204.33333,91.833332 211.66666,108.66667 211.66666,128 q 0,15.66667 -5,29.83334 -5,14.16666 -13.83332,25.83333 Q 184,195.33333 172,203.83334 160,212.33333 145.66667,217 q 1.66666,-8 3.66666,-16 2,-8 4.33334,-15.33333 l -5.33334,-6 h -5.66666 Q 139,188.33333 135.16666,199 q -3.83333,10.66667 -6.49999,21.33333 H 119 q -7,0 -13.66667,-0.49999 Q 98.666671,219.33333 92.333329,217 100,180.33333 112.66667,152.33333 125.33333,124.33333 139.33333,105 L 136,99.333338 127.33333,96.666667 Q 113,115.66667 97.499994,143.33333 82,171 72.333329,208.33333 q -7,-4.33333 -13,-9.66666 Q 53.333329,193.33333 48,187.33333 53.333329,164 60.499994,144.66667 67.666671,125.33333 76.333329,109 l -4.666658,-7.33333 -5.333342,-1 q -8.666658,14 -16.833335,30.16667 Q 41.333329,147 34,166.33333 30.333329,157.66667 28.166665,147.83334 26,138 26,128 26,108.66667 33.166665,91.833332 40.333329,74.999996 53,62.500003 65.666671,49.999996 82.499994,42.833332 99.333329,35.666667 119,35.666667 Z m -19.333329,24.666671 -46.666671,31 21.666671,6 13.666658,18.000002 z m 39.999999,34 L 151,114.66667 168,60.999996 118,87.333338 Z M 171.33333,134.66667 128.66667,172 l 23,2.33333 14.99999,17 z M 157.33333,0 Q 174,0 188.66666,6.3333329 q 14.66667,6.3333331 25.5,17.3333331 10.83334,11.000001 17.16667,25.666672 6.33333,14.666658 6.33333,31.333329 v 94.666663 q 0,16.66667 -6.33333,31.33334 -6.33333,14.66666 -17.16667,25.66666 -10.83333,11 -25.5,17.33334 Q 174,256 157.33333,256 H 80.333329 Q 63.666671,256 49,249.66667 34.333329,243.33333 23.499994,232.33333 12.666671,221.33333 6.3333291,206.66667 0,192 0,175.33333 V 80.666667 Q 0,63.999996 6.3333291,49.333338 12.666671,34.666667 23.499994,23.666666 34.333329,12.666666 49,6.3333329 63.666671,0 80.333329,0 Z M 226,128 q 0,-22 -8.50001,-41.499997 -8.49999,-19.500007 -23,-34 -14.49999,-14.500007 -34,-23 Q 141,21 118.66667,21 q -21.999999,0 -41.500005,8.500003 -19.499994,8.499993 -34,23 -14.499994,14.499993 -23,34 Q 11.666671,106 11.666671,128 q 0,22.33333 8.499994,41.83334 8.500006,19.49999 23,34 14.500006,14.49999 34,22.83333 Q 96.666671,235 118.66667,235 141,235 160.49999,226.66667 q 19.50001,-8.33334 34,-22.83333 14.50001,-14.50001 23,-34 Q 226,150.33333 226,128 Z"
       id="path98"
       style="display:inline;stroke-width:0.333333" />
  </g>
</svg>
