<?xml version="1.0" encoding="UTF-8" standalone="no"?>
<svg
   xmlns:dc="http://purl.org/dc/elements/1.1/"
   xmlns:cc="http://creativecommons.org/ns#"
   xmlns:rdf="http://www.w3.org/1999/02/22-rdf-syntax-ns#"
   xmlns:svg="http://www.w3.org/2000/svg"
   xmlns="http://www.w3.org/2000/svg"
   xmlns:sodipodi="http://sodipodi.sourceforge.net/DTD/sodipodi-0.dtd"
   xmlns:inkscape="http://www.inkscape.org/namespaces/inkscape"
   width="210mm"
   height="297mm"
   viewBox="0 0 210 297"
   version="1.1"
   id="svg1455"
   inkscape:version="1.0.2-2 (e86c870879, 2021-01-15)"
   sodipodi:docname="combat.svg">
  <defs
     id="defs1449" />
  <sodipodi:namedview
     id="base"
     pagecolor="#ffffff"
     bordercolor="#666666"
     borderopacity="1.0"
     inkscape:pageopacity="0.0"
     inkscape:pageshadow="2"
     inkscape:zoom="0.35"
     inkscape:cx="400"
     inkscape:cy="560"
     inkscape:document-units="mm"
     inkscape:current-layer="layer1"
     inkscape:document-rotation="0"
     showgrid="false"
     inkscape:pagecheckerboard="true"
     showborder="false"
     inkscape:window-width="4096"
     inkscape:window-height="2066"
     inkscape:window-x="-11"
     inkscape:window-y="-11"
     inkscape:window-maximized="1" />
  <metadata
     id="metadata1452">
    <rdf:RDF>
      <cc:Work
         rdf:about="">
        <dc:format>image/svg+xml</dc:format>
        <dc:type
           rdf:resource="http://purl.org/dc/dcmitype/StillImage" />
        <dc:title></dc:title>
      </cc:Work>
    </rdf:RDF>
  </metadata>
  <g
     inkscape:label="Layer 1"
     inkscape:groupmode="layer"
     id="layer1">
    <path
       glyph-name="O"
       unicode="O"
       horiz-adv-x="759"
       d="m 34.423494,172.174 q 19.783617,-9.8918 34.819167,-9.8918 5.935085,0 8.704791,1.97835 3.165379,2.37403 12.661515,4.74807 4.748069,1.18701 6.924266,3.16538 2.176198,1.97837 3.758887,7.1221 2.76971,7.51777 2.76971,8.30912 0,0.79135 -21.36631,0.79135 -13.848531,0 -17.409582,-0.59351 -3.561052,-0.59351 -4.352397,-2.96754 -0.791345,-1.5827 -1.187017,-1.5827 -1.582689,0 -8.309119,6.33077 l -8.704791,8.70479 Q 36.797528,187.20955 28.884081,174.9437 Z m 146.003086,-8.70479 q 4.74806,-3.56105 9.49613,-3.56105 3.16539,0 14.63989,3.75889 11.47449,3.75888 17.40957,6.92427 l 6.33077,3.56105 -6.72643,10.68315 q -1.97837,2.7697 -3.36322,5.73724 -1.38485,2.96755 -2.1762,4.15456 -0.79134,1.18702 -1.58269,1.18702 -1.18701,0 -7.51777,-6.33075 -6.72643,-7.1221 -9.49613,-7.1221 -1.5827,0 -1.5827,2.7697 0,3.16538 -21.36631,3.16538 -21.36631,0 -21.36631,-0.79135 0,-0.79135 2.76972,-8.30912 1.58269,-5.14373 3.75889,-7.1221 2.1762,-1.97837 6.92426,-3.16538 7.51777,-1.97836 13.84853,-5.53941 z m -58.16382,-10.28748 q 1.97835,-0.79135 5.5394,-0.79135 7.12211,0 13.05719,4.9459 5.93509,4.94592 5.93509,11.27667 0,13.45285 -7.91345,18.20092 -6.33076,3.16539 -10.68314,3.16539 -5.93509,0 -11.87018,-4.74807 -6.33076,-5.53942 -6.33076,-14.24421 0,-13.45285 12.26585,-17.80525 z M 0,130.6284 q 0,-1.58269 21.761979,-3.16538 h 3.561051 q 5.14374,0 8.506956,2.37403 3.363214,2.37403 13.650696,12.66152 l 15.431222,15.03556 -7.517776,1.58268 q -7.913446,1.58269 -24.531685,7.1221 -3.165379,1.18702 -7.715611,2.57187 -4.550231,1.38485 -6.924265,2.1762 -2.374034,0.79135 -2.769708,0.79135 -0.791343,0 -7.1221019,-19.98145 Q 0,131.81542 0,130.6284 Z m 210.49768,10.28749 q 14.24421,-15.43123 19.78361,-15.43123 h 1.18702 q 5.53942,0 15.03555,1.58269 9.49614,1.58268 9.49614,2.7697 0,3.56105 -12.26584,39.56725 -0.79135,0.79133 -1.5827,0.79133 -2.7697,0 -11.07882,-3.56105 -10.68315,-4.74807 -22.94899,-7.1221 -2.37403,-0.79133 -5.34158,-1.38485 l -4.94591,-0.98918 -1.58268,-0.39567 q 0,-0.79135 14.2442,-15.82689 z M 239.77743,1.2435415 q 2.76972,-1.58268886 3.7589,-0.98918034 0.98917,0.59350853 1.78052,3.75888774 0.39566,0.7913437 0.39566,2.3740341 0,3.956723 -7.91343,10.683154 -12.66152,12.265846 -12.66152,21.3663 0,6.330767 4.3524,21.366306 2.37403,8.30912 2.37403,16.618239 0,19.783623 -10.68315,38.775898 -10.68316,18.99227 -28.48841,29.27976 -6.33077,3.56105 -18.79444,8.30912 -12.46369,4.74807 -15.62906,4.74807 -2.37403,0 -7.91345,-7.1221 l -5.53941,-6.72644 9.49613,-4.3524 q 15.82691,-6.72642 24.53169,-19.19011 8.70479,-12.46367 8.70479,-27.499227 0,-8.309119 -0.98917,-11.474503 -0.98918,-3.165369 -4.94592,-7.122102 -5.93508,-5.935085 -11.07882,-5.935085 -5.14373,0 -5.14373,-4.352386 0,-12.265853 -11.07884,-12.265853 -6.33075,0 -8.70478,2.374034 -0.79135,0.79135 -1.38485,0.79135 -0.59352,0 -0.98918,-0.79135 l -0.98919,-1.978352 q 0,0 -1.38485,-3.956733 -1.18701,-4.352386 -1.18701,-7.122102 0,-3.165369 3.16538,-10.683154 7.1221,-15.035542 24.92735,-15.035542 9.10046,0 15.03554,-4.748069 5.53942,-4.7480682 29.27976,-5.5394134 23.34467,-1.5826889 27.69706,-3.5610511 z M 20.970635,2.0348867 q 6.330757,2.3740341 20.574962,2.3740341 h 5.539412 q 1.978362,0 5.143741,-0.1978367 3.165378,-0.1978352 4.352395,-0.1978352 9.100464,0 16.222567,5.1437401 8.704791,5.935086 18.200927,5.935086 10.683151,0 15.826891,3.956723 10.28748,8.309118 10.28748,23.344672 0,3.165369 -0.39567,4.352386 -1.58269,5.14375 -5.14374,5.14375 -2.37403,0 -7.1221,-1.187017 -0.79134,-0.395682 -1.97836,-0.395682 -3.956727,0 -7.319941,3.956734 -3.363214,3.956718 -3.363214,8.704786 0,3.165384 -1.187018,4.154567 -1.187017,0.989169 -4.748068,0.989169 -7.122102,0 -11.87017,6.528601 -4.748068,6.528586 -4.748068,16.816072 0,11.870174 2.769706,18.200924 3.165379,7.91345 11.672333,16.22257 8.506956,8.30912 17.60742,12.66152 l 11.07883,5.14374 -5.53942,6.72644 q -5.53941,7.1221 -7.913443,7.1221 -3.956725,0 -18.003093,-5.73725 Q 66.868627,146.05962 60.537869,141.70722 38.380217,126.276 30.071098,104.90969 25.32303,93.039521 25.32303,76.025615 q 0,-15.431222 3.956724,-24.927358 2.769706,-6.726435 2.769706,-12.66152 0,-9.496137 -11.474498,-20.970628 -9.100463,-9.1004652 -9.100463,-13.0571882 0,-3.95672297 1.780525,-4.35239631 1.780526,-0.39567185 7.715611,1.97836221 z"
       id="path24"
       style="display:inline;stroke-width:0.395672"
       inkscape:label="conflict-combat" />
  </g>
</svg>
