<?xml version="1.0" encoding="UTF-8" standalone="no"?>
<svg
   xmlns:dc="http://purl.org/dc/elements/1.1/"
   xmlns:cc="http://creativecommons.org/ns#"
   xmlns:rdf="http://www.w3.org/1999/02/22-rdf-syntax-ns#"
   xmlns:svg="http://www.w3.org/2000/svg"
   xmlns="http://www.w3.org/2000/svg"
   xmlns:sodipodi="http://sodipodi.sourceforge.net/DTD/sodipodi-0.dtd"
   xmlns:inkscape="http://www.inkscape.org/namespaces/inkscape"
   width="210mm"
   height="297mm"
   viewBox="0 0 210 297"
   version="1.1"
   id="svg866"
   inkscape:version="1.0.2-2 (e86c870879, 2021-01-15)"
   sodipodi:docname="intrigue.svg">
  <defs
     id="defs860" />
  <sodipodi:namedview
     id="base"
     pagecolor="#ffffff"
     bordercolor="#666666"
     borderopacity="1.0"
     inkscape:pageopacity="0.0"
     inkscape:pageshadow="2"
     inkscape:zoom="0.35"
     inkscape:cx="400"
     inkscape:cy="560"
     inkscape:document-units="mm"
     inkscape:current-layer="layer1"
     inkscape:document-rotation="0"
     showgrid="false"
     inkscape:pagecheckerboard="true"
     showborder="false"
     inkscape:window-width="4096"
     inkscape:window-height="2066"
     inkscape:window-x="-11"
     inkscape:window-y="-11"
     inkscape:window-maximized="1" />
  <metadata
     id="metadata863">
    <rdf:RDF>
      <cc:Work
         rdf:about="">
        <dc:format>image/svg+xml</dc:format>
        <dc:type
           rdf:resource="http://purl.org/dc/dcmitype/StillImage" />
        <dc:title></dc:title>
      </cc:Work>
    </rdf:RDF>
  </metadata>
  <g
     inkscape:label="Layer 1"
     inkscape:groupmode="layer"
     id="layer1">
    <path
       glyph-name="P"
       unicode="P"
       horiz-adv-x="852"
       d="m 116.6451,148.64516 q 0,-1.03226 -6.88164,-9.46236 -6.88176,-8.43011 -13.763525,-16.34409 l -6.881634,-7.91398 q -1.376431,-1.37634 -3.440947,3.09677 -1.720408,3.78495 -6.537526,6.53764 -2.064516,0.68817 -3.268893,1.72043 -1.204247,1.03225 -0.860139,1.37635 0,0.68816 10.322581,6.19353 10.32258,5.50539 20.817213,10.49464 10.49451,4.98923 10.49451,4.30107 z m 59.18288,-30.96774 q 0,-3.78495 -1.37643,-4.81721 h -0.34398 q -1.37643,0 -9.29039,8.94624 -7.91395,8.94624 -14.96777,18.06451 -7.05369,9.11828 -6.70958,9.11828 0.68808,0 16.68818,-8.08602 15.99997,-8.08602 19.44079,-10.15053 1.7204,-1.37635 -0.68822,-5.16129 -2.7526,-4.12903 -2.7526,-7.91398 z m -61.2474,5.50537 q -6.19355,-18.92473 -7.91396,-20.64516 -1.3763,-1.37634 -3.44081,1.37635 -2.75274,2.75268 -7.225875,2.75268 -5.849441,0 -5.849441,1.03226 0,1.72043 14.623666,18.58065 14.62367,16.86021 15.65599,16.86021 l -0.68821,-2.75268 q -0.68822,-2.7527 -2.06452,-7.5699 -1.3763,-4.8172 -3.09684,-9.63441 z m 45.41935,-19.26881 q -3.78492,-6.193546 -5.16122,-6.193546 -1.03232,0 -8.25806,21.161286 -7.22588,21.16128 -7.22588,23.91397 0,0.68818 3.95711,-3.44085 3.95698,-4.12903 11.18272,-12.3871 12.04299,-13.76343 12.04299,-16.51613 0,-0.34408 -0.34411,-0.34408 -2.40849,0 -6.19355,-6.19355 z M 128,119.74194 V 96.688176 q -3.09684,-0.344094 -9.46231,-0.344094 -6.3656,0 -9.46244,-0.344082 l 7.91395,21.67742 q 7.91396,23.39784 9.6345,23.39784 1.3763,0 1.3763,-21.33332 z m 10.32258,-24.086022 q -4.12903,-3.440869 -5.50533,-3.440869 -1.37643,0 -1.37643,25.462371 0,23.74193 1.37643,23.74193 l 8.60204,-21.33333 q 5.84957,-15.48387 5.84957,-18.23655 0,-1.72044 -1.37643,-2.064519 -1.3763,-0.344095 -7.56985,-4.129033 z M 81.548322,10.666662 q 3.096839,0 14.795721,2.752693 11.699007,2.752692 14.451617,2.752692 4.47314,0 11.69901,-4.817208 7.22574,-4.8172089 7.22574,-7.5698884 Q 129.72041,0 131.09671,0 q 3.78505,0 20.98927,13.419355 7.56998,5.849467 12.38709,5.849467 3.09684,0 5.16136,-0.344095 8.94615,-1.032258 11.69888,-4.817196 l 3.09684,-3.78495 2.7526,4.129032 q 5.16136,6.881725 9.97848,15.139789 7.22587,11.354839 13.41942,14.107518 5.84944,2.408611 10.66668,2.408611 3.78493,0 5.50534,-1.720434 2.06451,-2.064516 3.78492,1.37634 1.37643,2.064516 4.47314,15.31183 3.09684,13.247314 3.09684,16.344088 0,1.032258 8.94615,9.290322 L 256,94.967742 l -47.48387,24.774198 -58.83878,30.96774 -11.35477,6.19355 q 5.50533,4.12903 8.25807,6.53763 l -5.84945,5.16129 q -5.50546,5.50537 -11.3549,5.50537 -4.81712,0 -9.29026,-4.47312 -4.12903,-4.12903 -4.12903,-7.2258 0,-2.06452 3.09671,-3.78495 0.34411,0 0.34411,-0.68817 0,-2.40861 -55.741938,-32.34408 Q 2.7527315,92.903226 1.3763007,91.870968 0,90.83871 0,89.806452 q 0,-1.032258 6.8817638,-6.53763 8.2580642,-6.537644 14.1075052,-9.634418 5.161225,-3.096774 8.94615,-10.15054 3.785054,-7.053752 3.785054,-12.903219 0,-3.78495 -1.37643,-5.16129 -1.032193,-1.032258 -1.032193,-1.720435 0,-3.784937 19.26873,-6.53763 9.634495,-1.376339 12.731205,-2.924733 3.096839,-1.548381 8.258064,-7.053766 6.193549,-6.53763 6.193549,-10.666662 0,-1.032258 -0.344108,-2.752692 v -1.720422 q 0,0 1.032323,-1.032258 1.032193,-1.032258 3.096709,-0.344095 z"
       id="path26"
       style="display:inline;stroke-width:0.344086"
       inkscape:label="conflict-intrigue" />
  </g>
</svg>
