<?xml version="1.0" encoding="UTF-8" standalone="no"?>
<svg
   xmlns:dc="http://purl.org/dc/elements/1.1/"
   xmlns:cc="http://creativecommons.org/ns#"
   xmlns:rdf="http://www.w3.org/1999/02/22-rdf-syntax-ns#"
   xmlns:svg="http://www.w3.org/2000/svg"
   xmlns="http://www.w3.org/2000/svg"
   xmlns:sodipodi="http://sodipodi.sourceforge.net/DTD/sodipodi-0.dtd"
   xmlns:inkscape="http://www.inkscape.org/namespaces/inkscape"
   width="210mm"
   height="297mm"
   viewBox="0 0 210 297"
   version="1.1"
   id="svg11522"
   inkscape:version="1.0.2-2 (e86c870879, 2021-01-15)"
   sodipodi:docname="upgrade-commander.svg">
  <defs
     id="defs11516" />
  <sodipodi:namedview
     id="base"
     pagecolor="#ffffff"
     bordercolor="#666666"
     borderopacity="1.0"
     inkscape:pageopacity="0.0"
     inkscape:pageshadow="2"
     inkscape:zoom="0.35"
     inkscape:cx="400"
     inkscape:cy="560"
     inkscape:document-units="mm"
     inkscape:current-layer="layer1"
     inkscape:document-rotation="0"
     showgrid="false"
     inkscape:pagecheckerboard="true"
     showborder="false"
     inkscape:window-width="1267"
     inkscape:window-height="1198"
     inkscape:window-x="182"
     inkscape:window-y="163"
     inkscape:window-maximized="0" />
  <metadata
     id="metadata11519">
    <rdf:RDF>
      <cc:Work
         rdf:about="">
        <dc:format>image/svg+xml</dc:format>
        <dc:type
           rdf:resource="http://purl.org/dc/dcmitype/StillImage" />
        <dc:title></dc:title>
      </cc:Work>
    </rdf:RDF>
  </metadata>
  <g
     inkscape:label="Layer 1"
     inkscape:groupmode="layer"
     id="layer1">
    <path
       d="m 127.99999,0 q 26.52531,0 49.81205,10.024096 23.28675,10.024097 40.55904,27.450602 17.27229,17.426506 27.45061,40.713251 Q 256,101.47469 256,127.99999 q 0,26.21687 -10.17831,49.50361 -10.17832,23.28675 -27.45061,40.71325 -17.27229,17.42651 -40.55904,27.45061 -23.28674,10.0241 -49.81205,10.0241 -26.52529,0 -49.812041,-10.0241 Q 54.901204,235.64336 37.628915,218.21685 20.356626,200.79035 10.178313,177.5036 0,154.21686 0,127.99999 0,101.47469 10.178313,78.187949 20.356626,54.901204 37.628915,37.474698 54.901204,20.048193 78.187949,10.024096 101.4747,0 127.99999,0 Z M 65.38795,225.15662 q 1.542169,0.9253 3.701205,2.00482 l 4.009639,2.00481 -4.318073,-17.88915 -2.159035,-38.24579 -2.159037,27.75904 z m 85.74457,-14.80482 0.61688,-7.71085 -6.47711,-0.30843 -0.9253,7.71084 z m -6.78553,2.7759 -1.23374,7.71084 6.78554,0.9253 0.9253,-8.01928 z m 8.32771,-105.48433 q -1.23373,0.30843 -2.62169,0.77109 -1.38795,0.46264 -2.00482,2.00482 -1.54217,3.08433 -1.23373,5.5518 0.30843,2.46746 -0.30844,3.08433 -2.15903,2.15903 -4.78072,6.16868 -2.62169,4.00964 -5.08915,8.01927 2.7759,-2.15903 3.7012,-2.7759 1.54216,-1.54216 4.62651,-4.78072 3.08433,-3.23855 3.39276,-4.4723 0.30844,-0.61686 0.61687,-2.31324 0.30843,-1.69639 0.9253,-3.85542 0.61687,-2.46747 0.9253,-5.5518 z m -16.65542,101.78313 6.16867,0.61686 0.9253,-7.71084 -6.16867,-0.61687 z m -0.30843,2.7759 -0.92531,7.71084 5.86024,0.9253 0.9253,-8.01928 z m 17.27228,1.54216 -0.9253,8.01928 6.4771,0.92531 1.23375,-8.63615 z m 7.40241,-2.46746 0.9253,-8.01928 -6.78554,-0.61687 -0.9253,8.32771 z m 2.15904,3.39276 -0.9253,8.01929 7.09397,0.9253 0.30844,-8.63614 z m 7.09397,-2.46746 0.30844,-8.01928 -6.47711,-0.61687 -0.9253,7.71085 z m -34.85301,-10.48675 -5.86024,-0.30843 -1.54217,7.09398 6.47711,0.61686 z m -7.71085,9.56145 -0.9253,8.01927 5.55181,0.61687 1.54217,-8.01928 z m 103.63374,-30.53494 q 0.61687,-1.23374 1.07951,-2.31326 0.46266,-1.07951 0.77109,-2.31324 -0.30843,-0.30845 -0.30843,-0.61688 0,-0.30843 -0.61687,-0.61687 v -0.61686 h -0.30843 -0.61687 v -0.30844 H 230.4 h -0.61687 -0.30843 -0.61688 -0.30843 -0.61687 -0.30843 l -0.30843,-0.30843 q -0.30844,0 -0.61687,-0.15421 -0.30843,-0.15422 -0.61687,-0.15422 -0.9253,-0.61687 -2.46746,-1.07951 -1.54217,-0.46266 -3.39278,-1.69639 -1.8506,-0.61687 -3.85542,-1.54217 -2.00481,-0.9253 -3.54699,-1.54218 -1.8506,-0.9253 -4.31807,-1.8506 l -1.8506,-1.23373 q -0.92531,-0.61687 -3.39277,-1.8506 -2.15904,-1.23373 -7.40241,-2.93012 -5.24337,-1.69639 -8.94458,-3.23856 -2.15903,-0.61686 -5.24338,-2.00482 -3.08433,-1.38794 -6.16866,-2.93012 -3.39278,-1.23373 -7.40241,-3.08433 l -0.61687,-3.7012 q -0.30843,-1.54218 -0.61688,-3.39278 -0.30843,-1.8506 -0.9253,-3.39277 l -3.7012,-7.40241 q -1.23373,-2.15904 -2.46746,-4.93494 h -0.30845 -0.9253 -0.30843 q -0.61687,0 -0.77108,-0.30843 -0.15422,-0.30844 -0.77109,-0.30844 l 0.61687,-1.8506 0.30843,-11.72047 v -1.8506 q -0.30843,-0.61688 -0.9253,-0.61688 -0.30843,0 -0.30843,-0.30843 -1.54217,3.39277 -2.62169,6.93976 -1.07951,3.54698 -1.69638,5.39758 v 14.18795 q 2.15904,-2.15903 3.39277,-2.7759 0.61687,-0.30843 1.07952,-0.61686 0.46265,-0.30844 1.07951,-0.61687 0.30844,-0.30843 0.61687,-0.30843 l 7.71084,20.35662 39.78795,15.42168 0.30845,0.9253 q -1.54218,2.15905 -4.31808,6.3229 l -5.24338,7.86506 q -0.9253,1.54216 -2.93012,5.70603 -2.00481,4.16384 -4.47229,9.86988 -2.46746,5.70602 -5.39759,11.87469 -2.93012,6.16868 -5.08915,11.41205 l 0.61687,-4.6265 -7.40241,-0.9253 -0.9253,8.63614 5.86024,0.61687 q -2.46748,5.55181 -3.08434,8.32771 0,0.30843 -0.30844,0.77108 -0.30843,0.46265 -0.30843,0.77108 3.39278,-1.54216 6.3229,-3.08433 2.93011,-1.54218 5.70602,-3.08434 l 3.7012,-14.80482 4.93494,-19.12289 8.63615,-17.27229 q 1.54216,-2.15904 2.7759,-3.70121 2.77591,-3.39276 3.70121,-3.39276 0.61686,0.30843 2.93012,1.07951 2.31324,0.77109 4.78072,1.69639 l 6.16868,2.46746 q 0,0.30844 0.30843,0.30844 h 1.54217 q -0.61687,0.92531 -2.31326,4.93494 -1.69639,4.00964 -3.85542,8.79037 -2.15903,4.78072 -4.00963,9.09878 -1.85061,4.31808 -2.46748,6.47711 -0.30843,0.61687 -0.77108,1.8506 -0.46265,1.23375 -0.46265,1.85061 l 2.31325,-2.31325 q 0,0 2.31326,-2.62169 0.61686,-1.8506 0.9253,-3.39277 0.30843,-1.54217 0.9253,-2.15904 0.61686,-1.54217 2.31325,-4.16385 1.69638,-2.62168 3.23856,-5.08916 1.8506,-3.08433 4.00963,-6.47711 0.30843,-0.61687 0.61687,-2.15903 0.30843,-0.9253 0.46265,-2.00482 0.15421,-1.07952 0.77108,-2.62169 0.30843,0.61686 0.92531,0.61686 0,0.30845 0.30843,1.23375 0.30844,0.61686 0.30844,1.69638 0,1.07952 0.61686,2.00482 z m -51.50843,32.0771 0.30843,-8.32771 -6.47711,-0.30843 -1.23373,8.01928 z m 54.28433,-38.86265 q 4.62651,-10.79517 7.40241,-22.51566 2.7759,-11.72048 2.7759,-23.44096 0,-24.05782 -9.09879,-45.03132 -9.09879,-20.973491 -24.82891,-36.70361 -15.73012,-15.730121 -36.85783,-24.828915 -21.12771,-9.098796 -44.87712,-9.098796 -24.05782,0 -45.185535,9.098796 -21.12771,9.098794 -36.703613,24.828915 -15.575903,15.730119 -24.674697,36.70361 -9.098796,20.9735 -9.098796,45.03132 0,22.20723 7.710844,41.79277 7.710843,19.58554 21.898794,34.69879 0,-2.7759 0.462651,-7.55662 0.46265,-4.78072 0.925301,-9.40723 0.46265,-4.62651 1.079518,-8.79036 0.616868,-4.16386 1.542169,-5.70603 1.850601,-4.00963 5.089156,-6.16867 3.238554,-2.15904 3.238554,-2.46747 h 0.308434 l 14.187951,-3.39277 3.701205,-5.55181 0.616868,-0.30843 0.308433,-0.61687 14.187952,-4.00964 11.103614,-4.93493 0.308433,-8.32771 0.616868,-0.30845 0.308433,-0.61686 0.616873,-0.30844 q -1.850607,-2.15903 -3.392776,-4.47228 -1.542168,-2.31325 -2.159036,-2.93013 v -0.61686 l -0.616868,-0.30844 -0.616866,-4.31806 q -0.308435,-1.54217 -0.771085,-3.39278 -0.462651,-1.8506 -0.771084,-3.39277 -0.616868,-2.46746 -1.696386,-7.24818 -1.079518,-4.78072 -1.079518,-6.01446 -0.616868,-0.9253 -1.542169,-2.77591 -0.925301,-1.850599 -2.159036,-3.855417 -1.233734,-2.004817 -2.004819,-4.163849 -0.771084,-2.159044 -0.771084,-3.701205 -0.308434,-2.467474 0.308433,-5.243377 0.616868,-2.775904 1.233736,-4.318076 -0.616868,-1.850603 -1.387952,-3.701205 -0.771085,-1.850603 -1.387952,-3.701205 -0.616868,-2.467468 -0.154217,-6.014455 0.46265,-3.546988 1.079518,-7.248193 v -2.775903 q 0,0 0.308434,-1.850603 0,-0.308433 0.308433,-0.616867 0.308435,-0.308434 0.308435,-0.616867 -0.616868,-1.233736 -0.925302,-4.009639 -0.308434,-2.775904 0.308434,-5.551808 0.616868,-1.850602 2.46747,-4.163855 1.850602,-2.313253 4.009638,-4.472289 2.46747,-2.159035 5.86024,-4.626506 L 109.49397,25.6 l 7.09398,-4.318073 q 2.7759,-0.308433 5.86024,-0.308433 h 4.47229 q 0,0 3.23856,0.308433 2.15903,0.616868 4.78072,2.00482 2.62169,1.387952 2.93012,1.387952 0.30843,0.308433 2.31324,0.771084 2.00483,0.46265 4.4723,1.079518 2.46747,0.616867 4.78072,1.542168 2.31326,0.925301 3.54699,1.850602 2.15904,1.542169 7.09398,5.860241 4.93493,4.318073 8.01928,7.710844 2.7759,3.39277 4.00963,6.631324 1.23373,3.238555 1.8506,6.631326 0.30843,1.850602 0.61688,4.318071 0.30843,2.467471 0.46264,4.780724 0.15421,2.313253 0.46266,4.163855 0.30843,1.8506 0.30843,2.467471 0.61687,1.542173 1.54217,3.238549 0.9253,1.696387 0.9253,2.004829 -0.61687,0 -1.54217,4.318064 2.15903,2.775904 1.54217,8.019281 -0.30844,1.850602 -2.00483,4.934936 -1.69637,3.084345 -3.7012,6.168674 -2.00482,3.08434 -3.85542,5.3976 -1.85061,2.31324 -2.46747,2.93012 -1.54217,1.54216 -3.23856,1.69638 -1.69638,0.15422 -2.62168,0.15422 l -0.92531,12.33734 h 0.92531 l 0.30844,0.30843 0.61686,0.61687 q 0.30844,0.30843 2.7759,4.93494 2.46747,4.6265 3.70121,7.71085 1.54217,5.86023 2.15904,9.56144 2.15903,1.23373 8.17348,3.85542 6.01447,2.62169 9.71567,3.85542 0.61687,0.61687 1.54217,0.77108 0.92531,0.15422 2.15904,0.77109 3.39277,0.9253 7.09398,2.31326 3.7012,1.38794 5.24336,1.69637 2.15905,0.61688 3.70121,2.00483 1.54217,1.38795 2.15904,1.69638 0.61686,0.61687 4.47228,2.31326 3.85543,1.69639 6.63133,2.62169 2.46747,1.23373 4.31807,1.8506 1.8506,0.61686 2.46747,0.9253 h 1.23373 q 2.15905,0 4.62651,1.8506 z"
       id="path48"
       style="display:inline;stroke-width:0.308433"
       inkscape:label="Commander" />
  </g>
</svg>
