<?xml version="1.0" encoding="UTF-8" standalone="no"?>
<svg
   xmlns:dc="http://purl.org/dc/elements/1.1/"
   xmlns:cc="http://creativecommons.org/ns#"
   xmlns:rdf="http://www.w3.org/1999/02/22-rdf-syntax-ns#"
   xmlns:svg="http://www.w3.org/2000/svg"
   xmlns="http://www.w3.org/2000/svg"
   xmlns:sodipodi="http://sodipodi.sourceforge.net/DTD/sodipodi-0.dtd"
   xmlns:inkscape="http://www.inkscape.org/namespaces/inkscape"
   width="210mm"
   height="297mm"
   viewBox="0 0 210 297"
   version="1.1"
   id="svg7988"
   inkscape:version="1.0.2-2 (e86c870879, 2021-01-15)"
   sodipodi:docname="upgrade-defensive-retrofit.svg">
  <defs
     id="defs7982" />
  <sodipodi:namedview
     id="base"
     pagecolor="#ffffff"
     bordercolor="#666666"
     borderopacity="1.0"
     inkscape:pageopacity="0.0"
     inkscape:pageshadow="2"
     inkscape:zoom="0.35"
     inkscape:cx="400"
     inkscape:cy="560"
     inkscape:document-units="mm"
     inkscape:current-layer="layer1"
     inkscape:document-rotation="0"
     showgrid="false"
     inkscape:pagecheckerboard="true"
     showborder="false"
     inkscape:window-width="1267"
     inkscape:window-height="1198"
     inkscape:window-x="208"
     inkscape:window-y="163"
     inkscape:window-maximized="0" />
  <metadata
     id="metadata7985">
    <rdf:RDF>
      <cc:Work
         rdf:about="">
        <dc:format>image/svg+xml</dc:format>
        <dc:type
           rdf:resource="http://purl.org/dc/dcmitype/StillImage" />
        <dc:title></dc:title>
      </cc:Work>
    </rdf:RDF>
  </metadata>
  <g
     inkscape:label="Layer 1"
     inkscape:groupmode="layer"
     id="layer1">
    <path
       d="m 127.8456,0 q 26.24849,0 49.71772,10.03619 23.46925,10.036191 40.76237,27.483708 17.29313,17.44753 27.48372,40.607964 Q 256,101.2883 256,127.8456 q 0,26.24849 -10.19059,49.71772 -10.19059,23.46925 -27.48372,40.91678 -17.29312,17.44752 -40.76237,27.48371 Q 154.09409,256 127.8456,256 101.2883,256 77.973461,245.96381 54.658626,235.92762 37.365497,218.4801 20.072381,201.03257 10.03619,177.56332 0,154.09409 0,127.8456 0,101.2883 10.03619,78.127862 20.072381,54.967428 37.365497,37.519898 54.658626,20.072381 77.973461,10.03619 101.2883,0 127.8456,0 Z m -54.349825,230.06031 0.308814,0.30881 6.176108,-25.01327 -0.308802,-18.83715 -4.632087,-3.70567 -1.852835,47.24728 z m 5.249703,2.16164 q 0,0.30881 2.161636,1.54403 l 6.484922,-30.88057 v -1.23523 -8.64656 l -5.867306,-5.2497 q 0.308802,2.47045 0.617615,5.5585 0.308802,3.08807 0.617604,5.5585 0.308814,3.08807 0.617616,5.86732 z m 24.395652,-31.18938 -2.47044,-0.30881 -0.30881,39.83595 q 1.23523,0 2.16165,0.30881 z m 2.47045,0.61761 h -1.23522 l -0.92641,39.21834 q 0.6176,0 0.772,0.3088 0.15441,0.3088 1.08083,0.3088 z m 51.87938,-91.71532 -15.4403,27.17491 8.64656,11.73462 17.91074,0.92641 z m 15.44028,38.90953 22.23401,-33.35102 -33.65982,-6.48493 z m -6.17611,49.10012 -2.47045,0.92641 q 0,1.54404 -0.1544,3.08807 -0.1544,1.54402 -0.1544,2.77925 v 2.77925 l 2.16163,7.72015 0.92642,-17.29313 z m -17.91074,38.90953 q -0.61761,-7.10253 -0.92642,-14.20507 -0.3088,-7.10253 -0.92642,-14.51387 h -3.70566 l -1.85283,28.71894 z m 4.9409,-129.08082 h -27.79253 l 2.16164,4.01448 h 11.11701 v 4.94089 h -8.02894 l 7.10252,14.82268 z m 16.98431,127.5368 q 2.77925,-0.92642 5.5585,-2.31605 2.77926,-1.38962 5.55851,-2.93366 v -5.5585 l -4.63209,-23.77805 -3.39687,5.86732 V 192.0772 l -0.3088,-33.04222 -4.01447,23.77805 0.3088,12.04342 z m 15.13148,-82.14235 10.49941,-7.10254 1.85283,-27.4837 -6.79374,9.88178 -15.13148,22.85163 z m 11.73462,-43.23281 -3.08805,-26.557295 -0.30881,-1.23522 -0.92642,-0.617615 -17.60193,-6.17612 z m -6.17612,-32.424602 -17.60193,-14.205074 -1.23521,1.235231 -0.92642,0.926417 q 0,0.308802 -0.3088,0.617604 h -0.30882 -0.3088 l 1.85284,4.632087 z m -30.26296,27.483712 33.35103,6.48492 -22.85163,-36.13028 z m 7.41134,-31.498195 -32.1158,-4.632087 21.92521,34.586252 z m -22.54282,-19.454765 -0.92641,-0.308802 -9.57299,11.425811 31.18939,4.632087 z m 17.91074,10.190591 v -1.852834 q 0,-0.926418 0.3088,-0.926418 l 1.23522,-0.617604 1.23523,-0.617615 -1.54403,-3.396868 -0.30881,-0.308802 -16.0579,-4.323285 z m -20.9988,-12.969843 -8.95536,-0.308802 v 2.161637 q 1.54402,1.235231 1.85283,1.544033 0.61761,0.617615 0.77201,1.852834 0.15441,1.23522 0.15441,1.852835 z m -8.95536,22.234017 -13.27866,20.381183 3.39687,9.572982 29.33654,0.61761 z m -2.77925,-22.542819 h -9.57299 l 6.17612,7.720141 q 0,-0.926417 0.3088,-2.161637 0.30881,-1.235219 0.92642,-1.852834 0.61761,-0.617616 1.08082,-0.772017 0.46321,-0.154401 1.08083,-0.772016 z m -11.73463,1.235219 -4.01447,13.896261 12.35223,-0.617604 z m -4.01447,17.910744 3.08806,17.910733 12.04342,-19.145964 z m -3.39687,132.786491 -4.94089,-0.92642 -0.92641,39.52713 q 0.92641,0.30882 2.16163,0.30882 l 0.92642,-25.01327 2.47045,-0.92642 z m 75.03981,24.39565 q 1.23522,-0.61761 2.16164,-1.38962 0.92642,-0.77202 2.16163,-1.38963 l -0.6176,-47.24729 -3.70567,2.77925 z m 9.26418,-6.79372 q 1.23521,-0.61762 2.16163,-1.38963 0.92642,-0.77202 1.85284,-1.38962 l -0.3088,-48.17371 v -4.01448 -0.61761 0.61761 l -3.70567,24.08685 z m 9.57297,-91.71532 0.92642,-4.94089 4.94089,3.08805 1.85283,-3.08805 -11.42581,-6.48492 -1.23522,27.4837 8.33776,-13.89626 z m 6.79372,-8.64656 -13.27864,-32.115808 2.47045,25.322078 z m -10.49939,96.03859 q 18.83715,-16.05789 30.10857,-38.90953 11.27141,-22.85163 11.27141,-49.40892 0,-24.08685 -9.10977,-45.085651 -9.10977,-20.998786 -24.85887,-36.593481 -15.74909,-15.594694 -36.90229,-24.704467 -21.1532,-9.109773 -44.93124,-9.109773 -24.08685,0 -45.240052,9.109773 -21.153199,9.109773 -36.747893,24.704467 -15.594683,15.594695 -24.704456,36.747882 -9.109773,21.1532 -9.109773,44.93125 0,27.17491 11.425811,50.48974 11.425822,23.31484 31.498191,39.37275 l 1.235231,-49.10013 -1.852835,-1.23522 -12.661042,-44.46803 0.308802,-0.61762 17.601931,-37.056691 -2.779253,-4.014471 q -0.926417,-0.617616 0,-1.544033 0,-0.308802 0.926418,-0.308802 h 0.308813 v -6.484922 h 0.617604 v -5.867317 h 0.926418 v 5.867317 h 0.926417 v 6.484922 h 1.852835 l 1.235231,-3.088066 2.779252,-1.852834 -3.70567,-4.632087 v -0.926418 q 0.926418,-0.926417 1.544021,-0.926417 l 0.308814,0.308814 V 60.21713 h 0.926417 v -8.337756 h 1.23522 v 8.337756 h 0.617615 v 8.028955 l 6.793724,0.617603 13.896261,-9.572975 -0.617616,-0.617616 v -0.308802 q 0.617616,-0.617615 0.772016,-1.080818 0.154401,-0.463215 0.772017,-0.772017 h 0.926417 0.308802 v -6.793723 h 0.617616 V 41.37998 h 1.235219 v 8.337757 h 0.926417 v 6.176108 l 4.940901,-3.088054 21.925199,-4.940889 11.42583,0.308802 v -1.852835 h 0.92641 v -8.337756 h 0.92642 v 8.337756 h 0.92642 v 1.852835 l 11.11701,0.617615 20.68998,5.867307 4.94089,3.088054 h 0.3088 v -6.793724 h 0.61762 v -8.646558 h 0.92642 v 8.646558 h 0.92641 v 6.484922 h 0.92642 q 1.23522,0.308802 1.23522,1.235219 0,1.852835 -0.3088,2.779252 l 11.42581,8.64657 7.41134,-0.926417 v -8.028955 h 0.92641 v -8.337756 h 0.92642 v 8.337756 h 1.23523 v 8.028955 h 0.3088 q 0.92642,0 0.92642,0.617604 1.23522,0.617615 0,1.235231 l -3.39687,5.558504 3.08807,2.161637 0.3088,1.852834 v -5.867306 h 0.92642 v -6.484921 h 0.92642 v 6.484921 h 0.61761 v 5.867306 h 0.3088 q 0.92642,0 0.92642,0.926418 0.61762,0 0.61762,0.463203 0,0.463214 -0.61762,0.463214 l -1.85283,2.779252 16.67551,39.527141 -14.20506,43.85042 -0.92642,1.23522 z m -20.07238,-94.18577 -10.19059,-1.54402 0.61762,-5.2497 9.57297,1.54403 z"
       id="path60"
       style="display:inline;stroke-width:0.308805"
       inkscape:label="Defensive Retrofit" />
  </g>
</svg>
