<?xml version="1.0" encoding="UTF-8" standalone="no"?>
<svg
   xmlns:dc="http://purl.org/dc/elements/1.1/"
   xmlns:cc="http://creativecommons.org/ns#"
   xmlns:rdf="http://www.w3.org/1999/02/22-rdf-syntax-ns#"
   xmlns:svg="http://www.w3.org/2000/svg"
   xmlns="http://www.w3.org/2000/svg"
   xmlns:sodipodi="http://sodipodi.sourceforge.net/DTD/sodipodi-0.dtd"
   xmlns:inkscape="http://www.inkscape.org/namespaces/inkscape"
   width="210mm"
   height="297mm"
   viewBox="0 0 210 297"
   version="1.1"
   id="svg5632"
   inkscape:version="1.0.2 (e86c8708, 2021-01-15)"
   sodipodi:docname="experimental-retrofit.svg">
  <defs
     id="defs5626" />
  <sodipodi:namedview
     id="base"
     pagecolor="#ffffff"
     bordercolor="#666666"
     borderopacity="1.0"
     inkscape:pageopacity="0.0"
     inkscape:pageshadow="2"
     inkscape:zoom="1.4"
     inkscape:cx="215.26592"
     inkscape:cy="339.65528"
     inkscape:document-units="mm"
     inkscape:current-layer="svg5632"
     inkscape:document-rotation="0"
     showgrid="false"
     inkscape:pagecheckerboard="true"
     showborder="false"
     inkscape:window-width="1922"
     inkscape:window-height="1174"
     inkscape:window-x="0"
     inkscape:window-y="25"
     inkscape:window-maximized="0" />
  <metadata
     id="metadata5629">
    <rdf:RDF>
      <cc:Work
         rdf:about="">
        <dc:format>image/svg+xml</dc:format>
        <dc:type
           rdf:resource="http://purl.org/dc/dcmitype/StillImage" />
        <dc:title />
      </cc:Work>
    </rdf:RDF>
  </metadata>
  <path
     id="path68"
     style="display:inline;stroke-width:0.308806"
     inkscape:label="Experimental Retrofit"
     d="M 128,0 C 110.60393,0 94.031179,3.3968667 78.282081,10.190597 62.532975,16.984328 48.945509,26.093871 37.519692,37.519692 26.093868,48.945511 16.984328,62.532978 10.190597,78.282081 3.3968667,94.031184 0,110.55235 0,127.84549 c 0,17.29314 3.3968667,33.86588 10.190597,49.71792 6.793731,15.85203 15.903271,29.49107 27.329095,40.9169 11.425817,11.42582 25.013283,20.53536 40.762389,27.32909 C 94.031179,252.60314 110.60393,256 128,256 c 17.39607,0 33.96881,-3.39686 49.71792,-10.1906 15.7491,-6.79373 29.33656,-15.90327 40.76239,-27.32909 11.42582,-11.42583 20.53536,-25.06487 27.32909,-40.9169 C 252.60314,161.71137 256,145.13863 256,127.84549 256,110.55235 252.60314,94.031184 245.8094,78.282081 239.01567,62.532978 229.90613,48.945511 218.48031,37.519692 207.05448,26.093871 193.46702,16.984328 177.71792,10.190597 161.96881,3.3968667 145.39607,0 128,0 Z m -12.81524,12.352224 -1.85312,3.705718 c -1.23522,2.676319 -3.34524,6.278977 -6.33037,10.808132 -2.98512,4.529153 -6.22777,8.852344 -9.727573,12.969757 -4.940896,5.764377 -13.896225,13.999175 -26.866075,24.704446 L 46.93876,41.688947 50.026427,39.218296 c 1.483808,-1.31894 3.773783,-3.041016 6.841965,-5.152141 1.226098,1.157637 3.16622,1.567205 4.634848,0.538017 0.986002,-0.727128 2.199594,-2.092363 1.181336,-4.372411 3.284889,-2.058409 6.682386,-4.004351 10.193697,-5.836339 6.793731,-3.4998 13.896413,-6.227195 21.307756,-8.182967 0.679434,-0.179296 1.316141,-0.344076 1.95492,-0.50953 1.167567,2.702781 4.045141,4.221242 6.407361,3.582729 2.21831,-0.599612 4.24647,-3.259676 3.50263,-5.937625 3.00618,-0.578847 6.14666,-0.983784 9.13382,-0.995805 z m 10.62313,1.518771 c 5.98474,0.01529 11.44871,0.532999 15.47089,1.105876 7.92602,1.132288 16.00659,3.139669 24.24143,6.021857 6.79373,2.264576 13.63853,5.558805 20.53519,9.882088 6.89667,4.323283 11.42617,7.46278 13.58781,9.418552 2.16164,1.95577 4.59233,4.023373 5.82755,5.258597 l -1.65881,1.689304 -5.24982,-4.632279 c -3.29393,-2.88219 -8.49186,-6.381693 -15.5944,-10.499106 -7.10254,-4.117411 -14.20522,-7.41164 -21.30775,-9.882088 -7.10255,-2.470448 -14.56524,-4.168882 -22.38831,-5.095299 -7.82309,-0.926417 -12.97435,-1.052357 -15.90395,-0.946713 -2.78505,0.100432 -5.346,0.393528 -7.03885,0.505913 l 1.01751,-2.492872 5.86735,-0.308509 c 0.87353,-0.01964 1.73919,-0.0275 2.59416,-0.02532 z m 0.185,4.348573 0.15864,37.107315 -11.95948,0.908987 -0.50436,1.247472 -7.64915,1.260904 -0.94981,-0.761193 -16.952982,7.174757 -0.05943,1.661399 -7.468799,5.66684 L 78.645365,72.0437 76.8925,73.186783 c -1.029349,0.823482 -2.26462,1.904538 -3.705719,3.242698 -1.441094,1.33816 -2.573214,2.419213 -3.396693,3.242698 -1.409037,1.761289 -4.249264,5.031636 -6.974256,9.033043 L 49.466624,68.681704 58.364423,58.981958 44.119292,44.329099 45.71196,42.836165 71.643206,68.245996 76.274967,64.231768 c 3.293929,-2.882185 7.051321,-6.227477 11.27167,-10.036085 4.220347,-3.808605 7.462487,-6.948623 9.72706,-9.419065 4.529153,-5.146768 10.499713,-13.689995 17.911063,-25.630491 z m 4.63227,0.149862 4.94079,0.467672 c 3.49979,0.205871 8.49194,1.029558 14.97687,2.470652 6.48492,1.441093 12.8155,3.602689 18.99162,6.484879 6.17612,2.676317 11.99195,5.918451 17.44752,9.727059 5.45557,3.808604 9.00667,6.48494 10.65362,8.02897 1.64697,1.54403 3.37834,3.177311 4.20181,4.000793 l -11.92176,12.520687 c -2.0171,-1.622955 -4.27875,-3.378051 -5.93401,-4.665866 -1.85283,-1.441096 -3.8602,-3.000397 -6.02185,-4.544427 -2.16164,-1.54403 -8.3243,-5.435656 -12.85969,-7.413507 -6.25692,-2.728594 -12.91442,-4.512151 -19.56677,-6.042009 -4.93493,-1.134899 -6.33281,-1.286363 -15.0146,-2.308906 z m -0.25011,21.466401 c 0,0 9.90976,1.077509 14.76396,2.161626 5.61141,1.253226 8.95817,2.384326 16.50856,4.999696 l -6.31796,14.455457 c -4.12298,-1.766987 -7.72638,-3.462623 -12.06542,-4.396118 -2.88218,-0.617612 -7.08096,-1.36851 -13.25708,-1.780253 z m 61.55648,3.483509 c -0.78514,0.01804 -1.57884,0.305768 -2.0159,0.839743 -0.84417,1.031354 -0.66944,3.158319 0.37982,3.980121 1.04609,0.819312 3.16581,0.494517 3.94343,-0.582912 0.74836,-1.036881 0.35755,-3.008105 -0.66301,-3.778582 -0.42833,-0.323374 -1.03368,-0.472401 -1.64434,-0.45837 z M 42.306483,45.703176 53.114614,57.746891 c -0.823487,0.617612 -1.904541,1.646574 -3.242698,3.087668 -1.338157,1.441096 -2.779219,3.139528 -4.323254,5.095298 -1.544025,1.955771 -3.293524,4.52947 -5.249294,7.720463 -1.955769,3.190996 -5.46835,10.879807 -7.918324,16.450556 -2.776875,6.314059 -3.559182,7.48191 -7.676597,19.216534 l -8.95553,5.24981 0.484209,-4.57285 7.4811,-4.30682 c 1.710628,-5.01468 4.175175,-10.077425 6.085521,-15.053245 1.366145,-3.779236 2.529711,-7.212971 4.243903,-10.653619 3.705674,-8.440697 10.10799,-17.43922 14.843015,-22.380115 L 40.61046,47.464826 Z m 166.353747,2.924888 5.03329,6.03064 c 3.08806,3.705672 6.79387,9.212558 11.11715,16.520965 4.32329,7.308406 7.61752,14.771096 9.88209,22.388309 1.64697,5.352639 2.88172,10.911622 3.70521,16.675992 0.82349,5.76437 1.33822,10.65336 1.54409,14.66784 0.20587,4.01448 0.20587,8.02924 0,12.04372 -0.20587,4.01447 -0.41167,6.63924 -0.61754,7.87446 -0.20587,1.23523 -0.41166,2.16155 -0.61753,2.77916 l -3.08818,0.61753 1.23558,-7.41092 c 0.61761,-5.14676 0.61761,-12.19786 0,-21.15324 -0.61761,-8.95537 -2.16183,-17.3449 -4.63228,-25.167984 -2.26458,-7.411343 -5.71302,-14.977186 -10.34511,-22.697332 -4.63209,-7.720149 -7.97738,-12.866511 -10.03608,-15.439892 -2.05871,-2.573384 -3.70557,-4.580766 -4.94079,-6.021859 z m -42.83151,0.472321 c 2.59186,1.37504 4.37317,2.485278 6.02185,3.551208 1.7499,1.132287 3.60255,2.367559 5.55832,3.705719 1.95578,1.33816 4.06632,2.933436 6.33089,4.786272 2.26458,1.852836 4.21986,3.705486 5.86683,5.558319 4.32328,4.735025 10.08805,13.176132 17.29352,25.322497 l 17.91054,-8.337996 1.5441,4.014229 c 1.02936,2.676317 2.16147,5.81633 3.39669,9.419068 1.23523,3.602729 2.05891,6.535919 2.47065,8.800499 1.02935,4.52915 1.74988,11.63184 2.16163,21.30775 l -35.51258,-0.3085 -1.23558,-10.1906 -1.23507,-0.92656 -1.54409,-6.7939 1.23558,-0.92656 -5.00796,-12.568751 -2.17041,-0.292489 -8.30906,-11.689731 0.56689,-2.655654 c -3.06942,-2.899591 -7.3801,-7.630084 -10.28413,-9.999395 -2.26458,-1.852835 -5.57324,-4.482541 -11.54349,-7.5706 z m 39.02916,3.445271 10.68876,13.84774 c 1.85283,2.88219 4.32337,7.411173 7.41143,13.58729 l -15.13189,7.719947 -6.56757,-11.056178 c 0,0 -4.65229,-7.265999 -8.56382,-11.795152 z m -89.67312,13.538715 1.18571,1.151866 c 0,0 9.90168,-0.502065 13.32814,-0.323493 7.74956,0.414809 14.3538,2.116737 20.6897,4.730462 4.52915,2.058708 10.08762,5.455573 16.67548,10.190598 1.85282,1.441094 4.32337,4.11743 7.41143,8.028971 l 1.7446,0.108005 4.1398,6.560842 -0.63459,1.668633 5.55832,12.969755 1.85312,0.30903 0.92656,5.24981 -1.23558,1.23507 0.30902,10.80813 c 0,2.47045 -0.20579,6.17626 -0.61753,11.11715 l 1.23506,0.61754 -0.30902,2.47065 -1.8526,0.92604 -0.30903,2.16163 c -0.20587,1.64697 -0.87482,3.91171 -2.00711,6.7939 -1.13229,2.88218 -2.62493,5.66116 -4.47776,8.33748 -4.73504,6.9996 -11.01403,13.58755 -18.83711,19.76366 l -7.71994,-4.01423 -2.16163,1.23507 c -1.23523,0.61761 -3.2426,1.28656 -6.02186,2.00711 -2.77925,0.72056 -5.86717,1.28688 -9.26404,1.69861 -3.39687,0.41174 -7.46269,0.3091 -12.19771,-0.30851 -4.73503,-0.61761 -9.57347,-1.95604 -14.51436,-4.01474 -5.76438,-2.26458 -11.425481,-5.97039 -16.983988,-11.11716 -5.558507,-5.14677 -9.573267,-10.49944 -12.043714,-16.05794 -2.882193,-6.17612 -4.529042,-12.71249 -4.940787,-19.60915 -0.411737,-6.89666 -0.308586,-11.5288 0.309026,-13.89632 0.617611,-2.36751 0.825249,-3.74335 1.236985,-4.97858 l 2.017968,2.85195 -0.784818,3.20771 c -0.617612,2.26458 -0.77183,5.97039 -0.463021,11.11715 0.3088,5.14677 1.389862,10.49944 3.242698,16.05794 2.470447,7.41134 7.205216,14.20507 14.204824,20.3812 9.675917,8.64657 21.925477,13.17555 36.748157,13.58729 2.8822,0.20587 6.07275,-0.10307 9.57255,-0.92656 3.49979,-0.82348 5.91877,-1.44085 7.25693,-1.8526 1.33815,-0.41173 3.85292,-1.42536 4.47053,-1.8371 l 1.55132,0.60152 3.3967,-1.85261 c 2.26458,-1.23521 5.14722,-3.6026 8.64702,-7.10241 3.49979,-3.4998 6.38192,-7.51456 8.6465,-12.04371 3.29394,-6.17612 5.30079,-12.91828 6.02134,-20.22668 0.72056,-7.30841 0.15476,-13.74161 -1.69808,-19.30013 -0.82349,-3.91154 -2.47034,-7.87473 -4.94079,-11.8892 -2.47045,-4.014482 -5.24995,-7.668713 -8.338,-10.962645 -3.08806,-3.293927 -6.27913,-6.073418 -9.57306,-8.337996 -5.55851,-3.705669 -10.65381,-6.227273 -15.2859,-7.565433 -4.63209,-1.33816 -11.68319,-1.698684 -21.15324,-1.08107 -4.11741,0.20587 -8.90376,1.441144 -14.35933,3.705716 -5.455572,2.264578 -9.830338,4.631965 -13.124275,7.102415 -6.793726,5.558502 -12.661139,13.587507 -17.602034,24.086913 l -4.588353,-7.28476 c 1.21644,-3.02176 2.212012,-4.668046 3.507799,-6.920066 1.544033,-2.676318 3.345105,-5.250013 5.403805,-7.720461 1.646969,-1.852836 4.220667,-4.426016 7.720464,-7.719947 l 0.308509,-1.544094 4.940787,-3.088183 1.879987,0.285255 15.254371,-6.961852 0.46768,-1.352374 z m 14.35933,14.822875 c 2.77926,0.20587 5.50717,0.617453 8.18349,1.235065 4.73503,1.235224 10.39613,4.014716 16.98398,8.337999 l -8.95501,10.1906 c 1.62611,1.58262 3.27126,3.39636 4.47776,4.78627 1.33815,1.54403 2.62449,3.24247 3.85972,5.0953 1.23522,1.85284 2.31627,3.96285 3.24269,6.33036 0.92642,2.36752 1.49221,4.68384 1.69809,6.94842 0.82348,12.55811 -2.16128,22.02818 -8.95501,28.41017 -3.49979,3.29393 -7.15403,5.86711 -10.96264,7.71994 -3.80861,1.85284 -6.33073,2.83073 -7.56595,2.93368 -1.23523,0.1029 -2.26471,0.15451 -3.08819,0.15451 l -10.80813,-7.71995 -8.52957,13.68752 -1.92264,-1.23369 8.29893,-13.90604 0.15087,-3.84824 3.72169,-5.36609 c -4.78423,-2.75239 -9.63456,-8.03302 -10.36578,-12.80284 -0.41175,-2.47045 -0.0864,-5.13546 0.61753,-7.56595 0.74582,-2.57514 2.17941,-4.95971 3.73104,-7.12515 l -15.123296,-8.8028 c 3.324636,-3.32843 6.619736,-7.14729 10.774726,-9.54854 3.89391,-2.250367 8.36053,-3.602487 12.79488,-4.281498 l -1.3687,-13.320539 c 3.15181,-0.53208 6.25948,-0.516408 9.10952,-0.308507 z m -13.09921,0.83416 1.21001,9.356436 c -3.75385,1.250205 -7.03189,2.452435 -10.30119,4.203218 -2.81139,1.505567 -5.58388,3.197102 -7.918378,5.36985 -2.494786,2.32193 -4.580463,5.35265 -6.330365,8.02897 -1.749903,2.67631 -2.933596,4.99213 -3.551208,6.9479 -0.617609,1.95577 -1.002041,3.77855 -1.235068,5.71283 -0.210322,1.74582 -0.14973,3.58392 -0.14174,5.27343 l -6.772198,0.26178 -0.165365,-1.7567 4.370501,-0.14699 -6.533532,-8.59401 c 0.38843,-1.74419 0.944211,-3.56236 1.36736,-4.91908 0.514678,-1.64697 1.235213,-3.3454 2.161625,-5.0953 0.926423,-1.74989 2.161695,-3.70571 3.705719,-5.86735 1.544035,-2.161643 3.139823,-4.065863 4.786791,-5.712829 2.676318,-2.264575 5.352656,-4.271956 8.028971,-6.021859 2.676327,-1.749899 4.289557,-2.844396 6.639387,-3.86023 3.40913,-1.473761 7.40981,-2.394364 10.67868,-3.180066 z m -74.200704,1.705442 21.854268,9.515334 1.718454,3.570456 -1.894153,7.225932 c -1.603619,5.5455 -2.521293,10.00997 -2.862359,15.1319 -0.287669,4.32003 0.144912,8.676 0.700731,12.96976 0.850053,6.56676 1.386531,13.37702 4.014744,19.45464 3.196512,7.39178 13.896318,19.76366 13.896318,19.76366 0,0 7.797412,7.95998 12.402349,11.02465 5.403102,3.59586 17.551392,8.42998 17.551392,8.42998 l 0.61805,-1.54409 c 4.55335,1.07558 5.60338,1.61762 8.47132,2.1115 3.55982,0.61303 6.43374,0.65742 10.78591,1.04748 l 0.50591,1.78232 22.54283,-4.01474 8.94534,-2.78529 -0.20051,-1.61075 2.8803,-2.09548 7.24083,2.85003 3.36835,-2.84339 c 1.44109,-1.23522 3.44847,-3.34523 6.02186,-6.33036 2.57338,-2.98512 4.99234,-6.53673 7.25692,-10.65414 4.11741,-7.41135 6.99954,-13.99929 8.6465,-19.76366 l -1.38544,-1.28519 0.53433,-2.73782 2.23604,-1.12603 0.9431,-11.251 35.03715,0.96015 v 8.02897 c -0.20588,1.85283 -0.61745,4.8376 -1.23506,8.95501 l -17.29301,4.63228 -1.85312,9.26404 c -0.61761,2.05871 -1.95552,5.76452 -4.01423,11.11715 l -12.04371,-7.10241 -7.71995,10.80813 c -2.0587,2.67631 -5.76452,6.79371 -11.11715,12.35223 l -3.38068,-1.25161 -3.72174,2.17816 c -2.67631,1.85284 -6.94793,3.91128 -12.81524,6.17586 -5.86732,2.26457 -11.78631,3.8088 -17.75655,4.63228 -3.49981,0.61761 -7.41141,0.8234 -11.73469,0.61753 -4.32328,-0.20588 -7.87437,-0.46324 -10.65362,-0.77205 -2.77925,-0.30881 -5.66138,-0.82354 -8.6465,-1.54409 -2.98513,-0.72055 -4.94094,-1.18371 -5.86735,-1.38958 -0.92642,-0.20588 -1.69853,-0.41166 -2.31614,-0.61753 l -13.278779,29.95426 -2.779161,-1.23559 c 4.20634,-9.70693 8.843837,-21.91576 12.399249,-30.39299 -1.527591,-0.91024 -3.252919,-1.70992 -5.747454,-3.60082 -1.441091,-0.82347 -3.357945,-2.39351 -6.03426,-4.14341 -2.676322,-1.7499 -5.455295,-3.9115 -8.33748,-6.48488 -2.882192,-2.57338 -5.970627,-6.02182 -9.264556,-10.34511 -3.293935,-4.32328 -6.072908,-8.95542 -8.337477,-13.89632 -2.676326,-5.55849 -4.580543,-11.42591 -5.712834,-17.60203 -1.132282,-6.17611 -1.698604,-11.4772 -1.698604,-15.90343 0,-4.42621 0.411586,-8.80099 1.235067,-13.12427 0.823479,-4.32328 1.441372,-7.15383 1.853117,-8.492 0.411744,-1.33814 0.82333,-2.419209 1.235067,-3.24269 l 2.219358,-0.01625 0.86859,-2.055631 -19.731237,-9.088685 z m 115.555574,9.81262 c 1.32683,1.497458 1.99736,2.42227 2.77916,3.396693 0.82349,1.029354 1.75032,2.213048 2.77967,3.551209 1.02935,1.33816 2.05831,2.88238 3.08767,4.63228 1.02935,1.7499 2.05884,3.55149 3.08819,5.40432 1.02935,1.85283 1.85304,3.8597 2.47065,6.02134 0.61761,2.16164 1.13236,4.37481 1.54409,6.63939 0.61761,5.14677 0.10287,10.9626 -1.54409,17.44752 -1.64697,6.48494 -3.80857,11.68339 -6.48488,15.59493 -1.85283,2.67633 -3.96337,5.09529 -6.33088,7.25692 -2.36751,2.16165 -4.42596,3.86008 -6.17586,5.0953 -1.7499,1.23523 -3.60306,2.2647 -5.55883,3.08818 -3.18077,1.2932 -4.59267,1.3906 -7.00733,1.91927 l -0.69143,-3.29696 -1.76992,-0.0997 0.45364,3.86127 -1.97263,0.43925 -0.90102,-8.38192 3.70572,-1.8526 c 2.67631,-1.02936 5.66108,-2.62516 8.95501,-4.78679 3.29393,-2.16165 5.55868,-4.27167 6.79391,-6.33037 1.64697,-2.05871 2.57329,-3.29398 2.77916,-3.70572 0.20587,-0.41175 0.92639,-1.64702 2.16162,-3.70572 1.23522,-2.0587 1.95576,-3.65398 2.16163,-4.78627 0.20587,-1.13229 0.56639,-2.77914 1.08107,-4.94079 0.51468,-2.16163 0.72047,-4.42639 0.61753,-6.7939 -0.10293,-2.36751 -0.36029,-4.99228 -0.77204,-7.87446 -0.41175,-3.29393 -1.75017,-6.79395 -4.01475,-10.49962 -2.26458,-3.70567 -3.963,-6.22779 -5.09529,-7.56595 -1.1323,-1.33816 -2.10968,-2.31555 -2.93316,-2.93316 z m -62.070147,18.528082 11.734687,6.7939 c -1.65179,2.13428 -2.31445,4.66735 -2.62464,7.10241 -0.21012,2.11956 -0.23394,4.19265 0.15451,6.17637 0.82348,3.29393 1.9556,6.02183 3.39669,8.18349 1.13365,1.69032 3.05169,4.1242 6.01824,5.98878 l -1.69499,2.19418 -2.16162,0.92656 -18.88627,-17.7471 -9.523899,0.45409 -0.308507,-2.16162 9.763453,-0.49802 c -0.146349,-2.04 -0.135306,-4.01155 -0.03639,-5.67835 0.102934,-1.64695 0.257662,-2.98487 0.463537,-4.01423 0.823482,-2.88219 2.058235,-5.45589 3.705203,-7.72046 z m 121.669637,0.61805 c -1.02935,0 -1.9041,0.30843 -2.62465,0.92604 -0.72055,0.61761 -1.08107,1.4413 -1.08107,2.47065 0,1.02936 0.36052,1.90411 1.08107,2.62465 0.72055,0.72055 1.5953,1.08107 2.62465,1.08107 1.02935,0 1.90461,-0.36052 2.62516,-1.08107 0.72055,-0.72054 1.08056,-1.59529 1.08056,-2.62465 -0.21188,-1.06025 -0.51004,-1.70946 -0.92656,-2.16163 -0.61761,-0.82348 -1.54393,-1.23506 -2.77916,-1.23506 z M 37.674203,139.27167 c 1.347965,5.75276 2.636161,10.41517 4.169259,15.74892 0.96167,2.65321 1.940687,5.54074 2.933156,8.02897 3.911536,8.23482 8.543675,15.74908 13.896315,22.54282 l -2.470135,1.8526 c -7.349391,-9.7128 -11.294463,-16.08161 -14.513851,-22.54282 -2.264572,-5.14678 -4.63248,-13.48421 -7.102928,-25.01296 z m 203.157207,11.47992 -1.81539,7.66569 c -3.49981,11.73463 -5.76456,18.73415 -6.79391,20.99873 -2.26458,4.52915 -6.48513,11.32288 -12.66125,20.38119 -5.01791,-0.95944 -9.68386,-1.87358 -14.49111,-2.78019 l -2.8019,2.16266 c -1.73228,1.33731 -3.65434,3.08846 -6.02185,4.9413 -2.36751,1.85283 -4.37437,3.19074 -6.02135,4.01423 -11.94049,6.58785 -21.51371,10.80842 -28.71919,12.66125 -8.23482,2.26458 -18.52277,4.02309 -30.46327,3.40548 l -10.60762,14.50506 -5.86735,-0.61753 11.73418,-16.9845 c 4.20537,0.38229 8.24113,0.34372 12.50673,0.15451 4.01448,-0.10293 7.97767,-0.56609 11.8892,-1.38958 7.20548,-1.44109 14.92552,-4.11743 23.16036,-8.02897 8.64656,-4.32328 15.74924,-8.95543 21.30775,-13.89632 6.79373,-5.97025 12.24904,-12.55818 16.36645,-19.76366 2.67632,-4.73503 5.35266,-12.45509 8.02897,-23.16035 7.09105,-1.41822 14.187,-2.81427 21.27055,-4.269 z m -127.19318,-0.28582 0.002,2.70221 -8.02898,13.5873 -2.26238,-1.71167 8.43824,-13.72874 z m 85.23293,19.6862 8.95502,5.55884 -6.17586,9.57254 c -1.4411,2.05871 -4.00899,5.27518 -7.30292,8.98085 l -5.97586,-1.87792 -14.51385,9.88157 c -3.08806,1.85283 -7.82283,4.11758 -14.20483,6.79391 l 0.92605,3.70572 -5.2493,1.23506 -1.54409,-6.7939 c 2.9132,-1.47668 6.05339,-2.91239 8.80102,-4.01423 2.94335,-1.31184 5.63584,-2.43232 8.18296,-4.32325 5.76439,-3.91155 11.22021,-8.33789 16.36697,-13.27878 2.88219,-3.08806 6.7938,-8.23494 11.73469,-15.44041 z M 78.551316,202.76498 c 0.514652,-0.0209 1.020607,0.0649 1.45831,0.2589 2.058702,1.23523 2.698304,2.52083 1.824178,4.8023 -0.996924,1.39254 -2.250517,2.42514 -3.879867,2.46755 0.08774,-0.24813 0.133323,-0.54241 0.133323,-0.88626 0,-1.23522 -0.565798,-1.8526 -1.698089,-1.8526 -0.679233,0 -1.153459,0.22368 -1.425237,0.66818 -0.403487,-1.04051 -0.175432,-2.30397 0.6935,-3.79357 0.586701,-1.05699 1.76165,-1.61854 2.893882,-1.6645 z"
     sodipodi:nodetypes="sssssssssssssssssccsccccccccscaccsccsscccsssscccsscccccccccccsccccccccscccccscsscccssscccscccccssssssccsssacccccccccccscsssscccscssccccssccccsccccccccccccccccccccccccccccccccccccccccsccccssscscsscccssccsscccscscsscscscccccccccccccccccssccscccccccccaccacccccaassaccccccsscsacccccssscsccsccccccccscccccccccccccccccscsssscccccssscsssscccccccsssscscssccccccccscssssscsscccccccccccccccccssssssccsccccccccccccccscccccccccccccccccccccccccccccccccscccssccs" />
</svg>
