<?xml version="1.0" encoding="UTF-8" standalone="no"?>
<svg
   xmlns:dc="http://purl.org/dc/elements/1.1/"
   xmlns:cc="http://creativecommons.org/ns#"
   xmlns:rdf="http://www.w3.org/1999/02/22-rdf-syntax-ns#"
   xmlns:svg="http://www.w3.org/2000/svg"
   xmlns="http://www.w3.org/2000/svg"
   xmlns:sodipodi="http://sodipodi.sourceforge.net/DTD/sodipodi-0.dtd"
   xmlns:inkscape="http://www.inkscape.org/namespaces/inkscape"
   width="210mm"
   height="297mm"
   viewBox="0 0 210 297"
   version="1.1"
   id="svg5632"
   inkscape:version="1.0.2-2 (e86c870879, 2021-01-15)"
   sodipodi:docname="upgrade-experimental-retrofit.svg">
  <defs
     id="defs5626" />
  <sodipodi:namedview
     id="base"
     pagecolor="#ffffff"
     bordercolor="#666666"
     borderopacity="1.0"
     inkscape:pageopacity="0.0"
     inkscape:pageshadow="2"
     inkscape:zoom="3.959798"
     inkscape:cx="209.63419"
     inkscape:cy="385.88887"
     inkscape:document-units="mm"
     inkscape:current-layer="layer1"
     inkscape:document-rotation="0"
     showgrid="false"
     inkscape:pagecheckerboard="true"
     showborder="false"
     inkscape:window-width="4096"
     inkscape:window-height="2066"
     inkscape:window-x="-11"
     inkscape:window-y="-11"
     inkscape:window-maximized="1" />
  <metadata
     id="metadata5629">
    <rdf:RDF>
      <cc:Work
         rdf:about="">
        <dc:format>image/svg+xml</dc:format>
        <dc:type
           rdf:resource="http://purl.org/dc/dcmitype/StillImage" />
        <dc:title />
      </cc:Work>
    </rdf:RDF>
  </metadata>
  <circle
     style="display:none;fill:#ff0000;stroke-width:0.565566"
     id="path831"
     cx="274.39978"
     cy="-37.889034"
     r="248.47423" />
  <g
     inkscape:label="Layer 1"
     inkscape:groupmode="layer"
     id="layer1">
    <path
       id="path68"
       style="display:inline;stroke-width:1.16714"
       inkscape:label="Experimental Retrofit"
       d="M 483.7793,0 C 418.03041,0 355.39326,12.838545 295.86914,38.515625 236.34499,64.192703 184.99081,98.622459 141.80664,141.80664 98.622444,184.99082 64.192703,236.345 38.515625,295.86914 12.838545,355.39328 0,417.83545 0,483.19531 c 0,65.35986 12.838545,127.99697 38.515625,187.91016 25.677078,59.91315 60.106819,111.46228 103.291015,154.64648 43.18417,43.18417 94.53835,77.61393 154.0625,103.29102 59.52412,25.67709 122.16127,38.51562 187.91016,38.51562 65.74889,0 128.386,-12.83853 187.91015,-38.51562 59.52412,-25.67709 110.8783,-60.10685 154.0625,-103.29102 43.18417,-43.1842 77.61393,-94.73333 103.29102,-154.64648 25.67709,-59.91319 38.51562,-122.5503 38.51562,-187.91016 0,-65.35986 -12.83853,-127.80203 -38.51562,-187.32617 C 903.36588,236.345 868.93612,184.99082 825.75195,141.80664 782.56775,98.622459 731.21357,64.192703 671.68945,38.515625 612.1653,12.838545 549.52819,0 483.7793,0 Z m -48.43555,46.685547 -7.00391,14.005859 c -4.66854,10.115214 -12.6434,23.731555 -23.92578,40.849614 -11.28234,17.11805 -23.53801,33.45766 -36.76562,49.01953 -18.67424,21.78661 -52.52114,52.91024 -101.54102,93.37109 l -88.70117,-86.36719 11.66992,-9.33789 c 5.60809,-4.98497 14.26311,-11.4936 25.85938,-19.47265 4.63407,4.37532 11.96681,5.92329 17.51753,2.03345 3.72662,-2.7482 8.31342,-7.90814 4.46489,-16.52564 12.41532,-7.77981 25.25625,-15.13455 38.52734,-22.058595 25.67708,-13.227583 52.52185,-23.535844 80.53321,-30.927734 2.56794,-0.677654 4.97439,-1.300443 7.38867,-1.925782 4.41285,10.21523 15.2887,15.954292 24.21679,13.541016 8.38415,-2.266249 16.04963,-12.32003 13.23829,-22.441406 11.36194,-2.187768 23.23143,-3.718236 34.52148,-3.763672 z m 40.15039,5.740234 c 22.61951,0.05778 43.2707,2.014486 58.47266,4.179688 29.95657,4.279513 60.49732,11.866461 91.62109,22.759765 25.67709,8.559024 51.54717,21.009646 77.61328,37.349606 26.06616,16.33996 43.18549,28.20577 51.35547,35.59766 8.16998,7.39188 17.35685,15.20644 22.02539,19.875 l -6.26953,6.38477 -19.8418,-17.50782 C 738.0212,150.17114 718.37546,136.94468 691.53125,121.38281 664.687,105.82095 637.84225,93.370326 610.99805,84.033203 584.1538,74.696084 555.94837,68.276809 526.38086,64.775391 c -29.56755,-3.501419 -49.03688,-3.977409 -60.10938,-3.578125 -10.52619,0.379584 -20.20535,1.487347 -26.60351,1.912109 l 3.8457,-9.421875 22.17578,-1.166016 c 3.30154,-0.07422 6.57333,-0.103957 9.80469,-0.0957 z m 0.69922,16.435547 0.59961,140.248052 -45.20117,3.43554 -1.90625,4.71485 -28.91016,4.76562 -3.58984,-2.87695 -64.07422,27.11718 -0.22461,6.2793 -28.22852,21.41797 -7.41601,-1.67187 -6.625,4.32031 c -3.89045,3.11237 -8.55919,7.19825 -14.00586,12.25586 -5.44665,5.05761 -9.72553,9.14348 -12.83789,12.25586 -5.32549,6.65684 -16.0602,19.0172 -26.35938,34.14062 l -50.45368,-75.6794 33.62946,-36.66044 -53.83984,-55.38086 6.01953,-5.64258 98.00781,96.03711 17.50586,-15.17188 c 12.44949,-10.89329 26.65065,-23.53691 42.60157,-37.93164 15.95091,-14.39472 28.20466,-26.2625 36.76367,-35.5996 17.11806,-19.45234 39.68395,-51.74169 67.69531,-96.871099 z m 17.50781,0.566406 18.67383,1.767578 c 13.22755,0.778096 32.0955,3.89124 56.60547,9.337891 24.50993,5.446651 48.43652,13.616456 71.7793,24.509767 23.34281,10.11521 45.32389,22.36894 65.94335,36.76367 20.61948,14.39472 34.04094,24.51 40.26563,30.3457 6.22477,5.8357 12.76853,12.00873 15.88086,15.1211 l -45.05859,47.32226 c -7.6237,-6.134 -16.17164,-12.76743 -22.42774,-17.63476 -7.00282,-5.44666 -14.58975,-11.34008 -22.75976,-17.17578 -8.16998,-5.8357 -31.4619,-20.5442 -48.60352,-28.01954 -23.64818,-10.31279 -48.81039,-17.05379 -73.95312,-22.83593 -18.6517,-4.28938 -23.93499,-4.86184 -56.74805,-8.72657 z m -0.94531,81.132816 c 0,0 37.4542,4.07247 55.80078,8.16992 21.20845,4.7366 33.85762,9.01162 62.39453,18.89648 l -23.8789,54.63477 c -15.58292,-6.67837 -29.20208,-13.08707 -45.60157,-16.61524 -10.89328,-2.33428 -26.76269,-5.17232 -50.10547,-6.72851 z m 232.6543,13.16601 c -2.96744,0.0682 -5.96726,1.15566 -7.61914,3.17383 -3.19056,3.89803 -2.53019,11.93695 1.43554,15.04297 3.9537,3.09661 11.96524,1.86904 14.9043,-2.20313 2.82845,-3.91892 1.35135,-11.36921 -2.50586,-14.28125 -1.61889,-1.2222 -3.90684,-1.78545 -6.21484,-1.73242 z m -565.51172,9.00977 40.84961,45.51953 c -3.11239,2.33428 -7.19826,6.22327 -12.25586,11.66992 -5.0576,5.44666 -10.50413,11.86593 -16.33985,19.25781 -5.83568,7.39189 -12.44796,17.11925 -19.83984,29.17969 -7.39188,12.06045 -20.66777,41.12051 -29.92751,62.1753 -10.49527,23.86415 -13.45202,28.27807 -29.013896,72.62939 l -33.847656,19.8418 1.830078,-17.28321 28.275012,-16.27774 c 6.465362,-18.95312 15.780182,-38.08789 23.000382,-56.89413 5.16338,-14.28372 9.56111,-27.26161 16.03994,-40.26563 14.00569,-31.90183 38.20341,-65.91198 56.09956,-84.58622 l -31.28013,-38.30831 z m 628.73828,11.05469 19.02344,22.79296 c 11.6714,14.00568 25.67762,34.8191 42.01757,62.44141 16.33996,27.62231 28.79061,55.82774 37.34961,84.61719 6.22477,20.23044 10.89154,41.24075 14.00391,63.02734 3.1124,21.7866 5.05785,40.26466 5.83594,55.4375 0.77809,15.1728 0.77809,30.3467 0,45.51953 -0.77809,15.1728 -1.5559,25.09317 -2.33399,29.76172 -0.77809,4.66859 -1.55589,8.16963 -2.33398,10.50391 l -11.67188,2.33398 4.66993,-28.00976 c 2.33427,-19.45232 2.33427,-46.10215 0,-79.94922 -2.33428,-33.84707 -8.17068,-65.55551 -17.50782,-95.12305 -8.55904,-28.01136 -21.59253,-56.60666 -39.09961,-85.78515 -17.50711,-29.1785 -30.15072,-48.62931 -37.93164,-58.35547 -7.78095,-9.72617 -14.00529,-17.31312 -18.67382,-22.75977 z m -161.88281,1.78515 c 9.79602,5.197 16.52853,9.39317 22.75976,13.42188 6.61376,4.27951 13.61593,8.94825 21.00781,14.00586 7.39189,5.05761 15.36873,11.087 23.92774,18.08984 8.55904,7.00284 15.94906,14.00498 22.17383,21.00781 16.33995,17.89615 38.12805,49.79953 65.36133,95.70703 l 67.69335,-31.51367 5.83594,15.17188 c 3.8905,10.11521 8.16934,21.98297 12.83789,35.59961 4.66859,13.61661 7.78171,24.70268 9.33789,33.26171 3.89046,17.11805 6.6137,43.96284 8.16993,80.53321 l -134.22071,-1.16602 -4.66992,-38.51562 -4.66797,-3.50196 L 736.46484,412 l 4.66993,-3.50195 -18.92774,-47.50391 -8.20312,-1.10547 -31.4043,-44.18164 2.14258,-10.03711 c -11.60095,-10.95908 -27.89326,-28.8381 -38.86914,-37.79297 -8.55901,-7.00284 -21.06418,-16.94188 -43.62891,-28.61328 z m 147.51171,13.02149 40.39844,52.33789 c 7.00282,10.89331 16.34031,28.01072 28.01172,51.35351 l -57.1914,29.17774 -24.82227,-41.78711 c 0,0 -17.58345,-27.46203 -32.36719,-44.58008 z m -338.92187,51.16992 4.48144,4.35351 c 0,0 37.42365,-1.89757 50.37403,-1.22265 29.28967,1.56778 54.25056,8.00026 78.19726,17.8789 17.11805,7.78094 38.12643,20.61948 63.0254,38.51563 7.00281,5.44665 16.34031,15.56193 28.01171,30.3457 l 6.59375,0.40821 15.64649,24.79687 -2.39844,6.30664 21.00781,49.01953 7.00391,1.16797 3.50195,19.8418 -4.66992,4.66797 1.16797,40.84961 c 0,9.33713 -0.7778,23.34334 -2.33399,42.01757 l 4.66797,2.33399 -1.16797,9.33789 -7.00195,3.5 -1.16797,8.16992 c -0.77809,6.22477 -3.30641,14.78442 -7.58593,25.67774 -4.27953,10.89326 -9.92101,21.39649 -16.92383,31.51171 -17.89618,26.45518 -41.62781,51.35449 -71.19532,74.69727 l -29.17773,-15.17188 -8.16992,4.66797 c -4.66859,2.33428 -12.25551,4.8626 -22.75977,7.58594 -10.50425,2.72334 -22.17514,4.86378 -35.01367,6.41992 -12.83856,1.55619 -28.20546,1.16826 -46.10156,-1.16601 -17.89618,-2.33428 -36.18319,-7.39292 -54.85742,-15.17383 -21.7866,-8.55904 -43.18289,-22.56522 -64.19141,-42.01758 -21.00852,-19.45236 -36.18241,-39.6829 -45.51953,-60.69141 -10.89332,-23.34281 -17.11763,-48.04716 -18.67383,-74.11328 -1.55617,-26.06611 -1.16631,-43.57341 1.16797,-52.52148 2.33428,-8.94807 3.11905,-14.1481 4.67522,-18.81669 l 7.62696,10.77903 -2.96624,12.1236 c -2.33428,8.55904 -2.91715,22.56525 -1.75,42.01757 1.16712,19.45236 5.25302,39.68291 12.25586,60.69141 9.33712,28.01133 27.2323,53.68843 53.6875,77.03125 36.57037,32.67995 82.86789,49.79733 138.89062,51.35352 10.89332,0.77809 22.9521,-0.38955 36.17969,-3.50196 13.22755,-3.11236 22.37012,-5.44573 27.42773,-7.00195 5.05758,-1.55614 14.56222,-5.38718 16.89649,-6.94336 l 5.86328,2.27344 12.83789,-7.00196 c 8.55904,-4.66853 19.45405,-13.61613 32.68164,-26.84374 13.22755,-13.2276 24.12065,-28.40149 32.67969,-45.51954 12.4495,-23.34281 20.03447,-48.82496 22.75781,-76.44726 2.72334,-27.6223 0.58489,-51.93677 -6.41797,-72.94531 -3.1124,-14.78378 -9.33669,-29.76275 -18.67383,-44.93555 -9.33713,-15.17284 -19.8423,-28.9841 -31.51367,-41.4336 -11.67141,-12.44948 -23.73214,-22.95464 -36.18164,-31.51367 -21.00854,-14.00567 -40.26636,-23.53614 -57.77344,-28.59375 -17.50711,-5.05761 -44.15694,-6.42022 -79.94922,-4.08593 -15.56185,0.77809 -33.652,5.44684 -54.27148,14.00585 -20.61946,8.55903 -37.154,17.50663 -49.60352,26.84376 -25.67706,21.0085 -47.8531,51.35433 -66.52734,91.0371 l -17.3418,-27.53292 c 4.59757,-11.42083 8.36036,-17.64301 13.25782,-26.15458 5.83571,-10.11521 12.64291,-19.84256 20.42382,-29.17968 6.22476,-7.00284 15.95212,-16.72824 29.17969,-29.17774 l 1.16602,-5.83594 18.67383,-11.67187 7.10546,1.07813 57.6543,-26.3125 L 412,254.43555 Z m 54.27148,56.02344 c 10.50429,0.77809 20.8145,2.33368 30.92969,4.66796 17.89618,4.66856 39.29245,15.17372 64.19141,31.51368 l -33.84571,38.51562 c 6.14595,5.98158 12.36383,12.83665 16.92383,18.08984 5.05758,5.83571 9.91931,12.255 14.58789,19.25782 4.66855,7.00286 8.75443,14.97771 12.25586,23.92578 3.5014,8.94807 5.63984,17.70267 6.41797,26.26172 3.11237,47.46368 -8.16861,83.25608 -33.8457,107.37695 -13.22755,12.4495 -27.03886,22.17492 -41.43359,29.17773 -14.39475,7.00286 -23.92716,10.69883 -28.59571,11.0879 -4.66858,0.38891 -8.55951,0.58398 -11.67187,0.58398 l -40.84961,-29.17773 -32.23775,51.73232 -7.26665,-4.66275 31.36602,-52.55825 0.57021,-14.54452 14.06621,-20.28126 C 433.09562,536.35505 414.76367,516.39678 412,498.36914 c -1.55622,-9.33713 -0.32654,-19.40962 2.33398,-28.5957 2.81886,-9.73281 8.23714,-18.74536 14.10157,-26.92969 L 371.27666,409.57332 C 383.84221,396.99346 396.29611,382.55995 412,373.48438 c 14.71714,-8.50532 31.59884,-13.61569 48.3586,-16.18203 l -5.17305,-50.34532 c 11.91236,-2.01101 23.65789,-1.95178 34.42968,-1.16601 z m -49.50879,3.15273 4.57325,35.36289 c -14.18779,4.72518 -26.57723,9.26904 -38.9336,15.88617 -10.62574,5.69033 -21.10445,12.08353 -29.92773,20.29547 -9.42911,8.7758 -17.31198,20.23048 -23.92578,30.3457 -6.6138,10.11519 -11.0876,18.86788 -13.42188,26.25977 -2.33427,7.39189 -3.78724,14.28112 -4.66797,21.5918 -0.79492,6.59838 -0.56591,13.54552 -0.53571,19.93108 l -25.5957,0.98939 -0.625,-6.6395 16.51842,-0.55553 -24.69365,-32.4813 c 1.46808,-6.59222 3.56867,-13.46404 5.16797,-18.5918 1.94524,-6.22477 4.66852,-12.64402 8.16992,-19.25781 3.50144,-6.61376 8.17018,-14.00581 14.00586,-22.17578 5.83572,-8.17 11.86704,-15.36705 18.0918,-21.5918 10.11521,-8.55902 20.2305,-16.14597 30.3457,-22.75977 10.11523,-6.61379 16.21248,-10.75047 25.09375,-14.58984 12.88488,-5.57012 28.00556,-9.04956 40.36035,-12.01914 z m -280.44349,6.44576 82.59877,35.96345 6.49494,13.49463 -7.159,27.31061 c -6.06092,20.95934 -9.52929,37.83293 -10.81836,57.19141 -1.08725,16.32763 0.5477,32.79115 2.64843,49.01953 3.2128,24.81925 5.24043,50.5588 15.17383,73.5293 12.0813,27.93743 52.52149,74.69726 52.52149,74.69726 0,0 29.47052,30.08497 46.875,41.66797 20.42116,13.59062 66.33593,31.86133 66.33593,31.86133 l 2.33594,-5.83594 c 17.20951,4.06519 21.17812,6.11384 32.01758,7.98047 13.45444,2.31697 24.31649,2.48474 40.76562,3.95899 l 1.91211,6.73632 85.20118,-15.17382 33.80914,-10.52707 -0.75781,-6.08789 10.88617,-7.91992 27.3669,10.77177 12.73075,-10.74666 c 5.44664,-4.66855 13.03361,-12.6434 22.75977,-23.92578 9.72616,-11.28234 18.86869,-24.70571 27.42773,-40.26758 15.56187,-28.0114 26.45496,-52.91067 32.67969,-74.69727 l -5.23633,-4.85742 2.01953,-10.34765 8.45117,-4.25586 3.56446,-42.52344 132.42383,3.62891 v 30.3457 c -0.77813,7.00282 -2.3337,18.28384 -4.66797,33.8457 l -65.35938,17.50782 -7.0039,35.01367 c -2.33428,7.78095 -7.39093,21.78717 -15.17188,42.01757 l -45.51953,-26.84374 -29.17773,40.8496 c -7.78092,10.11519 -21.78717,25.67701 -42.01758,46.68555 l -12.77735,-4.73047 -14.0664,8.23242 c -10.11519,7.00283 -26.25989,14.78276 -48.43555,23.3418 -22.17566,8.55901 -44.54664,14.39545 -67.11133,17.50781 -13.22763,2.33428 -28.0116,3.11208 -44.35156,2.33399 -16.33996,-0.77813 -29.76137,-1.75085 -40.26563,-2.91797 -10.50424,-1.16716 -21.39734,-3.1126 -32.67968,-5.83594 -11.28238,-2.72334 -18.67439,-4.47386 -22.17578,-5.25195 -3.50143,-0.77813 -6.41964,-1.55589 -8.75391,-2.33399 l -50.1875,113.21289 -10.50391,-4.66992 c 15.89797,-36.68761 33.42551,-82.83117 46.86328,-114.87109 -5.77357,-3.44028 -12.29449,-6.4627 -21.72265,-13.60938 -5.44664,-3.11236 -12.69144,-9.04636 -22.80664,-15.66015 -10.11523,-6.6138 -20.61843,-14.78361 -31.51172,-24.50977 -10.89332,-9.72616 -22.56614,-22.75961 -35.01563,-39.09961 -12.44951,-16.33995 -22.95271,-33.84725 -31.51171,-52.52148 -10.11524,-21.00847 -17.31228,-43.18454 -21.5918,-66.52734 -4.27949,-23.34278 -6.41992,-43.37837 -6.41992,-60.10743 0,-16.72898 1.5556,-33.26356 4.66797,-49.60351 3.11236,-16.33996 5.4477,-27.03809 7.0039,-32.09571 1.5562,-5.05757 3.1118,-9.14348 4.66797,-12.25585 l 8.38812,-0.0614 3.28286,-7.76931 -74.57472,-34.35092 z m 436.74525,37.08705 c 5.01482,5.65968 7.54909,9.15503 10.50391,12.83789 3.1124,3.89047 6.6154,8.36427 10.50586,13.42188 3.89046,5.05761 7.77943,10.89402 11.66992,17.50781 3.89046,6.6138 7.78142,13.42296 11.67188,20.42578 3.89045,7.00282 7.00361,14.58784 9.33789,22.75781 2.33427,8.16998 4.27979,16.53471 5.83593,25.09375 2.33428,19.45233 0.3888,41.43343 -5.83593,65.94336 -6.22477,24.50998 -14.39458,44.15767 -24.50977,58.94141 -7.00282,10.11526 -14.97966,19.25779 -23.92773,27.42773 -8.94807,8.17002 -16.72801,14.58927 -23.3418,19.25782 -6.6138,4.66858 -13.61788,8.55951 -21.00977,11.67187 -12.02179,4.88766 -17.35809,5.25581 -26.48437,7.25391 l -2.61328,-12.46094 -6.68946,-0.37695 1.71457,14.59375 -7.45564,1.66015 -3.40541,-31.67968 14.00586,-7.00196 c 10.11519,-3.89049 21.3962,-9.92185 33.8457,-18.09179 12.4495,-8.17002 21.00915,-16.14488 25.67774,-23.92578 6.22477,-7.78096 9.72581,-12.44968 10.5039,-14.00586 0.77809,-1.55622 3.50135,-6.22495 8.16992,-14.00586 4.66855,-7.78092 7.39184,-13.81033 8.16993,-18.08985 0.77809,-4.27952 2.14069,-10.50381 4.08593,-18.67383 1.94525,-8.16994 2.72302,-16.72966 2.33399,-25.67773 -0.38903,-8.94807 -1.36175,-18.86844 -2.91797,-29.76172 -1.55622,-12.4495 -6.61482,-25.67791 -15.17383,-39.68359 -8.55904,-14.00568 -14.97829,-23.53809 -19.25781,-28.59571 -4.27952,-5.05761 -7.97357,-8.75166 -11.08594,-11.08593 z m -234.5957,70.02735 44.35156,25.67773 c -6.24299,8.06658 -8.74753,17.64037 -9.91992,26.84375 -0.79412,8.01092 -0.88418,15.84624 0.58398,23.34375 3.11237,12.4495 7.39126,22.75967 12.8379,30.92969 4.28466,6.38861 11.53393,15.58753 22.74609,22.63476 l -6.40625,8.29297 -8.16992,3.50196 -71.38114,-67.07562 -35.99582,1.71624 -1.16601,-8.16992 36.90122,-1.88226 c -0.55313,-7.71022 -0.51139,-15.16175 -0.13755,-21.46149 0.38904,-6.22469 0.97384,-11.28138 1.75195,-15.17188 3.11237,-10.89331 7.77915,-20.62068 14.00391,-29.17968 z m 459.85352,2.33593 c -3.89046,0 -7.19659,1.16573 -9.91993,3.5 -2.72333,2.33428 -4.08593,5.44744 -4.08593,9.33789 0,3.8905 1.3626,7.19663 4.08593,9.91993 2.72334,2.72333 6.02947,4.08593 9.91993,4.08593 3.89045,0 7.19853,-1.3626 9.92187,-4.08593 2.72334,-2.7233 4.08399,-6.02943 4.08399,-9.91993 -0.80081,-4.00724 -1.92771,-6.46093 -3.50196,-8.16992 -2.33427,-3.11236 -5.83532,-4.66797 -10.5039,-4.66797 z m -679.2754,101.54102 c 5.09467,21.7427 9.96344,39.36439 15.75782,59.52344 3.63466,10.02787 7.33488,20.94137 11.08594,30.3457 14.78375,31.12373 32.29104,59.52408 52.52148,85.20117 l -9.33594,7.00195 c -27.77721,-36.70977 -42.68771,-60.78086 -54.85547,-85.20117 -8.55901,-19.45236 -17.50858,-50.96392 -26.8457,-94.53711 z m 767.8379,43.38867 -6.86133,28.97266 c -13.22763,44.35132 -21.78728,70.80619 -25.67774,79.36523 -8.55904,17.11805 -24.51073,42.79512 -47.85351,77.03125 -18.96533,-3.62623 -36.6004,-7.08125 -54.76953,-10.50781 l -10.58985,8.17383 c -6.5472,5.0544 -13.81169,11.67292 -22.75976,18.67578 -8.94807,7.00282 -16.53305,12.05947 -22.75782,15.17187 -45.12941,24.89896 -81.31165,40.8507 -108.54492,47.85352 -31.12373,8.55904 -70.00731,15.20537 -115.13672,12.87109 l -40.09179,54.82227 -22.17578,-2.33399 44.34961,-64.19335 c 15.8943,1.4449 31.14757,1.2991 47.26953,0.58398 15.17283,-0.38903 30.15181,-2.13955 44.93554,-5.25195 27.23328,-5.44664 56.41139,-15.56193 87.53516,-30.34571 32.67991,-16.33995 59.52466,-33.84725 80.5332,-52.52148 25.67709,-22.56473 46.29556,-47.46399 61.85742,-74.69727 10.11523,-17.89617 20.23052,-47.07433 30.34571,-87.53515 26.80078,-5.36017 53.6201,-10.63658 80.39258,-16.13477 z m -480.72989,-1.08027 0.009,10.21308 -30.3457,51.35352 -8.55073,-6.46927 31.89253,-51.88815 z m 322.14004,74.40449 33.84571,21.00977 -23.3418,36.17968 c -5.44668,7.78092 -15.15207,19.93768 -27.60156,33.94336 l -22.58594,-7.09765 -54.85547,37.34765 c -11.67141,7.00282 -29.56659,15.56247 -53.6875,25.67774 l 3.5,14.00586 -19.83984,4.66796 -5.83594,-25.67773 c 11.01053,-5.58114 22.87893,-11.00745 33.26367,-15.17187 11.12447,-4.95814 21.30083,-9.19305 30.92773,-16.33985 21.78664,-14.78381 42.40706,-31.51327 61.85938,-50.1875 10.89332,-11.67141 25.67733,-31.12415 44.35156,-58.35742 z M 296.88672,766.35547 c 1.94514,-0.0789 3.85741,0.24516 5.51172,0.97851 7.78092,4.66859 10.19831,9.52755 6.89453,18.1504 -3.7679,5.26316 -8.50589,9.16591 -14.66406,9.32617 0.3316,-0.93781 0.5039,-2.05005 0.5039,-3.34961 0,-4.66855 -2.13845,-7.00196 -6.41797,-7.00196 -2.56718,0 -4.35953,0.8454 -5.38672,2.5254 -1.52499,-3.93263 -0.66305,-8.7079 2.6211,-14.3379 2.21745,-3.9949 6.6582,-6.11732 10.9375,-6.29101 z"
       transform="scale(0.26458333)"
       sodipodi:nodetypes="sssssssssssssssssccsccccccccscaccsccsscccsssscccsscccccccccccsccccccccscccccscsscccssscccscccccssssssccsssacccccccccccscsssscccscssccccssccccsccccccccccccccccccccccccccccccccccccccccsccccssscscsscccssccsscccscscsscscscccccccccccccccccssccscccccccccaccacccccaassaccccccsscsacccccssscsccsccccccccscccccccccccccccccscsssscccccssscsssscccccccsssscscssccccccccscssssscsscccccccccccccccccssssssccsccccccccccccccscccccccccccccccccccccccccccccccccscccssccs" />
  </g>
</svg>
