<?xml version="1.0" encoding="UTF-8" standalone="no"?>
<svg
   xmlns:dc="http://purl.org/dc/elements/1.1/"
   xmlns:cc="http://creativecommons.org/ns#"
   xmlns:rdf="http://www.w3.org/1999/02/22-rdf-syntax-ns#"
   xmlns:svg="http://www.w3.org/2000/svg"
   xmlns="http://www.w3.org/2000/svg"
   xmlns:sodipodi="http://sodipodi.sourceforge.net/DTD/sodipodi-0.dtd"
   xmlns:inkscape="http://www.inkscape.org/namespaces/inkscape"
   width="210mm"
   height="297mm"
   viewBox="0 0 210 297"
   version="1.1"
   id="svg6221"
   inkscape:version="1.0.2-2 (e86c870879, 2021-01-15)"
   sodipodi:docname="upgrade-fleet-support.svg">
  <defs
     id="defs6215" />
  <sodipodi:namedview
     id="base"
     pagecolor="#ffffff"
     bordercolor="#666666"
     borderopacity="1.0"
     inkscape:pageopacity="0.0"
     inkscape:pageshadow="2"
     inkscape:zoom="0.35"
     inkscape:cx="400"
     inkscape:cy="560"
     inkscape:document-units="mm"
     inkscape:current-layer="layer1"
     inkscape:document-rotation="0"
     showgrid="false"
     inkscape:pagecheckerboard="true"
     showborder="false"
     inkscape:window-width="1267"
     inkscape:window-height="1198"
     inkscape:window-x="52"
     inkscape:window-y="52"
     inkscape:window-maximized="0" />
  <metadata
     id="metadata6218">
    <rdf:RDF>
      <cc:Work
         rdf:about="">
        <dc:format>image/svg+xml</dc:format>
        <dc:type
           rdf:resource="http://purl.org/dc/dcmitype/StillImage" />
        <dc:title></dc:title>
      </cc:Work>
    </rdf:RDF>
  </metadata>
  <g
     inkscape:label="Layer 1"
     inkscape:groupmode="layer"
     id="layer1">
    <path
       d="m 127.99999,0 q 25.96879,0 49.63266,10.141657 23.66387,10.141657 40.87395,27.351741 17.21009,17.210085 27.35174,40.873951 Q 256,102.03122 256,128.15367 q 0,26.12244 -10.14166,49.78631 -10.14165,23.66386 -27.35174,40.72029 -17.21008,17.05642 -40.87395,27.19807 Q 153.96878,256 127.99999,256 102.03121,256 78.367348,245.85834 54.703483,235.71669 37.493399,218.66027 20.283314,201.60384 10.141657,177.93998 0,154.27611 0,128.15367 0,102.03122 10.141657,78.367349 20.283314,54.703483 37.493399,37.493398 54.703483,20.283314 78.367348,10.141657 102.03121,0 127.99999,0 Z m -14.90515,240.32653 -1.84394,1.2293 -2.7659,0.61464 h 3.99519 z m -12.90756,0.30733 -0.921972,-25.20049 -1.843937,-0.30732 -2.458584,1.84394 0.921969,22.43457 z m 7.99039,0 q 2.45859,-0.30733 3.07323,-0.61465 l 1.53662,-1.84394 -0.30733,-6.14646 -1.22929,-0.92197 v -6.7611 l -1.53661,-0.61465 -1.84394,1.2293 0.30732,6.14645 -0.61464,4.30253 z M 89.738298,237.2533 q -2.765907,-12.60024 -3.687876,-18.13205 l -2.151261,-18.13205 -14.444177,1.53661 -3.380553,23.35655 q 11.063626,7.06842 23.663867,11.37094 z M 84.513807,110.63626 v 0 0 q -1.536615,-8.60504 -2.15126,-20.897966 -0.307324,-10.756295 1.843938,-23.663863 0.921969,-4.917168 2.304922,-10.141657 1.382953,-5.22449 2.304922,-7.683073 l 0.921969,-2.765906 0.614645,-0.614647 2.458584,-1.229291 124.465783,29.502998 0.61465,0.921969 q -0.61465,1.536619 -1.2293,4.763504 -0.61464,3.226897 -1.69027,14.751501 -1.07564,11.524611 -0.46099,25.046831 0.30732,5.22448 2.30493,13.5222 1.9976,8.29772 3.84154,14.13685 l 1.84393,5.53181 q -0.61465,2.45859 -1.53661,2.76591 l -4.30253,0.30733 -79.59664,-11.98559 -1.84393,1.22928 q 5.53181,9.21969 7.37575,12.60025 2.15125,4.30251 5.83913,14.13685 6.14646,2.76591 9.988,6.30012 3.84153,3.53422 4.45618,5.68547 l 0.92197,2.15126 13.82953,47.32774 q 29.81032,-14.44418 47.78872,-42.41056 17.97839,-27.9664 17.97839,-62.07923 0,-23.35655 -9.21969,-44.715497 -9.21969,-21.358944 -24.73949,-36.878752 -15.51981,-15.519808 -36.87875,-24.739496 -21.35896,-9.219688 -44.86915,-9.219688 -23.51021,0 -44.869148,9.219688 -21.358945,9.219688 -36.878753,24.739496 -15.519808,15.519808 -24.739496,36.878752 -9.219688,21.358947 -9.219688,44.715497 0,43.63985 28.888355,76.21608 l 11.063626,-26.12245 q 1.536615,-3.9952 13.829532,-8.29772 3.687876,-1.53662 9.834335,-2.45859 l -0.307324,-3.68787 h 0.307324 l -0.307324,-2.15126 -1.536614,0.30732 0.307323,0.61465 -3.380553,2.15126 -1.536614,0.61465 -0.307324,0.92197 -0.614645,0.30732 -0.614646,-0.92197 -4.302521,-0.92197 -5.839136,-16.90276 -3.687875,-11.37096 0.307322,-2.15125 3.073231,-3.07323 0.614645,0.92197 -2.765907,2.45859 -0.614645,2.15125 9.219688,27.04442 0.921969,0.30732 6.453782,-5.22448 v -1.53662 l -3.380553,-8.91237 v -0.30732 q -1.229291,-2.15126 -1.536615,-3.07323 l -2.15126,-3.07323 -1.229292,0.30733 -4.917167,-11.06363 0.614646,-0.92197 2.458584,-0.61465 4.30252,-5.53181 v -2.76591 q -1.843937,-1.84393 -2.765906,-2.45857 l -3.073229,-1.2293 0.614646,-1.53661 1.843938,-5.83914 0.921968,-0.61464 1.536614,0.30732 q 0.307324,0 0.614647,0.30732 l 5.531813,0.92197 4.302521,2.7659 3.995198,-3.99519 2.458583,-0.61465 q 2.458583,0.61465 3.380552,1.53662 z M 64.84514,224.96039 71.606244,177.93998 q -4.30252,0.92197 -10.141657,2.45858 l -10.756302,3.9952 -8.912366,20.89796 q 10.141657,11.37095 23.049221,19.66867 z m 41.79592,-2.76591 0.92197,1.53661 q 1.22929,-0.92197 1.84394,-1.22929 l 1.84393,0.30732 v -8.60504 l -1.22929,-1.22928 -0.61464,-8.91237 q -0.61465,-2.76591 -0.92197,-3.38056 0,-0.30732 -0.30733,-0.30732 l -0.61464,0.30732 -0.92197,2.45859 0.92197,11.06362 -0.92197,0.30732 z m -11.985596,-6.76111 q 1.229292,-0.92197 2.765907,-1.5366 h 2.15126 l 0.307324,-3.07324 -0.921969,-0.92197 q -0.307324,-11.67826 -0.614646,-14.44417 0,-0.92197 -0.307323,-1.69028 -0.307324,-0.76831 -0.614646,-1.07563 -0.307323,-0.61465 -1.229292,0.30732 -1.229292,0.92197 -1.229292,2.15126 l 0.307324,15.36615 -0.921969,1.22929 z m -21.819928,-37.49339 -3.07323,23.04922 14.136855,-1.84394 q 0.307324,-9.83433 0.921969,-13.52221 l 0.921969,-9.21969 q -3.995198,0.30732 -5.839136,0.61465 z m -21.512606,4.60985 q 6.453782,-3.07324 16.595439,-5.2245 4.917167,-0.92197 9.52701,-1.53662 4.609844,-0.61464 6.453782,-0.61464 h 1.843938 l 2.151261,-8.60505 q -14.136855,1.84394 -19.668668,3.38056 -2.458584,0.92197 -4.763506,1.84394 l -3.841537,1.53662 q 0,0 -2.612244,1.38294 -2.612245,1.38296 -1.843938,1.38296 0.768307,0 -1.075631,0.92197 l -0.614645,0.61464 v 0.30733 z m 22.434575,-3.07324 3.073229,-0.30732 0.307323,-0.92197 2.458584,-0.30732 -0.614647,1.84394 -5.224489,0.61464 z m 56.854735,-12.90757 q 0.30732,-1.5366 0,-2.45857 l -1.53662,-1.53662 0.30733,3.99519 z m -5.83913,-1.22928 v 0.61465 l 3.07322,-0.61465 v -2.15126 q 0,-2.45859 -0.30731,-3.38056 -0.92197,-2.7659 -1.53662,-2.7659 -0.61465,0 -0.92197,0.30732 -0.30732,0.30733 -0.30732,0.92197 v 0.30733 l -1.22929,2.45857 -0.30733,2.15127 z m -41.488594,0.30732 -0.614646,-12.90757 -1.229292,1.53662 0.307323,11.67828 q 0.614646,0 1.536615,-0.30733 z m 2.765906,-0.30732 0.307323,-16.90276 -0.921969,1.53661 -1.229291,0.61465 0.614645,15.05882 q 0.614646,-0.30732 1.229292,-0.30732 z m 1.843938,-0.30732 h 0.614645 0.614646 v -12.29293 l -0.921968,-0.92197 z m 2.765906,0 h 0.768307 q 0,0 0.921969,-0.15366 0.921969,-0.15367 0.768307,-0.15367 l 0.614646,-0.61464 -0.614646,-1.53662 H 90.660266 Z M 63.308525,110.02161 h -0.921969 l -2.15126,7.06843 q 3.073229,1.53662 3.995197,2.15126 l 3.380553,3.68787 -0.921969,0.30733 -0.614646,1.22929 -0.921969,0.30732 -3.687875,5.22449 -0.921969,0.92197 2.458584,6.45378 0.921969,0.61464 9.219688,-9.83432 1.843938,1.22928 3.995197,5.2245 -0.307322,1.22928 -10.44898,11.9856 3.687876,8.29772 11.67827,-13.52221 q 2.765907,3.07323 3.687876,4.91717 l 2.765906,5.53181 0.307323,8.60504 2.765906,0.30732 -0.614645,-2.45857 1.843938,2.7659 0.614645,2.45858 h 10.448983 q -3.9952,-10.14166 -6.146462,-14.29051 -2.15126,-4.14887 -7.068428,-12.75391 -4.917166,-6.7611 -7.683073,-9.83432 -0.614646,-0.92197 -2.15126,-2.15127 l -6.146459,-5.83913 0.921969,0.30732 q 0.614646,0.30733 0.921969,0.61464 h 0.307322 l 1.229293,0.61465 3.995197,-4.60984 q -1.229291,-3.99521 -4.302521,-6.45378 l -4.917167,5.22448 q -1.229291,0.61465 0.307324,1.84394 l 0.307323,0.61465 0.307322,0.30732 0.307324,0.61465 q -0.614646,-0.61465 -1.229293,-0.92197 -3.380551,-3.07323 -11.063625,-7.9904 z m -0.307323,33.49819 h 0.307323 l 0.614646,0.61465 0.614646,1.53662 q 1.843938,4.30252 2.15126,6.14645 0.614647,2.45859 0.614647,4.91718 0,2.15126 -0.614647,3.07322 l -2.765906,1.53662 -0.307323,-0.61465 q 2.15126,-0.61465 2.458583,-1.53662 0.921969,-2.7659 0.307324,-5.83913 -0.307324,-1.84394 -1.229293,-4.30252 -0.921969,-2.45858 -1.536614,-3.9952 z m 22.741897,-30.42495 q 0,1.5366 0.460984,3.5342 0.460984,1.99761 1.075631,3.99521 0.614646,1.99759 1.229291,4.14885 0.614646,2.15127 1.229293,3.84153 0.614645,1.69028 0.921968,3.2269 0.307323,1.53662 0.614646,2.15126 l 0.307323,0.92197 h 0.921969 l 2.458583,-2.76591 q -1.536614,-3.38054 -3.380552,-9.83433 l 86.357735,11.9856 -86.972381,-14.13686 q -2.765906,-9.52701 -3.995198,-19.97599 l 25.815129,3.9952 2.45858,11.67827 -1.22929,-45.791121 -0.92197,0.614646 q -0.92197,4.917168 -1.22929,11.37095 L 86.665067,76.830731 q 0.307324,-6.146456 0.614647,-9.219686 0.307322,-2.15126 1.07563,-5.839136 0.768307,-3.687875 1.07563,-4.30252 l 91.889556,19.054023 -91.582232,-20.897961 2.15126,-9.834334 v -1.229291 l -1.229292,0.307322 q -4.302521,8.29772 -6.453781,23.663866 -1.843938,12.907561 -1.229293,24.278517 0.307324,8.297719 2.765907,20.283319 z m 5.22449,20.89795 -1.229291,-3.68788 -1.229293,-1.22929 -2.15126,-2.45858 -0.307323,1.53662 3.995198,5.83913 z m 98.957971,-18.7467 2.45859,12.90757 v -14.13686 l -0.30732,-0.61465 z m -104.489784,-0.30732 -0.614646,1.84394 0.921969,1.22929 0.307323,1.53662 -1.843937,1.22928 v 1.84394 l 2.765906,2.76591 1.229292,-0.30732 z m 78.060024,-9.83434 0.30732,12.29292 10.14166,1.53662 0.61465,-1.22929 -0.92197,-11.67828 -9.52702,-1.84393 z m -1.2293,12.60025 -0.30732,-14.7515 -2.15126,0.92197 0.61464,14.7515 z m -29.503,-11.37096 -8.60504,-0.61464 8.60504,2.15126 1.2293,9.21969 1.22929,0.61465 v -13.82953 h -1.22929 z m 10.7563,8.29772 V 100.4946 l -2.15125,-0.30732 0.30732,15.67347 z m 1.84394,-0.30732 11.06363,1.53662 0.30732,-12.29292 -10.44898,-2.45858 -0.92197,0.30732 z M 86.665067,78.981999 111.86555,83.284512 q -0.61465,5.224494 -0.30732,9.834338 0,4.302525 0.92196,9.83434 L 86.972391,98.036013 q -0.614646,-4.917163 -0.614646,-9.834326 0,-4.302525 0.307322,-9.219688 z m 76.830733,17.517408 10.44898,1.843937 -0.30732,-11.063626 -10.14166,-2.765906 z m -1.53662,-0.307331 V 83.284512 l -0.92197,-0.307319 -1.22929,1.536619 V 97.728694 Z M 156.42737,83.899162 145.05642,80.518606 V 93.7335 l 11.06363,1.843938 z m -13.21488,-3.687875 -2.15127,-0.921969 v 15.980789 l 2.15127,-1.843938 z m 48.55701,11.370945 -0.61464,-6.761101 -0.92196,3.687875 -0.30734,3.073226 z m -59.006,-5.839132 1.84394,0.307319 V 77.44538 l -0.30732,-3.073225 q -0.92197,3.073225 -0.92197,4.609844 z"
       id="path66"
       style="display:inline;stroke-width:0.307323"
       inkscape:label="Fleet Support" />
  </g>
</svg>
