<?xml version="1.0" encoding="UTF-8" standalone="no"?>
<svg
   xmlns:dc="http://purl.org/dc/elements/1.1/"
   xmlns:cc="http://creativecommons.org/ns#"
   xmlns:rdf="http://www.w3.org/1999/02/22-rdf-syntax-ns#"
   xmlns:svg="http://www.w3.org/2000/svg"
   xmlns="http://www.w3.org/2000/svg"
   xmlns:sodipodi="http://sodipodi.sourceforge.net/DTD/sodipodi-0.dtd"
   xmlns:inkscape="http://www.inkscape.org/namespaces/inkscape"
   width="210mm"
   height="297mm"
   viewBox="0 0 210 297"
   version="1.1"
   id="svg5043"
   inkscape:version="1.0.2-2 (e86c870879, 2021-01-15)"
   sodipodi:docname="upgrade-fleet-command.svg">
  <defs
     id="defs5037" />
  <sodipodi:namedview
     id="base"
     pagecolor="#ffffff"
     bordercolor="#666666"
     borderopacity="1.0"
     inkscape:pageopacity="0.0"
     inkscape:pageshadow="2"
     inkscape:zoom="0.35"
     inkscape:cx="400"
     inkscape:cy="560"
     inkscape:document-units="mm"
     inkscape:current-layer="layer1"
     inkscape:document-rotation="0"
     showgrid="false"
     inkscape:pagecheckerboard="true"
     showborder="false"
     inkscape:window-width="1267"
     inkscape:window-height="1198"
     inkscape:window-x="182"
     inkscape:window-y="163"
     inkscape:window-maximized="0" />
  <metadata
     id="metadata5040">
    <rdf:RDF>
      <cc:Work
         rdf:about="">
        <dc:format>image/svg+xml</dc:format>
        <dc:type
           rdf:resource="http://purl.org/dc/dcmitype/StillImage" />
        <dc:title></dc:title>
      </cc:Work>
    </rdf:RDF>
  </metadata>
  <g
     inkscape:label="Layer 1"
     inkscape:groupmode="layer"
     id="layer1">
    <path
       d="m 80.192769,225.15662 16.963855,-0.30844 5.860246,0.61687 h 12.33734 l 17.58073,-0.61687 -3.39277,2.15904 H 89.445781 Z m 49.966271,8.63614 -6.78555,2.15903 h 17.88916 l 4.93494,-2.15903 z m 25.90843,-9.25301 -3.08434,1.8506 h 11.10361 l 1.54217,-1.8506 z m 24.98313,-0.30843 -2.7759,2.15903 h 7.40241 l 3.08433,-2.15903 z m 9.25302,-8.32771 -2.77591,2.7759 h 9.25301 l 3.39277,-2.7759 z m -20.9735,0.30843 -3.39278,2.46747 h 9.25301 l 2.77591,-2.46747 z m -24.36626,0 -4.00965,2.46747 h 9.56145 l 4.00964,-2.46747 z m 57.36867,-14.18795 -2.15904,2.15903 12.64578,0.30843 1.85061,-2.46746 z m -18.50602,0 -1.85061,2.46746 h 8.63615 l 1.8506,-2.46746 z m -22.20723,0 -1.8506,2.46746 h 11.41204 l 2.7759,-2.46746 z m 49.96626,-15.42169 -1.54217,2.46747 14.49639,-0.30844 1.54216,-2.15903 z m -16.65542,0 -1.23374,2.15903 h 8.32771 l 0.9253,-2.15903 z m -22.51567,0 -1.54216,2.46747 h 13.87952 l 1.54216,-2.46747 z m 47.19036,-19.43133 -0.9253,2.77591 h 16.34699 l 0.9253,-2.77591 z m -16.03855,0 -0.9253,2.77591 h 7.40241 l 0.9253,-2.77591 z m -25.6,0 -0.30843,2.77591 17.27229,0.30843 1.23373,-3.08434 z m 45.95663,-28.3759 v 2.46747 h 18.81445 l 0.30844,-2.46747 z m -15.42169,0 v 2.7759 h 7.09398 v -2.7759 z m -32.0771,0 0.9253,2.7759 h 22.51566 l -0.30843,-2.7759 z m 46.26506,-21.89879 0.61686,2.7759 h 19.73976 l -0.30844,-2.7759 z m -15.73012,0.61686 0.30843,2.15904 h 7.40241 l -0.30843,-2.15904 z m -41.63856,-0.30843 2.46747,3.08433 h 31.15181 l -0.30843,-3.08433 z m 45.33976,-34.23614 1.23373,2.467474 h 23.44096 L 234.1012,82.66024 Z m -18.19759,0 1.54217,2.159044 h 8.32771 l -1.23374,-2.159044 z m -32.07711,-0.30843 -1.85061,2.467474 26.52531,0.30843 -1.8506,-2.775904 z m 0,0 -1.85061,2.775904 h 25.29158 l -1.23375,-2.775904 z m 32.38554,0.30843 1.8506,2.467474 7.40241,-0.30843 -1.8506,-2.467474 z m 17.58072,0 1.54217,2.159044 h 23.44096 l -0.61686,-2.467474 z m -22.20723,-28.684334 1.54217,2.775903 28.99277,-0.308433 -1.8506,-2.159036 z m -23.44096,0.308434 3.08434,2.159036 h 3.39277 l 1.23373,-2.159036 z M 61.069879,57.368674 64.154216,54.59277 h 85.436144 l 2.77591,2.775904 z m 69.089161,25.599996 1.23373,2.467474 17.88915,0.30843 1.54217,-2.775904 z m -30.843379,133.5518 1.850599,1.23374 18.81446,-0.61687 z m 23.749399,-14.49638 -2.46748,2.46746 27.75904,0.61687 2.15904,-2.7759 z m 9.56144,-15.11326 -1.23373,2.46747 h 30.84337 l 1.23374,-2.46747 z m 3.39278,-19.12288 -0.30843,2.46746 h 34.23614 v -3.08434 z m -11.41205,-28.99278 2.7759,3.08434 41.63856,-0.30844 -0.61687,-2.7759 z m 9.56144,-21.59036 -1.8506,2.46747 25.29156,0.30843 -0.61686,-2.7759 z m -18.81446,50.27469 0.92531,2.77591 h 12.02892 l 0.30843,-2.77591 z m -19.122887,0.61688 -0.925302,2.15903 H 106.1012 l 0.61687,-2.15903 z m 2.775903,18.81445 -0.308433,2.46747 h 7.402407 l 1.23374,-2.46747 z m 16.963854,0 -0.9253,2.15904 h 8.01928 l 0.9253,-2.15904 z m -12.33735,15.42169 -2.46747,2.46747 h 5.55181 l 2.15904,-2.46747 z m -33.619274,0 1.542169,2.46747 2.46747,-0.30844 z m -0.925301,-15.11325 0.616868,2.15903 h 20.356626 l 1.542168,-2.15903 z m -12.645782,-0.30844 0.616866,1.8506 h 2.775904 v -1.8506 z m -7.093977,-18.81445 0.308434,2.46747 h 9.86988 v -2.46747 z m 11.720483,48.73253 4.626506,2.46746 13.571083,-0.30843 -4.626506,-2.46747 z m -18.506024,-14.80482 2.46747,3.08433 11.720481,-0.30843 -2.46747,-2.7759 z m -12.337349,-14.80482 1.850602,2.46746 h 13.571084 l -1.233735,-2.46746 z m -9.86988,-19.43132 0.616868,2.46746 h 20.66506 L 41.33012,167.78795 Z M 70.631324,139.10361 102.4,138.79517 l -4.934942,3.39277 h -21.59036 z m -6.477108,-21.28193 -2.467471,2.46746 h 62.303615 l 0.9253,-2.46746 z m -14.80482,0 1.542169,2.7759 1.850603,-2.7759 z m -34.236144,0 -0.308433,2.15903 h 27.142168 l -1.542168,-2.15903 z m -1.542167,21.28193 v 2.46746 l 28.99277,0.30844 0.925301,-2.7759 z m 38.245782,-56.13494 -1.233736,2.159044 72.790359,0.30843 -1.54216,-2.775904 z m -22.207229,2.467474 12.645783,-0.30843 0.925302,-2.159044 H 30.534939 Z m 14.804819,-30.843374 -2.46747,2.467469 4.934939,0.308435 2.46747,-2.775904 z M 16.038554,95.306027 Q 21.590361,84.202413 29.609638,74.949401 37.937349,65.079517 48.115662,57.677107 74.949396,38.245782 107.9518,38.554216 q 34.85301,0.308434 62.30362,21.898795 l 5.55181,-7.710843 q -6.78554,-5.551807 -14.80482,-9.86988 -14.18795,-7.710843 -30.84337,-10.486746 -33.927717,-5.860241 -65.387957,8.636144 -20.973494,9.561445 -36.395179,26.5253 -3.701205,5.860243 -6.477109,12.337351 -3.392771,7.402409 -5.860241,15.42169 z M 84.819275,20.66506 Q 74.949396,24.057831 66.004818,29.609638 55.209637,36.39518 46.573493,45.956625 56.751806,39.479517 67.85542,34.853011 q 20.356626,-8.32771 40.09638,-8.944578 20.35664,-0.616868 41.33012,7.093975 15.73012,5.860242 29.60964,15.421687 l 12.95422,-17.272289 q -5.24337,-3.701204 -11.10362,-6.477107 -5.55181,-2.775904 -11.72047,-4.626506 z m 88.520475,41.946986 q 19.1229,16.963861 27.75904,41.021694 12.95421,36.7036 -2.46746,72.48192 -14.80482,33.9277 -48.42411,49.96626 -32.38554,15.42168 -67.238547,6.78554 14.804819,7.71084 31.768677,8.63614 21.8988,0.9253 43.18072,-9.86987 28.99277,-14.80482 45.80241,-44.41446 16.80963,-29.60964 14.03373,-62.30362 -1.8506,-20.35661 -11.8747,-38.862635 -10.02409,-18.506029 -26.37108,-30.843378 z m -6.16866,1.233735 Q 151.13252,51.816867 132.00964,46.573493 109.49397,40.713252 87.286745,45.031324 64.462649,49.65783 46.573493,64.154216 20.973494,84.819273 14.187951,117.51324 q -6.4771078,31.15181 7.248194,59.99036 13.7253,28.83855 42.409637,43.02651 34.544578,17.27228 71.865068,5.55181 35.7783,-11.10361 54.28432,-42.8723 15.42169,-26.21686 12.02892,-56.44337 -4.00964,-36.086729 -31.46024,-60.144565 l -24.67469,33.310848 q 16.03855,10.178297 24.36626,27.142157 8.01928,16.34698 6.78554,34.39036 -1.23373,18.04337 -11.41205,32.84819 -11.41204,16.65542 -30.22651,24.36627 -18.50602,7.40241 -38.862643,3.70121 -20.973494,-4.00965 -36.703614,-17.88917 -9.869879,-8.94457 -14.496385,-20.04818 -5.243373,-12.95422 -3.392771,-29.91808 1.542169,-13.26265 6.477108,-26.83374 -6.477108,-8.94457 -7.710843,-20.04818 -2.46747,-19.739752 11.103615,-34.853013 10.486746,-11.72048 25.908432,-14.496382 15.421687,-2.775904 29.609641,4.318071 19.43132,9.869881 24.36626,31.460239 l 4.93495,1.850602 q 2.7759,0.925301 5.24336,2.159044 z M 132.6265,99.932533 v 4.318067 6.47711 l 6.47711,-8.94457 z m 9.86988,4.626507 -23.44096,31.46022 q 10.48675,8.94459 14.03374,22.36146 3.54699,13.41686 -1.07952,26.37108 -4.93495,14.18794 -17.42651,22.66988 -12.49157,8.48193 -27.604819,7.55663 24.366269,9.86987 48.424089,-0.61688 11.41206,-4.93493 20.20241,-14.34216 8.79037,-9.40724 13.10844,-21.12771 7.71085,-20.9735 0.30844,-41.947 -7.40241,-20.97348 -26.52531,-32.38552 z M 50.583131,124.29879 Q 61.686745,104.55904 82.351805,95.614457 104.55903,86.053015 127.99999,92.838554 125.53253,83.893972 119.36385,76.491562 113.19518,69.089155 104.55903,65.079517 86.361444,56.751806 68.472288,65.696383 52.1253,73.715658 46.881926,91.142166 41.638554,108.56867 50.583131,124.29879 Z m 3.392771,4.31806 5.243374,5.86025 q 12.954217,-10.48675 29.609637,-10.17831 14.804817,0.30843 26.833737,8.94457 7.09398,-6.47711 10.48674,-15.42168 3.70121,-9.56145 2.46748,-19.739749 -23.13254,-7.40241 -45.339764,2.775899 -19.431324,8.94457 -29.301204,27.75902 z m -2.159035,3.70121 -2.467471,6.78555 q -1.542169,4.93493 -2.46747,10.17831 l 4.934941,-6.78555 q 2.159035,-2.7759 4.626506,-5.55181 -1.233736,-0.9253 -2.467471,-2.15903 -1.233734,-1.23373 -2.159035,-2.46747 z m 12.028915,4.93495 q 10.79518,7.71084 23.749397,7.40241 13.571081,-0.30845 24.366261,-8.63616 -10.48674,-7.09396 -23.44096,-7.09396 -13.571084,0 -24.674698,8.32771 z m 44.414458,5.86023 q -5.86024,3.08434 -12.645784,4.31808 -12.645783,2.15903 -25.291566,-2.15904 -5.551807,-1.85061 -10.486747,-4.93494 -3.701205,3.7012 -6.477108,8.01928 -3.392771,5.55181 -4.626506,11.41204 -1.542168,8.32772 0.925301,16.96386 3.084338,9.86988 10.486747,19.12289 6.785542,8.32771 14.804819,12.02892 6.168674,2.7759 12.954216,2.7759 6.477108,0 13.262648,-2.15903 9.56145,-3.08435 16.03856,-9.56146 6.47711,-6.16866 9.86987,-15.42167 4.00965,-11.10362 2.46748,-21.59037 -2.15904,-13.87952 -13.26265,-22.20723 l -12.02892,16.03856 q 4.93494,3.7012 8.01928,9.25301 4.6265,8.63614 3.08433,18.19758 -1.54216,8.63616 -7.86506,14.80482 -6.32289,6.16868 -14.959032,7.71085 -8.327711,1.23374 -16.038554,-2.31325 -7.710843,-3.54699 -12.337348,-10.64096 -4.318073,-7.09398 -4.163856,-15.57591 0.154217,-8.48192 5.089157,-15.26747 5.86024,-8.32771 15.884336,-10.79518 10.024097,-2.46747 19.277107,2.15904 z m -7.09398,16.96385 -8.327708,11.10362 q 5.551808,5.86025 4.93494,14.18796 -0.308434,5.24336 -3.392772,9.40722 -3.084337,4.16385 -8.019276,6.3229 8.019276,0.61686 14.804816,-4.00965 6.78554,-4.6265 8.94458,-12.33734 2.15904,-7.09398 -0.61687,-14.18795 -2.46747,-6.47711 -8.32771,-10.48676 z m -36.395177,15.73012 q 3.701205,-7.4024 12.028916,-8.94457 6.168674,-1.23374 11.720481,2.15904 l 8.944578,-10.79519 q -8.944578,-4.93493 -18.506023,-1.23373 -5.860241,2.15903 -9.715663,7.2482 -3.855422,5.08915 -4.472289,11.56625 z m 24.674698,-0.30843 -7.710843,10.17832 -3.392771,-2.46748 8.019277,-10.48674 q -4.318073,-2.15903 -8.790361,-1.23373 -4.472289,0.9253 -7.556627,4.62651 -3.39277,4.00963 -2.93012,9.40722 0.462651,5.3976 4.472289,8.79036 4.626506,4.31807 10.949397,3.23856 6.322891,-1.07952 9.407229,-6.63132 2.159036,-3.70121 1.387952,-8.01929 -0.771085,-4.31807 -3.855422,-7.40241 z M 127.99999,0 Q 154.5253,0 177.81204,9.8698798 201.09879,19.739758 218.37108,37.166264 235.64337,54.59277 245.82169,77.87952 256,101.16626 256,127.69155 q 0,26.52531 -10.17831,49.96627 -10.17832,23.44097 -27.45061,40.71325 -17.27229,17.27229 -40.55904,27.29639 -23.28674,10.0241 -49.81205,10.0241 -26.52529,0 -49.812041,-10.0241 Q 54.901204,235.64336 37.628915,218.37107 20.356626,201.09879 10.178313,177.65782 0,154.21686 0,127.69155 0,101.16626 10.178313,77.87952 20.356626,54.59277 37.628915,37.166264 54.901204,19.739758 78.187949,9.8698798 101.4747,0 127.99999,0 Z M 46.881926,44.106023 Z M 13.571085,151.13252 Z m 159.460235,83.89397 q 8.94458,-3.39276 19.73976,-10.79517 9.56145,-6.78555 16.96386,-14.18796 7.71084,-7.71084 14.18795,-17.27228 6.78554,-9.25301 11.10361,-19.73977 4.62651,-10.79517 6.78554,-21.89879 2.15904,-11.41205 2.15904,-23.44097 0,-12.02891 -2.15904,-23.44095 -1.8506,-11.103617 -6.78554,-21.898789 -2.7759,-6.477109 -6.47711,-12.645788 -3.39277,-6.168675 -7.71084,-11.720482 -0.61687,-0.616867 -0.9253,-1.233735 -0.30844,-0.616868 -0.9253,-1.233735 -2.15904,-2.775903 -4.47229,-5.243373 -2.31326,-2.467471 -4.78072,-4.93494 -7.09398,-6.785542 -14.80482,-12.33735 l -12.64579,17.889157 q 9.25302,8.019277 16.65543,17.889156 23.13253,30.534941 23.44096,67.238539 0.30844,29.60964 -14.80482,55.20964 -12.33735,20.66506 -32.69397,34.85302 -11.41205,8.01927 -24.67471,12.95422 11.41206,0.30843 22.8241,-4.00965 z M 151.13252,13.879518 q -10.17831,-2.46747 -23.13253,-2.46747 -12.64578,0 -22.51566,2.46747 -6.785537,1.542169 -12.954212,4.318072 h 70.939762 q -5.86025,-2.775903 -12.33736,-4.318072 z"
       id="path70"
       style="display:inline;stroke-width:0.308433"
       inkscape:label="Fleet Command" />
  </g>
</svg>
