<?xml version="1.0" encoding="UTF-8" standalone="no"?>
<svg
   xmlns:dc="http://purl.org/dc/elements/1.1/"
   xmlns:cc="http://creativecommons.org/ns#"
   xmlns:rdf="http://www.w3.org/1999/02/22-rdf-syntax-ns#"
   xmlns:svg="http://www.w3.org/2000/svg"
   xmlns="http://www.w3.org/2000/svg"
   xmlns:sodipodi="http://sodipodi.sourceforge.net/DTD/sodipodi-0.dtd"
   xmlns:inkscape="http://www.inkscape.org/namespaces/inkscape"
   width="210mm"
   height="297mm"
   viewBox="0 0 210 297"
   version="1.1"
   id="svg9755"
   inkscape:version="1.0.2-2 (e86c870879, 2021-01-15)"
   sodipodi:docname="upgrade-ion-cannons.svg">
  <defs
     id="defs9749" />
  <sodipodi:namedview
     id="base"
     pagecolor="#ffffff"
     bordercolor="#666666"
     borderopacity="1.0"
     inkscape:pageopacity="0.0"
     inkscape:pageshadow="2"
     inkscape:zoom="1.6081503"
     inkscape:cx="498.94964"
     inkscape:cy="335.18479"
     inkscape:document-units="mm"
     inkscape:current-layer="layer1"
     inkscape:document-rotation="0"
     showgrid="false"
     inkscape:pagecheckerboard="true"
     showborder="false"
     inkscape:window-width="2046"
     inkscape:window-height="2054"
     inkscape:window-x="-10"
     inkscape:window-y="0"
     inkscape:window-maximized="0" />
  <metadata
     id="metadata9752">
    <rdf:RDF>
      <cc:Work
         rdf:about="">
        <dc:format>image/svg+xml</dc:format>
        <dc:type
           rdf:resource="http://purl.org/dc/dcmitype/StillImage" />
        <dc:title />
      </cc:Work>
    </rdf:RDF>
  </metadata>
  <g
     inkscape:label="Layer 1"
     inkscape:groupmode="layer"
     id="layer1">
    <path
       d="m 127.8456,0 c 17.70487,0 34.32891,3.3968637 49.87214,10.190591 15.54322,6.793727 29.07921,16.006433 40.60796,27.638118 11.52875,11.631685 20.68998,25.167672 27.48371,40.607962 C 252.60314,93.876964 256,110.44954 256,128.1544 c 0,17.70487 -3.39686,34.38038 -10.19059,50.02654 -6.79373,15.64616 -15.95496,29.18215 -27.48371,40.60796 -11.52875,11.42581 -25.06474,20.53558 -40.60796,27.32931 -15.54323,6.79373 -32.16727,10.19059 -49.87214,10.19059 -17.70487,0 -34.328921,-3.39686 -49.872142,-10.19059 C 62.430236,239.32448 48.89425,230.21471 37.365501,218.7889 25.836751,207.36309 16.72698,193.8271 10.036188,178.18094 3.345396,162.53478 0,145.85927 0,128.1544 0,110.44954 3.345396,93.876964 10.036188,78.436671 16.72698,62.996381 25.836751,49.460394 37.365501,37.828709 48.89425,26.197024 62.430236,16.984318 77.973458,10.190591 93.516679,3.3968637 110.14073,0 127.8456,0 Z m -13.27865,112.0965 c 0.35329,0.0473 0.72382,-0.0332 0.92642,-0.3088 0.54526,-0.74185 0.20586,-1.64697 -0.61762,-2.47045 l -23.778048,-8.64656 c -0.617611,0 -0.876658,0.0168 -1.082526,0.42856 -0.202203,0.55937 0.322625,0.85988 0.773724,1.11547 z m -3.70567,0.92642 -20.998797,-9.57298 c -1.045217,0.0759 -1.183197,0.81993 -1.093654,1.47859 l 21.166031,10.56484 c 0.9862,0.0499 1.54992,-1.86705 0.92642,-2.47045 z m 0.92642,2.77925 8.95536,4.63209 1.85284,0.92642 2.77925,1.23522 c 0.41174,-0.20587 0.82348,-0.72055 1.23523,-1.54402 0.82348,-1.4411 1.54403,-3.29394 2.16164,-5.55851 0.41174,-1.85284 0.51467,-3.191 0.3088,-4.01448 -0.20587,-0.82348 -0.51467,-1.33816 -0.92642,-1.54403 l -1.23522,-0.61761 -12.96985,-4.32328 v 2.47045 c 0.61761,0.20587 1.33816,0.51467 2.16164,0.92641 1.4411,0.82349 1.84287,1.78127 2.04874,3.22236 -0.41175,1.23522 -1.12232,2.02734 -2.97516,2.02734 -0.82348,0 -1.54402,-0.20587 -2.16163,-0.61761 z m 61.76115,13.27865 c 0,0.41174 -0.36027,1.49256 -1.08082,3.24247 -0.72054,1.7499 -1.69842,3.6542 -2.93365,5.7129 -1.02935,2.26458 -2.26458,4.9409 -3.70567,8.02895 l -0.61761,6.79373 2.47045,-4.32329 c 0.82348,-1.23522 1.69843,-2.57338 2.62485,-4.01447 0.92641,-1.44109 1.69843,-2.77924 2.31604,-4.01447 1.02935,-1.85283 1.95577,-3.60273 2.77925,-5.2497 0.82349,-1.64697 1.54404,-3.4998 2.16165,-5.55851 3.49979,-9.67591 3.63892,-11.67126 5.30357,-21.02268 l 0.87253,-8.00506 c -3.94987,-0.93742 -7.80455,-2.118578 -11.52418,-2.953761 -1.87122,11.284261 -2.48607,22.503321 1.33359,31.363891 z m 20.69,-56.202653 c 0.4555,0.844224 0.40917,1.937031 0,2.779252 -5.97025,2.676317 -11.21995,6.484921 -15.7491,11.425814 1.37073,2.672484 1.54129,6.102402 1.85284,8.646562 3.08805,1.029353 5.8673,1.852835 8.33775,2.470447 2.47045,0.617611 4.32328,1.132288 5.55851,1.544029 -0.41175,2.676319 -0.82349,5.815849 -1.23523,9.418579 -0.29546,2.28046 -0.73438,5.39489 -1.20613,7.57002 2.5255,0.95076 4.99826,1.52024 7.38225,2.77497 0.44984,-1.23789 0.57741,-2.1906 0.92642,-3.70567 2.88219,-13.58745 3.19099,-24.704462 0.92641,-33.351024 -0.82348,-3.705669 -2.47044,-6.896662 -4.94089,-9.572979 z m 22.85162,98.200243 c 0.82349,-1.23523 1.5955,-2.47045 2.31605,-3.70568 1.78876,-2.16558 2.6573,-4.79411 4.01447,-6.94812 1.64525,-3.52954 3.51215,-7.18134 4.63209,-10.6538 1.1151,-2.65444 1.67619,-4.96368 2.31605,-7.41133 -3.65906,-2.13846 -7.72939,-4.99042 -11.11701,-6.79374 -3.4998,-1.85283 -6.9862,-4.09944 -10.69187,-6.15815 -0.41174,1.44109 -1.19716,4.09945 -2.12357,7.39338 -0.92643,3.29393 -2.11018,6.48492 -3.55127,9.57298 -1.02936,2.26457 -2.05871,4.42621 -3.08806,6.48492 -1.02935,2.0587 -1.85284,3.60273 -2.47045,4.63209 2.47045,1.64695 5.0953,3.24245 7.87456,4.78648 2.77925,1.54403 5.91877,2.83072 9.41857,3.86007 0,0.20588 -0.36027,1.02936 -1.08082,2.47045 -0.72055,1.44109 -1.49257,3.08806 -2.31605,4.94089 -0.82348,2.05871 -1.95577,4.22035 -3.39686,6.48492 l 0.61761,3.70567 c 1.02935,-1.64697 2.05871,-3.08806 3.08806,-4.32328 2.00895,-2.69108 4.1277,-5.52486 5.5585,-8.33775 z m -26.24849,-18.21954 c 0.20587,0.20587 0,0.92641 -0.61761,2.16164 -0.61761,1.23522 -1.44109,2.77925 -2.47044,4.63208 l -4.01449,6.17612 0.61762,4.01447 3.70567,-4.01447 c 1.23522,-1.4411 2.26457,-2.88219 3.08805,-4.32328 1.85284,-2.88219 3.49981,-5.76438 4.9409,-8.64656 1.96893,-4.28484 4.45661,-8.98656 5.86731,-12.96984 1.32836,-3.57189 2.89131,-8.79742 3.70567,-12.04343 -6.20706,-2.85918 -13.1399,-5.5918 -18.83715,-7.10254 l 0.92642,-4.32328 c 0.20587,-1.44109 0.41173,-2.98512 0.6176,-4.63208 0.20587,-1.44109 0.41175,-2.98512 0.61762,-4.63209 0.20587,-1.64697 0.41174,-3.191 0.61761,-4.63209 -0.75202,-0.15582 -1.23074,-0.24118 -1.85283,-0.3088 -0.41175,1.64696 -0.87496,4.16887 -1.38963,7.56574 -0.51468,3.39686 -1.38963,7.25693 -2.62486,11.58022 -0.82348,2.88219 -1.80136,5.81584 -2.93365,8.80096 -1.13229,2.98512 -2.2131,5.50704 -3.24245,7.56575 3.49979,5.97024 7.92601,11.01407 13.27864,15.13148 z m 34.58625,-56.974672 c -0.41174,-8.955368 -2.77925,-15.594693 -7.10253,-19.917974 -3.5529,-1.009936 -6.37707,-1.528074 -9.41857,-2.16164 -2.3241,-0.346608 -6.36366,-0.866655 -8.97548,-0.821203 0.61761,1.029353 1.51266,2.62257 2.33614,4.372469 0.82349,1.7499 1.4411,4.065944 1.85284,6.948131 1.64697,8.440692 1.64697,16.675509 0,24.704459 l -2.16164,11.42582 c 1.02935,0.41175 1.85284,0.77202 2.47045,1.08082 l 2.16164,1.08082 c 2.47045,1.23522 4.88942,2.52191 7.25693,3.86007 2.36751,1.33816 4.45088,2.58237 6.71545,4.02346 3.34496,-10.09768 5.25352,-24.55289 4.86477,-34.595232 z m -91.71532,20.535582 c -0.23751,0.64838 0.28928,1.58663 0.92641,1.85284 3.32887,1.3909 6.01811,2.41393 9.0476,3.34608 0.94553,0.29093 2.09885,0.26328 2.42963,-0.59736 0.39775,-1.03484 -0.20907,-1.85656 -1.44055,-2.3268 -3.04038,-1.16097 -5.6352,-2.07453 -8.80145,-3.20117 -1.13095,-0.40243 -1.892,0.19031 -2.16164,0.92641 z m 12.64047,-1.12179 c 0.30902,-0.8234 0.16787,-1.81069 -0.9984,-2.28535 -3.49723,-1.42336 -6.86048,-2.34471 -10.40684,-3.69539 -0.65939,-0.18552 -1.60045,0.28369 -1.85284,0.92642 -0.32146,0.81862 -0.22187,1.93671 0.64878,2.28535 3.42546,1.18361 6.95872,2.56461 10.40654,3.70566 0.84576,0.2799 1.90826,-0.15196 2.20276,-0.93669 z m -3.9939,-13.70088 -5.86732,-2.779256 -1.54402,-0.926418 -2.16165,-0.926417 -5.55851,7.102531 2.47045,0.92642 1.23522,0.30881 8.64657,3.08805 z m 92.95054,69.17249 c 2.47045,-5.97025 4.42621,-12.5581 5.8673,-19.76357 -2.92803,-2.30359 -5.66587,-4.44353 -8.02894,-6.79372 -0.41175,1.44109 -1.02936,3.29392 -1.85284,5.55849 -0.82349,2.26458 -1.95577,4.73503 -3.39686,7.41134 -1.02936,2.05871 -2.05871,4.16889 -3.08806,6.33052 -1.02935,2.16165 -1.95577,3.86008 -2.77925,5.0953 3.91154,1.02935 8.33776,1.7499 13.27865,2.16164 z m 8.33775,-42.6152 c 0,-8.02895 -0.82348,-15.80056 -2.47045,-23.31483 -1.64696,-7.514277 -4.01447,-14.874149 -7.10252,-22.079617 -1.85284,-1.029353 -3.65421,-2.007239 -5.40411,-2.933656 -1.7499,-0.926417 -3.75714,-1.698432 -6.02172,-2.316043 0.61761,1.029353 1.38963,2.470446 2.31605,4.323281 0.92641,1.852835 1.59549,4.014475 2.00724,6.484922 0.82348,4.940892 1.28669,9.212706 1.38963,12.815443 0.10293,3.60273 -0.15441,7.56574 -0.77202,11.88902 -0.41174,4.11741 -1.13229,8.18336 -2.16164,12.19783 -1.02935,4.01447 -1.35839,4.87629 -2.15051,7.00629 3.08805,1.85283 5.75324,3.6475 8.63543,5.50035 2.88219,1.85283 7.96481,5.88585 10.64112,8.15043 0.98049,-6.86428 1.0935,-11.78061 1.0935,-17.72342 z m -48.4825,-57.129068 c 13.99919,0 26.66022,3.190993 37.98311,9.572979 C 228.41335,70.716526 222.49458,61.606755 215.39205,53.269 208.28951,44.931243 200.15762,37.725774 190.99638,31.652593 181.83514,25.579413 171.95336,20.844391 161.35103,17.447527 150.7487,14.050663 139.58022,12.352231 127.8456,12.352231 c -16.05791,0 -31.137925,3.088058 -45.240055,9.264174 C 68.503416,27.792521 56.254121,36.07881 45.857659,46.475271 35.461198,56.871733 27.226377,69.12103 21.153197,83.223161 15.080016,97.325294 12.043425,112.30237 12.043425,128.1544 c 0,12.14637 1.801367,23.82952 5.404102,35.04946 3.602734,11.21994 8.69803,21.51347 15.285887,30.88058 6.587857,9.36711 14.308001,17.65339 23.160433,24.85886 8.852434,7.20547 18.631284,12.86691 29.336549,16.98432 v -45.08564 c 2.264578,-1.64697 5.146764,-3.39687 8.646558,-5.2497 2.88219,-1.64697 6.330526,-3.4998 10.345006,-5.55851 4.01447,-2.0587 8.49216,-4.22034 13.43305,-6.48492 -1.02936,-3.29393 -1.80137,-6.84519 -2.31604,-10.65379 -0.51468,-3.80861 -0.77202,-7.56575 -0.77202,-11.27142 v -4.32328 l -13.89626,-7.10253 -0.926418,-7.41134 6.484918,-3.70567 v -5.55851 c -3.4998,-2.0587 -7.256935,-4.27181 -11.271406,-6.63932 -4.014479,-2.36751 -8.080422,-4.68355 -12.197827,-6.94813 -1.029355,0.41174 -2.05871,0.41174 -3.088065,0 L 49.408926,93.87696 c -1.029353,-0.823482 -1.338159,-2.058705 -0.926418,-3.705669 v -0.308806 c -4.940893,-2.676317 -7.720145,-4.426216 -8.337756,-5.249698 -0.617612,-0.205871 -1.029353,-0.772015 -1.235223,-1.698432 -0.20587,-0.926417 -0.102935,-1.801367 0.308805,-2.624849 0.411741,-0.823482 0.926418,-1.492561 1.54403,-2.007238 0.617611,-0.514676 1.338158,-0.669079 2.16164,-0.463209 0.411741,0 1.338159,0.360274 2.779252,1.080821 1.441094,0.720547 3.70567,1.595496 6.793728,2.624849 0.823482,-1.441094 1.749899,-1.95577 2.779252,-1.544029 l 2.470446,0.926418 c 0.0084,-0.72669 0.189506,-1.445839 0.308807,-2.161641 0.823481,-1.441094 1.955769,-1.852835 3.396863,-1.235223 l 21.307605,6.793727 c 1.441091,0.411741 1.955765,1.338159 1.544021,2.779252 l -0.926417,1.235224 4.940889,1.852834 c 0.823487,0 1.441099,0.308806 1.852835,0.926417 0.411743,0.617611 0.617615,1.338158 0.617615,2.161641 v 0.308806 c 0,0.20587 -0.205872,0.308805 -0.617615,0.308805 3.911545,1.235223 7.668687,2.418979 11.271425,3.551267 3.60273,1.132288 6.74225,2.213109 9.41857,3.242463 3.08806,1.02935 6.07318,1.95577 8.95536,2.77925 l 4.32329,-3.705669 -2.77925,-1.852835 2.16163,-2.779252 3.70567,1.544028 2.77926,-2.779252 6.48492,2.161641 c 7.41134,-7.617209 16.10937,-13.69039 26.0941,-18.219542 9.98472,-4.529151 20.84439,-6.793727 32.57901,-6.793727 z m -113.413038,30.006218 4.404581,2.10958 c 1.126105,-4.348913 1.39016,-8.98533 0.977191,-11.878896 -1.055661,-0.564315 -2.388345,-0.930138 -3.766726,-1.440562 0.246016,3.91177 -0.778079,8.365161 -1.615046,11.209878 z m -7.166651,-3.023776 3.233476,1.736497 c 1.891831,-2.842055 1.910245,-8.454147 1.862161,-11.137256 -1.229968,-0.445191 -2.829416,-0.904144 -3.982666,-1.183491 0.224247,5.276778 -0.119931,6.804436 -1.112971,10.58425 z m -6.957115,-2.89559 3.396867,1.544028 c 1.211741,-3.923146 1.568927,-6.938113 0.94866,-10.117879 -0.841205,-0.351492 -2.589088,-0.816146 -3.840835,-1.173635 0.340092,2.74153 0.06063,7.048302 -0.504692,9.747486 z m -6.793725,-3.088059 3.396863,1.852835 c 1.046161,-3.141091 1.091673,-5.871856 1.006833,-9.267592 -1.075445,-0.389389 -2.764289,-0.946197 -3.575655,-1.192029 0.272895,1.080753 0.295862,5.750316 -0.828041,8.606786 z m -5.867311,-2.779251 2.779252,1.544029 c 1.349176,-2.470019 1.330818,-5.93313 0.94823,-8.265046 -1.189787,-0.416106 -1.854897,-0.526044 -2.801065,-0.999128 0.387476,2.480686 0.01753,5.329036 -0.926417,7.720145 z"
       id="path54"
       style="display:inline;stroke-width:0.308805"
       inkscape:label="Ion Cannons"
       sodipodi:nodetypes="ssssssssssssssssscsccccccccccccccccsscccccscccsccccscscccccccccscccccccccccccccscscscsccccccscccccccccccsccsssccccccscccssscccssssscsscccssccccccccccccscscccscscssscscsccscssssssssssscccscsscccccsccccccssscscccccccccssscsccccccccssccccccccccccccccccccccccc" />
  </g>
</svg>
