<?xml version="1.0" encoding="UTF-8" standalone="no"?>
<svg
   xmlns:dc="http://purl.org/dc/elements/1.1/"
   xmlns:cc="http://creativecommons.org/ns#"
   xmlns:rdf="http://www.w3.org/1999/02/22-rdf-syntax-ns#"
   xmlns:svg="http://www.w3.org/2000/svg"
   xmlns="http://www.w3.org/2000/svg"
   xmlns:sodipodi="http://sodipodi.sourceforge.net/DTD/sodipodi-0.dtd"
   xmlns:inkscape="http://www.inkscape.org/namespaces/inkscape"
   width="210mm"
   height="297mm"
   viewBox="0 0 210 297"
   version="1.1"
   id="svg9166"
   inkscape:version="1.0.2-2 (e86c870879, 2021-01-15)"
   sodipodi:docname="upgrade-ordnance.svg">
  <defs
     id="defs9160" />
  <sodipodi:namedview
     id="base"
     pagecolor="#ffffff"
     bordercolor="#666666"
     borderopacity="1.0"
     inkscape:pageopacity="0.0"
     inkscape:pageshadow="2"
     inkscape:zoom="3.959798"
     inkscape:cx="645.53607"
     inkscape:cy="603.55311"
     inkscape:document-units="mm"
     inkscape:current-layer="layer1"
     inkscape:document-rotation="0"
     showgrid="false"
     inkscape:pagecheckerboard="true"
     showborder="false"
     inkscape:window-width="2046"
     inkscape:window-height="2054"
     inkscape:window-x="-10"
     inkscape:window-y="0"
     inkscape:window-maximized="0" />
  <metadata
     id="metadata9163">
    <rdf:RDF>
      <cc:Work
         rdf:about="">
        <dc:format>image/svg+xml</dc:format>
        <dc:type
           rdf:resource="http://purl.org/dc/dcmitype/StillImage" />
        <dc:title />
      </cc:Work>
    </rdf:RDF>
  </metadata>
  <g
     inkscape:label="Layer 1"
     inkscape:groupmode="layer"
     id="layer1">
    <path
       d="m 128,0 c 17.68354,0 34.28756,3.2899612 49.81205,9.8698837 15.5245,6.5799153 29.04418,15.6787083 40.55904,27.2963803 11.51485,11.617673 20.66505,25.188757 27.4506,40.713254 C 252.60723,93.404013 256,110.00803 256,127.69157 c 0,17.68354 -3.39277,34.33896 -10.17831,49.96627 -6.78555,15.62731 -15.93575,29.19839 -27.4506,40.71325 -11.51486,11.51485 -25.03454,20.61365 -40.55904,27.29638 -15.52449,6.68273 -32.12851,10.0241 -49.81205,10.0241 -17.68353,0 -34.287544,-3.34137 -49.812052,-10.0241 C 62.663451,238.98474 49.143776,229.88594 37.628921,218.37109 26.114058,206.85623 16.963856,193.28515 10.178314,177.65784 3.3927713,162.03053 0,145.37511 0,127.69157 0,110.00803 3.3927713,93.404013 10.178314,77.879518 16.963856,62.355021 26.114058,48.783937 37.628921,37.166264 49.143776,25.548592 62.663451,16.449799 78.187948,9.8698837 93.712456,3.2899612 110.31647,0 128,0 Z m 0,243.97108 c 16.03855,0 31.049,-3.03293 45.03133,-9.09878 13.98233,-6.06587 26.26827,-14.34217 36.85783,-24.82892 10.58956,-10.48675 18.91727,-22.8241 24.98314,-37.01205 6.06585,-14.18795 9.09878,-29.30121 9.09878,-45.33976 0,-16.03855 -3.03293,-31.151807 -9.09878,-45.33976 C 228.80643,68.163857 220.47872,55.826507 209.88916,45.33976 199.2996,34.853013 187.01366,26.576707 173.03133,20.510842 159.049,14.444977 144.03855,11.412045 128,11.412045 c -15.21606,0 -29.506822,2.724499 -42.872287,8.173496 -13.365465,5.448997 -25.188757,12.800002 -35.469876,22.053014 l 13.262647,12.337346 c 0.411247,0.411248 1.336549,1.490768 2.775904,3.238561 1.439355,1.747792 2.878713,3.752609 4.318076,6.014452 1.644975,2.26185 3.392763,4.832134 5.243366,7.710851 L 67.85542,65.387958 62.303612,61.069881 58.910849,58.293978 46.881933,44.106029 c -10.897995,10.692367 -19.53414,23.183932 -25.908435,37.474694 -6.374302,14.290765 -9.561453,29.661047 -9.561453,46.110847 0,16.03855 3.084337,31.15181 9.253012,45.33976 6.168675,14.18795 14.496386,26.5253 24.983133,37.01205 10.486747,10.48675 22.772692,18.76305 36.857835,24.82892 14.085143,6.06585 29.249805,9.09878 45.493975,9.09878 z m 46.57349,-69.08915 c 4.93494,-4.72932 10.17831,-7.55663 15.73012,-8.48192 5.55181,-0.92531 10.17831,0.15421 13.87952,3.23855 2.26185,5.75743 3.64981,11.15502 4.16386,16.19277 0.51406,5.03775 -0.35984,9.30442 -2.62169,12.80001 -0.82249,1.64497 -2.05622,3.28995 -3.7012,4.93493 -0.82249,0.82249 -1.69638,1.49076 -2.62169,2.00482 -0.9253,0.51405 -1.69638,1.07952 -2.31325,1.69639 -3.49558,2.05622 -7.81365,2.67309 -12.95421,1.8506 -5.14057,-0.82249 -10.48676,-2.46747 -16.03857,-4.93494 -2.87871,-3.7012 -3.7526,-8.37911 -2.62167,-14.03374 1.13091,-5.65462 4.16384,-10.74378 9.09878,-15.26747 z m 25.60001,26.5253 c 3.28995,-3.08434 5.19196,-6.68273 5.70602,-10.79518 0.51405,-4.11245 -0.46265,-7.71084 -2.93012,-10.79518 h -0.61687 c -0.20562,-0.20562 -0.51405,-0.46265 -0.9253,-0.77109 -0.41124,-0.30843 -0.82248,-0.66826 -1.23373,-1.07951 h 0.30843 c -2.87871,-1.43936 -6.01446,-1.90201 -9.40723,-1.38795 -3.39277,0.51405 -6.63132,2.31325 -9.71566,5.39758 -2.87871,2.6731 -4.72932,5.75744 -5.55181,9.25303 -0.82249,3.49557 -0.51406,6.68272 0.92531,9.56144 v -0.30843 c 0.41124,0.41124 0.71967,0.87389 0.9253,1.38794 0.20562,0.51406 0.51405,0.97671 0.9253,1.38796 2.67309,2.46746 6.11726,3.59838 10.33253,3.39276 4.21526,-0.20562 7.96787,-1.95341 11.25783,-5.24337 z M 101.47471,67.85542 82.66024,48.115664 l 22.8241,-21.8988 3.70121,2.775904 -7.71084,23.132531 2.15903,2.775904 z m -49.349411,9.869884 18.506025,19.431325 -12.645776,1.233732 -2.775904,-2.159033 -23.440972,6.785542 -3.084334,-3.084337 z m 28.99278,-26.525306 c -2.878718,-0.616868 -5.603217,-0.873897 -8.173497,-0.771087 -2.570279,0.102818 -5.294778,0.976714 -8.173496,2.621689 -1.320748,-1.464998 -1.462418,-1.877318 -2.159032,-2.313247 -0.822205,-0.514521 -1.439363,-0.97671 -1.850602,-1.387958 2.467469,-1.850602 5.191964,-2.775903 8.173484,-2.775903 2.981527,0 5.706026,0.514057 8.173496,1.542172 1.794423,1.274621 2.884731,2.015164 4.009647,3.084334 z M 52.43374,72.481926 c -1.439363,-2.87871 -2.05623,-5.808829 -1.850602,-8.790356 0.20562,-2.981527 1.130921,-5.706026 2.775904,-8.173496 l 0.925301,0.30843 c 0.41124,0.411247 0.873889,1.028115 1.387946,1.850602 0.514057,0.822495 1.285144,1.644987 2.313259,2.467474 -1.850603,2.46747 -2.878718,4.986345 -3.084345,7.556625 -0.20562,2.57028 -0.102806,5.500402 0.308441,8.790367 C 54.07359,75.20772 53.062553,73.564271 52.43374,72.481926 Z M 184.13495,185.36868 c 2.67309,-2.67309 5.5518,-4.26667 8.63614,-4.78072 3.08433,-0.51406 5.86024,0.46264 8.32771,2.93011 0.20562,0.61687 0.30843,1.33655 0.30843,2.15904 v 2.46747 c -0.20562,0 -0.30843,-0.10281 -0.30843,-0.30843 0,-0.20563 -0.20562,-0.41125 -0.61687,-0.61687 -2.26185,-2.05622 -4.83213,-2.67309 -7.71084,-1.8506 -0.61687,0 -0.9253,0.30843 -0.9253,0.9253 0,0.20562 0.30843,0.30843 0.9253,0.30843 1.64498,0.61687 2.57028,1.13092 2.7759,1.54217 2.26185,2.26185 1.85061,4.83214 -1.23373,7.71085 -1.23373,1.02811 -2.51887,1.69638 -3.85542,2.00482 -1.33655,0.30843 -2.51888,-0.0514 -3.54699,-1.07953 -0.61687,-0.82249 -0.9253,-1.8506 -0.9253,-3.08433 0,-0.61687 -0.41125,-0.9253 -1.23374,-0.9253 -0.61687,0 -0.92531,0.10281 -0.92531,0.30844 -0.61687,3.49557 0.10282,6.27147 2.15905,8.3277 l 0.9253,0.92531 c -0.82249,0 -1.69639,-0.10281 -2.62169,-0.30844 -0.92531,-0.20562 -1.69639,-0.41124 -2.31326,-0.61687 -2.05622,-2.05623 -2.87871,-4.62651 -2.46746,-7.71084 0.61687,-3.70121 2.15904,-6.47711 4.62651,-8.32771 z m -66.62169,-28.99277 c -0.82249,4.52369 -0.71968,8.84177 0.30843,12.95422 -4.52369,-5.75743 -5.86024,-12.64579 -4.00964,-20.66506 1.23373,-8.84177 5.65462,-16.75824 13.26265,-23.7494 3.28997,-3.28996 6.99117,-5.96305 11.10361,-8.01928 4.11245,-2.05623 8.43053,-3.49558 12.95422,-4.31807 3.70121,-0.41125 7.35101,-0.20563 10.9494,0.61686 3.59839,0.82249 6.73414,2.46748 9.40723,4.93495 -1.85061,-0.41125 -3.85542,-0.77109 -6.01445,-1.07953 -2.15904,-0.30843 -4.4723,-0.25702 -6.93977,0.15423 -9.66425,1.02811 -18.60883,5.44899 -26.83374,13.26264 -3.7012,3.70121 -6.83694,7.71085 -9.40722,12.02892 -2.57028,4.31807 -4.16385,8.94458 -4.78072,13.87952 z m 40.09638,-33.61928 c 8.2249,-1.8506 15.42169,-1.13092 21.59036,2.15904 2.87871,4.11245 6.4257,9.56145 10.64097,16.34699 4.21526,6.78554 8.07068,13.87952 11.56626,21.28193 -3.90683,-1.64499 -8.43052,-1.64499 -13.57108,0 -4.11245,-6.99117 -8.73896,-13.82813 -13.87952,-20.51086 -5.14057,-6.68272 -10.58956,-13.10842 -16.34699,-19.2771 z m 25.29156,40.71326 c -2.26184,1.02811 -4.36947,2.15903 -6.32288,3.39276 -1.95342,1.23373 -3.85543,2.67309 -5.70603,4.31808 -1.85061,1.64497 -3.44418,3.44417 -4.78072,5.39759 -1.33655,1.95341 -2.51888,4.06104 -3.54699,6.32288 -6.16347,-4.84924 -12.74468,-10.00639 -18.50602,-14.49638 -7.40241,-5.75743 -13.98233,-11.51486 -19.73976,-17.27229 2.05623,-6.37429 5.86024,-12.02891 11.41205,-16.96385 2.46747,-2.26185 5.14056,-4.31808 8.01927,-6.16868 2.87872,-1.8506 5.96306,-3.28995 9.25301,-4.31806 5.55181,6.16867 10.74378,12.59437 15.57591,19.27709 4.83213,6.68273 9.61285,13.51969 14.34216,20.51086 z m -21.28193,24.05782 c -0.61687,2.26185 -1.02811,4.5751 -1.23373,6.93976 -0.20562,2.36466 0.10281,4.67791 0.9253,6.93976 -7.40241,-3.70121 -14.44498,-7.86506 -21.12771,-12.49156 -6.68273,-4.62651 -11.87469,-8.58475 -15.57589,-11.8747 -3.28997,-6.16868 -3.70122,-13.15984 -1.23375,-20.97349 2.87872,2.87871 5.80884,5.70601 8.79037,8.48192 10.91236,8.08402 19.10115,16.74997 29.45541,22.97831 z m -38.24578,-66.31325 c -3.28995,3.08434 -6.22007,6.47711 -8.79035,10.17832 -2.57028,3.7012 -4.36948,7.60803 -5.39759,11.72048 l -20.973503,-21.8988 c -1.723759,-2.10466 -3.581958,-4.49552 -4.626506,-6.78554 -1.439355,-3.90683 -1.439355,-8.2249 0,-12.95421 1.439363,-4.729323 4.215266,-8.944587 8.327711,-12.645792 3.906833,-3.906825 7.813662,-6.374295 11.720488,-7.40241 l 30.53494,31.151812 c -3.90683,2.46747 -7.50522,5.34619 -10.79519,8.63614 z M 108.56867,80.192777 c 2.87872,-0.616867 6.16868,-0.205624 9.86989,1.233731 1.57093,0.771159 3.91965,2.297311 4.93493,3.392776 7.5215,7.585384 15.24027,15.440356 22.8241,23.132526 -1.43935,0.41124 -2.87871,0.87389 -4.31807,1.38795 -1.43935,0.51406 -2.7759,0.97671 -4.00964,1.38796 z M 76.183131,91.913252 c 0.411247,1.439363 0.822495,3.13575 1.233743,5.089163 0.411239,1.953412 0.822483,3.752615 1.233731,5.397595 -0.411248,0.61687 -0.616872,1.54217 -0.616872,2.7759 l -1.233731,-4.31808 -0.925301,-3.701201 V 96.539758 L 58.293978,78.342175 c -0.20562,-1.233735 -0.411244,-2.26185 -0.616872,-3.084345 -0.20562,-0.822487 -0.30843,-1.747789 -0.30843,-2.775904 z M 109.18555,75.25783 c -7.81366,0.411247 -14.702014,3.598399 -20.665061,9.561454 -3.289965,3.289957 -5.860249,6.888348 -7.710852,10.795173 -0.41124,-1.028107 -0.719674,-2.107624 -0.925301,-3.238549 -0.20562,-1.130925 -0.30843,-1.902011 -0.30843,-2.313259 V 89.137348 L 58.293978,67.23856 c 0.53062,-1.325328 1.426384,-2.646801 1.850602,-3.701205 1.439355,1.233735 2.724495,2.261847 3.85542,3.084334 1.130925,0.822487 1.902012,1.336545 2.313259,1.542172 l 13.631471,9.146707 c 0.42368,0.284289 0.724728,0.475285 1.173349,0.106306 0.488921,-0.402125 0.411239,-0.925306 0,-1.542173 L 72.481926,61.995183 c -0.41124,-0.616868 -0.822484,-1.336546 -1.233731,-2.159033 -0.411247,-0.616867 -0.8739,-1.233735 -1.387958,-1.850602 -0.514049,-0.616867 -0.976698,-1.336549 -1.387946,-2.159044 2.26185,-1.644975 4.472291,-2.518871 6.631324,-2.621689 2.15904,-0.10281 4.780729,0.359843 7.865066,1.387958 L 100.5494,72.790368 h 0.30843 c 1.43936,0.411239 2.82731,0.822483 4.16385,1.233731 1.33655,0.411247 2.72451,0.822491 4.16387,1.233731 z"
       id="path56"
       style="display:inline;stroke-width:0.308433"
       inkscape:label="Ordnance"
       sodipodi:nodetypes="sssssssssssssssssssssssssssccsccccccsssssscscscsscscsccsccsccscsccscsccccccccccccccccscscscccsccscscccscscsccscccscsscscscccccccscscsccscccsccsccsssccccscsccscscccccscccsccccccccscccsccccccscccscsscccscsscccscscccsc" />
  </g>
</svg>
