<?xml version="1.0" encoding="UTF-8" standalone="no"?>
<svg
   xmlns:dc="http://purl.org/dc/elements/1.1/"
   xmlns:cc="http://creativecommons.org/ns#"
   xmlns:rdf="http://www.w3.org/1999/02/22-rdf-syntax-ns#"
   xmlns:svg="http://www.w3.org/2000/svg"
   xmlns="http://www.w3.org/2000/svg"
   xmlns:sodipodi="http://sodipodi.sourceforge.net/DTD/sodipodi-0.dtd"
   xmlns:inkscape="http://www.inkscape.org/namespaces/inkscape"
   width="210mm"
   height="297mm"
   viewBox="0 0 210 297"
   version="1.1"
   id="svg4452"
   inkscape:version="1.0.2-2 (e86c870879, 2021-01-15)"
   sodipodi:docname="upgrade-superweapon.svg">
  <defs
     id="defs4446" />
  <sodipodi:namedview
     id="base"
     pagecolor="#ffffff"
     bordercolor="#666666"
     borderopacity="1.0"
     inkscape:pageopacity="0.0"
     inkscape:pageshadow="2"
     inkscape:zoom="5.6"
     inkscape:cx="280.2774"
     inkscape:cy="696.23011"
     inkscape:document-units="mm"
     inkscape:current-layer="layer1"
     inkscape:document-rotation="0"
     showgrid="false"
     showguides="true"
     inkscape:guide-bbox="true"
     inkscape:pagecheckerboard="true"
     showborder="false"
     inkscape:window-width="4096"
     inkscape:window-height="2066"
     inkscape:window-x="-11"
     inkscape:window-y="-11"
     inkscape:window-maximized="1">
    <sodipodi:guide
       position="734.7857,-245.01786"
       orientation="1,0"
       id="guide5024" />
  </sodipodi:namedview>
  <metadata
     id="metadata4449">
    <rdf:RDF>
      <cc:Work
         rdf:about="">
        <dc:format>image/svg+xml</dc:format>
        <dc:type
           rdf:resource="http://purl.org/dc/dcmitype/StillImage" />
        <dc:title />
      </cc:Work>
    </rdf:RDF>
  </metadata>
  <g
     inkscape:label="Layer 1"
     inkscape:groupmode="layer"
     id="layer1">
    <path
       glyph-name="bracketleft"
       unicode="["
       d="m 170.3619,121.6 c -4.06349,0.81271 -8.02539,0.45715 -11.88571,-1.06666 -3.86032,-1.52381 -7.41587,-3.70793 -10.66666,-6.55238 -3.2508,-2.84445 -6.04445,-6.14604 -8.38096,-9.90477 -2.33651,-3.75873 -3.91111,-7.466663 -4.72381,-11.123806 -0.60953,-2.844445 -0.76191,-5.892064 -0.45714,-9.142858 0.30476,-3.250793 1.16825,-6.298412 2.59048,-9.142857 1.42222,-2.844445 3.50476,-5.333334 6.24761,-7.466667 2.74286,-2.133333 6.14604,-3.504761 10.20953,-4.114284 4.06349,-0.812699 8.12698,-0.40635 12.19047,1.219047 4.0635,1.625396 7.77144,3.809523 11.12381,6.55238 3.35239,2.742857 6.24763,5.892064 8.68572,9.44762 2.43809,3.555555 3.9619,6.857142 4.57143,9.904761 0.40635,2.234921 0.66031,4.876191 0.7619,7.923809 0.10159,3.047615 -0.40634,6.095235 -1.52381,9.142855 -1.11746,3.04762 -3.14921,5.84127 -6.09524,8.38096 -2.94603,2.53968 -7.16191,4.52063 -12.64762,5.94285 z M 152.07619,67.961908 c -2.23492,0.406349 -4.52063,1.625396 -6.85714,3.657143 -2.33651,2.031745 -4.11429,4.571428 -5.33334,7.619047 -1.21905,3.047619 -1.77778,6.501587 -1.67619,10.361904 0.10159,3.860318 1.47302,7.822224 4.11429,11.885718 3.45397,5.07936 7.00952,8.7365 10.66666,10.97143 3.65715,2.23492 6.90794,3.65714 9.75239,4.26666 3.45397,0.8127 6.80635,0.8127 10.05714,0 -1.6254,-0.81269 -3.04762,-1.72698 -4.26667,-2.74285 -1.01587,-1.01587 -2.08253,-2.18413 -3.19999,-3.50477 -1.11747,-1.32063 -1.87937,-2.89524 -2.28572,-4.72381 -2.03175,-0.40635 -4.52064,-1.32063 -7.46667,-2.74285 -2.94603,-1.42223 -4.92698,-4.571434 -5.94285,-9.447622 -0.40635,-2.031747 -0.25397,-3.860318 0.45714,-5.485714 0.71111,-1.625397 1.5746,-2.946033 2.59047,-3.961906 1.01588,-1.015873 2.18414,-1.777777 3.50477,-2.285714 1.32063,-0.507937 2.3873,-0.660318 3.19999,-0.457143 0.20318,-1.828571 0.8127,-3.403174 1.82857,-4.723809 1.01588,-1.320635 2.03176,-2.48889 3.04763,-3.504763 1.21905,-1.015872 2.53968,-1.930158 3.9619,-2.742857 -1.42222,-0.609523 -2.94603,-1.219047 -4.57143,-1.828571 -1.42222,-0.406349 -3.09841,-0.711111 -5.02857,-0.914286 -1.93016,-0.203174 -4.11429,-0.101586 -6.55238,0.304763 z m 11.27619,32.914282 c 2.03175,-0.40635 3.40317,-1.422219 4.11428,-3.047616 0.71111,-1.625397 0.8635,-3.301587 0.45715,-5.028572 -0.40635,-1.726984 -1.32063,-3.250793 -2.74285,-4.571428 -1.42223,-1.320635 -3.2508,-1.777778 -5.48572,-1.371429 -2.23492,0.406349 -3.65714,1.371429 -4.26667,2.895239 -0.60952,1.523809 -0.66031,3.149206 -0.15238,4.87619 0.50794,1.726984 1.52381,3.250793 3.04762,4.571428 1.52381,1.320638 3.2,1.879368 5.02857,1.676188 z M 127.69524,0 c 17.67619,0 34.33651,3.352382 49.98095,10.057146 15.64445,6.704762 29.25715,15.847619 40.8381,27.428572 11.58095,11.580952 20.7238,25.19365 27.42857,40.838094 C 252.64762,93.968257 256,110.62858 256,128.30477 c 0,17.67619 -3.35238,34.23492 -10.05714,49.67619 -6.70477,15.44127 -15.84762,28.95238 -27.42857,40.53333 -11.58095,11.58095 -25.19365,20.7238 -40.8381,27.42857 C 162.03175,252.64762 145.37143,256 127.69524,256 110.01905,256 93.460321,252.64762 78.019043,245.94286 62.577776,239.23809 49.066666,230.09524 37.485713,218.51429 25.904761,206.93334 16.761904,193.42223 10.057142,177.98096 3.3523807,162.53969 0,145.98096 0,128.30477 0,110.62858 3.3523807,93.968257 10.057142,78.323812 16.761904,62.679368 25.904761,49.06667 37.485713,37.485718 49.066666,25.904765 62.577776,16.761908 78.019043,10.057146 93.460321,3.352382 110.01905,0 127.69524,0 Z m 9.75238,39.923812 c -1.01587,0.203175 -3.91111,0.609525 -8.68571,1.219049 -4.77461,0.609523 -10.51429,1.371428 -17.21905,2.285714 -6.70477,0.914285 -14.019054,1.980952 -21.942861,3.2 -7.923809,1.219047 -15.542857,2.438095 -22.857143,3.657143 -1.422222,4.469841 -3.047619,9.904761 -4.87619,16.304761 -1.828571,6.4 -3.453968,13.460317 -4.876191,21.180952 9.142857,-1.219048 18.08254,-2.438096 26.819051,-3.657143 8.736506,-1.219047 16.660314,-2.336507 23.771434,-3.35238 8.12698,-1.015873 15.84761,-2.031747 23.1619,-3.04762 -0.20317,0.406349 -0.30476,0.812699 -0.30476,1.219048 v 1.828572 c -5.89207,0.812698 -13.6635,1.879365 -23.31429,3.2 -9.650797,1.320634 -19.657148,2.692063 -30.019053,4.114286 -0.599323,5.844631 -0.9235,11.501065 -0.914286,17.371426 7.111114,-1.01587 13.968259,-1.98095 20.571435,-2.89524 6.603174,-0.91428 12.444444,-1.72698 17.523804,-2.43809 5.07937,-0.711113 9.14286,-1.269843 12.19048,-1.676192 l 4.57143,-0.609524 c 1.62539,4.469846 3.60635,8.177776 5.94286,11.123806 2.33651,2.94603 4.62222,5.43493 6.85714,7.46668 2.43809,2.23491 5.07936,4.16507 7.92381,5.79047 l 0.60953,4.57143 39.00951,-5.18096 c -0.40634,-1.62539 -0.7111,-3.25079 -0.91428,-4.87619 -0.20317,-1.62539 -0.40635,-2.64127 -0.60952,-3.04762 2.64127,-3.45397 4.16508,-7.2127 4.57143,-11.27619 0.40635,-4.06349 0.50793,-7.009521 0.30476,-8.838092 l -0.30476,-1.828572 c 2.43809,-0.203175 4.87619,-0.507936 7.31428,-0.914285 2.23492,-0.203175 4.62222,-0.40635 7.1619,-0.609525 2.53968,-0.203174 5.02857,-0.304761 7.46666,-0.304761 -1.21905,-2.438095 -2.53968,-4.876191 -3.9619,-7.314286 -1.42222,-2.438095 -3.04761,-4.87619 -4.87618,-7.314285 -1.42223,0 -3.20001,0.05079 -5.33334,0.15238 l -6.4,0.304762 -5.79047,0.304762 -2.89524,0.152381 C 186.51429,75.987304 186.00635,75.377781 185.6,74.361908 l -0.60953,-1.219049 20.72382,-0.609523 C 199.82222,65.219051 193.06667,58.717464 185.44762,53.028575 177.82857,47.339686 169.65079,42.768257 160.91429,39.314289 l -2.4381,0.304762 c 2.64127,2.641269 5.28254,5.688888 7.92381,9.142857 2.23492,2.844445 4.7746,6.196826 7.61904,10.057143 2.84445,3.860317 5.48572,8.025396 7.92382,12.495237 -0.8127,-0.812698 -1.82857,-1.726984 -3.04762,-2.742857 -1.21905,-1.015873 -2.13333,-1.726984 -2.74286,-2.133333 -2.23492,-3.657143 -4.46984,-7.111111 -6.70476,-10.361904 -2.23492,-3.250794 -4.36825,-6.095238 -6.4,-8.533333 -2.23492,-2.844445 -4.57143,-5.485715 -7.00952,-7.92381 h -2.13334 c 3.2508,3.860317 6.09525,7.415872 8.53334,10.666667 2.23491,2.844444 4.31745,5.638094 6.24761,8.380951 1.93017,2.742857 3.09842,4.622223 3.50476,5.638096 -1.82857,-1.015873 -3.50475,-1.777778 -5.02856,-2.285714 -1.52381,-0.507937 -2.48889,-0.863492 -2.89524,-1.066667 -1.21905,-2.438095 -2.53968,-4.774603 -3.96191,-7.009523 -1.42222,-2.234921 -2.79365,-4.266668 -4.11428,-6.095239 -1.32063,-1.828571 -2.4381,-3.301587 -3.35239,-4.419047 l -1.37142,-1.676191 c -0.40635,-0.203175 -1.06667,-0.253968 -1.98096,-0.152381 -0.91428,0.101587 -1.5746,0.152381 -1.98095,0.152381 -0.20317,-0.203175 -0.45714,-0.355556 -0.76191,-0.457143 -0.30476,-0.101587 -0.66031,-0.253968 -1.06666,-0.457143 -0.40635,-0.203175 -0.8127,-0.304762 -1.21905,-0.304762 1.01588,1.015873 2.23493,2.438096 3.65715,4.266667 1.01587,1.625397 2.33651,3.657143 3.9619,6.095238 1.6254,2.438095 3.45397,5.485714 5.48571,9.142857 -1.21905,-0.203175 -2.94603,-0.253968 -5.18094,-0.15238 -2.23493,0.101587 -3.55557,0.355555 -3.96192,0.761904 -0.81269,-3.047619 -2.38729,-6.603174 -4.7238,-10.666667 -2.33651,-4.063491 -4.41905,-7.415872 -6.24762,-10.057143 z m -69.456761,5.907407 c 7.314283,-1.422223 15.717074,-2.808994 23.437711,-3.926454 7.72064,-1.11746 14.83175,-2.08254 21.33333,-2.895239 7.51747,-0.812698 14.93334,-1.625396 22.24763,-2.438094 1.42222,-0.203174 3.04761,-0.406349 4.87618,-0.609524 1.6254,-0.203175 3.30159,-0.304762 5.02857,-0.304762 1.72699,0 3.60635,-0.101587 5.6381,-0.304761 -7.31428,-2.234921 -14.88253,-3.555557 -22.70476,-3.961906 -7.82222,-0.406349 -15.69524,-0.101587 -23.61905,0.914286 -6.095238,1.015873 -12.08889,2.488889 -17.980956,4.419047 -5.892059,1.930159 -12.349347,4.684957 -17.835064,7.529402 -0.267269,0.795994 -0.302039,1.021317 -0.421691,1.578005 z M 63.695237,184.38096 c -0.406349,-2.23493 -1.015873,-4.77461 -1.828571,-7.61906 -0.812699,-2.84444 -1.422223,-4.7746 -1.828572,-5.79047 0.816458,-0.51483 1.52245,-0.60953 2.438095,-0.60953 l -1.219047,-4.87619 c -0.406349,-1.21905 -0.711111,-2.48889 -0.914286,-3.80952 -0.203175,-1.32063 -0.304762,-2.3873 -0.304762,-3.2 -0.812699,0 -1.52381,0.0508 -2.133334,0.15239 -0.609523,0.10159 -1.219047,0.15238 -1.828571,0.15238 0.812699,4.67301 1.879365,9.09205 3.2,13.25713 1.320635,4.16508 2.793651,8.27937 4.419048,12.34287 z m -0.304762,-26.20953 c 0.812699,6.70476 1.879365,12.8 3.2,18.28571 1.320635,5.48571 2.184126,9.04127 2.590475,10.66667 15.034919,-1.6254 33.06667,-3.96191 54.09524,-7.00952 21.02857,-3.04762 45.25714,-7.2127 72.68571,-12.49525 0.60953,-5.28253 0.8635,-10.61586 0.76191,-15.99999 -0.10159,-5.38413 -0.35556,-9.39682 -0.76191,-12.03809 -17.06667,2.64127 -32.96508,5.02857 -47.69524,7.1619 -14.73015,2.13333 -28.49523,4.0127 -41.29523,5.6381 0.20317,2.23491 0.40635,4.92698 0.60953,8.07619 0.20317,3.14921 0.7111,6.45079 1.5238,9.90475 2.64127,-0.20317 5.84127,-0.55873 9.6,-1.06666 3.75873,-0.50794 7.61905,-1.06667 11.58095,-1.6762 3.96191,-0.60952 7.82222,-1.26984 11.58095,-1.98095 3.75873,-0.71111 7.16191,-1.37142 10.20953,-1.98095 0.28712,1.53728 0.35418,3.2278 0,5.18096 -5.68889,1.21905 -11.37777,2.23492 -17.06666,3.04761 -4.87619,0.81271 -10.26032,1.62541 -16.15239,2.4381 -5.89207,0.8127 -11.47937,1.42222 -16.7619,1.82857 -1.2518,-4.4567 -1.63842,-9.82638 -2.13334,-14.01905 -0.406344,-3.45397 -0.711106,-6.19682 -0.914286,-8.22857 -6.501582,0.60952 -12.749199,1.26984 -18.742851,1.98096 -5.993652,0.71111 -11.631748,1.47301 -16.914288,2.28571 z m 8.507366,31.34322 c -2.21143,0.004 -3.985359,0.34805 -6.069271,0.35202 2.844444,6.09524 5.790477,11.88572 8.838099,17.37143 3.047619,5.48571 5.993649,10.46349 8.838088,14.93333 h 1.523813 c -2.234923,-3.04762 -4.114288,-6.34921 -5.638093,-9.90477 -1.523813,-3.55555 -2.844451,-6.85714 -3.961912,-9.90476 -1.117454,-3.04762 -1.93015,-5.73968 -2.438088,-8.07618 -0.507938,-2.33651 -1.092636,-3.95836 -1.092636,-4.77107 z m 4.29263,-0.56227 c 0.20318,1.01587 0.711118,2.79365 1.523814,5.33334 0.812695,2.53968 1.777774,5.38412 2.895236,8.53333 1.117461,3.14921 2.438095,6.45079 3.961901,9.90476 1.523813,3.45397 3.301592,6.60317 5.333335,9.44762 2.031751,0 3.453975,-0.10159 4.26667,-0.30476 -2.031743,-3.04762 -3.911108,-6.34921 -5.638093,-9.90476 -1.726985,-3.55556 -3.200002,-6.90794 -4.419049,-10.05715 -1.219048,-3.1492 -2.184127,-5.94285 -2.895237,-8.38095 -0.711109,-2.43809 -1.168254,-4.16508 -1.371434,-5.18095 -1.290491,0.0762 -2.370204,0.1788 -3.657143,0.60952 z m 7.619055,-1.21905 c 0.406345,1.21905 1.015869,3.14921 1.828572,5.79048 0.812696,2.64127 1.828568,5.5873 3.047615,8.83809 1.219048,3.2508 2.692065,6.60318 4.41905,10.05714 1.726985,3.45397 3.707936,6.50159 5.942851,9.14286 6.907946,-0.40635 13.815886,-0.91428 20.723816,-1.5238 6.90793,-0.60953 13.61269,-1.42223 20.11428,-2.4381 10.36191,-1.6254 20.26667,-3.55556 29.71428,-5.79047 9.44763,-2.23493 17.93017,-4.46985 25.44763,-6.70477 0.8127,-1.62539 1.77778,-4.01269 2.89523,-7.1619 1.11746,-3.14921 2.3873,-6.75556 3.80953,-10.81905 -1.01587,0.20317 -2.48889,0.55873 -4.41904,1.06667 -1.93016,0.50793 -4.0127,0.96507 -6.24763,1.37142 -2.23492,0.40635 -4.46984,0.8635 -6.70475,1.37144 -2.23493,0.50793 -4.0635,0.86349 -5.48572,1.06666 0.54687,-1.41141 0.91429,-2.23559 0.91429,-3.65714 3.45396,-0.40635 6.70475,-1.01588 9.75237,-1.82857 2.64127,-0.40635 5.23175,-0.91429 7.77144,-1.52382 2.53968,-0.60952 4.41904,-1.11745 5.63809,-1.5238 0.81269,-2.84445 1.37142,-5.5873 1.67619,-8.22857 0.30476,-2.64127 0.55873,-5.18095 0.7619,-7.61906 -24.99047,5.28255 -47.64444,9.54921 -67.9619,12.8 -20.31746,3.2508 -38.196825,5.6889 -53.638094,7.31429 z M 220.64762,135.61906 c -7.20435,1.20904 -13.82594,2.24216 -21.02858,3.35237 0.40635,6.09524 0.55874,11.63175 0.45715,16.60952 -0.10159,4.97778 -0.25397,8.58413 -0.45715,10.81905 3.25079,-0.60953 6.50159,-1.26984 9.75239,-1.98095 3.25079,-0.71111 6.60317,-1.47302 10.05714,-2.28571 1.20033,-9.27568 2.30988,-17.24633 1.21905,-26.51428 z M 201.75238,92.952384 c 0.8127,1.422222 1.5746,3.301587 2.28571,5.638094 0.71111,2.336512 1.37143,4.774602 1.98095,7.314282 0.60953,2.53969 1.16826,5.02858 1.6762,7.46667 0.50793,2.43809 0.96507,4.36825 1.37142,5.79048 l 5.18096,-0.91428 c -0.40635,-2.03175 -0.96509,-4.26668 -1.6762,-6.70477 l -2.13333,-7.31429 -2.28572,-6.552378 c -1.52381,-4.368253 -1.53484,-4.25453 -1.8732,-5.090116 z m 7.61905,73.752386 c -0.40635,1.21905 -0.8635,3.1492 -1.37144,5.79047 -0.50793,2.64127 -1.16825,5.73968 -1.98095,9.29524 -0.81269,3.55555 -1.77777,7.31428 -2.89523,11.27618 -1.11746,3.96191 -2.48889,7.77144 -4.11428,11.42858 2.03174,-0.60952 3.86031,-1.16825 5.4857,-1.67619 1.6254,-0.50794 3.14921,-0.96508 4.57143,-1.37143 4.06349,-5.89206 7.46667,-12.03809 10.20953,-18.4381 2.74285,-6.39999 4.92698,-13.05396 6.55238,-19.96189 -2.84445,0.60952 -5.6381,1.26984 -8.38095,1.98095 -2.74286,0.71111 -5.43492,1.26984 -8.07619,1.67619 z m 14.93333,-5.48573 c 1.12596,-0.32425 1.14397,-0.30822 1.92072,-0.56226 1.6254,-8.93969 2.34595,-17.92662 1.73642,-26.8663 -1.0745,0.3121 -1.95559,0.33684 -3.04761,0.60952 0.72947,9.01285 0.54613,18.27633 -0.60953,26.81904 z m 1.82857,-44.79998 c -1.82857,-8.93969 -4.57143,-16.965087 -8.22857,-24.076201 h -3.9619 l -4.11781,0.0449 c 2.23492,6.501585 4.37177,12.196371 5.48923,16.564621 1.11746,4.36826 1.87937,7.36509 2.28572,8.99048 z M 73.752384,88.685717 c -1.726666,0.332598 -2.314566,0.395351 -3.657148,0.678049 -0.565666,5.8667 -0.925521,11.649404 -0.890662,17.302904 1.320737,-0.21428 2.441737,-0.32264 3.657148,-0.51737 -0.100606,-6.302852 0.338083,-11.289577 0.890662,-17.463583 z m -7.009528,1.219048 c -3.727174,0.663767 -6.718229,1.114407 -10.666667,1.828571 -0.844798,5.821531 -1.766053,11.590384 -2.485342,16.948544 4.996921,-0.69535 8.260517,-1.02223 12.566109,-1.64193 0.237627,-6.02248 0.18667,-11.346357 0.5859,-17.135185 z m 61.561904,10.971425 c -7.92381,1.01587 -16.0508,2.13333 -24.38095,3.35238 -7.111112,1.01587 -15.136511,2.18413 -24.076196,3.50477 -8.939681,1.32063 -17.879362,2.48889 -26.819044,3.50476 -0.406349,4.87619 -0.609524,9.70158 -0.609524,14.47619 0,4.77461 0.203175,9.6 0.609524,14.47619 l 79.84762,-10.66667 c -0.40635,-1.6254 -0.91428,-3.96191 -1.52381,-7.00952 -0.60952,-3.04762 -1.11746,-6.19683 -1.52381,-9.44762 -0.60952,-3.65714 -1.11746,-7.72063 -1.52381,-12.19048 z M 85.02857,225.21904 c 1.828571,2.84445 3.657143,5.43493 5.485715,7.77144 1.828571,2.33651 3.555557,4.62222 5.180956,6.85714 10.158729,2.84445 20.825389,4.26667 31.999999,4.26667 5.68889,0 11.07301,-0.35556 16.15238,-1.06667 5.07937,-0.71111 10.15873,-1.67619 15.23809,-2.89524 9.54921,-3.45397 18.38731,-8.27936 26.51429,-14.47619 8.12698,-6.19682 15.23809,-13.25714 21.33333,-21.18095 -6.29841,1.82857 -15.1873,4.31746 -26.66667,7.46667 -11.47936,3.1492 -24.93968,5.94285 -40.38095,8.38095 -9.54921,1.21905 -18.99682,2.23492 -28.34285,3.04761 -9.34603,0.81271 -18.184129,1.42223 -26.51429,1.82857 z m 120.38095,-10.3619 c 11.78413,-10.76825 21.18095,-23.56825 28.19047,-38.4 7.00953,-14.83174 10.5143,-30.88253 10.5143,-48.15237 0,-16.0508 -3.04762,-31.18731 -9.14286,-45.409529 -6.09524,-14.222222 -14.3746,-26.565079 -24.83809,-37.028572 -10.46349,-10.463491 -22.80635,-18.742856 -37.02858,-24.838094 -14.22222,-6.095238 -29.35873,-9.142857 -45.40952,-9.142857 -12.8,0 -25.09207,1.980952 -36.876197,5.942857 C 79.034918,21.79048 68.317459,27.326988 58.666666,34.438099 49.015872,41.54921 40.63492,50.031749 33.523809,59.885718 26.412698,69.739685 20.926983,80.558732 17.066666,92.342859 c 2.998824,-6.07449 5.944676,-11.53821 9.752381,-16.761904 6.440487,-8.83554 14.024915,-16.789918 21.942856,-24.380952 7.247843,-5.744712 15.483756,-11.8698 23.466667,-14.933332 5.164853,-2.14048 9.995158,-3.94731 14.93333,-5.485715 5.706259,-2.027451 10.963939,-2.580214 16.45714,-3.657143 14.83175,-2.234921 29.30795,-1.625397 43.42858,1.828572 14.12063,3.453967 26.97143,9.19365 38.55238,17.219047 11.58095,8.025396 21.43492,18.031745 29.5619,30.019047 8.12698,11.987301 13.71428,25.396831 16.7619,40.228581 l -4.57143,6.09523 v 0.60952 c 0,1.01588 0.20318,2.33651 0.60953,3.9619 l 5.79047,4.26667 c 1.01588,15.84762 -0.96507,30.93333 -5.94285,45.25714 -4.97777,14.32381 -12.44444,27.07302 -22.4,38.24762 z"
       id="path98"
       style="display:inline;stroke-width:0.304761"
       inkscape:label="Superweapon"
       sodipodi:nodetypes="cssscssscssscsssccssscscccscscssscscccsccssssssscssssssssssssssssscssscscsccscsccssscsccccscscccscscsccccccscccscscsccccscscssscscssccscscsccscccscscscccscccscscsccscscscscscssscccscccscccsccsssccsssccssscccssscscscscssscccscscscccscscccsssccscscccssscscscsccccccccccsccccccccccccccscsccscccscsscscscsccssssssssscaccccsssccsccsc" />
  </g>
</svg>
