<?xml version="1.0" encoding="UTF-8" standalone="no"?>
<svg
   xmlns:dc="http://purl.org/dc/elements/1.1/"
   xmlns:cc="http://creativecommons.org/ns#"
   xmlns:rdf="http://www.w3.org/1999/02/22-rdf-syntax-ns#"
   xmlns:svg="http://www.w3.org/2000/svg"
   xmlns="http://www.w3.org/2000/svg"
   xmlns:sodipodi="http://sodipodi.sourceforge.net/DTD/sodipodi-0.dtd"
   xmlns:inkscape="http://www.inkscape.org/namespaces/inkscape"
   width="210mm"
   height="297mm"
   viewBox="0 0 210 297"
   version="1.1"
   id="svg8577"
   inkscape:version="1.0.2-2 (e86c870879, 2021-01-15)"
   sodipodi:docname="upgrade-offensive-retrofit.svg">
  <defs
     id="defs8571" />
  <sodipodi:namedview
     id="base"
     pagecolor="#ffffff"
     bordercolor="#666666"
     borderopacity="1.0"
     inkscape:pageopacity="0.0"
     inkscape:pageshadow="2"
     inkscape:zoom="0.35"
     inkscape:cx="400"
     inkscape:cy="560"
     inkscape:document-units="mm"
     inkscape:current-layer="layer1"
     inkscape:document-rotation="0"
     showgrid="false"
     inkscape:pagecheckerboard="true"
     showborder="false"
     inkscape:window-width="1267"
     inkscape:window-height="1198"
     inkscape:window-x="260"
     inkscape:window-y="163"
     inkscape:window-maximized="0" />
  <metadata
     id="metadata8574">
    <rdf:RDF>
      <cc:Work
         rdf:about="">
        <dc:format>image/svg+xml</dc:format>
        <dc:type
           rdf:resource="http://purl.org/dc/dcmitype/StillImage" />
        <dc:title></dc:title>
      </cc:Work>
    </rdf:RDF>
  </metadata>
  <g
     inkscape:label="Layer 1"
     inkscape:groupmode="layer"
     id="layer1">
    <path
       d="m 127.99999,0 q 26.52531,0 49.81205,10.024096 23.28675,10.024097 40.55904,27.450602 17.27229,17.426506 27.45061,40.559037 Q 256,101.16626 256,127.69155 q 0,26.21688 -10.17831,49.65784 -10.17832,23.44096 -27.45061,40.71325 -17.27229,17.27229 -40.55904,27.45061 -23.28674,10.17831 -49.81205,10.17831 -26.21686,0 -49.503606,-10.17831 Q 55.209637,235.33493 37.783132,218.06264 20.356626,200.79035 10.178313,177.34939 0,153.90843 0,127.69155 0,101.16626 10.178313,78.033735 20.356626,54.901204 37.783132,37.474698 55.209637,20.048193 78.496384,10.024096 101.78313,0 127.99999,0 Z m 0,12.028915 q -4.93493,0 -10.17831,0.616868 -5.24337,0.616867 -10.17831,1.233735 4.62651,3.701205 8.01928,8.636144 3.39277,4.93494 4.93493,10.486746 8.63616,-2.775903 18.50603,-5.86024 9.86988,-3.084337 20.35662,-5.551807 1.23375,0 1.85061,-0.308434 -1.54216,-1.850602 -3.39277,-3.238554 -1.8506,-1.387952 -4.00964,-2.930121 -12.02892,-3.084337 -25.90844,-3.084337 z m -6.4771,28.375903 q 0.61687,10.795181 -4.62651,19.122892 -0.30843,0.616866 -0.61686,1.387951 -0.30844,0.771084 -0.61687,1.387952 7.40241,0 16.65542,0.616867 9.25301,0.616868 19.43133,1.850602 4.93493,0.308435 9.86988,1.079519 4.93493,0.771084 10.17831,1.387951 2.77591,-9.253011 1.69638,-18.660239 -1.07952,-9.40723 -5.70602,-17.73494 -1.85061,0.616867 -3.54699,0.925301 -1.69638,0.308433 -3.54698,0.925301 -10.17832,2.46747 -20.20241,4.318073 -10.0241,1.850602 -18.96868,3.39277 z M 12.337349,127.69155 q 0,7.09398 0.925301,14.03375 0.925301,6.93975 2.46747,13.10843 2.775904,1.8506 5.243374,3.39276 0.308433,-1.54216 0.308433,-2.62168 0,-1.07952 0.616868,-2.62168 1.542168,-7.40241 2.93012,-14.18796 1.387952,-6.78554 3.238554,-13.26265 -4.318071,-1.23373 -8.019276,-2.93012 -3.701205,-1.69639 -7.40241,-4.47229 0,2.46747 -0.154217,4.78072 -0.154217,2.31326 -0.154217,4.78072 z m 226.698791,-5.5518 q 0,0.61687 1.23374,0.9253 1.23373,0.30844 3.39276,1.8506 -0.30843,-15.73012 -4.78072,-30.226494 -4.47229,-14.496389 -12.33734,-27.296386 -7.86507,-12.8 -18.66024,-23.286747 -10.79519,-10.486747 -24.05783,-17.580722 -1.85061,0.616867 -3.54699,1.079517 -1.69639,0.462651 -3.54699,0.771084 5.5518,9.253012 7.40241,19.585543 1.8506,10.33253 -0.9253,21.12771 5.86023,0.925301 11.25782,1.850602 5.3976,0.925299 9.0988,1.54217 4.31808,0.925302 8.01928,1.233731 h -8.32771 q -3.7012,0 -9.09879,-0.154214 -5.3976,-0.154215 -11.87471,-0.771087 -0.30843,0.616872 -0.61687,1.696388 -0.30843,1.079516 -0.61686,2.004817 -2.7759,7.09398 -7.24819,12.645787 -4.47229,5.551807 -9.71567,9.869883 l -9.56144,-6.168678 q 9.56144,-7.09398 15.42169,-20.356627 v -0.616871 q -10.17831,-0.308431 -19.73977,-1.8506 -10.17831,-0.925301 -19.58554,-2.159036 -9.40722,-1.233735 -16.80963,-3.084338 -3.39277,4.318073 -8.01928,7.710845 -4.62651,3.392775 -12.337351,4.934936 9.253011,-4.009634 15.113251,-13.571082 -2.46747,-0.616867 -4.78072,-1.079517 l -3.855423,-0.771085 q -1.850602,-0.308434 -3.084336,-0.616867 h 3.392769 q 1.54217,0 4.16386,0.154216 2.62168,0.154217 5.70602,0.462651 4.93494,-10.79518 4.00964,-20.66506 -5.55181,0.925301 -10.33253,1.387952 -4.780724,0.46265 -8.173494,1.079518 -3.701205,0.616868 -7.093976,0.616868 3.084337,-1.233736 7.093976,-2.46747 3.39277,-1.233735 7.710844,-2.930121 4.31807,-1.696385 9.56144,-3.546987 Q 109.80241,23.440963 99.624094,15.73012 82.968673,20.048193 68.472288,28.838553 53.975902,37.628914 42.718072,49.966264 31.46024,62.303613 24.057831,77.725305 q -7.40241,15.421678 -10.178313,32.693975 7.710843,6.16866 16.038553,7.71083 1.542169,-4.93493 2.775904,-8.94458 1.233736,-4.00963 2.159037,-7.40239 1.233734,-3.392779 2.159036,-6.168683 v 6.477113 q 0,3.08433 -0.308434,7.24819 -0.308434,4.16385 -0.616868,9.71565 6.785542,0 13.26265,-2.15903 v -12.95421 q 0.308435,1.23373 0.616868,3.39276 0.308434,1.54217 0.462651,3.85543 0.154217,2.31325 0.771084,4.78072 3.701205,-1.54217 6.168675,-3.39277 5.551807,-3.70121 9.253012,-8.94457 3.701204,-5.243379 5.551807,-11.103616 -0.616868,8.327706 -4.780723,15.421676 -4.163856,7.09398 -11.257832,12.33734 -1.233734,1.23375 -3.701203,1.85061 1.233734,7.40241 2.621686,15.5759 1.387952,8.1735 2.004818,17.11808 0.308435,1.54216 0.308435,3.54699 0,2.00482 0.616867,4.16385 19.122891,-5.86024 29.301204,-23.44096 l 6.168674,4.6265 q -4.318071,11.10362 -13.571083,19.27711 -9.253012,8.17349 -20.973494,11.25783 0.616868,8.01927 0.616868,14.49638 0,6.47711 0.308433,11.72049 0,5.5518 0.308434,10.79518 -0.616867,-4.6265 -1.850602,-10.48675 -0.925301,-4.93494 -2.00482,-11.56626 -1.079518,-6.63133 -2.004819,-14.03374 -4.318072,0.92531 -9.253011,0.92531 -8.327711,0 -16.038555,-2.77591 -0.308433,2.46746 -0.925301,4.93494 -0.616867,2.46747 -1.542168,4.93493 7.710843,13.26266 18.351807,24.36628 10.640963,11.10361 23.749396,18.96867 13.108434,7.86506 28.067469,12.33735 14.959037,4.47228 31.306017,4.47228 7.09398,0 15.11326,-0.9253 4.00964,-7.09397 8.63615,-10.79517 -0.61688,0.30843 -1.69639,0.30843 h -2.00482 -0.61687 -0.30843 -0.61687 -0.30843 l -0.30843,-0.30843 h -0.30844 -0.61686 l -0.61687,-0.61687 h -0.30843 v -0.30843 h -0.61688 l -0.30843,-0.61687 h -0.30844 q -0.30843,0 -0.30843,-0.30843 -0.30843,0 -0.30843,-0.30845 v -0.30843 -0.30843 h -0.61687 v -0.61687 q -0.30843,0 -0.30843,-0.30843 v -0.61687 h -0.30844 q -0.30843,0 -0.30843,-0.30843 0,-0.61687 -0.30843,-0.61687 v -0.30843 -0.61687 -0.30843 l -0.61687,-0.61687 v -0.30843 -0.9253 q 0,-5.55181 1.69639,-7.55663 1.69638,-2.00483 4.16385,-2.62169 l 5.24337,-1.23374 0.92531,-13.26265 q -0.61688,-1.54217 -2.77591,-5.39759 -2.15903,-3.85542 -4.00963,-10.0241 -1.54218,-3.08433 -1.54218,-5.5518 l -8.32771,-6.16867 v -1.54217 l -33.61927,-23.13253 -0.9253,-2.15903 -11.412052,-8.32772 -0.616868,-1.8506 -17.889156,-13.57109 -1.850603,-1.8506 q 0,-0.9253 0.925302,-2.15903 v -0.9253 q 0.616867,0 0.616867,-0.61687 h 0.308434 v -0.30843 h 0.616868 v -0.61687 h 0.308433 0.616868 l 2.159036,0.9253 18.814457,12.95421 h 1.233734 l 10.79518,7.09398 h 2.46747 l 34.54458,21.59036 1.85061,-0.30843 2.15903,1.23373 q 0.30843,-0.61687 0.61687,-1.8506 0.30843,-1.23373 0.61686,-1.8506 0.61687,-1.54218 1.69639,-2.46748 1.07951,-0.9253 2.00481,-2.15903 l -3.7012,-2.15903 v -1.8506 l -33.61927,-22.8241 -0.61687,-2.46748 -11.72048,-8.63613 -0.61687,-1.85061 -17.889157,-13.262642 -1.233735,-1.850602 q 0,-1.233731 0.308433,-2.159032 l 0.616868,-0.616872 q 0,-0.308429 0.308434,-0.308429 v -0.925302 h 0.616868 V 90.37108 h 0.308433 0.616868 l 2.159035,1.233743 13.879523,8.636137 h 0.30843 0.61687 l 2.15903,0.9253 14.18795,9.56145 h 2.7759 l 15.4217,10.1783 h 1.54217 l 18.19758,11.72049 h 0.61687 l 11.41205,6.47711 q 1.54217,-1.23374 2.7759,-1.23374 l 1.23374,-0.61686 1.23373,-0.92531 5.24338,-0.9253 3.7012,-1.23374 -4.31807,-2.7759 v -1.8506 l -33.61927,-22.82409 -0.61688,-2.7759 -11.72048,-8.327713 -0.61686,-1.850602 -17.88916,-13.262647 -1.23374,-1.850602 q -0.30843,-0.308442 0.30844,-2.467474 v -0.30843 l 0.61686,-0.308441 v -0.30843 h 0.30844 V 74.64096 h 0.61687 v -0.30843 h 0.30843 0.61687 l 2.15903,0.925301 18.81447,12.337345 1.8506,0.308442 10.79517,6.785538 h 1.8506 l 35.16145,21.590354 h 1.54217 l 15.42169,8.63614 3.70121,-1.23373 q 0,-0.61687 1.54216,-1.54217 h 0.30844 0.61686 0.30844 0.61686 l 3.08434,-1.23374 q 0.30843,0 0.92531,-0.30843 l 1.23373,-0.61687 h 0.61687 0.30843 0.61687 0.30843 2.46747 q 1.8506,0 2.15903,0.30843 1.54218,0.61687 3.70121,2.15905 2.15903,1.54216 3.08433,2.46746 l 0.9253,-0.30843 h 1.85061 l 7.71085,-2.46747 z m -207.5759,40.40482 q 3.084337,0.61687 6.477109,1.23373 3.392771,0.61687 6.785541,0.61687 1.54217,0 3.546989,-0.30843 2.004819,-0.30844 4.163856,-0.61687 l -0.616868,-4.31808 q 0,0 -0.308434,-4.31806 -0.616868,-8.63615 -1.233735,-16.65542 -0.616867,-8.01928 -0.925302,-14.49639 -6.785541,2.7759 -13.879517,2.7759 -0.308434,6.78554 -0.925302,14.18795 -0.616866,7.40241 -2.159035,14.49639 0,1.8506 -0.308434,3.7012 z"
       id="path58"
       style="display:inline;stroke-width:0.308433"
       inkscape:label="Offensive Retrofit" />
  </g>
</svg>
