<?xml version="1.0" encoding="UTF-8" standalone="no"?>
<svg
   xmlns:dc="http://purl.org/dc/elements/1.1/"
   xmlns:cc="http://creativecommons.org/ns#"
   xmlns:rdf="http://www.w3.org/1999/02/22-rdf-syntax-ns#"
   xmlns:svg="http://www.w3.org/2000/svg"
   xmlns="http://www.w3.org/2000/svg"
   xmlns:sodipodi="http://sodipodi.sourceforge.net/DTD/sodipodi-0.dtd"
   xmlns:inkscape="http://www.inkscape.org/namespaces/inkscape"
   width="210mm"
   height="297mm"
   viewBox="0 0 210 297"
   version="1.1"
   id="svg918"
   inkscape:version="1.0.2-2 (e86c870879, 2021-01-15)"
   sodipodi:docname="upgrade-title.svg">
  <defs
     id="defs912" />
  <sodipodi:namedview
     id="base"
     pagecolor="#ffffff"
     bordercolor="#666666"
     borderopacity="1.0"
     inkscape:pageopacity="0.0"
     inkscape:pageshadow="2"
     inkscape:zoom="0.98994949"
     inkscape:cx="232.62649"
     inkscape:cy="343.85749"
     inkscape:document-units="mm"
     inkscape:current-layer="layer1"
     inkscape:document-rotation="0"
     showgrid="false"
     inkscape:pagecheckerboard="true"
     showborder="false"
     inkscape:window-width="2046"
     inkscape:window-height="2054"
     inkscape:window-x="-10"
     inkscape:window-y="0"
     inkscape:window-maximized="0" />
  <metadata
     id="metadata915">
    <rdf:RDF>
      <cc:Work
         rdf:about="">
        <dc:format>image/svg+xml</dc:format>
        <dc:type
           rdf:resource="http://purl.org/dc/dcmitype/StillImage" />
        <dc:title />
      </cc:Work>
    </rdf:RDF>
  </metadata>
  <g
     inkscape:label="Layer 1"
     inkscape:groupmode="layer"
     id="layer1">
    <path
       d="m 49.100121,69.172502 -0.926417,-1.235231 c 1.090181,-2.29843 2.010178,-4.214059 3.028994,-6.522054 2.120471,-0.77944 4.358774,-1.240646 6.543981,-1.815702 v 5.558504 l -5.249698,-0.617604 c -1.258754,1.514157 -2.526682,3.328702 -3.39686,4.632087 z M 154.71169,107.15561 h 6.48492 l -12.04342,12.96985 h -13.58745 v -12.35224 h 2.16164 v 6.48492 h 10.49939 z M 54.967426,88.936069 53.114592,86.156817 h 4.632087 c 1.628257,-2.197577 3.047731,-4.430612 4.632086,-6.793724 L 167.68153,72.878171 c 2.27085,2.668556 4.62732,5.244923 7.10254,7.720141 1.94192,0.01643 3.41207,-0.01672 5.42488,-0.04151 l -2.02801,2.511982 z m 4.940894,-23.77805 v -5.867306 c 4.098786,-0.811495 8.278182,-1.711369 12.026721,-2.186922 l 0.0167,8.054228 z m 107.77321,67.319671 h 9.88179 l -2.77925,5.8673 h -11.73462 l 8.02895,-31.49819 c 2.43677,-0.0153 4.56879,0.0328 6.32691,0.0578 -0.32961,2.74286 -0.50554,5.51996 -0.7684,8.27997 h -2.77926 v -2.47044 h -0.3088 z M 29.645356,73.419932 c 0.1749,-3.160811 0.91531,-4.502798 3.70567,-4.556244 2.118006,-0.04057 3.40783,2.038451 3.479932,3.860071 0.145199,3.668386 -1.091991,4.31885 -3.597319,4.509301 -2.685174,0.204123 -3.71726,-1.48225 -3.588283,-3.813128 z m 167.681534,32.809268 8.64657,-0.30882 v 6.48493 h -1.85283 l -0.92642,25.93968 h -3.08807 l 0.92642,-25.93968 h -1.85283 l -7.72015,25.93968 h -3.70566 l -7.41134,-31.49819 4.01447,-0.6176 5.5585,24.70445 z m -16.13284,-51.128137 -7.26958,1.060052 -0.0668,-5.208159 c 3.56121,0.09031 5.63203,0.119832 8.93176,0.167061 1.31364,2.074141 2.92311,4.622979 4.34689,6.626663 l -1.23522,1.852835 c -1.86345,-1.70163 -3.3501,-3.063846 -4.70703,-4.498452 z m 20.71768,7.495416 c -0.0213,-4.267333 2.08451,-6.3748 5.91457,-6.702634 3.50655,-0.300143 6.73464,3.694397 6.20144,6.932072 -0.65557,3.980671 -2.73502,5.29061 -6.41577,5.259903 -3.5409,-0.02954 -5.68638,-2.711675 -5.70024,-5.489341 z m -52.75854,63.087481 11.42582,12.66103 h -6.17612 l -6.17612,-6.48492 h -10.49939 v 6.17612 h -2.77926 v -12.04343 z m 6.48492,-66.777002 v -7.954002 h 14.82268 v 5.867306 c -4.88554,0.666767 -10.17789,1.408608 -14.82268,2.086696 z m -50.33534,4.70704 v -9.88179 c 4.91495,-0.385514 9.09349,-0.716493 13.27864,-0.926417 l 0.0501,9.97388 c -4.54805,0.334093 -9.18138,0.682101 -13.32874,0.834327 z m -31.106312,1.477204 -0.08307,-8.27094 c 5.259845,-0.630653 8.771273,-1.065754 12.76984,-1.552602 l 0.200003,9.272755 c -4.327739,0.417388 -8.515892,0.500674 -12.886771,0.550787 z M 89.395209,64.456893 89.194757,55.16788 c 4.704067,-0.564064 8.603574,-0.886517 13.019953,-1.435672 l 0.0501,10.048376 c -4.397695,0.268002 -8.924061,0.417103 -12.869611,0.676309 z m 31.932051,-1.877674 0.0334,-10.090366 c 4.65867,-0.262543 9.95196,-0.984512 13.58745,-1.227095 v 10.382919 c -4.86006,0.445865 -9.00037,0.674862 -13.62086,0.934542 z m 17.01773,-1.744474 v -9.572987 c 4.91743,-0.01683 10.02538,-0.297891 14.20506,-0.308802 v 8.337757 c -4.84939,0.372537 -9.8867,1.091639 -14.20506,1.544032 z M 44.776836,86.156817 v -5.867306 l 10.499397,-0.617616 4.632087,-7.720141 111.17008,-6.793735 6.48492,7.411339 14.20507,-0.926417 v 7.102537 l -10.8082,12.043426 -127.845598,4.940888 z m 2.470451,-3.088054 v 1.235219 l 6.793722,8.646558 125.375151,-5.867306 9.26417,-9.572976 V 75.34861 c -4.11776,0.06783 -8.23357,0.308814 -12.35223,0.308814 -2.26457,-2.264586 -4.52915,-4.529159 -6.79373,-6.793736 L 60.834737,75.34861 c -1.548584,2.364523 -3.064206,4.750715 -4.632087,7.102537 -2.989197,0.0602 -5.97401,0.388279 -8.955363,0.617616 z m 57.129063,117.963807 -0.0236,8.12515 c -3.96268,-0.49218 -7.947638,-0.89625 -11.4356,-1.40637 l 0.03341,-7.02759 c 4.096504,0.16067 7.75851,0.31992 11.42579,0.30881 z m 15.5992,0.89301 -0.15891,8.37117 c -4.28413,-0.40338 -8.32827,-0.7394 -12.71973,-1.00994 l 0.0587,-8.02083 c 4.04646,0.29637 9.27189,0.54989 12.81994,0.6596 z m 31.03047,2.81266 v 6.79373 c -4.40432,-0.006 -9.03608,-0.13395 -13.27864,-0.30881 l 0.0501,-7.81224 c 4.49923,0.45949 9.11939,0.89159 13.22853,1.32732 z m -15.99108,-1.71966 -0.0668,8.20458 c -4.65116,-0.39378 -7.59443,-0.61118 -12.66104,-0.92641 v -8.10436 c 4.79073,0.3593 8.77842,0.60295 12.72786,0.82619 z m -72.327368,-2.91242 v 3.70566 c -1.859544,-0.21872 -3.466404,-0.64293 -5.558504,-0.92641 -1.258825,-1.77605 -2.295755,-3.29599 -3.70567,-4.9409 l 0.926418,-0.92642 c 1.120953,0.97152 2.052134,2.15581 3.184251,3.11169 1.984053,0.0269 3.288691,0.0396 5.153505,-0.0236 z m 13.746371,0 0.09978,5.80907 c -4.227726,-0.36727 -7.447046,-1.05891 -11.442518,-1.70296 l 0.06682,-4.10611 z m 13.737344,0.53408 v 6.87725 c -3.913147,-0.46897 -7.233154,-0.93977 -11.35087,-1.28534 l -0.07494,-6.12599 c 3.841092,0.21034 7.782196,0.46014 11.42581,0.53408 z m 77.510243,6.56844 v 4.32329 h -13.89626 l 0.0118,-6.4596 c 4.75185,0.22102 9.4198,1.66003 13.88446,2.13631 z m 11.73463,-54.65861 10.19059,10.49939 -0.92642,33.04221 -13.27864,-0.6176 -6.79374,5.5585 -104.067543,-5.86732 -4.940894,-6.48492 -10.19059,-0.3088 -1.235219,-29.02774 7.102529,-8.64656 z m 6.79372,12.04342 -8.02894,-8.33775 -121.97829,-2.77926 -5.867309,7.41134 0.926416,25.01326 c 2.968516,0.0367 5.939797,-0.076 8.906422,0.0507 1.601407,2.0904 3.315948,4.09288 4.989839,6.12546 l 101.905912,6.17612 c 2.316,-1.88984 4.6351,-3.87139 6.79372,-5.86732 3.81303,0.024 7.62073,0.3798 11.42582,0.61762 z M 43.399876,191.84266 c 0.308297,2.25892 -1.362061,3.9451 -3.300579,4.14271 -1.938519,0.19761 -3.858663,-1.01811 -4.228878,-3.56723 -0.370215,-2.54912 1.309035,-4.44231 3.347913,-4.66422 2.038878,-0.22191 3.873247,1.82982 4.181544,4.08874 z m 138.486734,12.89558 1.23522,1.54402 c -1.51742,1.71025 -3.25409,3.6714 -4.63209,5.24971 h -7.41134 v -4.01448 l 6.17612,1.23522 c 1.98159,-1.5819 3.15283,-2.58861 4.63209,-4.01447 z m -6.17612,-43.85042 5.2497,5.55851 -0.61761,21.9252 c -3.19554,-0.30209 -5.87724,-0.4598 -8.80548,-0.5842 -2.05966,1.8977 -4.19973,3.70257 -6.326,5.52509 l -97.891441,-4.94089 c -2.036825,-1.79484 -4.217212,-3.92889 -5.890935,-5.77452 -2.057085,-0.26993 -3.953732,-0.52717 -6.152491,-0.7104 l -0.926417,-19.14595 3.705669,-4.63209 z m -101.597104,-46.32087 -19.76357,0.61761 -0.308807,-5.55851 20.072377,-0.6176 z m 0.617611,18.21954 0.308806,5.2497 -19.76357,-0.61762 -0.308807,-4.63208 z m 7.102534,-23.77804 0.926417,29.02774 h -2.779252 l -0.308806,-23.46924 -2.779252,6.79373 -1.852835,-3.70567 3.70567,-8.64656 z m 126.374129,94.13682 c -0.13614,2.79012 -2.20307,4.4006 -4.71145,4.27772 -2.90977,-0.14254 -4.65803,-2.29965 -4.27774,-5.26158 0.33503,-2.60936 2.40409,-4.20996 4.97813,-4.02791 1.99367,0.141 4.12089,2.76116 4.01106,5.01177 z m -150.460981,-81.78459 13.278648,-0.3088 0.308807,5.5585 H 58.055485 Z m -5.86731,-11.73463 1.544029,27.79252 h -3.396859 l -10.808207,-27.4837 h 2.779252 l 8.955372,21.6164 -0.926417,-21.6164 z m 46.629674,-0.92641 0.308806,29.33655 H 88.318452 c -0.20587,-0.41175 -0.411741,-0.87496 -0.617612,-1.38963 -0.44925,-2.39345 -1.016799,-4.91748 -1.389626,-7.25693 -0.507141,-2.09628 -0.761321,-3.88292 -0.772014,-5.5585 v -4.32329 c 0.127767,-1.17427 0.233412,-2.11153 0.617612,-4.01447 0.316837,-1.29746 0.588992,-2.47796 0.926417,-3.70567 0.284803,-1.03625 0.568665,-1.8174 0.926418,-3.08806 2.10668,0.0218 3.374451,-0.0157 5.008362,0.0608 -0.03734,1.59529 -0.06747,3.49634 -0.06747,5.80655 l -3.088057,0.61761 v -2.47044 H 89.24487 c -0.505545,2.87144 -0.937573,5.6442 -0.926418,8.33776 v 2.77925 2.16163 c 0.330395,2.53267 0.564842,4.383 0.926418,6.79373 h 6.793727 l -0.308806,-24.08685 z m 26.557297,-0.61761 7.72015,29.95416 h -3.70567 l -5.55851,-22.85163 -4.9409,22.85163 h -4.01447 c -0.41174,-0.41175 -0.92641,-1.54404 -1.54402,-3.39687 -0.50681,-1.72378 -0.82639,-3.64779 -1.08082,-5.24969 -0.10294,-0.61761 -0.15441,-1.23522 -0.15441,-1.85283 v -4.32329 -4.01447 c 4.2e-4,-1.3722 0.30594,-2.81954 0.30881,-4.01448 0.15795,-1.85658 0.78028,-3.73718 1.23522,-5.40411 0.20587,-0.72054 0.41174,-1.28668 0.61761,-1.69842 h 3.39686 c -0.73258,1.92851 -1.51706,3.49332 -2.16163,5.09529 -0.63,3.89703 -1.00268,9.69977 -0.61762,12.81544 -0.0738,2.80423 0.24103,6.09799 1.23523,8.33776 l 5.86731,-26.24849 z m -88.009645,16.98432 9.264174,7.72014 -0.617615,4.63208 -8.955372,-7.41133 z M 127.84559,0 c 17.70487,0 34.32891,3.2939298 49.87214,9.8817893 15.54322,6.5878517 29.07921,15.6976207 40.60796,27.3293067 11.52875,11.631687 20.68999,25.219142 27.48372,40.762365 C 252.60314,93.516687 256,110.14073 256,127.8456 c 0,17.70487 -3.39686,34.38038 -10.19059,50.02654 -6.79373,15.64615 -15.95497,29.23361 -27.48372,40.76236 -11.52875,11.52875 -25.06474,20.63852 -40.60796,27.32931 C 162.1745,252.6546 145.55046,256 127.84559,256 110.14073,256 93.516686,252.6546 77.973458,245.96381 62.430233,239.27302 48.894246,230.16325 37.365497,218.6345 25.836745,207.10575 16.726972,193.51829 10.036179,177.87214 3.345393,162.22598 0,145.55047 0,127.8456 0,110.14073 3.345393,93.516687 10.036179,77.973461 16.726972,62.430238 25.836745,48.842783 37.365497,37.211096 48.894246,25.57941 62.430233,16.469641 77.973458,9.8817893 93.516686,3.2939298 110.14073,0 127.84559,0 Z m 0,11.425811 c -15.85203,0 -30.623236,2.830719 -44.313628,8.492157 -13.69039,5.661446 -25.785282,13.535996 -36.284675,23.623649 h 0.308802 L 187.1363,28.101323 c -8.85243,-5.352628 -18.27101,-9.470037 -28.25572,-12.352227 -9.98472,-2.88219 -20.32972,-4.323285 -31.03499,-4.323285 z M 29.336543,66.084436 c -0.900759,1.250734 -1.587018,2.339492 -2.470439,3.70567 l 0.926418,13.278657 3.396855,4.014471 v 5.558504 c 3.139218,-0.799792 6.369584,-1.107205 9.572988,-1.544032 2.63472,3.309577 5.713128,7.016575 8.337756,9.881784 L 186.20988,96.347408 c 4.17226,-4.174966 7.7064,-7.903538 12.04343,-12.043426 6.18711,0.138603 9.69199,-0.01508 14.20507,0 l 0.3088,-5.867306 5.24971,-5.867318 0.35605,-17.551279 c 0,0 -0.97366,-1.594681 -2.20889,-2.829904 L 200.10614,53.114593 188.68033,40.762365 46.629671,53.114593 39.218332,65.466832 Z M 199.48854,86.774432 c -3.94981,4.525609 -7.63089,9.149796 -11.11532,13.373138 -48.4696,0.46809 -98.402224,4.71085 -140.199516,4.8464 -3.012826,-3.60734 -5.987788,-7.784269 -8.337756,-11.117012 -2.881356,-0.208283 -5.759717,-0.308802 -8.646571,-0.308802 l 3.088066,59.908324 c 2.783891,0.0686 5.560176,-0.1545 8.337757,-0.30881 2.203029,-3.43634 4.589925,-6.75629 6.793723,-10.19059 47.934048,0.0946 96.282167,1.23523 137.418577,1.23523 3.69558,4.04116 7.26168,8.17985 10.8082,12.35223 4.33053,0.17464 7.81874,0.4067 11.73462,0.92642 l 3.08806,-72.260561 c -4.32576,0.580438 -8.55885,1.053923 -12.96984,1.544033 z M 11.117009,127.8456 c 0,10.29353 1.338157,20.17531 4.014471,29.64536 2.676314,9.47004 6.176112,18.52834 10.499393,27.1749 v -2.77925 c 1.044361,-1.32685 2.074999,-2.66372 3.088066,-4.01447 L 23.778038,92.024123 c -1.079986,-1.404296 -2.072449,-2.872407 -3.088054,-4.323273 -0.107055,-1.546878 -0.316937,-2.845154 -0.617615,-4.632087 -5.97024,13.999191 -8.95536,28.924807 -8.95536,44.776837 z M 127.84559,244.26538 c 10.49939,0 20.63852,-1.33816 30.41737,-4.01448 9.77885,-2.67631 18.99156,-6.58785 27.63812,-11.73462 -47.55699,-2.47308 -87.655286,-6.48132 -132.477682,-11.42581 10.293526,8.64656 21.667873,15.33735 34.12304,20.07238 12.455172,4.73502 25.888222,7.10253 40.299152,7.10253 z m 84.61279,-36.74789 0.3088,-12.04342 -4.94088,-4.9409 1.54402,-32.1158 c -4.52982,0.23793 -8.85613,0.33229 -13.27865,0.61762 -4.05693,-3.77816 -7.47598,-7.06334 -11.11701,-10.49941 L 50.952956,146.68275 c -2.570229,3.24526 -5.417969,6.18507 -8.028954,8.95537 -2.858516,-0.7058 -5.726876,-1.21962 -8.646559,-1.54403 l 1.544021,28.10132 -2.779252,3.39687 0.308814,10.80821 c 0.906761,0.91102 1.613287,1.91798 2.470438,2.77925 l 9.572988,0.6176 8.028946,9.57299 130.316042,10.19059 10.8082,-9.26417 14.20507,0.92641 z m 11.42581,-16.05791 v 1.85284 c 6.38199,-9.26417 11.32288,-19.40329 14.82268,-30.41736 3.4998,-11.01407 5.2497,-22.69723 5.2497,-35.04946 0,-10.08765 -1.18375,-19.81504 -3.55126,-29.182154 -2.36751,-9.367108 -5.91878,-18.271005 -10.65381,-26.711692 l -0.3088,4.940889 c -1.6891,1.912684 -3.44637,3.755165 -5.2497,5.558504 l -4.94089,104.993963 c 1.62872,1.23815 3.11303,2.64732 4.63208,4.01447 z"
       id="path46"
       style="display:inline;stroke-width:0.308805"
       inkscape:label="Title"
       sodipodi:nodetypes="cccccccccccccccccccccccccccccccccccccccccsssssccccccccccccccsccccccscsssccccccccccccccccccccccccccccccccccccccccccccccccccccccccccccccccccccccccccccccccccccccccccccccczccczccczcczccccczccczccccscczccscccscscscccscccccccccsccccccccccscccscsccssscscscscscscsccscccscccccccsscccsccsscscscscccccccssccsscscscsccssccssssccsscccccscccccccccsccccccsccccscccccscccccccccccsccccccccccccccccccccccccsssccccccccsssccccccs" />
  </g>
</svg>
