<?xml version="1.0" encoding="UTF-8" standalone="no"?>
<svg
   xmlns:dc="http://purl.org/dc/elements/1.1/"
   xmlns:cc="http://creativecommons.org/ns#"
   xmlns:rdf="http://www.w3.org/1999/02/22-rdf-syntax-ns#"
   xmlns:svg="http://www.w3.org/2000/svg"
   xmlns="http://www.w3.org/2000/svg"
   xmlns:sodipodi="http://sodipodi.sourceforge.net/DTD/sodipodi-0.dtd"
   xmlns:inkscape="http://www.inkscape.org/namespaces/inkscape"
   width="210mm"
   height="297mm"
   viewBox="0 0 210 297"
   version="1.1"
   id="svg7399"
   inkscape:version="1.0.2-2 (e86c870879, 2021-01-15)"
   sodipodi:docname="upgrade-weapons-team.svg">
  <defs
     id="defs7393" />
  <sodipodi:namedview
     id="base"
     pagecolor="#ffffff"
     bordercolor="#666666"
     borderopacity="1.0"
     inkscape:pageopacity="0.0"
     inkscape:pageshadow="2"
     inkscape:zoom="0.35"
     inkscape:cx="400"
     inkscape:cy="560"
     inkscape:document-units="mm"
     inkscape:current-layer="layer1"
     inkscape:document-rotation="0"
     showgrid="false"
     inkscape:pagecheckerboard="true"
     showborder="false"
     inkscape:window-width="1267"
     inkscape:window-height="1198"
     inkscape:window-x="156"
     inkscape:window-y="156"
     inkscape:window-maximized="0" />
  <metadata
     id="metadata7396">
    <rdf:RDF>
      <cc:Work
         rdf:about="">
        <dc:format>image/svg+xml</dc:format>
        <dc:type
           rdf:resource="http://purl.org/dc/dcmitype/StillImage" />
        <dc:title></dc:title>
      </cc:Work>
    </rdf:RDF>
  </metadata>
  <g
     inkscape:label="Layer 1"
     inkscape:groupmode="layer"
     id="layer1">
    <path
       d="m 128.00001,0 q 26.52529,0 49.81203,10.024096 23.28675,10.024097 40.55904,27.450602 17.27229,17.426506 27.45061,40.713251 Q 256,101.4747 256,127.99999 q 0,26.52531 -10.17831,49.96627 -10.17832,23.44096 -27.45061,40.55904 -17.27229,17.11806 -40.55904,27.29638 -23.28674,10.17831 -49.81203,10.17831 -26.52531,0 -49.812057,-10.17831 Q 54.901212,235.64336 37.628919,218.5253 20.356626,201.40722 10.178313,177.96626 0,154.5253 0,127.99999 0,101.4747 10.178313,78.187949 20.356626,54.901204 37.628919,37.474698 54.901212,20.048193 78.187953,10.024096 101.4747,0 128.00001,0 Z M 243.04578,111.65301 Q 240.26988,90.371082 230.09157,72.173492 219.91325,53.975902 204.64578,40.559035 189.37831,27.142168 169.79277,19.277108 q -19.58554,-7.86506 -41.79276,-7.86506 l 2.7759,18.19759 q 9.25301,0.925301 13.26265,2.467469 l 2.46747,-1.850602 1.8506,-0.925301 1.8506,0.925301 q 14.49638,8.327711 27.60481,18.19759 13.10844,9.86988 24.82892,20.356626 11.72049,10.486747 21.74458,21.436144 10.02409,10.949395 18.66024,21.436145 z m -42.56385,79.57591 q 2.7759,-0.92532 2.00482,-1.07953 -0.77109,-0.15422 -2.62169,0.15423 -2.46748,0.30843 -6.47711,0.9253 -4.93494,0.61686 -9.71566,0.77107 -4.78073,0.15422 -8.17349,-0.15421 -4.31808,-0.30843 -8.32771,-0.61686 -7.40241,-0.92532 -12.64579,-1.07953 -5.24338,-0.15422 -9.25301,0.15423 -4.31807,0.30843 -7.40241,0.9253 -8.32771,1.8506 -13.26265,4.93493 -4.93493,3.08434 -8.01928,5.86024 -3.39277,3.39277 -4.6265,7.09398 3.7012,-5.24338 10.33252,-7.71085 6.63134,-2.46746 13.10845,-4.00964 7.71083,-1.23373 15.42167,-1.23373 10.17832,0.9253 18.96868,0.30843 8.79036,-0.61686 15.42168,-1.8506 6.63134,-1.23373 10.79519,-2.31325 4.16385,-1.07951 4.47229,-1.07951 z m -76.8,-158.843378 q -7.09398,0 -12.95422,0.925301 -5.86024,0.925301 -10.17831,1.850602 -5.243375,1.233735 -9.561446,2.467469 -7.093977,3.084338 -7.40241,3.855422 -0.308434,0.771084 1.850602,0.154218 2.467469,-0.616868 8.019277,-2.159037 11.103617,-2.467469 18.660237,-3.392771 7.55664,-0.925301 12.18314,-0.308434 z m -6.16868,9.561445 q -0.30843,0 -6.93976,0.154217 -6.63132,0.154216 -15.575898,3.855421 -8.944579,3.701205 -17.73494,12.954217 -8.79036,9.253012 -13.416866,27.142168 -0.925302,3.392771 -0.925302,6.168675 0,2.467469 1.079518,4.626506 1.079518,2.159035 4.47229,2.775903 0.308433,0.308433 0.925301,0.308433 0.616866,0.308433 2.159036,0.308433 l 6.477108,-23.749396 2.775903,17.580723 0.616867,-1.850602 q 0,0 0.616868,-2.159036 0.925301,-3.084338 2.46747,-6.168675 1.542168,-2.46747 4.163856,-5.551807 2.621686,-3.084337 7.248192,-5.551807 l -0.925301,-18.814458 15.421688,-3.701204 -1.85061,4.009638 -9.56144,2.46747 1.54217,15.113252 2.15903,21.898796 5.86024,-0.925302 q -4.6265,-2.46747 -4.93493,-8.636145 0,-5.551807 4.93493,-8.327711 -2.15903,2.775904 -2.15903,5.860242 0,3.39277 2.46747,5.860241 2.46747,2.46747 5.86024,2.46747 3.39277,0 6.01446,-2.46747 2.62169,-2.467471 2.62169,-5.860241 v -0.308434 q 2.46746,0.925301 2.46746,4.009639 0,3.084337 -1.23373,4.626506 l 14.18795,-1.850603 q -0.30843,-2.46747 -0.30843,-4.318072 0,-1.850603 -0.61687,-4.009638 1.23374,0.616866 1.69638,0.308433 0.46266,-0.308433 1.69639,0.308433 0.30843,3.084339 0.61687,5.397591 0.30843,2.313253 0.61686,3.855421 0.9253,4.626506 3.39278,9.253012 l 2.15903,4.318074 q 1.54217,4.31807 3.85542,7.55662 2.31326,3.23856 4.47229,5.3976 0.9253,-5.86025 1.8506,-14.03374 0.9253,-8.173493 0.46266,-17.118072 -0.46266,-8.944577 -2.31326,-17.580722 -1.8506,-8.636144 -5.55181,-15.730119 -4.31806,-2.467471 -8.48192,-4.163856 -4.16385,-1.696386 -8.48193,-3.238554 l 0.9253,5.860241 -8.63614,1.542169 -0.9253,-9.253012 q -2.15904,-0.616868 -4.16386,-0.616868 z m 14.49639,-4.934939 q 3.39278,1.233734 6.93975,2.621686 3.54699,1.387952 7.2482,2.930121 -1.54216,-2.46747 -2.77591,-4.318073 -1.23373,-1.850602 -2.15903,-3.392771 -5.24337,-1.233735 -9.56144,-1.850603 z M 178.2747,170.56385 q -5.55181,0.30844 -12.02892,1.8506 -5.24337,1.23373 -12.49157,3.39278 -7.24818,2.15903 -15.26746,6.16867 7.09398,-0.9253 14.18795,-2.15904 6.16867,-1.23373 13.10843,-3.54699 6.93976,-2.31325 12.49157,-5.70602 z m -81.118073,-89.137346 -2.159035,0.925301 0.925301,8.636145 2.775903,0.616867 z m -45.95662,35.161446 q 1.233731,-18.506025 4.009635,-30.689157 2.775902,-12.183132 5.551806,-19.277108 3.392771,-8.636144 7.093976,-13.26265 -9.561445,9.253011 -14.496385,21.281927 -4.934936,12.028915 -7.402409,23.13253 -2.775904,12.645778 -2.775904,26.216868 9.253012,-1.54217 18.814457,-3.39278 9.561446,-1.8506 17.889156,-3.08433 9.561445,-1.23373 18.19759,-2.7759 1.233735,-0.9253 0,-1.23374 -1.233735,-0.30843 -4.318072,-0.30843 -3.084338,0 -7.248193,0.15421 -4.163856,0.15422 -9.098795,0.46266 -11.103614,0.9253 -26.216862,2.7759 z m 34.544573,12.95422 q 4.009638,-0.61687 3.855422,-1.54218 -0.154218,-0.9253 -5.243374,-1.23373 -5.089157,-0.30843 -15.26747,0.30843 -10.178313,0.61687 -26.216862,2.46748 l 0.925301,7.71084 q 8.636141,-1.85061 16.655417,-3.08434 7.093976,-1.23373 14.033734,-2.62169 6.939759,-1.38794 11.257832,-2.00481 z m 30.2265,0 q -10.48674,2.46747 -23.595175,4.93493 -13.108434,2.46748 -24.212048,4.00965 -13.262645,1.85059 -26.833733,3.7012 -2.775904,0.61686 -4.934936,2.00482 -2.159044,1.38795 -3.701205,2.62169 -1.542172,1.23373 -2.775903,3.08433 1.850602,-0.30844 6.785538,-1.07951 4.934936,-0.77109 11.720485,-1.85061 6.785539,-1.07952 14.650598,-2.62168 7.86506,-1.54218 15.884337,-3.08435 18.814457,-3.39276 41.946992,-7.71084 -0.30843,-3.39276 -0.92531,-6.78554 -0.61687,-2.46747 -1.07951,-4.6265 -0.46266,-2.15904 -1.07952,-2.77591 -0.30844,-0.30843 -0.46265,1.38795 -0.15422,1.69639 -0.46265,3.54699 -0.30844,2.46747 -0.92531,5.24338 z m 12.02893,15.11325 q -8.01929,0.61687 -14.49639,4.31807 -5.55181,2.77591 -11.25784,8.63614 -5.706019,5.86024 -8.17349,16.03855 3.392772,-4.31806 8.32771,-9.56144 4.31807,-4.31808 10.64096,-9.56144 6.32289,-5.24338 14.95905,-9.86988 z m 40.71324,-18.81446 q 5.86025,1.54217 14.6506,4.47229 8.79037,2.93012 18.81447,6.47711 10.02408,3.54698 20.2024,7.55663 10.17831,4.00963 19.43132,7.40241 0.30844,-1.54218 0.61687,-2.77591 0.30843,-1.23373 0.61687,-2.7759 -2.15904,-0.9253 -4.31807,-2.15903 -2.15904,-1.23375 -3.70121,-2.15905 -1.8506,-1.23373 -3.39277,-1.8506 -7.09397,-3.08433 -16.03855,-7.40241 -8.94458,-4.31806 -17.42651,-8.63614 -8.48193,-4.31808 -15.11325,-8.63615 -6.63132,-4.31807 -8.79037,-7.55662 -2.15903,-3.23856 1.23375,-5.24338 3.39276,-2.00481 15.42168,-2.00481 L 169.63855,72.79036 q 6.78555,5.551807 12.33735,11.412047 4.93494,4.626506 10.17832,9.561447 5.24336,4.934939 8.32771,7.402406 1.23373,0 2.46746,0.15422 1.23374,0.15422 2.7759,0.15422 -6.16866,-8.327714 -14.18794,-16.346992 -6.78554,-7.093975 -15.42169,-14.959035 -8.63614,-7.86506 -18.81446,-14.342168 2.77591,7.402409 4.00964,15.421686 1.23374,8.019277 1.38795,16.038554 0.15422,8.019276 -0.46265,14.959035 -0.61686,6.93976 -0.9253,11.56627 -0.61686,1.8506 -0.61686,3.23854 0,1.38796 -0.30844,3.23856 3.08434,2.77591 5.86024,4.31808 1.23374,0.9253 2.46747,1.23373 z m -15.73012,-79.5759 q 14.18796,7.710842 27.60482,18.197589 13.41687,10.486746 25.44579,21.898794 12.02891,11.412049 22.05301,22.515667 10.02409,11.10361 16.50119,18.81445 v -2.93011 q 0,0 -0.61686,-3.23856 Q 223.92289,97.465057 208.96385,82.506022 194.00482,67.546986 183.20964,58.602408 170.56385,48.424095 161.61928,43.489156 q -3.39278,-2.159037 -7.09398,-4.009639 -3.70121,-1.850603 -7.09397,-2.775904 1.85059,2.46747 3.23855,4.934941 1.38796,2.467469 2.31325,4.626506 z M 11.720486,127.99999 q 0,17.58073 5.243377,34.08193 5.243366,16.50121 14.650592,30.38073 9.407239,13.8795 22.053014,24.8289 12.645786,10.9494 28.375906,17.42651 1.542169,-2.15903 4.318073,-5.24338 2.775903,-3.08433 7.710842,-7.09396 0,-1.54218 0.308434,-3.08435 0,-1.54216 0.154217,-2.77589 0.154217,-1.23374 -0.462651,-2.46748 l 10.48675,-5.86023 q 0.30843,-3.39278 -0.9253,-7.71084 -1.23374,-3.70122 -4.009642,-9.0988 -2.775904,-5.39759 -8.636144,-12.49157 -1.850603,1.23373 -2.159037,1.8506 -0.616867,0.61687 -0.616867,0.9253 l -1.850602,1.23373 -1.850603,-0.30843 q -19.431325,-6.16867 -31.151806,-11.8747 -11.720485,-5.70602 -18.197594,-10.02409 -6.477108,-4.31807 -8.790355,-6.93976 -2.313259,-2.62169 -2.621689,-3.23856 l -0.616871,-1.85059 0.616871,-1.54217 q 1.542173,-3.70121 6.785538,-6.01446 5.243378,-2.31325 8.636153,-2.93012 l -0.308442,-2.46746 q -1.850602,-1.85061 -1.850602,-3.08435 l -0.61686,-0.9253 v -0.30843 q 0,-27.75904 6.322882,-48.424097 6.322893,-20.66506 19.277113,-33.619277 6.168674,-6.785541 13.571084,-10.640963 7.402409,-3.855422 14.650601,-6.168675 7.248194,-2.313253 14.342172,-3.084337 7.09397,-0.771084 12.95421,-0.771084 h 5.86024 l -1.8506,-16.655422 Q 98.390363,13.26265 78.496387,22.824096 58.602412,32.385542 43.797597,47.961445 28.992778,63.537348 20.356626,84.202407 11.720486,104.86747 11.720486,127.99999 Z M 206.6506,213.43613 q 10.79518,-9.56144 18.66025,-21.74457 7.86505,-12.18313 12.79999,-26.06265 -8.94457,-1.54217 -18.04337,-3.54699 -9.0988,-2.00481 -16.80964,-3.85542 -7.71085,-1.8506 -13.57109,-3.08434 -5.86023,-1.23373 -8.32771,-1.8506 0,3.08434 0.77109,6.93976 0.77109,3.85542 3.23855,7.55663 l 3.70121,-1.85061 q 1.8506,4.62651 4.62651,8.94459 2.46746,3.39276 5.5518,7.09396 3.08434,3.70121 7.40241,5.86025 1.23374,1.23373 1.54217,4.00964 0.30843,2.46747 -0.61687,6.4771 -0.9253,4.00964 -3.70121,9.86988 0,0.30844 0.30844,0.61687 0.9253,0.9253 1.85061,1.23373 v 1.23374 q 0,0.30843 0.61686,2.15903 z"
       id="path62"
       style="display:inline;stroke-width:0.308433"
       inkscape:label="Weapons Team" />
  </g>
</svg>
