<?xml version="1.0" encoding="UTF-8" standalone="no"?>
<svg
   xmlns:dc="http://purl.org/dc/elements/1.1/"
   xmlns:cc="http://creativecommons.org/ns#"
   xmlns:rdf="http://www.w3.org/1999/02/22-rdf-syntax-ns#"
   xmlns:svg="http://www.w3.org/2000/svg"
   xmlns="http://www.w3.org/2000/svg"
   xmlns:sodipodi="http://sodipodi.sourceforge.net/DTD/sodipodi-0.dtd"
   xmlns:inkscape="http://www.inkscape.org/namespaces/inkscape"
   width="210mm"
   height="297mm"
   viewBox="0 0 210 297"
   version="1.1"
   id="svg3833"
   inkscape:version="1.0.2-2 (e86c870879, 2021-01-15)"
   sodipodi:docname="ai-battery.svg">
  <defs
     id="defs3827" />
  <sodipodi:namedview
     id="base"
     pagecolor="#ffffff"
     bordercolor="#666666"
     borderopacity="1.0"
     inkscape:pageopacity="0.0"
     inkscape:pageshadow="2"
     inkscape:zoom="0.35"
     inkscape:cx="400"
     inkscape:cy="560"
     inkscape:document-units="mm"
     inkscape:current-layer="layer1"
     inkscape:document-rotation="0"
     showgrid="false"
     inkscape:pagecheckerboard="true"
     showborder="false"
     inkscape:window-width="1267"
     inkscape:window-height="1198"
     inkscape:window-x="1741"
     inkscape:window-y="139"
     inkscape:window-maximized="0" />
  <metadata
     id="metadata3830">
    <rdf:RDF>
      <cc:Work
         rdf:about="">
        <dc:format>image/svg+xml</dc:format>
        <dc:type
           rdf:resource="http://purl.org/dc/dcmitype/StillImage" />
        <dc:title></dc:title>
      </cc:Work>
    </rdf:RDF>
  </metadata>
  <g
     inkscape:label="Layer 1"
     inkscape:groupmode="layer"
     id="layer1">
    <path
       d="m 224.26005,90.869038 q 9.08691,21.620562 9.87026,44.807822 0.78334,23.18728 -7.99021,45.43452 -5.32681,13.47369 -13.47368,25.22399 -8.14689,11.75031 -18.48716,21.4639 -5.32681,4.70012 -10.96695,9.40024 -5.64015,4.70012 -11.7503,8.46022 -6.11017,3.7601 -12.84701,6.26683 -6.73684,2.50673 -13.94368,2.82008 -1.25338,0.31334 -2.50674,0.31334 h -2.82007 q -3.44676,0.31333 -7.20686,0.47001 -3.7601,0.15667 -7.5202,0.47001 h -7.52019 -7.5202 l -15.040389,-0.94002 h -2.506732 q 0,0 -2.820074,-0.31334 -7.206853,-0.31335 -13.943696,-2.82008 -6.736841,-2.50673 -12.846995,-6.26683 -6.110165,-3.7601 -11.750312,-8.46022 -5.640147,-4.70012 -10.653607,-9.40024 Q 29.674986,218.08568 21.528103,206.33537 13.381232,194.58507 8.0544219,181.11138 -0.71913608,158.86414 0.0642078,135.67686 0.84756352,112.4896 9.9344709,90.869038 15.574618,76.141984 23.87817,62.824972 32.181722,49.507961 41.895304,37.60098 q 6.893509,-8.146883 13.160343,-13.473681 6.266834,-5.326809 10.653607,-8.46022 5.32681,-3.446761 9.713586,-5.32681 0.940025,-0.313337 2.820074,-1.566711 Q 79.80962,8.1468829 82.943036,6.7368402 86.076451,5.3268094 91.403257,3.4467604 95.476696,2.1933865 99.863476,1.4100427 104.25026,0.62668694 108.01036,0.31333755 112.39714,0 116.78392,0 h 0.31334 0.31334 q 4.38678,0 8.77356,0.31333755 3.7601,0.31334939 8.14689,1.09670515 4.38677,0.7833438 8.46022,2.0367177 5.32679,1.880049 8.46022,3.2900798 3.13341,1.4100427 4.70012,2.0367178 1.88005,1.253374 2.82007,1.566711 4.38678,1.880049 9.71359,5.32681 4.38677,3.133411 10.49693,8.46022 6.11016,5.326798 13.00368,13.473681 10.02692,11.906981 18.33047,25.223992 8.30355,13.317012 13.9437,28.044066 z M 96.41672,33.840882 81.376328,38.227667 74.482816,112.17625 q -4.700115,4.70012 -8.460213,9.08691 -3.44676,3.7601 -6.580171,7.83353 -3.133423,4.07345 -4.700122,6.58017 5.01346,17.23378 9.086895,34.46757 3.446761,14.72706 6.893521,31.17748 3.446747,16.45044 5.013455,29.61077 4.073439,0.31335 7.833537,0.94002 3.446757,0.62669 6.893514,1.41004 3.446756,0.78336 5.953488,2.03672 z M 117.09726,256 h -0.31334 0.31334 0.31334 z m 41.36107,-25.06732 q 1.56671,-13.16035 5.01346,-29.61077 3.44676,-16.45043 6.89352,-31.17748 4.07344,-17.23379 9.0869,-34.46757 -1.5667,-2.50672 -4.70012,-6.58017 -3.13341,-4.07343 -6.58017,-7.83353 -3.7601,-4.38679 -8.46021,-9.08691 l -6.89352,-73.948583 -15.0404,-4.386785 V 235.31946 q 2.50674,-1.25336 5.9535,-2.03672 3.44675,-0.78335 6.89351,-1.41004 3.7601,-0.62667 7.83353,-0.94002 z"
       id="path112"
       style="display:inline;stroke-width:0.313341"
       inkscape:label="Ai Battery" />
  </g>
</svg>
