<?xml version="1.0" encoding="UTF-8" standalone="no"?>
<svg
   xmlns:dc="http://purl.org/dc/elements/1.1/"
   xmlns:cc="http://creativecommons.org/ns#"
   xmlns:rdf="http://www.w3.org/1999/02/22-rdf-syntax-ns#"
   xmlns:svg="http://www.w3.org/2000/svg"
   xmlns="http://www.w3.org/2000/svg"
   xmlns:sodipodi="http://sodipodi.sourceforge.net/DTD/sodipodi-0.dtd"
   xmlns:inkscape="http://www.inkscape.org/namespaces/inkscape"
   version="2.0"
   viewbox="0 0 256 256"
   id="svg4"
   sodipodi:docname="grit.svg"
   inkscape:version="1.0.2-2 (e86c870879, 2021-01-15)">
  <metadata
     id="metadata10">
    <rdf:RDF>
      <cc:Work
         rdf:about="">
        <dc:format>image/svg+xml</dc:format>
        <dc:type
           rdf:resource="http://purl.org/dc/dcmitype/StillImage" />
        <dc:title></dc:title>
      </cc:Work>
    </rdf:RDF>
  </metadata>
  <defs
     id="defs8" />
  <sodipodi:namedview
     pagecolor="#ffffff"
     bordercolor="#666666"
     borderopacity="1"
     objecttolerance="10"
     gridtolerance="10"
     guidetolerance="10"
     inkscape:pageopacity="0"
     inkscape:pageshadow="2"
     inkscape:window-width="2604"
     inkscape:window-height="2054"
     id="namedview6"
     showgrid="false"
     inkscape:pagecheckerboard="true"
     showborder="false"
     inkscape:zoom="4.69"
     inkscape:cx="30.597015"
     inkscape:cy="126.17271"
     inkscape:window-x="-10"
     inkscape:window-y="0"
     inkscape:window-maximized="0"
     inkscape:current-layer="svg4" />
  <path
     d="m 85.066833,184.84447 c 1.119301,-0.3198 4.157402,1.599 4.157402,1.599 5.916302,2.8782 10.713304,4.9569 14.231105,6.07621 14.39101,4.6371 28.94191,4.797 43.65272,0.6396 4.6371,-1.27921 10.2336,-3.35791 16.7895,-6.39601 3.19801,-1.4391 4.79701,-2.2386 5.11681,-2.2386 0.4797,0 5.7564,4.3173 16.7895,12.95191 18.54841,15.0306 27.98251,22.38601 28.14241,22.38601 0.1599,-0.1599 -2.0787,-5.91631 -6.7158,-17.26921 -7.3554,-19.02811 -11.6727,-30.06121 -12.9519,-33.25921 0,0 -2.39851,-5.75641 -2.2386,-6.39601 0.1599,-0.7995 2.8782,-4.797 2.8782,-4.797 1.9188,-3.198 3.198,-5.4366 4.1574,-7.0356 2.3985,-4.4772 4.4772,-9.4341 6.396,-15.19051 0.4797,-0.7995 0.9594,-1.599 1.599,-2.2386 3.3579,-3.5178 11.99251,-8.1549 25.58401,-13.9113 4.1574,-1.9188 8.7945,-3.6777 13.59151,-5.43661 l 9.7539,-4.1574 -2.8782,-1.2792 c -7.6752,-3.6777 -9.7539,-4.797 -20.14741,-10.713302 -18.86821,-11.193004 -20.30731,-11.832604 -24.46471,-14.391005 -0.4797,-0.3198 -1.9188,-2.398501 -3.8376,-6.715803 -4.4772,-8.634603 -7.995,-15.350406 -10.7133,-19.987508 l -1.599,-2.878201 c 3.9975,-12.951905 7.3554,-22.066208 9.7539,-27.502811 l 11.6727,-25.5840096 c -2.7183,1.9188008 -4.3173,3.0381012 -4.797,3.5178014 -4.1574,3.8376015 -6.7158,5.7564022 -7.6752,6.0762022 -0.1599,0 -4.797,3.517802 -13.59151,10.393504 l -15.8301,12.951905 -2.5584,-1.599 c -1.9188,-1.279201 -5.11681,-3.038102 -9.75391,-5.436602 -14.7108,-7.035603 -30.54091,-8.954404 -47.17052,-6.076203 -9.7539,1.918801 -18.708303,5.276702 -26.863207,10.073704 -2.558401,1.439101 -4.317301,1.758901 -5.436602,0.9594 C 76.11243,29.261711 63.800125,19.507808 43.332917,2.8782011 L 39.815116,0 v 1.4391006 c 0.1599,0.1599 1.2792,2.718301 3.198001,7.3554028 C 51.48782,29.261711 57.084322,43.812617 59.802623,52.44722 l 0.3198,1.279201 -0.6396,1.599001 c -0.4797,0.6396 -1.2792,2.2386 -2.558401,4.797001 -3.837601,6.396003 -6.875702,12.951906 -9.114303,19.667708 -1.279201,3.517802 -2.398501,5.916302 -3.517802,7.035603 -2.078701,2.078701 -7.035602,5.436602 -14.870706,9.753904 -7.835103,4.157402 -16.309806,8.314802 -25.5840095,12.312302 -2.3985009,0.7995 -3.51780138,1.4391 -3.8376015,1.599 0,0.4797 3.5178014,1.7589 10.393504,4.1574 8.794503,2.87821 15.830106,5.59651 20.946908,7.99501 7.035603,3.198 11.672705,6.396 14.231106,9.4341 1.1193,1.2792 1.918801,3.0381 2.558401,5.4366 3.038101,7.51531 4.157401,11.19301 8.794503,18.22861 1.439101,2.7183 4.637102,6.7158 4.797002,7.8351 0.1599,1.1193 -4.317302,12.63211 -12.951905,34.85822 -5.436602,14.0712 -8.154903,21.26671 -8.154903,21.58651 0.1599,0 7.355403,-5.75641 21.586508,-17.10931 0,0 21.746409,-17.74891 22.865709,-18.06871 z M 130.15865,28.302311 c 2.3985,0.4797 4.3173,1.1193 6.0762,2.238601 1.2792,1.1193 2.0787,3.517801 2.5584,7.355403 0.4797,3.198001 0.1599,15.510306 0.3198,70.515925 0.1599,29.58151 0,66.83823 -1.2792,69.55653 -0.9594,2.0787 -2.3985,3.3579 -4.1574,4.4772 -1.7589,0.7995 -3.5178,1.2792 -5.4366,1.2792 -2.0787,0 -3.9975,-0.4797 -5.7564,-1.2792 -2.0787,-1.2792 -3.5178,-2.7183 -4.1574,-4.4772 -0.1599,-0.6396 -0.4797,-1.4391 -0.6396,-2.5584 -0.4797,-3.9975 -0.6396,-27.18301 -0.6396,-69.39663 0,-42.373515 0.1599,-65.718924 0.6396,-69.716426 0.1599,-1.918801 1.1193,-3.517801 2.5584,-5.116802 2.5584,-2.718301 5.9163,-3.677701 9.9138,-2.878201 z m -26.86321,15.830106 c 1.7589,0.4797 3.198,1.279201 4.4772,2.558401 1.1193,1.119301 1.7589,4.477202 2.2386,10.073704 v 38.376015 51.008123 c -0.1599,11.3529 -0.4797,17.9088 -0.9594,19.3479 -0.4797,1.43911 -1.4391,2.71831 -3.198,3.83761 -3.198,1.9188 -6.396001,1.9188 -9.753902,0 -1.279201,-0.7995 -2.398501,-1.9188 -3.198002,-3.19801 -1.1193,-2.3985 -1.599,-21.9063 -1.599,-58.84322 0,-28.941909 0.3198,-48.769517 0.9594,-55.80512 0.1599,-2.078701 0.9594,-3.677701 2.238601,-4.797002 2.238601,-2.558401 5.116802,-3.357901 8.794503,-2.558401 z m 55.32542,0 c 1.2792,0.1599 2.5584,0.799501 3.8376,1.918801 1.4391,1.1193 2.3985,3.677701 2.8782,7.995003 0.1599,1.918801 0.3198,18.228607 0.3198,49.089319 0,30.86071 -0.1599,48.60962 -0.3198,53.56652 -0.1599,6.0762 -0.9594,9.75391 -2.2386,11.03311 -3.198,3.3579 -6.8757,3.9975 -11.0331,1.9188 -1.7589,-0.7995 -2.8782,-2.0787 -3.5178,-3.51781 -0.6396,-1.2792 -1.1193,-7.8351 -1.599,-19.6677 V 107.13304 67.797626 c 0.4797,-11.832604 0.9594,-18.228607 1.599,-19.347907 2.0787,-3.997502 5.4366,-5.596502 10.0737,-4.317302 z M 74.993129,73.234229 c 3.517802,0.6396 6.076203,2.398501 7.675203,5.116802 0.799501,1.7589 0.959401,4.157401 0.959401,8.154903 0,9.913804 0.1599,18.708306 0.3198,25.584006 0.1599,10.39351 0,17.10931 -0.3198,22.70581 -0.1599,1.9188 -1.119301,3.6777 -2.878201,5.4366 -2.718302,2.55841 -5.756403,3.67771 -8.794504,3.51781 -3.357901,-0.1599 -6.396002,-1.7589 -8.794503,-4.47721 -0.639601,-0.7995 -1.119301,-2.7183 -1.599001,-5.7564 -0.6396,-6.0762 -1.1193,-15.1905 -1.2792,-27.18301 -0.159901,-12.312303 -0.159901,-19.987506 0.3198,-23.185508 0.4797,-2.718301 1.599,-4.956901 3.517801,-6.715802 3.198001,-3.038101 6.875703,-4.157402 10.873204,-3.198001 z m 112.409741,0.3198 c 1.9188,0.4797 3.5178,1.4391 5.11681,2.878201 1.7589,1.4391 2.7183,5.756402 2.8782,12.632105 0.1599,3.517801 0.1599,11.672705 0,24.304805 0,12.95191 -0.1599,19.98751 -0.3198,21.26671 -0.1599,1.9188 -1.1193,3.6777 -2.8782,5.4366 -4.15741,4.15741 -8.79451,5.11681 -13.91131,2.55841 -2.3985,-1.1193 -3.8376,-2.39851 -4.797,-4.15741 -1.1193,-1.9188 -1.1193,-10.5534 -1.2792,-26.38351 0.3198,-16.469703 -0.3198,-25.104306 0.7995,-29.741408 1.1193,-5.276702 3.6777,-8.154903 8.6346,-9.114303 1.9188,-0.479701 3.8376,-0.319801 5.7564,0.3198 z"
     id="path2"
     style="stroke-width:1.599" />
</svg>
