<?xml version="1.0" encoding="UTF-8" standalone="no"?>
<svg
   xmlns:dc="http://purl.org/dc/elements/1.1/"
   xmlns:cc="http://creativecommons.org/ns#"
   xmlns:rdf="http://www.w3.org/1999/02/22-rdf-syntax-ns#"
   xmlns:svg="http://www.w3.org/2000/svg"
   xmlns="http://www.w3.org/2000/svg"
   xmlns:sodipodi="http://sodipodi.sourceforge.net/DTD/sodipodi-0.dtd"
   xmlns:inkscape="http://www.inkscape.org/namespaces/inkscape"
   version="2.0"
   viewbox="0 0 256 256"
   id="svg4"
   sodipodi:docname="heavy.svg"
   inkscape:version="1.0.2-2 (e86c870879, 2021-01-15)">
  <metadata
     id="metadata10">
    <rdf:RDF>
      <cc:Work
         rdf:about="">
        <dc:format>image/svg+xml</dc:format>
        <dc:type
           rdf:resource="http://purl.org/dc/dcmitype/StillImage" />
        <dc:title></dc:title>
      </cc:Work>
    </rdf:RDF>
  </metadata>
  <defs
     id="defs8" />
  <sodipodi:namedview
     pagecolor="#ffffff"
     bordercolor="#666666"
     borderopacity="1"
     objecttolerance="10"
     gridtolerance="10"
     guidetolerance="10"
     inkscape:pageopacity="0"
     inkscape:pageshadow="2"
     inkscape:window-width="1718"
     inkscape:window-height="1368"
     id="namedview6"
     showgrid="false"
     inkscape:pagecheckerboard="true"
     showborder="false"
     inkscape:zoom="3.4733333"
     inkscape:cx="150"
     inkscape:cy="75"
     inkscape:window-x="-7"
     inkscape:window-y="0"
     inkscape:window-maximized="0"
     inkscape:current-layer="svg4" />
  <path
     d="M 150,3.7 C 139.9,2.5 128.6,1.6 116.4,1 104.1,0.4 91.2,0 77.5,0 65.1,0 53.3,0.3 42,0.8 30.7,1.3 20.2,2.1 10.6,3 L 0,13.8 v 89.3 l 10.3,10.3 c 9.6,-1 20.1,-1.7 31.5,-2.2 11.4,-0.5 23.3,-0.8 35.8,-0.8 13.5,0 26.3,0.3 38.4,1 12.1,0.6 23.2,1.5 33.3,2.7 l 10.8,-10.9 V 13.9 Z m -3.6,30.5 V 69.6 79 L 127.2,98.5 C 119.4,98 111.3,97.6 103,97.3 94.7,97 86.2,96.9 77.5,96.9 c -7.7,0 -15.3,0.1 -22.8,0.3 -7.5,0.2 -14.9,0.5 -22,1 L 13.5,79 V 69.6 34.2 24.7 L 32.8,5.5 C 39.9,5 47.2,4.6 54.6,4.4 62,4.2 69.7,4.1 77.5,4.1 c 8.8,0 17.4,0.2 25.8,0.5 8.4,0.3 16.5,0.7 24.3,1.3 l 18.7,18.9 v 9.4 z M 56.5,7.6 C 49.7,7.8 42.8,8 36,8.5 l -17,17 v 40.9 l 0.2,0.2 v 0.8 l 16.7,16.8 c 6.9,-0.4 13.7,-0.7 20.6,-0.9 6.9,-0.2 13.9,-0.2 21.1,-0.2 16.1,0 31.5,0.5 46.3,1.4 L 141,67.4 v -0.8 l 0.2,-0.2 V 25.5 L 124.4,8.8 C 109.6,7.8 94,7.4 77.6,7.4 70.4,7.4 63.3,7.5 56.5,7.6 Z"
     id="path2" />
</svg>
