<?xml version="1.0" encoding="UTF-8" standalone="no"?>
<svg
   xmlns:dc="http://purl.org/dc/elements/1.1/"
   xmlns:cc="http://creativecommons.org/ns#"
   xmlns:rdf="http://www.w3.org/1999/02/22-rdf-syntax-ns#"
   xmlns:svg="http://www.w3.org/2000/svg"
   xmlns="http://www.w3.org/2000/svg"
   xmlns:sodipodi="http://sodipodi.sourceforge.net/DTD/sodipodi-0.dtd"
   xmlns:inkscape="http://www.inkscape.org/namespaces/inkscape"
   width="210mm"
   height="297mm"
   viewBox="0 0 210 297"
   version="1.1"
   id="svg3863"
   inkscape:version="1.0.2-2 (e86c870879, 2021-01-15)"
   sodipodi:docname="intel.svg">
  <defs
     id="defs3857" />
  <sodipodi:namedview
     id="base"
     pagecolor="#ffffff"
     bordercolor="#666666"
     borderopacity="1.0"
     inkscape:pageopacity="0.0"
     inkscape:pageshadow="2"
     inkscape:zoom="0.35"
     inkscape:cx="400"
     inkscape:cy="560"
     inkscape:document-units="mm"
     inkscape:current-layer="layer1"
     inkscape:document-rotation="0"
     showgrid="false"
     inkscape:pagecheckerboard="true"
     showborder="false"
     inkscape:window-width="1267"
     inkscape:window-height="1198"
     inkscape:window-x="78"
     inkscape:window-y="78"
     inkscape:window-maximized="0" />
  <metadata
     id="metadata3860">
    <rdf:RDF>
      <cc:Work
         rdf:about="">
        <dc:format>image/svg+xml</dc:format>
        <dc:type
           rdf:resource="http://purl.org/dc/dcmitype/StillImage" />
        <dc:title></dc:title>
      </cc:Work>
    </rdf:RDF>
  </metadata>
  <g
     inkscape:label="Layer 1"
     inkscape:groupmode="layer"
     id="layer1">
    <path
       d="M 64.576576,1.976834 Q 52.715572,22.074654 21.086229,77.096529 2.6357791,108.72587 0.32947191,113.33848 L 0,114.65637 q 3.624196,7.57787 49.750321,86.9807 l 15.814672,27.3462 h 62.270267 62.27027 l 15.81467,-27.3462 q 46.12613,-79.40283 49.42085,-85.99228 L 256,114.65637 255.34105,113.33848 Q 252.04633,106.74904 205.9202,27.346207 L 190.10553,0 H 127.83526 65.564993 Z M 193.40025,41.184045 q 32.61776,56.339767 39.53668,68.859715 l 2.63578,4.61261 -1.64736,2.96525 q -6.58944,11.53154 -35.91248,62.27027 l -18.12098,31.62935 H 127.83526 75.778635 L 63.588159,190.10553 q -23.722008,-40.85456 -31.629343,-54.6924 -6.918919,-11.861 -9.225225,-16.14414 l -2.635779,-4.61262 2.635779,-4.61261 Q 29.65251,97.523812 62.270269,41.184045 L 75.778635,17.791506 h 52.056625 52.05663 z M 85.00386,50.738742 Q 53.703989,104.7722 49.420848,112.67954 q -0.329472,0.98842 0,1.97683 0.988417,3.6242 30.311455,54.6924 l 9.225225,15.81468 h 38.877732 38.87773 l 3.29473,-5.60103 q 33.60618,-57.98713 36.24195,-63.25868 l 0.98842,-1.97684 -2.63577,-4.61261 q -2.63579,-4.61261 -20.42729,-35.25354 L 166.71299,43.819823 h -13.50836 q -12.51995,0 -38.54826,-0.329472 H 89.287 Z m 81.37966,24.380953 q 16.80309,28.993565 20.42729,36.241955 l 1.31789,2.63578 -1.31789,2.96525 q -3.6242,7.57786 -20.42729,36.24195 l -8.89575,15.81468 H 128.16474 98.512226 L 89.616473,153.20463 Q 71.824967,122.23424 69.518661,116.96268 l -1.647362,-2.96525 1.317889,-2.63578 q 2.965251,-5.60103 20.427285,-36.241955 l 8.895753,-15.814672 h 29.652514 29.32303 z M 102.79537,91.263839 Q 92.581724,108.72587 90.60489,113.00901 l -0.988417,1.64736 1.647361,2.63578 q 2.306307,4.61261 11.861006,21.41571 l 5.9305,9.88417 h 18.77992 18.77992 l 5.9305,-9.88417 q 9.55471,-16.8031 12.19048,-21.41571 l 1.31789,-2.63578 -0.98841,-1.64736 q -1.97684,-4.28314 -12.19049,-21.745171 l -6.25997,-10.872587 h -18.77992 -18.77992 z m 43.16086,3.953668 q 3.95367,6.589443 6.25999,10.543113 2.3063,3.95367 2.96525,5.43629 0.65893,1.48263 0.65893,3.29473 0,1.8121 -0.65893,3.29472 -0.65895,1.48263 -2.96525,5.43629 -2.63579,3.95367 -6.25999,10.54311 l -3.95365,6.91893 h -14.16732 -14.16731 l -3.29472,-5.60103 q -8.23681,-14.49678 -10.543115,-18.45045 l -0.988417,-1.97684 0.658945,-1.31789 q 1.976837,-3.95366 13.178897,-23.063058 l 0.98841,-1.976834 14.16731,0.329472 h 14.16732 z"
       id="path100"
       style="display:inline;stroke-width:0.329472"
       inkscape:label="Intel" />
  </g>
</svg>
