<?xml version="1.0" encoding="UTF-8" standalone="no"?>
<svg
   xmlns:dc="http://purl.org/dc/elements/1.1/"
   xmlns:cc="http://creativecommons.org/ns#"
   xmlns:rdf="http://www.w3.org/1999/02/22-rdf-syntax-ns#"
   xmlns:svg="http://www.w3.org/2000/svg"
   xmlns="http://www.w3.org/2000/svg"
   xmlns:sodipodi="http://sodipodi.sourceforge.net/DTD/sodipodi-0.dtd"
   xmlns:inkscape="http://www.inkscape.org/namespaces/inkscape"
   width="210mm"
   height="297mm"
   viewBox="0 0 210 297"
   version="1.1"
   id="svg4433"
   inkscape:version="1.0.2-2 (e86c870879, 2021-01-15)"
   sodipodi:docname="scout.svg">
  <defs
     id="defs4427" />
  <sodipodi:namedview
     id="base"
     pagecolor="#ffffff"
     bordercolor="#666666"
     borderopacity="1.0"
     inkscape:pageopacity="0.0"
     inkscape:pageshadow="2"
     inkscape:zoom="0.35"
     inkscape:cx="400"
     inkscape:cy="560"
     inkscape:document-units="mm"
     inkscape:current-layer="layer1"
     inkscape:document-rotation="0"
     showgrid="false"
     inkscape:pagecheckerboard="true"
     showborder="false"
     inkscape:window-width="1718"
     inkscape:window-height="1368"
     inkscape:window-x="-7"
     inkscape:window-y="0"
     inkscape:window-maximized="0" />
  <metadata
     id="metadata4430">
    <rdf:RDF>
      <cc:Work
         rdf:about="">
        <dc:format>image/svg+xml</dc:format>
        <dc:type
           rdf:resource="http://purl.org/dc/dcmitype/StillImage" />
        <dc:title></dc:title>
      </cc:Work>
    </rdf:RDF>
  </metadata>
  <g
     inkscape:label="Layer 1"
     inkscape:groupmode="layer"
     id="layer1">
    <path
       d="m 163.93846,68.676928 q 8.36923,-11.815385 19.56923,-17.969231 11.2,-6.153847 25.72308,-6.646154 Q 202.09231,33.969234 193.10769,25.846157 184.12308,17.723077 173.78462,11.93847 163.44615,6.1538525 151.75385,3.0769309 140.06154,0 128,0 115.6923,0 104.12308,3.0769309 92.553844,6.1538525 82.092305,11.93847 71.630767,17.723077 62.646148,25.846157 q -8.984614,8.123077 -15.876919,18.215386 14.27692,0.492307 25.6,6.646154 11.323077,6.153846 19.692307,17.969231 V 48.000004 Q 99.44615,42.58462 109.16923,39.876927 118.89231,37.169234 128,37.169234 q 9.10769,0 18.83077,2.707693 9.72307,2.707693 17.10769,8.123077 z M 98.707688,82.461543 q 0.984622,4.923077 1.476922,8.861538 0.49231,3.93846 0.49231,7.630768 0,3.692311 -0.49231,7.630771 -0.4923,3.93846 -1.476922,8.86154 H 157.2923 q -0.98461,-4.92308 -1.47692,-8.86154 -0.4923,-3.93846 -0.4923,-7.630771 0,-3.692308 0.4923,-7.630768 0.49231,-3.938461 1.47692,-8.861538 z m -6.646152,47.015377 q -8.36923,11.56924 -19.692307,17.84617 -11.32308,6.27691 -25.6,6.52306 6.892305,10.09232 15.876919,18.21539 8.984619,8.12308 19.446157,13.9077 10.461539,5.78461 22.030775,8.86154 11.56922,3.07692 23.87692,3.07692 12.06154,0 23.75385,-3.07692 11.6923,-3.07693 22.03077,-8.86154 10.33846,-5.78462 19.32307,-13.9077 8.98462,-8.12307 16.12308,-18.21539 -14.52308,-0.24615 -25.72308,-6.52306 -11.2,-6.27693 -19.56923,-17.84617 v 20.43078 q -7.38462,5.41538 -17.10769,8.24615 -9.72308,2.83077 -18.83077,2.83077 -9.10769,0 -18.83077,-2.83077 -9.72308,-2.83077 -17.107694,-8.24615 z m -46.27692,15.26155 q 9.353841,0 17.723078,-3.56924 8.369227,-3.56923 14.64615,-9.84615 6.276923,-6.27692 9.846154,-14.64615 3.56923,-8.36923 3.56923,-17.723081 0,-9.353844 -3.56923,-17.723075 -3.569231,-8.369232 -9.846154,-14.646155 -6.276923,-6.276923 -14.64615,-9.846154 -8.369237,-3.56923 -17.723078,-3.56923 -9.353849,0 -17.723077,3.56923 -8.369237,3.569231 -14.646156,9.846154 Q 7.1384555,72.861542 3.5692231,81.230774 0,89.600005 0,98.953849 q 0,9.353851 3.5692231,17.723081 3.5692324,8.36923 9.8461599,14.64615 6.276919,6.27692 14.646156,9.84615 8.369228,3.56924 17.723077,3.56924 z m 0,-74.338466 q 5.415382,0 10.584613,2.092308 5.169231,2.092308 9.230765,5.907692 4.061542,3.815385 6.400004,8.984616 2.338461,5.169231 2.338461,11.569229 0,6.153851 -2.338461,11.446161 -2.338462,5.2923 -6.400004,9.10769 -4.061534,3.81538 -9.230765,5.90769 -5.169231,2.09231 -10.584613,2.09231 -12.553846,0 -20.553848,-8 -8.000001,-8 -8.000001,-20.553851 0,-12.553845 8.000001,-20.553845 8.000002,-8 20.553848,-8 z M 210.21538,144.73847 q 9.35385,0 17.60001,-3.56924 8.24615,-3.56923 14.52308,-9.84615 6.27691,-6.27692 9.96922,-14.64615 Q 256,108.3077 256,98.953849 q 0,-9.353844 -3.69231,-17.723075 -3.69231,-8.369232 -9.96923,-14.646155 -6.27692,-6.276923 -14.52307,-9.846154 -8.24616,-3.56923 -17.60001,-3.56923 -9.35385,0 -17.72307,3.56923 -8.36923,3.569231 -14.64616,9.846154 -6.27692,6.276923 -9.84615,14.646155 -3.56923,8.369231 -3.56923,17.723075 0,9.353851 3.56923,17.723081 3.56923,8.36923 9.84615,14.64615 6.27693,6.27692 14.64616,9.84615 8.36922,3.56924 17.72307,3.56924 z m 0,-74.338466 q 12.55385,0 20.43078,8 7.87691,8 7.87691,20.553845 0,12.553851 -7.87691,20.553851 -7.87693,8 -20.43078,8 -5.66154,0 -10.83077,-2.09231 -5.16923,-2.09231 -9.10769,-5.90769 -3.93846,-3.81539 -6.27692,-9.10769 -2.33847,-5.29231 -2.33847,-11.446161 0,-6.399998 2.33847,-11.569229 2.33846,-5.169231 6.27692,-8.984616 3.93846,-3.815384 9.10769,-5.907692 5.16923,-2.092308 10.83077,-2.092308 z"
       id="path110"
       style="display:inline;stroke-width:0.246154"
       inkscape:label="Scout" />
  </g>
</svg>
