<?xml version="1.0" encoding="UTF-8" standalone="no"?>
<svg
   xmlns:dc="http://purl.org/dc/elements/1.1/"
   xmlns:cc="http://creativecommons.org/ns#"
   xmlns:rdf="http://www.w3.org/1999/02/22-rdf-syntax-ns#"
   xmlns:svg="http://www.w3.org/2000/svg"
   xmlns="http://www.w3.org/2000/svg"
   xmlns:sodipodi="http://sodipodi.sourceforge.net/DTD/sodipodi-0.dtd"
   xmlns:inkscape="http://www.inkscape.org/namespaces/inkscape"
   version="2.0"
   viewbox="0 0 256 256"
   id="svg6"
   sodipodi:docname="advantage.svg"
   inkscape:version="1.0.2-2 (e86c870879, 2021-01-15)">
  <metadata
     id="metadata12">
    <rdf:RDF>
      <cc:Work
         rdf:about="">
        <dc:format>image/svg+xml</dc:format>
        <dc:type
           rdf:resource="http://purl.org/dc/dcmitype/StillImage" />
        <dc:title></dc:title>
      </cc:Work>
    </rdf:RDF>
  </metadata>
  <defs
     id="defs10" />
  <sodipodi:namedview
     pagecolor="#ffffff"
     bordercolor="#666666"
     borderopacity="1"
     objecttolerance="10"
     gridtolerance="10"
     guidetolerance="10"
     inkscape:pageopacity="0"
     inkscape:pageshadow="2"
     inkscape:window-width="2604"
     inkscape:window-height="2054"
     id="namedview8"
     showgrid="false"
     inkscape:pagecheckerboard="true"
     inkscape:showpageshadow="false"
     showborder="false"
     inkscape:zoom="4.69"
     inkscape:cx="30.597015"
     inkscape:cy="109.11514"
     inkscape:window-x="-10"
     inkscape:window-y="0"
     inkscape:window-maximized="0"
     inkscape:current-layer="svg6" />
  <g
     id="g4"
     transform="translate(189,-329)">
    <path
       d="m -189,465 c 26.4,-45.6 53.6,-90.4 80,-136 26.4,45.6 53.6,90.4 80,136 v 0 0 0 c -26.4,-16.8 -52.8,-32.8 -80,-49.6 -26.4,16.8 -53.6,33.6 -80,49.6 z m 38.4,-39.2 v 0 c 13.6,-8 28,-16.8 41.6,-25.6 13.6,8.8 27.2,16.8 41.6,25.6 v 0 0 0 c -13.6,-23.2 -28,-46.4 -41.6,-70.4 -13.6,23.2 -28,46.4 -41.6,70.4 z"
       id="path2" />
  </g>
</svg>
