<?xml version="1.0" encoding="UTF-8" standalone="no"?>
<svg
   xmlns:dc="http://purl.org/dc/elements/1.1/"
   xmlns:cc="http://creativecommons.org/ns#"
   xmlns:rdf="http://www.w3.org/1999/02/22-rdf-syntax-ns#"
   xmlns:svg="http://www.w3.org/2000/svg"
   xmlns="http://www.w3.org/2000/svg"
   xmlns:sodipodi="http://sodipodi.sourceforge.net/DTD/sodipodi-0.dtd"
   xmlns:inkscape="http://www.inkscape.org/namespaces/inkscape"
   version="2.0"
   viewbox="0 0 256 256"
   id="svg6"
   sodipodi:docname="despair.svg"
   inkscape:version="1.0.2-2 (e86c870879, 2021-01-15)">
  <metadata
     id="metadata12">
    <rdf:RDF>
      <cc:Work
         rdf:about="">
        <dc:format>image/svg+xml</dc:format>
        <dc:type
           rdf:resource="http://purl.org/dc/dcmitype/StillImage" />
        <dc:title></dc:title>
      </cc:Work>
    </rdf:RDF>
  </metadata>
  <defs
     id="defs10" />
  <sodipodi:namedview
     pagecolor="#ffffff"
     bordercolor="#666666"
     borderopacity="1"
     objecttolerance="10"
     gridtolerance="10"
     guidetolerance="10"
     inkscape:pageopacity="0"
     inkscape:pageshadow="2"
     inkscape:window-width="2604"
     inkscape:window-height="2054"
     id="namedview8"
     showgrid="false"
     inkscape:pagecheckerboard="true"
     inkscape:showpageshadow="false"
     showborder="false"
     inkscape:zoom="4.69"
     inkscape:cx="-20.575693"
     inkscape:cy="66.471215"
     inkscape:window-x="-10"
     inkscape:window-y="0"
     inkscape:window-maximized="0"
     inkscape:current-layer="svg6" />
  <g
     id="g4"
     transform="matrix(1.6,0,0,1.5920398,302.4,-504.0398)">
    <path
       d="m -129.4,456.5 c -10.8,-5.2 -13.8,-6.5 -20.8,-12.4 -4.7,3 -15.9,10.3 -15.9,10.3 0,0 7.8,-12.5 10.4,-16.5 -7.1,-8.9 -10.2,-12.8 -12.7,-20.6 l -20.6,-20.6 20.6,-20.6 c 5.4,-11.7 5.4,-11.7 12.7,-20.6 L -166,339.7 c 5.3,3.4 10.5,6.9 15.8,10.3 13.5,-9.5 13.9,-8.8 26.6,-15 l 14.9,-18.4 c 0,0 12.9,15.5 17,20 10.9,3.9 10.9,3.9 23.5,13 4.5,-2.8 16.2,-9.9 16.2,-9.9 0,0 -7.7,11.8 -10.5,16 8.4,11.3 8.8,12.2 13.3,24.6 1.3,1.3 13.6,10.8 20.2,16.3 -8.1,6.7 -11.3,8.9 -18.2,14.6 l -15.1,26.6 c 3.2,5.5 7.1,10.3 10.3,15.8 -5.5,-3.4 -10.3,-6.8 -15.8,-10.3 -7.1,7.2 -11,9 -20.6,12.7 -5,5.4 -20.6,21.4 -20.6,21.4 z m 2.1,-58.4 c -7.9,-11.1 -15.1,-22.2 -23,-33.3 -17.4,20.6 -15.1,49.9 0,66.5 7.1,-11 15.1,-22.1 23,-33.2 z m -15.9,-40.4 c 11.1,7.1 22.2,15.1 33.3,22.2 11.1,-7.9 22.2,-15.1 33.3,-22.2 -19,-16.6 -47.6,-16.6 -66.6,0 z m 0,80.8 c 6.3,4.8 12.7,8.7 20.6,10.3 10.3,2.4 19.8,2.4 29.3,-0.8 6.3,-2.4 11.9,-5.5 16.6,-9.5 -11.1,-7.9 -22.2,-15.1 -33.3,-22.2 -11,7.1 -22.1,15.1 -33.2,22.2 z m 51.5,-40.4 c 7.9,11.1 15.1,22.2 23,33.3 15.1,-18.2 16.6,-47.5 0,-66.5 -7.9,11 -15.1,22.1 -23,33.2 z"
       id="path2" />
  </g>
</svg>
