<?xml version="1.0" encoding="UTF-8" standalone="no"?>
<svg
   xmlns:dc="http://purl.org/dc/elements/1.1/"
   xmlns:cc="http://creativecommons.org/ns#"
   xmlns:rdf="http://www.w3.org/1999/02/22-rdf-syntax-ns#"
   xmlns:svg="http://www.w3.org/2000/svg"
   xmlns="http://www.w3.org/2000/svg"
   xmlns:sodipodi="http://sodipodi.sourceforge.net/DTD/sodipodi-0.dtd"
   xmlns:inkscape="http://www.inkscape.org/namespaces/inkscape"
   version="2.0"
   viewbox="0 0 256 256"
   id="svg6"
   sodipodi:docname="success.svg"
   inkscape:version="1.0.2-2 (e86c870879, 2021-01-15)">
  <metadata
     id="metadata12">
    <rdf:RDF>
      <cc:Work
         rdf:about="">
        <dc:format>image/svg+xml</dc:format>
        <dc:type
           rdf:resource="http://purl.org/dc/dcmitype/StillImage" />
        <dc:title />
      </cc:Work>
    </rdf:RDF>
  </metadata>
  <defs
     id="defs10" />
  <sodipodi:namedview
     pagecolor="#ffffff"
     bordercolor="#666666"
     borderopacity="1"
     objecttolerance="10"
     gridtolerance="10"
     guidetolerance="10"
     inkscape:pageopacity="0"
     inkscape:pageshadow="2"
     inkscape:window-width="2604"
     inkscape:window-height="2054"
     id="namedview8"
     showgrid="false"
     inkscape:pagecheckerboard="true"
     inkscape:showpageshadow="false"
     showborder="false"
     inkscape:zoom="6.6326616"
     inkscape:cx="115.39342"
     inkscape:cy="111.82842"
     inkscape:window-x="0"
     inkscape:window-y="0"
     inkscape:window-maximized="0"
     inkscape:current-layer="svg6"
     inkscape:document-rotation="0"
     showguides="true"
     inkscape:guide-bbox="true"
     inkscape:snap-center="true">
    <sodipodi:guide
       position="128,22"
       orientation="-1,0"
       id="guide836"
       inkscape:label=""
       inkscape:locked="false"
       inkscape:color="rgb(0,0,255)" />
    <sodipodi:guide
       position="128,22"
       orientation="0,1"
       id="guide838"
       inkscape:label=""
       inkscape:locked="false"
       inkscape:color="rgb(0,0,255)" />
  </sodipodi:namedview>
  <path
     sodipodi:type="star"
     style="display:none;fill:#800000;stroke-width:1.67451"
     id="path831"
     sodipodi:sides="8"
     sodipodi:cx="127.99999"
     sodipodi:cy="127.99999"
     sodipodi:r1="127.99999"
     sodipodi:r2="63.999996"
     sodipodi:arg1="0.78539816"
     sodipodi:arg2="1.1780972"
     inkscape:flatsided="false"
     inkscape:rounded="0"
     inkscape:randomized="0"
     d="m 218.50966,218.50965 -66.01793,-31.38137 -24.49174,68.8717 -24.49173,-68.8717 L 37.49033,218.50966 68.871707,152.49173 0,127.99999 68.871705,103.50826 37.490329,37.49033 103.50825,68.871707 127.99999,0 l 24.49174,68.871705 66.01792,-31.381376 -31.38137,66.017921 68.8717,24.49174 -68.8717,24.49174 z" />
  <g
     id="g4"
     transform="matrix(1.5931244,0,0,1.6133396,301.52083,-512.41515)">
    <path
       id="path2"
       style="stroke-width:1.6032"
       inkscape:label="path2"
       d="M 128,0 C 124.9939,0.0587175 113.63282,64.180212 103.50781,68.871094 93.382803,73.561976 39.938723,35.038409 37.490234,37.490234 35.041745,39.942059 72.997382,92.184423 68.871094,103.50781 64.744806,114.8312 0.22733198,123.60233 0,128 c -0.22733198,4.39767 66.342391,12.59125 68.871094,24.49219 2.528703,11.90095 -32.885724,63.34449 -31.38086,66.01758 1.504864,2.67309 53.911058,-36.11487 66.017576,-31.38086 12.10652,4.73401 21.4693,68.78406 24.49219,68.87109 3.02289,0.087 10.31061,-64.59979 24.49219,-68.87109 14.18158,-4.2713 60.97083,35.22453 66.01758,31.38086 5.04675,-3.84367 -39.85517,-51.54901 -31.38086,-66.01758 C 195.60322,138.02362 255.76989,132.77626 256,128 c 0.23011,-4.77626 -64.09005,-7.84462 -68.87109,-24.49219 -4.78104,-16.647568 35.04199,-63.335948 31.38086,-66.017576 -3.66113,-2.681628 -52.52572,36.697944 -66.01758,31.38086 C 139.00033,63.55401 131.0061,-0.0587175 128,0 Z m 0,95.583984 c 17.90303,-10e-7 32.41602,14.512986 32.41602,32.416016 0,17.90303 -14.51299,32.41602 -32.41602,32.41602 C 110.09697,160.41602 95.583983,145.90303 95.583984,128 95.583985,110.09697 110.09697,95.583985 128,95.583984 Z"
       transform="matrix(0.62769737,0,0,0.6198323,-189.26383,317.61146)"
       sodipodi:nodetypes="zzzzzzzzzzzzzzzzzzzzzz" />
  </g>
</svg>
