<?xml version="1.0" encoding="UTF-8" standalone="no"?>
<svg
   xmlns:dc="http://purl.org/dc/elements/1.1/"
   xmlns:cc="http://creativecommons.org/ns#"
   xmlns:rdf="http://www.w3.org/1999/02/22-rdf-syntax-ns#"
   xmlns:svg="http://www.w3.org/2000/svg"
   xmlns="http://www.w3.org/2000/svg"
   xmlns:sodipodi="http://sodipodi.sourceforge.net/DTD/sodipodi-0.dtd"
   xmlns:inkscape="http://www.inkscape.org/namespaces/inkscape"
   version="2.0"
   viewbox="0 0 256 256"
   id="svg6"
   sodipodi:docname="success.svg"
   inkscape:version="1.0.2-2 (e86c870879, 2021-01-15)">
  <metadata
     id="metadata12">
    <rdf:RDF>
      <cc:Work
         rdf:about="">
        <dc:format>image/svg+xml</dc:format>
        <dc:type
           rdf:resource="http://purl.org/dc/dcmitype/StillImage" />
        <dc:title></dc:title>
      </cc:Work>
    </rdf:RDF>
  </metadata>
  <defs
     id="defs10" />
  <sodipodi:namedview
     pagecolor="#ffffff"
     bordercolor="#666666"
     borderopacity="1"
     objecttolerance="10"
     gridtolerance="10"
     guidetolerance="10"
     inkscape:pageopacity="0"
     inkscape:pageshadow="2"
     inkscape:window-width="2604"
     inkscape:window-height="2054"
     id="namedview8"
     showgrid="false"
     inkscape:pagecheckerboard="true"
     inkscape:showpageshadow="false"
     showborder="false"
     inkscape:zoom="4.69"
     inkscape:cx="141.47122"
     inkscape:cy="143.23028"
     inkscape:window-x="-10"
     inkscape:window-y="0"
     inkscape:window-maximized="0"
     inkscape:current-layer="svg6" />
  <g
     id="g4"
     transform="matrix(1.5931244,0,0,1.5931244,301.52083,-505.99458)">
    <path
       d="m -145.2,380.7 c 1.6,-3.5 -8.2,-22.3 -19.9,-38.2 -0.7,-0.6 -0.2,-1.3 0.8,-0.8 20.3,14.7 36.6,20.5 41.5,18.7 7.8,-4 13.9,-42.4 13.9,-42.4 0.1,-0.5 0.5,-0.5 0.7,-0.1 2.7,11.3 7.7,37.4 17.2,43.1 4.9,3 28.5,-13.7 37.5,-20 0.7,-0.5 1.3,0.1 0.8,0.8 0,0 -20.5,35.2 -18.6,41.3 1.2,3.7 30.1,11.5 41.9,13.6 1,0.2 1.2,1.4 0,1.6 -10.8,1.6 -39,6.7 -41.8,12.6 -3,6.3 10.8,30.5 17.8,40.9 0.6,0.7 0,1.4 -0.8,0.8 -22.7,-15.7 -34.6,-20 -37.7,-18.8 -2.9,1.1 -13,31.1 -16.3,42.1 -0.2,0.6 -0.6,0.4 -0.7,0.1 -2,-9.1 -11.3,-39.8 -14.9,-41.1 -5,-2 -30.5,11.9 -39.8,17.5 -0.5,0.3 -1.1,-0.1 -0.7,-0.7 9.8,-15.6 18.2,-38.1 17.4,-41.8 -1,-4.9 -22.5,-9.5 -42.1,-12.6 -0.3,0 -0.4,-0.6 0,-0.7 16.9,-3.7 42.2,-12.2 43.8,-15.9 z m 36.4,36.6 c 10.3,0 20.7,-9.6 20.7,-20.7 0,-11.1 -9.6,-20.7 -20.7,-20.7 -11.1,0 -20.7,9.6 -20.7,19.9 0,11.9 10.3,21.5 20.7,21.5 z"
       id="path2" />
  </g>
</svg>
