<?xml version="1.0" encoding="UTF-8" standalone="no"?>
<svg
   xmlns:dc="http://purl.org/dc/elements/1.1/"
   xmlns:cc="http://creativecommons.org/ns#"
   xmlns:rdf="http://www.w3.org/1999/02/22-rdf-syntax-ns#"
   xmlns:svg="http://www.w3.org/2000/svg"
   xmlns="http://www.w3.org/2000/svg"
   xmlns:sodipodi="http://sodipodi.sourceforge.net/DTD/sodipodi-0.dtd"
   xmlns:inkscape="http://www.inkscape.org/namespaces/inkscape"
   version="2.0"
   viewbox="0 0 256 256"
   id="svg8"
   sodipodi:docname="threat.svg"
   inkscape:version="1.0.2-2 (e86c870879, 2021-01-15)">
  <metadata
     id="metadata14">
    <rdf:RDF>
      <cc:Work
         rdf:about="">
        <dc:format>image/svg+xml</dc:format>
        <dc:type
           rdf:resource="http://purl.org/dc/dcmitype/StillImage" />
        <dc:title></dc:title>
      </cc:Work>
    </rdf:RDF>
  </metadata>
  <defs
     id="defs12" />
  <sodipodi:namedview
     pagecolor="#ffffff"
     bordercolor="#666666"
     borderopacity="1"
     objecttolerance="10"
     gridtolerance="10"
     guidetolerance="10"
     inkscape:pageopacity="0"
     inkscape:pageshadow="2"
     inkscape:window-width="2604"
     inkscape:window-height="2054"
     id="namedview10"
     showgrid="false"
     inkscape:pagecheckerboard="true"
     inkscape:showpageshadow="false"
     showborder="false"
     inkscape:zoom="6.6326616"
     inkscape:cx="143.93181"
     inkscape:cy="108.92342"
     inkscape:window-x="-10"
     inkscape:window-y="0"
     inkscape:window-maximized="0"
     inkscape:current-layer="svg8" />
  <style
     type="text/css"
     id="style2">
	.st0{fill:#010101;}
</style>
  <g
     id="g6"
     transform="matrix(1.6070308,0,0,1.6221616,303.2467,-516.0096)">
    <path
       class="st0"
       d="m -171.1,428.3 v -0.2 c -0.8,-3.2 -1.3,-5.3 -1.6,-8.8 -0.3,-3.1 -0.2,-6.3 0,-9.6 0.5,-9.3 2.4,-17.5 5.6,-25.5 8,-16.7 23.1,-29.5 40.6,-33.4 0.8,0 1.6,-0.8 2.4,-1.6 4,-4.8 7.2,-9.6 9.6,-15.1 2.69243,-5.37039 3.91913,-11.06484 4.8,-16 v 0 c 0.8,5.6 3.2,10.3 5.6,15.9 3.2078,6.04911 6.171722,11.67172 10.4,15.9 7.2,2.4 14.3,5.6 20.7,9.6 12.5,9.7 20.4,21.6 24.4,36.7 0.8,3.2 1.6,6.4 1.6,9.6 v 10.3 c 0,4 -0.8,7.2 -1.6,11.1 v 1.6 c 5.147894,10.82527 9.778895,21.42724 19.2,28.7 v 0 c -11.378003,-4.16923 -22.771275,-3.77491 -33.4,-1.6 -0.6,0.4 -0.2,0 -0.8,0.8 -2.4,3.2 -5.6,5.6 -8.8,8 -7.2,5.6 -15.9,8.8 -24.7,10.3 -4.8,0.8 -8.5,1.1 -14.3,0.8 -15.9,-0.8 -31.5,-8 -42.7,-19.9 -12.67219,-3.01909 -24.27038,0.77619 -34.6,1.9 7.87442,-6.91301 15.73783,-21.28885 17.6,-29.5 z m 49.3,-10.6 c -10.78165,9.47503 -14.67089,21.05546 -19.9,31.9 l 2.4,2.4 c 8,5.6 15.9,8.8 25.5,9.6 4,0 8.8,0 12.7,-0.8 8,-1.6 15.1,-4.8 21.5,-9.6 l 0.8,-0.8 v 0 c -4.730327,-11.7373 -9.78177,-23.56594 -19.2,-31 v 0 c 12.802918,3.52409 24.250418,3.7418 36.6,0.8 0.5,-0.9 0.5,-1.3 0.8,-2.4 0.8,-4.8 0.8,-9.6 0,-14.3 -1.6,-7.2 -4,-14.3 -8.8,-20.7 -5.6,-8 -13.5,-13.5 -22.3,-17.5 v 0 c -8.8,9.6 -15.1,20.7 -17.5,33.4 -1.65129,-12.34991 -10.4369,-25.32451 -17.5,-33.5 0,0 0,0.8 0,0 -18.3,6.4 -36.6,26.3 -31.8,54.1 12.32154,2.4929 24.92082,3.26713 36.7,-1.6 z"
       id="path4"
       sodipodi:nodetypes="cccccccccsccccsscccccsccccccccccccccccccccssccccc" />
  </g>
</svg>
