<?xml version="1.0" encoding="UTF-8" standalone="no"?>
<svg
   xmlns:dc="http://purl.org/dc/elements/1.1/"
   xmlns:cc="http://creativecommons.org/ns#"
   xmlns:rdf="http://www.w3.org/1999/02/22-rdf-syntax-ns#"
   xmlns:svg="http://www.w3.org/2000/svg"
   xmlns="http://www.w3.org/2000/svg"
   xmlns:sodipodi="http://sodipodi.sourceforge.net/DTD/sodipodi-0.dtd"
   xmlns:inkscape="http://www.inkscape.org/namespaces/inkscape"
   version="2.0"
   viewbox="0 0 256 256"
   id="svg8"
   sodipodi:docname="threat.svg"
   inkscape:version="1.0.2-2 (e86c870879, 2021-01-15)">
  <metadata
     id="metadata14">
    <rdf:RDF>
      <cc:Work
         rdf:about="">
        <dc:format>image/svg+xml</dc:format>
        <dc:type
           rdf:resource="http://purl.org/dc/dcmitype/StillImage" />
        <dc:title />
      </cc:Work>
    </rdf:RDF>
  </metadata>
  <defs
     id="defs12" />
  <sodipodi:namedview
     pagecolor="#ffffff"
     bordercolor="#666666"
     borderopacity="1"
     objecttolerance="10"
     gridtolerance="10"
     guidetolerance="10"
     inkscape:pageopacity="0"
     inkscape:pageshadow="2"
     inkscape:window-width="2604"
     inkscape:window-height="2054"
     id="namedview10"
     showgrid="false"
     inkscape:pagecheckerboard="true"
     inkscape:showpageshadow="false"
     showborder="false"
     inkscape:zoom="2.345"
     inkscape:cx="-41.020545"
     inkscape:cy="255.86195"
     inkscape:window-x="0"
     inkscape:window-y="0"
     inkscape:window-maximized="0"
     inkscape:current-layer="svg8"
     inkscape:document-rotation="0"
     showguides="true"
     inkscape:guide-bbox="true"
     inkscape:snap-center="true"
     inkscape:snap-bbox="false"
     inkscape:snap-intersection-paths="true">
    <sodipodi:guide
       position="49.150706,157.68922"
       orientation="0,-1"
       id="guide832" />
  </sodipodi:namedview>
  <style
     type="text/css"
     id="style2">
	.st0{fill:#010101;}
</style>
  <circle
     style="display:none;fill:#800000;stroke:none;stroke-width:25.2112;stroke-miterlimit:4;stroke-dasharray:none;stroke-opacity:1"
     id="path895"
     cx="128"
     cy="128"
     r="25.932274" />
  <path
     class="st0"
     d="m 28.286655,154.03609 v -0.32443 C 22.42223,130.80631 27.788427,95.241797 42.404002,71.643385 55.731318,50.12499 86.256115,34.560349 103.66633,26.778484 c 12.5511,-15.207376 18.32171,-32.4188515 24.33951,-51.504605 6.66829,18.6181825 12.57753,38.668148 24.66499,51.58474 11.57062,3.893187 22.98054,9.084104 33.26553,15.57275 20.08789,15.734968 32.78343,35.038691 39.21156,59.533331 1.28562,5.19092 2.57125,10.38183 2.57125,15.57275 v 16.70827 c -0.77998,8.2314 -0.91279,13.03329 -2.57125,20.60145 8.27282,17.56034 17.0719,32.49691 30.85499,46.55604 -19.53849,-3.90909 -37.56527,-5.80502 -53.67483,-2.59546 -20.18238,17.54788 -51.19463,32.77089 -78.10169,32.28101 C 98.674605,229.79103 73.604923,218.11147 55.606178,198.80775 35.241579,193.9103 16.60293,200.06685 0.00291159,201.88985 12.657348,190.67584 25.29409,167.3559 28.286655,154.03609 Z m 79.226615,-17.19492 c -17.326445,15.37003 -23.576569,34.15536 -31.97991,51.74696 18.930715,15.11473 42.58459,22.65024 65.24545,18.16821 13.128,-4.35477 27.21509,-8.16762 35.83678,-16.87048 -9.58136,-18.73861 -17.29284,-39.05307 -30.855,-50.28701 21.30448,4.29217 41.39049,5.32633 58.81733,1.29773 3.02796,-8.15144 2.54357,-19.32796 1.28563,-27.0901 C 203.2923,102.12692 199.43542,90.609569 191.72168,80.227735 182.7223,67.250442 170.02676,58.328553 155.88489,51.839907 v 0 C 141.74302,67.412658 131.61873,85.418652 127.76186,106.0201 125.10818,85.986554 110.98944,64.939657 99.638825,51.677691 c 0,0 0,1.297729 0,0 -29.408667,10.381834 -58.81733,42.66285 -51.103582,87.758939 19.801094,4.04389 40.048522,5.29982 58.978027,-2.59546 z"
     id="path843-7"
     sodipodi:nodetypes="ccacccccsccccccccccccccccssccccc"
     style="display:none;fill:#010101;stroke-width:1.61458" />
  <path
     id="path884"
     style="display:none;fill:#010101;stroke-width:1.61633"
     d="m 128.08177,63.998319 c -6.30939,36.794581 -22.4648,56.744271 -30.078858,64.150021 11.431818,13.19647 24.541578,37.28153 30.078858,63.84998 6.36404,-27.11389 16.22819,-49.4181 29.92114,-63.84998 -15.50744,-16.05487 -22.79767,-27.61011 -29.92114,-64.150021 z"
     inkscape:label="pip"
     sodipodi:nodetypes="ccccc" />
  <g
     id="g905"
     style="display:inline">
    <path
       id="path891"
       style="display:inline;fill:#010101;stroke-width:1.61633"
       d="M 128.00291,-25.932271 C 121.69352,10.86231 105.53811,30.812 97.924051,38.21775 109.35587,51.41422 122.46563,75.49928 128.00291,102.06773 134.36695,74.95384 144.2311,52.64963 157.92405,38.21775 142.41661,22.16288 135.12638,10.60764 128.00291,-25.932271 Z"
       inkscape:label="pip"
       sodipodi:nodetypes="ccccc" />
    <path
       id="path893"
       style="display:inline;fill:#010101;stroke-width:1.61633"
       d="m 261.30925,204.96614 c -28.71034,-23.86138 -37.90957,-47.82722 -40.51611,-58.12406 -17.14439,3.30201 -44.55754,2.61286 -70.33513,-5.87594 20.29929,19.06837 34.68323,38.76308 40.33513,57.83746 21.65764,-5.4024 35.30989,-5.9383 70.51611,6.16254 z"
       inkscape:label="pip"
       sodipodi:nodetypes="ccccc" />
    <path
       id="path899"
       style="display:inline;fill:#010101;stroke-width:1.61633"
       d="m 105.54199,140.96614 c -35.019728,12.9332 -60.374378,8.91705 -70.594968,6.02596 -5.71257,16.49848 -20.015965,39.89439 -40.2562736,57.97404 26.6633336,-8.04552 50.9114236,-10.65502 70.2562736,-6.01252 6.1502,-21.45727 12.51222,-33.54841 40.594968,-57.98748 z"
       inkscape:label="pip"
       sodipodi:nodetypes="ccccc" />
    <circle
       style="display:inline;fill:none;stroke:#000000;stroke-width:22.866;stroke-miterlimit:4;stroke-dasharray:none;stroke-opacity:1"
       id="path839"
       cx="128.00291"
       cy="127.99832"
       r="90.703888" />
  </g>
  <path
     class="st0"
     d="m -302.20375,173.22586 v -0.32443 c -5.86443,-22.90535 -0.49823,-58.46987 14.11735,-82.06828 13.32731,-21.518395 43.85211,-37.083036 61.26232,-44.864901 12.5511,-15.207376 18.32171,-32.418851 24.33951,-51.5046045 6.66829,18.6181825 12.57753,38.6681475 24.66499,51.5847395 11.57062,3.893187 22.98054,9.084104 33.26553,15.57275 20.08789,15.734968 32.78343,35.038691 39.21156,59.533336 1.28562,5.19092 2.57125,10.38183 2.57125,15.57275 v 16.70827 c -0.77998,8.2314 -0.91279,13.03329 -2.57125,20.60145 8.272825,17.56034 17.071905,32.49691 30.854995,46.55604 -19.53849,-3.90909 -37.565275,-5.80502 -53.674835,-2.59546 -20.18238,17.54788 -51.19463,32.77089 -78.10169,32.28101 -25.55178,-1.29773 -50.62146,-12.97729 -68.62021,-32.28101 -20.3646,-4.89745 -39.00325,1.2591 -55.60326,3.0821 12.65443,-11.21401 25.29117,-34.53395 28.28374,-47.85376 z m 79.22661,-17.19492 c -17.32644,15.37003 -23.57656,34.15536 -31.97991,51.74696 18.93072,15.11473 42.58459,22.65024 65.24545,18.16821 13.128,-4.35477 27.21509,-8.16762 35.83678,-16.87048 -9.58136,-18.73861 -17.29284,-39.05307 -30.855,-50.28701 21.30448,4.29217 41.39049,5.32633 58.81733,1.29773 3.02796,-8.15144 2.54357,-19.32796 1.28563,-27.0901 -2.57125,-11.67956 -6.42813,-23.19692 -14.14187,-33.57875 -8.99938,-12.977293 -21.69492,-21.899182 -35.83679,-28.387828 v 0 c -14.14187,15.572751 -24.26616,33.578748 -28.12303,54.180198 -2.65368,-20.03355 -16.77242,-41.080448 -28.12303,-54.342414 0,0 0,1.297729 0,0 -29.40867,10.381834 -58.81733,42.662854 -51.10358,87.758944 19.80109,4.04389 40.04852,5.29982 58.97802,-2.59546 z"
     id="path907"
     sodipodi:nodetypes="ccacccccsccccccccccccccccssccccc"
     style="display:none;fill:#010101;stroke-width:1.61458" />
</svg>
