<?xml version="1.0" encoding="UTF-8" standalone="no"?>
<svg
   xmlns:dc="http://purl.org/dc/elements/1.1/"
   xmlns:cc="http://creativecommons.org/ns#"
   xmlns:rdf="http://www.w3.org/1999/02/22-rdf-syntax-ns#"
   xmlns:svg="http://www.w3.org/2000/svg"
   xmlns="http://www.w3.org/2000/svg"
   xmlns:sodipodi="http://sodipodi.sourceforge.net/DTD/sodipodi-0.dtd"
   xmlns:inkscape="http://www.inkscape.org/namespaces/inkscape"
   version="2.0"
   viewbox="0 0 256 256"
   id="svg6"
   sodipodi:docname="triumph.svg"
   inkscape:version="1.0.2-2 (e86c870879, 2021-01-15)">
  <metadata
     id="metadata12">
    <rdf:RDF>
      <cc:Work
         rdf:about="">
        <dc:format>image/svg+xml</dc:format>
        <dc:type
           rdf:resource="http://purl.org/dc/dcmitype/StillImage" />
        <dc:title />
      </cc:Work>
    </rdf:RDF>
  </metadata>
  <defs
     id="defs10" />
  <sodipodi:namedview
     pagecolor="#ffffff"
     bordercolor="#666666"
     borderopacity="1"
     objecttolerance="10"
     gridtolerance="10"
     guidetolerance="10"
     inkscape:pageopacity="0"
     inkscape:pageshadow="2"
     inkscape:window-width="2046"
     inkscape:window-height="1401"
     id="namedview8"
     showgrid="false"
     inkscape:pagecheckerboard="true"
     inkscape:showpageshadow="false"
     showborder="false"
     inkscape:zoom="3.3163308"
     inkscape:cx="92.182111"
     inkscape:cy="179.01527"
     inkscape:window-x="0"
     inkscape:window-y="0"
     inkscape:window-maximized="0"
     inkscape:current-layer="svg6"
     inkscape:document-rotation="0"
     showguides="true"
     inkscape:guide-bbox="true"
     inkscape:snap-center="true" />
  <g
     id="g837">
    <path
       style="color:#000000;font-style:normal;font-variant:normal;font-weight:normal;font-stretch:normal;font-size:medium;line-height:normal;font-family:sans-serif;font-variant-ligatures:normal;font-variant-position:normal;font-variant-caps:normal;font-variant-numeric:normal;font-variant-alternates:normal;font-variant-east-asian:normal;font-feature-settings:normal;font-variation-settings:normal;text-indent:0;text-align:start;text-decoration:none;text-decoration-line:none;text-decoration-style:solid;text-decoration-color:#000000;letter-spacing:normal;word-spacing:normal;text-transform:none;writing-mode:lr-tb;direction:ltr;text-orientation:mixed;dominant-baseline:auto;baseline-shift:baseline;text-anchor:start;white-space:normal;shape-padding:0;shape-margin:0;inline-size:0;clip-rule:nonzero;display:inline;overflow:visible;visibility:visible;isolation:auto;mix-blend-mode:normal;color-interpolation:sRGB;color-interpolation-filters:linearRGB;solid-color:#000000;solid-opacity:1;vector-effect:none;fill:#000000;fill-opacity:1;fill-rule:nonzero;stroke:none;stroke-linecap:butt;stroke-linejoin:miter;stroke-miterlimit:4;stroke-dasharray:none;stroke-dashoffset:0;stroke-opacity:1;color-rendering:auto;image-rendering:auto;shape-rendering:auto;text-rendering:auto;enable-background:accumulate;stop-color:#000000"
       d="M 128,-0.26171875 C 57.318291,-0.26171875 -0.26171875,57.318291 -0.26171875,128 -0.26171875,198.68171 57.318291,256.26172 128,256.26172 198.68171,256.26172 256.26172,198.68171 256.26172,128 256.26172,57.318291 198.68171,-0.26171875 128,-0.26171875 Z m 0,26.29687475 c 56.46905,0 101.96484,45.495791 101.96484,101.964844 0,56.46905 -45.49579,101.96484 -101.96484,101.96484 C 71.530947,229.96484 26.035156,184.46905 26.035156,128 26.035156,71.530947 71.530947,26.035156 128,26.035156 Z"
       id="path845" />
    <path
       id="path2-1"
       style="fill:#000000;stroke-width:1.6032"
       inkscape:label="path2"
       d="M 127.99998,-5.7192274e-5 C 124.99388,0.05866281 113.6328,64.180155 103.50779,68.871037 93.382792,73.561919 39.938709,35.038352 37.49022,37.490177 35.041731,39.942002 72.997368,92.184366 68.87108,103.50775 64.744792,114.83114 0.22731756,123.60227 -1.4442924e-5,127.99994 -0.22734644,132.39761 66.342377,140.59119 68.87108,152.49214 c 2.528703,11.90095 -32.885724,63.34449 -31.38086,66.01758 1.504864,2.67309 53.911062,-36.11487 66.01757,-31.38086 12.10652,4.73401 21.4693,68.78406 24.49219,68.87109 3.02289,0.087 10.31061,-64.59979 24.49219,-68.87109 14.18158,-4.2713 60.97083,35.22453 66.01758,31.38086 5.04675,-3.84367 -39.85517,-51.54901 -31.38086,-66.01758 8.47431,-14.46858 68.64098,-19.71594 68.87109,-24.4922 0.23011,-4.77626 -64.09005,-7.84462 -68.87109,-24.49219 -4.78104,-16.647565 35.04199,-63.335945 31.38086,-66.017573 -3.66113,-2.681628 -52.52572,36.697944 -66.01758,31.38086 C 139.00031,63.553953 131.00608,-0.05877419 127.99998,-5.7192274e-5 Z m 0,95.583984192274 c 17.90303,-10e-7 32.41602,14.512983 32.41602,32.416013 0,17.90303 -14.51299,32.41603 -32.41602,32.41603 -17.90303,0 -32.416008,-14.513 -32.416008,-32.41603 0,-17.90303 14.512978,-32.416012 32.416008,-32.416013 z"
       sodipodi:nodetypes="zzzzzzzzzzzzzzzzzzzzzz" />
  </g>
</svg>
