<?xml version="1.0" encoding="UTF-8" standalone="no"?>
<svg
   xmlns:dc="http://purl.org/dc/elements/1.1/"
   xmlns:cc="http://creativecommons.org/ns#"
   xmlns:rdf="http://www.w3.org/1999/02/22-rdf-syntax-ns#"
   xmlns:svg="http://www.w3.org/2000/svg"
   xmlns="http://www.w3.org/2000/svg"
   xmlns:sodipodi="http://sodipodi.sourceforge.net/DTD/sodipodi-0.dtd"
   xmlns:inkscape="http://www.inkscape.org/namespaces/inkscape"
   version="2.0"
   viewbox="0 0 256 256"
   id="svg6"
   sodipodi:docname="triumph.svg"
   inkscape:version="1.0.2-2 (e86c870879, 2021-01-15)">
  <metadata
     id="metadata12">
    <rdf:RDF>
      <cc:Work
         rdf:about="">
        <dc:format>image/svg+xml</dc:format>
        <dc:type
           rdf:resource="http://purl.org/dc/dcmitype/StillImage" />
        <dc:title />
      </cc:Work>
    </rdf:RDF>
  </metadata>
  <defs
     id="defs10" />
  <sodipodi:namedview
     pagecolor="#ffffff"
     bordercolor="#666666"
     borderopacity="1"
     objecttolerance="10"
     gridtolerance="10"
     guidetolerance="10"
     inkscape:pageopacity="0"
     inkscape:pageshadow="2"
     inkscape:window-width="2046"
     inkscape:window-height="2054"
     id="namedview8"
     showgrid="false"
     inkscape:pagecheckerboard="true"
     inkscape:showpageshadow="false"
     showborder="false"
     inkscape:zoom="3.3163308"
     inkscape:cx="92.182111"
     inkscape:cy="179.01527"
     inkscape:window-x="-10"
     inkscape:window-y="0"
     inkscape:window-maximized="0"
     inkscape:current-layer="svg6"
     inkscape:document-rotation="0"
     showguides="true"
     inkscape:guide-bbox="true"
     inkscape:snap-center="true" />
  <path
     d="m 256.29896,119.43382 c 0.32023,7.5254 0.96069,30.74207 -10.56758,56.20034 -23.21667,51.71713 -80.05747,77.1754 -120.88678,77.65575 C 90.87684,250.52477 59.709638,239.17435 40.78426,223.02819 14.685525,199.97163 5.5589735,171.47118 2.3566747,156.42037 -3.7276929,127.91991 1.5561001,104.54313 4.9185138,93.655316 5.8792034,90.292902 21.730582,40.337041 68.964489,16.800145 96.504255,3.0302605 125.9654,2.7100306 131.72954,2.7100306 v 0 c 9.76701,0.160115 24.97793,1.4410345 42.27035,7.6855174 9.60689,3.522528 48.03448,18.893562 69.16965,60.203217 10.40747,20.494712 12.64908,39.068045 13.12942,48.835055 z m -129.53298,38.90793 c 15.37103,0 33.30391,-10.88781 33.30391,-31.38253 0,-17.93287 -14.09012,-32.022985 -33.30391,-32.022985 -16.33172,0 -32.022989,14.890685 -32.022989,32.022985 0,21.77563 18.413219,31.38253 32.022989,31.38253 z m 5.12368,-134.976892 c 3.62862,17.019689 8.31693,30.409221 17.45253,44.191723 C 166.95662,63.710844 182.05504,58.2169 197.21655,50.264167 167.7554,30.730145 166.15425,30.57003 131.88966,23.364858 Z M 48.629892,198.69072 c 5.744636,-15.66613 12.698428,-31.40815 16.651954,-46.11311 -13.455083,-6.13155 -24.355628,-12.47622 -42.270344,-19.21379 0.160115,25.61839 8.966436,47.39402 25.61839,65.3269 z M 47.509087,57.789569 C 31.998001,76.711312 23.300381,98.085264 21.890697,123.11646 38.183401,117.45719 50.751175,111.19655 64.161041,102.62175 60.798627,86.770373 54.0738,70.278535 47.509087,57.789569 Z M 120.68161,23.364858 C 95.938633,26.009924 75.275259,33.41801 56.315409,50.264167 73.934809,60.583239 90.686303,66.435776 103.4955,67.556581 112.5117,52.917624 117.79954,43.53934 120.68161,23.364858 Z m 11.04793,209.910682 c 25.05013,-1.94903 46.09765,-9.71115 65.3269,-26.89931 -13.8809,-9.09875 -27.98502,-14.14237 -44.83219,-16.65195 -10.08724,10.88781 -18.2531,26.41896 -20.49471,43.55126 z m 52.03736,-78.45632 c 5.34167,20.3346 9.92712,30.26173 20.97505,43.8715 15.55661,-20.00552 24.85175,-39.80732 26.89931,-65.3269 -20.01436,5.44391 -32.50333,8.00575 -47.87436,21.4554 z m 20.97505,-97.029651 c -12.57859,14.162791 -17.37227,34.024025 -18.09298,48.835061 13.28954,9.76701 28.9808,12.64908 44.99229,16.49183 -1.81368,-23.999095 -7.36413,-43.395147 -26.89931,-65.326891 z M 120.36138,233.27554 v 0 c -3.9444,-17.43848 -11.60766,-30.93557 -19.69414,-44.35184 -16.207327,4.1281 -29.615076,10.17425 -43.279445,17.00644 21.733009,11.7064 41.351905,26.63888 62.973585,27.3454 z"
     id="path2"
     sodipodi:nodetypes="cccccccsscccsssssccccccccccccccccccccccccccccccccc"
     style="display:none;stroke-width:1.60115" />
  <g
     id="g849"
     style="display:inline">
    <path
       id="path2-1"
       style="fill:#000000;stroke-width:1.6032"
       inkscape:label="path2"
       d="M 127.99998,-5.7192274e-5 C 124.99388,0.05866281 113.6328,64.180155 103.50779,68.871037 93.382792,73.561919 39.938709,35.038352 37.49022,37.490177 35.041731,39.942002 72.997368,92.184366 68.87108,103.50775 64.744792,114.83114 0.22731756,123.60227 -1.4442924e-5,127.99994 -0.22734644,132.39761 66.342377,140.59119 68.87108,152.49214 c 2.528703,11.90095 -32.885724,63.34449 -31.38086,66.01758 1.504864,2.67309 53.911062,-36.11487 66.01757,-31.38086 12.10652,4.73401 21.4693,68.78406 24.49219,68.87109 3.02289,0.087 10.31061,-64.59979 24.49219,-68.87109 14.18158,-4.2713 60.97083,35.22453 66.01758,31.38086 5.04675,-3.84367 -39.85517,-51.54901 -31.38086,-66.01758 8.47431,-14.46858 68.64098,-19.71594 68.87109,-24.4922 0.23011,-4.77626 -64.09005,-7.84462 -68.87109,-24.49219 -4.78104,-16.647565 35.04199,-63.335945 31.38086,-66.017573 -3.66113,-2.681628 -52.52572,36.697944 -66.01758,31.38086 C 139.00031,63.553953 131.00608,-0.05877419 127.99998,-5.7192274e-5 Z m 0,95.583984192274 c 17.90303,-10e-7 32.41602,14.512983 32.41602,32.416013 0,17.90303 -14.51299,32.41603 -32.41602,32.41603 -17.90303,0 -32.416008,-14.513 -32.416008,-32.41603 0,-17.90303 14.512978,-32.416012 32.416008,-32.416013 z"
       sodipodi:nodetypes="zzzzzzzzzzzzzzzzzzzzzz" />
    <path
       style="color:#000000;font-style:normal;font-variant:normal;font-weight:normal;font-stretch:normal;font-size:medium;line-height:normal;font-family:sans-serif;font-variant-ligatures:normal;font-variant-position:normal;font-variant-caps:normal;font-variant-numeric:normal;font-variant-alternates:normal;font-variant-east-asian:normal;font-feature-settings:normal;font-variation-settings:normal;text-indent:0;text-align:start;text-decoration:none;text-decoration-line:none;text-decoration-style:solid;text-decoration-color:#000000;letter-spacing:normal;word-spacing:normal;text-transform:none;writing-mode:lr-tb;direction:ltr;text-orientation:mixed;dominant-baseline:auto;baseline-shift:baseline;text-anchor:start;white-space:normal;shape-padding:0;shape-margin:0;inline-size:0;clip-rule:nonzero;display:inline;overflow:visible;visibility:visible;opacity:1;isolation:auto;mix-blend-mode:normal;color-interpolation:sRGB;color-interpolation-filters:linearRGB;solid-color:#000000;solid-opacity:1;vector-effect:none;fill:#000000;fill-opacity:1;fill-rule:nonzero;stroke:none;stroke-linecap:butt;stroke-linejoin:miter;stroke-miterlimit:4;stroke-dasharray:none;stroke-dashoffset:0;stroke-opacity:1;color-rendering:auto;image-rendering:auto;shape-rendering:auto;text-rendering:auto;enable-background:accumulate;stop-color:#000000;stop-opacity:1"
       d="M 128,-0.26171875 C 57.318291,-0.26171875 -0.26171875,57.318291 -0.26171875,128 -0.26171875,198.68171 57.318291,256.26172 128,256.26172 198.68171,256.26172 256.26172,198.68171 256.26172,128 256.26172,57.318291 198.68171,-0.26171875 128,-0.26171875 Z m 0,26.29687475 c 56.46905,0 101.96484,45.495791 101.96484,101.964844 0,56.46905 -45.49579,101.96484 -101.96484,101.96484 C 71.530947,229.96484 26.035156,184.46905 26.035156,128 26.035156,71.530947 71.530947,26.035156 128,26.035156 Z"
       id="path845" />
  </g>
</svg>
