<?xml version="1.0" encoding="utf-8"?>
<!-- Generator: Adobe Illustrator 19.0.0, SVG Export Plug-In . SVG Version: 6.00 Build 0)  -->
<svg version="1.1" id="Layer_1" xmlns="http://www.w3.org/2000/svg" xmlns:xlink="http://www.w3.org/1999/xlink" x="0px" y="0px"
	 viewBox="-293 385 24 24" style="enable-background:new -293 385 24 24;" xml:space="preserve">
<g>
	<path d="M-286.1,402.8c-0.7,0.4-1.3,0.9-2,1.3c0.1-0.2,0.3-0.5,0.4-0.7c0.1-0.2,0.3-0.4,0.4-0.7c0.1-0.2,0.3-0.4,0.5-0.7
		c0,0,0,0-0.1-0.1c-0.6-0.7-1-1.4-1.4-2.3c0-0.1-0.1-0.1-0.1-0.2c-0.8-0.8-1.7-1.7-2.5-2.5c0,0-0.1-0.1-0.1-0.1c0,0,0.1-0.1,0.1-0.1
		c0.8-0.8,1.7-1.7,2.5-2.5c0,0,0.1-0.1,0.1-0.2c0.3-0.8,0.8-1.6,1.4-2.3c0,0,0,0,0.1-0.1c0,0,0,0,0,0c-0.4-0.7-0.9-1.3-1.3-2
		c0,0,0,0,0,0c0.7,0.4,1.3,0.9,2,1.3c0,0,0.1-0.1,0.1-0.1c0.5-0.4,1-0.8,1.6-1.1c0.2-0.1,0.4-0.2,0.7-0.3c0.1,0,0.1-0.1,0.2-0.1
		c0.8-0.8,1.7-1.7,2.5-2.5c0,0,0.1-0.1,0.1-0.1c0.2,0.2,0.4,0.4,0.6,0.6c0.7,0.7,1.4,1.3,2,2c0,0,0.1,0.1,0.1,0.1
		c0.4,0.2,0.9,0.4,1.3,0.6c0.4,0.2,0.7,0.5,1.1,0.8c0,0,0,0,0.1,0.1c0.7-0.4,1.3-0.9,2-1.3c0,0,0,0,0,0c-0.4,0.7-0.9,1.3-1.3,2
		c0,0,0,0.1,0.1,0.1c0.3,0.3,0.6,0.7,0.8,1.1c0.2,0.4,0.5,0.8,0.6,1.2c0,0.1,0.1,0.1,0.1,0.2c0.8,0.8,1.6,1.5,2.3,2.3
		c0.1,0.1,0.2,0.2,0.3,0.3c0,0-0.1,0.1-0.1,0.1c-0.8,0.8-1.7,1.7-2.5,2.5c-0.1,0.1-0.1,0.1-0.1,0.2c-0.2,0.5-0.5,1-0.8,1.5
		c-0.2,0.3-0.4,0.5-0.6,0.8c0,0-0.1,0.1-0.1,0.1c0.4,0.7,0.9,1.3,1.3,2c0,0,0,0,0,0c0,0,0,0,0,0c-0.7-0.4-1.3-0.9-2-1.3
		c0,0,0,0-0.1,0.1c-0.7,0.6-1.5,1.1-2.3,1.4c-0.1,0-0.1,0.1-0.2,0.1c-0.8,0.8-1.6,1.6-2.4,2.4c-0.1,0.1-0.1,0.2-0.2,0.3
		c0,0-0.1-0.1-0.1-0.1c-0.8-0.8-1.7-1.7-2.5-2.5c-0.1-0.1-0.1-0.1-0.2-0.1c-0.6-0.2-1.2-0.6-1.7-0.9
		C-285.7,403.2-285.9,403-286.1,402.8C-286.1,402.9-286.1,402.9-286.1,402.8z M-283.2,397c-1-1.4-1.9-2.8-2.9-4.2
		c-2.2,2.6-1.9,6.3,0,8.4C-285.2,399.8-284.2,398.4-283.2,397z M-285.2,391.9c1.4,0.9,2.8,1.9,4.2,2.8c1.4-1,2.8-1.9,4.2-2.8
		C-279.2,389.8-282.8,389.8-285.2,391.9z M-285.2,402.1c0.8,0.6,1.6,1.1,2.6,1.3c1.3,0.3,2.5,0.3,3.7-0.1c0.8-0.3,1.5-0.7,2.1-1.2
		c-1.4-1-2.8-1.9-4.2-2.8C-282.4,400.2-283.8,401.2-285.2,402.1z M-278.7,397c1,1.4,1.9,2.8,2.9,4.2c1.9-2.3,2.1-6,0-8.4
		C-276.8,394.2-277.7,395.6-278.7,397z"/>
</g>
</svg>
