<?xml version="1.0" encoding="utf-8"?>
<!-- Generator: Adobe Illustrator 19.0.0, SVG Export Plug-In . SVG Version: 6.00 Build 0)  -->
<svg version="1.1" id="Layer_1" xmlns="http://www.w3.org/2000/svg" xmlns:xlink="http://www.w3.org/1999/xlink" x="0px" y="0px"
	 viewBox="-207 299 196 196" style="enable-background:new -207 299 196 196;" xml:space="preserve">
<g>
	<path d="M-189,477c1.6-1.6,2.4-4,4-5.6c7.2-11.2,15.2-21.6,22.4-32.8c9.6-13.6,18.4-27.2,28-40.8l0.8-0.8l-0.8-0.8
		c-8-11.2-15.2-22.4-23.2-33.6c-10.4-15.2-20-29.6-30.4-44.8l0,0c0.8,0,0.8,0.8,1.6,0.8c12,8,23.2,16,35.2,24
		c14.4,9.6,28,19.2,42.4,28.8h0.8c11.2-8,22.4-15.2,33.6-23.2c15.2-10.4,30.4-20.8,45.6-31.2l0,0c0,0,0,0.8-0.8,0.8
		c-8,12-16,23.2-24,35.2c-8.8,12.8-17.6,25.6-26.4,38.4c-1.6,1.6-2.4,3.2-4,5.6v0.8c8,12,16.8,24,24.8,36c5.6,8.8,12,16.8,17.6,25.6
		c4,5.6,8,11.2,12,16.8c0,0,0,0,0,0.8l0,0c-10.4-7.2-20.8-14.4-31.2-21.6c-9.6-6.4-19.2-12.8-28.8-19.2c-6.4-4-12.8-8.8-19.2-12.8
		h-0.8c-12.8,8.8-24.8,16.8-37.6,25.6c-8.8,6.4-17.6,12-26.4,18.4C-178.6,469.8-183.4,473-189,477C-188.2,477-189,477-189,477
		L-189,477z"/>
</g>
</svg>
