<?xml version="1.0" encoding="utf-8"?>
<!-- Generator: Adobe Illustrator 19.0.0, SVG Export Plug-In . SVG Version: 6.00 Build 0)  -->
<svg version="1.1" id="Layer_1" xmlns="http://www.w3.org/2000/svg" xmlns:xlink="http://www.w3.org/1999/xlink" x="0px" y="0px"
	 viewBox="-207 299 196 196" style="enable-background:new -207 299 196 196;" xml:space="preserve">
<g>
	<path d="M-150.2,444.1c-5.5,3.2-10.3,7.1-15.8,10.3c0.8-1.6,2.4-4,3.2-5.5c0.8-1.6,2.4-3.2,3.2-5.5c0.8-1.6,2.4-3.2,4-5.5
		c0,0,0,0-0.8-0.8c-4.8-5.5-7.9-11.1-11.1-18.2c0-0.8-0.8-0.8-0.8-1.6c-6.3-6.3-13.5-13.5-19.8-19.8l-0.8-0.8l0.8-0.8
		c6.3-6.3,13.5-13.5,19.8-19.8c0,0,0.8-0.8,0.8-1.6c2.4-6.3,6.3-12.7,11.1-18.2c0,0,0,0,0.8-0.8l0,0c-3.2-5.5-7.1-10.3-10.3-15.8
		l0,0c5.5,3.2,10.3,7.1,15.8,10.3l0.8-0.8c4-3.2,7.9-6.3,12.7-8.7c1.6-0.8,3.2-1.6,5.5-2.4c0.8,0,0.8-0.8,1.6-0.8
		c6.3-6.3,13.5-13.5,19.8-19.8l0.8-0.8c1.6,1.6,3.2,3.2,4.8,4.8c5.5,5.5,11.1,10.3,15.8,15.8l0.8,0.8c3.2,1.6,7.1,3.2,10.3,4.8
		c3.2,1.6,5.5,4,8.7,6.3c0,0,0,0,0.8,0.8c5.5-3.2,10.3-7.1,15.8-10.3l0,0c-3.2,5.5-7.1,10.3-10.3,15.8c0,0,0,0.8,0.8,0.8
		c2.4,2.4,4.8,5.5,6.3,8.7c1.6,3.2,4,6.3,4.8,9.5c0,0.8,0.8,0.8,0.8,1.6c6.3,6.3,12.7,11.9,18.2,18.2c0.8,0.8,1.6,1.6,2.4,2.4
		l-0.8,0.8c-6.3,6.3-13.5,13.5-19.8,19.8c-0.8,0.8-0.8,0.8-0.8,1.6c-1.6,4-4,7.9-6.3,11.9c-1.6,2.4-3.2,4-4.8,6.3l-0.8,0.8
		c3.2,5.5,7.1,10.3,10.3,15.8l0,0l0,0c-5.5-3.2-10.3-7.1-15.8-10.3c0,0,0,0-0.8,0.8c-5.5,4.8-11.9,8.7-18.2,11.1
		c-0.8,0-0.8,0.8-1.6,0.8c-6.3,6.3-12.7,12.7-19,19c-0.8,0.8-0.8,1.6-1.6,2.4l-0.8-0.8c-6.3-6.3-13.5-13.5-19.8-19.8
		c-0.8-0.8-0.8-0.8-1.6-0.8c-4.8-1.6-9.5-4.8-13.5-7.1C-147,447.3-148.6,445.7-150.2,444.1C-150.2,444.9-150.2,444.9-150.2,444.1z
		 M-127.2,398.2c-7.9-11.1-15.1-22.2-23-33.3c-17.4,20.6-15.1,49.9,0,66.5C-143.1,420.4-135.1,409.3-127.2,398.2z M-143.1,357.8
		c11.1,7.1,22.2,15.1,33.3,22.2c11.1-7.9,22.2-15.1,33.3-22.2C-95.5,341.2-124.1,341.2-143.1,357.8z M-143.1,438.6
		c6.3,4.8,12.7,8.7,20.6,10.3c10.3,2.4,19.8,2.4,29.3-0.8c6.3-2.4,11.9-5.5,16.6-9.5c-11.1-7.9-22.2-15.1-33.3-22.2
		C-120.9,423.5-132,431.5-143.1,438.6z M-91.6,398.2c7.9,11.1,15.1,22.2,23,33.3c15.1-18.2,16.6-47.5,0-66.5
		C-76.5,376-83.7,387.1-91.6,398.2z"/>
</g>
</svg>
