<?xml version="1.0" encoding="utf-8"?>
<!-- Generator: Adobe Illustrator 19.0.0, SVG Export Plug-In . SVG Version: 6.00 Build 0)  -->
<svg version="1.1" id="Layer_1" xmlns="http://www.w3.org/2000/svg" xmlns:xlink="http://www.w3.org/1999/xlink" x="0px" y="0px"
	 viewBox="-207 299 196 196" style="enable-background:new -207 299 196 196;" xml:space="preserve">
<g>
	<path d="M-28.9,390.7c0.2,4.7,0.6,19.2-6.6,35.1c-14.5,32.3-50,48.2-75.5,48.5c-0.6,0-1.9,0-3.6,0c-9.5-0.3-30.6-2.7-48.9-18.9
		c-16.3-14.4-22-32.2-24-41.6c-3.8-17.8-0.5-32.4,1.6-39.2c0.6-2.1,10.5-33.3,40-48c17.2-8.6,35.6-8.8,39.2-8.8c0,0,0,0,0,0
		c6.1,0.1,15.6,0.9,26.4,4.8c6,2.2,30,11.8,43.2,37.6C-30.6,373-29.2,384.6-28.9,390.7z M-109.8,415c9.6,0,20.8-6.8,20.8-19.6
		c0-11.2-8.8-20-20.8-20c-10.2,0-20,9.3-20,20C-129.8,409-118.3,415-109.8,415z M-106.6,330.7c0.9,5,2.5,11.3,5.6,18.2
		c1.7,3.6,3.5,6.7,5.3,9.4c5-1,10.7-2.6,16.9-4.9c4.9-1.8,9.2-3.9,13-5.9C-84.2,335.3-85.2,335.2-106.6,330.7z M-158.6,440.2
		L-158.6,440.2c2.4-4,4-7.2,5.6-11.2c2.4-5.6,4-10.4,4.8-16.8v-0.8c-7.2-4.8-15.2-8.8-23.2-11.2c-0.8,0-2.4-0.8-3.2-0.8
		C-174.5,415.4-169,429-158.6,440.2z M-159.3,352.2c-3.1,3.6-6.9,8.8-10,15.6c-4.6,10.1-5.7,19.4-6,25.2c5.5-1.8,11.7-4.3,18.2-7.9
		c3-1.6,5.7-3.3,8.2-4.9C-151,370.3-155.2,360-159.3,352.2z M-113.6,330.7c-5.1,0.3-12.6,1.4-21,4.8c-8.9,3.6-15.3,8.5-19.2,12
		c9,8.4,21.6,11.3,29.6,12C-117.5,351.4-115.4,343.3-113.6,330.7z M-106.7,461.8c4.9-0.2,12-1,19.9-4c9.9-3.7,16.8-9.1,20.9-12.8
		c-1.6-1.8-3.8-3.9-6.7-5.7c-8.6-5.4-17.5-5.1-21.3-4.7C-100.2,441.4-105.3,451.1-106.7,461.8z M-74.2,412.8
		c2,12.7,6.2,18.9,13.1,27.4c3.5-4.1,8.1-10.5,11.7-19.2c3.5-8.6,4.7-16.3,5.1-21.6C-56.8,402.8-64.6,404.4-74.2,412.8z
		 M-61.1,352.2c-2.1,2.4-4.9,6-7,10.9c-3.2,7.4-3.9,10.9-4.3,19.6c8.3,6.1,18.1,7.9,28.1,10.3C-47.8,378.3-52.2,366.3-61.1,352.2z
		 M-113.8,461.8L-113.8,461.8c-1.6-4.8-3.2-9.6-4.8-14.4c-1.6-4.8-4-8.8-7.2-12.8c0,0-0.2-0.4-0.3-0.5c-0.8,0.1-1.3,0.3-2.1,0.5
		c-8.8,1.6-17.4,5.1-25.4,9.1c0,0-0.4,0.2-1,0.5l0,0c2.4,2.4,5.6,4,8.8,6.4c5.6,3.2,11.2,6.4,17.6,8c3.2,0.8,7.2,1.6,11.2,2.4
		C-115.4,461.8-114.6,461.8-113.8,461.8z"/>
</g>
</svg>
