<?xml version="1.0" encoding="utf-8"?>
<!-- Generator: Adobe Illustrator 19.0.0, SVG Export Plug-In . SVG Version: 6.00 Build 0)  -->
<svg version="1.1" id="Layer_1" xmlns="http://www.w3.org/2000/svg" xmlns:xlink="http://www.w3.org/1999/xlink" x="0px" y="0px"
	 viewBox="-207 299 196 196" style="enable-background:new -207 299 196 196;" xml:space="preserve">
<style type="text/css">
	.st0{fill:#010101;}
</style>
<g>
	<path class="st0" d="M-189,457.3L-189,457.3c2.4-1.6,4-3.2,5.6-4.8c0,0,0,0,0.8-0.8c2.4-4,4.8-7.2,7.2-11.1c2.4-4,4-8,4.8-11.9
		v-0.8c-0.8-3.2-0.8-5.6-1.6-8.8c0-3.2-0.8-6.4,0-9.6c0-8.8,2.4-17.5,5.6-25.5c8-16.7,23.1-29.5,40.6-33.4c0.8,0,1.6-0.8,2.4-1.6
		c4-4.8,7.2-9.6,9.6-15.1c0.8-1.6,1.6-3.2,2.4-5.6c0.8-1.6,1.6-4,1.6-6.4c0-0.8,0-2.4,0.8-4l0,0c0.8,5.6,3.2,10.3,5.6,15.9
		c2.4,5.6,5.6,10.3,9.6,15.1l0.8,0.8c7.2,2.4,14.3,5.6,20.7,9.6C-60,369-52.1,380.9-48.1,396c0.8,3.2,1.6,6.4,1.6,9.6
		c0,3.2,0,7.2,0,10.3c0,4-0.8,7.2-1.6,11.1c0,0.8,0,0.8,0,1.6c2.4,5.6,4.8,11.1,8.8,16.7c0.8,1.6,2.4,3.2,3.2,4.8
		c1.6,2.4,4,4.8,7.2,7.2l0,0c-4-1.6-8.8-2.4-12.7-3.2c-3.2,0-6.4-0.8-9.6,0c-4,0-7.2,0.8-11.1,1.6c-0.8,0-0.8,0-0.8,0.8
		c-2.4,3.2-5.6,5.6-8.8,8c-7.2,5.6-15.9,8.8-24.7,10.3c-4.8,0.8-9.6,1.6-14.3,0.8c-15.9-0.8-30.2-7.2-41.4-19.1
		c-0.8-0.8-0.8-0.8-1.6-0.8c-5.6-0.8-10.3-1.6-15.9-0.8c-5.6,0-10.3,0.8-15.1,2.4C-187.4,456.5-188.2,456.5-189,457.3L-189,457.3
		L-189,457.3z M-121.3,417.5C-121.3,418.3-121.3,418.3-121.3,417.5c-3.2,2.4-5.6,5.6-8,8.8c-4,5.6-7.2,11.9-10.3,18.3
		c-0.8,1.6-0.8,3.2-1.6,4.8c0.8,0.8,1.6,1.6,2.4,2.4c8,5.6,15.9,8.8,25.5,9.6c4,0,8.8,0,12.7-0.8c8-1.6,15.1-4.8,21.5-9.6
		c0,0,0,0,0.8-0.8l0,0c-2.4-7.2-5.6-13.5-9.6-19.9c-2.4-4-5.6-8-9.6-11.1l0,0h0.8c4.8,1.6,10.3,2.4,15.9,3.2c4,0,8,0,11.1-0.8
		c3.2-0.8,5.6-0.8,8.8-1.6c0-0.8,0-1.6,0.8-2.4c0.8-4.8,0.8-9.6,0-14.3c-1.6-7.2-4-14.3-8.8-20.7c-5.6-8-13.5-13.5-22.3-17.5l0,0
		c-8.8,9.6-15.1,20.7-17.5,33.4c0-1.6-0.8-3.2-0.8-4.8s-0.8-3.2-1.6-4.8c-4-8.8-8.8-16.7-15.1-23.9c0,0,0,0,0-0.8
		c-18.3,6.4-36.6,27.1-31.8,54.9c0.8,0,2.4,0,3.2,0.8c6.4,1.6,12.7,1.6,19.9,0.8C-130.9,420.7-126.1,419.9-121.3,417.5z"/>
</g>
</svg>
