<?xml version="1.0" encoding="utf-8"?>
<!-- Generator: Adobe Illustrator 19.0.0, SVG Export Plug-In . SVG Version: 6.00 Build 0)  -->
<svg version="1.1" id="Layer_1" xmlns="http://www.w3.org/2000/svg" xmlns:xlink="http://www.w3.org/1999/xlink" x="0px" y="0px"
	 viewBox="-207 299 196 196" style="enable-background:new -207 299 196 196;" xml:space="preserve">
<g>
	<path d="M-108.8,476.6c-0.1,0-0.1-0.2-0.1-0.2c-0.8-5.6-2-9.7-2.7-14.5c-1.6-4.8-2.5-9.2-4.9-13.9c-2.4-4-4.8-8.8-7.2-12.7
		c0,0,0,0-0.8,0c-6.4,0.8-12.7,3.2-19.1,5.6c-7.2,3.2-14.3,7.2-19.9,11.9h-0.8l0,0c0,0,0,0,0-0.8c3.2-4,6.4-8.8,8.8-13.5
		c4.8-8,7.2-16.7,8.8-25.5c0-0.8,0-0.8-0.8-0.8c-7.2-4.8-14.3-8-21.5-10.3c-4.8-1.6-10.3-3.2-15.1-4c-1.6,0-2.4,0-4-0.8h-0.8l0,0
		h0.8c1.6,0,4-0.8,5.6-0.8c5.6-0.8,10.3-2.4,15.9-4c6.4-2.4,13.5-6.4,19.1-10.3c0,0,0,0,0-0.8c-1.6-8-4-15.1-7.2-22.3
		c-3.2-5.6-6.4-11.1-10.3-15.9c0-0.8,0-0.8,0-0.8c0.8,0,0.8,0,0.8,0c4.8,4,9.6,7.2,15.1,9.6c6.4,3.2,12.7,5.6,19.9,7.2
		c1.6,0,2.4,0.8,4,0.8h0.8c2.4-3.2,4-6.4,6.4-10.3c2.4-4,4-8,5.6-12.7c1.6-4,2.4-7.2,3.2-11.1c0-2.4,0.8-4.8,0.8-7.2c0,0,0,0,0-0.8
		l0,0v0.8c0,2.4,0.8,4.8,0.8,6.4c1.6,6.4,3.2,12.7,5.6,19.1c2.4,5.6,4.8,10.3,8,15.1l0.8,0.8c10.3-1.6,20.7-5.6,30.2-11.9
		c3.2-2.4,6.4-4,9.6-6.4h0.8c0,0.8,0,0.8,0,0.8c-6.4,8-11.9,17.5-15.1,27.1c-1.6,4-2.4,8-3.2,11.9c0,0,0,0,0,0.8
		c8,4.8,15.9,9.6,24.7,11.9c4,1.6,8,2.4,12.7,2.4c1.6,0,2.4,0,4,0.8c0,0,0,0,0.8,0l0,0c0,0,0,0-0.8,0c-7.2,0.8-15.1,2.4-22.3,5.6
		c-6.4,2.4-12.7,5.6-19.1,9.6c0,0,0,0,0,0.8c1.6,8,4,15.1,7.2,22.3c3.2,6.4,6.4,11.9,10.3,16.7c0,0,0,0,0,0.8l0,0h-0.8
		c-4.8-4-10.3-7.2-15.9-10.3c-7.2-3.2-14.3-6.4-22.3-7.2c-0.8,0-1.6,0-1.6,0.8c-5.6,8-9.6,16.7-11.9,26.3c-0.8,4-2.3,8.7-2.3,12.7
		c0,0.6,0-0.1,0,0.7c0,0-0.1,0.8-0.1,0.8C-108.7,476.6-108.8,476.6-108.8,476.6 M-108.6,417.7c10.3,0,20.7-9.6,20.7-20.7
		s-9.6-20.7-20.7-20.7s-20.7,9.6-20.7,19.9C-129.3,408.1-119,417.7-108.6,417.7z"/>
</g>
</svg>
