<?xml version="1.0" encoding="utf-8"?>
<!-- Generator: Adobe Illustrator 19.0.0, SVG Export Plug-In . SVG Version: 6.00 Build 0)  -->
<svg version="1.1" id="Layer_1" xmlns="http://www.w3.org/2000/svg" xmlns:xlink="http://www.w3.org/1999/xlink" x="0px" y="0px"
	 viewBox="-293 385 24 24" style="enable-background:new -293 385 24 24;" xml:space="preserve">
<style type="text/css">
	.st0{fill:#010101;}
</style>
<g>
	<path class="st0" d="M-291,404.6C-291,404.6-291,404.6-291,404.6c0.3-0.2,0.5-0.4,0.7-0.6c0,0,0,0,0.1-0.1c0.3-0.5,0.6-0.9,0.9-1.4
		c0.3-0.5,0.5-1,0.6-1.5c0,0,0-0.1,0-0.1c-0.1-0.4-0.1-0.7-0.2-1.1c0-0.4-0.1-0.8,0-1.2c0-1.1,0.3-2.2,0.7-3.2
		c1-2.1,2.9-3.7,5.1-4.2c0.1,0,0.2-0.1,0.3-0.2c0.5-0.6,0.9-1.2,1.2-1.9c0.1-0.2,0.2-0.4,0.3-0.7c0.1-0.2,0.2-0.5,0.2-0.8
		c0-0.1,0-0.3,0.1-0.5c0,0,0,0,0,0c0.1,0.7,0.4,1.3,0.7,2c0.3,0.7,0.7,1.3,1.2,1.9c0,0,0.1,0.1,0.1,0.1c0.9,0.3,1.8,0.7,2.6,1.2
		c1.6,1.2,2.6,2.7,3.1,4.6c0.1,0.4,0.2,0.8,0.2,1.2c0,0.4,0,0.9,0,1.3c0,0.5-0.1,0.9-0.2,1.4c0,0.1,0,0.1,0,0.2
		c0.3,0.7,0.6,1.4,1.1,2.1c0.1,0.2,0.3,0.4,0.4,0.6c0.2,0.3,0.5,0.6,0.9,0.9c0,0,0,0,0,0c-0.5-0.2-1.1-0.3-1.6-0.4
		c-0.4,0-0.8-0.1-1.2,0c-0.5,0-0.9,0.1-1.4,0.2c-0.1,0-0.1,0-0.1,0.1c-0.3,0.4-0.7,0.7-1.1,1c-0.9,0.7-2,1.1-3.1,1.3
		c-0.6,0.1-1.2,0.2-1.8,0.1c-2-0.1-3.8-0.9-5.2-2.4c-0.1-0.1-0.1-0.1-0.2-0.1c-0.7-0.1-1.3-0.2-2-0.1c-0.7,0-1.3,0.1-1.9,0.3
		C-290.8,404.5-290.9,404.5-291,404.6L-291,404.6L-291,404.6z M-282.5,399.6C-282.5,399.7-282.5,399.7-282.5,399.6
		c-0.4,0.3-0.7,0.7-1,1.1c-0.5,0.7-0.9,1.5-1.3,2.3c-0.1,0.2-0.1,0.4-0.2,0.6c0.1,0.1,0.2,0.2,0.3,0.3c1,0.7,2,1.1,3.2,1.2
		c0.5,0,1.1,0,1.6-0.1c1-0.2,1.9-0.6,2.7-1.2c0,0,0,0,0.1-0.1c0,0,0,0,0,0c-0.3-0.9-0.7-1.7-1.2-2.5c-0.3-0.5-0.7-1-1.2-1.4
		c0,0,0,0,0,0c0,0,0.1,0,0.1,0c0.6,0.2,1.3,0.3,2,0.4c0.5,0,1,0,1.4-0.1c0.4-0.1,0.7-0.1,1.1-0.2c0-0.1,0-0.2,0.1-0.3
		c0.1-0.6,0.1-1.2,0-1.8c-0.2-0.9-0.5-1.8-1.1-2.6c-0.7-1-1.7-1.7-2.8-2.2c0,0,0,0,0,0c-1.1,1.2-1.9,2.6-2.2,4.2
		c0-0.2-0.1-0.4-0.1-0.6c0-0.2-0.1-0.4-0.2-0.6c-0.5-1.1-1.1-2.1-1.9-3c0,0,0,0,0-0.1c-2.3,0.8-4.6,3.4-4,6.9c0.1,0,0.3,0,0.4,0.1
		c0.8,0.2,1.6,0.2,2.5,0.1C-283.7,400-283.1,399.9-282.5,399.6z"/>
</g>
</svg>
