<?xml version="1.0" encoding="utf-8"?>
<!-- Generator: Adobe Illustrator 19.0.0, SVG Export Plug-In . SVG Version: 6.00 Build 0)  -->
<svg version="1.1" id="Layer_1" xmlns="http://www.w3.org/2000/svg" xmlns:xlink="http://www.w3.org/1999/xlink" x="0px" y="0px"
	 viewBox="-293 385 24 24" style="enable-background:new -293 385 24 24;" xml:space="preserve">
<g>
	<path d="M-291,407c0.2-0.2,0.3-0.5,0.5-0.7c0.9-1.4,1.9-2.7,2.8-4.1c1.2-1.7,2.3-3.4,3.5-5.1c0,0,0.1-0.1,0.1-0.1
		c0,0-0.1-0.1-0.1-0.1c-1-1.4-1.9-2.8-2.9-4.2c-1.3-1.9-2.5-3.7-3.8-5.6c0,0,0,0,0,0c0.1,0,0.1,0.1,0.2,0.1c1.5,1,2.9,2,4.4,3
		c1.8,1.2,3.5,2.4,5.3,3.6c0,0,0.1,0,0.1,0c1.4-1,2.8-1.9,4.2-2.9c1.9-1.3,3.8-2.6,5.7-3.9c0,0,0,0,0,0c0,0,0,0.1-0.1,0.1
		c-1,1.5-2,2.9-3,4.4c-1.1,1.6-2.2,3.2-3.3,4.8c-0.2,0.2-0.3,0.4-0.5,0.7c0,0,0,0.1,0,0.1c1,1.5,2.1,3,3.1,4.5
		c0.7,1.1,1.5,2.1,2.2,3.2c0.5,0.7,1,1.4,1.5,2.1c0,0,0,0,0,0.1c0,0,0,0,0,0c-1.3-0.9-2.6-1.8-3.9-2.7c-1.2-0.8-2.4-1.6-3.6-2.4
		c-0.8-0.5-1.6-1.1-2.4-1.6c0,0-0.1,0-0.1,0c-1.6,1.1-3.1,2.1-4.7,3.2c-1.1,0.8-2.2,1.5-3.3,2.3C-289.7,406.1-290.3,406.5-291,407
		C-290.9,407-291,407-291,407C-291,407-291,407-291,407z"/>
</g>
</svg>
