<?xml version="1.0" encoding="utf-8"?>
<!-- Generator: Adobe Illustrator 19.0.0, SVG Export Plug-In . SVG Version: 6.00 Build 0)  -->
<svg version="1.1" id="Layer_1" xmlns="http://www.w3.org/2000/svg" xmlns:xlink="http://www.w3.org/1999/xlink" x="0px" y="0px"
	 viewBox="-293 385 24 24" style="enable-background:new -293 385 24 24;" xml:space="preserve">
<g>
	<path d="M-281,407C-281,407-281,407-281,407c-0.1-0.7-0.2-1.2-0.3-1.8c-0.2-0.6-0.4-1.2-0.7-1.8c-0.3-0.5-0.6-1.1-0.9-1.6
		c0,0,0,0-0.1,0c-0.8,0.1-1.6,0.4-2.4,0.7c-0.9,0.4-1.8,0.9-2.5,1.5c0,0-0.1,0-0.1,0c0,0,0,0,0,0c0,0,0,0,0-0.1
		c0.4-0.5,0.8-1.1,1.1-1.7c0.6-1,0.9-2.1,1.1-3.2c0-0.1,0-0.1-0.1-0.1c-0.9-0.6-1.8-1-2.7-1.3c-0.6-0.2-1.3-0.4-1.9-0.5
		c-0.2,0-0.3,0-0.5-0.1c0,0-0.1,0-0.1,0c0,0,0,0,0,0c0,0,0.1,0,0.1,0c0.2,0,0.5-0.1,0.7-0.1c0.7-0.1,1.3-0.3,2-0.5
		c0.8-0.3,1.7-0.8,2.4-1.3c0,0,0,0,0-0.1c-0.2-1-0.5-1.9-0.9-2.8c-0.4-0.7-0.8-1.4-1.3-2c0-0.1,0-0.1,0-0.1c0.1,0,0.1,0,0.1,0
		c0.6,0.5,1.2,0.9,1.9,1.2c0.8,0.4,1.6,0.7,2.5,0.9c0.2,0,0.3,0.1,0.5,0.1c0,0,0.1,0,0.1,0c0.3-0.4,0.5-0.8,0.8-1.3
		c0.3-0.5,0.5-1,0.7-1.6c0.2-0.5,0.3-0.9,0.4-1.4c0-0.3,0.1-0.6,0.1-0.9c0,0,0,0,0-0.1c0,0,0,0,0,0c0,0,0,0.1,0,0.1
		c0,0.3,0.1,0.6,0.1,0.8c0.2,0.8,0.4,1.6,0.7,2.4c0.3,0.7,0.6,1.3,1,1.9c0,0,0.1,0.1,0.1,0.1c1.3-0.2,2.6-0.7,3.8-1.5
		c0.4-0.3,0.8-0.5,1.2-0.8c0,0,0.1,0,0.1,0c0,0.1,0,0.1,0,0.1c-0.8,1-1.5,2.2-1.9,3.4c-0.2,0.5-0.3,1-0.4,1.5c0,0,0,0,0,0.1
		c1,0.6,2,1.2,3.1,1.5c0.5,0.2,1,0.3,1.6,0.3c0.2,0,0.3,0,0.5,0.1c0,0,0,0,0.1,0c0,0,0,0,0,0c0,0,0,0-0.1,0
		c-0.9,0.1-1.9,0.3-2.8,0.7c-0.8,0.3-1.6,0.7-2.4,1.2c0,0,0,0,0,0.1c0.2,1,0.5,1.9,0.9,2.8c0.4,0.8,0.8,1.5,1.3,2.1c0,0,0,0,0,0.1
		c0,0,0,0,0,0c0,0-0.1,0-0.1,0c-0.6-0.5-1.3-0.9-2-1.3c-0.9-0.4-1.8-0.8-2.8-0.9c-0.1,0-0.2,0-0.2,0.1c-0.7,1-1.2,2.1-1.5,3.3
		c-0.1,0.5-0.3,1.1-0.3,1.6C-280.9,406.8-280.9,406.9-281,407C-281,407-281,407-281,407C-281,407-281,407-281,407z M-281,399.6
		c1.3,0,2.6-1.2,2.6-2.6c0-1.4-1.2-2.6-2.6-2.6c-1.4,0-2.6,1.2-2.6,2.5C-283.6,398.4-282.3,399.6-281,399.6z"/>
</g>
</svg>
