<?xml version="1.0" encoding="utf-8"?>
<!-- Generator: Adobe Illustrator 19.0.0, SVG Export Plug-In . SVG Version: 6.00 Build 0)  -->
<svg version="1.1" id="Layer_1" xmlns="http://www.w3.org/2000/svg" xmlns:xlink="http://www.w3.org/1999/xlink" x="0px" y="0px"
	 viewBox="-293 385 24 24" style="enable-background:new -293 385 24 24;" xml:space="preserve">
<g>
	<path d="M-271,397c0,1.3-0.2,2.5-0.7,3.7c-0.5,1.2-1.1,2.2-2,3.1c-1.2,1.3-2.6,2.1-4.3,2.7c-0.6,0.2-1.1,0.3-1.7,0.4
		c-0.5,0.1-1,0.1-1.5,0.1c-1.3,0-2.6-0.3-3.7-0.8c-1-0.5-2-1.1-2.8-1.8c-0.9-0.8-1.6-1.7-2.1-2.8c-0.4-0.8-0.7-1.5-0.9-2.4
		c-0.1-0.4-0.2-0.9-0.2-1.3c0-0.4,0-0.8,0-1.2c0-0.8,0.1-1.6,0.4-2.4c0.4-1.5,1.2-2.8,2.2-3.9c0.8-0.9,1.7-1.6,2.8-2.1
		c0.7-0.4,1.5-0.7,2.4-0.9c0.4-0.1,0.9-0.2,1.3-0.2c0.4,0,0.8,0,1.2,0c1.1,0,2.3,0.2,3.3,0.6c1.3,0.5,2.4,1.2,3.4,2.1
		c0.8,0.8,1.5,1.6,2,2.6c0.4,0.8,0.7,1.6,0.9,2.4c0.1,0.5,0.2,0.9,0.2,1.4C-271,396.5-271,396.7-271,397z M-281,399.5
		c1.4,0,2.6-1.1,2.6-2.6c0-1.4-1.1-2.5-2.6-2.5c-1.3,0-2.5,1-2.5,2.5C-283.5,398.6-282.3,399.6-281,399.5z M-280.6,388.8
		C-280.6,388.8-280.6,388.8-280.6,388.8c0.4,1.2,0.9,2.3,1.5,3.3c0.1,0.1,0.1,0.1,0.2,0.1c1.2-0.2,2.3-0.6,3.4-1.3c0,0,0,0,0,0
		C-277,389.6-278.6,388.9-280.6,388.8z M-287.1,402.5C-287.1,402.5-287.1,402.5-287.1,402.5c0.3-0.5,0.5-0.9,0.7-1.4
		c0.3-0.7,0.5-1.3,0.6-2.1c0,0,0-0.1,0-0.1c-0.9-0.6-1.9-1.1-2.9-1.4c-0.1,0-0.3-0.1-0.4-0.1C-289.1,399.4-288.4,401.1-287.1,402.5z
		 M-289.2,396.6C-289.2,396.6-289.2,396.6-289.2,396.6c0.4-0.1,0.8-0.2,1.1-0.4c0.8-0.3,1.5-0.7,2.2-1.2c0,0,0,0,0-0.1
		c-0.1-0.3-0.1-0.6-0.2-0.8c-0.2-0.8-0.5-1.5-0.9-2.3c-0.1-0.1-0.1-0.2-0.2-0.3C-288.4,392.9-289.1,394.6-289.2,396.6z
		 M-286.5,390.9C-286.5,390.9-286.5,390.9-286.5,390.9c0.6,0.4,1.2,0.6,1.7,0.8c0.6,0.2,1.1,0.4,1.7,0.5c0,0,0.1,0,0.1,0
		c0,0,0.1-0.1,0.1-0.1c0.5-0.9,1-1.8,1.3-2.8c0-0.1,0.1-0.3,0.1-0.4c-0.9,0-1.7,0.2-2.6,0.5C-284.9,389.7-285.8,390.2-286.5,390.9z
		 M-275.5,403.1C-275.5,403.1-275.5,403.1-275.5,403.1c-0.3-0.1-0.5-0.3-0.7-0.4c-0.9-0.4-1.8-0.8-2.8-0.9c-0.1,0-0.1,0-0.1,0.1
		c-0.6,0.9-1,1.8-1.3,2.7c-0.1,0.2-0.1,0.4-0.2,0.6C-278.6,405.1-277,404.4-275.5,403.1z M-274.9,402.5c1.2-1.5,2-3.2,2.1-5.1
		c0,0,0,0,0,0c0,0,0,0,0,0c-1.2,0.3-2.3,0.8-3.3,1.5c0,0,0,0.1,0,0.1c0.1,0.3,0.1,0.5,0.2,0.8c0.2,0.8,0.5,1.5,0.9,2.2
		C-275,402.2-275,402.3-274.9,402.5z M-272.8,396.6c-0.1-1.9-0.9-3.6-2.1-5.1c0,0,0,0,0,0.1c-0.1,0.2-0.2,0.4-0.3,0.6
		c-0.4,0.9-0.8,1.8-1,2.8c0,0.1,0,0.1,0,0.1c0.9,0.6,1.9,1.1,2.9,1.4C-273.1,396.5-272.9,396.5-272.8,396.6z M-281.5,405.2
		C-281.5,405.2-281.5,405.2-281.5,405.2c-0.2-0.6-0.4-1.2-0.6-1.8c-0.2-0.6-0.5-1.1-0.9-1.6c0,0,0-0.1-0.1,0c-0.1,0-0.1,0-0.2,0
		c-1.1,0.2-2.2,0.7-3.2,1.2c0,0,0,0-0.1,0c0,0,0,0,0,0c0.3,0.3,0.7,0.5,1.1,0.8c0.7,0.4,1.4,0.8,2.2,1c0.4,0.1,0.9,0.2,1.4,0.3
		C-281.7,405.2-281.6,405.2-281.5,405.2z"/>
</g>
</svg>
