<?xml version="1.0" encoding="utf-8"?>
<!-- Generator: Adobe Illustrator 19.0.0, SVG Export Plug-In . SVG Version: 6.00 Build 0)  -->
<svg version="1.1" id="Layer_1" xmlns="http://www.w3.org/2000/svg" xmlns:xlink="http://www.w3.org/1999/xlink" x="0px" y="0px"
	 viewBox="-293 385 24 24" style="enable-background:new -293 385 24 24;" xml:space="preserve">
<g>
	<path d="M-291,405.5c3.3-5.7,6.7-11.3,10-17c3.3,5.7,6.7,11.3,10,17c0,0,0,0,0,0c0,0,0,0,0,0c0,0,0,0,0,0c-3.3-2.1-6.6-4.1-10-6.2
		C-284.3,401.4-287.7,403.5-291,405.5C-291,405.5-291,405.5-291,405.5z M-286.2,400.6C-286.2,400.6-286.2,400.6-286.2,400.6
		c1.7-1,3.5-2.1,5.2-3.2c1.7,1.1,3.4,2.1,5.2,3.2c0,0,0,0,0,0c0,0,0,0,0,0c0,0,0,0,0,0c-1.7-2.9-3.5-5.8-5.2-8.8
		C-282.7,394.7-284.5,397.6-286.2,400.6z"/>
</g>
</svg>
