<?xml version="1.0" encoding="utf-8"?>
<!-- Generator: Adobe Illustrator 19.0.0, SVG Export Plug-In . SVG Version: 6.00 Build 0)  -->
<svg version="1.1" id="Layer_1" xmlns="http://www.w3.org/2000/svg" xmlns:xlink="http://www.w3.org/1999/xlink" x="0px" y="0px"
	 viewBox="-293 385 24 24" style="enable-background:new -293 385 24 24;" xml:space="preserve">
<g>
	<path d="M-278.7,404.7c0-1.3,0-2.6,0-3.9c-0.9,0-1.7,0-2.6,0c0-2.6,0-5.2,0-7.8c0.9,0,1.7,0,2.6,0c0-1.3,0-2.5,0-3.8
		c2.6,2.6,5.1,5.1,7.7,7.7C-273.5,399.5-276.1,402.1-278.7,404.7z"/>
	<path d="M-291,400.8c2.6-2.6,5.1-5.1,7.7-7.7c0,2.6,0,5.1,0,7.7C-285.9,400.8-288.5,400.8-291,400.8z"/>
</g>
</svg>
