<?xml version="1.0" encoding="utf-8"?>
<!-- Generator: Adobe Illustrator 19.0.0, SVG Export Plug-In . SVG Version: 6.00 Build 0)  -->
<svg version="1.1" id="Layer_1" xmlns="http://www.w3.org/2000/svg" xmlns:xlink="http://www.w3.org/1999/xlink" x="0px" y="0px"
	 viewBox="-293 385 24 24" style="enable-background:new -293 385 24 24;" xml:space="preserve">
<g>
	<path d="M-291,387.6c0.2-0.2,0.3-0.3,0.5-0.5c0.1-0.1,0.2-0.2,0.4,0c1.5,1,2.9,2,4.4,3c0.1,0.1,0.2,0.1,0.2,0.1c3-1.8,6-1.9,9,0
		c0.3-0.2,0.7-0.5,1.1-0.7c1.2-0.8,2.4-1.6,3.6-2.4c0.2-0.1,0.3-0.1,0.4,0c0.2,0.2,0.3,0.4,0.5,0.6c-0.1,0.1-0.1,0.2-0.1,0.2
		c-1,1.5-2,2.9-2.9,4.4c-0.1,0.2-0.1,0.3,0,0.4c1.7,2.8,1.6,5.7,0,8.6c-0.1,0.2-0.1,0.3,0,0.4c1,1.4,2,2.9,3,4.3
		c0.1,0.1,0.1,0.2,0,0.4c-0.5,0.7-0.5,0.7-1.1,0.2c-1.4-0.9-2.7-1.8-4.1-2.7c-0.1-0.1-0.2-0.1-0.3,0c-1.4,0.9-3,1.2-4.7,1.2
		c-1.4-0.1-2.7-0.4-3.9-1.2c-0.1-0.1-0.2,0-0.3,0c-1.5,1-3,2-4.4,3c-0.2,0.1-0.3,0.1-0.5,0c-0.1-0.2-0.3-0.3-0.5-0.5
		c0-0.1,0-0.1,0-0.2c0,0,0.1,0,0.1-0.1c1-1.5,2-3,3-4.5c0.1-0.1,0-0.2,0-0.3c-1.6-2.9-1.7-5.7,0-8.6c0.1-0.2,0.1-0.2,0-0.4
		c-1-1.5-1.9-3-2.9-4.5c0,0-0.1-0.1-0.1-0.1C-291,387.7-291,387.7-291,387.6z M-287.7,403.6C-287.6,403.6-287.6,403.6-287.7,403.6
		c0.5-0.2,0.9-0.5,1.3-0.8c1-0.7,2-1.4,3.1-2c1.4-0.8,2.8-0.8,4.3-0.1c1.2,0.6,2.3,1.4,3.3,2.1c0.4,0.3,0.8,0.6,1.2,0.8
		c0-0.1,0-0.1,0-0.2c-0.5-0.8-1-1.6-1.5-2.3c-0.5-0.7-0.9-1.5-1.3-2.2c-0.4-0.8-0.6-1.7-0.4-2.6c0.1-0.7,0.5-1.4,0.8-2
		c0.5-0.8,1.1-1.6,1.6-2.4c0.3-0.5,0.6-1,0.9-1.5c-0.1,0-0.2,0-0.2,0.1c-1.1,0.8-2.3,1.5-3.4,2.3c-0.7,0.4-1.4,0.8-2.2,0.9
		c-1.1,0.2-2.2,0-3.1-0.6c-1.1-0.6-2.1-1.3-3.1-2c-0.4-0.3-0.8-0.5-1.2-0.8c0,0.1,0,0.2,0.1,0.2c0.8,1.2,1.6,2.5,2.4,3.7
		c0.2,0.4,0.4,0.8,0.6,1.2c0.3,0.6,0.4,1.3,0.3,2c-0.1,0.9-0.5,1.6-0.9,2.3c-0.6,1-1.3,2-1.9,3C-287.3,403-287.5,403.3-287.7,403.6z
		"/>
</g>
</svg>
