<?xml version="1.0" encoding="utf-8"?>
<!-- Generator: Adobe Illustrator 19.0.0, SVG Export Plug-In . SVG Version: 6.00 Build 0)  -->
<svg version="1.1" id="Layer_1" xmlns="http://www.w3.org/2000/svg" xmlns:xlink="http://www.w3.org/1999/xlink" x="0px" y="0px"
	 viewBox="-293 385 24 24" style="enable-background:new -293 385 24 24;" xml:space="preserve">
<g>
	<path d="M-291,396.2c0-0.2,0.1-0.5,0.1-0.7c0.2-1.3,0.7-2.5,1.3-3.6c0,0,0-0.1,0.1-0.1c1.8,1.7,3.5,3.5,5.3,5.2
		c-1.8,1.8-3.5,3.6-5.3,5.4c-0.3-0.6-0.6-1.2-0.8-1.8c-0.3-0.8-0.4-1.7-0.6-2.5c0-0.1,0-0.2-0.1-0.2C-291,397.3-291,396.8-291,396.2
		z"/>
	<path d="M-286.3,388.5c3.2-2,7.4-2.1,10.6,0c-1.7,1.8-3.5,3.5-5.2,5.3C-282.8,392-284.5,390.3-286.3,388.5z"/>
	<path d="M-281,400.2c1.7,1.8,3.5,3.5,5.2,5.3c-2.3,2-8.1,2-10.5,0C-284.5,403.8-282.8,402-281,400.2z"/>
	<path d="M-272.4,402.3c-1.8-1.7-3.5-3.5-5.4-5.2c1.8-1.8,3.5-3.5,5.3-5.3C-270.5,394.8-270.5,399.1-272.4,402.3z"/>
</g>
</svg>
