<?xml version="1.0" encoding="utf-8"?>
<!-- Generator: Adobe Illustrator 19.0.0, SVG Export Plug-In . SVG Version: 6.00 Build 0)  -->
<svg version="1.1" id="Layer_1" xmlns="http://www.w3.org/2000/svg" xmlns:xlink="http://www.w3.org/1999/xlink" x="0px" y="0px"
	 viewBox="-293 385 24 24" style="enable-background:new -293 385 24 24;" xml:space="preserve">
<g>
	<path d="M-291,396.2c0.1-0.4,0.1-0.8,0.2-1.2c1.1-5.2,5.7-8.3,10.5-8c1.6,0.1,3.1,0.6,4.5,1.4c0,0,0.1,0.1,0.1,0.1
		c-0.1,0.1-0.1,0.1-0.1,0.2c-0.8,0.8-1.6,1.6-2.3,2.4c-0.1,0.1-0.2,0.2-0.3,0.1c-2.3-1-4.5-0.6-6.5,0.9c-1.7,1.3-3.1,4.1-2,7
		c0.2,0.4,0.1,0.7-0.2,1c-0.7,0.7-1.4,1.5-2.2,2.2c-0.1-0.1-0.1-0.2-0.2-0.3c-0.7-1.3-1.3-2.6-1.4-4.1c0-0.1,0-0.1,0-0.2
		C-291,397.3-291,396.7-291,396.2z"/>
	<path d="M-286.3,405.4c0.9-0.9,1.7-1.7,2.6-2.6c0.1-0.1,0.2,0,0.3,0c1.6,0.6,3.1,0.7,4.7,0.1c3.2-1.2,4.8-4.5,3.7-7.7
		c-0.1-0.3-0.3-0.6-0.2-0.8c0.1-0.2,0.4-0.4,0.6-0.6c0.7-0.7,1.4-1.4,2.1-2.1c0.9,1.5,1.5,3.2,1.5,4.9c0.1,2.6-0.7,5-2.4,7
		C-277.3,407.9-283,407.7-286.3,405.4z"/>
</g>
</svg>
