<?xml version="1.0" encoding="utf-8"?>
<!-- Generator: Adobe Illustrator 19.0.0, SVG Export Plug-In . SVG Version: 6.00 Build 0)  -->
<svg version="1.1" id="Layer_1" xmlns="http://www.w3.org/2000/svg" xmlns:xlink="http://www.w3.org/1999/xlink" x="0px" y="0px"
	 viewBox="-207 299 196 196" style="enable-background:new -207 299 196 196;" xml:space="preserve">
<g>
	<path d="M-189,408.6c0.7-4.7,1.4-9.5,2.2-14.2c1.2-7.5,2.9-14.8,6-21.8c2.9-6.5,6.9-12.1,12.1-16.9c8-7.4,17-13.5,26.9-18
		c10.5-4.8,21.1-9.6,32.3-12.5c1.2-0.3,2-0.1,2.9,0.7c9.6,9,19.3,17.9,28.9,26.9c0.6,0.6,1.2,1.5,1.4,2.4
		c2.9,12.8,5.7,25.7,8.6,38.5c0.3,1.2,0,2-1,2.7c-3.6,2.6-5,2.7-8.7,0.2c-3.8-2.6-6.3-6.2-8.4-10.1c-1.1-2-2.2-4-2.8-6.2
		c-1.4-5-4.4-8.6-8.2-12c-7.8-6.9-15.3-14.1-22.9-21.2c-0.5-0.5-1.1-0.9-1.9-1.7c-0.2,2.8-0.3,5.2-0.4,7.6c-0.4,8-0.7,16-1.1,24
		c-0.1,1.4-0.5,2.9-1.1,4.1c-7,13.9-14,27.8-21.1,41.6c-0.7,1.3-0.6,2.3,0.2,3.5c2.7,4,5.2,8.1,7.8,12.1c0.3,0.5,0.7,1,1.3,1.8
		c3.5-7.1,6.9-14,10.3-20.9c0.2,0,0.3,0,0.5,0.1c1.4,16.4,2.8,32.9,4.2,49.5c-0.9,0.1-1.7,0.1-2.4,0.1c-9.5,0-19.1,0.1-28.6-0.1
		c-1.1,0-2.6-0.6-3.4-1.4c-10.3-10.3-20.5-20.6-30.7-31c-0.7-0.8-1.2-2.1-1.3-3.2c-0.1-2.1,0.2-4.2,0.2-6.3c0-1.2,0.4-1.6,1.6-1.9
		c4.5-1,8.9-2,13.9-3.2c-1.5-1-2.6-1.7-3.6-2.3c-4.5-2.8-9-5.6-13.5-8.3C-189,410.3-189,409.5-189,408.6z"/>
	<path d="M-111.9,415.3c26.4,0,52.4,0,78.7,0c0.1,0.6,0.2,1.2,0.2,1.9c0,3.4-0.2,6.9,0.1,10.3c0.3,3.1-0.7,5.3-3,7.4
		c-1.7,1.5-3.2,2.2-5.5,2.2c-22.2-0.1-44.4,0-66.6,0c-0.9,0-1.7,0-3,0C-111.4,429.7-111.6,422.6-111.9,415.3z"/>
	<path d="M-107.9,468.1c-0.6-5.5-1.2-10.7-1.8-16.2c19.2,0,38.3,0,57.7,0c0,3.8,0.1,7.6,0,11.5c-0.1,1.6-4.6,4.8-6.4,4.8
		c-14.5,0-29,0-43.4,0C-103.8,468.1-105.8,468.1-107.9,468.1z"/>
	<path d="M-52.4,401.2c-1.6-7.3-3.2-14.5-4.8-21.8c9.4,0,18.6,0,28.1,0c0,4.2-0.3,8.5,0.1,12.6c0.4,4.5-3.1,6.2-5.3,8.9
		c-0.1,0.2-0.5,0.2-0.8,0.2C-40.8,401.2-46.6,401.2-52.4,401.2z"/>
	<path d="M-65.1,344.8c8.6,0,17.4,0,26.4,0c0,5,0.4,10-0.2,14.8c-0.3,2.3-2.6,4.3-4,6.3c-0.2,0.3-0.9,0.3-1.4,0.3
		c-4.6,0-9.3,0-13.9,0c-1.3,0-1.7-0.5-2-1.7c-1-5.1-2.1-10.2-3.3-15.3C-63.9,347.8-64.6,346.4-65.1,344.8z"/>
	<path d="M-92.5,401.1c-6.5,0-12.7,0-19.2,0c0.1-6.9-0.8-13.8,1.9-20.4c0.1-0.2,0.1-0.4,0.3-0.6c1.1-1.1,6.8-0.2,7.2,1.3
		C-100.6,388.6-96.8,394.8-92.5,401.1z"/>
</g>
</svg>
