<?xml version="1.0" encoding="utf-8"?>
<!-- Generator: Adobe Illustrator 19.0.0, SVG Export Plug-In . SVG Version: 6.00 Build 0)  -->
<svg version="1.1" id="Layer_1" xmlns="http://www.w3.org/2000/svg" xmlns:xlink="http://www.w3.org/1999/xlink" x="0px" y="0px"
	 viewBox="-293 385 24 24" style="enable-background:new -293 385 24 24;" xml:space="preserve">
<g>
	<path d="M-281,401.4l-1.8,1.3c0.1,0.1,0.2,0.2,0.4,0.3s0.3,0.2,0.4,0.2l0.4,3.9l2.6-3.4c0.3,0,0.6-0.1,0.9-0.1
		c0.3-0.1,0.6-0.2,0.8-0.3l2.9,1.3l-0.9-2.9c0.3-0.4,0.5-0.9,0.7-1.4l2.4-0.9l-2.1-1.2c0-0.2,0-0.4-0.1-0.6c0-0.2-0.1-0.4-0.1-0.6
		l-1.6,1.1l2.1,1.1l-3.3,0.5l1.4,3.1l-3.1-2.1l-1.8,3.8L-281,401.4z M-280.4,393.7l2.6-1.8l-0.8,0.2c-0.3-0.2-0.5-0.3-0.8-0.4
		c-0.3-0.1-0.6-0.2-0.9-0.3l-1.8-4.4l-0.7,4.4l-0.7,0.2l-2.2-1.4l0.6,2.5c-0.1,0.1-0.2,0.2-0.3,0.3c-0.1,0.1-0.2,0.2-0.3,0.4l-4.1-1
		l3.2,2.7c0,0.1-0.1,0.3-0.1,0.4c0,0.1,0,0.3-0.1,0.4l-2.5,0.7l2.6,0.9l0,0.1c0,0,0,0.1,0,0.2l1.3-0.9l-1.6-0.3l2.9-1l-2.1-1.5
		l2.8,0.2l-0.9-2.2l1.8,1.3l0.7-3.3L-280.4,393.7z M-279.8,398.5l8.4-6.6l-9.6,4.7l-9.6,7.3L-279.8,398.5z"/>
</g>
</svg>
