<?xml version="1.0" encoding="utf-8"?>
<!-- Generator: Adobe Illustrator 19.0.0, SVG Export Plug-In . SVG Version: 6.00 Build 0)  -->
<svg version="1.1" id="Layer_1" xmlns="http://www.w3.org/2000/svg" xmlns:xlink="http://www.w3.org/1999/xlink" x="0px" y="0px"
	 viewBox="-293 385 24 24" style="enable-background:new -293 385 24 24;" xml:space="preserve">
<g>
	<path d="M-281,407c1.4,0,2.7-0.3,3.9-0.8c1.2-0.5,2.3-1.2,3.2-2.1c0.9-0.9,1.6-2,2.2-3.2c0.5-1.2,0.8-2.5,0.8-3.9s-0.3-2.7-0.8-3.9
		c-0.5-1.2-1.3-2.3-2.2-3.2c-0.9-0.9-2-1.6-3.2-2.1c-1.2-0.5-2.5-0.8-3.9-0.8s-2.7,0.3-3.9,0.8c-1.2,0.5-2.3,1.2-3.2,2.1
		c-0.9,0.9-1.6,2-2.2,3.2c-0.5,1.2-0.8,2.5-0.8,3.9s0.3,2.7,0.8,3.9c0.5,1.2,1.2,2.3,2.2,3.2c0.9,0.9,2,1.6,3.2,2.1
		C-283.7,406.7-282.4,407-281,407z M-273.9,401.8c-0.8,1.1-1.8,2.1-3,2.8c-1.2,0.7-2.6,1-4.1,1c-0.4,0-0.9,0-1.3-0.1
		s-0.8-0.1-1.2-0.3c0.6-0.7,1.1-1.3,1.5-1.8s0.8-0.8,1.1-1c0.3-0.2,0.5-0.4,0.7-0.4c0.2-0.1,0.3-0.1,0.4-0.1c0.1,0,0.1,0,0.2,0
		c0.3,0.1,0.5,0.4,0.7,0.7c0.2,0.3,0.4,0.6,0.5,0.9s0.2,0.6,0.3,0.8l0.1,0.3l0-0.1c0-0.2,0-0.4,0-0.7c0-0.3,0-0.6,0.1-0.9
		s0.1-0.6,0.2-0.8c0.1-0.2,0.2-0.4,0.4-0.5c0.3-0.1,0.7-0.2,1.1-0.2c0.3,0,0.6,0,1,0.1C-274.8,401.6-274.4,401.7-273.9,401.8z
		 M-284.1,405c-0.8-0.3-1.6-0.7-2.2-1.3c-0.7-0.5-1.3-1.2-1.7-1.9c-0.5-0.7-0.9-1.5-1.1-2.3s-0.4-1.7-0.4-2.6c0-0.9,0.1-1.8,0.4-2.7
		c0.3-0.8,0.7-1.6,1.2-2.4l0.9,0.6c0.2,0.1,0.4,0.3,0.6,0.4c0.2,0.1,0.4,0.3,0.6,0.4c0.2,0.1,0.5,0.3,0.7,0.4
		c0.2,0.2,0.5,0.3,0.7,0.4c0.3,0.2,0.6,0.4,0.8,0.6c0.3,0.2,0.6,0.4,0.8,0.6c-0.4,0-0.9-0.1-1.4-0.3c-0.5-0.1-0.9-0.3-1.3-0.4
		c-0.4-0.1-0.7-0.3-1-0.4l-0.4-0.1l0,0c0.3,0.2,0.7,0.4,1.1,0.7c0.5,0.3,0.9,0.6,1.3,1s0.8,0.7,1,1c0.3,0.3,0.4,0.6,0.3,0.9
		c-0.1,0.3-0.2,0.6-0.5,0.8s-0.5,0.4-0.7,0.6c-0.3,0.2-0.5,0.3-0.8,0.4s-0.4,0.1-0.6,0.1l0,0l0.4,0c0,0,0.3,0.1,0.9,0.2
		c0.6,0.1,0.9,0.2,1,0.3c0.1,0.1,0.3,0.3,0.7,0.6c0.1,0.2,0,0.7-0.2,1.4C-283.1,402.9-283.5,403.9-284.1,405z M-287.1,391
		c0.3-0.3,0.6-0.6,1-0.9c0.4-0.3,0.7-0.5,1.1-0.7c0.6,0.8,1.2,1.6,1.8,2.4c0.6,0.8,1.1,1.5,1.6,2c0.5,0.7,1,1.4,1.5,2h0
		c0.1-0.1,0.2-0.3,0.3-0.4c0.1-0.1,0.1-0.2,0.1-0.2c0.2,0.3,0.4,0.5,0.6,0.7c0.2,0.2,0.4,0.4,0.6,0.5c0.6,0.3,1.1,0.4,1.6,0.5
		c0,0.2-0.1,0.4-0.1,0.6c0,0.2,0,0.4,0,0.6c0,0.2,0.1,0.5,0.2,0.8s0.3,0.8,0.7,1.3h-0.1c-0.7,0-1.3,0.1-1.7,0.3
		c-0.1,0.1-0.3,0.1-0.4,0.2c-0.1,0.1-0.2,0.2-0.3,0.4c-0.1,0-0.1-0.1-0.2-0.1c-0.1,0-0.1-0.1-0.2-0.1c-0.2-0.2-0.5-0.3-0.9-0.3
		c-0.4,0-0.9,0.2-1.3,0.5c0-0.3,0-0.5-0.1-0.6s-0.1-0.3-0.2-0.3c-0.2-0.3-0.4-0.6-0.9-0.9c0.3-0.4,0.5-0.7,0.5-1.1
		c0.1-0.4,0.1-0.9-0.2-1.4c0.2,0,0.3,0,0.4-0.1c0.1,0,0.3-0.1,0.4-0.1v0c0.1,0,0.2,0.1,0.3,0.1c0.1,0,0.2,0.1,0.3,0.1
		c0.1,0.1,0.2,0.1,0.3,0.2c0.1,0.1,0.2,0.1,0.3,0.2c0.1,0.1,0.2,0.1,0.4,0.2c-0.1-0.2-0.2-0.3-0.3-0.5l-0.4-0.5
		c-0.4-0.4-0.6-0.7-0.7-0.7c-1-0.8-2-1.7-3-2.4C-285,392.6-286.1,391.8-287.1,391z M-281,388.4c1.2,0,2.3,0.2,3.3,0.7
		c1,0.4,2,1.1,2.7,1.9c0.8,0.8,1.4,1.7,1.9,2.8c0.5,1,0.7,2.2,0.7,3.3c0,0.7-0.1,1.4-0.3,2.1c-0.2,0.6-0.4,1.3-0.7,1.9
		c-0.6-0.4-1-0.8-1.3-1.2c-0.3-0.4-0.5-0.7-0.7-1c-0.2-0.3-0.3-0.6-0.3-0.9c-0.1-0.5,0-0.9,0.1-1.3s0.3-0.7,0.6-1
		c0.2-0.3,0.4-0.5,0.6-0.7l0.3-0.3l-0.1,0l-0.5,0.2c-0.5,0.2-0.9,0.3-1.3,0.5c-0.4,0.1-0.7,0.2-1,0.2c-0.4,0-0.7-0.1-1.1-0.3
		c-0.2-0.1-0.4-0.4-0.6-0.7c-0.2-0.3-0.4-0.7-0.6-1.1c-0.2-0.4-0.3-0.8-0.5-1.3c-0.1-0.4-0.2-0.8-0.3-1.2c-0.1-0.4-0.2-0.7-0.2-0.9
		c0-0.2-0.1-0.4-0.1-0.4l-0.1,0.1l0,0.4c0,0.2,0,0.5,0,0.9s-0.1,0.8-0.1,1.2s-0.1,0.9-0.2,1.3c0,0-0.1-0.1-0.1-0.1
		c0,0-0.1-0.1-0.1-0.1c-0.2-0.4-0.4-0.7-0.6-1s-0.4-0.6-0.6-0.9c-0.2-0.3-0.4-0.6-0.6-0.9s-0.4-0.6-0.6-0.9l-0.5-0.7
		c0.4-0.1,0.8-0.3,1.2-0.3C-281.9,388.4-281.5,388.4-281,388.4z"/>
</g>
</svg>
