<?xml version="1.0" encoding="utf-8"?>
<!-- Generator: Adobe Illustrator 19.0.0, SVG Export Plug-In . SVG Version: 6.00 Build 0)  -->
<svg version="1.1" id="Layer_1" xmlns="http://www.w3.org/2000/svg" xmlns:xlink="http://www.w3.org/1999/xlink" x="0px" y="0px"
	 viewBox="-207 299 196 196" style="enable-background:new -207 299 196 196;" xml:space="preserve">
<g id="XMLID_1_">
	<path id="XMLID_4_" d="M-134.1,367.3c-3.9,3.1,0.9,12.1-3.2,15.5c-2.4,2-5.6,0-7.5,2.3c-1.3,1.5-0.7,4.7-0.3,7.3
		c1.7,11.7-8.2,20.8-8.9,21.5c-0.8,0.7-3.2,2.9-4.4,2.3c-1.1-0.6-0.5-3.5-0.5-4.4c2.4-24.4-1.9-37.4-12.5-47
		c-0.8-0.8-2.9-3.2-2.4-3.8c1.7-2.1,9.1-1.5,12-1.5c35.8,0.4,38.7-8.5,49.7-30.7c0.4-0.8,1.9-4.2,3.5-4c1.2,0.1,1.9,1.9,2.1,2.4
		c2,5,16.7,27.1,32.6,30.4c7.1,1.5,22.3,0.8,23.1,0.8c2.1-0.1,5.8-0.3,6.3,1.1c0.6,1.6-3.4,4.5-5.2,5.9
		c-8.5,6.8-12.7,18.9-13.2,26.9C-63.9,407-53.1,423-47.2,428c0.8,0.7,3.7,3,3.1,4.2c-0.5,1.3-4.3,0.8-5.3,0.7
		c-4.9-0.5-31.4-2.2-43,8.8c-4.6,4.3-11.3,14.7-13.8,22.7c-0.3,1.1-1.4,4.7-3.1,4.8c-1.6,0.1-2.9-3.3-3.5-4.8
		c-4.3-10.1-15.5-22-26.5-26.9c-3.7-1.6-7.6-2.6-7.7-4.4c0-1.3,1.8-1.5,6.8-5.1c3.4-2.5,4.9-4.1,6.9-3.7c1.2,0.2,1.8,1,2.4,1.6
		c3.5,3.6,9.1,6,12.8,6.1c4.6,0.1,4.6-3.4,9.7-3.9c6.2-0.6,8.7,4.4,12.2,2.9c3.9-1.6,1.4-8,6.3-12.8c4.9-4.8,12.6-1.7,14.2-4.1
		c0.8-1.3-2.5-6.3-3.7-12.4c-0.4-2-1.5-8,1.2-13.7c1.6-3.4,6.2-10.4,7.9-13.9c0.2-0.4,0.6-1.3,0.3-1.8c-0.5-0.7-2-0.5-2.5-0.5
		c-0.4,0.1-12.1,1.5-18.1-1.6c-4.3-2.2-8.9-8.5-10.4-11.7c-0.2-0.5-1-2.2-2.1-2.2c-1.1-0.1-2,1.3-2.4,1.7c-3.1,4.3-13.1,8.7-21.3,9
		C-131.4,367.3-132.5,366-134.1,367.3z"/>
	<path id="XMLID_2_" d="M-165.5,437.8c-0.8,0.6-3.4,2.3-5,1.4c-1.4-0.8-1.4-2.8-0.1-4.3c4.2-5.3,25.9-21,34.9-30.9
		c0.5-0.5,3.4-3.8,7.6-8c1.2-1.2,2.2-2.2,3.7-3.7c4-3.8,7.4-6.6,9.7-8.5c2.5-2,3.8-3,5.7-4.1c1.7-1,3.3-1.7,4.7-2.3
		c0,0,0.8-0.3,1.5-0.5c2.5-0.8,9.6-1.5,13.1,1.1c4.4,3.3,1.3,15.5-4.4,20.9c-7.8,7.3-10.4,5.3-29.2,15.2
		C-126.6,415.8-156.6,431.9-165.5,437.8z"/>
</g>
<path d="M-55.7,384.8"/>
</svg>
