<?xml version="1.0" encoding="utf-8"?>
<!-- Generator: Adobe Illustrator 19.0.0, SVG Export Plug-In . SVG Version: 6.00 Build 0)  -->
<svg version="1.1" id="Layer_1" xmlns="http://www.w3.org/2000/svg" xmlns:xlink="http://www.w3.org/1999/xlink" x="0px" y="0px"
	 viewBox="-207 299 196 196" enable-background="new -207 299 196 196" xml:space="preserve">
<g id="XMLID_1_">
	<path id="XMLID_96_" d="M-47.9,345.8c0.4,8.1,3.1,15.6,5.9,23.1c6.7,18.3,6.2,36.5-0.3,54.5c-3.1,8.6-5.1,16.9-4.7,26.2
		c0.4,8.9-1.9,16.7-9.4,22.6c-5.8,4.4-13.6,6.9-19.2,2.4c-8.2-6.4-17.2-5.4-26.2-5.6c-6.4-0.3-13,0.3-19.5,0.1
		c-7.3-0.1-13.7,0.8-20.2,5.1c-9.3,6.3-25.4-1.7-28.5-13.2c-0.1-0.4-0.3-0.9-0.3-1.3c0.1-17.5-5.5-33.7-9.3-50.5
		c-3.1-13.6-0.4-26.5,3.4-39.6c2.6-8.9,4.3-18.3,4.4-27.4c0.4-20.7,17.2-31.3,35.3-21.5c0.5,0.3,1.2,0.8,1.7,0.9
		c18.1,2.7,37.5,6.2,54-1.6c17.3-8.3,35.7,4.2,33.3,21.6C-47.4,343-47.9,344.5-47.9,345.8C-48.5,345.9-47.5,345.7-47.9,345.8z
		 M-172.3,394.4c0.3,3.8,0.1,7.7,0.8,11.4c0.7,3.9,1.7,7.9,2.8,11.7c10.9,39.1,52.7,55.9,88.5,39.1c27.4-12.8,37.3-42.9,34.1-70
		c-2.7-22.6-14.4-39.8-34.3-49.8C-123.8,314.8-172.3,345.7-172.3,394.4z M-151.8,461.9c0-2.4-3.2-4.7-5.4-4.7s-5.4,2.7-5.4,5
		c0,3.2,3.2,5.6,5.6,5.6C-155,467.8-151.8,464.8-151.8,461.9z M-152.7,330c0-3.5-2.4-5.1-5.2-5.1c-1.9,0-5,3-5,5.2
		c0,2.6,2.3,5.2,4.7,5.4C-156.3,335.5-152.7,333.3-152.7,330z M-54.9,330.5c0-0.8-0.1-2.1-0.5-2.8c-1.1-1.5-1.9-2.1-4.4-2.1
		c-1.5,0-4.3,1.3-4.3,4.6c0,2.3,2.6,4.6,4.4,4.6C-57.6,334.5-54.9,332.2-54.9,330.5z M-55.2,462c0-2.8-2.1-4.6-4.3-4.6
		c-2.4,0-4,2.4-4,4.4c0,2.3,2.4,4.8,4,4.8C-57.2,466.6-55.2,465.1-55.2,462z"/>
	<path id="XMLID_86_" d="M-50.7,395c2,32.2-26.7,61.3-56.3,61.4c-33.3,0.3-58.6-24.7-58.8-58.3c-0.4-33.6,24.9-61.3,56.3-61.4
		C-77.2,336.7-50.7,364.1-50.7,395z M-158.2,395.1c-0.3,30.4,21.2,53.7,49.6,54.1c27.1,0.3,51.3-23.6,51.3-52
		c0-30.2-25.4-52.8-48.2-53.3C-135.9,343.1-158,365-158.2,395.1z"/>
	<path id="XMLID_78_" d="M-133.6,425.3c-1.7-0.5-3.8-2.4-3.4-4.3c0.4-2.4,2.6-4.7,4.4-6.6c14.5-14.9,29-29.8,43.5-44.6
		c1.1-1.1,2.3-2.4,3.6-2.8c1.5-0.4,3.8-0.4,4.8,0.5c1.1,0.9,1.5,3.2,1.2,4.7c-0.3,1.6-1.6,3.2-2.8,4.4c-14.5,15.2-29,30.4-43.7,45.5
		C-127.9,424.1-133.1,425.6-133.6,425.3z"/>
	<path id="XMLID_77_" d="M-117.6,433c-2.8-0.4-3.8-3.2-3.2-5.2c0.7-2.6,3.1-4.8,5.1-6.9c10.2-10.6,20.6-21.2,30.8-31.8
		c0.9-0.9,1.9-2,3-2.8c2.8-2.3,6.3-5.2,9.1-1.5c1.2,1.6,0,6.6-1.7,8.5c-7.7,8.5-15.9,16.4-23.9,24.6c-3.9,4-7.5,8.2-11.6,12.2
		C-111.9,431.8-116.6,433.1-117.6,433z"/>
	<path id="XMLID_76_" d="M-95.8,363.4c0.1,2.8-0.9,4.2-2.1,5.4c-11.8,12.2-23.6,24.5-35.5,36.5c-0.9,0.9-1.9,2.3-3.1,2.6
		c-2.1,0.3-5,0.7-6.6-0.4c-1.1-0.7-0.5-3.9-0.4-5.9c0.1-0.9,1.1-1.9,1.9-2.7c11.8-12.1,23.8-24.2,35.7-36.3c1.3-1.3,3.5-3,5.1-2.8
		C-98.6,359.9-95.9,361.7-95.8,363.4z"/>
	<path id="XMLID_75_" d="M-69.6,409.1c-0.5,2.3-1.9,4.6-3.4,6.2c-5.6,6.3-11.4,12.6-17.6,18.3c-1.7,1.5-6.7,1.3-7.5,0.1
		c-1.1-1.7-0.8-4.8,0.7-6.6c6.2-7,12.8-13.7,19.5-20.2c1.2-1.1,3.6-1.5,5.4-1.3C-71.3,405.9-69.4,407.6-69.6,409.1z"/>
	<path id="XMLID_74_" d="M-142,386.8c-4.8-0.7-6-3.4-3.6-6.3c6.7-7.9,14.1-15.4,21.4-23c0.8-0.8,3.9-0.8,4.7,0
		c1.1,1.1,1.6,3.5,1.3,5.2c-0.3,1.9-1.6,3.6-3,5.1c-5,5.4-10.2,10.6-15.4,15.9C-137.9,385.2-141.6,386.8-142,386.8z"/>
</g>
</svg>
