<?xml version="1.0" encoding="utf-8"?>
<!-- Generator: Adobe Illustrator 19.0.0, SVG Export Plug-In . SVG Version: 6.00 Build 0)  -->
<svg version="1.1" id="Layer_1" xmlns="http://www.w3.org/2000/svg" xmlns:xlink="http://www.w3.org/1999/xlink" x="0px" y="0px"
	 viewBox="-293 385 24 24" style="enable-background:new -293 385 24 24;" xml:space="preserve">
<g>
	<path d="M-284.9,387.8c-1.2,0.5-2.3,1.2-3.2,2.1c-0.9,0.9-1.6,2-2.1,3.2c-0.5,1.2-0.8,2.5-0.8,3.9c0,1.4,0.3,2.7,0.8,3.9
		c0.5,1.2,1.2,2.3,2.1,3.2c0.9,0.9,2,1.6,3.2,2.1c1.2,0.5,2.5,0.8,3.9,0.8c1.4,0,2.7-0.3,3.9-0.8c1.2-0.5,2.3-1.2,3.2-2.1
		c0.9-0.9,1.6-2,2.1-3.2s0.8-2.5,0.8-3.9c0-1.4-0.3-2.7-0.8-3.9s-1.2-2.3-2.1-3.2c-0.9-0.9-2-1.6-3.2-2.1c-1.2-0.5-2.5-0.8-3.9-0.8
		C-282.4,387-283.7,387.3-284.9,387.8z M-288.9,393.6c0.5-1,1.1-2,1.8-2.7s1.7-1.4,2.7-1.8c1-0.5,2.2-0.7,3.3-0.7s2.3,0.2,3.4,0.7
		c1.1,0.5,2,1.1,2.7,1.8s1.4,1.7,1.8,2.7c0.5,1,0.7,2.2,0.7,3.4c0,0.2,0,0.5,0,0.7c0,0.2,0,0.4-0.1,0.7c-0.3,0.1-0.7,0.2-1.3,0.3
		s-1.1,0.2-1.8,0.3c-0.6,0.1-1.3,0.1-1.9,0.2c-0.6,0-1.1,0-1.6-0.2s-0.7-0.4-0.8-0.7c-0.1-0.3,0-0.8,0.3-1.4l2.2,0.5l-2.9-5.2
		l-6,2.6l2.2,0.7c-0.7,1.1-1.1,2.2-1,3.4c0,0.5,0.1,1,0.3,1.6c0.2,0.6,0.5,1.1,0.9,1.7c0.4,0.6,1,1.1,1.7,1.7
		c0.7,0.6,1.6,1.1,2.8,1.6c-0.3,0.1-0.6,0.1-0.8,0.1c-0.3,0-0.6,0-0.9,0c-1.2,0-2.3-0.2-3.3-0.7s-2-1.1-2.7-1.8
		c-0.8-0.8-1.4-1.7-1.8-2.7c-0.5-1-0.7-2.2-0.7-3.4S-289.4,394.7-288.9,393.6z"/>
</g>
</svg>
