<?xml version="1.0" encoding="utf-8"?>
<!-- Generator: Adobe Illustrator 19.0.0, SVG Export Plug-In . SVG Version: 6.00 Build 0)  -->
<svg version="1.1" id="Layer_1" xmlns="http://www.w3.org/2000/svg" xmlns:xlink="http://www.w3.org/1999/xlink" x="0px" y="0px"
	 viewBox="-293 385 24 24" style="enable-background:new -293 385 24 24;" xml:space="preserve">
<g>
	<path d="M-271,393.8l-3.4-5.2l-1.7,2.4c-0.7-0.6-1.4-1.1-2.2-1.5c-0.8-0.3-1.7-0.5-2.7-0.5c-0.9,0-1.8,0.2-2.7,0.5
		c-0.8,0.4-1.6,0.8-2.2,1.5l-1.8-2.4l-3.3,5.2l3.2,0.6c-0.1,0.6-0.2,1.1-0.2,1.6c0,0.8,0.1,1.5,0.4,2.2c0.3,0.7,0.6,1.4,1,1.9
		s1,1.1,1.6,1.5c0.6,0.4,1.3,0.7,2,0.9l-1.1,2.8h6.2l-1.1-2.8c0.7-0.2,1.4-0.5,2-1c0.6-0.4,1.1-0.9,1.6-1.5s0.8-1.2,1-1.9
		c0.2-0.7,0.4-1.4,0.4-2.2c0-0.5-0.1-1-0.2-1.6L-271,393.8z M-276.1,394.8c0,0.2,0.1,0.4,0.1,0.6s0.1,0.4,0.1,0.7
		c0,0.6-0.1,1.1-0.3,1.7c-0.2,0.5-0.5,1-0.8,1.4c-0.3,0.4-0.7,0.8-1.2,1.1c-0.5,0.3-1,0.5-1.5,0.7l-1.3-3.2l-1.3,3.2
		c-0.6-0.1-1.1-0.4-1.5-0.7c-0.5-0.3-0.9-0.7-1.2-1.1c-0.3-0.4-0.6-0.9-0.8-1.5c-0.2-0.5-0.3-1.1-0.3-1.7c0-0.5,0-0.9,0.1-1.3
		l3.2,0.6l-2-2.8c0.5-0.5,1-0.9,1.7-1.2c0.6-0.3,1.3-0.5,2.1-0.5c0.8,0,1.5,0.2,2.1,0.5c0.7,0.3,1.2,0.7,1.7,1.2l-1.9,2.8
		L-276.1,394.8z"/>
</g>
</svg>
