<?xml version="1.0" encoding="utf-8"?>
<!-- Generator: Adobe Illustrator 19.0.0, SVG Export Plug-In . SVG Version: 6.00 Build 0)  -->
<svg version="1.1" id="Layer_1" xmlns="http://www.w3.org/2000/svg" xmlns:xlink="http://www.w3.org/1999/xlink" x="0px" y="0px"
	 viewBox="-293 385 24 24" style="enable-background:new -293 385 24 24;" xml:space="preserve">
<g>
	<path d="M-285.1,394.2l1.3,1.7l1.1-5.1l-4.3,2.9L-285.1,394.2z M-278,395.7l1.6-5l-4.7,2.5l2,0.7L-278,395.7z M-277.9,401.3
		l1.4,1.6l0.5-5.2l-4,3.4L-277.9,401.3z M-284.9,387.8c-1.2,0.5-2.3,1.2-3.2,2.1c-0.9,0.9-1.6,2-2.2,3.2c-0.5,1.2-0.8,2.5-0.8,3.9
		c0,1.4,0.3,2.7,0.8,3.9c0.5,1.2,1.2,2.3,2.2,3.2c0.9,0.9,2,1.6,3.2,2.1c1.2,0.5,2.5,0.8,3.9,0.8c1.4,0,2.7-0.3,3.9-0.8
		c1.2-0.5,2.3-1.2,3.2-2.1c0.9-0.9,1.6-2,2.1-3.2c0.5-1.2,0.8-2.5,0.8-3.9c0-1.4-0.3-2.7-0.8-3.9c-0.5-1.2-1.2-2.3-2.1-3.2
		c-0.9-0.9-2-1.6-3.2-2.1c-1.2-0.5-2.5-0.8-3.9-0.8C-282.4,387-283.7,387.3-284.9,387.8z M-278.2,403.8c0.1-0.5,0.3-1,0.4-1.4
		l-0.5-0.6l-0.6,0c-0.2,0.6-0.5,1.2-0.7,1.8c-0.2,0.7-0.4,1.3-0.6,2h-0.9c-0.4,0-0.8,0-1.2-0.1c-0.4,0-0.8-0.1-1.2-0.3
		c0.5-2.3,1.1-4.2,1.9-6c0.8-1.7,1.6-3.2,2.5-4.4l-0.3-0.5l-0.8-0.2c-0.5,0.6-0.9,1.2-1.4,2c-0.5,0.7-0.9,1.5-1.4,2.4
		c-0.5,0.9-0.9,1.8-1.3,2.8c-0.4,1-0.8,2.1-1,3.2c-0.9-0.5-1.6-1.2-2.3-2c0.3-1.4,0.7-2.7,1.2-4c0.5-1.2,0.9-2.3,1.5-3.3l-0.4-0.7
		l-0.5-0.1c-0.5,0.8-1,1.8-1.5,2.8c-0.5,1-1,2.1-1.4,3.3c-0.2-0.5-0.4-1.1-0.5-1.7s-0.2-1.2-0.2-1.8c0-1.2,0.2-2.3,0.7-3.3
		c0.4-1,1.1-1.9,1.8-2.7c0.8-0.8,1.7-1.4,2.7-1.8c1-0.4,2.2-0.7,3.4-0.7c1.2,0,2.3,0.2,3.4,0.7c1,0.4,2,1.1,2.7,1.8s1.4,1.7,1.8,2.7
		c0.5,1,0.7,2.1,0.7,3.3c0,1-0.2,1.9-0.5,2.8c-0.3,0.9-0.7,1.7-1.3,2.4s-1.2,1.3-1.9,1.9c-0.7,0.5-1.6,0.9-2.4,1.2
		C-278.4,404.7-278.3,404.3-278.2,403.8z"/>
</g>
</svg>
