<?xml version="1.0" encoding="utf-8"?>
<!-- Generator: Adobe Illustrator 19.0.0, SVG Export Plug-In . SVG Version: 6.00 Build 0)  -->
<svg version="1.1" id="Layer_1" xmlns="http://www.w3.org/2000/svg" xmlns:xlink="http://www.w3.org/1999/xlink" x="0px" y="0px"
	 viewBox="-207 299 196 196" style="enable-background:new -207 299 196 196;" xml:space="preserve">
<g>
	<path d="M-98.9,395.4l24.9,10.5c-1.6,4-3.2,8-4.8,12.1c-1.6,4-4,8-6.4,12.1c-2.4,4-4.8,7.2-7.2,9.6c-2.4,2.4-4.8,4-7.2,4
		c-1.6,0-4-0.8-5.6-2.4c-1.6-1.6-3.2-3.2-4.8-4.8c-2.4-3.2-4.8-5.6-7.2-8c-2.4-2.4-4.8-4-7.2-4.8c-2.4-0.8-4.8-1.6-6.4-2.4
		c-2.4-0.8-4-0.8-5.6-0.8c-6.4,0-12.9,1.6-18.5,4c-5.6,2.4-11.3,6.4-16.1,9.6c-4.8,4-8.8,7.2-12.1,10.5c-3.2,3.2-4.8,5.6-5.6,6.4
		l12.9,10.5c1.6-1.6,4-4,6.4-7.2c2.4-3.2,6.4-5.6,9.6-8c4-2.4,7.2-4.8,11.3-7.2c4-1.6,8-3.2,11.3-2.4c3.2,0,5.6,0.8,7.2,2.4
		c2.4,1.6,4,3.2,6.4,6.4c2.4,3.2,4.8,6.4,7.2,8c2.4,1.6,4.8,3.2,7.2,4.8c2.4,0.8,4.8,1.6,6.4,1.6c2.4,0,4,0,5.6,0
		c3.2-0.8,5.6-1.6,7.2-2.4c4-1.6,8-4.8,11.3-8.8s6.4-8,8.8-12.9s4.8-8.8,6.4-12.9c1.6-4,3.2-7.2,4-9.6l24.9,10.5l2.4-45l3.2-45.8
		l-37.8,33.8L-98.9,395.4z"/>
</g>
</svg>
