<?xml version="1.0" encoding="utf-8"?>
<!-- Generator: Adobe Illustrator 19.0.0, SVG Export Plug-In . SVG Version: 6.00 Build 0)  -->
<svg version="1.1" id="Layer_1" xmlns="http://www.w3.org/2000/svg" xmlns:xlink="http://www.w3.org/1999/xlink" x="0px" y="0px"
	 viewBox="-293 385 24 24" style="enable-background:new -293 385 24 24;" xml:space="preserve">
<g>
	<path d="M-287.5,395.3l-0.2,0.9l-0.1,1.1l0.1,1.1l0.3,1l0.4,0.9l0.5,0.9l0.8,0.9l1,0.8l1,0.6l1,0.4l0.9,0.2l0.4,3l1.2-2.9l1.1-0.2
		l1-0.4l0.9-0.4l0.7-0.5l0.6-0.6l1.5,0.6l-0.8-1.4l0.4-0.7l0.4-0.8l0.2-0.6l0.1-0.6l0.1-0.4l2.3-0.5l-2.2-0.8l-0.1-0.8l-0.3-1.1
		l-0.6-1.3l-0.8-1l-0.9-0.8l-0.9-0.6l-1.2-0.5l-1-0.2l-0.6-0.1l-0.5,0l-1.7-3.3l0.3,3.5l-1.2,0.4l-1,0.5l-1,0.8l-0.8,0.9l-0.5,0.8
		l-0.3,0.5l-3-0.6L-287.5,395.3z M-282.9,391.7l0.6-0.2l0.1,1.2l-0.6,0.3l-1.3-0.7l0.4-0.3L-282.9,391.7z M-285.3,393.5l0.4-0.4
		l0.3-0.3l0.6,1.5l-0.3,0.4l-0.3,0.4l-1.5-0.3l0.3-0.6L-285.3,393.5z M-286.6,396.6l0.1-0.7l1.4,0.8l0,0.8l-1.4,0.7l-0.1-0.7
		L-286.6,396.6z M-276.2,399.1l0.1-0.8l1-0.2l-0.1,0.7l-0.3,0.7l-0.3,0.7l-0.4-0.7L-276.2,399.1z M-278.8,401.7l0.6-0.2l0.4-0.3
		l0.9,0.4l-0.6,0.5l-0.7,0.5l-0.7,0.2l-0.7,0.2l0.3-1L-278.8,401.7z M-275.4,397.2l-2.9,0.7l1.4,2.5l-2.9-1.5l-1.1,3.5l-0.3-2.6
		l-1.6,1.5l0.4,0.2l0.3,0.1l0.1,1.3l-0.7-0.2l-0.7-0.3l-0.7-0.4l-0.5-0.4l8.4-7.8l0.4,0.6l0.3,0.5l0.2,0.7l0.1,0.7l-0.8-0.3
		l-0.1-0.5l-0.2-0.5l-1.2,1.4L-275.4,397.2z M-284.8,399.3l0.9-0.9l-0.8-0.3l1.8-1.2l-2-1l2.5-0.1l-1-2.1l2,1l-0.1-2.7l1.4,2.5
		l1.7-1.4l-0.1-0.1l-0.4-0.2l-0.7-0.2l-0.5-0.1l-0.5-1l1,0.1l0.9,0.3l0.7,0.3l0.6,0.4l0.5,0.5l-8.5,7.9l-0.4-0.5l-0.4-0.7l-0.2-0.5
		l-0.1-0.5l1.6,0.3L-284.8,399.3z"/>
</g>
</svg>
