<?xml version="1.0" encoding="utf-8"?>
<!-- Generator: Adobe Illustrator 19.0.0, SVG Export Plug-In . SVG Version: 6.00 Build 0)  -->
<svg version="1.1" id="Layer_1" xmlns="http://www.w3.org/2000/svg" xmlns:xlink="http://www.w3.org/1999/xlink" x="0px" y="0px"
	 viewBox="-293 385 24 24" style="enable-background:new -293 385 24 24;" xml:space="preserve">
<g>
	<path d="M-284.4,391.7l-1.2,2l-0.7,1.1l-0.6,1l-1.1,1.8l10.1,2.1L-284.4,391.7z M-271.9,403.3c0.6-0.9,0.9-2,0.9-3.1
		s-0.2-2.3-0.7-3.5c-0.5-1.2-1.2-2.3-2.2-3.5c-1-1.1-2.1-2.1-3.5-3c-1.5-1-3-1.6-4.6-2c-1.6-0.4-3-0.5-4.4-0.4
		c1.1,0,2.2,0.2,3.4,0.6c1.2,0.4,2.3,0.9,3.4,1.7c1.2,0.8,2.3,1.7,3.1,2.7c0.9,1,1.5,2,2,3.1c0.4,1.1,0.7,2.1,0.7,3.1
		s-0.3,2-0.8,2.8c-0.5,0.8-1.3,1.5-2.2,1.9s-2,0.7-3.1,0.7c-1.2,0-2.4-0.1-3.6-0.5c-1.3-0.4-2.5-1-3.7-1.7c-0.7-0.5-1.4-1-2-1.5
		s-1.1-1.1-1.6-1.7c0.6,0.9,1.3,1.7,2.1,2.6c0.8,0.8,1.7,1.6,2.8,2.3c1.4,0.9,2.8,1.5,4.2,1.9s2.8,0.6,4.1,0.6
		c1.3,0,2.5-0.3,3.5-0.8C-273.3,405-272.5,404.3-271.9,403.3z"/>
</g>
</svg>
