<?xml version="1.0" encoding="utf-8"?>
<!-- Generator: Adobe Illustrator 19.0.0, SVG Export Plug-In . SVG Version: 6.00 Build 0)  -->
<svg version="1.1" id="Layer_1" xmlns="http://www.w3.org/2000/svg" xmlns:xlink="http://www.w3.org/1999/xlink" x="0px" y="0px"
	 viewBox="-293 385 24 24" style="enable-background:new -293 385 24 24;" xml:space="preserve">
<g>
	<path d="M-567.2,784.6c0.1-0.6,0.2-1.1,0.2-1.6c0-0.8-0.2-1.5-0.4-2.2c-0.2-0.7-0.5-1.3-1-1.9s-1-1.1-1.6-1.5c-0.6-0.5-1.3-0.8-2-1
		l1.1-2.8h-6.2l1.1,2.8c-0.7,0.2-1.4,0.5-2,0.9c-0.6,0.4-1.2,1-1.6,1.5s-0.7,1.2-1,1.9s-0.4,1.4-0.4,2.2c0,0.5,0.1,1,0.2,1.6
		l-3.2,0.6l3.3,5.2l1.8-2.4c0.6,0.7,1.4,1.1,2.2,1.5c0.9,0.3,1.8,0.5,2.7,0.5c1,0,1.9-0.2,2.7-0.5c0.8-0.4,1.5-0.9,2.2-1.5l1.7,2.4
		l3.4-5.2L-567.2,784.6z M-572.1,783.6l1.9,2.8c-0.5,0.5-1,0.9-1.7,1.2c-0.6,0.3-1.3,0.5-2.1,0.5c-0.8,0-1.5-0.2-2.1-0.5
		c-0.7-0.3-1.2-0.7-1.7-1.2l2-2.8l-3.2,0.6c-0.1-0.4-0.1-0.8-0.1-1.3c0-0.6,0.1-1.2,0.3-1.7c0.2-0.6,0.5-1.1,0.8-1.5
		c0.3-0.4,0.7-0.8,1.2-1.1c0.4-0.3,0.9-0.6,1.5-0.7l1.3,3.2l1.3-3.2c0.5,0.2,1,0.4,1.5,0.7c0.5,0.3,0.9,0.7,1.2,1.1
		c0.3,0.4,0.6,0.9,0.8,1.4c0.2,0.6,0.3,1.1,0.3,1.7c0,0.3-0.1,0.5-0.1,0.7c0,0.2-0.1,0.4-0.1,0.6L-572.1,783.6z"/>
</g>
</svg>
