<?xml version="1.0" encoding="utf-8"?>
<!-- Generator: Adobe Illustrator 19.0.0, SVG Export Plug-In . SVG Version: 6.00 Build 0)  -->
<svg version="1.1" id="Layer_1" xmlns="http://www.w3.org/2000/svg" xmlns:xlink="http://www.w3.org/1999/xlink" x="0px" y="0px"
	 viewBox="-207 299 196 196" enable-background="new -207 299 196 196" xml:space="preserve">
<g id="XMLID_1_">
	<path id="XMLID_31_" d="M-102.2,327c2.2,0.3,3.4,0.5,5.7,0.9c2.6,0.5,13.3,2.4,20,4c9.5,2.1,18.3,4,28.3,6.6
		c3.1,0.9,6.4,1.2,9.5,2.1c10.3,2.6,11.2,3.1,8.4,14.3c-0.5,2.6-1,4.7-1.6,7.1c-0.3,2.4-0.9,5.5-1.4,7.9c-0.7,3.8-2.6,16.2-4.3,24.1
		c-1.2,5.7-2.9,11.4-4.5,17.1c-0.7,2.1-1.7,3.8-4,3.4c-1.6-0.2-3.1-1.6-3.8-2.4c-2.8-3.3-5.3-7.9-8.1-10.7
		c-4.3-4.7-8.3-3.4-13.8-1.4c-2.1,0.7-3.6,1.2-5.9,1c-1.7-0.2-3.6-3.3-4.8-5c-4.8-7.6-10-14.8-15-22.2c-3.4-5.2-6.7-10.5-10.5-15.3
		c-2.4-3.1-5-6.7-4.8-8.8c0.2-1,2.8-4,3.4-4.5c4-3.4,2.9-6.4,1.7-10.2c-0.5-1.9-2.4-4.5-1.4-6.2C-107.6,326.3-104.5,327-102.2,327z"
		/>
	<path id="XMLID_30_" d="M-121.2,426.6c0.2,1.4,0,1.9-1.7,3.8c-1.7,1.9-3.4,3.8-5.5,5.5c-4.8,4-9.3,3.1-12.2-2.6
		c-4.1-8.1-7.1-15.5-10.2-23.3c-3.6-9.7-7.8-19-11.7-28.6c-2.6-6.4-3.4-9.1-6.2-16c-0.2-0.5-1.9-4.7,0.2-6.7
		c4.5-4.3,7.9-6.2,12.9,0.3c2.1,2.8,3.4,5.3,5,8.3c4.7,9,10,17.6,14.3,26.7c3.4,7.2,6.9,14.5,10.5,21.5
		C-123.8,419.2-122.6,422.8-121.2,426.6z"/>
	<path id="XMLID_29_" d="M-188.8,424.4c0-12.1,0-24.1,0-36.2c0-1.2-1-11,1.4-11c1.6,0,3.3,7.8,4,10.2c2.9,10.5,4.7,20.7,7.4,30.5
		c2.8,11,5.7,22.1,9.1,33.1c1.4,4.7-0.3,9.1-5,11.6c-2.4,1.2-4.8,2.4-7.2,3.4c-5.9,2.8-9.8,0.5-9.8-5.7
		C-188.8,448.5-188.8,436.5-188.8,424.4z"/>
	<path id="XMLID_28_" d="M-136.5,353.5c0.2-1.4,0.5-1.7,3.1-2.9c2.2-1,4-0.9,5.5,0.3c2.4,1.9,4.3,4.5,6,6.9
		c5.2,8.1,10.3,16,15.5,24.1c4.8,7.6,9.5,15.3,13.4,23.6c1.2,2.8,1.2,4.3-0.9,6.6c-5.9,6.2-7.4,5.7-12.1-1.9
		c-6-9.8-10.7-20.3-16.2-30.2c-3.6-6.2-6.9-12.6-10.3-18.8C-134.1,359.1-135.5,356.1-136.5,353.5z"/>
</g>
</svg>
