<?xml version="1.0" encoding="utf-8"?>
<!-- Generator: Adobe Illustrator 19.0.0, SVG Export Plug-In . SVG Version: 6.00 Build 0)  -->
<svg version="1.1" id="Layer_1" xmlns="http://www.w3.org/2000/svg" xmlns:xlink="http://www.w3.org/1999/xlink" x="0px" y="0px"
	 viewBox="-293 385 24 24" style="enable-background:new -293 385 24 24;" xml:space="preserve">
<g>
	<path d="M-274.9,396.9c-0.4-0.5-0.5-1.2-0.2-1.9c0.2-0.8,0.7-1.7,1.4-2.7c0.7-1,1.6-2.2,2.7-3.6c-1.4,1-2.6,1.9-3.6,2.6
		c-1.1,0.7-2,1.1-2.8,1.3c-0.8,0.2-1.5,0.1-2-0.4s-1-1.2-1.3-2.4c0,0.6-0.1,1.1-0.2,1.5c-0.1,0.4-0.2,0.8-0.3,1
		c-0.5-0.3-1-0.4-1.5-0.6s-1.1-0.2-1.7-0.2c-0.9,0-1.7,0.2-2.6,0.5s-1.5,0.8-2.1,1.4c-0.6,0.6-1.1,1.3-1.4,2.1
		c-0.4,0.8-0.5,1.7-0.5,2.6c0,0.9,0.2,1.8,0.5,2.6c0.4,0.8,0.8,1.5,1.4,2.1c0.6,0.6,1.3,1.1,2.1,1.4s1.7,0.5,2.6,0.5
		c0.7,0,1.4-0.1,2-0.3c0.6-0.2,1.2-0.5,1.8-0.9c0.3,0.5,0.5,1.1,0.7,1.9c0.1-1.2,0.3-2,0.7-2.5c0.3-0.5,0.8-0.8,1.3-0.8
		s1.1,0.1,1.8,0.4s1.3,0.7,2.1,1.1c-0.3-0.5-0.5-1-0.8-1.4s-0.4-0.9-0.6-1.2s-0.2-0.7-0.2-1s0.1-0.6,0.3-0.8c0.2-0.2,0.6-0.4,1-0.6
		c0.5-0.1,1.1-0.2,1.9-0.3C-273.7,397.8-274.5,397.4-274.9,396.9z M-280.7,402.8c-0.1,0.1-0.2,0.1-0.3,0.2v0c-0.5,0.4-1,0.6-1.6,0.8
		c-0.6,0.2-1.2,0.3-1.8,0.3h-0.1v-11.9h0.1c0.8,0,1.6,0.2,2.3,0.5c0.7,0.3,1.4,0.7,1.9,1.3c0.5,0.5,1,1.2,1.3,1.9
		c0.3,0.7,0.5,1.5,0.5,2.3c0,0.9-0.2,1.8-0.5,2.5c-0.4,0.8-0.9,1.4-1.5,2C-280.6,402.6-280.7,402.7-280.7,402.8z"/>
</g>
</svg>
