<?xml version="1.0" encoding="utf-8"?>
<!-- Generator: Adobe Illustrator 19.0.0, SVG Export Plug-In . SVG Version: 6.00 Build 0)  -->
<svg version="1.1" id="Layer_1" xmlns="http://www.w3.org/2000/svg" xmlns:xlink="http://www.w3.org/1999/xlink" x="0px" y="0px"
	 viewBox="-207 299 196 196" enable-background="new -207 299 196 196" xml:space="preserve">
<g id="XMLID_1_">
	<path id="XMLID_3_" d="M-132.5,389.1c-0.9,1.4-1.8,2.3-5.4,2.2c-2.3-0.1-3.6,1.4-3.8,2.8c-0.5,2.3-0.1,3.7,0.1,6
		c0.6,6.5,0.6,12.9-5,17.7c-1.4,1.2-2.5,2.8-3.9,3.8c-4.4,3.1-5.4,3.8-4.9-2.1c0.2-2.1,1.4-6.3,2-8.2c1-3.1,1.6-8.8,1.1-11.9
		c-1.8-9.3-5.6-15.5-8.7-19.9c-1.8-2.7-4.7-4.5-6.9-7c-3.3-3.6-5.3-5.3,7.9-6.3c11.4-0.9,21.6,0,30.8-5.8c5-3.1,8.8-8.3,12.9-13
		c2.5-2.9,6-7.2,7.7-10.8c3.4-6.9,4.7-3.2,5.6-1.6c2.3,3.9,5.4,8.6,8.3,12.8c6.1,8.6,14.2,14.4,24.3,17.6c1.5,0.5,3.2,0.5,4.8,0.5
		c4.7,0.1,7.7,0.1,12.4,0.2c1.5,0,4.7,0.1,5.9,0.1c9.2,0.2,7.4,1.1,1.1,7c-2.7,2.6-4.7,4.5-6.6,7.5c-4.1,6-5.3,12.8-6.6,19.4
		c-1.6,7.5,0,15.2,4.4,21.6c2.6,3.7,8.5,10.8,11.5,14.1c4.4,4.8,4.7,4.8-2.2,4.9c-7.6,0.1-15.5-2.1-23-0.7c-5.4,1-15.8,5.8-20,9.5
		c-3.7,3.2-6.1,5.2-8,9.6c-1.5,3.3-4.1,9.9-5.8,13.1c-3.2,6.3-2.8,6.4-6.6,0c-0.7-1.2-1.5-2.5-2.2-3.7c-2.9-4.5-5.9-9.2-9.1-13.6
		c-3.1-4.3-7.7-6.5-12.4-8.6c-1-0.4-2-0.5-2.8-1c-10.2-4.7-9.9-3.9-0.9-9.5c1.4-0.9,2.6-2,4.1-2.7c2.5-1.5,3.2-1.4,5.2,0.6
		c1.2,1.2,4.1,3.4,5.3,4.5c2.7,2.3,4.1,3.3,7.5,1.6c1.1-0.5,2-1.4,3.1-2c3.6-2.2,7.2-2.7,11-0.6c0.9,0.5,1.8,1,2.7,1.4
		c3.8,1.7,6.6,0.6,6.9-3.6c0.2-3.8,2-6.5,4.5-9c2.3-2.2,4.8-3.7,8.1-3.6c1,0,2.1,0,2.9-0.5c1.6-0.9,2.9-2,2-4.3
		c-1.1-2.6-2.5-5.4-2.5-8.1c0-8.1-0.6-13.3,4.9-20.4c1.1-1.4,3.7-5.5,4.2-7.2c0.5-2,0.9-2.2-2.2-2.3c-3.6-0.1-8.5-0.4-8.5-0.4
		c-2.3-0.1-5.5-0.2-9.6-1.2c-4.4-1.1-7.2-4.3-9.2-8.3c-0.5-1.1-0.7-2.3-1.2-3.4c-1.5-3.6-3.6-2.2-4.5-0.5c-3.9,7-11,6.6-17.6,7.5
		c-2.9,0.4-6,0.9-9,1.4c-1.6,0.2-2.3,1.4-2.7,2.9C-131.4,380.5-130.6,386.3-132.5,389.1z"/>
	<path id="XMLID_4_" d="M-86.1,407.1c-1.2,2.1-4.2,4.2-5.9,5.2c-1,0.6-5.2,2.5-6.4,3.1c-2.1,1-7.2,2.9-11.7,3.6
		c-3.1,0.5-6.8,1.6-9.6,2.9c-7.6,3.8-14.2,9-22.2,12.2c-7.1,2.8-13.4,7.5-19.9,11.5c-1.7,1-3.1,1.8-5,1.4c-1.8-0.5-2.6-2.5-1.4-3.7
		c7.4-7.2,11.5-10.7,23.2-20.5c3.2-2.7,10.1-8,13-11c2.8-2.9,8.3-9,11.3-11.7c3.1-2.8,7.7-7.2,9.7-8.5c1.1-0.6,2.5-1.6,3.6-2.6
		c2.1-2,5.6-3.8,8.2-4.3c4.2-0.7,6.6-0.7,10.8,0.7c5,1.8,6,4.2,6.5,8.8C-81.4,398.2-84.3,404-86.1,407.1z"/>
</g>
</svg>
