<?xml version="1.0" encoding="utf-8"?>
<!-- Generator: Adobe Illustrator 19.0.0, SVG Export Plug-In . SVG Version: 6.00 Build 0)  -->
<svg version="1.1" id="Layer_1" xmlns="http://www.w3.org/2000/svg" xmlns:xlink="http://www.w3.org/1999/xlink" x="0px" y="0px"
	 viewBox="-207 299 196 196" style="enable-background:new -207 299 196 196;" xml:space="preserve">
<g>
	<path d="M-137.3,353.5l-9.7,16.2l-5.7,8.9l-4.8,8.1l-8.9,14.5l81.6,17L-137.3,353.5z M-36.3,447.2c4.8-7.3,7.3-16.2,7.3-25.1
		s-1.6-18.6-5.7-28.3c-4-9.7-9.7-18.6-17.8-28.3c-8.1-8.9-17-17-28.3-24.2c-12.1-8.1-24.2-12.9-37.2-16.2s-24.2-4-35.6-3.2
		c8.9,0,17.8,1.6,27.5,4.8c9.7,3.2,18.6,7.3,27.5,13.7c9.7,6.5,18.6,13.7,25.1,21.8c7.3,8.1,12.1,16.2,16.2,25.1
		c3.2,8.9,5.7,17,5.7,25.1s-2.4,16.2-6.5,22.6c-4,6.5-10.5,12.1-17.8,15.4s-16.2,5.7-25.1,5.7c-9.7,0-19.4-0.8-29.1-4
		c-10.5-3.2-20.2-8.1-29.9-13.7c-5.7-4-11.3-8.1-16.2-12.1c-4.8-4-8.9-8.9-12.9-13.7c4.8,7.3,10.5,13.7,17,21
		c6.5,6.5,13.7,12.9,22.6,18.6c11.3,7.3,22.6,12.1,33.9,15.4s22.6,4.8,33.1,4.8c10.5,0,20.2-2.4,28.3-6.5
		C-47.6,461-41.1,455.3-36.3,447.2z"/>
</g>
</svg>
