<?xml version="1.0" encoding="utf-8"?>
<!-- Generator: Adobe Illustrator 19.0.0, SVG Export Plug-In . SVG Version: 6.00 Build 0)  -->
<svg version="1.1" id="Layer_1" xmlns="http://www.w3.org/2000/svg" xmlns:xlink="http://www.w3.org/1999/xlink" x="0px" y="0px"
	 viewBox="-207 299 196 196" enable-background="new -207 299 196 196" xml:space="preserve">
<path id="XMLID_19_" d="M-174.3,331.3c1.1-1,5.5,2,7.8,3.8c6.1,4.5,11.9,9.3,17.8,14.1c1.4,1.2,3.2,2.6,4.8,1.2
	c1.1-0.9,1.7-3.1,1.7-4.7c-0.1-4.3-2.5-7.6-5.7-10.5c-1.2-1.1-3.7-2.2-2-4.3c1.4-1.8,3.2-0.4,4.8,0.4c5.8,3.2,11.7,6.2,17.5,9.2
	c3.4,1.7,5.8,1.2,7.7-2.1c2-3.5,3.4-7.4,5.1-11c1.2-2.5,2.2-5.1,3.8-7.3c1.7-2.3,3.5-2.1,4.8,0.4c1.4,3,2.3,6.3,3.2,9.5
	c0.9,3.1,2.2,5.8,4.6,7.9c2.8,2.5,6.1,3.5,9.2,1.5c4.1-2.5,7.8-5.6,11.6-8.4c1-0.8,1.7-2.1,2.9-2.7c1.2-0.6,3.2-1.4,4.1-0.9
	c0.9,0.5,1.4,2.7,1.2,4c-0.6,3.8-1.7,7.5-2.5,11.3c-0.4,1.9-0.4,3.8-0.3,5.7c0.4,4.7,4.3,8.4,9,8c5.1-0.4,10.2-1.6,15.2-2.5
	c2.3-0.4,5.2-1.8,6.6,0.7c1.5,2.7-1.2,4.3-3,5.8c-4.6,4.2-7.6,9.2-9,15.3c-0.9,3.8-0.1,6.9,2.8,9.5c4.5,4.2,10,6.6,15.7,8.4
	c1.4,0.4,3,1.2,4.1,2.1c2.2,1.9,1.7,4-1.1,4.8c-3,0.9-6.2,1-9.1,2.1c-3.1,1.2-6.1,2.8-8.8,4.7c-3,2.1-3.3,5-1.8,8.4
	c1.9,4.3,5.3,7.1,9,9.6c1.5,1,3,2,4.2,3.3c0.6,0.7,0.9,2.2,0.6,3.2c-0.1,0.4-1.8,0.6-2.8,0.6c-4.3-0.2-8.6-0.9-12.9-0.8
	c-2.7,0.1-5.6,0.6-8,1.7c-4.4,1.8-6.6,5.6-6.7,10.3c0,3.8,0.4,7.7,0.9,11.5c0.3,2.4,0.7,4.7-1.7,6.1c-2.4,1.5-4.3-0.3-6.2-1.4
	c-3.9-2.1-7.8-4.1-11.8-6c-2.9-1.3-5.6-0.6-8.2,1.2c-5,3.4-7.8,8.4-9.9,13.9c-0.6,1.6-1.1,3.2-1.9,4.7c-1.2,2.3-3.2,2.5-4.8,0.5
	c-0.9-1.1-1.2-2.6-1.8-3.9c-2.2-4.5-4.3-9-6.9-13.4c-1.5-2.6-4.3-3.4-6.9-2.2c-3.4,1.6-6.7,3.6-9.7,5.8c-2.1,1.5-3.6,3.9-5.6,5.6
	c-0.9,0.7-2.5,1.2-3.5,0.7c-0.9-0.4-1.9-1.9-1.9-3c0-2.9,0.6-5.7,0.8-8.6c0.2-3,0.8-6.1,0.3-9c-1.9-10.8-10-15-21.1-12.7
	c-2.1,0.4-4.2,1.3-6.3,1.4c-1.4,0.1-2.9-0.6-4.3-0.9c0.4-1.5,0.4-3.3,1.3-4.5c1.9-2.6,4.3-4.9,6.3-7.4c1.5-1.9,3.1-4,4.2-6.3
	c2.2-4.6,0.9-8.4-3.6-10.5c-4-1.8-8.4-2.8-12.6-4.3c-1.7-0.6-3.4-1.2-4.9-2c-1.7-0.9-1.7-2.5-0.3-3.5c1.4-1,3.1-1.7,4.8-2.2
	c4.7-1.4,9.5-2.4,14.2-4.1c5.8-2.2,6.8-5.6,3.7-10.8c-5.2-8.7-10.4-17.3-15.6-26c-0.9-1.7-2.6-3.7-0.6-5.1c1.9-1.4,3.5,0.6,4.8,2.1
	c3.6,3.8,6.9,8.1,10.9,11.4c2.3,1.9,5.8,2.7,9,3.4c1.3,0.3,4-0.6,4.3-1.5c0.4-1.4-0.1-3.6-1.2-4.8c-4.6-5.3-9.5-10.5-14.4-15.7
	C-172,338.5-175.4,332.4-174.3,331.3z M-145.5,371.7c-1.1,0.1-2.2,0-3.2,0.4c-1.8,0.8-4.2,1.4-4.9,2.9c-1.2,2.2,0.9,3.9,2.6,5.4
	c2.2,2,4.5,4,6.5,6.2c5.1,5.9,10.1,11.9,14.9,18.1c3.5,4.5,7.1,9.1,8.7,14.8c0.8,2.9,0.1,4.8-2.3,6.1c-2.6,1.4-5,0.2-6.6-1.3
	c-4.4-4-8.8-8.2-12.6-12.9c-3.5-4.1-6.1-9-9.2-13.4c-0.8-1.2-1.9-2.2-3.1-3c-3-2-7.8-1.2-9.6,1.9c-0.6,0.9-0.2,2.7,0.2,3.9
	c0.4,1.1,1.5,1.8,2.3,2.7c4,4.6,5.1,9.6,2.4,15.3c-2.2,4.7-0.9,7.1,4.3,8.1c1.7,0.3,3.4,0.5,4.9,1.2c6.4,2.7,9.2,8.1,10.4,14.6
	c1.2,6.4,2.7,7.2,8.4,4.5c6.9-3.3,13.1-2.1,18,4c4.7,5.8,5.1,6.3,10.4,0.1c5.7-6.7,12.4-8.5,20.7-5.1c3.8,1.6,6.1-0.2,6.8-4.3
	c0.4-2.6,0.9-5.3,2-7.6c2.2-4.5,5.8-7.6,10.8-9c4-1.2,5.3-3.5,4.1-6.9c-3.1-9.1-2.1-12.6,5.4-18.3c3.6-2.7,3.6-4,0.3-7
	c-1.9-1.7-4-3.5-5.5-5.6c-3.5-5.1-2.7-10.7-0.9-16.2c1.7-5.2,0.4-7.2-5-7.4c-0.9,0-1.7,0-2.5-0.1c-6.9-0.8-10.6-4.5-11.5-11.3
	c-0.8-6.1-2.5-7.1-8.4-5.3c-4.3,1.4-8.6,1.8-12.4-1c-2.4-1.7-4.3-4-6.5-6.1c-1.2-1.1-2.2-2.3-4-1c-4,3-4.4,8.8-0.6,12
	c1.1,0.9,2.5,1.5,3.7,2.3c5.3,3.4,10.6,6.6,15.7,10.3c2,1.4,3.6,3.5,5.1,5.6c0.6,0.9,0.6,2.7,0,3.5c-0.6,0.9-2.2,1.6-3.2,1.6
	c-1.5,0-3.2-0.4-4.5-1.2c-6.5-3.8-13-7.7-19.3-11.8c-5.2-3.4-10.2-7.3-15.3-10.8c-2.6-1.7-4.7-1.1-5.9,1.5c-1.7,3.8-0.4,8.4,2.9,11
	c10,8.4,20.3,16.6,29.9,25.4c6.6,6.1,12.5,13,18.4,19.8c2.2,2.5,4,5.5,5.5,8.4c1.2,2.2-0.1,3.9-1.9,5.6c-1.9,1.7-3.1,0.6-4.7-0.2
	c-3.3-1.9-6.8-3.5-10.1-5.3c-1.9-1-3.7-2.2-5.3-3.5c-2.5-2-4.8-4.3-7.2-6.5c-3.2-2.9-6.7-5.5-9.7-8.6c-7.2-7.6-14.2-15.4-21.2-23.1
	C-139.9,372.6-142.4,371.6-145.5,371.7z"/>
</svg>
