<?xml version="1.0" encoding="utf-8"?>
<!-- Generator: Adobe Illustrator 19.0.0, SVG Export Plug-In . SVG Version: 6.00 Build 0)  -->
<svg version="1.1" id="Layer_1" xmlns="http://www.w3.org/2000/svg" xmlns:xlink="http://www.w3.org/1999/xlink" x="0px" y="0px"
	 viewBox="-293 385 24 24" style="enable-background:new -293 385 24 24;" xml:space="preserve">
<g>
	<path d="M-573.8,774.6l1.8,3.8l3.1-2.1l-1.4,3.1l3.3,0.5l-2.1,1.1l1.6,1.1c0-0.2,0.1-0.4,0.1-0.6c0.1-0.2,0.1-0.4,0.1-0.6l2.1-1.2
		l-2.4-0.9c-0.2-0.5-0.4-1-0.7-1.4l0.9-2.9l-2.9,1.3c-0.2-0.1-0.5-0.2-0.8-0.3c-0.3,0-0.6-0.1-0.9-0.1l-2.6-3.4l-0.4,3.9
		c-0.1,0-0.2,0.1-0.4,0.2c-0.2,0.1-0.3,0.2-0.4,0.3l1.8,1.3L-573.8,774.6z M-574.8,789l-0.7-3.3l-1.8,1.3l0.9-2.2l-2.8,0.2l2.1-1.5
		l-2.9-1l1.6-0.3l-1.3-0.9c0,0.1,0,0.2,0,0.2v0.1l-2.6,0.9l2.5,0.7c0.1,0.1,0.1,0.3,0.1,0.4s0.1,0.3,0.1,0.4l-3.2,2.7l4.1-1
		c0.1,0.2,0.2,0.3,0.3,0.4c0.1,0.1,0.2,0.2,0.3,0.3l-0.6,2.5l2.2-1.4l0.7,0.2l0.7,4.4l1.8-4.4c0.3-0.1,0.6-0.2,0.9-0.3
		c0.3-0.1,0.5-0.2,0.8-0.4l0.8,0.2l-2.6-1.8L-574.8,789z M-583.6,775.2l9.6,7.3l9.6,4.7l-8.4-6.6L-583.6,775.2z"/>
</g>
</svg>
