<?xml version="1.0" encoding="utf-8"?>
<!-- Generator: Adobe Illustrator 19.0.0, SVG Export Plug-In . SVG Version: 6.00 Build 0)  -->
<svg version="1.1" id="Layer_1" xmlns="http://www.w3.org/2000/svg" xmlns:xlink="http://www.w3.org/1999/xlink" x="0px" y="0px"
	 viewBox="-207 299 196 196" style="enable-background:new -207 299 196 196;" xml:space="preserve">
<g>
	<path d="M-54.6,418.2c0.8-4.8,1.6-8.8,1.6-12.8c0-6.4-1.6-12-3.2-17.6c-1.6-5.6-4-10.4-8-15.2c-4-4.8-8-8.8-12.8-12
		c-4.8-4-10.4-6.4-16-8l8.8-22.4h-49.6l8.8,22.4c-5.6,1.6-11.2,4-16,7.2c-4.8,3.2-9.6,8-12.8,12c-3.2,4-5.6,9.6-8,15.2
		c-2.4,5.6-3.2,11.2-3.2,17.6c0,4,0.8,8,1.6,12.8l-25.6,4.8l26.4,41.6l14.4-19.2c4.8,5.6,11.2,8.8,17.6,12c7.2,2.4,14.4,4,21.6,4
		c8,0,15.2-1.6,21.6-4c6.4-3.2,12-7.2,17.6-12l13.6,19.2l27.2-41.6L-54.6,418.2z M-93.8,410.2l15.2,22.4c-4,4-8,7.2-13.6,9.6
		c-4.8,2.4-10.4,4-16.8,4s-12-1.6-16.8-4c-5.6-2.4-9.6-5.6-13.6-9.6l16-22.4L-149,415c-0.8-3.2-0.8-6.4-0.8-10.4
		c0-4.8,0.8-9.6,2.4-13.6c1.6-4.8,4-8.8,6.4-12c2.4-3.2,5.6-6.4,9.6-8.8c3.2-2.4,7.2-4.8,12-5.6l10.4,25.6l10.4-25.6
		c4,1.6,8,3.2,12,5.6c4,2.4,7.2,5.6,9.6,8.8c2.4,3.2,4.8,7.2,6.4,11.2c1.6,4.8,2.4,8.8,2.4,13.6c0,2.4-0.8,4-0.8,5.6
		s-0.8,3.2-0.8,4.8L-93.8,410.2z"/>
</g>
</svg>
