<?xml version="1.0" encoding="utf-8"?>
<!-- Generator: Adobe Illustrator 19.0.0, SVG Export Plug-In . SVG Version: 6.00 Build 0)  -->
<svg version="1.1" id="Layer_1" xmlns="http://www.w3.org/2000/svg" xmlns:xlink="http://www.w3.org/1999/xlink" x="0px" y="0px"
	 viewBox="-207 299 196 196" style="enable-background:new -207 299 196 196;" xml:space="preserve">
<path id="XMLID_19_" d="M-27.2,398.3c-0.4,4.8-22.5,4-24.5,11.9c-2,7.6,16.7,18.5,15.3,21.8c-1.4,3.6-21.6-3.7-28.8,4.2
	c-6.5,7.2-1.4,23.4-3.4,25c-2.4,1.9-16.5-10-26.2-6.2c-9.4,3.6-11.9,21.2-14.2,21.2c-3.9,0-3.5-19.5-14-21.9
	c-8.8-2-21.1,14.6-23.6,13.5c-2.9-1.3,4.6-13.9,0-21.7c-6.4-10.8-33.7-7.1-34.8-10.7c-1.1-3.5,18.1-17.6,15.6-26
	c-2.6-8.5-23.5-8.2-23.3-12.2c0.3-5.2,23.7-1.1,24.7-10.5c0.9-9-23-33.4-19.7-36.8c2.6-2.7,24.7,20.2,29.9,14.9
	c3-3.1-21.3-31.6-19.6-33.4c1.7-1.7,29.1,16.7,33.5,16c6.9-1.2-10-16-7.2-18.5c3-2.7,23.5,11.7,26.9,10.2
	c8.1-3.6,8.5-20.4,12.6-20.5c3-0.1,7.4,20.4,16.6,21.9c8.6,1.5,16.9-14.8,21.3-13c3.3,1.3-1.1,23.5,7.4,29c7.4,4.8,21-6,23.3-2.9
	c2.7,3.6-16.4,17-13.4,27.9C-49.9,392.2-26.9,393.4-27.2,398.3z M-131.2,349.8c-1.4,0.6-2.1,2-2.3,2.3c-1.9,3.8,1.6,9,2.9,11
	c9.8,14.7,50.2,40.6,53.9,52.4c0.6,1.8,0.7,4.4-1.3,6.1c-1.5,1.2-4.6,0.8-5.4,0.4c-9.4-3.7-40.5-38.4-53.5-47
	c-5.6-3.7-9.4-3.5-11.4-3c-1.1,0.3-4,1.1-4.9,2.9c-3.8,7.3,35,31.7,35.8,43.8c0.3,4.8-2.1,6.3-6.7,4c-4.5-2.2-21.1-26.5-30.2-27.8
	c-3.6-0.5-8.5-0.4-9.6,1.9c-1.6,3.2,6.1,6.9,6.3,14.7c0.2,5.9-4.1,9.2-2.1,12.6c0.9,1.5,2.1,1.4,5,2.7c5.2,2.4,12.9,8.2,15.3,15.8
	c0.8,2.6,0.8,4.9,2.6,5.7c1.4,0.7,2.9,0.2,5.8-1.2c6.9-3.3,13.1-2.1,18,4c4.7,5.8,5.1,6.3,10.4,0.1c5.7-6.7,12.4-8.5,20.7-5.1
	c1.2,0.5,2.7,0.9,4.1,0.2c1.8-0.9,2.2-3.1,2.7-4.5c1.6-5.6,6.6-13.9,12.8-16.6c1.3-0.6,3.4-1.2,4.2-3c0.6-1.3,0.3-2.7-0.1-3.9
	c-3.1-9.1-2.1-12.6,5.4-18.3c3.6-2.7,3.6-4,0.3-7c-1.9-1.7-4-3.5-5.5-5.6c-3.5-5.1-2.7-10.7-0.9-16.2c0.7-2.2,1.2-4.1,0.1-5.6
	c-1.2-1.7-3.5-1.5-5.1-1.8c-8-1.2-7.8-13.1-16.3-17c-6.7-3.1-10.3,2.9-18.5-0.7c-6.3-2.7-8.4-8.1-10.5-7.1c-4.9,2.2-5.9,6.5-0.6,12
	c7.9,8.3,23.1,14.9,23.9,18.7c0.4,2-2.4,3.8-4.2,4.4c-3.3,1.1-7.3-0.5-22.1-12.8C-122.1,353.3-127.5,348.1-131.2,349.8z"/>
</svg>
