<?xml version="1.0" encoding="utf-8"?>
<!-- Generator: Adobe Illustrator 19.0.0, SVG Export Plug-In . SVG Version: 6.00 Build 0)  -->
<svg version="1.1" id="Layer_1" xmlns="http://www.w3.org/2000/svg" xmlns:xlink="http://www.w3.org/1999/xlink" x="0px" y="0px"
	 viewBox="-207 299 196 196" style="enable-background:new -207 299 196 196;" xml:space="preserve">
<path d="M-44.6,411.6c-4.6-3.7-8-7.2-10.2-10.5c-2.2-3.3-3.4-6.5-3.6-9.7c0-6.1,4.6-12.9,13.8-20.5l15.6-13l-19.9,3.7
	c-3.6,0.4-6.5,0.7-9,1c-2.4,0.3-4.6,0.4-6.6,0.4c-2.4,0-4.4-0.2-6.2-0.7c-1.8-0.5-3.4-1.5-4.9-3.2s-3-4-4.5-7
	c-1.5-3-3.1-7.1-4.8-12.2l-4.5-13l-5.3,12.8c-2.1,4.6-4,8.3-5.7,11c-1.7,2.8-3.5,4.9-5.3,6.4s-3.8,2.5-5.8,3.1
	c-2,0.5-4.2,0.8-6.6,0.8c-2.2,0-4.7-0.2-7.3-0.6c-2.6-0.4-6.1-1-10.3-1.8l-19.5-3.6l15,13c6.4,5.9,9.7,12.5,9.7,19.7l-58.2,4.1v18.2
	l57.2-14.6c-1.2,4.3-3.5,8.9-6.9,13.8l-50.3,18.2v16.6l12.4,8.3l30-22.3l3.9-1c4.9-1.1,9.4-1.9,13.5-2.7s7.9-1.1,11.3-1.1
	l-39.5,41.6h29.8l21.5-38.7c2,1.2,3.9,2.9,5.7,5c1.8,2.2,3.6,5.2,5.3,9l5.3,12.8l4.5-13c1.8-5.1,3.5-9.2,5-12.1c1.5-3,3-5.2,4.4-6.7
	s3.1-2.5,4.8-2.9c1.8-0.4,3.8-0.6,6.2-0.6c2,0,4.2,0.1,6.6,0.2c2.4,0.1,5.4,0.5,9,1.2l19.9,3.4L-44.6,411.6z M-64.5,408.8
	c-7.2,0-12.8,1.6-16.7,4.8c-3.9,3.2-7.1,7.9-9.6,13.9c-1.4-2-3-3.7-4.5-5.2c-1.6-1.5-3.3-2.8-5.1-3.8l15.4-27.8l-23.3,24.9
	c-1.4-0.3-2.9-0.5-4.4-0.8s-3.1-0.4-4.6-0.4c-1.4,0-3,0.1-4.5,0.3c-1.6,0.2-3.2,0.4-4.9,0.5l25.8-19.3l-21.9,7.9
	c1.4-3.6,2.5-7.3,3.2-11.2l27.2-7.3l-27.2,2.2c0-2.9-0.4-5.7-1.2-8.3c-0.8-2.6-1.8-5.1-3.2-7.5c2,0.3,3,0.4,3,0.4h2.8
	c6.8,0,12.4-1.4,16.6-4.2c4.2-2.8,7.9-6.9,11-12.1c1.3,3,2.8,5.7,4.4,8c1.6,2.3,3.6,4.3,5.7,5.9s4.7,2.8,7.5,3.6s6.3,1,10.4,0.9
	c-4.3,6.1-6.5,11.9-6.5,17.6c0.3,3,0.9,5.9,1.8,8.7s2.4,5.7,4.5,8.7H-64.5z"/>
</svg>
