<?xml version="1.0" encoding="utf-8"?>
<!-- Generator: Adobe Illustrator 19.0.0, SVG Export Plug-In . SVG Version: 6.00 Build 0)  -->
<svg version="1.1" id="Layer_1" xmlns="http://www.w3.org/2000/svg" xmlns:xlink="http://www.w3.org/1999/xlink" x="0px" y="0px"
	 viewBox="-293 385 24 24" style="enable-background:new -293 385 24 24;" xml:space="preserve">
<g>
	<path d="M-281,407c1.4,0,2.7-0.3,3.9-0.8s2.3-1.2,3.2-2.1c0.9-0.9,1.6-2,2.1-3.2c0.5-1.2,0.8-2.5,0.8-3.9c0-1.4-0.3-2.7-0.8-3.9
		c-0.5-1.2-1.2-2.3-2.1-3.2c-0.9-0.9-2-1.6-3.2-2.1c-1.2-0.5-2.5-0.8-3.9-0.8s-2.7,0.3-3.9,0.8c-1.2,0.5-2.3,1.2-3.2,2.1
		c-0.9,0.9-1.6,2-2.1,3.2s-0.8,2.5-0.8,3.9c0,1.4,0.3,2.7,0.8,3.9s1.2,2.3,2.1,3.2c0.9,0.9,2,1.6,3.2,2.1
		C-283.7,406.7-282.4,407-281,407z M-283.2,405.3L-283.2,405.3L-283.2,405.3L-283.2,405.3z M-289.6,397c0-1.3,0.3-2.6,0.8-3.7
		c0.5-1.1,1.3-2.1,2.3-2.9h0.1c0.9,0.1,1.7,0.3,2.5,0.7c0.8,0.4,1.4,0.9,2,1.6c0.6,0.7,1,1.5,1.3,2.3c0.3,0.8,0.3,1.7,0.3,2.6
		c-0.1,0.8-0.3,1.6-0.6,2.3c-0.3,0.7-0.8,1.3-1.3,1.9c-0.5,0.5-1.2,1-1.9,1.3c-0.7,0.3-1.5,0.5-2.3,0.6c-1-0.8-1.7-1.8-2.3-2.9
		C-289.3,399.6-289.6,398.3-289.6,397z M-281,388.4c1.2,0,2.3,0.2,3.4,0.7c1.1,0.5,2,1.1,2.7,1.8c0.8,0.8,1.4,1.7,1.8,2.7
		s0.7,2.2,0.7,3.4s-0.2,2.3-0.7,3.4s-1.1,2-1.8,2.7c-0.8,0.8-1.7,1.4-2.7,1.8c-1.1,0.5-2.2,0.7-3.4,0.7h-0.2
		c0.1-0.1,0.3-0.2,0.4-0.3c0.1-0.1,0.3-0.2,0.4-0.3l-0.8-1c0.3-0.2,0.6-0.5,0.9-0.8c0.3-0.3,0.5-0.6,0.8-0.9l1,0.7
		c0.3-0.4,0.5-0.8,0.7-1.2c0.2-0.4,0.4-0.8,0.5-1.2l-1.1-0.4c0.1-0.4,0.2-0.8,0.3-1.2s0.1-0.8,0.2-1.2l1.3,0.1v-0.1
		c0-0.1,0-0.3,0-0.4c0-0.2,0-0.3,0-0.4c0-0.3,0-0.6,0-0.9c0-0.3-0.1-0.6-0.1-0.9l-1.3,0.2c0-0.4-0.1-0.8-0.3-1.2
		c-0.1-0.4-0.3-0.8-0.4-1.1l1.1-0.5c-0.2-0.4-0.4-0.8-0.7-1.2c-0.2-0.4-0.5-0.7-0.8-1.1l-0.9,0.8h0c-0.3-0.3-0.5-0.6-0.8-0.9
		c-0.3-0.3-0.6-0.5-0.9-0.7L-281,388.4L-281,388.4L-281,388.4z"/>
</g>
</svg>
