<?xml version="1.0" encoding="utf-8"?>
<!-- Generator: Adobe Illustrator 19.0.0, SVG Export Plug-In . SVG Version: 6.00 Build 0)  -->
<svg version="1.1" id="Layer_1" xmlns="http://www.w3.org/2000/svg" xmlns:xlink="http://www.w3.org/1999/xlink" x="0px" y="0px"
	 viewBox="-293 385 24 24" style="enable-background:new -293 385 24 24;" xml:space="preserve">
<g>
	<path d="M-274.7,389.4c-0.8,0.5-1.6,1-2.4,1.3c-0.8,0.4-1.4,0.5-2,0.4c-0.6-0.1-1.1-0.4-1.5-1c-0.4-0.6-0.7-1.6-0.8-2.9
		c-0.3,1.4-0.8,2.3-1.3,2.9s-1.2,0.9-1.9,0.8s-1.7-0.3-2.7-0.9s-2.2-1.4-3.6-2.4c1,1.4,1.9,2.6,2.5,3.5c0.7,1,1,1.8,1.2,2.5
		s-0.1,1.3-0.6,1.7c-0.5,0.5-1.4,0.8-2.7,1.2c1.3,0.1,2.3,0.3,2.9,0.7c0.6,0.3,1,0.8,1.1,1.3c0.1,0.5,0,1.1-0.3,1.8
		c-0.3,0.7-0.7,1.5-1.2,2.3c0.8-0.5,1.6-0.9,2.3-1.2s1.3-0.4,1.8-0.3c0.5,0.1,0.9,0.5,1.2,1.1c0.3,0.6,0.5,1.7,0.6,3
		c0.3-1.4,0.8-2.3,1.5-2.8c0.6-0.5,1.4-0.6,2.4-0.4c0.9,0.2,2,0.7,3.3,1.5c1.2,0.8,2.6,1.8,4.2,3c-1.2-1.6-2.3-3-3.2-4.2
		c-0.9-1.2-1.4-2.3-1.6-3.2c-0.2-0.9-0.1-1.7,0.3-2.3c0.5-0.6,1.4-1.1,2.7-1.5c-1.4-0.1-2.4-0.3-2.9-0.6c-0.6-0.3-0.9-0.8-0.9-1.3
		s0.2-1.2,0.5-1.9C-275.6,391-275.2,390.3-274.7,389.4z"/>
</g>
</svg>
