<?xml version="1.0" encoding="utf-8"?>
<!-- Generator: Adobe Illustrator 19.0.0, SVG Export Plug-In . SVG Version: 6.00 Build 0)  -->
<svg version="1.1" id="Layer_1" xmlns="http://www.w3.org/2000/svg" xmlns:xlink="http://www.w3.org/1999/xlink" x="0px" y="0px"
	 viewBox="-293 385 24 24" style="enable-background:new -293 385 24 24;" xml:space="preserve">
<g>
	<path d="M-568.8,787.2c-0.3-0.7-0.5-1.4-0.5-1.9s0.3-1,0.9-1.3c0.5-0.3,1.5-0.5,2.9-0.6c-1.3-0.4-2.2-0.9-2.7-1.5
		c-0.4-0.6-0.5-1.4-0.3-2.3c0.2-0.9,0.7-2,1.6-3.2c0.9-1.2,2-2.6,3.2-4.2c-1.6,1.2-3,2.2-4.2,3c-1.3,0.8-2.4,1.3-3.3,1.5
		c-1,0.2-1.8,0.1-2.4-0.4c-0.7-0.5-1.2-1.4-1.5-2.8c-0.1,1.3-0.3,2.4-0.6,3s-0.7,1-1.2,1.1c-0.5,0.1-1.1,0-1.8-0.3
		c-0.7-0.3-1.5-0.7-2.3-1.2c0.5,0.8,0.9,1.6,1.2,2.3c0.3,0.7,0.4,1.3,0.3,1.8s-0.5,1-1.1,1.3c-0.6,0.4-1.6,0.6-2.9,0.7
		c1.3,0.4,2.2,0.7,2.7,1.2c0.5,0.4,0.8,1,0.6,1.7c-0.2,0.7-0.5,1.5-1.2,2.5c-0.6,0.9-1.5,2.1-2.5,3.5c1.4-1,2.6-1.8,3.6-2.4
		s2-0.8,2.7-0.9c0.7-0.1,1.4,0.2,1.9,0.8c0.5,0.6,1,1.5,1.3,2.9c0.1-1.3,0.4-2.3,0.8-2.9c0.4-0.6,0.9-0.9,1.5-1c0.6-0.1,1.2,0,2,0.4
		c0.8,0.3,1.6,0.8,2.4,1.3C-568.2,788.4-568.6,787.7-568.8,787.2z"/>
</g>
</svg>
