<?xml version="1.0" encoding="utf-8"?>
<!-- Generator: Adobe Illustrator 19.0.0, SVG Export Plug-In . SVG Version: 6.00 Build 0)  -->
<svg version="1.1" id="Layer_1" xmlns="http://www.w3.org/2000/svg" xmlns:xlink="http://www.w3.org/1999/xlink" x="0px" y="0px"
	 viewBox="-207 299 196 196" style="enable-background:new -207 299 196 196;" xml:space="preserve">
<g>
	<path d="M-109,476.2c11.1,0,21.4-2.4,30.9-6.3c9.5-4,18.2-9.5,25.3-16.6c7.1-7.1,12.7-15.8,17.4-25.3c4-9.5,6.3-19.8,6.3-30.9
		s-2.4-21.4-6.3-30.9c-4-9.5-10.3-18.2-17.4-25.3c-7.1-7.1-15.8-12.7-25.3-16.6s-19.8-6.3-30.9-6.3s-21.4,2.4-30.9,6.3
		c-9.5,4-18.2,9.5-25.3,16.6c-7.1,7.1-12.7,15.8-17.4,25.3c-4,9.5-6.3,19.8-6.3,30.9s2.4,21.4,6.3,30.9c4,9.5,9.5,18.2,17.4,25.3
		c7.1,7.1,15.8,12.7,25.3,16.6C-130.4,473.8-120.1,476.2-109,476.2z M-52.8,435c-6.3,8.7-14.3,16.6-23.8,22.2
		c-9.5,5.5-20.6,7.9-32.5,7.9c-3.2,0-7.1,0-10.3-0.8c-3.2-0.8-6.3-0.8-9.5-2.4c4.8-5.5,8.7-10.3,11.9-14.3c3.2-4,6.3-6.3,8.7-7.9
		c2.4-1.6,4-3.2,5.5-3.2c1.6-0.8,2.4-0.8,3.2-0.8s0.8,0,1.6,0c2.4,0.8,4,3.2,5.5,5.5c1.6,2.4,3.2,4.8,4,7.1c0.8,2.4,1.6,4.8,2.4,6.3
		l0.8,2.4v-0.8c0-1.6,0-3.2,0-5.5c0-2.4,0-4.8,0.8-7.1c0.8-2.4,0.8-4.8,1.6-6.3c0.8-1.6,1.6-3.2,3.2-4c2.4-0.8,5.5-1.6,8.7-1.6
		c2.4,0,4.8,0,7.9,0.8C-59.9,433.4-56.7,434.2-52.8,435z M-133.6,460.4c-6.3-2.4-12.7-5.5-17.4-10.3c-5.5-4-10.3-9.5-13.5-15
		c-4-5.5-7.1-11.9-8.7-18.2c-1.6-6.3-3.2-13.5-3.2-20.6c0-7.1,0.8-14.3,3.2-21.4c2.4-6.3,5.5-12.7,9.5-19l7.1,4.8
		c1.6,0.8,3.2,2.4,4.8,3.2c1.6,0.8,3.2,2.4,4.8,3.2c1.6,0.8,4,2.4,5.5,3.2c1.6,1.6,4,2.4,5.5,3.2c2.4,1.6,4.8,3.2,6.3,4.8
		c2.4,1.6,4.8,3.2,6.3,4.8c-3.2,0-7.1-0.8-11.1-2.4c-4-0.8-7.1-2.4-10.3-3.2c-3.2-0.8-5.5-2.4-7.9-3.2l-3.2-0.8l0,0
		c2.4,1.6,5.5,3.2,8.7,5.5c4,2.4,7.1,4.8,10.3,7.9c3.2,3.2,6.3,5.5,7.9,7.9c2.4,2.4,3.2,4.8,2.4,7.1c-0.8,2.4-1.6,4.8-4,6.3
		c-2.4,1.6-4,3.2-5.5,4.8c-2.4,1.6-4,2.4-6.3,3.2c-2.4,0.8-3.2,0.8-4.8,0.8l0,0h3.2c0,0,2.4,0.8,7.1,1.6c4.8,0.8,7.1,1.6,7.9,2.4
		c0.8,0.8,2.4,2.4,5.5,4.8c0.8,1.6,0,5.5-1.6,11.1C-125.6,443.7-128.8,451.7-133.6,460.4z M-157.3,349.5c2.4-2.4,4.8-4.8,7.9-7.1
		c3.2-2.4,5.5-4,8.7-5.5c4.8,6.3,9.5,12.7,14.3,19c4.8,6.3,8.7,11.9,12.7,15.8c4,5.5,7.9,11.1,11.9,15.8l0,0
		c0.8-0.8,1.6-2.4,2.4-3.2c0.8-0.8,0.8-1.6,0.8-1.6c1.6,2.4,3.2,4,4.8,5.5c1.6,1.6,3.2,3.2,4.8,4c4.8,2.4,8.7,3.2,12.7,4
		c0,1.6-0.8,3.2-0.8,4.8s0,3.2,0,4.8c0,1.6,0.8,4,1.6,6.3c0.8,2.4,2.4,6.3,5.5,10.3H-71c-5.5,0-10.3,0.8-13.5,2.4
		c-0.8,0.8-2.4,0.8-3.2,1.6c-0.8,0.8-1.6,1.6-2.4,3.2c-0.8,0-0.8-0.8-1.6-0.8c-0.8,0-0.8-0.8-1.6-0.8c-1.6-1.6-4-2.4-7.1-2.4
		c-3.2,0-7.1,1.6-10.3,4c0-2.4,0-4-0.8-4.8c-0.8-0.8-0.8-2.4-1.6-2.4c-1.6-2.4-3.2-4.8-7.1-7.1c2.4-3.2,4-5.5,4-8.7
		c0.8-3.2,0.8-7.1-1.6-11.1c1.6,0,2.4,0,3.2-0.8c0.8,0,2.4-0.8,3.2-0.8l0,0c0.8,0,1.6,0.8,2.4,0.8c0.8,0,1.6,0.8,2.4,0.8
		c0.8,0.8,1.6,0.8,2.4,1.6c0.8,0.8,1.6,0.8,2.4,1.6c0.8,0.8,1.6,0.8,3.2,1.6c-0.8-1.6-1.6-2.4-2.4-4l-3.2-4
		c-3.2-3.2-4.8-5.5-5.5-5.5c-7.9-6.3-15.8-13.5-23.8-19C-140.7,362.1-149.4,355.8-157.3,349.5z M-109,328.9c9.5,0,18.2,1.6,26.1,5.5
		c7.9,3.2,15.8,8.7,21.4,15c6.3,6.3,11.1,13.5,15,22.2c4,7.9,5.5,17.4,5.5,26.1c0,5.5-0.8,11.1-2.4,16.6c-1.6,4.8-3.2,10.3-5.5,15
		c-4.8-3.2-7.9-6.3-10.3-9.5c-2.4-3.2-4-5.5-5.5-7.9c-1.6-2.4-2.4-4.8-2.4-7.1c-0.8-4,0-7.1,0.8-10.3c0.8-3.2,2.4-5.5,4.8-7.9
		c1.6-2.4,3.2-4,4.8-5.5l2.4-2.4h-0.8l-4,1.6c-4,1.6-7.1,2.4-10.3,4c-3.2,0.8-5.5,1.6-7.9,1.6c-3.2,0-5.5-0.8-8.7-2.4
		c-1.6-0.8-3.2-3.2-4.8-5.5c-1.6-2.4-3.2-5.5-4.8-8.7c-1.6-3.2-2.4-6.3-4-10.3c-0.8-3.2-1.6-6.3-2.4-9.5c-0.8-3.2-1.6-5.5-1.6-7.1
		c0-1.6-0.8-3.2-0.8-3.2l-0.8,0.8v3.2c0,1.6,0,4,0,7.1c0,3.2-0.8,6.3-0.8,9.5c0,3.2-0.8,7.1-1.6,10.3l-0.8-0.8l-0.8-0.8
		c-1.6-3.2-3.2-5.5-4.8-7.9c-1.6-2.4-3.2-4.8-4.8-7.1c-1.6-2.4-3.2-4.8-4.8-7.1c-1.6-2.4-3.2-4.8-4.8-7.1l-4-5.5
		c3.2-0.8,6.3-2.4,9.5-2.4C-116.1,328.9-113,328.9-109,328.9z"/>
</g>
</svg>
