<?xml version="1.0" encoding="utf-8"?>
<!-- Generator: Adobe Illustrator 19.0.0, SVG Export Plug-In . SVG Version: 6.00 Build 0)  -->
<svg version="1.1" id="Layer_1" xmlns="http://www.w3.org/2000/svg" xmlns:xlink="http://www.w3.org/1999/xlink" x="0px" y="0px"
	 viewBox="-207 299 196 196" style="enable-background:new -207 299 196 196;" xml:space="preserve">
<path d="M-36.1,427.9c4-9.5,6.3-19.8,6.3-30.9c0-11.1-2.4-21.4-6.3-30.9c-4-9.5-9.5-18.2-16.6-25.3c-7.1-7.1-15.8-12.7-25.3-17.4
	c-9.5-4-19.8-6.3-30.9-6.3s-21.4,2.4-30.9,6.3c-9.5,4-18.2,10.3-25.3,17.4c-7.1,7.1-12.7,15.8-16.6,25.3s-6.3,19.8-6.3,30.9
	c0,10.3,2.4,20.6,6.3,30.9c4,9.5,9.5,18.2,16.6,25.3c7.1,7.1,15.8,12.7,25.3,17.4c9.5,4,19.8,6.3,30.9,6.3s21.4-2.4,30.9-6.3
	c9.5-4,18.2-10.3,25.3-17.4C-45.6,446.1-40.1,437.4-36.1,427.9z"/>
</svg>
