<?xml version="1.0" encoding="utf-8"?>
<!-- Generator: Adobe Illustrator 19.0.0, SVG Export Plug-In . SVG Version: 6.00 Build 0)  -->
<svg version="1.1" id="Layer_1" xmlns="http://www.w3.org/2000/svg" xmlns:xlink="http://www.w3.org/1999/xlink" x="0px" y="0px"
	 viewBox="-293 385 24 24" style="enable-background:new -293 385 24 24;" xml:space="preserve">
<path d="M-271.1,404.1c-0.8-0.6-1.5-1.2-2.2-1.8c0.6-1.2,0.9-2.4,0.9-3.8c0-2.3-0.8-4.2-2.3-5.9c-1.6-1.6-3.5-2.5-5.7-2.7
	c-0.2-1-0.4-2-0.5-2.9c-0.1,1-0.3,2-0.5,2.9c-2.3,0.1-4.2,1-5.7,2.7c-1.6,1.6-2.3,3.6-2.3,5.9c0,1.3,0.3,2.6,0.9,3.8
	c-0.6,0.6-1.4,1.2-2.2,1.8c0.9-0.4,1.8-0.7,2.7-1c0.8,1.2,1.8,2.2,3.1,2.9s2.7,1.1,4.1,1.1s2.9-0.4,4.1-1.1c1.3-0.7,2.3-1.7,3.1-2.9
	C-272.8,403.4-271.9,403.7-271.1,404.1z M-281,406c-1.3,0-2.4-0.3-3.5-0.9c-1.1-0.6-2-1.4-2.7-2.4c0.3-0.1,0.7-0.2,1.1-0.3
	c1.6-0.4,3.3-0.6,5.1-0.6c1.8,0,3.5,0.2,5.1,0.5c0.3,0.1,0.6,0.1,1.1,0.3c-0.7,1-1.6,1.8-2.7,2.4C-278.5,405.7-279.7,406-281,406z
	 M-288.6,398.4c0-2,0.7-3.7,2-5.1c1.3-1.4,2.9-2.3,4.9-2.4c0,0.1-0.1,0.2-0.2,0.5c-0.1,0.3-0.2,0.5-0.2,0.7
	c-0.6,1.6-1.2,3.2-2.1,4.6c-0.9,1.4-1.8,2.8-3,4l-0.8,0.8C-288.4,400.5-288.6,399.5-288.6,398.4z M-280.3,390.9
	c1.9,0.2,3.6,1,4.9,2.4c1.3,1.4,2,3.1,2,5.1c0,1.1-0.2,2.1-0.6,3.1c-0.4-0.4-0.6-0.6-0.8-0.8c-1.1-1.3-2.1-2.6-3-4
	c-0.8-1.4-1.5-2.9-2.1-4.6c-0.1-0.1-0.1-0.4-0.2-0.7C-280.2,391.1-280.3,390.9-280.3,390.9z"/>
</svg>
