<?xml version="1.0" encoding="utf-8"?>
<!-- Generator: Adobe Illustrator 19.0.0, SVG Export Plug-In . SVG Version: 6.00 Build 0)  -->
<svg version="1.1" id="Layer_1" xmlns="http://www.w3.org/2000/svg" xmlns:xlink="http://www.w3.org/1999/xlink" x="0px" y="0px"
	 viewBox="-293 385 24 24" style="enable-background:new -293 385 24 24;" xml:space="preserve">
<path d="M-275.6,404.2c1.7,0.4,3.3,0.9,4.8,1.6c-1.4-1-2.6-2.1-3.8-3.4c-1.1-1.3-2.1-2.6-3-4.1c-0.8-1.4-1.6-3-2.1-4.7
	c-0.6-1.7-0.9-3.4-1.1-5.1c-0.2,1.7-0.5,3.5-1.1,5.1c-0.6,1.7-1.3,3.2-2.1,4.7c-0.9,1.5-1.9,2.9-3,4.1c-1.2,1.3-2.4,2.4-3.8,3.4
	c1.6-0.7,3.2-1.2,4.8-1.6c1.7-0.4,3.4-0.6,5.2-0.6C-279,403.7-277.3,403.9-275.6,404.2z"/>
</svg>
