<?xml version="1.0" encoding="utf-8"?>
<!-- Generator: Adobe Illustrator 19.0.0, SVG Export Plug-In . SVG Version: 6.00 Build 0)  -->
<svg version="1.1" id="Layer_1" xmlns="http://www.w3.org/2000/svg" xmlns:xlink="http://www.w3.org/1999/xlink" x="0px" y="0px"
	 viewBox="-293 385 24 24" style="enable-background:new -293 385 24 24;" xml:space="preserve">
<path d="M-567.1,785.1c0.3-0.8,0.4-1.5,0.4-2.4c0-1-0.2-1.9-0.6-2.8c-0.3-0.9-0.8-1.7-1.5-2.4c-0.6-0.7-1.4-1.3-2.3-1.7
	c-0.9-0.4-1.8-0.7-2.8-0.7l-0.1-3.2l-0.8,0l-0.1,3.2c-1,0-1.9,0.3-2.8,0.7c-0.9,0.5-1.7,1-2.3,1.7c-0.6,0.7-1.2,1.5-1.5,2.4
	c-0.4,0.8-0.6,1.8-0.6,2.8c0,1,0.2,1.9,0.5,2.8c0.4,0.8,0.9,1.6,1.5,2.3c0.7,0.7,1.4,1.3,2.2,1.7c0.9,0.4,1.7,0.7,2.7,0.8v1.6
	l1.6-0.5v-1.1c0.6,0,1.1-0.2,1.6-0.3c0.5-0.1,1-0.3,1.4-0.6l1,0.7l-0.7-0.9c0.7-0.4,1.3-1,1.8-1.6c0.5-0.6,0.9-1.3,1.2-2.1l1.4-0.1
	L-567.1,785.1z M-580.1,782.7l4.1,2.8l-1.8,2.6l2.6-1.3l0.1,0.4v2.6c-0.8-0.1-1.6-0.3-2.3-0.7c-0.8-0.4-1.4-0.9-1.9-1.5
	c-0.6-0.6-1-1.3-1.3-2.1s-0.5-1.6-0.5-2.5c0-0.9,0.2-1.7,0.5-2.5c0.3-0.8,0.7-1.5,1.3-2.1c0.5-0.7,1.2-1.2,1.9-1.5
	c0.7-0.4,1.5-0.6,2.4-0.7l-0.3,7.7L-580.1,782.7z M-570.2,780.6l-3.5,2.6l-0.3-7.1c0.9,0.1,1.8,0.3,2.5,0.7c0.8,0.4,1.4,0.9,2,1.5
	c0.5,0.6,1,1.3,1.3,2.1s0.5,1.6,0.5,2.5c0,0.8-0.1,1.5-0.4,2.2l-4.6-0.8L-570.2,780.6z M-568.3,785.6c-0.3,0.6-0.6,1.2-1.1,1.7
	c-0.4,0.5-0.9,0.9-1.5,1.3l-1.9-2.6L-568.3,785.6z M-571.3,788.8c-0.4,0.3-0.7,0.4-1.1,0.5c-0.3,0.2-0.7,0.2-1.2,0.3v-2.5
	L-571.3,788.8z"/>
</svg>
