<?xml version="1.0" encoding="utf-8"?>
<!-- Generator: Adobe Illustrator 19.0.0, SVG Export Plug-In . SVG Version: 6.00 Build 0)  -->
<svg version="1.1" id="Layer_1" xmlns="http://www.w3.org/2000/svg" xmlns:xlink="http://www.w3.org/1999/xlink" x="0px" y="0px"
	 viewBox="-293 385 24 24" style="enable-background:new -293 385 24 24;" xml:space="preserve">
<path d="M-288.4,398.1l-0.3-0.1c-0.2-0.1-0.4-0.2-0.6-0.3c-0.3-0.2-0.5-0.4-0.8-0.7c-0.3-0.3-0.6-0.7-0.9-1.2l0,0.3v0.6
	c0.1,0.5,0.2,1,0.5,1.4c0.2,0.4,0.5,0.8,0.8,1.1c0.3,0.3,0.6,0.6,0.9,0.8c0.3,0.2,0.6,0.4,0.9,0.5c0.4,0.2,0.6,0.3,0.7,0.3l0.3,0.1
	l0.2,0.1l0,0.2l-0.2,0.2l-0.5,0.2c-0.2,0-0.4,0-0.6,0c-0.2,0-0.5,0-0.7-0.1c0.1,0.1,0.2,0.2,0.5,0.5c0.3,0.2,0.5,0.4,0.8,0.6
	c0.2,0.2,0.5,0.4,1,0.7c0.3,0.2,0.8,0.4,1.2,0.6c0.4,0.2,0.9,0.4,1.4,0.5c0.4,0.1,0.8,0.2,1.3,0.3c0.5,0.1,0.8,0.1,1,0.1
	c0.3,0,0.4,0,0.5-0.1v0h0.1l0,0c0,0.1,0.2,0.1,0.5,0.1c0.2,0,0.6,0,1-0.1c0.5-0.1,1-0.2,1.3-0.3c0.5-0.1,1-0.3,1.4-0.5
	c0.5-0.2,0.9-0.4,1.2-0.6c0.5-0.3,0.8-0.5,1-0.7c0.3-0.2,0.5-0.4,0.8-0.6c0.3-0.3,0.5-0.4,0.5-0.5c-0.3,0.1-0.5,0.1-0.7,0.1
	c-0.2,0-0.4,0-0.6,0l-0.5-0.2l-0.2-0.2l0.1-0.2l0.2-0.1l0.3-0.1c0.1,0,0.3-0.1,0.7-0.3c0.3-0.2,0.6-0.3,0.9-0.5
	c0.3-0.2,0.7-0.5,0.9-0.8c0.3-0.3,0.6-0.7,0.8-1.1c0.2-0.4,0.4-0.9,0.5-1.5v-0.6l0-0.3c-0.3,0.5-0.6,0.8-0.9,1.2
	c-0.3,0.3-0.5,0.5-0.8,0.7c-0.2,0.1-0.4,0.2-0.6,0.3l-0.3,0.1l-0.3-0.1l0-0.3c0.1-0.3,0.3-0.5,0.3-0.6l0.2-0.3c0,0,0.1-0.1,0.2-0.3
	c0.4-0.5,0.6-1.1,0.6-1.8c0.1-0.7,0-1.4-0.2-2.1c-0.2-0.5-0.4-0.9-0.7-1.3c-0.3-0.3-0.6-0.7-1.1-1c-0.4-0.3-0.9-0.5-1.3-0.7
	c-0.4-0.2-0.9-0.4-1.4-0.5h-0.1c0.5,0.3,0.9,0.6,1.2,1c0.3,0.4,0.5,0.7,0.5,1.1c0.1,0.4,0.1,0.7,0.1,1.1c-0.1,0.4-0.2,0.8-0.3,1
	c-0.3,0.8-0.8,1.5-1.6,2.3c0.5,0.9,0.8,1.7,0.9,2.4c0.1,0.8,0,1.5-0.2,2.1c-0.2,0.6-0.5,1.2-0.9,1.7c-0.4,0.5-0.9,1-1.3,1.3
	c-0.4,0.4-0.8,0.7-1.2,0.9c-0.4,0.2-0.7,0.4-0.8,0.4h-0.2c-0.1,0-0.4-0.2-0.8-0.4c-0.4-0.2-0.8-0.5-1.2-0.9
	c-0.4-0.3-0.8-0.8-1.3-1.3c-0.4-0.5-0.7-1.1-0.9-1.7c-0.2-0.6-0.3-1.3-0.2-2.1c0.1-0.7,0.4-1.6,0.9-2.5c-0.7-0.8-1.3-1.5-1.6-2.3
	c-0.1-0.3-0.2-0.6-0.3-1c-0.1-0.4,0-0.7,0.1-1.1c0.1-0.3,0.3-0.7,0.5-1.1c0.3-0.4,0.6-0.7,1.2-1h-0.2c-0.4,0.2-0.9,0.3-1.4,0.5
	c-0.4,0.2-0.8,0.4-1.3,0.7c-0.4,0.3-0.8,0.6-1.1,1c-0.3,0.4-0.5,0.8-0.7,1.3c-0.2,0.7-0.3,1.4-0.2,2.1c0.1,0.7,0.3,1.3,0.6,1.8
	c0,0,0.1,0.1,0.2,0.3l0.2,0.3c0.1,0.1,0.2,0.3,0.4,0.6l0,0.3L-288.4,398.1z M-281.8,394.1c0.2,0.1,0.5,0.1,0.8,0.1s0.6,0,0.8-0.1
	c0.2-0.1,0.5-0.3,0.6-0.4c0.2-0.2,0.3-0.4,0.4-0.6c0.1-0.2,0.2-0.5,0.2-0.8c0-0.3-0.1-0.5-0.2-0.8c-0.1-0.2-0.2-0.4-0.4-0.6
	c-0.2-0.2-0.4-0.3-0.6-0.4c-0.3-0.1-0.5-0.1-0.8-0.1s-0.5,0-0.8,0.1c-0.2,0.1-0.5,0.3-0.6,0.4c-0.2,0.2-0.3,0.4-0.4,0.6
	c-0.1,0.2-0.2,0.5-0.2,0.8c0,0.3,0.1,0.5,0.2,0.8c0.1,0.2,0.2,0.5,0.4,0.6C-282.2,393.8-282,394-281.8,394.1z"/>
</svg>
