<?xml version="1.0" encoding="utf-8"?>
<!-- Generator: Adobe Illustrator 19.0.0, SVG Export Plug-In . SVG Version: 6.00 Build 0)  -->
<svg version="1.1" id="Layer_1" xmlns="http://www.w3.org/2000/svg" xmlns:xlink="http://www.w3.org/1999/xlink" x="0px" y="0px"
	 viewBox="-207 299 196 196" style="enable-background:new -207 299 196 196;" xml:space="preserve">
<path d="M-89,449.4h-40.8l-12,21.6H-77L-89,449.4z M-144.2,440.6l-20.8-34.4h-24l32,56L-144.2,440.6z M-29,405.4h-24.8l-20,34.4
	l12.8,21.6L-29,405.4z M-129,431.8h40.8l20-35.2l-20-35.2H-129l-20,35.2L-129,431.8z M-97,375.8l12,20.8l-12,20.8h-24l-12-20.8
	l12-20.8H-97z M-189,387.8h24l20-34.4l-12-21.6L-189,387.8z M-73.8,353.4l20,34.4H-29l-32-56L-73.8,353.4z M-129,344.6h40.8l12-21.6
	H-141L-129,344.6z"/>
</svg>
