<?xml version="1.0" encoding="utf-8"?>
<!-- Generator: Adobe Illustrator 19.0.0, SVG Export Plug-In . SVG Version: 6.00 Build 0)  -->
<svg version="1.1" id="Layer_1" xmlns="http://www.w3.org/2000/svg" xmlns:xlink="http://www.w3.org/1999/xlink" x="0px" y="0px"
	 viewBox="-293 385 24 24" style="enable-background:new -293 385 24 24;" xml:space="preserve">
<path d="M-289.1,400.4l1.4,0.1c0.3,0.8,0.7,1.5,1.2,2.1c0.5,0.6,1.1,1.2,1.8,1.6l-0.7,0.9l1-0.7c0.4,0.3,0.9,0.5,1.4,0.6
	c0.5,0.1,1,0.3,1.6,0.3v1.1l1.6,0.5v-1.6c1-0.1,1.8-0.4,2.7-0.8c0.8-0.4,1.5-1,2.2-1.7c0.6-0.7,1.1-1.5,1.5-2.3
	c0.3-0.9,0.5-1.8,0.5-2.8c0-1-0.2-2-0.6-2.8c-0.3-0.9-0.9-1.7-1.5-2.4c-0.6-0.7-1.4-1.2-2.3-1.7c-0.9-0.4-1.8-0.7-2.8-0.7l-0.1-3.2
	h-0.8l-0.1,3.2c-1,0-1.9,0.3-2.8,0.7c-0.9,0.4-1.7,1-2.3,1.7c-0.7,0.7-1.2,1.5-1.5,2.4c-0.4,0.9-0.6,1.8-0.6,2.8
	c0,0.9,0.1,1.6,0.4,2.4L-289.1,400.4z M-279.7,398.9l-0.3-7.7c0.9,0.1,1.7,0.3,2.4,0.7c0.7,0.3,1.4,0.8,1.9,1.5
	c0.6,0.6,1,1.3,1.3,2.1c0.3,0.8,0.5,1.6,0.5,2.5c0,0.9-0.2,1.7-0.5,2.5c-0.3,0.8-0.7,1.5-1.3,2.1c-0.5,0.6-1.1,1.1-1.9,1.5
	c-0.7,0.4-1.5,0.6-2.3,0.7v-2.6l0.1-0.4l2.6,1.3l-1.8-2.6l4.1-2.8L-279.7,398.9z M-282.3,399.3l-4.6,0.8c-0.3-0.7-0.4-1.4-0.4-2.2
	c0-0.9,0.2-1.7,0.5-2.5c0.3-0.8,0.8-1.5,1.3-2.1c0.6-0.6,1.2-1.1,2-1.5c0.7-0.4,1.6-0.6,2.5-0.7l-0.3,7.1l-3.5-2.6L-282.3,399.3z
	 M-282.2,401l-1.9,2.6c-0.6-0.4-1.1-0.8-1.5-1.3c-0.5-0.5-0.8-1.1-1.1-1.7L-282.2,401z M-281.4,402.1v2.5c-0.5-0.1-0.9-0.1-1.2-0.3
	c-0.4-0.1-0.7-0.2-1.1-0.5L-281.4,402.1z"/>
</svg>
