<?xml version="1.0" encoding="utf-8"?>
<!-- Generator: Adobe Illustrator 19.0.0, SVG Export Plug-In . SVG Version: 6.00 Build 0)  -->
<svg version="1.1" id="Layer_1" xmlns="http://www.w3.org/2000/svg" xmlns:xlink="http://www.w3.org/1999/xlink" x="0px" y="0px"
	 viewBox="-293 385 24 24" style="enable-background:new -293 385 24 24;" xml:space="preserve">
<path d="M-566.6,776c-0.8-1.2-1.8-2.2-3.1-2.9c-1.2-0.7-2.7-1.1-4.1-1.1c-1.4,0-2.8,0.4-4.1,1.1s-2.3,1.7-3.1,2.9
	c-0.9-0.3-1.8-0.6-2.7-1c0.8,0.6,1.6,1.2,2.2,1.8c-0.6,1.2-0.9,2.5-0.9,3.8c0,2.3,0.7,4.3,2.3,5.9c1.5,1.7,3.4,2.6,5.7,2.7
	c0.2,0.9,0.4,1.9,0.5,2.9c0.1-0.9,0.3-1.9,0.5-2.9c2.2-0.2,4.1-1.1,5.7-2.7c1.5-1.7,2.3-3.6,2.3-5.9c0-1.4-0.3-2.6-0.9-3.8
	c0.7-0.6,1.4-1.2,2.2-1.8C-564.9,775.4-565.8,775.7-566.6,776z M-570.5,774.1c1.1,0.6,2,1.4,2.7,2.4c-0.5,0.2-0.8,0.2-1.1,0.3
	c-1.6,0.3-3.3,0.5-5.1,0.5c-1.8,0-3.5-0.2-5.1-0.6c-0.4-0.1-0.8-0.2-1.1-0.3c0.7-1,1.6-1.8,2.7-2.4c1.1-0.6,2.2-0.9,3.5-0.9
	S-571.5,773.4-570.5,774.1z M-581,777.6l0.8,0.8c1.2,1.2,2.1,2.6,3,4c0.9,1.4,1.5,3,2.1,4.6c0,0.2,0.1,0.4,0.2,0.7
	c0.1,0.3,0.2,0.4,0.2,0.5c-2-0.1-3.6-1-4.9-2.4c-1.3-1.4-2-3.1-2-5.1C-581.6,779.6-581.4,778.6-581,777.6z M-573.1,787.7
	c0.1-0.3,0.1-0.6,0.2-0.7c0.6-1.7,1.3-3.2,2.1-4.6c0.9-1.4,1.9-2.7,3-4c0.2-0.2,0.4-0.4,0.8-0.8c0.4,1,0.6,2,0.6,3.1
	c0,2-0.7,3.7-2,5.1c-1.3,1.4-3,2.2-4.9,2.4C-573.3,788.2-573.2,788-573.1,787.7z"/>
</svg>
