<?xml version="1.0" encoding="utf-8"?>
<!-- Generator: Adobe Illustrator 19.0.0, SVG Export Plug-In . SVG Version: 6.00 Build 0)  -->
<svg version="1.1" id="Layer_1" xmlns="http://www.w3.org/2000/svg" xmlns:xlink="http://www.w3.org/1999/xlink" x="0px" y="0px"
	 viewBox="-207 299 196 196" style="enable-background:new -207 299 196 196;" xml:space="preserve">
<path d="M-98.3,381.2h-20.4l-6,10.8h32.4L-98.3,381.2z M-126,376.8l-10.4-17.2h-12l16,28L-126,376.8z M-68.3,359.2h-12.4l-10,17.2
	l6.4,10.8L-68.3,359.2z M-118.4,372.4h20.4l10-17.6l-10-17.6h-20.4l-10,17.6L-118.4,372.4z M-102.3,344.4l6,10.4l-6,10.4h-12
	l-6-10.4l6-10.4H-102.3z M-148.4,350.4h12l10-17.2l-6-10.8L-148.4,350.4z M-90.7,333.2l10,17.2h12.4l-16-28L-90.7,333.2z
	 M-118.4,328.8h20.4l6-10.8h-32.4L-118.4,328.8z"/>
<path d="M-107.4,413.2c-7.5,0-14.7-0.8-21.8-2.5c-6.7-1.7-13.4-3.8-20.1-6.7c5.9,4.2,10.9,8.8,15.9,14.2c4.6,5,8.8,10.9,12.6,17.2
	c3.4,6.3,6.3,12.6,8.8,19.7c2.5,6.7,3.8,14.2,4.6,21.4c0.8-7.1,2.1-14.2,4.6-21.4c2.1-7.1,5.4-13.8,8.8-19.7
	c3.8-6.3,8-11.7,12.6-17.2c5-5.4,10.1-10.1,15.9-14.2c-6.3,2.9-13,5-20.1,6.7C-92.8,412-99.9,412.8-107.4,413.2z"/>
</svg>
