<?xml version="1.0" encoding="utf-8"?>
<!-- Generator: Adobe Illustrator 19.0.0, SVG Export Plug-In . SVG Version: 6.00 Build 0)  -->
<svg version="1.1" id="Layer_1" xmlns="http://www.w3.org/2000/svg" xmlns:xlink="http://www.w3.org/1999/xlink" x="0px" y="0px"
	 viewBox="-207 299 196 196" style="enable-background:new -207 299 196 196;" xml:space="preserve">
<path d="M-50.9,348.8c-6.4-9.6-14.3-17.5-24.7-23.1c-9.6-5.6-21.5-8.8-32.6-8.8c-11.1,0-22.3,3.2-32.6,8.8
	c-10.3,5.6-18.3,13.5-24.7,23.1c-7.2-2.4-14.3-4.8-21.5-8c6.4,4.8,12.7,9.6,17.5,14.3c-4.8,9.6-7.2,19.9-7.2,30.2
	c0,18.3,5.6,34.2,18.3,47c11.9,13.5,27.1,20.7,45.4,21.5c1.6,7.2,3.2,15.1,4,23.1c0.8-7.2,2.4-15.1,4-23.1
	c17.5-1.6,32.6-8.8,45.4-21.5c11.9-13.5,18.3-28.7,18.3-47c0-11.1-2.4-20.7-7.2-30.2c5.6-4.8,11.1-9.6,17.5-14.3
	C-37.4,344.1-44.5,346.5-50.9,348.8z M-81.9,333.7c8.8,4.8,15.9,11.1,21.5,19.1c-4,1.6-6.4,1.6-8.8,2.4c-12.7,2.4-26.3,4-40.6,4
	s-27.9-1.6-40.6-4.8c-3.2-0.8-6.4-1.6-8.8-2.4c5.6-8,12.7-14.3,21.5-19.1c8.8-4.8,17.5-7.2,27.9-7.2S-89.9,328.1-81.9,333.7z
	 M-165.5,361.6l6.4,6.4c9.6,9.6,16.7,20.7,23.9,31.8c7.2,11.1,11.9,23.9,16.7,36.6c0,1.6,0.8,3.2,1.6,5.6c0.8,2.4,1.6,3.2,1.6,4
	c-15.9-0.8-28.7-8-39-19.1c-10.3-11.1-15.9-24.7-15.9-40.6C-170.3,377.5-168.7,369.5-165.5,361.6z M-102.6,442
	c0.8-2.4,0.8-4.8,1.6-5.6c4.8-13.5,10.3-25.5,16.7-36.6c7.2-11.1,15.1-21.5,23.9-31.8c1.6-1.6,3.2-3.2,6.4-6.4
	c3.2,8,4.8,15.9,4.8,24.7c0,15.9-5.6,29.5-15.9,40.6c-10.3,11.1-23.9,17.5-39,19.1C-104.2,446-103.4,444.4-102.6,442z"/>
</svg>
