<?xml version="1.0" encoding="utf-8"?>
<!-- Generator: Adobe Illustrator 19.0.0, SVG Export Plug-In . SVG Version: 6.00 Build 0)  -->
<svg version="1.1" id="Layer_1" xmlns="http://www.w3.org/2000/svg" xmlns:xlink="http://www.w3.org/1999/xlink" x="0px" y="0px"
	 viewBox="-293 385 24 24" style="enable-background:new -293 385 24 24;" xml:space="preserve">
<path d="M-280.6,407l2.2-6.1l5.7,1.5l-3.4-4.8l4.8-2.9l-5.4-0.9l1-6.5l-4.8,4.8l-5.1-5.2l1.1,6.8l-5.5,0.9l5.4,2.8l-5.9,6.5l8.3-4
	L-280.6,407z M-280.6,394.3l2.6-2.5l-0.5,3.3l2.9,0.5l-2.7,1.6l1.9,2.7l-3-0.8l-1,2.7l-0.9-3.7l-3.5,1.7l2.4-2.6l-3.1-1.7l2.8-0.4
	l-0.6-3.4L-280.6,394.3z"/>
</svg>
