<?xml version="1.0" encoding="utf-8"?>
<!-- Generator: Adobe Illustrator 19.0.0, SVG Export Plug-In . SVG Version: 6.00 Build 0)  -->
<svg version="1.1" id="Layer_1" xmlns="http://www.w3.org/2000/svg" xmlns:xlink="http://www.w3.org/1999/xlink" x="0px" y="0px"
	 viewBox="-293 385 24 24" style="enable-background:new -293 385 24 24;" xml:space="preserve">
<path d="M-573.8,775.7c-1.8,0-3.5-0.2-5.2-0.6c-1.6-0.4-3.2-0.9-4.8-1.6c1.4,1,2.6,2.1,3.8,3.4c1.1,1.2,2.1,2.6,3,4.1
	c0.8,1.5,1.5,3,2.1,4.7c0.6,1.6,0.9,3.4,1.1,5.1c0.2-1.7,0.5-3.4,1.1-5.1c0.5-1.7,1.3-3.3,2.1-4.7c0.9-1.5,1.9-2.8,3-4.1
	c1.2-1.3,2.4-2.4,3.8-3.4c-1.5,0.7-3.1,1.2-4.8,1.6C-570.3,775.4-572,775.6-573.8,775.7z"/>
</svg>
