<?xml version="1.0" encoding="utf-8"?>
<!-- Generator: Adobe Illustrator 19.0.0, SVG Export Plug-In . SVG Version: 6.00 Build 0)  -->
<svg version="1.1" id="Layer_1" xmlns="http://www.w3.org/2000/svg" xmlns:xlink="http://www.w3.org/1999/xlink" x="0px" y="0px"
	 viewBox="-293 385 24 24" style="enable-background:new -293 385 24 24;" xml:space="preserve">
<path d="M-271.8,400.9c0.5-1.2,0.8-2.5,0.8-3.9c0-1.4-0.3-2.7-0.8-3.9c-0.5-1.2-1.2-2.3-2.1-3.2c-0.9-0.9-2-1.6-3.2-2.2
	c-1.2-0.5-2.5-0.8-3.9-0.8c-1.4,0-2.7,0.3-3.9,0.8c-1.2,0.5-2.3,1.3-3.2,2.2c-0.9,0.9-1.6,2-2.1,3.2c-0.5,1.2-0.8,2.5-0.8,3.9
	c0,1.3,0.3,2.6,0.8,3.9c0.5,1.2,1.2,2.3,2.1,3.2c0.9,0.9,2,1.6,3.2,2.2c1.2,0.5,2.5,0.8,3.9,0.8c1.4,0,2.7-0.3,3.9-0.8
	c1.2-0.5,2.3-1.3,3.2-2.2C-273,403.2-272.3,402.1-271.8,400.9z"/>
</svg>
