<?xml version="1.0" encoding="utf-8"?>
<!-- Generator: Adobe Illustrator 19.0.0, SVG Export Plug-In . SVG Version: 6.00 Build 0)  -->
<svg version="1.1" id="Layer_1" xmlns="http://www.w3.org/2000/svg" xmlns:xlink="http://www.w3.org/1999/xlink" x="0px" y="0px"
	 viewBox="-293 385 24 24" style="enable-background:new -293 385 24 24;" xml:space="preserve">
<path d="M-278.5,403.6h-5.1l-1.5,2.7h8.1L-278.5,403.6z M-285.4,402.5l-2.6-4.3h-3l4,7L-285.4,402.5z M-271,398.1h-3.1l-2.5,4.3
	l1.6,2.7L-271,398.1z M-283.5,401.4h5.1l2.5-4.4l-2.5-4.4h-5.1l-2.5,4.4L-283.5,401.4z M-279.5,394.4l1.5,2.6l-1.5,2.6h-3l-1.5-2.6
	l1.5-2.6H-279.5z M-291,395.9h3l2.5-4.3l-1.5-2.7L-291,395.9z M-276.6,391.6l2.5,4.3h3.1l-4-7L-276.6,391.6z M-283.5,390.5h5.1
	l1.5-2.7h-8.1L-283.5,390.5z"/>
</svg>
