<?xml version="1.0" encoding="utf-8"?>
<!-- Generator: Adobe Illustrator 19.0.0, SVG Export Plug-In . SVG Version: 6.00 Build 0)  -->
<svg version="1.1" id="Layer_1" xmlns="http://www.w3.org/2000/svg" xmlns:xlink="http://www.w3.org/1999/xlink" x="0px" y="0px"
	 viewBox="-207 299 196 196" style="enable-background:new -207 299 196 196;" xml:space="preserve">
<g>
	<path d="M-189,465c26.4-45.6,53.6-90.4,80-136c26.4,45.6,53.6,90.4,80,136l0,0l0,0l0,0c-26.4-16.8-52.8-32.8-80-49.6
		C-135.4,432.2-162.6,449-189,465L-189,465z M-150.6,425.8L-150.6,425.8c13.6-8,28-16.8,41.6-25.6c13.6,8.8,27.2,16.8,41.6,25.6l0,0
		l0,0l0,0c-13.6-23.2-28-46.4-41.6-70.4C-122.6,378.6-137,401.8-150.6,425.8z"/>
</g>
</svg>
