<svg version="2.0" xmlns="http://www.w3.org/2000/svg" viewbox="0 0 256 256">
<g>
	<path d="M-145.2,380.7c1.6-3.5-8.2-22.3-19.9-38.2c-0.7-0.6-0.2-1.3,0.8-0.8c20.3,14.7,36.6,20.5,41.5,18.7
		c7.8-4,13.9-42.4,13.9-42.4c0.1-0.5,0.5-0.5,0.7-0.1c2.7,11.3,7.7,37.4,17.2,43.1c4.9,3,28.5-13.7,37.5-20c0.7-0.5,1.3,0.1,0.8,0.8
		c0,0-20.5,35.2-18.6,41.3c1.2,3.7,30.1,11.5,41.9,13.6c1,0.2,1.2,1.4,0,1.6c-10.8,1.6-39,6.7-41.8,12.6c-3,6.3,10.8,30.5,17.8,40.9
		c0.6,0.7,0,1.4-0.8,0.8c-22.7-15.7-34.6-20-37.7-18.8c-2.9,1.1-13,31.1-16.3,42.1c-0.2,0.6-0.6,0.4-0.7,0.1
		c-2-9.1-11.3-39.8-14.9-41.1c-5-2-30.5,11.9-39.8,17.5c-0.5,0.3-1.1-0.1-0.7-0.7c9.8-15.6,18.2-38.1,17.4-41.8
		c-1-4.9-22.5-9.5-42.1-12.6c-0.3,0-0.4-0.6,0-0.7C-172.1,392.9-146.8,384.4-145.2,380.7z M-108.8,417.3c10.3,0,20.7-9.6,20.7-20.7
		s-9.6-20.7-20.7-20.7s-20.7,9.6-20.7,19.9C-129.5,407.7-119.2,417.3-108.8,417.3z"/>
</g>
</svg>
