<svg version="2.0" xmlns="http://www.w3.org/2000/svg" viewbox="0 0 256 256">
<g>
	<path d="M-187.8,320.5c1.6-1.6,0.3-0.3,1.8-1.8c0.8-0.8,1.6-1.6,3.2,0c11.9,7.9,23,15.9,34.9,23.8c0.8,0.8,1.6,0.8,1.6,0.8
		c23.8-14.3,47.6-15.1,71.4,0c2.4-1.6,5.6-4,8.7-5.6c9.5-6.3,19-12.7,28.6-19c1.6-0.8,2.4-0.8,3.2,0c1.6,1.6,2.4,3.2,4,4.8
		c-0.4,0.9-0.8,1.6-0.8,1.6c-7.9,11.9-15.9,23-23,34.9c-0.8,1.6-0.8,2.4,0,3.2c13.5,22.2,12.7,45.2,0,68.2c-0.8,1.6-0.8,2.4,0,3.2
		c7.9,11.1,15.9,23,23.8,34.1c0.8,0.8,0.8,1.6,0,3.2c-4,5.6-4,5.6-8.7,1.6c-11.1-7.1-21.4-14.3-32.5-21.4c-0.8-0.8-1.6-0.8-2.4,0
		c-11.1,7.1-23.8,9.5-37.3,9.5c-11.1-0.8-21.4-3.2-30.9-9.5c-0.8-0.8-1.6,0-2.4,0c-11.9,7.9-23.8,15.9-34.9,23.8
		c-1.6,0.8-2.4,0.8-4,0c-0.8-1.6-2.4-2.4-4-4c0-0.8,0-0.8,0-1.6c0,0,0.8,0,0.8-0.8c7.9-11.9,15.9-23.8,23.8-35.7
		c0.8-0.8,0-1.6,0-2.4c-12.7-23-13.5-45.2,0-68.2c0.8-1.6,0.8-1.6,0-3.2c-7.9-11.9-15.1-23.8-23-35.7l-0.8-0.8
		C-188.3,321.6-188.1,320.9-187.8,320.5z M-163.8,449.5C-163,449.5-163,449.5-163.8,449.5c4-1.6,7.1-4,10.3-6.3
		c7.9-5.6,15.9-11.1,24.6-15.9c11.1-6.3,22.2-6.3,34.1-0.8c9.5,4.8,18.2,11.1,26.2,16.7c3.2,2.4,6.3,4.8,9.5,6.3c0-0.8,0-0.8,0-1.6
		c-4-6.3-7.9-12.7-11.9-18.2c-4-5.6-7.1-11.9-10.3-17.4c-3.2-6.3-4.8-13.5-3.2-20.6c0.8-5.6,4-11.1,6.3-15.9c4-6.3,8.7-12.7,12.7-19
		c2.4-4,4.8-7.9,7.1-11.9c-0.8,0-1.6,0-1.6,0.8c-8.7,6.3-18.2,11.9-27,18.2c-5.6,3.2-11.1,6.3-17.4,7.1c-8.7,1.6-17.4,0-24.6-4.8
		c-8.7-4.8-16.7-10.3-24.6-15.9c-3.2-2.4-6.3-4-9.5-6.3c0,0.8,0,1.6,0.8,1.6c6.3,9.5,12.7,19.8,19,29.3c1.6,3.2,3.2,6.3,4.8,9.5
		c2.4,4.8,3.2,10.3,2.4,15.9c-0.8,7.1-4,12.7-7.1,18.2c-4.8,7.9-10.3,15.9-15.1,23.8C-160.6,444.7-162.2,447.1-163.8,449.5z"/>
</g>
</svg>
