<svg version="2.0"  xmlns="http://www.w3.org/2000/svg" viewbox="-207 299 196 196">
<g>
	<path d="M-188.9,390.8c0-1.6,0.8-4,0.8-5.6c1.6-10.4,5.6-20,10.4-28.7c0,0,0-0.8,0.8-0.8c14.4,13.6,27.9,27.9,42.3,41.5
		c-14.4,14.4-27.9,28.7-42.3,43.1c-2.4-4.8-4.8-9.6-6.4-14.4c-2.4-6.4-3.4-12.7-5-19.1c-0.2-0.5-0.3-2-0.5-3.2
		C-189.1,398.9-188.9,395.6-188.9,390.8z"/>
	<path d="M-151.4,329.3c25.6-16,59.1-16.8,84.6,0c-13.6,14.4-27.9,27.9-41.5,42.3C-123.4,357.2-137,343.7-151.4,329.3z"/>
	<path d="M-109.1,422.7c13.6,14.4,27.9,27.9,41.5,42.3c-18.4,16-64.7,16-83.8,0C-137,451.4-123.4,437.1-109.1,422.7z"/>
	<path d="M-40.4,439.5c-14.4-13.6-27.9-27.9-43.1-41.5c14.4-14.4,27.9-27.9,42.3-42.3C-25.2,379.6-25.2,413.9-40.4,439.5z"/>
</g>
</svg>
