<?xml version="1.0" encoding="utf-8"?>
<!-- Generator: Adobe Illustrator 19.0.0, SVG Export Plug-In . SVG Version: 6.00 Build 0)  -->
<svg version="2.0" id="Layer_1" xmlns="http://www.w3.org/2000/svg" xmlns:xlink="http://www.w3.org/1999/xlink" x="0px" y="0px"
	 viewBox="-207 299 196 196" style="enable-background:new -207 299 196 196;" xml:space="preserve">
<g>
	<path d="M-188.9,390.6c0.8-3.2,0.8-6.4,1.6-9.6c8.8-41.5,45.5-66.3,83.9-63.9c12.8,0.8,24.8,4.8,35.9,11.2l0.8,0.8
		c-0.8,0.8-0.8,0.8-0.8,1.6c-6.4,6.4-12.8,12.8-18.4,19.2c-0.8,0.8-1.6,1.6-2.4,0.8c-18.4-8-35.9-4.8-51.9,7.2
		c-13.6,10.4-24.8,32.7-16,55.9c1.6,3.2,0.8,5.6-1.6,8c-5.6,5.6-11.2,12-17.6,17.6c-0.8-0.8-0.8-1.6-1.6-2.4
		c-5.6-10.4-10.4-20.8-11.2-32.7c0-0.8,0-0.8,0-1.6C-188.9,399.4-188.9,394.6-188.9,390.6z"/>
	<path d="M-151.4,464.1c7.2-7.2,13.6-13.6,20.8-20.8c0.8-0.8,1.6,0,2.4,0c12.8,4.8,24.8,5.6,37.5,0.8c25.6-9.6,38.3-35.9,29.6-61.5
		c-0.8-2.4-2.4-4.8-1.6-6.4c0.8-1.6,3.2-3.2,4.8-4.8c5.6-5.6,11.2-11.2,16.8-16.8c7.2,12,12,25.6,12,39.1
		c0.8,20.8-5.6,39.9-19.2,55.9C-79.5,484.1-125,482.5-151.4,464.1z"/>
</g>
</svg>
