<svg version="2.0"  xmlns="http://www.w3.org/2000/svg" viewbox="-207 299 196 196">
<g>
	<path d="M-189,393.1c1.1-3.6,1.9-7.3,3.5-10.7c5.1-11,13.8-18.6,24-24.6c13.2-7.8,27.3-12.9,42.5-15.1c11.2-1.6,22.1-0.2,32.9,2.8
		c12.5,3.4,24.3,8.6,35,16c6.8,4.7,12.8,10.4,17,17.7c6.9,11.9,7,24,0,35.9c-5.8,9.8-14.4,16.8-24.1,22.3
		c-12,6.8-24.9,11.3-38.5,13.6c-12.2,2.1-24.1,0.8-35.8-2.5c-14.7-4.1-28.5-10.2-40.2-20.3c-6.4-5.6-11.4-12.2-14.4-20.2
		c-0.8-2.2-1.2-4.6-1.8-6.9C-189,398.4-189,395.7-189,393.1z M-109.1,355.7c-22.5-0.2-41.1,18.2-41.3,40.9
		c-0.2,22.7,17.9,41.3,40.4,41.5c23.2,0.2,41.9-17.9,42-40.7C-67.7,374.4-86,355.9-109.1,355.7z"/>
	<path d="M-89.6,396.5c0.8,7.8-4.6,15.5-13,18.8c-7.7,3-16.9,0.3-22.3-6.6c-5.2-6.7-5.2-16.3-0.2-23.2c5-6.9,14-9.5,17.9-7.7
		c-3.2,5.3-3.2,10.6,0.7,15.5C-101.8,399.1-96,399.6-89.6,396.5z"/>
</g>
</svg>
