<svg version="2.0"  xmlns="http://www.w3.org/2000/svg" viewbox="-207 299 196 196">
<g>
	<path d="M-104.6,317c0.4,5,0.7,10,1.1,15c1.1,13.8,2.2,27.5,3.3,41.3c0.1,1.8,0.7,2.7,2.5,3.3c12.1,4.1,20.9,12,25,24.2
		c8.5,25.2-9.9,51-35.4,51.4c-22.6,0.4-37.5-16.6-39-35.5c-0.1-0.7-0.2-1.3-0.3-2c0-1.1,0-2.3,0-3.4c0.1-0.6,0.2-1.2,0.3-1.8
		c1-3.9,1.4-8.1,3-11.8c4.6-11,13-18.1,24.5-21.5c0.8-0.2,1.7-0.3,1.7-1.6c0.7-10.4,1.5-20.9,2.4-31.3c0.7-8.8,1.6-17.6,2.4-26.3
		C-110.3,317-107.5,317-104.6,317z M-118.6,380.6c-0.2,0.1-0.6,0.1-0.9,0.3c-6.1,2.9-10.9,7.3-14.1,13.2c-3.1,5.7-4,11.7-2.6,18.1
		c0.2,1,0.6,1.4,1.7,1.3c2-0.3,4-0.5,6.1-0.7c4.2-0.5,8.4-1,12.8-1.5c-0.8-5.1-1.9-10.2-2.4-15.3
		C-118.5,390.9-118.5,385.7-118.6,380.6z M-99.8,380.5c0.1,0.8,0.2,1.4,0.2,2c0,4.1,0.3,8.3,0,12.3c-0.3,4-1.4,8-2.1,12
		c-0.2,1.4-0.3,2.9-0.5,4.4c6.8,0.8,13.4,1.5,20,2.3C-78.6,401-87.5,384.3-99.8,380.5z M-118.9,432.3c0-5.2,0-10,0-15.1
		c-5.4-0.5-10.7-1.1-16.4-1.7C-131.7,423.3-126.9,429.1-118.9,432.3z M-98.9,432.3c7.8-3.6,13.2-8.9,16.2-17.1
		c-5.6,0.7-11,1.4-16.2,2.1C-98.9,422.4-98.9,427.2-98.9,432.3z"/>
	<path d="M-118.8,456.3c6.6,1.8,13,1.7,19.5,0c0,7-0.4,13.7-4,19.8c-0.2,0.4-0.8,0.8-1.3,0.8c-2.9,0.1-5.9,0.1-8.8,0
		c-0.5,0-1.3-0.6-1.6-1.1c-2.6-4.4-3.7-9.2-3.6-14.2C-118.5,459.9-118.7,458.2-118.8,456.3z"/>
</g>
</svg>
