<svg version="2.0"  xmlns="http://www.w3.org/2000/svg" viewbox="-207 299 196 196">
<g>
	<path d="M-112.1,334.7c-8.3,19-16.6,37.9-24.9,57.1c-4.3-1.6-8.4-3-12.4-4.8c-2.7-1.2-5.1-1.4-7.8,0c-2.8,1.5-6,2.3-8.9,3.7
		c-4,2-8.2,1.1-12.4,1.3c0-0.8-0.1-1.5-0.1-2.1c0-10.4,0-20.8,0-31.2c0-1.4,0.4-2.2,1.7-2.9c22.1-12.7,44.1-25.5,66.1-38.3
		c1.2-0.7,2.1-0.7,3.4,0c22.1,12.8,44.2,25.6,66.3,38.3c0.9,0.5,1.6,1,1.6,2.3c-0.1,11.9,0,23.7,0,35.6c0,0.4-0.1,0.8-0.1,1.3
		c-0.7,0-1.3,0.1-2,0.1c-8.2,0-16.4,0-24.6,0c-1.1,0-2.2-0.2-3.2-0.6c-5.4-2.2-10.8-4.4-16.2-6.7c-0.7-0.3-1.3-0.5-2.2-0.8
		c-2.4,5.8-4.8,11.4-7.2,17c-0.1,0-0.3-0.1-0.4-0.1c-5.4-23-10.8-46.1-16.2-69.1C-111.6,334.8-111.8,334.7-112.1,334.7z"/>
	<path d="M-101.6,460.5c7.4-18.4,14.8-36.9,22.2-55.5c2.7,1.1,5.1,2.1,7.6,3c1.1,0.4,2.3,0.6,3.4,0.7c8.8,0.1,17.6,0,26.3,0
		c0.8,0,1.5,0,2.4,0c0.1,0.8,0.1,1.3,0.1,1.9c0,8.3,0,16.5,0,24.8c0,1.4-0.5,2.1-1.6,2.7c-22.2,12.8-44.4,25.6-66.5,38.4
		c-1.1,0.7-1.9,0.6-3,0c-22.1-12.9-44.3-25.7-66.4-38.5c-0.7-0.4-1.5-1.3-1.5-2c-0.1-9.4-0.1-18.7-0.1-28.1c0-0.2,0.1-0.5,0.2-1
		c3.5,0,6.9-0.1,10.4,0c2.2,0.1,4.1-0.4,6-1.4c2.7-1.4,5.5-3.5,8.3-3.6c2.8-0.1,5.6,1.9,8.4,3c5.8,2.3,11.6,4.7,17.8,7.1
		c2.4-5.8,4.8-11.6,7.2-17.3c0.1,0,0.3,0,0.4,0c5.8,21.9,11.7,43.7,17.5,65.6C-102,460.4-101.8,460.4-101.6,460.5z"/>
</g>
</svg>
