<?xml version="1.0" encoding="utf-8"?>
<!-- Generator: Adobe Illustrator 19.0.0, SVG Export Plug-In . SVG Version: 6.00 Build 0)  -->
<svg version="2.0" id="Layer_1" xmlns="http://www.w3.org/2000/svg" xmlns:xlink="http://www.w3.org/1999/xlink" x="0px" y="0px"
	 viewBox="-207 299 196 196" style="enable-background:new -207 299 196 196;" xml:space="preserve">
<g>
	<path d="M-189,355.4c3-2.8,5.9-5.7,8.9-8.6c0.5,0.5,1,0.9,1.5,1.4c6.8,6.9,13.6,13.7,20.3,20.7c0.7,0.7,0.9,2,1.3,3
		c0.1,0.2,0,0.4,0,0.6c0,3.3-0.8,7,0.4,9.8c1.1,2.8,4.3,4.7,6.6,7.1c5.6,5.6,11.1,11.3,16.8,16.8c0.8,0.8,2.2,1.4,3.3,1.4
		c3.8,0.1,8,1,11.3-0.4c3.2-1.3,5.5-4.9,8.2-7.5c3.7-3.6,7.5-7.2,11.1-10.9c0.7-0.7,1.2-2,1.3-3c0.1-3.9,1-8.2-0.3-11.6
		c-1.4-3.3-5.1-5.7-7.8-8.5c-5.2-5.2-10.4-10.4-15.6-15.6c-0.8-0.7-2.1-0.9-3.2-1.4c-0.1,0-0.1,0-0.2,0c-3.6,0-7.6,0.9-10.7-0.4
		c-3-1.3-5.1-4.7-7.6-7.3c-5-5.2-10.1-10.3-15.3-15.7c2.7-2.8,5.3-5.5,8-8.2c0.4-0.4,1.2-0.4,1.8-0.4c12.5,0,25.1,0,37.6,0
		c0.9,0,1.9,0.5,2.6,1.2c13.8,13.9,27.5,27.8,41.2,41.7c0.6,0.6,1,1.6,1,2.4c0.1,12.4,0.1,24.8,0,37.2c0,0.8-0.5,1.8-1,2.4
		c-12.1,12.3-24.2,24.5-36.4,36.7c-0.7,0.7-1.8,1.2-2.8,1.2c-12.3,0.1-24.5,0.1-36.8,0c-1.1,0-2.3-0.7-3.1-1.4
		c-13.5-13.5-26.9-27.1-40.4-40.7c-0.6-0.6-1.3-1.1-1.9-1.7C-189,382.5-189,369-189,355.4z"/>
	<path d="M-82.5,459.2c-5-4.5-10-9-15.2-13.6c12.5-12.7,24.5-25,36.8-37.5c4.9,5.2,9.8,10.2,14.5,15.1
		C-58.5,435.3-70.8,447.6-82.5,459.2z"/>
	<path d="M-72.2,461.1C-63.2,452.2-54,443-45,434c5.2,5.2,10.7,10.6,16,15.8c-9,9-18.2,18.2-27.3,27.2
		C-61.4,471.8-66.9,466.4-72.2,461.1z"/>
</g>
</svg>
