<svg version="2.0"  xmlns="http://www.w3.org/2000/svg" viewbox="-207 299 196 196">
<path d="M-29.9,397.2c0-21.3-7.9-40-23.7-56.1C-69.4,325-87.8,317-108.8,317c-21.5,0-40.2,7.9-55.9,23.8
	c-15.7,15.9-23.6,34.7-23.6,56.3c0,21.4,7.9,40.1,23.6,56c15.7,15.9,34.1,23.8,55.3,23.8c21.4,0,40-7.9,55.8-23.7
	S-29.9,418.9-29.9,397.2z M-53,438.7c-12.3,16.7-28.5,26.1-48.7,28.3v-5c4.5-0.5,8.8-1.5,13.1-2.9l-2.5-6.9
	c2.1-0.9,9.1-5.1,21.2-12.5l5,5.2c2.8-2.8,5.4-5.8,7.7-9L-53,438.7z M-39.6,397c0,9.7-2.1,19.4-6.2,28.8l-4.2-2.5
	c1.8-4.2,3.1-8.6,4-13.1l-7.1-1.3c0.6-2.8,1-5.6,1-8.5c0-0.8-0.4-6.2-1.2-16.2l7.1-1.9c-0.8-3.8-2.1-7.6-3.8-11.2l4.4-2.7
	C-41.5,377.8-39.6,387.3-39.6,397z M-116.3,462v5.2c-20.3-2.2-36.5-11.7-48.7-28.5l4-2.5c2.7,3.5,5.6,6.7,8.8,9.8l5-5.4
	c5.4,4.2,12.5,8.2,21.3,11.9l-2.1,7.3C-124.1,460.9-120.3,461.6-116.3,462z M-64,412.6c-1.8,5.5-4.7,10.6-8.8,15.4l-16.7-14
	c-3.7,4.5-8.5,7.4-14.4,8.7l4.4,21.7c-3.2,0.6-6.3,1-9.4,1c-2.9,0-5.7-0.2-8.3-0.6l3.8-21.9c-5.8-1.2-10.7-4-14.8-8.5l-16.3,14.8
	c-4-4.6-7-9.7-9-15.2l20.4-7.7c-0.9-2.9-1.3-6-1.3-9c0-2.9,0.4-5.8,1.2-8.5l-20.8-6.7c2.1-5.8,5-11,8.8-15.6l16.5,14.2
	c4-4.7,8.8-7.7,14.6-8.8l-4.4-21.5c3.2-0.8,6.4-1.2,9.6-1.2c2.7,0,5.4,0.3,8.3,1l-4,21.7c5.9,1,10.9,3.8,15,8.5l16.3-14.8
	c3.8,4.4,6.8,9.5,8.8,15.4l-20.4,7.5c0.9,2.8,1.3,5.7,1.3,8.7s-0.4,5.8-1.3,8.5L-64,412.6z M-53,355.8l-4.2,2.5
	c-2.6-3.6-5.5-6.9-8.8-9.8l-5,5.4c-7.1-6.7-14.2-10.7-21.3-12.1l2.1-6.7c-3.7-1.3-7.5-2.1-11.3-2.5v-5
	C-81.4,329.8-65.2,339.2-53,355.8z M-164.8,410.3l-7.1,1.7c0.9,3.8,2.1,7.6,3.7,11.3l-4,2.5c-4.1-9.2-6.2-18.8-6.2-28.8
	c0-9.7,1.9-19.2,5.8-28.5l4.4,2.7c-1.8,4.2-3.1,8.6-4,13.1l7.3,1.3c-0.9,3.7-1.3,7.6-1.3,11.5C-166.3,400.9-165.8,405.3-164.8,410.3
	z M-116.3,327.4v5.2c-4.5,0.5-8.8,1.4-13.1,2.7l2.3,7.1c-7.9,2.7-14.9,6.9-21,12.7h-0.2l-5-5.6c-2.8,2.7-5.4,5.6-7.7,8.8l-4.2-2.5
	C-153.1,339.1-136.8,329.6-116.3,327.4z"/>
</svg>
