<?xml version="1.0" encoding="utf-8"?>
<!-- Generator: Adobe Illustrator 19.0.0, SVG Export Plug-In . SVG Version: 6.00 Build 0)  -->
<svg version="2.0" id="Layer_1" xmlns="http://www.w3.org/2000/svg" xmlns:xlink="http://www.w3.org/1999/xlink" x="0px" y="0px"
	 viewBox="-207 299 196 196" style="enable-background:new -207 299 196 196;" xml:space="preserve">
<path d="M-41,423c-1-5.3-1.5-9.9-1.5-14c0-0.1,0.1-0.4,0.2-0.8v-0.6c0-0.4-0.2-1-0.5-1.8s-0.5-1.4-0.5-1.8c0-7.8-1.9-11.7-5.8-11.7
	h-5.2l-0.6-0.6c2.4-1.7,3.6-3.6,3.6-6c0-0.4-0.1-0.7-0.2-1c-2.6-1.8-5.2-3.6-7.9-5.4c-3.2-1.9-6.2-2.9-9-2.9c-1.7,0-3.2,0.4-4.6,1.2
	c-2.3,3.1-5,5.8-8.2,8.2c-3.1,2.4-4.7,4.8-4.7,7.2c0,1.4,0.9,2.8,2.7,4.2c1.4,0.9,2.9,1.9,4.6,2.9c4.1,3.6,8.1,8.3,11.9,14.2
	c2.9,5.5,6,10.9,9,16.3c1,1.7,1.5,2.9,1.5,3.8c0,0.9-0.3,2.2-1,3.9c-0.6,1.7-1,3-1,3.9c0,3.5-3.5,6.3-10.4,8.6
	c2.4,1.8,5.6,2.7,9.4,2.7c6,0,11-3.4,15-10.2c3.2-5.5,4.8-11.3,4.8-17.5C-39.1,424.8-39.7,423.8-41,423z M-72.9,356
	c-2.7-4.7-4.2-7.2-4.6-7.5c0.3-1.7,1.3-2.9,3.3-3.8c-0.4-0.3-0.9-0.4-1.5-0.4c-0.4,0-0.7,0.1-1,0.2c-1.5,3.1-3.1,5.5-4.8,7.3v6.9
	c0,1.4-0.9,3.1-2.7,5c-1.8,1.9-3.5,3.2-5.2,3.8c-5.5,1.9-9.2,4.4-11.1,7.5c-0.8,1.7-1.7,5.1-2.9,10.4h-2.3c-2.7-4.1-4-7.3-4-9.6
	c0-0.4,0.1-1,0.3-1.9c0.2-0.9,0.3-1.5,0.3-1.9c0-2.7-0.9-5.1-2.7-7.1c0.1-2.2,1.4-4.2,3.8-6c2.2-1.4,4.3-2.9,6.3-4.4l-0.6-0.2l1.5-1
	c1.8-3.1,4.7-5.6,8.8-7.5c2.4-1,6.3-2.2,11.7-3.5c1.3-1.7,1.9-4.5,1.9-8.5c0-7.6-2.3-11.3-6.9-11.3c-0.9,0-2.3,0.2-4.1,0.5
	s-3.2,0.5-4.1,0.5c-1.3,0-3-0.5-5.2-1.4c-2.2-1-4-1.4-5.4-1.4c-1.2,0-3.8,1.3-7.9,4c-0.3-1.5-1-2.3-2.3-2.3c-4,0-6,1.8-6,5.4
	c0,1.7,1,3.9,3.1,6.7c-1,0.8-2.2,1.2-3.5,1.2c-1.9,0-3.5-1.7-4.6-5l6.3-9.6c-0.1-2.7-1.5-4-4-4c-3.2,0-6.9,1.5-10.9,4.6
	c-4.1,3.1-6.1,6.1-6.1,9c0,5.6,4.1,12.2,12.3,19.7c8.2,7.5,12.3,14.1,12.3,19.9c0,0.6-0.4,1.4-1.3,2.3c-0.9,0.9-1.3,1.7-1.3,2.3
	c0,1.5,0.3,2.9,1,4l2.1,0.4v2.9l-1,0.4l-0.8-1.7c-1.3,0.6-2.6,1-4,1.2c0.4-2.2,0.3-4.1-0.4-5.8c-1.9-1.4-3.3-2.5-4.2-3.3
	c-5.1-4.7-7.8-7.2-8.1-7.5c-2.2-2.4-3.8-5.6-4.8-9.4c-0.3-0.1-0.4-0.2-0.6-0.2c-2,0-4.2,1.7-6.3,5l1.3,0.6c0,3.3,1,7.9,2.9,13.8
	c2.2,0.9,4,2.6,5.6,5c0.9,2.2,1.9,4.3,3,6.3c1.1,2,2,3.6,2.6,4.6c-0.9,10.5,1.1,15.8,6,15.8c1.4,0,2.4-1,2.9-2.9
	c0.8,0.9,1.7,1.6,2.7,2.1c1.3,4.9,1.9,8.3,1.9,10.2c0,0.3,0.2,0.6,0.5,1.2c0.3,0.5,0.5,0.9,0.5,1.2c0,1.3-0.3,2.9-1,4.8
	c0.8,0.6,1.7,1,2.7,1c0.8,0,1.4-0.4,1.9-1.3s1.2-1.3,1.9-1.3c2.4,0,3.6-0.4,3.6-1.3c0-0.6-0.4-1.3-1.2-2.1c-0.8-0.8-1.2-1.4-1.2-1.9
	c0-2.7,1.6-4,4.8-4c0.3,0.1,0.4,0.2,0.6,0.2v2.3l-1.5,1.5l1.2,0.4c0,1.5-0.4,2.8-1.3,3.6c-3.3,8.1-5.2,12.3-5.6,12.7
	c0.3,0.3,0.4,0.6,0.4,1c0,0.9-0.1,2-0.3,3.5c-0.2,1.4-0.3,2.5-0.3,3.3c0,7.8,1.3,18.6,4,32.3c0.9-2.2,1.4-5.8,1.5-10.9
	c0.1-4.6,0.8-8.1,1.9-10.6l3.1-6.1c0-1.2-0.2-2.8-0.7-4.8c-0.4-2-0.7-3.6-0.7-4.6c0-0.4,0.1-0.9,0.3-1.6c0.2-0.7,0.3-1.2,0.3-1.6
	c0-1.8,0.1-3.2,0.2-4.2l1.7-0.4c-0.5-0.4-0.9-0.8-1.2-1.3c0.9-1.5,1.5-3.1,1.9-4.6c0.4-0.4,0.6-0.8,0.6-1.3c0-1.2,0.8-2.6,2.3-4.2
	c1.5-1.7,2.3-3,2.3-4v-8.1c-1-1.2-2-2.2-3.1-3.1c0.3-2.4,0.4-4.2,0.6-5.4c4.5-3.7,7.6-6.7,9.4-8.8c-0.5-2.9,0-6.3,1.6-10.1
	c1.6-3.8,3.7-6.6,6.2-8.5c3.5-2.7,5.2-4.5,5.2-5.6V356z M-97.1,473c0-0.6-0.2-1.4-0.5-2.3s-0.5-1.6-0.5-2.1v-9
	c0-0.4,0.1-0.9,0.2-1.6c0.1-0.7,0.2-1.2,0.2-1.6c0-0.8-0.2-1.5-0.6-2.1h-1.7c-1,1.9-1.5,4.2-1.5,6.7c0,7,1.5,12.4,4.4,16.1V473z
	 M-119.4,417.8c-0.8-0.3-1.6-0.4-2.5-0.4c-1,0-2.1,0.4-3.3,1.2c-1.7,1.3-2.6,2-2.9,2.1c0,1.7-0.2,4-0.5,7.1
	c-0.3,3.1-0.5,5.4-0.5,6.9c0,2.4,1.8,5.4,5.4,8.9s5.4,6.5,5.4,8.9c0,0.8,0.2,1.7,0.7,2.8c0.4,1.1,0.7,2,0.7,2.6
	c0,4.2,0.8,9.7,2.3,16.5c0.6-7.4,1-11.9,1-13.4c0-0.6-0.2-1.6-0.7-2.8c-0.4-1.2-0.7-2.1-0.7-2.8c0-3.1-0.5-6.3-1.5-9.8
	c1.7-6,2.5-10.6,2.5-13.8c0-0.6-0.1-1.2-0.2-1.7l0.6-0.2l0.6,1.3l1.2-0.4C-115.6,425.3-118.1,420.9-119.4,417.8z M-141.8,382.8
	c-4.5-3.3-7.9-4.9-10.4-4.9c-2.6,0-4.6,0.8-6.1,2.5c-1.5,1.7-2.9,3.3-4.2,4.8c-1.4,1.5-2.5,2.6-3.3,3.3c-2.8,2.8-5.4,6.7-7.8,11.7
	c-2.4,5-3.6,9.3-3.6,12.9c0,1.4-0.3,3.4-0.9,5.9c-0.6,2.5-0.9,4.4-0.9,5.9v7.7c0,3.6,2,8.1,6,13.4c4.2,5.8,8.2,8.6,11.9,8.6h5
	c0.5,0,1.4-0.1,2.6-0.2c1.2-0.1,2.1-0.2,2.8-0.2c0.9,0,1.7,0.1,2.3,0.2l7.3-1.3c-4.5-0.6-7.7-1.1-9.8-1.3c-3.8-0.9-7.3-3.3-10.3-7.1
	s-4.5-7.6-4.5-11.3c0-5.6,2.7-11.5,8.1-17.5c1.3-1.7,6.1-6.2,14.4-13.6c5.4-4.7,8.1-8.4,8.1-10.9
	C-135.1,388.8-137.4,386.1-141.8,382.8z M-122.3,450.1c0-1.4-1.3-2.1-3.8-2.1h-1c-0.8,0-1.2,0.9-1.2,2.7c0,0.8,0.3,2,0.9,3.6
	c0.6,1.7,0.9,2.9,0.9,3.6c0,4.6,0.9,8.2,2.7,10.8c1-4.5,1.5-7.4,1.5-8.6V450.1z M-116.5,338.5v-0.4l1.5,0.2v0.2H-116.5z
	 M-52.3,399.4l-1.3-0.4h-0.2l0.4,0.8l-1.3-0.4v-1.5c0.5-0.5,1-0.8,1.5-0.8c0.8,0,1.2,0.4,1.2,1.2v0.4
	C-52.1,399-52.2,399.3-52.3,399.4z M-103.4,411.3c-0.9-1.4-1.3-2.2-1.3-2.3l1.7-1.7h1.3v4H-103.4z"/>
</svg>
