<svg version="2.0"  xmlns="http://www.w3.org/2000/svg" viewbox="-207 299 196 196">
<path d="M-40.5,364.6c-7.7-11.7-17.7-20.8-30.2-27.2c12.1,11.1,18.1,23.6,18.1,37.6c0,9.8-2.4,18.4-7.3,25.9
	c-5.8,8.9-13.6,13.3-23.5,13.3c-6,0-10.6-3.7-13.7-11c-2.4-5.4-3.7-11.5-3.7-18.1c0-7.5,1.8-14.3,5.4-20.5c4-6.8,9.5-11.5,16.4-14.1
	l-8.9-10c-5.3,3-9.4,6.9-12.4,12c0-6.9,1.9-13.3,5.8-19.1l-14.5-16.2l-14.7,16.2c3.9,5.8,5.8,12,5.8,18.5v0.6c-3-5-7-9-12.2-12
	l-9.1,10c6.9,2.6,12.4,7.3,16.4,14.1c3.6,6.2,5.4,13,5.4,20.5c0,6.7-1.2,12.7-3.5,18.1c-3.1,7.3-7.7,11-13.9,11
	c-9.9,0-17.7-4.4-23.4-13.3c-5-7.5-7.5-16.1-7.5-25.9c0-14,6.1-26.6,18.3-37.6c-12.6,6.6-22.7,15.7-30.4,27.3
	c-7.7,11.6-11.5,24-11.5,37.2c0,20.3,7.8,37.9,23.5,52.8c15.7,14.9,34.5,22.3,56.6,22.3s40.8-7.4,56.5-22.3
	c15.6-14.9,23.4-32.5,23.4-52.8C-29,388.7-32.8,376.3-40.5,364.6z"/>
</svg>
