<svg version="2.0" xmlns="http://www.w3.org/2000/svg" viewbox="0 0 256 256">
<g>
	<path d="M-60.2,395.8c-3.2-4-4-9.6-1.6-15.2c1.6-6.4,5.6-13.6,11.2-21.6c5.6-8,12.8-17.6,21.6-28.8c-11.2,8-20.8,15.2-28.8,20.8
		c-8.8,5.6-16,8.8-22.4,10.4c-6.4,1.6-12,0.8-16-3.2s-8-9.6-10.4-19.2c0,4.8-0.8,8.8-1.6,12c-0.8,3.2-1.6,6.4-2.4,8
		c-4-2.4-8-3.2-12-4.8s-8.8-1.6-13.6-1.6c-7.2,0-13.6,1.6-20.8,4c-7.2,2.4-12,6.4-16.8,11.2c-4.8,4.8-8.8,10.4-11.2,16.8
		c-3.2,6.4-4,13.6-4,20.8c0,7.2,1.6,14.4,4,20.8c3.2,6.4,6.4,12,11.2,16.8c4.8,4.8,10.4,8.8,16.8,11.2c6.4,2.4,13.6,4,20.8,4
		c5.6,0,11.2-0.8,16-2.4c4.8-1.6,9.6-4,14.4-7.2c2.4,4,4,8.8,5.6,15.2c0.8-9.6,2.4-16,5.6-20c2.4-4,6.4-6.4,10.4-6.4
		c4,0,8.8,0.8,14.4,3.2c5.6,2.4,10.4,5.6,16.8,8.8c-2.4-4-4-8-6.4-11.2c-2.4-3.2-3.2-7.2-4.8-9.6c-1.6-2.4-1.6-5.6-1.6-8
		c0-2.4,0.8-4.8,2.4-6.4c1.6-1.6,4.8-3.2,8-4.8c4-0.8,8.8-1.6,15.2-2.4C-50.6,403-57,399.8-60.2,395.8z M-106.6,443
		c-0.8,0.8-1.6,0.8-2.4,1.6l0,0c-4,3.2-8,4.8-12.8,6.4c-4.8,1.6-9.6,2.4-14.4,2.4h-0.8v-95.2h0.8c6.4,0,12.8,1.6,18.4,4
		c5.6,2.4,11.2,5.6,15.2,10.4c4,4,8,9.6,10.4,15.2c2.4,5.6,4,12,4,18.4c0,7.2-1.6,14.4-4,20c-3.2,6.4-7.2,11.2-12,16
		C-105.8,441.4-106.6,442.2-106.6,443z"/>
</g>
</svg>
