<?xml version="1.0" encoding="utf-8"?>
<!-- Generator: Adobe Illustrator 19.0.0, SVG Export Plug-In . SVG Version: 6.00 Build 0)  -->
<svg version="2.0" id="Layer_1" xmlns="http://www.w3.org/2000/svg" xmlns:xlink="http://www.w3.org/1999/xlink" x="0px" y="0px"
	 viewBox="-207 299 196 196" style="enable-background:new -207 299 196 196;" xml:space="preserve">
<path d="M-188.4,472.8c1-0.5,7.9-4,20.5-10.4c21.4-11.1,34.8-17.5,40.2-19.2c5.5-1.8,11.7-2.6,18.6-2.5c2.5,0,4.5,0.1,6.2,0.2
	c0.1-0.8,0.3-4.8,0.6-12.2c0.3-6.6,0.5-10,0.8-10.3c0.1-0.1,0.7-0.1,1.7,0.2c1.9,0.5,3.7,0.8,5.4,0.8c1,0.1,1.7,0.3,1.9,0.4
	c0.9,0.5,4.1,3.5,9.5,8.9l6.8,6.6l6.6-2.1c12.8-3.7,24.8-6.5,36.2-8.3c2.8-0.5,4.3-0.8,4.4-0.8l-4.8-2.1
	c-12.8-4.1-21.6-7.4-26.5-9.9c-4.3-2.2-6.8-3.9-7.7-5c-0.5-0.4-0.4-1.2,0.4-2.5c0.9-1.8,1.5-3.6,1.9-5.4c0.6-2.5,1-5.4,1.2-8.9
	c0.1-3.1,0.6-5.8,1.4-8.1c1.8-5.4,6.6-14.1,14.5-26.1c3.6-5.4,5.4-8.2,5.2-8.2c-0.1-0.1-2.1,0.9-5.8,3
	c-14.1,7.9-24.3,12.3-30.8,13.3c-2.2,0.3-4,0.3-5.4,0c-3.2-0.8-6-1.1-8.3-1c-3.4,0.3-6.3,0.8-8.9,1.5c-0.9,0.4-1.4,0.6-1.5,0.6
	c-0.4,0-1-1-1.9-2.9c-1.7-3.2-2.9-6.6-3.7-10.3c-2.1-8.8-3.6-18.4-4.6-29c-0.1-1.2-0.3-1.8-0.4-1.9c0-0.1-0.7,1.9-2.1,6
	c-4.3,12-9.7,24-16.3,36l-1.7,3.3l7,10.3l7,10.1v4.3c0,2.8-0.1,4.3-0.2,4.3l-10.8-0.4c-7.2-0.1-10.9-0.2-10.9-0.3
	c-0.1-0.1-0.2,0.9-0.3,3c0,2.6-0.3,4.8-0.8,6.8c-3.6,14.1-16.8,34.8-39.7,62.1c-3.2,4-5,6.1-5.2,6.4H-188.4z M-94.8,411.9
	c-7.7-0.9-13.3-4.9-16.8-12c-2.6-4.9-2.9-10.1-1-15.5c2.7-7.5,8.1-12.1,16.1-13.7c0.9-0.1,2.3-0.2,4.1-0.2c1.7,0,3,0.1,3.9,0.2
	c4.1,1,7.7,3,10.8,6c1.7,1.5,3,3.3,3.9,5.2c3.5,7,3,13.9-1.5,20.9c-3.5,5.2-8.4,8.1-14.9,8.9C-91.9,412-93.4,412-94.8,411.9z"/>
</svg>
