<?xml version="1.0" encoding="utf-8"?>
<!-- Generator: Adobe Illustrator 19.0.0, SVG Export Plug-In . SVG Version: 6.00 Build 0)  -->
<svg version="1.1" id="Layer_1" xmlns="http://www.w3.org/2000/svg" xmlns:xlink="http://www.w3.org/1999/xlink" x="0px" y="0px"
	 viewBox="-207 299 196 196" style="enable-background:new -207 299 196 196;" xml:space="preserve">
<g>
	<path d="M-107.4,337.6l14.3,30.1l24.6-16.6l-11.1,24.6l26.1,4l-16.6,8.7l12.7,8.7c0-1.6,0.8-3.2,0.8-4.8c0.8-1.6,0.8-3.2,0.8-4.8
		l16.6-9.5l-19-7.1c-1.6-4-3.2-7.9-5.5-11.1l7.1-23l-23,10.3c-1.6-0.8-4-1.6-6.3-2.4c-2.4,0-4.8-0.8-7.1-0.8l-20.6-26.9l-3.2,30.9
		c-0.8,0-1.6,0.8-3.2,1.6c-1.6,0.8-2.4,1.6-3.2,2.4l14.3,10.3L-107.4,337.6z M-115.3,452.4l-5.5-26.1l-14.3,10.3l7.1-17.4l-22.2,1.6
		l16.6-11.9l-23-7.9l12.7-2.4l-10.3-7.1c0,0.8,0,1.6,0,1.6v0.8l-20.6,7.1l19.8,5.5c0.8,0.8,0.8,2.4,0.8,3.2c0,0.8,0.8,2.4,0.8,3.2
		l-25.3,21.4l32.5-7.9c0.8,1.6,1.6,2.4,2.4,3.2c0.8,0.8,1.6,1.6,2.4,2.4l-4.8,19.8l17.4-11.1l5.5,1.6l5.5,34.9l14.3-34.9
		c2.4-0.8,4.8-1.6,7.1-2.4c2.4-0.8,4-1.6,6.3-3.2l6.3,1.6l-20.6-14.3L-115.3,452.4z M-185,343.1l76,57.8l76,37.2l-66.5-52.3
		L-185,343.1z"/>
</g>
</svg>
