<svg version="2.0" xmlns="http://www.w3.org/2000/svg" viewbox="0 0 256 256">
<g>
	<path d="M-84.8,375.8l-81.6,17l8.9,14.5l4.8,8.1l5.7,8.9l9.7,16.2L-84.8,375.8z M-54.1,328.1c-8.1-4.1-17.8-6.5-28.3-6.5
		s-21.8,1.5-33.1,4.8s-22.6,8.1-33.9,15.4c-8.9,5.7-16.1,12.1-22.6,18.6c-6.5,7.3-12.2,13.7-17,21c4-4.8,8.1-9.7,12.9-13.7
		c4.9-4,10.5-8.1,16.2-12.1c9.7-5.6,19.4-10.5,29.9-13.7c9.7-3.2,19.4-4,29.1-4c8.9,0,17.8,2.4,25.1,5.7s13.8,8.9,17.8,15.4
		c4.1,6.4,6.5,14.5,6.5,22.6s-2.5,16.2-5.7,25.1c-4.1,8.9-8.9,17-16.2,25.1c-6.5,8.1-15.4,15.3-25.1,21.8
		c-8.9,6.4-17.8,10.5-27.5,13.7c-9.7,3.2-18.6,4.8-27.5,4.8c11.4,0.8,22.6,0.1,35.6-3.2s25.1-8.1,37.2-16.2
		c11.3-7.2,20.2-15.3,28.3-24.2c8.1-9.7,13.8-18.6,17.8-28.3c4.1-9.7,5.7-19.4,5.7-28.3s-2.5-17.8-7.3-25.1
		C-41.1,338.7-47.6,333-54.1,328.1z"/>
</g>
</svg>
