<svg version="2.0" xmlns="http://www.w3.org/2000/svg" viewbox="0 0 256 256">
<g id="XMLID_1_">
	<path id="XMLID_3_" d="M-144.6,399.7c-3.1,8.7-12.1,16.7-13.8,16.5c-4.7-0.6,4.6-16.5-1.9-33.6c-5.1-13.3-15.3-17-13.5-21.6
		c2.9-7.4,28.6,4.6,45.9-8.2c13.5-10,11.8-27.6,19.3-28c8.4-0.5,9,21.9,26.2,30.9c16.5,8.6,34.7-2.3,37.9,3.8
		c3.2,6.3-17.2,15.5-18.4,32.8c-1.3,19.5,23,31.7,18.8,39.9c-4.2,8.1-27.8-4.8-45,7.6c-14.1,10.1-13.6,29.8-20.2,29.4
		c-6.7-0.3-7.1-18.6-20.8-29.5c-5.9-4.7-16.8-4.4-16.9-6.6c-0.1-1.7,3-3,6.8-5.1c2.9-1.6,6.9-5.1,9.3-3.1c4,3.4,5.8,10.1,8.5,10.7
		c2.2,0.5,7.7-7,14-7.6c6.2-0.5,9.3,5.3,12.8,3.6c3.3-1.5,0.8-8.7,5.7-13.5c4.6-4.5,11.5-0.4,14.2-4.1c2.9-3.9-4.2-9.3-4-18.9
		c0.2-12.3,12.2-18.9,9.7-22.9c-2.3-3.7-12.2,2.9-20.6-2.1c-8.1-4.9-7-16-12-16.5c-5-0.5-6.3,11.1-15.6,13.8
		c-7.3,2.1-12.9-3.3-15.9-0.2c-3.1,3.1,1.8,9.8-1.7,13.9c-2.6,3-6.5,0.9-9,3.9C-147.7,388.5-142.4,393.5-144.6,399.7z"/>
	<path id="XMLID_2_" d="M-108.7,379.5c4.4-2.4,15.4-5.7,18.9-1.5c3.5,4.1,0.3,15.6-6.1,20.6c-4.5,3.5-10.3,6.4-27.5,15.5
		c-5,2.7-32.3,17.6-42.2,23.7c-0.9,0.6-3.7,2.2-5,1.4c-1.2-0.7-0.7-3.6-0.1-4.3c7-7.7,19.2-12.8,34.9-30.9c0,0,0,0,0,0
		C-125.7,392.4-114.4,382.8-108.7,379.5z"/>
</g>
<path d="M-262.7,683.8"/>
</svg>
