<?xml version="1.0" encoding="utf-8"?>
<!-- Generator: Adobe Illustrator 19.0.0, SVG Export Plug-In . SVG Version: 6.00 Build 0)  -->
<svg version="1.1" id="Layer_1" xmlns="http://www.w3.org/2000/svg" xmlns:xlink="http://www.w3.org/1999/xlink" x="0px" y="0px"
	 viewBox="-207 299 196 196" style="enable-background:new -207 299 196 196;" xml:space="preserve">
<path d="M-135.8,443.8c0.7-0.2,2.6,1,2.6,1c3.7,1.8,6.7,3.1,8.9,3.8c9,2.9,18.1,3,27.3,0.4c2.9-0.8,6.4-2.1,10.5-4
	c2-0.9,3-1.4,3.2-1.4c0.3,0,3.6,2.7,10.5,8.1c11.6,9.4,17.5,14,17.6,14c0.1-0.1-1.3-3.7-4.2-10.8c-4.6-11.9-7.3-18.8-8.1-20.8
	c0,0-1.5-3.6-1.4-4c0.1-0.5,1.8-3,1.8-3c1.2-2,2-3.4,2.6-4.4c1.5-2.8,2.8-5.9,4-9.5c0.3-0.5,0.6-1,1-1.4c2.1-2.2,7.5-5.1,16-8.7
	c2.6-1.2,5.5-2.3,8.5-3.4l6.1-2.6l-1.8-0.8c-4.8-2.3-6.1-3-12.6-6.7c-11.8-7-12.7-7.4-15.3-9c-0.3-0.2-1.2-1.5-2.4-4.2
	c-2.8-5.4-5-9.6-6.7-12.5l-1-1.8c2.5-8.1,4.6-13.8,6.1-17.2l7.3-16c-1.7,1.2-2.7,1.9-3,2.2c-2.6,2.4-4.2,3.6-4.8,3.8
	c-0.1,0-3,2.2-8.5,6.5l-9.9,8.1l-1.6-1c-1.2-0.8-3.2-1.9-6.1-3.4c-9.2-4.4-19.1-5.6-29.5-3.8c-6.1,1.2-11.7,3.3-16.8,6.3
	c-1.6,0.9-2.7,1.1-3.4,0.6c-2.5-1.7-10.2-7.8-23-18.2l-2.2-1.8v0.9c0.1,0.1,0.8,1.7,2,4.6c5.3,12.8,8.8,21.9,10.5,27.3l0.2,0.8
	l-0.4,1c-0.3,0.4-0.8,1.4-1.6,3c-2.4,4-4.3,8.1-5.7,12.3c-0.8,2.2-1.5,3.7-2.2,4.4c-1.3,1.3-4.4,3.4-9.3,6.1
	c-4.9,2.6-10.2,5.2-16,7.7c-1.5,0.5-2.2,0.9-2.4,1c0,0.3,2.2,1.1,6.5,2.6c5.5,1.8,9.9,3.5,13.1,5c4.4,2,7.3,4,8.9,5.9
	c0.7,0.8,1.2,1.9,1.6,3.4c1.9,4.7,2.6,7,5.5,11.4c0.9,1.7,2.9,4.2,3,4.9c0.1,0.7-2.7,7.9-8.1,21.8c-3.4,8.8-5.1,13.3-5.1,13.5
	c0.1,0,4.6-3.6,13.5-10.7C-150.1,455.1-136.5,444-135.8,443.8z M-107.6,345.9c1.5,0.3,2.7,0.7,3.8,1.4c0.8,0.7,1.3,2.2,1.6,4.6
	c0.3,2,0.1,9.7,0.2,44.1c0.1,18.5,0,41.8-0.8,43.5c-0.6,1.3-1.5,2.1-2.6,2.8c-1.1,0.5-2.2,0.8-3.4,0.8c-1.3,0-2.5-0.3-3.6-0.8
	c-1.3-0.8-2.2-1.7-2.6-2.8c-0.1-0.4-0.3-0.9-0.4-1.6c-0.3-2.5-0.4-17-0.4-43.4c0-26.5,0.1-41.1,0.4-43.6c0.1-1.2,0.7-2.2,1.6-3.2
	C-112.2,346-110.1,345.4-107.6,345.9z M-124.4,355.8c1.1,0.3,2,0.8,2.8,1.6c0.7,0.7,1.1,2.8,1.4,6.3v24v31.9
	c-0.1,7.1-0.3,11.2-0.6,12.1s-0.9,1.7-2,2.4c-2,1.2-4,1.2-6.1,0c-0.8-0.5-1.5-1.2-2-2c-0.7-1.5-1-13.7-1-36.8
	c0-18.1,0.2-30.5,0.6-34.9c0.1-1.3,0.6-2.3,1.4-3C-128.5,355.8-126.7,355.3-124.4,355.8z M-89.8,355.8c0.8,0.1,1.6,0.5,2.4,1.2
	c0.9,0.7,1.5,2.3,1.8,5c0.1,1.2,0.2,11.4,0.2,30.7s-0.1,30.4-0.2,33.5c-0.1,3.8-0.6,6.1-1.4,6.9c-2,2.1-4.3,2.5-6.9,1.2
	c-1.1-0.5-1.8-1.3-2.2-2.2c-0.4-0.8-0.7-4.9-1-12.3v-24.6v-24.6c0.3-7.4,0.6-11.4,1-12.1C-94.8,356-92.7,355-89.8,355.8z
	 M-142.1,374c2.2,0.4,3.8,1.5,4.8,3.2c0.5,1.1,0.6,2.6,0.6,5.1c0,6.2,0.1,11.7,0.2,16c0.1,6.5,0,10.7-0.2,14.2
	c-0.1,1.2-0.7,2.3-1.8,3.4c-1.7,1.6-3.6,2.3-5.5,2.2c-2.1-0.1-4-1.1-5.5-2.8c-0.4-0.5-0.7-1.7-1-3.6c-0.4-3.8-0.7-9.5-0.8-17
	c-0.1-7.7-0.1-12.5,0.2-14.5c0.3-1.7,1-3.1,2.2-4.2C-146.9,374.1-144.6,373.4-142.1,374z M-71.8,374.2c1.2,0.3,2.2,0.9,3.2,1.8
	c1.1,0.9,1.7,3.6,1.8,7.9c0.1,2.2,0.1,7.3,0,15.2c0,8.1-0.1,12.5-0.2,13.3c-0.1,1.2-0.7,2.3-1.8,3.4c-2.6,2.6-5.5,3.2-8.7,1.6
	c-1.5-0.7-2.4-1.5-3-2.6c-0.7-1.2-0.7-6.6-0.8-16.5c0.2-10.3-0.2-15.7,0.5-18.6c0.7-3.3,2.3-5.1,5.4-5.7
	C-74.2,373.7-73,373.8-71.8,374.2z"/>
</svg>
