<?xml version="1.0" encoding="utf-8"?>
<!-- Generator: Adobe Illustrator 19.0.0, SVG Export Plug-In . SVG Version: 6.00 Build 0)  -->
<svg version="2.0" id="Layer_1" xmlns="http://www.w3.org/2000/svg" xmlns:xlink="http://www.w3.org/1999/xlink" x="0px" y="0px"
	 viewBox="-207 299 196 196" style="enable-background:new -207 299 196 196;" xml:space="preserve">
<path id="XMLID_19_" d="M-28.1,397.9c0,3.2-22.5,4-24.5,11.9c-2,7.6,16.7,18.5,15.3,21.8c-1.1,2.1-21.6-3.7-28.8,4.2
	c-6.5,7.2-1.4,23.4-3.4,25c-2.4,1.9-16.5-10-26.2-6.2c-9.4,3.6-11.9,21.2-14.2,21.2c-3.9,0-3.5-19.5-14-21.9
	c-8.8-2-21.1,14.6-23.6,13.5c-2.9-1.3,4.6-13.9,0-21.7c-6.4-10.8-34-8.3-34.8-10.7c-0.7-2.5,18.1-17.6,15.6-26
	c-2.6-8.5-23.3-9.6-23.3-12.2c0-3.4,23.7-1.1,24.7-10.5c0.9-9-22.7-35.5-19.4-38.9c2.6-2.7,24.4,22.3,29.6,17
	c6.1-6.2-23.1-30.1-19.6-33.4c3.4-3.2,28.9,20.1,34.8,15.4c6.6-5.3-13-14.5-8.5-17.9c3.7-3.7,21.8,12.8,26.9,10.2
	c8.1-3.6,9.7-20.5,12.6-20.5c1.6-0.1,7.4,20.4,16.6,21.9c8.6,1.5,18.4-14.3,21.3-13c3.3,1.3-1.1,23.5,7.4,29
	c7.4,4.8,22-5.1,23.3-2.9c1.5,2.2-16.4,17-13.4,27.9C-50.8,391.8-28,394.5-28.1,397.9z M-57.8,365.4c-1.8-1.8-10.8-2.5-12.4-4.4
	c-3-3.5-4.9-15-8.4-16.8c-2.2-1.1-8.4,4-18.6,1.1c-3.5-1-10.2-6.4-12.8-6.7c-5.3-0.6-8.3,5-3.4,9.4c8.6,7.8,27.5,15.8,26.7,21.3
	c-0.3,2.5-1.2,4.7-4.2,4.4c-3.5-0.3-7.3-0.5-22.1-12.8c-9.9-8-15.3-13.2-19-11.5c-1.4,0.6-2.1,2-2.3,2.3c-1.9,3.8,1.5,7.8,3,9.6
	c4.7,5.9,35.6,29.3,44.7,37.7c7,6.5,12.4,18.7,7.8,22.2c-5,3.8-15.5-5.8-18.4-8c-3.2-2.5-33.3-33.8-37.5-37.5
	c-1.6-1.4-13.8-8.1-15.9-5.6c-4.9,5.8,43.4,43.6,34.8,51.8c-11.8,11.3-22.3-25.5-39.3-27.4c-1.4-0.2-8.2-0.9-9.6,1.9
	c-1.6,3.3,5.2,5.2,6.1,13.3c0.7,6.3-5.5,14.6-3.8,17.4c1.7,2.7,9.9,0.8,13.9,3.7c8,6,7.8,16.5,10.8,17.7c3.4,1.3,9-5.1,15.9-3.3
	c7.2,1.8,9.5,10.8,12.8,10.8c2.6,0,6.8-9.4,15.1-11.7c7.3-2,14.6,4.5,17.4,2.9c3.8-2.1,2.5-12.5,7.7-18.3c4.2-4.7,7.6-2.9,9.9-7.3
	c3.1-5.9-2.7-11.5-0.6-17.2c1.9-5,9.2-4.5,9.9-7.7c0.7-2.9-10.9-7.8-12.3-16.2C-62.9,373.8-55.9,367.4-57.8,365.4z"/>
</svg>
