<?xml version="1.0" encoding="utf-8"?>
<!-- Generator: Adobe Illustrator 19.0.0, SVG Export Plug-In . SVG Version: 6.00 Build 0)  -->
<svg version="2.0" id="Layer_1" xmlns="http://www.w3.org/2000/svg" xmlns:xlink="http://www.w3.org/1999/xlink" x="0px" y="0px"
	 viewBox="-207 299 196 196" style="enable-background:new -207 299 196 196;" xml:space="preserve">
<path d="M-39,343.6c-10.1-1.2-21.4-2.1-33.6-2.7c-12.3-0.6-25.2-1-38.9-1c-12.4,0-24.2,0.3-35.5,0.8c-11.3,0.5-21.8,1.3-31.4,2.2
	l-10.6,10.8v89.3l10.3,10.3c9.6-1,20.1-1.7,31.5-2.2c11.4-0.5,23.3-0.8,35.8-0.8c13.5,0,26.3,0.3,38.4,1c12.1,0.6,23.2,1.5,33.3,2.7
	l10.8-10.9v-89.3L-39,343.6z M-42.6,374.1v35.4v9.4l-19.2,19.5c-7.8-0.5-15.9-0.9-24.2-1.2s-16.8-0.4-25.5-0.4
	c-7.7,0-15.3,0.1-22.8,0.3c-7.5,0.2-14.9,0.5-22,1l-19.2-19.2v-9.4v-35.4v-9.5l19.3-19.2c7.1-0.5,14.4-0.9,21.8-1.1
	s15.1-0.3,22.9-0.3c8.8,0,17.4,0.2,25.8,0.5s16.5,0.7,24.3,1.3l18.7,18.9V374.1z M-132.5,347.5c-6.8,0.2-13.7,0.4-20.5,0.9l-17,17
	v40.9l0.2,0.2v0.8l16.7,16.8c6.9-0.4,13.7-0.7,20.6-0.9s13.9-0.2,21.1-0.2c16.1,0,31.5,0.5,46.3,1.4l17.1-17.1v-0.8l0.2-0.2v-40.9
	l-16.8-16.7c-14.8-1-30.4-1.4-46.8-1.4C-118.6,347.3-125.7,347.4-132.5,347.5z"/>
</svg>
