<?xml version="1.0" encoding="utf-8"?>
<!-- Generator: Adobe Illustrator 19.0.0, SVG Export Plug-In . SVG Version: 6.00 Build 0)  -->
<svg version="1.1" id="Layer_1" xmlns="http://www.w3.org/2000/svg" xmlns:xlink="http://www.w3.org/1999/xlink" x="0px" y="0px"
	 viewBox="-207 299 196 196" style="enable-background:new -207 299 196 196;" xml:space="preserve">
<g>
	<path d="M-162.5,382.1l-1.6,7.2l-0.8,8.8l0.8,8.8l2.4,8l3.2,7.2l4,7.2l6.4,7.2l8,6.4l8,4.8l8,3.2l7.2,1.6l3.2,24.1l9.6-23.3
		l8.8-1.6l8-3.2l7.2-3.2l5.6-4l4.8-4.8l12.1,4.8l-6.4-11.3l3.2-5.6l3.2-6.4l1.6-4.8l0.8-4.8l0.8-3.2l18.5-4l-17.7-6.4l-0.8-6.4
		l-2.4-8.8l-4.8-10.5l-6.4-8l-7.2-6.4l-7.2-4.8l-9.6-4l-8-1.6l-4.8-0.8h-4l-13.7-26.5l2.4,28.1l-9.6,3.2l-8,4l-8,6.4l-6.4,7.2
		l-4,6.4l-2.4,4l-24.1-4.8L-162.5,382.1z M-125.5,353.2l4.8-1.6l0.8,9.6l-4.8,2.4l-10.5-5.6l3.2-2.4L-125.5,353.2z M-144.8,367.7
		l3.2-3.2l2.4-2.4l4.8,12.1l-2.4,3.2l-2.4,3.2l-12.1-2.4l2.4-4.8L-144.8,367.7z M-155.2,392.6l0.8-5.6l11.3,6.4v6.4l-11.3,5.6
		l-0.8-5.6V392.6z M-71.6,412.7l0.8-6.4l8-1.6l-0.8,5.6l-2.4,5.6l-2.4,5.6l-3.2-5.6L-71.6,412.7z M-92.5,433.6l4.8-1.6l3.2-2.4
		l7.2,3.2l-4.8,4l-5.6,4l-5.6,1.6l-5.6,1.6l2.4-8L-92.5,433.6z M-65.2,397.4l-23.3,5.6l11.3,20.1l-23.3-12.1l-8.8,28.1l-2.4-20.9
		l-12.9,12.1l3.2,1.6l2.4,0.8l0.8,10.5l-5.6-1.6l-5.6-2.4l-5.6-3.2l-4-3.2l67.5-62.7l3.2,4.8l2.4,4l1.6,5.6l0.8,5.6l-6.4-2.4l-0.8-4
		l-1.6-4l-9.6,11.3L-65.2,397.4z M-140.8,414.3l7.2-7.2l-6.4-2.4l14.5-9.6l-16.1-8l20.1-0.8l-8-16.9l16.1,8l-0.8-21.7l11.3,20.1
		l13.7-11.3l-0.8-0.8l-3.2-1.6l-5.6-1.6l-4-0.8l-4-8l8,0.8l7.2,2.4l5.6,2.4l4.8,3.2l4,4l-68.3,63.5l-3.2-4l-3.2-5.6l-1.6-4l-0.8-4
		l12.9,2.4L-140.8,414.3z"/>
</g>
</svg>
