<?xml version="1.0" encoding="utf-8"?>
<!-- Generator: Adobe Illustrator 19.0.0, SVG Export Plug-In . SVG Version: 6.00 Build 0)  -->
<svg version="2.0" id="Layer_1" xmlns="http://www.w3.org/2000/svg" xmlns:xlink="http://www.w3.org/1999/xlink" x="0px" y="0px"
	 viewBox="-207 299 196 196" style="enable-background:new -207 299 196 196;" xml:space="preserve">
<g>
	<path d="M-140.2,323.4c-9.6,4-18.4,9.6-25.6,16.8c-7.2,7.2-12.8,16-16.8,25.6s-6.4,20-6.4,31.2s2.4,21.6,6.4,31.2
		c4,9.6,9.6,18.4,16.8,25.6c7.2,7.2,16,12.8,25.6,16.8s20,6.4,31.2,6.4s21.6-2.4,31.2-6.4c9.6-4,18.4-9.6,25.6-16.8
		c7.2-7.2,12.8-16,16.8-25.6s6.4-20,6.4-31.2s-2.4-21.6-6.4-31.2s-9.6-18.4-16.8-25.6c-7.2-7.2-16-12.8-25.6-16.8s-20-6.4-31.2-6.4
		S-130.6,319.4-140.2,323.4z M-172.2,369.8c4-8,8.8-16,14.4-21.6s13.6-11.2,21.6-14.4c8-4,17.6-5.6,26.4-5.6s18.4,1.6,27.2,5.6
		s16,8.8,21.6,14.4s11.2,13.6,14.4,21.6c4,8,5.6,17.6,5.6,27.2c0,1.6,0,4,0,5.6s0,3.2-0.8,5.6c-2.4,0.8-5.6,1.6-10.4,2.4
		s-8.8,1.6-14.4,2.4c-4.8,0.8-10.4,0.8-15.2,1.6c-4.8,0-8.8,0-12.8-1.6s-5.6-3.2-6.4-5.6c-0.8-2.4,0-6.4,2.4-11.2l17.6,4l-23.2-41.6
		l-48,20.8l17.6,5.6c-5.6,8.8-8.8,17.6-8,27.2c0,4,0.8,8,2.4,12.8c1.6,4.8,4,8.8,7.2,13.6s8,8.8,13.6,13.6S-106.6,461-97,465
		c-2.4,0.8-4.8,0.8-6.4,0.8c-2.4,0-4.8,0-7.2,0c-9.6,0-18.4-1.6-26.4-5.6s-16-8.8-21.6-14.4c-6.4-6.4-11.2-13.6-14.4-21.6
		c-4-8-5.6-17.6-5.6-27.2S-176.2,378.6-172.2,369.8z"/>
</g>
</svg>
