<?xml version="1.0" encoding="utf-8"?>
<!-- Generator: Adobe Illustrator 19.0.0, SVG Export Plug-In . SVG Version: 6.00 Build 0)  -->
<svg version="1.1" id="Layer_1" xmlns="http://www.w3.org/2000/svg" xmlns:xlink="http://www.w3.org/1999/xlink" x="0px" y="0px"
	 viewBox="-207 299 196 196" style="enable-background:new -207 299 196 196;" xml:space="preserve">
<g>
	<path d="M-109,477c11.2,0,21.6-2.4,31.2-6.4s18.4-9.6,25.6-16.8c7.2-7.2,12.8-16,16.8-25.6s6.4-20,6.4-31.2s-2.4-21.6-6.4-31.2
		c-4-9.6-9.6-18.4-16.8-25.6c-7.2-7.2-16-12.8-25.6-16.8s-20-6.4-31.2-6.4s-21.6,2.4-31.2,6.4c-9.6,4-18.4,9.6-25.6,16.8
		c-7.2,7.2-12.8,16-16.8,25.6s-6.4,20-6.4,31.2s2.4,21.6,6.4,31.2s9.6,18.4,16.8,25.6c7.2,7.2,16,12.8,25.6,16.8
		C-130.6,474.6-120.2,477-109,477z M-126.6,463.4L-126.6,463.4L-126.6,463.4L-126.6,463.4z M-177.8,397c0-10.4,2.4-20.8,6.4-29.6
		s10.4-16.8,18.4-23.2h0.8c7.2,0.8,13.6,2.4,20,5.6c6.4,3.2,11.2,7.2,16,12.8s8,12,10.4,18.4s2.4,13.6,2.4,20.8
		c-0.8,6.4-2.4,12.8-4.8,18.4c-2.4,5.6-6.4,10.4-10.4,15.2c-4,4-9.6,8-15.2,10.4c-5.6,2.4-12,4-18.4,4.8c-8-6.4-13.6-14.4-18.4-23.2
		C-175.4,417.8-177.8,407.4-177.8,397z M-109,328.2c9.6,0,18.4,1.6,27.2,5.6s16,8.8,21.6,14.4c6.4,6.4,11.2,13.6,14.4,21.6
		s5.6,17.6,5.6,27.2s-1.6,18.4-5.6,27.2s-8.8,16-14.4,21.6c-6.4,6.4-13.6,11.2-21.6,14.4c-8.8,4-17.6,5.6-27.2,5.6h-1.6
		c0.8-0.8,2.4-1.6,3.2-2.4c0.8-0.8,2.4-1.6,3.2-2.4l-6.4-8c2.4-1.6,4.8-4,7.2-6.4s4-4.8,6.4-7.2l8,5.6c2.4-3.2,4-6.4,5.6-9.6
		c1.6-3.2,3.2-6.4,4-9.6l-8.8-3.2c0.8-3.2,1.6-6.4,2.4-9.6s0.8-6.4,1.6-9.6l10.4,0.8v-0.8c0-0.8,0-2.4,0-3.2c0-1.6,0-2.4,0-3.2
		c0-2.4,0-4.8,0-7.2s-0.8-4.8-0.8-7.2l-10.4,1.6c0-3.2-0.8-6.4-2.4-9.6c-0.8-3.2-2.4-6.4-3.2-8.8l8.8-4c-1.6-3.2-3.2-6.4-5.6-9.6
		c-1.6-3.2-4-5.6-6.4-8.8l-7.2,6.4l0,0c-2.4-2.4-4-4.8-6.4-7.2s-4.8-4-7.2-5.6L-109,328.2L-109,328.2L-109,328.2z"/>
</g>
</svg>
