<?xml version="1.0" encoding="utf-8"?>
<!-- Generator: Adobe Illustrator 19.0.0, SVG Export Plug-In . SVG Version: 6.00 Build 0)  -->
<svg version="2.0" id="Layer_1" xmlns="http://www.w3.org/2000/svg" xmlns:xlink="http://www.w3.org/1999/xlink" x="0px" y="0px"
	 viewBox="-207 299 196 196" style="enable-background:new -207 299 196 196;" xml:space="preserve">
<g>
	<path d="M-141.4,374.6l10.4,13.6l8.8-40.8l-34.4,23.2L-141.4,374.6z M-84.6,386.6l12.8-40l-37.6,20l16,5.6L-84.6,386.6z
		 M-83.8,431.4l11.2,12.8l4-41.6l-32,27.2L-83.8,431.4z M-139.8,323.4c-9.6,4-18.4,9.6-25.6,16.8c-7.2,7.2-12.8,16-17.6,25.6
		c-4,9.6-6.4,20-6.4,31.2s2.4,21.6,6.4,31.2c4,9.6,9.6,18.4,17.6,25.6c7.2,7.2,16,12.8,25.6,16.8s20,6.4,31.2,6.4s21.6-2.4,31.2-6.4
		c9.6-4,18.4-9.6,25.6-16.8c7.2-7.2,12.8-16,16.8-25.6s6.4-20,6.4-31.2s-2.4-21.6-6.4-31.2c-4-9.6-9.6-18.4-16.8-25.6
		c-7.2-7.2-16-12.8-25.6-16.8s-20-6.4-31.2-6.4S-130.2,319.4-139.8,323.4z M-86.2,451.4c0.8-4,2.4-8,3.2-11.2l-4-4.8h-4.8
		c-1.6,4.8-4,9.6-5.6,14.4c-1.6,5.6-3.2,10.4-4.8,16h-7.2c-3.2,0-6.4,0-9.6-0.8c-3.2,0-6.4-0.8-9.6-2.4c4-18.4,8.8-33.6,15.2-48
		c6.4-13.6,12.8-25.6,20-35.2l-2.4-4l-6.4-1.6c-4,4.8-7.2,9.6-11.2,16c-4,5.6-7.2,12-11.2,19.2s-7.2,14.4-10.4,22.4
		s-6.4,16.8-8,25.6c-7.2-4-12.8-9.6-18.4-16c2.4-11.2,5.6-21.6,9.6-32c4-9.6,7.2-18.4,12-26.4l-3.2-5.6l-4-0.8
		c-4,6.4-8,14.4-12,22.4s-8,16.8-11.2,26.4c-1.6-4-3.2-8.8-4-13.6s-1.6-9.6-1.6-14.4c0-9.6,1.6-18.4,5.6-26.4
		c3.2-8,8.8-15.2,14.4-21.6c6.4-6.4,13.6-11.2,21.6-14.4s17.6-5.6,27.2-5.6c9.6,0,18.4,1.6,27.2,5.6c8,3.2,16,8.8,21.6,14.4
		s11.2,13.6,14.4,21.6c4,8,5.6,16.8,5.6,26.4c0,8-1.6,15.2-4,22.4s-5.6,13.6-10.4,19.2s-9.6,10.4-15.2,15.2
		c-5.6,4-12.8,7.2-19.2,9.6C-87.8,458.6-87,455.4-86.2,451.4z"/>
</g>
</svg>
