<svg version="2.0" xmlns="http://www.w3.org/2000/svg" viewbox="0 0 256 256">
<g>
	<path d="M-54.6,418.2c0.8-4.8,1.6-8.8,1.6-12.8c0-6.4-1.6-12-3.2-17.6c-1.6-5.6-4-10.4-8-15.2c-4-4.8-8-8.8-12.8-12
		c-4.8-4-10.4-6.4-16-8l8.8-22.4h-49.6l8.8,22.4c-5.6,1.6-11.2,4-16,7.2s-9.6,8-12.8,12s-5.6,9.6-8,15.2s-3.2,11.2-3.2,17.6
		c0,4,0.8,8,1.6,12.8l-25.6,4.8l26.4,41.6l14.4-19.2c4.8,5.6,11.2,8.8,17.6,12c7.2,2.4,14.4,4,21.6,4c8,0,15.2-1.6,21.6-4
		c6.4-3.2,12-7.2,17.6-12l13.6,19.2l27.2-41.6L-54.6,418.2z M-93.8,410.2l15.2,22.4c-4,4-8,7.2-13.6,9.6c-4.8,2.4-10.4,4-16.8,4
		s-12-1.6-16.8-4c-5.6-2.4-9.6-5.6-13.6-9.6l16-22.4L-149,415c-0.8-3.2-0.8-6.4-0.8-10.4c0-4.8,0.8-9.6,2.4-13.6
		c1.6-4.8,4-8.8,6.4-12s5.5-6.5,9.5-8.9c3.2-2.4,7.3-4.7,12.1-5.5l10.4,25.6l10.4-25.6c4,1.6,8,3.2,12,5.6s7.2,5.6,9.6,8.8
		c2.4,3.2,4.8,7.2,6.4,11.2c1.6,4.8,2.4,8.8,2.4,13.6c0,2.4-0.4,3.9-0.6,5.4c-0.2,1.6-0.7,3.3-1,5L-93.8,410.2z"/>
</g>
</svg>
