<svg version="2.0"  xmlns="http://www.w3.org/2000/svg" viewbox="-207 299 196 196">
<style type="text/css">
	.st0{fill:none;stroke:#03AF00;stroke-width:64;stroke-miterlimit:10;}
	.st1{fill:none;stroke:#000000;stroke-miterlimit:10;}
</style>
<path class="st0" d="M-212.2,436.3"/>
<path class="st0" d="M-84,368.7"/>
<g id="XMLID_1_">
	<path id="XMLID_2_" d="M-39.3,345.5c10.7,3,10.7,3,8.4,14.3c-4.6,23.2-6.5,30-11.8,56.2c-0.8,4-1.4,4.7-3.2,5.1
		c-1.4,0.3-2.9-1.8-4.6-4.1c-0.7-1-4.4-6.9-8.1-10.7c-1.1-1.1-2.4-2.4-4.4-2.9c-3.6-1-6.1,0-9.4,1.5c-5.3,2.4-5.9,3-10.7-4
		c-7.9-11.6-16.8-25.6-27.6-42c-2-3-2-6.3,1.1-8.5c5.6-4,5.3-3.4,2.2-10.6c-1.4-3.3-3.3-5.3-2.3-6.9s4.2-1.5,6.9-1.1L-39.3,345.5z"
		/>
	<path id="XMLID_5_" d="M-164.1,385.1c-1.5-5.4-1.5-5.4,5.2-9.2c6.5-3.2,7.9-4.7,10.5,0.8c17.5,36.5,21,43.3,24.2,49.5
		c2.5,4.8,2.5,4.8-6.1,9.5c-8.3,4.5-8.5,4.5-16-11.4L-164.1,385.1z"/>
	<path id="XMLID_6_" d="M-185.8,401.4c-0.1-5.6-0.1-11.4,2-11.4c1.6,0,2.9,4,3.6,6.4l13.8,48.1c2.3,8.4,2.2,7.8-5,11.6
		c-2.4,1.3-4.9,2.3-7.2,3.4c-9.5,4.7-9.5,4.7-9.8-5.7L-185.8,401.4z"/>
	<path id="XMLID_3_" d="M-93.6,410.4c2.3,4.4,1.8,5.3-3.1,8.3c-4.7,2.9-5.2,4-9.9-3.6c-10.2-18.7-16.2-30.6-26.4-49.3
		c-1.8-3.2,0.3-3.7,2.4-4.9c3.8-2.2,4.1-0.8,6.2,2.1L-93.6,410.4z"/>
</g>
<path class="st1" d="M-193.8,393.6"/>
<path class="st1" d="M-106,341.4"/>
<path class="st1" d="M-161.2,452.4"/>
<path class="st1" d="M-73.4,400.2"/>
</svg>
