<svg version="2.0"  xmlns="http://www.w3.org/2000/svg" viewbox="-207 299 196 196">
<g>
	<path d="M-69.4,439.4c-2.4-5.5-4-11.1-4-15.1s2.4-7.9,7.1-10.3c4-2.4,11.9-4,23-4.8c-10.3-3.2-17.4-7.1-21.4-11.9
		c-3.2-4.8-4-11.1-2.4-18.2c1.6-7.1,5.5-15.8,12.7-25.3c7.1-9.5,15.8-20.6,25.3-33.3c-12.7,9.5-23.8,17.4-33.3,23.8
		c-10.3,6.3-19,10.3-26.1,11.9c-7.9,1.6-14.3,0.8-19-3.2c-5.5-4-9.5-11.1-11.9-22.2c-0.8,10.3-2.4,19-4.8,23.8
		c-2.4,4.8-5.5,7.9-9.5,8.7c-4,0.8-8.7,0-14.3-2.4c-5.5-2.4-11.9-5.5-18.2-9.5c4,6.3,7.1,12.7,9.5,18.2s3.2,10.3,2.4,14.3
		s-4,7.9-8.7,10.3c-4.8,3.2-12.7,4.8-23,5.5c10.3,3.2,17.4,5.5,21.4,9.5c4,3.2,6.3,7.9,4.8,13.5c-1.6,5.5-4,11.9-9.5,19.8
		c-4.8,7.1-11.9,16.6-19.8,27.7c11.1-7.9,20.6-14.3,28.5-19c7.9-4.8,15.8-6.3,21.4-7.1c5.5-0.8,11.1,1.6,15.1,6.3
		c4,4.8,7.9,11.9,10.3,23c0.8-10.3,3.2-18.2,6.3-23c3.2-4.8,7.1-7.1,11.9-7.9c4.8-0.8,9.5,0,15.8,3.2c6.3,2.4,12.7,6.3,19,10.3
		C-64.6,448.9-67.8,443.3-69.4,439.4z"/>
</g>
</svg>
