<svg version="2.0"  xmlns="http://www.w3.org/2000/svg" viewbox="-207 299 196 196">
<path d="M-109.3,326.2c-7.5,0-14.7-0.8-21.8-2.5c-6.7-1.7-13.4-3.8-20.1-6.7c5.9,4.2,10.9,8.8,15.9,14.2c4.6,5,8.8,10.9,12.6,17.2
	c3.4,6.3,6.3,12.6,8.8,19.7c2.5,6.7,3.8,14.2,4.6,21.4c0.8-7.1,2.1-14.2,4.6-21.4c2.1-7.1,5.4-13.8,8.8-19.7
	c3.8-6.3,8-11.7,12.6-17.2c5-5.4,10.1-10.1,15.9-14.2c-6.3,2.9-13,5-20.1,6.7C-94.6,325-101.7,325.8-109.3,326.2z"/>
<path d="M-108.7,413.8c-7.5,0-14.7-0.8-21.8-2.5c-6.7-1.7-13.4-3.8-20.1-6.7c5.9,4.2,10.9,8.8,15.9,14.2c4.6,5,8.8,10.9,12.6,17.2
	c3.4,6.3,6.3,12.6,8.8,19.7c2.5,6.7,3.8,14.2,4.6,21.4c0.8-7.1,2.1-14.2,4.6-21.4c2.1-7.1,5.4-13.8,8.8-19.7
	c3.8-6.3,8-11.7,12.6-17.2c5-5.4,10.1-10.1,15.9-14.2c-6.3,2.9-13,5-20.1,6.7C-94.1,412.5-101.2,413.3-108.7,413.8z"/>
</svg>
