<?xml version="1.0" encoding="utf-8"?>
<!-- Generator: Adobe Illustrator 19.0.0, SVG Export Plug-In . SVG Version: 6.00 Build 0)  -->
<svg version="2.0" id="Layer_1" xmlns="http://www.w3.org/2000/svg" xmlns:xlink="http://www.w3.org/1999/xlink" x="0px" y="0px"
	 viewBox="-207 299 196 196" style="enable-background:new -207 299 196 196;" xml:space="preserve">
<path d="M-109,345.4c-14.4,0-28-1.6-41.6-4.8c-12.8-3.2-25.6-7.2-38.4-12.8c11.2,8,20.8,16.8,30.4,27.2c8.8,9.6,16.8,20.8,24,32.8
	c6.4,12,12,24,16.8,37.6c4.8,12.8,7.2,27.2,8.8,40.8c1.6-13.6,4-27.2,8.8-40.8c4-13.6,10.4-26.4,16.8-37.6c7.2-12,15.2-22.4,24-32.8
	c9.6-10.4,19.2-19.2,30.4-27.2c-12,5.6-24.8,9.6-38.4,12.8C-81,343-94.6,344.6-109,345.4z"/>
</svg>
