<?xml version="1.0" encoding="utf-8"?>
<!-- Generator: Adobe Illustrator 19.0.0, SVG Export Plug-In . SVG Version: 6.00 Build 0)  -->
<svg version="2.0" id="Layer_1" xmlns="http://www.w3.org/2000/svg" xmlns:xlink="http://www.w3.org/1999/xlink" x="0px" y="0px"
	 viewBox="-207 299 196 196" style="enable-background:new -207 299 196 196;" xml:space="preserve">
<path d="M-119.3,373.5l-66.1-31.8l47,51.7l-43,22.3l43.8,7.2l-8.8,54.1l40.6-41.4l38.2,38.2l-8-51.7l43-7.2l-38.2-23.1l27.1-38.2
	l-45.4,11.9l-17.5-48.6L-119.3,373.5z M-128.1,438.8l4.8-27.1l-22.3-3.2l24.7-13.5l-19.1-20.7l27.9,13.5l7.2-29.5l8,21.5l23.9-6.4
	L-88.3,395l21.5,12.7l-23.1,4l4,26.3l-20.7-19.9L-128.1,438.8z"/>
</svg>
