<?xml version="1.0" encoding="utf-8"?>
<!-- Generator: Adobe Illustrator 19.0.0, SVG Export Plug-In . SVG Version: 6.00 Build 0)  -->
<svg version="2.0" id="Layer_1" xmlns="http://www.w3.org/2000/svg" xmlns:xlink="http://www.w3.org/1999/xlink" x="0px" y="0px"
	 viewBox="-207 299 196 196" style="enable-background:new -207 299 196 196;" xml:space="preserve">
<path d="M-168.4,406.9l-2.4-0.8c-1.6-0.8-3.2-1.6-4.8-2.4c-2.4-1.6-4-3.2-6.3-5.5c-2.4-2.4-4.8-5.5-7.1-9.5v2.4v4.8
	c0.8,4,1.6,7.9,4,11.1c1.6,3.2,4,6.3,6.3,8.7c2.4,2.4,4.8,4.8,7.1,6.3c2.4,1.6,4.8,3.2,7.1,4c3.2,1.6,4.8,2.4,5.5,2.4l2.4,0.8
	l1.6,0.8v1.6l-1.6,1.6l-4,1.6c-1.6,0-3.2,0-4.8,0c-1.6,0-4,0-5.5-0.8c0.8,0.8,1.6,1.6,4,4c2.4,1.6,4,3.2,6.3,4.8
	c1.6,1.6,4,3.2,7.9,5.5c2.4,1.6,6.3,3.2,9.5,4.8c3.2,1.6,7.1,3.2,11.1,4c3.2,0.8,6.3,1.6,10.3,2.4c4,0.8,6.3,0.8,7.9,0.8
	c2.4,0,3.2,0,4-0.8l0,0h0.8l0,0c0,0.8,1.6,0.8,4,0.8c1.6,0,4.8,0,7.9-0.8c4-0.8,7.9-1.6,10.3-2.4c4-0.8,7.9-2.4,11.1-4
	c4-1.6,7.1-3.2,9.5-4.8c4-2.4,6.3-4,7.9-5.5c2.4-1.6,4-3.2,6.3-4.8c2.4-2.4,4-3.2,4-4c-2.4,0.8-4,0.8-5.5,0.8s-3.2,0-4.8,0l-4-1.6
	l-1.6-1.6l0.8-1.6l1.6-0.8l2.4-0.8c0.8,0,2.4-0.8,5.5-2.4c2.4-1.6,4.8-2.4,7.1-4c2.4-1.6,5.5-4,7.1-6.3c2.4-2.4,4.8-5.5,6.3-8.7
	c1.6-3.2,3.2-7.1,4-11.9v-4.8v-2.4c-2.4,4-4.8,6.3-7.1,9.5c-2.4,2.4-4,4-6.3,5.5c-1.6,0.8-3.2,1.6-4.8,2.4l-2.4,0.8l-2.4-0.8v-2.4
	c0.8-2.4,2.4-4,2.4-4.8l1.6-2.4c0,0,0.8-0.8,1.6-2.4c3.2-4,4.8-8.7,4.8-14.3c0.8-5.5,0-11.1-1.6-16.6c-1.6-4-3.2-7.1-5.5-10.3
	c-2.4-2.4-4.8-5.5-8.7-7.9c-3.2-2.4-7.1-4-10.3-5.5c-3.2-1.6-7.1-3.2-11.1-4h-0.8c4,2.4,7.1,4.8,9.5,7.9c2.4,3.2,4,5.5,4,8.7
	c0.8,3.2,0.8,5.5,0.8,8.7c-0.8,3.2-1.6,6.3-2.4,7.9c-2.4,6.3-6.3,11.9-12.7,18.2c4,7.1,6.3,13.5,7.1,19c0.8,6.3,0,11.9-1.6,16.6
	c-1.6,4.8-4,9.5-7.1,13.5s-7.1,7.9-10.3,10.3c-3.2,3.2-6.3,5.5-9.5,7.1c-3.2,1.6-5.5,3.2-6.3,3.2h-1.6c-0.8,0-3.2-1.6-6.3-3.2
	c-3.2-1.6-6.3-4-9.5-7.1c-3.2-2.4-6.3-6.3-10.3-10.3c-3.2-4-5.5-8.7-7.1-13.5c-1.6-4.8-2.4-10.3-1.6-16.6c0.8-5.5,3.2-12.7,7.1-19.8
	c-5.5-6.3-10.3-11.9-12.7-18.2c-0.8-2.4-1.6-4.8-2.4-7.9c-0.8-3.2,0-5.5,0.8-8.7c0.8-2.4,2.4-5.5,4-8.7c2.4-3.2,4.8-5.5,9.5-7.9
	h-1.6c-3.2,1.6-7.1,2.4-11.1,4c-3.2,1.6-6.3,3.2-10.3,5.5c-3.2,2.4-6.3,4.8-8.7,7.9c-2.4,3.2-4,6.3-5.5,10.3
	c-1.6,5.5-2.4,11.1-1.6,16.6c0.8,5.5,2.4,10.3,4.8,14.3c0,0,0.8,0.8,1.6,2.4l1.6,2.4c0.8,0.8,1.6,2.4,3.2,4.8v2.4L-168.4,406.9z
	 M-116.1,375.2c1.6,0.8,4,0.8,6.3,0.8c2.4,0,4.8,0,6.3-0.8c1.6-0.8,4-2.4,4.8-3.2c1.6-1.6,2.4-3.2,3.2-4.8s1.6-4,1.6-6.3
	s-0.8-4-1.6-6.3c-0.8-1.6-1.6-3.2-3.2-4.8c-1.6-1.6-3.2-2.4-4.8-3.2c-2.4-0.8-4-0.8-6.3-0.8c-2.4,0-4,0-6.3,0.8
	c-1.6,0.8-4,2.4-4.8,3.2c-1.6,1.6-2.4,3.2-3.2,4.8c-0.8,1.6-1.6,4-1.6,6.3s0.8,4,1.6,6.3c0.8,1.6,1.6,4,3.2,4.8
	C-119.3,372.8-117.7,374.4-116.1,375.2z"/>
</svg>
