<svg version="2.0"  xmlns="http://www.w3.org/2000/svg" viewbox="-207 299 196 196">
<path d="M-141,357.6l-1.3-0.4c-0.9-0.4-1.8-0.9-2.7-1.3c-1.3-0.9-2.2-1.8-3.5-3.1c-1.3-1.3-2.7-3.1-4-5.3v1.3v2.7
	c0.4,2.2,0.9,4.4,2.2,6.2c0.9,1.8,2.2,3.5,3.5,4.8s2.7,2.7,4,3.5c1.3,0.9,2.7,1.8,4,2.2c1.8,0.9,2.7,1.3,3.1,1.3l1.3,0.4l0.9,0.4
	v0.9l-0.9,0.9l-2.2,0.9c-0.9,0-1.8,0-2.7,0s-2.2,0-3.1-0.4c0.4,0.4,0.9,0.9,2.2,2.2c1.3,0.9,2.2,1.8,3.5,2.7
	c0.9,0.9,2.2,1.8,4.4,3.1c1.3,0.9,3.5,1.8,5.3,2.7c1.8,0.9,4,1.8,6.2,2.2c1.8,0.4,3.5,0.9,5.7,1.3s3.5,0.4,4.4,0.4
	c1.3,0,1.8,0,2.2-0.4l0,0h0.4l0,0c0,0.4,0.9,0.4,2.2,0.4c0.9,0,2.7,0,4.4-0.4c2.2-0.4,4.4-0.9,5.7-1.3c2.2-0.4,4.4-1.3,6.2-2.2
	c2.2-0.9,4-1.8,5.3-2.7c2.2-1.3,3.5-2.2,4.4-3.1c1.3-0.9,2.2-1.8,3.5-2.7c1.3-1.3,2.2-1.8,2.2-2.2c-1.3,0.4-2.2,0.4-3.1,0.4
	s-1.8,0-2.7,0l-2.2-0.9l-0.9-0.9l0.4-0.9l0.9-0.4l1.3-0.4c0.4,0,1.3-0.4,3.1-1.3c1.3-0.9,2.7-1.3,4-2.2c1.3-0.9,3.1-2.2,4-3.5
	c1.3-1.3,2.7-3.1,3.5-4.8c0.9-1.8,1.8-4,2.2-6.6v-2.7V347c-1.3,2.2-2.7,3.5-4,5.3c-1.3,1.3-2.2,2.2-3.5,3.1
	c-0.9,0.4-1.8,0.9-2.7,1.3l-1.3,0.4l-1.3-0.4v-1.3c0.4-1.3,1.3-2.2,1.3-2.7l0.9-1.3c0,0,0.4-0.4,0.9-1.3c1.8-2.2,2.7-4.8,2.7-8
	c0.4-3.1,0-6.2-0.9-9.2c-0.9-2.2-1.8-4-3.1-5.7c-1.3-1.3-2.7-3.1-4.8-4.4c-1.8-1.3-4-2.2-5.7-3.1c-1.8-0.9-4-1.8-6.2-2.2h-0.4
	c2.2,1.3,4,2.7,5.3,4.4c1.3,1.8,2.2,3.1,2.2,4.8c0.4,1.8,0.4,3.1,0.4,4.8c-0.4,1.8-0.9,3.5-1.3,4.4c-1.3,3.5-3.5,6.6-7.1,10.1
	c2.2,4,3.5,7.5,4,10.6c0.4,3.5,0,6.6-0.9,9.2c-0.9,2.7-2.2,5.3-4,7.5c-1.7,2.2-4,4.4-5.7,5.7c-1.8,1.8-3.5,3.1-5.3,4
	s-3.1,1.8-3.5,1.8h-0.9c-0.4,0-1.8-0.9-3.5-1.8c-1.8-0.9-3.5-2.2-5.3-4c-1.8-1.3-3.5-3.5-5.7-5.7c-1.8-2.2-3.1-4.8-4-7.5
	c-0.9-2.7-1.3-5.7-0.9-9.2c0.4-3.1,1.8-7.1,4-11c-3.1-3.5-5.7-6.6-7.1-10.1c-0.4-1.3-0.9-2.7-1.3-4.4c-0.4-1.8,0-3.1,0.4-4.8
	c0.4-1.3,1.3-3.1,2.2-4.8c1.3-1.8,2.7-3.1,5.3-4.4h-0.9c-1.8,0.9-4,1.3-6.2,2.2c-1.8,0.9-3.5,1.8-5.7,3.1c-1.8,1.3-3.5,2.7-4.8,4.4
	c-1.3,1.8-2.2,3.5-3.1,5.7c-0.9,3.1-1.3,6.2-0.9,9.2c0.4,3.1,1.3,5.7,2.7,8c0,0,0.4,0.4,0.9,1.3l0.9,1.3c0.4,0.4,0.9,1.3,1.8,2.7
	v1.3L-141,357.6z M-111.9,340c0.9,0.4,2.2,0.4,3.5,0.4s2.7,0,3.5-0.4c0.9-0.4,2.2-1.3,2.7-1.8c0.9-0.9,1.3-1.8,1.8-2.7
	c0.4-0.9,0.9-2.2,0.9-3.5s-0.4-2.2-0.9-3.5c-0.4-0.9-0.9-1.8-1.8-2.7c-0.9-0.9-1.8-1.3-2.7-1.8c-1.3-0.4-2.2-0.4-3.5-0.4
	s-2.2,0-3.5,0.4c-0.9,0.4-2.2,1.3-2.7,1.8c-0.9,0.9-1.3,1.8-1.8,2.7c-0.4,0.9-0.9,2.2-0.9,3.5s0.4,2.2,0.9,3.5
	c0.4,0.9,0.9,2.2,1.8,2.7C-113.7,338.6-112.8,339.5-111.9,340z"/>
<path d="M-113.8,431l-30.7-14.8l21.8,24l-20,10.4l20.4,3.3l-4.1,25.1l18.9-19.2l17.8,17.8l-3.7-24l20-3.3l-17.8-10.7l12.6-17.8
	l-21.1,5.5l-8.1-22.6L-113.8,431z M-117.9,461.4l2.2-12.6l-10.4-1.5l11.5-6.3l-8.9-9.6l13,6.3l3.3-13.7l3.7,10l11.1-3l-7.1,10
	l10,5.9l-10.7,1.9l1.9,12.2l-9.6-9.2L-117.9,461.4z"/>
</svg>
