<?xml version="1.0" encoding="utf-8"?>
<!-- Generator: Adobe Illustrator 19.0.0, SVG Export Plug-In . SVG Version: 6.00 Build 0)  -->
<svg version="2.0" id="Layer_1" xmlns="http://www.w3.org/2000/svg" xmlns:xlink="http://www.w3.org/1999/xlink" x="0px" y="0px"
	 viewBox="-207 299 196 196" style="enable-background:new -207 299 196 196;" xml:space="preserve">
<path d="M-99.3,380.2h-20.4l-6,10.8h32.4L-99.3,380.2z M-127,375.8l-10.4-17.2h-12l16,28L-127,375.8z M-69.3,358.2h-12.4l-10,17.2
	l6.4,10.8L-69.3,358.2z M-119.4,371.4h20.4l10-17.6l-10-17.6h-20.4l-10,17.6L-119.4,371.4z M-103.3,343.4l6,10.4l-6,10.4h-12
	l-6-10.4l6-10.4H-103.3z M-149.4,349.4h12l10-17.2l-6-10.8L-149.4,349.4z M-91.7,332.2l10,17.2h12.4l-16-28L-91.7,332.2z
	 M-119.4,327.8h20.4l6-10.8h-32.4L-119.4,327.8z"/>
<path d="M-98.6,466.2h-20.4l-6,10.8h32.4L-98.6,466.2z M-126.3,461.8l-10.4-17.2h-12l16,28L-126.3,461.8z M-68.6,444.2H-81l-10,17.2
	l6.4,10.8L-68.6,444.2z M-118.7,457.4h20.4l10-17.6l-10-17.6h-20.4l-10,17.6L-118.7,457.4z M-102.6,429.4l6,10.4l-6,10.4h-12
	l-6-10.4l6-10.4H-102.6z M-148.7,435.4h12l10-17.2l-6-10.8L-148.7,435.4z M-91,418.2l10,17.2h12.4l-16-28L-91,418.2z M-118.7,413.8
	h20.4l6-10.8h-32.4L-118.7,413.8z"/>
</svg>
