<svg version="2.0"  xmlns="http://www.w3.org/2000/svg" viewbox="-207 299 196 196">
<path d="M-35.4,428.2c4-10.4,6.4-20.8,6.4-31.2s-2.4-20.8-6.4-31.2c-4-9.6-9.6-18.4-16.8-25.6c-7.2-7.2-16-12.8-25.6-16.8
	s-20-6.4-31.2-6.4s-21.6,2.4-31.2,6.4c-9.6,4-18.4,9.6-25.6,16.8c-7.2,7.2-12.8,16-16.8,25.6c-4,10.4-6.4,20.8-6.4,31.2
	c0,11.2,2.4,21.6,6.4,31.2c4,9.6,9.6,18.4,16.8,25.6c7.2,7.2,16,12.8,25.6,16.8s20,6.4,31.2,6.4s21.6-2.4,31.2-6.4
	c9.6-4,18.4-9.6,25.6-16.8C-45,446.6-39.4,437.8-35.4,428.2z M-44.2,369.8c4,8.8,5.6,17.6,5.6,27.2c0,9.6-1.6,18.4-5.6,27.2
	s-8.8,16-15.2,22.4s-13.6,11.2-22.4,15.2c-8.8,4-17.6,5.6-27.2,5.6c-9.6,0-18.4-1.6-27.2-5.6s-16-8.8-22.4-15.2
	s-11.2-13.6-15.2-22.4c-4-8.8-5.6-17.6-5.6-27.2c0-9.6,1.6-18.4,5.6-27.2s8.8-16,15.2-22.4s13.6-11.2,22.4-15.2
	c8.8-4,17.6-5.6,27.2-5.6c9.6,0,18.4,1.6,27.2,5.6s16,8.8,22.4,15.2C-53.8,353.8-48.2,361-44.2,369.8z"/>
</svg>
