<?xml version="1.0" encoding="utf-8"?>
<!-- Generator: Adobe Illustrator 19.0.0, SVG Export Plug-In . SVG Version: 6.00 Build 0)  -->
<svg version="2.0" id="Layer_1" xmlns="http://www.w3.org/2000/svg" xmlns:xlink="http://www.w3.org/1999/xlink" x="0px" y="0px"
	 viewBox="-207 299 196 196" style="enable-background:new -207 299 196 196;" xml:space="preserve">
<path d="M-113.8,343.3l-30.7-14.8l21.8,24l-20,10.4l20.4,3.3l-4.1,25.1l18.9-19.2l17.8,17.8l-3.7-24l20-3.3l-17.8-10.7l12.6-17.8
	l-21.1,5.5l-8.1-22.6L-113.8,343.3z M-117.9,373.7l2.2-12.6l-10.4-1.5l11.5-6.3l-8.9-9.6l13,6.3l3.3-13.7l3.7,10l11.1-3l-7.1,10
	l10,5.9l-10.7,1.9l1.9,12.2l-9.6-9.2L-117.9,373.7z"/>
<path d="M-113.8,428.9l-30.7-14.8l21.8,24l-20,10.4l20.4,3.3l-4.1,25.1l18.9-19.2l17.8,17.8l-3.7-24l20-3.3l-17.8-10.7l12.6-17.8
	l-21.1,5.5l-8.1-22.6L-113.8,428.9z M-117.9,459.2l2.2-12.6l-10.4-1.5l11.5-6.3l-8.9-9.6l13,6.3l3.3-13.7l3.7,10l11.1-3l-7.1,10
	l10,5.9l-10.7,1.9l1.9,12.2l-9.6-9.2L-117.9,459.2z"/>
</svg>
