<?xml version="1.0" encoding="utf-8"?>
<!-- Generator: Adobe Illustrator 19.0.0, SVG Export Plug-In . SVG Version: 6.00 Build 0)  -->
<svg version="2.0" id="Layer_1" xmlns="http://www.w3.org/2000/svg" xmlns:xlink="http://www.w3.org/1999/xlink" x="0px" y="0px"
	 viewBox="-207 299 196 196" style="enable-background:new -207 299 196 196;" xml:space="preserve">
<path d="M-142.3,399.2c2.1,2.5,3.3,4.3,3.6,5.4c0.1,0.5,0.1,0.8-0.2,1.1s-0.8,0.3-1.6,0.2c-0.8-0.1-2.1-0.5-3.8-1.3
	c-1.7-0.6-3.7-1.6-6.2-2.9c-5.3-2.3-9.7-4.4-13-6.3c-3.5-1.9-6.3-3.6-8.3-4.9c-2.5-1.4-4.5-2.8-6-4c4.7,5.1,9.4,9.8,14,14.3
	c3.9,3.9,8,7.8,12.3,11.8c4.3,4.1,8.3,7.2,11.8,9.4c5.8,4.1,9.8,7.7,12,10.7c0.2,0.2,0.4,0.5,0.4,0.7c0,1.2-1.5,1.8-4.5,1.6
	c-2.2-0.1-3.4-0.2-3.8-0.2c-2.7,0-5.3-0.1-7.8-0.2c-2.7-0.1-5-0.3-7.1-0.5c-2.5-0.2-4.8-0.5-6.9-0.7c13.5,6.4,25.7,12.1,36.6,17.2
	l13.4,6.2c4.5,2.1,8.5,3.9,12,5.6c3.4,1.7,6.2,3,8.5,3.8c2.3,1,3.6,1.4,3.8,1.4c8.1,2.9,14.7,4.8,19.8,5.6c2.1,0.4,4.7,0.8,8,1.3
	c1.7,0.1,3.1,0.2,4.2,0.2h1.4h2c1.9,0,4.1-0.4,6.5-1.3c1.7-0.6,3.2-1.7,4.5-3.3c2.8-2.9,4.8-6.9,6.2-12c1.1-4,1.6-8.6,1.6-13.8
	c0-1.2-0.1-2.4-0.2-3.6c-0.8-9.1-2-16.3-3.4-21.7c-2.1-8-5.1-16.5-9.2-25.5c-0.4,4-0.8,7.7-1.3,11.1c-0.6,2.8-1.3,5.3-2,7.6
	c-0.7,2.2-1.6,3.3-2.5,3.3c-0.4,0-1-0.6-1.8-1.8c-0.8-1.2-2-2.9-3.4-5.1c-1.2-2.2-2.6-4.5-4.2-7.1c-1.6-2.7-3.1-5.5-4.5-8.5
	c-3.7-6.6-7.8-14.3-12.1-22.8c-0.2,3.6-0.7,6.7-1.3,9.2c-0.4,2.1-0.9,3.8-1.6,5.3c-0.7,1.6-1.6,1.8-2.5,0.7c-1-1.2-2.4-2.6-4.2-4.2
	c-1.7-1.6-3.5-3.3-5.4-5.3c-2.1-1.9-4.2-4-6.5-6.2c-2.3-2.1-4.5-4-6.7-5.8c-5.2-4.6-10.8-9.4-16.7-14.5c13.9,17.9,26,34.1,36.4,48.6
	c3.7,5.4,8,11.6,12.7,18.5c4,6,7.7,11.8,11.1,17.2c2.9,5.1,5.3,9.5,7.1,13.2c1.2,2.8,1.8,4.6,1.6,5.4v0.4c-0.1,0.6-0.2,1-0.2,1.3
	c-1.6,2.1-3.7,3.1-6.3,3.1c-3,0-6.7-1.1-11.1-3.4c-9.3-4.8-21.6-13.8-36.8-27c-2.7-2.4-6.9-6.2-12.7-11.2c-4.5-3.9-9.1-7.9-14-12.1
	c-4.7-4.2-9.4-8.4-14.1-12.5c-4.6-4.2-9.1-8.3-13.4-12.1c-10.1-9.1-20.4-18.3-30.6-27.7C-168.2,372.4-152.6,388.4-142.3,399.2z
	 M-166.5,347.5c7.2,8.6,15.8,18.5,25.5,29.7c9.9,11.4,20.8,23.2,32.8,35.5c5.1,5,9.7,9.2,13.8,12.7c3.4,2.8,6.9,5.7,10.5,8.7
	c2.1,1.6,4.7,3.3,8,5.1c2.7,1.4,4.6,2.4,5.8,2.7c1.2,0.4,2.6,0.6,4.2,0.7h0.7c1.3,0,2.2-0.3,2.5-0.9c0.2-0.5,0.4-1.8,0.4-3.8
	c0-1.2-1.1-3.6-3.3-7.2c-2.7-4-4.8-6.9-6.5-8.9c-0.1,0-3.1-3.4-9.1-10.3c-1.6-1.8-6-6.5-13.2-14c-12.3-11.6-24.2-22.2-35.7-31.9
	c-11.4-9.7-21.4-17.9-30.3-24.6c-10.3-8.1-19.8-15.3-28.6-21.7C-182.5,328.1-175,337.5-166.5,347.5z"/>
</svg>
