<svg version="2.0" xmlns="http://www.w3.org/2000/svg" viewbox="0 0 256 256">
<path d="M-135,434.7c8,1.6,15.8,2.4,23.4,2.4c9.5,0,18.8-1.2,27.9-3.4c25.8-4.9,44-15.9,54.7-32.9c-0.6-0.9-2-2.6-4-4.9
	c-2-2.3-3.4-3.9-4.1-4.7s-2.1-2.3-4-4.4c-1.9-2.2-3.3-3.7-4.3-4.6c-1.1-1-2.7-2.4-4.6-4.1s-3.7-3.1-5.2-4.1c-1.4-1-3.3-2.3-5.5-3.7
	c-2.3-1.5-4.5-2.7-6.6-3.7c-2-1-4.3-2.1-7-3.2c-2.6-1.1-5.3-2.1-8.3-3.1c-7.9-2.3-16.4-3.4-25.4-3.4h-1.8c-3,0-5.7,0.1-8.3,0.3
	c-2.5,0.3-4.5,0.6-5.8,0.8c-1.4,0.1-3.3,0.4-6,0.9c-2.7,0.5-4.5,0.9-5.4,1.1c-13.3,4.2-24.1,9.4-32.6,15.5
	c-8.3,6-15.4,14.6-21.1,25.7C-179.6,419-161.6,430.2-135,434.7z M-161.9,384.5c7.1-5,15.3-8.7,24.5-11c-5.5,6.7-8.3,14.4-8.3,23.1
	c0,6.5,1.7,12.6,5.1,18.2c3.3,5.6,7.6,10,13,13.2c-2-0.2-5.2-0.7-9.6-1.4c-4.4-1.2-8.2-2.3-11.5-3.4c-3.2-1.1-6.6-2.7-10.3-4.7
	c-3.5-1.9-6.6-4.3-9.5-7.3s-5.3-6.4-7.2-10.3C-173.5,395-168.9,389.5-161.9,384.5z M-106.5,380.6c2.6-2.5,5.8-3.8,9.6-3.8
	s6.9,1.2,9.5,3.8c2.7,2.6,4,5.8,4,9.6c0,3.7-1.3,6.8-4,9.5c-2.6,2.7-5.8,4-9.5,4s-6.9-1.3-9.6-4s-4-5.8-4-9.5
	C-110.5,386.4-109.1,383.2-106.5,380.6z M-78.4,415.1c3.3-5.6,4.9-11.8,4.9-18.4c0-9.2-3-17.3-9-24.2c9.1,1.7,17.1,4.8,24,9.3
	s13.9,10.8,21,19.1c-1.9,3.1-4.3,6-7.2,8.7c-3,2.6-5.8,4.7-8.6,6.3c-2.9,1.7-6.5,3.4-10.9,5.1c-4.4,1.5-8,2.7-11,3.5
	s-7,1.9-12.1,3.2c-0.6,0.1-1.4,0.2-2.4,0.3c-0.9,0.1-1.6,0.2-2.1,0.3C-86.2,425.1-81.7,420.6-78.4,415.1z"/>
</svg>
