<svg version="2.0"  xmlns="http://www.w3.org/2000/svg" viewbox="-207 299 196 196">
<path d="M-171.6,442.8V456h-4.7v21h21.2v-5.1h13.2v5.1h65.7v-5.1h13.2v5.1h21.2v-21h-5.2v-13.2h5.2v-91.3h-5.2V338h5.2v-21h-21.2
	v4.9h-13.2V317h-65.7v4.9h-13.2V317h-21.2v21h4.7v13.4h-4.7V380v62.8H-171.6z M-168.3,458.7c1.4-1.1,3.1-1.6,5.1-1.6
	c1.5,0,2.9,0.6,4.2,1.8c1.2,1.2,1.8,2.9,1.8,5.2c0,1.7-0.6,3.3-1.8,4.7c-1.3,1.5-2.7,2.3-4.2,2.3c-2,0-3.6-0.8-5.1-2.3
	c-1.3-1.4-2-3-2-4.7C-170.2,461.7-169.6,459.9-168.3,458.7z M-168.3,325c1.4-1.4,3.1-2.1,5.1-2.1c1.5,0,2.9,0.7,4.2,2.1
	c1.2,1.4,1.8,3.1,1.8,5.1c0,2.2-0.6,3.9-1.8,5.2c-1.3,1.2-2.7,1.8-4.2,1.8c-2,0-3.6-0.7-5.1-2c-1.3-1.3-2-3-2-5.1
	C-170.2,328.1-169.6,326.4-168.3,325z M-159.3,359.9v-12.4h5.2v98.8h-5.2V359.9z M-141.9,423.2l5.1,5.1v9.3c-7-7.2-11.6-12-14-14.4
	H-141.9z M-141.9,402.1c2.5,2.5,4.2,4.1,5.1,4.9v9.1c-7-7.1-11.6-11.7-14-14H-141.9z M-141.9,381.1c2.5,1.8,4.2,3.1,5.1,3.8v9.6
	c-7-6.7-11.6-11.2-14-13.4H-141.9z M-141.9,358.4c2.5,2.2,4.2,3.6,5.1,4.2v9.9c-7-7.1-11.6-11.8-14-14.2H-141.9z M-89.2,450.6h20.1
	v5.4H-149v-5.4H-89.2z M-149,338h79.9v5.5H-149V338z M-136.8,438.3c2.5-2.2,4.1-3.6,4.9-4.4c4.7-0.2,7.8-0.4,9.3-0.5l-14.2,14.2
	V438.3z M-136.8,417.3c2.5-2.7,4.1-4.5,4.9-5.4h9.3c-7.1,7.3-11.8,12.1-14.2,14.5V417.3z M-136.8,395c2.5-2.1,4.1-3.4,4.9-4.1h9.3
	c-7.1,7.1-11.8,11.7-14.2,14V395z M-136.8,373.8c2.5-2.2,4.1-3.6,4.9-4.2c4.7-0.5,7.8-0.9,9.3-1c-7.1,7-11.8,11.6-14.2,13.9V373.8z
	 M-136.8,352.2c2.5-2.4,4.1-4,4.9-4.7h9.3c-7.1,7-11.8,11.6-14.2,13.9V352.2z M-120.5,423.2c2.6,2.5,4.3,4.2,5.1,5.1v9.3l-14.4-14.4
	H-120.5z M-120.5,402.1c2.6,2.5,4.3,4.1,5.1,4.9v9.1c-7.2-7.1-12-11.7-14.4-14H-120.5z M-120.5,381.1c2.6,1.8,4.3,3.1,5.1,3.8V395
	c-7.2-7-12-11.6-14.4-13.9H-120.5z M-120.5,358.4c2.6,2.2,4.3,3.6,5.1,4.2v9.9c-7.2-7.1-12-11.8-14.4-14.2H-120.5z M-114.5,438.3
	c2.3-2.2,3.8-3.6,4.6-4.4c4.9-0.2,8.2-0.4,9.8-0.5c-7.2,7.1-12,11.8-14.4,14.2V438.3z M-114.5,417.3c2.3-2.7,3.8-4.5,4.6-5.4h9.8
	c-7.2,7.3-12,12.1-14.4,14.5V417.3z M-114.5,395c2.3-2.1,3.8-3.4,4.6-4.1h9.8c-7.2,7.1-12,11.7-14.4,14V395z M-114.5,373.8
	c2.3-2.2,3.8-3.6,4.6-4.2c4.9-0.5,8.2-0.9,9.8-1c-7.2,7-12,11.6-14.4,13.9V373.8z M-114.5,352.2c2.3-2.4,3.8-4,4.6-4.7h9.8
	c-7.2,7-12,11.6-14.4,13.9V352.2z M-98.3,423.2c2,2.5,3.3,4.2,4.1,5.1v9.3c-7.1-7.2-11.8-12-14.2-14.4H-98.3z M-98.3,402.1
	c2,2.5,3.3,4.1,4.1,4.9v9.1c-7.1-7.1-11.8-11.7-14.2-14H-98.3z M-98.3,381.1c2,1.8,3.3,3.1,4.1,3.8V395c-7.1-7-11.8-11.6-14.2-13.9
	H-98.3z M-98.3,358.4c2,2.2,3.3,3.6,4.1,4.2v9.9l-14.2-14.2H-98.3z M-92.3,438.3c2.6-2.2,4.3-3.6,5.2-4.4c4.5-0.2,7.4-0.4,9-0.5
	l-14.2,14.2V438.3z M-92.3,417.3c2.6-2.7,4.3-4.5,5.2-5.4h9c-7.1,7.3-11.8,12.1-14.2,14.5V417.3z M-92.3,395
	c2.6-2.1,4.3-3.4,5.2-4.1h9c-7.1,7.1-11.8,11.7-14.2,14V395z M-92.3,373.8c2.6-2.2,4.3-3.6,5.2-4.2c4.5-0.5,7.4-0.9,9-1
	c-7.1,7-11.8,11.6-14.2,13.9V373.8z M-92.3,352.2c2.6-2.4,4.3-4,5.2-4.7h9c-7.1,7-11.8,11.6-14.2,13.9V352.2z M-77.1,423.2l5.1,5.1
	v9.3c-7.2-7.2-11.9-12-14.2-14.4H-77.1z M-77.1,402.1c2.5,2.5,4.2,4.1,5.1,4.9v9.1c-7.2-7.1-11.9-11.7-14.2-14H-77.1z M-77.1,381.1
	c2.5,1.8,4.2,3.1,5.1,3.8V395c-7.2-7-11.9-11.6-14.2-13.9H-77.1z M-77.1,358.4c2.5,2.2,4.2,3.6,5.1,4.2v9.9
	c-7.2-7.1-11.9-11.8-14.2-14.2H-77.1z M-63.9,347.5h4.9v98.8h-4.9V347.5z M-59.2,458.7c1.2-1.1,2.6-1.6,4.1-1.6c2.3,0,4,0.6,5.2,1.8
	s1.8,2.9,1.8,5.2c0,1.7-0.7,3.3-2,4.7c-1.2,1.5-2.9,2.3-5.1,2.3c-1.5,0-2.9-0.8-4.1-2.3c-1.3-1.4-2-3-2-4.7
	C-61.1,461.7-60.5,459.9-59.2,458.7z M-59.2,325c1.2-1.4,2.6-2.1,4.1-2.1c2.3,0,4,0.7,5.2,2.1c1.2,1.4,1.8,3.1,1.8,5.1
	c0,2.2-0.7,3.9-2,5.2c-1.2,1.2-2.9,1.8-5.1,1.8c-1.5,0-2.9-0.7-4.1-2c-1.3-1.3-2-3-2-5.1C-61.1,328.1-60.5,326.4-59.2,325z"/>
</svg>
