<svg version="2.0"  xmlns="http://www.w3.org/2000/svg" viewbox="-207 299 196 196">
<path d="M-182.6,436.4c3.1,7.3,7,14,11.8,20.1c5.3,5.3,11.5,9.6,18.5,12.8c6.9,3.2,14.2,5,22.1,5.6c-7.8-4.7-14.4-10.6-20-17.7
	c-5.6-7.2-9.6-15.3-12.1-24.4c-6.2-6.2-11.1-13.4-14.7-21.6c-3.5-8.2-5.3-17-5.6-26.5c-2.1,4.3-3.7,8.6-4.7,13.1S-189,407-189,412
	v0.7C-187.9,421-185.8,429-182.6,436.4z M-170.5,397.1c1.2,4.7,2.9,9.2,5.1,13.6c0.1-6.4,1-12.7,2.8-18.8c1.7-6,4.1-11.6,7.2-16.9
	s6.7-10,11-14.4c4.3-4.3,9-8,14.2-11.3c-7.8,0.4-15,2.2-21.8,5.4c-6.9,3.2-13,7.4-18.5,12.6c-0.5,2.5-1,5-1.3,7.5
	c-0.3,2.5-0.5,5-0.5,7.5C-172.3,387.5-171.7,392.4-170.5,397.1z M-144.9,340.9c6-1.6,12.3-2.5,18.8-2.5c2.9,0,5.8,0.2,8.7,0.5
	c2.9,0.4,5.7,0.9,8.4,1.5c2.8-0.5,5.7-1,8.5-1.5c2.8-0.3,5.8-0.5,8.8-0.5c6.3,0,12.4,0.8,18.3,2.3s11.5,3.7,16.9,6.6
	c-2.9-4.3-6.3-8.1-10-11.6c-3.8-3.4-8-6.3-12.6-8.8c-4.4-2.4-9.1-4.3-14.2-5.7c-5.1-1.3-10.4-2-15.9-2c-11.1,0-21.3,2.6-30.5,7.9
	c-9.2,5.1-16.6,12.1-22.3,20.8C-156.6,344.9-151,342.7-144.9,340.9z M-152.8,427.7c5.7,5.5,12.2,9.8,19.7,12.9
	c7.3,3.2,15.3,4.7,23.9,4.7c8.7,0,16.9-1.6,24.6-4.9c7.5-3.2,14.2-7.6,20-13.3c0.5-2.6,1-5.2,1.3-7.7c0.3-2.4,0.5-4.9,0.5-7.5
	c0-7.1-1.2-13.9-3.6-20.5c-2.3-6.6-5.5-12.4-9.7-17.7c-4-5.3-8.9-10-14.6-13.9c-5.6-3.8-11.7-6.7-18.3-8.5
	c-6.6,1.9-12.6,4.7-18.2,8.5c-5.7,3.9-10.6,8.6-14.7,13.9c-4,5.2-7.2,11.1-9.5,17.7c-2.3,6.6-3.4,13.4-3.4,20.5
	C-154.9,417.7-154.2,422.9-152.8,427.7z M-129.1,462.9c6,4.5,12.7,7.8,20,9.8c7.5-2.1,14.4-5.4,20.5-10c6.1-4.5,11.2-9.9,15.4-16.4
	c-5.3,3.1-11,5.4-17,7c-6,1.6-12.3,2.5-19,2.5c-6.3,0-12.4-0.8-18.3-2.5c-6-1.5-11.6-3.8-16.9-6.7
	C-140.2,453.1-135.1,458.5-129.1,462.9z M-67.5,470.1c6.3-2.6,12.1-6.2,17.2-10.8c6-6.7,10.8-14.2,14.4-22.8
	c3.6-8.4,5.9-17.5,6.9-27.3c-0.2-4.6-0.9-9-2.1-13.3c-1.1-4.3-2.6-8.4-4.4-12.3c-0.2,9.4-2.1,18.2-5.6,26.5
	c-3.4,8.2-8.1,15.5-14.1,21.9c-2.6,9.1-6.7,17.3-12.3,24.6c-5.7,7.3-12.4,13.4-20.3,18.2C-80.6,474.3-73.8,472.7-67.5,470.1z
	 M-73.7,360.4c4.3,4.4,7.9,9.1,11,14.2c3.1,5.1,5.5,10.6,7.2,16.5c1.7,6,2.7,12.2,2.9,18.5c2.1-4.3,3.7-8.6,4.7-13.1
	c1.1-4.6,1.6-9.3,1.6-14.2c0-5.5-0.7-10.6-2-15.6c-5.2-5-11.2-9.1-18-12.1c-6.7-3.2-13.9-5-21.6-5.4
	C-82.7,352.4-78,356.1-73.7,360.4z"/>
</svg>
