<?xml version="1.0" encoding="utf-8"?>
<!-- Generator: Adobe Illustrator 19.0.0, SVG Export Plug-In . SVG Version: 6.00 Build 0)  -->
<svg version="2.0" id="Layer_1" xmlns="http://www.w3.org/2000/svg" xmlns:xlink="http://www.w3.org/1999/xlink" x="0px" y="0px"
	 viewBox="-207 299 196 196" style="enable-background:new -207 299 196 196;" xml:space="preserve">
<path d="M-182.8,428.4c4.1,9.7,9.8,18.1,17,25.2c7.3,7.3,15.8,13.1,25.5,17.2s20,6.2,31,6.2c11.1,0,21.6-2.1,31.4-6.2
	c9.7-4.1,18.2-9.8,25.5-17.2c7.2-7.1,13-15.5,17.2-25.2c4.1-9.7,6.2-20,6.2-31s-2.1-21.4-6.2-31.2c-4.2-9.8-10-18.4-17.2-25.7
	c-7.3-7.2-15.8-13-25.5-17.2c-9.8-4.2-20.2-6.3-31.4-6.3c-11,0-21.4,2.1-31,6.3c-9.7,4.2-18.2,10-25.5,17.2
	c-7.2,7.3-12.9,15.9-17,25.7c-4.1,9.8-6.2,20.2-6.2,31.2S-186.9,418.8-182.8,428.4z M-183.3,392.9c0.1-1.6,0.2-2.9,0.3-4.2
	c0.7,3,1.2,5,1.5,6l7.3,0.7c2.6-4.6,4.3-7.6,5.2-9c-2.3-5.4-3.9-9.1-4.7-10.8c-3.2,1-5.7,1.7-7.3,2.2c0.6-1.4,1.1-2.9,1.5-4.3
	c0.3-1.3,0.8-2.8,1.3-4.3c3.2-0.7,5.4-1.1,6.5-1.3c3-5.2,5-8.7,6-10.3c-1-2.7-1.7-4.7-2.2-6c1.6-2,3.2-3.8,4.8-5.5s3.4-3.3,5.3-4.8
	l-5.3,8c1.2,2.9,2.1,4.8,2.5,5.7c5.6-1,9.2-1.7,11-2c2.6-4.7,4.2-7.7,5-9.2c-1.8-2.9-3-4.8-3.7-5.8c-4,1-7,1.7-9,2.2
	c2.8-2,5.7-3.9,8.7-5.8c3-1.9,6.2-3.6,9.7-5.2c-2.4,3-4.1,5-5,6c1.9,2.8,3.2,4.6,3.8,5.5c5.7-0.6,9.5-0.9,11.3-1.2
	c3.3-4.2,5.6-7.1,6.7-8.5c-2.3-2.8-3.8-4.7-4.5-5.7c-1.2,0.1-2.1,0.2-2.7,0.3c1.6-0.4,3.2-0.9,4.8-1.3c1.7-0.3,3.4-0.6,5.3-0.7
	c2,2.3,3.3,3.8,4,4.5h12.2c1.9-2,3.3-3.5,4.2-4.5c1.7,0.1,3.3,0.3,5,0.7l4.7,1.3c-1.2-0.1-2.1-0.2-2.5-0.3c-2.3,2.8-3.9,4.7-4.7,5.7
	c3.3,4.2,5.6,7.1,6.7,8.5c5.7,0.6,9.5,0.9,11.3,1.2c1.9-2.7,3.2-4.5,3.8-5.5c-2.1-2.7-3.7-4.7-4.7-6c3.4,1.6,6.6,3.3,9.5,5.2
	c2.9,1.9,5.7,3.8,8.5,5.8c-4.4-1.1-7.5-1.8-9-2.2c-1.7,2.9-2.8,4.8-3.3,5.8c2.3,4.6,3.9,7.6,4.8,9.2c5.4,1,9.1,1.7,10.8,2
	c1.2-2.8,2.1-4.7,2.5-5.7c-2.4-3.6-4.2-6.2-5.3-8c2,1.6,3.8,3.2,5.5,5c1.6,1.7,3.1,3.5,4.7,5.5c-0.9,2.9-1.5,4.8-1.8,5.8
	c3,5.1,5,8.6,6,10.3c2.7,0.7,4.7,1.1,6.2,1.3c0.6,1.6,1.1,3,1.5,4.3l1.3,4.3c-3.6-1-6-1.7-7.2-2.2c-2.2,5.4-3.7,9.1-4.5,10.8
	c2.6,4.4,4.2,7.5,5,9l7.3-0.7c0.7-2.7,1.1-4.7,1.3-6c0.3,2.4,0.5,5.3,0.5,8.7c0,3.2-0.2,6.4-0.5,9.5l-1.3-5.3
	c-3.7-0.2-6.1-0.4-7.3-0.5c-2.4,4.3-4.1,7.2-5,8.7c2.2,5.5,3.7,9.1,4.5,11c3-0.9,5.2-1.6,6.7-2c-0.3,1-0.7,2.1-1,3.2
	c-0.3,1.1-0.8,2.1-1.3,3c-3.1,0.8-5.2,1.3-6.2,1.5c-3,5.2-5,8.7-6,10.5c0.8,2.7,1.4,4.7,1.8,6c-1.6,1.9-3.1,3.7-4.7,5.3
	c-1.7,1.8-3.5,3.4-5.5,4.8l5.3-8c-1.2-2.8-2.1-4.7-2.5-5.7c-5.4,1-9.1,1.6-10.8,1.8c-2.4,4.8-4.1,8-4.8,9.5c1.7,2.8,2.8,4.7,3.3,5.7
	c4-1,7-1.8,9-2.3c-2.8,2.2-5.6,4.3-8.5,6.2c-2.9,1.8-6.1,3.5-9.5,5.2c2.3-3.1,3.9-5.2,4.7-6.2c-1.9-2.7-3.2-4.4-3.8-5.3
	c-5.7,0.6-9.5,0.9-11.3,1l-6.7,8.7c2.3,2.8,3.9,4.6,4.7,5.5c1.1-0.1,1.9-0.2,2.5-0.3c-1.6,0.6-3.1,1-4.7,1.3c-1.7,0.3-3.3,0.6-5,0.8
	c-2.1-2.4-3.5-4.1-4.2-4.8h-12.2l-4,5c-3.8-0.7-7.2-1.4-10.2-2.3c1.3,0.2,2.2,0.3,2.7,0.3c2.2-2.8,3.7-4.6,4.5-5.5l-6.7-8.7
	c-5.7-0.4-9.5-0.8-11.3-1c-1.9,2.7-3.2,4.4-3.8,5.3c2.2,2.8,3.9,4.8,5,6.2c-3.4-1.7-6.7-3.4-9.7-5.2c-3-1.9-5.9-3.9-8.7-6.2
	c4.6,1.1,7.6,1.9,9,2.3c1.9-2.9,3.1-4.8,3.7-5.7c-2.4-4.7-4.1-7.8-5-9.5c-5.6-0.9-9.2-1.5-11-1.8c-1.2,2.9-2.1,4.8-2.5,5.7
	c2.4,3.6,4.2,6.2,5.3,8c-1.9-1.3-3.7-2.9-5.3-4.7c-1.7-1.8-3.3-3.6-4.8-5.5c1.1-3,1.8-5,2.2-6c-3-5.2-5-8.7-6-10.5l-6.5-1.5
	c-0.4-0.9-0.8-1.9-1.2-3c-0.4-1.1-0.8-2.2-1-3.2l6.7,2c2.3-5.6,3.9-9.2,4.7-11c-2.7-4.3-4.4-7.2-5.2-8.7c-3.7,0.2-6.1,0.4-7.3,0.5
	c-0.8,2.7-1.3,4.4-1.5,5.3c-0.2-2.2-0.3-3.8-0.3-4.8c-0.2-1.6-0.3-3.1-0.3-4.7C-183.7,395.9-183.5,394.4-183.3,392.9z M-160,435.5
	c5,0.8,8.3,1.3,10,1.7c1.8-4.9,3-8.2,3.7-9.8c-3.2-5.6-5.4-9.3-6.5-11.2c-5.1-0.7-8.5-1.1-10.2-1.3c-1.9,4.8-3.1,8-3.7,9.5
	C-163.3,429.8-161.1,433.6-160,435.5z M-161.8,408.1c5.1,0.7,8.5,1.1,10.2,1.3c3.2-5.5,5.4-9.1,6.5-11c-3.2-5.7-5.4-9.5-6.5-11.3
	c-5.1,0.2-8.5,0.4-10.2,0.5c-2.4,5.2-4.1,8.7-4.8,10.3C-164.3,403-162.7,406.4-161.8,408.1z M-163,382.2c5.1-0.9,8.5-1.5,10.2-1.8
	c3.2-5.7,5.4-9.5,6.5-11.3c-1.8-4.7-3-7.8-3.7-9.3l-10,1.3c-3.3,5.8-5.6,9.6-6.7,11.5C-164.8,377.5-163.5,380.7-163,382.2z
	 M-138.3,422.4c5.9,0.3,9.8,0.6,11.8,0.7c2.7-5.4,4.4-9.1,5.3-10.8c-3.2-5.4-5.4-9.1-6.5-10.8c-5.9-0.3-9.8-0.6-11.8-0.7
	c-2.9,5.3-4.8,8.9-5.7,10.7C-141.7,416.9-139.4,420.6-138.3,422.4z M-139.4,395.1c5.9-0.2,9.8-0.4,11.8-0.5
	c3.3-5.7,5.5-9.5,6.5-11.3c-2.7-5.1-4.4-8.5-5.3-10.2c-5.9,0.1-9.8,0.2-11.8,0.2c-3.4,5.7-5.7,9.4-6.8,11.2
	C-142.3,389.7-140.4,393.3-139.4,395.1z M-140.4,365.9h12.8c3.3-5.6,5.5-9.3,6.5-11.2c-2.7-4.1-4.4-6.8-5.3-8.2l-11.3,0.7
	c-3.2,4.6-5.4,7.6-6.5,9C-142.4,361-141.1,364.2-140.4,365.9z M-137.1,449.1c5.3,0.3,9,0.6,10.8,0.8c3.2-4.1,5.3-6.9,6.3-8.3
	c-3.2-5.4-5.3-9.1-6.3-11h-13c-2.2,4.6-3.7,7.6-4.5,9C-140.4,444.3-138.2,447.5-137.1,449.1z M-115.4,461.1h13.2
	c3.1-4,5.2-6.7,6.2-8c-3.1-4-5.2-6.7-6.2-8h-4h-9.2c-3.2,4-5.4,6.7-6.5,8C-118.7,457.1-116.5,459.8-115.4,461.1z M-115.4,436h13.2
	c3.1-5.1,5.2-8.6,6.2-10.3c-3.1-4.9-5.2-8.2-6.2-9.8h-13.2c-3.2,4.9-5.4,8.2-6.5,9.8C-118.7,430.7-116.5,434.2-115.4,436z
	 M-115.6,409.4h13.3c3.1-5.5,5.2-9.1,6.2-11c-3.1-5.7-5.2-9.5-6.2-11.3h-13.3c-3.1,5.7-5.2,9.5-6.3,11.3
	C-118.7,404-116.6,407.6-115.6,409.4z M-115.4,380.1h13.2c3.1-5.1,5.2-8.5,6.2-10.2c-3.1-5.1-5.2-8.5-6.2-10.2h-13.2
	c-3.2,5.1-5.4,8.5-6.5,10.2C-118.7,375-116.5,378.4-115.4,380.1z M-115.4,351.4h13.2c3.1-4,5.2-6.6,6.2-7.8c-3.1-4-5.2-6.7-6.2-8
	h-13.2c-3.2,4-5.4,6.7-6.5,8C-118.7,347.4-116.5,350-115.4,351.4z M-91.2,450c5.7-0.4,9.5-0.7,11.3-0.8c3.3-4.6,5.6-7.6,6.7-9.2
	c-2-4.8-3.4-8-4.2-9.5h-12.7c-3.3,5.4-5.5,9.1-6.5,10.8L-91.2,450z M-91.2,423.1c5.9-0.3,9.8-0.6,11.8-0.7c3.4-5.7,5.7-9.5,6.8-11.3
	c-2.9-5.2-4.8-8.7-5.8-10.3c-5.9,0.3-9.8,0.6-11.7,0.7c-3.3,5.4-5.5,9.1-6.5,10.8C-93.9,417.7-92.1,421.3-91.2,423.1z M-90.1,394.6
	c5.9,0.2,9.8,0.4,11.7,0.5c2.9-5.3,4.8-8.9,5.8-10.7c-3.4-5.6-5.7-9.3-6.8-11.2c-5.9-0.1-9.8-0.2-11.8-0.2
	c-2.7,5.1-4.4,8.5-5.3,10.2C-93.3,388.9-91.2,392.7-90.1,394.6z M-90.1,365.9h12.7c2.4-4.6,4.1-7.6,4.8-9c-3.4-4.7-5.7-7.8-6.8-9.3
	c-5.3-0.4-8.9-0.8-10.7-1c-3.3,3.9-5.5,6.5-6.5,7.8C-93.3,360.2-91.2,364-90.1,365.9z M-65.2,409.3c5-0.2,8.4-0.4,10.2-0.5
	c2.4-5.3,4.1-8.9,4.8-10.7c-2.3-5-3.8-8.3-4.5-10c-5.2-0.9-8.7-1.4-10.5-1.7c-3.1,5.8-5.2,9.6-6.2,11.5
	C-68.3,403.6-66.2,407.4-65.2,409.3z M-67.9,437.1c5.1-0.9,8.5-1.4,10.2-1.7c3.2-5.6,5.3-9.3,6.3-11.2c-1.7-4.8-2.8-8-3.3-9.5
	c-5.1,0.7-8.5,1.1-10.2,1.3c-3.1,5.7-5.2,9.4-6.3,11.2C-69.5,432.2-68.4,435.5-67.9,437.1z M-64.9,380.4c5,0.9,8.4,1.5,10.2,1.8
	c1.7-4.9,2.8-8.1,3.3-9.7c-3.1-5.8-5.2-9.6-6.3-11.5c-5.1-0.7-8.5-1.1-10.2-1.3c-1.7,4.9-2.8,8.1-3.3,9.7
	C-68,374.8-65.9,378.5-64.9,380.4z"/>
</svg>
