<?xml version="1.0" encoding="UTF-8" standalone="no"?>
<svg
   xmlns:dc="http://purl.org/dc/elements/1.1/"
   xmlns:cc="http://creativecommons.org/ns#"
   xmlns:rdf="http://www.w3.org/1999/02/22-rdf-syntax-ns#"
   xmlns:svg="http://www.w3.org/2000/svg"
   xmlns="http://www.w3.org/2000/svg"
   xmlns:sodipodi="http://sodipodi.sourceforge.net/DTD/sodipodi-0.dtd"
   xmlns:inkscape="http://www.inkscape.org/namespaces/inkscape"
   width="210mm"
   height="297mm"
   viewBox="0 0 210 297"
   version="1.1"
   id="svg2689"
   inkscape:version="1.0.2-2 (e86c870879, 2021-01-15)"
   sodipodi:docname="imperial.svg">
  <defs
     id="defs2683" />
  <sodipodi:namedview
     id="base"
     pagecolor="#ffffff"
     bordercolor="#666666"
     borderopacity="1.0"
     inkscape:pageopacity="0.0"
     inkscape:pageshadow="2"
     inkscape:zoom="0.35"
     inkscape:cx="400"
     inkscape:cy="560"
     inkscape:document-units="mm"
     inkscape:current-layer="svg2689"
     inkscape:document-rotation="0"
     showgrid="false"
     inkscape:pagecheckerboard="true"
     showborder="false"
     inkscape:window-width="1267"
     inkscape:window-height="1198"
     inkscape:window-x="312"
     inkscape:window-y="163"
     inkscape:window-maximized="0" />
  <metadata
     id="metadata2686">
    <rdf:RDF>
      <cc:Work
         rdf:about="">
        <dc:format>image/svg+xml</dc:format>
        <dc:type
           rdf:resource="http://purl.org/dc/dcmitype/StillImage" />
        <dc:title></dc:title>
      </cc:Work>
    </rdf:RDF>
  </metadata>
  <path
     d="m 139.72048,195.23855 -4.93494,-34.85301 q 9.56145,-2.15904 17.27229,-9.86988 l 27.75903,20.97349 12.64579,-20.66506 -33.61928,-12.02891 q 2.77591,-10.48674 0,-20.66506 L 192.77108,104.2506 180.1253,84.81928 151.7494,106.40964 q -6.78554,-7.710842 -17.2723,-10.178316 l 5.24338,-35.46988 h -24.98313 l 5.5518,35.46988 Q 109.18554,99.624099 103.3253,106.71807 L 75.25783,84.81928 62.612046,105.17591 96.539757,118.13012 q -3.084338,10.17832 0,20.35663 l -33.619276,13.57108 12.645782,19.73975 27.142167,-21.28192 q 9.25301,8.32771 17.58072,9.56145 l -5.24337,35.16144 z m -14.80482,61.68674 h 6.16868 q 69.39759,0 111.34457,-69.39759 Q 256,158.2265 256,131.7012 v -6.47711 Q 256,55.826505 186.91084,13.571085 147.12289,0 131.08434,0 h -6.16868 Q 55.518071,0.30843334 13.571083,69.397588 0,99.007227 0,125.22409 v 6.47711 q 0,69.08916 69.397589,111.65301 29.301204,13.57108 55.518071,13.57108 z M 7.7108431,128.30844 q 0,-68.78073 64.7710829,-107.026513 Q 97.773492,8.9445786 122.13976,8.9445786 h 10.79518 q 55.51807,0 94.07228,51.8168654 20.66507,32.385546 20.35663,67.546996 0.30844,68.47227 -64.77109,106.40962 -25.29156,12.64579 -49.65782,12.64579 H 122.13976 Q 66.930119,247.05542 28.067469,195.54698 7.7108431,162.85301 7.7108431,128.30844 Z m 119.0554169,111.653 v -6.16868 l -19.43132,-4.31806 2.15903,-12.02892 q -28.3759,-7.40241 -49.657827,-28.37591 l -9.253011,6.78554 -10.178313,-13.87952 -8.327711,4.31808 q 36.39518,53.66747 94.689152,53.66747 z m 96.53976,-53.66747 -8.63614,-4.31808 q -3.70121,8.63616 -10.17832,13.87952 l -9.25301,-6.78554 q -21.28193,20.9735 -49.65783,28.37591 v 0.9253 l 2.15904,11.10362 -19.43132,4.31806 v 6.16868 q 58.29397,0 94.99758,-53.66747 z m -192.771081,-3.39278 7.093976,-4.93493 -7.093976,-17.27228 11.103615,-4.31808 q -4.009639,-13.57109 -4.009639,-25.29156 v -6.16868 q 0,-11.41204 4.009639,-24.983131 L 30.534939,93.76385 37.628915,77.41687 30.534939,73.098794 q -15.113252,25.291562 -15.113252,55.209646 0,29.60963 15.113252,54.59275 z m 194.004821,0 q 15.11325,-24.98312 15.11325,-54.59275 0,-29.918084 -15.11325,-55.209646 l -7.09398,5.243377 7.09398,17.272281 -11.10361,4.318077 q 4.00963,13.571091 4.00963,24.983131 v 6.16868 q 0,11.72047 -4.00963,25.29156 l 11.10361,6.16868 -7.09398,16.03855 z M 40.404819,74.332525 50.583132,60.144576 59.836143,66.930119 Q 81.11807,46.26506 109.49397,38.554216 v -0.616867 l -2.15903,-11.103614 19.43132,-4.318073 v -6.168674 q -58.293972,0 -94.689152,53.667468 z m 174.265061,0 7.71084,-5.24337 Q 186.60241,16.346988 128.30844,16.346988 v 6.168674 l 19.43132,4.318073 -2.15904,11.720481 q 28.3759,7.710844 49.65783,28.375903 l 9.25301,-6.785543 z"
     id="path80"
     style="display:inline;stroke-width:0.308433"
     inkscape:label="Faction Imperial" />
</svg>
