<?xml version="1.0" encoding="UTF-8" standalone="no"?>
<svg
   xmlns:dc="http://purl.org/dc/elements/1.1/"
   xmlns:cc="http://creativecommons.org/ns#"
   xmlns:rdf="http://www.w3.org/1999/02/22-rdf-syntax-ns#"
   xmlns:svg="http://www.w3.org/2000/svg"
   xmlns="http://www.w3.org/2000/svg"
   xmlns:sodipodi="http://sodipodi.sourceforge.net/DTD/sodipodi-0.dtd"
   xmlns:inkscape="http://www.inkscape.org/namespaces/inkscape"
   width="210mm"
   height="297mm"
   viewBox="0 0 210 297"
   version="1.1"
   id="svg2098"
   inkscape:version="1.0.2-2 (e86c870879, 2021-01-15)"
   sodipodi:docname="republic.svg">
  <defs
     id="defs2092" />
  <sodipodi:namedview
     id="base"
     pagecolor="#ffffff"
     bordercolor="#666666"
     borderopacity="1.0"
     inkscape:pageopacity="0.0"
     inkscape:pageshadow="2"
     inkscape:zoom="0.35"
     inkscape:cx="400"
     inkscape:cy="560"
     inkscape:document-units="mm"
     inkscape:current-layer="svg2098"
     inkscape:document-rotation="0"
     showgrid="false"
     inkscape:pagecheckerboard="true"
     showborder="false"
     inkscape:window-width="1267"
     inkscape:window-height="1198"
     inkscape:window-x="260"
     inkscape:window-y="163"
     inkscape:window-maximized="0" />
  <metadata
     id="metadata2095">
    <rdf:RDF>
      <cc:Work
         rdf:about="">
        <dc:format>image/svg+xml</dc:format>
        <dc:type
           rdf:resource="http://purl.org/dc/dcmitype/StillImage" />
        <dc:title></dc:title>
      </cc:Work>
    </rdf:RDF>
  </metadata>
  <path
     d="m 105.70104,257.96875 q 15.08125,0 29.23646,-3.96875 14.15521,-3.96875 26.32604,-10.98021 12.17083,-7.01146 22.225,-17.19792 10.05417,-10.18645 17.19792,-22.225 7.14375,-12.03854 11.1125,-26.32604 3.96875,-14.2875 3.96875,-29.10416 0,-22.225 -8.73125,-42.59792 -8.73125,-20.372915 -23.41563,-35.05729 -14.68437,-14.684375 -35.05729,-23.415625 -20.37292,-8.73125 -42.73021,-8.73125 -22.357288,0 -42.730204,8.73125 -20.372917,8.73125 -35.057292,23.415625 -14.684375,14.684375 -23.4156244,35.05729 -8.7312499,20.37292 -8.7312499,42.59792 0,22.225 8.7312499,42.59791 8.7312494,20.37292 23.4156244,35.05729 14.684375,14.68438 35.057292,23.41563 20.372916,8.73125 42.597914,8.73125 z m 0.66146,-8.99583 q -20.505208,0 -39.290625,-7.9375 -18.785416,-7.9375 -32.279166,-21.43125 -13.49375,-13.49375 -21.43125,-32.27917 -7.9374994,-18.78542 -7.9374994,-39.29062 0,-20.50521 7.9374994,-39.15834 7.9375,-18.653122 21.43125,-32.146872 13.49375,-13.49375 32.279166,-21.563541 18.785417,-8.069792 39.290625,-8.069792 20.50521,0 39.15833,8.069792 18.65313,8.069791 32.27917,21.563541 13.62604,13.49375 21.56354,32.146872 7.9375,18.65313 7.9375,39.15834 0,20.5052 -7.9375,39.29062 -7.9375,18.78542 -21.56354,32.27917 -13.62604,13.49375 -32.27917,21.43125 -18.65312,7.9375 -39.15833,7.9375 z M 145.65312,73.68646 q 5.29167,2.778125 9.525,5.953125 l 7.67292,-7.9375 q -7.9375,-5.291667 -13.89062,-8.202084 -5.95313,-2.910416 -14.15521,-5.423958 -8.20209,-2.513541 -17.19792,-3.571875 v 10.31875 q 12.17083,1.852083 17.4625,3.96875 5.29167,2.116667 10.58333,4.894792 z M 76.861459,68.791668 q 4.497916,-1.5875 14.552083,-3.175 V 54.768752 q -19.05,5.291666 -26.9875,9.260416 -7.9375,3.96875 -15.875,9.525 l 7.9375,6.614583 q 6.879167,-4.7625 11.377083,-7.276041 4.497917,-2.513542 8.995834,-4.101042 z M 110.46354,220.39792 v -37.30625 q 7.14375,-1.5875 13.75833,-4.7625 l 25.4,25.66458 9.78959,-10.05417 -24.87084,-25.13541 q 3.175,-5.82084 5.02709,-14.02292 h 36.24791 V 141.2875 l -35.71875,0.26458 q -3.175,-7.40833 -6.87916,-12.7 l 25.13541,-24.87083 -9.78958,-10.583332 -25.4,25.664582 q -5.82083,-2.91042 -12.96458,-4.49792 V 78.845835 H 96.440625 v 35.983335 q -5.820833,2.64583 -11.1125,5.02708 L 59.134376,94.191668 50.138542,104.24583 76.067709,130.175 q -2.910417,4.23333 -4.233334,10.84792 H 33.998959 V 155.575 h 37.835416 q 0.79375,5.29167 3.704167,11.37708 l -26.458333,26.19375 9.260417,10.84792 26.987499,-26.72292 q 5.820833,3.70417 11.1125,4.7625 v 38.36459 z m 89.95833,-84.1375 q -1.05833,-8.99584 -3.30729,-16.00729 -2.24896,-7.01146 -5.02708,-12.96459 -2.77813,-5.95312 -9.39271,-16.007289 l -8.73125,6.35 q 5.02708,7.143749 7.54063,12.038539 2.51354,4.89479 4.36562,9.39271 1.85208,4.49792 3.70417,17.19792 z M 22.621876,135.20208 q 1.322917,-9.525 3.836458,-15.7427 2.513542,-6.21771 4.497917,-10.31875 1.984375,-4.10105 6.217708,-9.392712 l -7.672916,-6.614584 q -5.291667,8.202086 -7.805209,13.361456 -2.513541,5.15938 -4.894791,11.77396 -2.38125,6.61458 -5.027083,16.93333 z m 160.602084,70.11459 q 5.82083,-8.46667 8.99583,-15.08125 3.175,-6.61459 5.15938,-12.7 1.98437,-6.08542 3.30729,-15.34584 h -11.1125 q -2.64584,12.96459 -4.23334,17.19792 -1.5875,4.23333 -4.23333,8.86354 -2.64583,4.63021 -7.14375,10.98021 z M 12.303126,162.98333 q 1.852083,9.525 4.101042,15.61042 2.248958,6.08542 4.497916,11.24479 2.248959,5.15938 8.863542,15.74271 l 7.9375,-7.40833 q -2.645833,-3.175 -5.55625,-8.0698 -2.910417,-4.89479 -5.291667,-10.84791 -2.38125,-5.95313 -3.704166,-16.27188 z m 79.374999,69.05625 q -9.789583,-1.85208 -14.2875,-3.70416 -4.497916,-1.85209 -9.128125,-4.36563 -4.630208,-2.51354 -12.567708,-7.54062 l -7.408333,8.20208 q 5.55625,4.23333 13.890625,8.20208 8.334375,3.96875 13.361458,5.95313 5.027083,1.98437 16.139583,4.36562 z m 24.606245,11.1125 q 13.22917,-1.32291 19.57917,-3.43958 6.35,-2.11667 11.1125,-4.49792 4.7625,-2.38125 14.81667,-10.58333 l -7.40834,-8.20208 q -7.67291,6.61458 -12.7,9.12812 -5.02708,2.51354 -9.525,3.70417 -4.49791,1.19062 -15.875,3.04271 z"
     id="path86"
     style="display:inline;stroke-width:0.264583"
     inkscape:label="Faction Republic" />
</svg>
